<svg width="577" height="354" viewBox="0 0 577 354" fill="none" xmlns="http://www.w3.org/2000/svg">
<path d="M287.395 353.351C294.88 332.577 327.96 293.378 398.7 311.412C487.125 333.955 543.268 325.999 574.146 242.458C583.036 207.98 572.181 152.287 457.65 205.328C488.061 171.293 536.811 84.9231 488.529 11.7254C484.786 6.4212 471.124 -3.12634 446.422 1.11701C415.543 6.42119 433.789 62.1157 440.807 100.571C447.825 139.026 466.071 204.003 366.418 268.979C398.7 244.226 455.124 176.951 422.561 105.875C418.35 97.9189 406.279 81.7411 391.682 80.6803C381.857 80.2383 360.242 94.7364 352.382 156.265C357.061 111.621 350.275 19.5842 287.395 11.0975V353.351Z" fill="#213554"/>
<path d="M289.164 353.292C281.678 332.517 248.598 293.319 177.858 311.353C89.4335 333.896 33.2907 325.939 2.41217 242.398C-6.47711 207.921 4.37713 152.227 118.909 205.269C88.4978 171.234 39.7471 84.8635 88.03 11.6658C91.7728 6.36163 105.434 -3.18591 130.137 1.05744C161.016 6.36162 142.769 62.0561 135.751 100.511C128.734 138.967 110.487 203.943 210.141 268.919C177.859 244.166 121.435 176.892 153.998 105.816C158.208 97.8593 170.279 81.6816 184.876 80.6207C194.701 80.1787 216.316 94.6768 224.176 156.205C219.498 111.562 226.284 19.5246 289.164 11.0379V353.292Z" fill="#213554"/>
</svg>
