<svg width="365" height="249" viewBox="0 0 365 249" fill="none" xmlns="http://www.w3.org/2000/svg">
<path fill-rule="evenodd" clip-rule="evenodd" d="M0 248.27C10.2103 216.997 43.5214 145.515 95.0835 109.774C122.703 90.6296 152.315 78.2824 172.971 69.6692C200.519 58.1829 212.14 53.3372 181.871 47.8663C139.498 40.2075 120.822 62.12 116.78 74.0336C122.736 49.5685 164.258 0.510583 282.698 0C249.514 9.36069 191.443 30.5074 224.627 40.2084C266.106 52.3348 327.368 54.8877 364.38 9.57342C353.107 32.0199 316.52 75.4436 260.363 69.5669C271.211 80.6296 304.012 95.8619 348.427 68.2905C324.603 83.3952 285.761 127.39 320.987 182.533C311.627 170.194 292.525 140.921 290.994 122.54C289.079 99.5637 276.316 112.966 271.849 122.54C277.38 106.584 272.998 76.5874 211.226 84.2461C134.01 93.8196 161.451 111.69 186.338 105.946C166.556 117.221 147.667 135.049 230.37 116.158C213.778 127.858 169.108 150.75 123.162 148.707C135.712 146.793 158.387 139.261 148.688 124.455C136.563 105.946 64.4526 128.282 0 248.27ZM186.976 77.8639C202.292 59.9935 230.796 55.1004 243.133 54.8877C215.565 58.4618 235.475 72.5453 248.876 79.1404C223.861 67.9076 197.187 73.609 186.976 77.8639Z" fill="#213554"/>
</svg>
