<svg width="661" height="444" viewBox="0 0 661 444" fill="none" xmlns="http://www.w3.org/2000/svg">
<path d="M317.324 443.039C304.497 426.939 271.917 396.911 244.211 405.606C209.579 416.473 205.731 441.831 182.642 434.586C159.554 427.341 159.554 406.813 174.946 389.908C190.338 373.002 230.102 365.757 276.278 391.115C224.971 334.362 111.582 221.095 68.4833 222.061C60.7872 222.061 44.3688 222.786 40.2643 225.684C35.1335 229.307 5.63175 241.382 0.501007 214.816C-4.62973 188.251 30.0028 168.93 92.8543 218.439C65.4904 181.408 21.024 90.441 62.0699 22.8194C71.4762 9.53664 97.2155 -11.9574 124.921 8.32909C159.554 33.6872 113.377 54.2151 103.116 50.5925C92.8543 46.97 -3.34703 143.572 144.162 257.08C113.377 205.961 71.3052 95.9956 149.292 65.0829C166.395 60.6553 197.521 65.0829 185.208 118.214C182.642 123.849 175.203 136.569 165.967 142.365C154.423 149.61 123.639 236.552 210.861 316.249C186.918 275.998 156.476 184.387 226.254 139.95C235.66 136.73 256.268 134.153 263.451 149.61C272.43 168.93 242.928 194.288 232.667 209.986L232.477 210.277C221.958 226.361 185.707 281.788 267.3 373.002C279.271 385.078 306.037 415.99 317.324 443.039Z" fill="#9B6565"/>
<path d="M342.852 443.039C355.678 426.939 388.259 396.911 415.965 405.606C450.597 416.473 454.445 441.831 477.533 434.586C500.622 427.341 500.622 406.813 485.23 389.908C469.837 373.002 430.074 365.757 383.897 391.115C435.205 334.362 548.594 221.095 591.692 222.061C599.389 222.061 615.807 222.786 619.912 225.684C625.042 229.307 654.544 241.382 659.675 214.816C664.806 188.251 630.173 168.93 567.321 218.439C594.685 181.408 639.152 90.441 598.106 22.8194C588.7 9.53664 562.96 -11.9574 535.254 8.32909C500.622 33.6872 546.798 54.2151 557.06 50.5925C567.321 46.97 663.523 143.572 516.014 257.08C546.798 205.961 588.871 95.9956 510.883 65.0829C493.781 60.6553 462.654 65.0829 474.968 118.214C477.533 123.849 484.973 136.569 494.208 142.365C505.753 149.61 536.537 236.552 449.314 316.249C473.258 275.998 503.7 184.387 433.922 139.95C424.516 136.73 403.907 134.153 396.724 149.61C387.746 168.93 417.247 194.288 427.509 209.986L427.699 210.277C438.218 226.361 474.469 281.788 392.876 373.002C380.905 385.078 354.139 415.99 342.852 443.039Z" fill="#9B6565"/>
</svg>
