<svg width="145" height="442" viewBox="0 0 145 442" fill="none" xmlns="http://www.w3.org/2000/svg">
<path d="M40.8412 107.861C39.8127 103.839 38.9095 98.9712 38.4352 93.8552C31.5533 65.1237 15.5992 55.8121 4.78772 54.3763C3.27658 54.4679 1.68201 54.4297 0 54.2494C1.42078 54.1179 3.0368 54.1438 4.78772 54.3763C25.1934 53.1397 30.3929 28.2276 30.4342 9.53215C30.1815 6.53525 30.0301 3.36094 29.9928 0C30.2736 2.83998 30.4418 6.08009 30.4342 9.53215C33.3598 44.2223 49.8695 55.1429 60.3693 56.6235C61.271 56.6413 62.2063 56.7002 63.1763 56.8023C62.3057 56.8194 61.3645 56.7639 60.3693 56.6235C40.1646 56.225 36.8235 76.4707 38.4352 93.8552C39.4494 98.0896 40.2666 102.746 40.8412 107.861Z" fill="#9B6565"/>
<path d="M131.458 441.016C131.083 438.928 130.84 436.316 130.914 433.574C128.882 420.69 121.594 416.652 116.833 416.169C116.402 416.176 115.959 416.162 115.504 416.125C115.917 416.109 116.363 416.122 116.833 416.169C128.49 415.992 131.458 400.512 131.458 392.511C131.458 411.029 138.802 415.905 143.503 416.177C143.94 416.143 144.392 416.125 144.859 416.125C144.442 416.185 143.986 416.205 143.503 416.177C133.902 416.933 131.126 425.775 130.914 433.574C131.263 435.785 131.458 438.257 131.458 441.016Z" fill="#9B6565"/>
</svg>
