<svg width="144" height="115" viewBox="0 0 144 115" fill="none" xmlns="http://www.w3.org/2000/svg">
<path d="M70.6641 100.951C82.3605 72.6617 100.981 10.6679 70.6641 0.0595703V100.951Z" fill="#B5A07B"/>
<path d="M72.4336 100.891C60.7372 72.6022 42.1165 10.6084 72.4336 0V100.891Z" fill="#B5A07B"/>
<path d="M93.1195 114.1C93.1195 112.774 91.7159 69.0141 116.98 55.7536C124.466 51.7755 139.999 46.2061 142.244 55.7536C145.052 67.688 140.841 72.9922 131.016 76.9704C121.191 80.9485 111.366 79.6224 93.1195 114.1Z" fill="#B5A07B"/>
<path d="M49.9782 114.04C49.9782 112.714 51.3817 68.9545 26.1174 55.694C18.6317 51.7159 3.09888 46.1465 0.853168 55.694C-1.95397 67.6285 2.25674 72.9326 12.0817 76.9108C21.9067 80.8889 31.7317 79.5629 49.9782 114.04Z" fill="#B5A07B"/>
</svg>
