<svg width="619" height="136" viewBox="0 0 619 136" fill="none" xmlns="http://www.w3.org/2000/svg">
<path d="M552.363 103.99C568.738 91.6136 599.523 56.7828 591.663 16.471C587.92 8.0727 576.224 -6.33699 559.381 3.21054C538.328 15.145 581.838 39.0138 552.363 103.99Z" fill="#B5A07B"/>
<path d="M65.6875 103.93C49.3125 91.554 18.5275 56.7232 26.3875 16.4114C30.1304 8.01313 41.8268 -6.39656 58.6696 3.15097C79.7232 15.0854 36.2125 38.9542 65.6875 103.93Z" fill="#B5A07B"/>
<path d="M615.53 113.273C619.273 119.019 621.706 130.776 601.494 131.837C576.23 133.163 575.126 118.209 548.309 135.632C562.429 118.374 595.39 90.0168 615.53 113.273Z" fill="#B5A07B"/>
<path d="M2.53632 113.213C-1.20654 118.959 -3.6394 130.717 16.572 131.778C41.8363 133.104 42.9401 118.15 69.7578 135.572C55.6374 118.315 22.6761 89.9572 2.53632 113.213Z" fill="#B5A07B"/>
</svg>
