<svg width="652" height="168" viewBox="0 0 652 168" fill="none" xmlns="http://www.w3.org/2000/svg">
<path d="M554.879 158.792C579.207 144.206 628.426 121.928 630.672 149.51C632.917 177.092 581.079 167.191 554.879 158.792Z" fill="#B5A07B"/>
<path d="M490.312 158.792C513.237 153.742 561.333 127.841 570.316 64.6431C581.545 -14.3547 669.97 -20.2231 647.512 43.4267C625.055 107.077 585.755 140.228 490.312 158.792Z" fill="#B5A07B"/>
<path d="M458.031 145.532C472.535 139.786 501.542 119.807 501.542 85.8602C501.542 43.4271 538.035 35.4704 536.631 72.5997C535.228 109.729 516.981 133.598 458.031 145.532Z" fill="#B5A07B"/>
<path d="M96.2734 158.733C71.9449 144.146 22.7263 121.869 20.4806 149.451C18.2349 177.032 70.0734 167.131 96.2734 158.733Z" fill="#B5A07B"/>
<path d="M160.84 158.733C137.915 153.682 89.8191 127.782 80.8363 64.5835C69.6077 -14.4142 -18.8172 -20.2826 3.63991 43.3672C26.097 107.017 65.397 140.168 160.84 158.733Z" fill="#B5A07B"/>
<path d="M193.121 145.473C178.618 139.726 149.61 119.747 149.61 85.8006C149.61 43.3675 113.118 35.4108 114.521 72.5401C115.925 109.669 134.171 133.538 193.121 145.473Z" fill="#B5A07B"/>
</svg>
