<svg width="417" height="742" viewBox="0 0 417 742" fill="none" xmlns="http://www.w3.org/2000/svg">
<path d="M41.1468 741.999C13.3135 698.499 -11.4532 583.699 112.147 472.499C83.8134 494.499 31.5467 528.999 49.1467 490.999C66.7467 452.999 86.8133 439.166 94.6467 436.999C96.8133 413.666 120.647 364.699 198.647 355.499C185.48 354.166 168.347 348.199 205.147 334.999C251.147 318.499 266.147 333.499 254.647 368.499C245.447 396.499 209.147 428.499 192.146 440.999C215.48 429.166 269.347 393.899 298.147 347.499C282.313 340.833 257.347 319.899 284.147 289.499C317.647 251.499 356.647 237.499 350.147 271.999C344.947 299.599 328.313 319.833 320.647 326.5C341.48 319 389.747 243.2 416.147 0C404.48 91.1663 349.047 276.699 220.647 289.499C209.813 313 180.547 353.3 150.147 326.5C119.747 299.7 169.813 257 198.647 239C165.147 255.5 94.6467 303.1 80.6467 361.5C85.8134 354 99.347 339.1 112.147 339.5C128.147 340 136.147 351 91.1467 392C46.1467 433 -57.353 593.999 41.1468 741.999Z" fill="#B5A07B"/>
</svg>
