<svg width="95" height="94" viewBox="0 0 95 94" fill="none" xmlns="http://www.w3.org/2000/svg">
<path d="M83.7844 62.9095C80.4115 58.9705 73.7993 47.2691 74.3339 31.9746C75.0021 12.8564 61.1605 0.943592 47.6053 1.52002C34.05 2.09645 20.4948 10.2624 20.7812 31.9746C21.0103 49.3443 14.5127 59.8352 11.2353 62.9095C23.1995 65.4393 54.4592 68.9811 83.7844 62.9095Z" fill="url(#paint0_linear_3796_191)"/>
<path d="M83.7844 62.9095C54.4592 68.9811 23.1995 65.4393 11.2353 62.9095C9.867 64.7668 6.57683 68.5969 4.36217 69.0581C1.59385 69.6345 -2.12906 74.7263 9.32606 77.3202C18.7582 79.4199 27.3046 80.6482 35.0048 81.2738C44.3389 82.0321 52.4296 81.9047 59.3469 81.3702C71.7882 80.409 80.4342 78.1308 85.6936 77.3202C96.2896 75.687 93.9986 69.5384 90.9439 69.0581C88.5001 68.6738 85.1527 64.7989 83.7844 62.9095Z" fill="url(#paint1_linear_3796_191)"/>
<path d="M35.0048 81.2738C35.5139 84.9836 38.7086 92.4226 47.4145 92.4994C56.1204 92.5763 58.9969 85.112 59.3469 81.3702C52.4296 81.9047 44.3389 82.0321 35.0048 81.2738Z" fill="url(#paint2_linear_3796_191)"/>
<path d="M83.7844 62.9095C80.4115 58.9705 73.7993 47.2691 74.3339 31.9746C75.0021 12.8564 61.1605 0.943592 47.6053 1.52002C34.05 2.09645 20.4948 10.2624 20.7812 31.9746C21.0103 49.3443 14.5127 59.8352 11.2353 62.9095M83.7844 62.9095C54.4592 68.9811 23.1995 65.4393 11.2353 62.9095M83.7844 62.9095C85.1527 64.7989 88.5001 68.6738 90.9439 69.0581C93.9986 69.5384 96.2896 75.687 85.6936 77.3202C80.4342 78.1308 71.7882 80.409 59.3469 81.3702M11.2353 62.9095C9.867 64.7668 6.57683 68.5969 4.36217 69.0581C1.59385 69.6345 -2.12906 74.7263 9.32606 77.3202C18.7582 79.4199 27.3046 80.6482 35.0048 81.2738M35.0048 81.2738C35.5139 84.9836 38.7086 92.4226 47.4145 92.4994C56.1204 92.5763 58.9969 85.112 59.3469 81.3702M35.0048 81.2738C44.3389 82.0321 52.4296 81.9047 59.3469 81.3702" stroke="#7C6948" stroke-width="3"/>
<defs>
<linearGradient id="paint0_linear_3796_191" x1="47.5" y1="1.5" x2="47.5" y2="92.5" gradientUnits="userSpaceOnUse">
<stop stop-color="#A48B60"/>
<stop offset="1" stop-color="#C4A267"/>
</linearGradient>
<linearGradient id="paint1_linear_3796_191" x1="47.5" y1="1.5" x2="47.5" y2="92.5" gradientUnits="userSpaceOnUse">
<stop stop-color="#A48B60"/>
<stop offset="1" stop-color="#C4A267"/>
</linearGradient>
<linearGradient id="paint2_linear_3796_191" x1="47.5" y1="1.5" x2="47.5" y2="92.5" gradientUnits="userSpaceOnUse">
<stop stop-color="#A48B60"/>
<stop offset="1" stop-color="#C4A267"/>
</linearGradient>
</defs>
</svg>
