<svg width="1102" height="396" viewBox="0 0 1102 396" fill="none" xmlns="http://www.w3.org/2000/svg">
<path d="M272.122 217.646C164.089 190.383 57.1913 236.308 17.2466 262.678C-62.5618 382.441 153.91 344.63 272.122 310.754C325.652 438.792 457.044 386.822 516.049 344.832C597.804 410.556 661.228 349.498 682.722 310.754C749.877 454.858 853.45 384.185 896.841 330.836C1080.79 395.098 1109.34 312.174 1100.62 262.678C1050.01 185.758 914.888 155.98 853.653 150.706C851.219 26.075 728.141 25.3447 666.906 40.5584C495.123 -58.7566 410.814 47.4552 390.132 112.976C310.323 112.976 278.205 182.756 272.122 217.646Z" fill="url(#paint0_linear_3595_1034)"/>
<defs>
<linearGradient id="paint0_linear_3595_1034" x1="551" y1="0" x2="551" y2="396" gradientUnits="userSpaceOnUse">
<stop stop-color="#D9D9D9"/>
<stop offset="1" stop-color="#737373" stop-opacity="0"/>
</linearGradient>
</defs>
</svg>
