<svg width="1102" height="396" viewBox="0 0 1102 396" fill="none" xmlns="http://www.w3.org/2000/svg">
<path d="M829.878 217.646C937.911 190.383 1044.81 236.308 1084.75 262.678C1164.56 382.441 948.09 344.63 829.878 310.754C776.348 438.792 644.956 386.822 585.951 344.832C504.196 410.556 440.772 349.498 419.278 310.754C352.123 454.858 248.55 384.185 205.159 330.836C21.21 395.098 -7.3393 312.174 1.3796 262.678C51.9898 185.758 187.112 155.98 248.347 150.706C250.781 26.075 373.859 25.3447 435.094 40.5584C606.877 -58.7566 691.186 47.4552 711.868 112.976C791.677 112.976 823.795 182.756 829.878 217.646Z" fill="url(#paint0_linear_3802_208)"/>
<defs>
<linearGradient id="paint0_linear_3802_208" x1="551" y1="0" x2="551" y2="396" gradientUnits="userSpaceOnUse">
<stop stop-color="#D9D9D9"/>
<stop offset="1" stop-color="#737373" stop-opacity="0"/>
</linearGradient>
</defs>
</svg>
