<svg width="372" height="372" viewBox="0 0 372 372" fill="none" xmlns="http://www.w3.org/2000/svg">
<circle cx="186" cy="186" r="184" fill="url(#paint0_linear_3811_213)" stroke="#7E6943" stroke-width="4"/>
<circle cx="185.997" cy="186" r="162.356" fill="url(#paint1_linear_3811_213)"/>
<path d="M63.5113 74.7622C91.5063 43.1181 136.233 21.8463 178.702 20.714C183.88 20.5361 183.54 20.8108 184.998 20.8141C185.342 20.8187 185.674 20.822 185.997 20.8242C189.413 20.8528 191.643 20.7188 194.28 20.8608C208.372 21.6658 221.461 24.0239 234.651 28.1463C248.153 32.6949 241.506 31.2559 246.078 33.0995C254.849 37.0305 247.619 33.1177 251.191 34.4081C261.344 38.8331 271.105 44.3768 280.134 50.793C277.868 49.3101 275.574 47.8863 273.22 46.4987C277.306 49.0661 282.877 53.1184 276.083 48.7822C277.535 49.8117 278.869 50.8069 280.329 51.9086C280.948 51.8965 287.789 56.9834 288.48 57.3707C289.213 57.7027 285.404 54.776 285.428 54.7938C285.999 54.5915 300.757 67.6719 301.54 68.9014C304.146 71.6015 301.555 69.5411 303.803 71.7972C307.594 75.74 305.748 72.5121 309.884 78.751C312.06 80.766 312.104 81.0742 314.421 83.9969C314.725 84.3836 314.642 83.9623 314.78 84.1287C318.373 88.5033 315.414 85.2918 315.418 85.3286C315.489 85.925 319.229 90.6811 319.914 91.7624C328.67 105.156 333.955 115.708 339.637 131.522C340.928 134.912 344.166 145.53 344.803 148.981C345.515 152.378 344.867 150.614 345.136 152.413C346.284 155.13 346.948 157.875 347.451 164.385C348.175 166.739 347.837 166.485 348.369 171.104C348.818 174.949 349.653 181.694 349.187 186C349.184 181.077 349.004 181.604 348.595 176.109C348.737 174.244 346.188 155.308 345.789 156.821C345.73 157.582 346.909 163.791 346.87 164.039C346.812 165.47 346.077 162.048 345.654 158.945C345.831 159.704 346.03 160.624 346.204 161.443C345.369 154.464 345.034 159.428 345.057 154.015C345.05 153.346 345.232 153.573 345.14 152.476C345.041 152.268 345.179 153.603 344.92 152.483C344.66 151.341 344.422 149.117 344.13 148.846C343.72 148.432 344.894 153.129 344.93 153.496C344.933 153.499 344.935 153.502 344.938 153.506C345.411 156.685 344.05 150.112 343.918 149.812C343.253 147.838 343.441 149.242 342.537 146.274C342.028 144.577 340.862 140.213 340.332 138.643C339.817 137.077 340.428 139.571 340.071 138.521C339.714 137.471 339.401 136.112 338.952 134.887C338.759 134.363 338.608 134.444 338.516 134.19C337.511 131.477 338.469 133.152 337.562 130.689C336.985 129.077 334.568 123.897 335.925 127.589C335.206 125.839 334.488 124.153 333.719 122.435C334.143 123.546 334.581 124.683 334.959 125.776C333.703 122.482 332.775 121.129 331.841 119.131C330.9 117.136 330.348 115.194 329.091 113.099C326.428 108.632 332.365 120.029 332.828 121.574C333.057 122.152 331.844 120.08 331.681 119.753C330.977 118.284 330.323 116.466 329.756 115.338C327.723 111.317 326.187 109.018 323.992 105.343C316.589 92.7696 305.009 78.7232 294.801 69.4562C291.032 65.9772 288.831 63.7921 287.044 62.331C282.831 58.96 282.138 58.7706 278.327 56.0297C272.653 51.9406 264.291 46.6873 259.088 44.0154C255.502 42.1234 252.066 40.8337 251.105 40.4112C237.779 34.3626 220.483 29.7568 208.487 28.2149C202.855 27.4375 200.17 26.9989 199.001 26.9001C193.951 26.5684 195.277 26.893 191.2 26.7043C188.991 26.6254 188.576 26.408 188.279 26.3926C187.282 26.3509 186.587 26.3737 185.997 26.4156C185.036 26.485 184.355 26.6026 183.092 26.63C171.396 26.9023 160.127 28.1346 148.835 30.7902C148.017 30.984 148.059 30.8419 147.532 30.9783C145.276 31.5798 146.375 31.5035 144.015 32.1499C139.12 33.5152 134.14 35.0888 129.095 36.9885C128.596 37.1777 128.311 37.1066 127.173 37.5559C126.036 38.0094 125.237 38.4991 123.467 39.242C118.841 41.1935 114.29 43.1756 109.614 45.712C108.839 46.1333 107.981 46.8367 106.836 47.4901C103.233 49.5173 97.96 52.6659 95.0502 54.7059C85.4188 61.3834 77.307 68.6196 69.7425 76.6398C67.9657 78.526 66.3042 80.1224 65.4145 81.1389C63.422 83.4398 65.0415 81.8038 63.0617 84.1648C46.9919 103.518 35.4198 126.776 30.0025 151.671C27.8084 161.435 26.6187 173.595 26.4637 183.247C26.4386 184.386 26.4109 185.263 26.3797 186C26.305 187.867 26.192 188.825 26.2474 190.863C26.4324 195.908 26.7963 196.856 27.3198 202.143C27.7663 206.397 28.1456 211.268 28.9905 215.639C29.8493 219.983 30.5776 221.944 31.8852 226.852C32.9701 230.906 34.5818 236.544 36.1863 240.813C50.738 280.1 80.7199 312.628 118.81 330.578C132.228 336.974 148.159 341.732 163.354 344.131C164.781 344.35 162.542 344.372 167.157 344.884C169.657 345.134 173.109 345.276 178.868 345.529C181.221 345.627 183.598 345.678 185.997 345.678C218.101 345.903 252.052 335.711 278.418 316.674C321.977 286.336 344.461 232.458 346.831 187.247C346.987 185.001 347.715 186.217 347.911 187.575C347.751 188.829 347.552 189.983 347.344 191.281C348.177 192.955 348.038 192.655 347.524 198.764C347.16 202.507 347.803 199.548 347.733 201.556C347.762 204.182 346.317 216.387 346.063 213.95C346.036 214.716 346.009 215.424 345.974 216.171C344.423 224.924 342.276 233.314 339.474 241.568C338.987 242.99 339.139 243.125 338.612 244.592C337.181 248.523 335.765 251.537 333.959 255.444C332.966 257.557 333.025 257.956 331.62 260.685C330.188 263.399 329.982 263.202 328.207 267.007C329.921 264.843 323.542 275.226 320.994 278.726C320.654 279.254 317.944 283.653 316.221 285.796C314.517 287.961 311.741 291.082 309.016 294.348C307.738 295.878 307.115 296.95 305.651 298.533C304.619 299.645 303.191 300.795 301.827 302.141C300.476 303.497 297.589 306.483 297.022 306.992C295.002 308.849 297.133 306.694 295.738 307.947C289.003 314.007 280.532 320.28 273.011 325.085C272.086 325.678 273.476 325.034 273.356 325.116C267.119 329.223 270.377 326.914 268.566 327.803C266.879 328.792 254.216 335.325 254.193 335.544C253.626 335.356 250.856 336.929 250.094 337.256C247.155 338.535 247.604 337.966 244.75 339.198C243.698 339.644 245.861 339.074 244.713 339.508C241.859 340.574 239.182 341.126 235.324 342.309C234.389 342.591 234.145 342.853 232.486 343.34C230.836 343.866 223.745 345.465 227.079 344.987C222.749 345.768 221.909 346.142 216.891 347.124C215.616 347.362 213.93 347.394 211.21 347.905C210.292 348.075 210.363 348.34 208.973 348.539C205.795 348.986 202.735 349.062 198.689 349.366C194.559 349.671 190.333 349.891 185.997 349.93C182.312 349.963 178.673 349.867 175.009 349.593C172.853 349.421 173.407 349.204 170.293 348.916C169.848 348.882 166.038 348.719 163.897 348.395C162.609 348.246 155.941 346.986 154.623 346.677C152.425 346.224 151.968 346.386 150.77 346.075C147.313 345.14 150.194 345.427 145.898 344.923C144.603 344.301 142.162 343.669 141.492 343.101C139.976 343.081 138.28 342.197 135.539 341.449C132.807 340.703 130.361 340.628 129.999 339.62C128.711 339.286 123.398 337.372 122.529 336.992C119.931 335.923 121.4 336.307 119.451 335.482C119.11 335.332 119.397 335.645 117.23 334.633C115.767 334.063 105.564 328.737 105.024 328.291C98.3748 324.145 108.788 330.323 110.408 330.865C110.652 331.042 110.893 331.218 111.157 331.403C114.207 333.037 112.604 331.834 111.252 331.047C109.898 330.263 107.254 329.011 106.178 328.266C105.643 327.895 106.195 327.734 107.883 328.722C106.114 327.598 108.68 328.857 108.015 328.351C107.244 327.856 99.2316 323.029 99.0941 323.143C100.568 324.091 102.433 325.221 103.954 326.123C105.774 327.639 98.8908 325.326 93.8293 321.161C90.2048 318.119 96.6599 322.43 87.4892 316.127C88.8447 317.174 89.9879 318.059 91.2442 318.978C91.2011 319.322 89.3456 317.578 88.2513 316.872C87.7191 316.538 90.6899 319.008 87.9576 317.068C85.9189 314.984 83.8897 313.994 80.184 310.879C81.2591 311.689 82.3443 312.487 83.4367 313.269C77.3321 307.871 92.0182 319.766 79.9247 309.573C81.3768 310.802 82.8318 312.014 84.3371 313.191C83.7146 312.488 85.1604 313.05 84.5772 312.456C83.0499 310.904 80.4962 308.967 78.5393 307.194C77.683 306.419 78.302 306.801 78.2299 306.736C77.0634 305.67 77.1986 306.041 76.1675 305.11C74.856 303.951 71.3723 300.298 70.7977 299.719C69.2762 298.247 71.49 301.014 71.3325 300.885C70.2452 300.06 68.4332 297.966 68.3692 298.228C72.9204 303.086 87.2902 315.838 74.0899 304.521C77.3641 308.044 75.9426 307.566 70.9308 302.762C66.856 298.724 69.6096 301.204 67.6969 298.908C67.4179 298.638 62.3525 292.892 62.008 292.669C62.4842 292.661 61.1206 290.559 62.491 291.58C62.6864 291.734 64.7282 294.098 64.2395 293.076C63.993 292.567 63.2279 291.169 63.541 291.232C63.0215 290.836 62.4717 290.426 61.9451 290.019C58.9322 286.455 58.6656 285.815 57.3131 283.644C57.2994 283.798 58.3717 285.95 56.3155 283.012C56.2131 282.859 56.239 282.64 55.2307 281.128C53.2099 278.057 52.8362 277.395 54.8346 279.421C50.2782 273.357 49.8263 271.691 45.8106 265.063C46.0643 266.691 47.4701 269.057 51.4735 274.949C51.5248 275.285 51.4871 275.485 51.5443 275.831C46.6487 267.684 49.1714 271.649 46.1456 267.189C45.3842 266.106 42.1166 259.879 42.8713 262.136C43.032 262.675 45.1744 266.501 44.8042 266.132C44.7133 266.072 42.0903 261.43 41.9282 260.986C39.752 255.488 44.471 264.867 37.5243 250.262C37.3426 249.855 37.1181 249.78 36.7548 248.986C36.0792 247.494 36.2607 247.397 35.6709 246.058C35.0844 244.72 34.0916 242.912 33.5861 240.755C32.6702 236.819 36.0717 245.658 37.5822 249.591C38.2488 251.129 28.6385 222.67 28.8848 220.678C26.9729 212.76 29.92 225.985 30.0509 226.664C30.0612 226.958 29.1332 227.062 30.6196 230.221C31.0567 231.151 30.1385 227.004 30.9061 229.417C31.6862 231.823 31.1642 230.931 31.1953 231.113C31.305 231.739 32.1808 234.275 32.2573 234.623C33.4046 239.914 32.3645 239.728 31.4462 232.529C30.2775 229.636 31.9078 236.596 30.5965 232.954C29.0084 228.507 28.6059 225.035 28.4824 224.466C27.1075 217.501 28.2666 225.631 26.6785 217.092C25.8869 212.335 28.394 224.104 26.3507 213.291C24.897 204.184 25.4813 209.13 24.8976 208.535C24.7682 208.394 23.944 203.387 24.9407 210.219C25.0909 210.394 25.3052 210.731 25.4848 211.149C25.6501 212.84 25.5407 215.733 25.6932 216.623C26.438 220.959 26.7385 220.693 26.9462 223.31C26.9281 221.407 27.3636 224.41 27.728 225.485C29.1094 229.469 27.7051 224.139 29.9163 233.323C29.7449 232.091 29.6165 230.971 29.4816 229.774C29.7917 230.861 30.1132 231.943 30.4452 233.02C30.5024 234.752 32.4509 240.474 30.3503 235.41C32.2476 241.705 33.3718 244.124 34.1854 245.348C34.3434 245.579 34.7259 246.486 35.1685 247.553C35.1718 247.315 35.3328 246.949 35.4337 247.104C36.3243 248.489 36.8341 251.013 36.3067 250.304C36.6177 251.052 36.8663 251.643 36.9533 251.852C37.5055 253.176 36.1988 250.678 36.6108 251.768C36.7353 252.134 38.4589 255.791 38.435 255.888C38.2616 256.515 35.502 250.43 41.2994 262.516C41.8142 262.608 38.9178 257.114 40.0569 258.329C41.2527 259.639 42.2802 263.026 43.1892 263.398C43.2356 263.695 43.2219 263.845 43.2385 264.114C46.0929 268.695 45.7431 268.976 46.4876 270.455C47.8647 273.385 56.2272 285.52 49.2037 274.309C50.2895 275.907 51.4064 277.531 52.5396 279.084C52.0778 279.943 51.5404 278.888 57.0562 286.363C58.2927 287.992 58.4003 288.767 60.0445 290.014C59.4911 290.118 63.6444 294.547 63.9991 294.985C66.1077 297.991 56.8454 288.103 56.555 286.132C54.9124 284.524 55.2528 284.272 53.7065 282.263C51.5005 279.338 51.1215 278.961 48.9898 275.161C46.1393 271.898 58.4061 289.066 50.5717 278.932C40.9951 271.142 17.4109 211.379 20.7931 186C20.7812 183.528 20.8249 181.457 20.8748 179.867C22.6476 148.239 27.8636 131.516 40.966 106.271C42.011 103.607 53.8382 85.9305 51.8349 89.9309C51.4888 90.4687 46.5308 98.099 51.2686 91.8904C50.1602 93.0521 52.6774 89.2126 52.898 88.8958C57.8157 81.5369 54.3418 85.2946 63.5113 74.7622ZM97.3924 51.6891C82.7937 61.7524 93.6555 54.5501 91.1122 57.2984C92.9319 55.9574 94.7741 54.6587 96.6511 53.3942C96.1313 53.6865 95.6191 53.9778 95.1023 54.2761C95.1002 54.2776 95.098 54.279 95.096 54.2805C95.8485 53.4115 96.6185 52.5445 97.3924 51.6891ZM336.544 130.615C336.21 130.001 335.875 129.399 335.515 128.738C334.709 126.546 333.864 124.395 332.961 122.238C333.135 122.466 333.306 122.685 333.48 122.915C334.564 125.454 335.578 128.01 336.544 130.615ZM38.684 251.826C39.8072 254.973 40.114 254.488 41.8735 258.55C41.9624 257.899 42.0216 257.199 42.1031 256.528C40.5956 253.546 40.1446 252.921 38.7696 249.555C38.8275 249.991 38.8906 250.436 38.9477 250.864C39.2161 251.408 39.5068 251.984 39.7706 252.508C39.8417 253.506 37.43 248.196 38.6786 251.816C38.6804 251.819 38.6822 251.823 38.684 251.826ZM55.9022 281.14C56.8814 282.634 61.1244 288.319 61.8907 288.939C64.2717 291.204 51.732 275.723 61.1465 286.996C61.1614 286.897 61.2595 286.904 61.3161 286.858C59.6555 284.767 58.0457 282.64 56.4769 280.458C56.3281 280.745 56.0403 280.836 55.9022 281.14ZM52.2347 96.6287C50.5469 98.8087 44.1984 110.228 46.6275 106.712C47.3058 105.666 49.8989 100.435 51.1516 98.5997C51.9487 97.4082 51.276 98.8871 52.7641 96.4836C52.5993 96.5231 52.4506 96.5163 52.231 96.6356C52.2322 96.6333 52.2335 96.631 52.2347 96.6287ZM53.9321 91.5214C52.3029 93.8738 50.7251 96.3074 49.2177 98.7577C50.5839 97.1409 52.7518 93.6288 53.241 93.6729C52.8182 94.335 52.4052 94.9926 51.9921 95.6606C51.5808 96.1065 51.1768 96.5475 50.7751 96.9909C49.6241 99.1811 50.4997 97.9677 48.0267 101.828C50.0456 99.8099 50.4718 99.5139 54.4244 92.7303C53.8619 94.1383 55.5238 93.6232 57.459 89.6932C57.8227 88.9544 55.7287 91.608 55.6934 91.631C55.1494 91.8804 56.1067 90.2512 55.554 90.5394C55.3017 90.6664 54.0903 92.3496 53.7719 92.5049C53.6175 92.5724 54.5725 90.8235 53.9321 91.5214ZM58.5089 87.8522C58.1165 88.6548 60.2639 86.533 61.8443 84.4785C64.324 81.2741 59.9257 85.9285 58.5089 87.8522ZM336.55 130.629C336.548 130.624 336.546 130.619 336.544 130.615C336.546 130.617 336.547 130.619 336.548 130.621C336.549 130.624 336.549 130.627 336.55 130.629ZM50.8445 273.445C52.1064 275.131 53.8546 277.702 53.9229 277.375C54.4657 278.241 55.0239 279.11 55.5832 279.966C55.636 279.916 55.6833 279.858 55.7355 279.808C53.9767 277.294 52.2953 274.737 50.6855 272.128C50.7299 272.556 50.7596 272.96 50.8445 273.445ZM71.7387 299.604C74.4665 302.351 72.3928 299.832 73.1063 300.319C73.8119 300.809 76.2112 303.273 76.076 302.827C74.4295 301.266 72.7471 299.601 71.1495 297.95C71.3965 298.555 71.5158 299.033 71.7442 299.609C71.7423 299.607 71.7406 299.606 71.7387 299.604ZM164.611 26.7816C162.013 27.0788 163.031 26.6306 157.967 27.779C157.971 27.7783 157.975 27.7776 157.978 27.777C162.872 27.1086 169.156 26.4955 174.542 25.9332C171.213 25.914 168.711 26.3576 164.611 26.7816ZM35.8565 243.069C35.2684 242.107 36.981 246.978 37.6094 247.944C38.5858 249.521 36.7115 244.549 35.8565 243.069ZM267.374 45.4582C271.151 47.0097 264.969 42.3612 257.584 39.1103C256.956 38.8156 261.504 41.3186 260.077 40.7328C259.937 40.6677 257.399 39.3823 256.725 39.1586C256.055 38.9307 256.635 39.4249 255.562 39.0055C253.693 38.2585 249.617 36.1734 248.146 35.7864C247.955 35.7291 250.454 37.07 250.61 37.1556C253.206 38.4527 255.863 39.3457 256.269 39.5392C258.353 40.5353 257.915 40.6316 258.41 40.9463C259.341 41.5409 261.108 42.3255 261.224 42.3984C264.204 44.2271 257.172 40.4706 256.133 40.1342C253.399 39.1458 255.756 40.4251 249.352 37.7689C248.741 37.5151 241.498 34.479 250.51 38.5965C232.331 31.7617 259.416 42.5497 262.034 44.4562C263.348 45.0933 261.525 43.8175 262.359 44.1363C264.275 44.857 267.3 46.5501 267.217 46.0764C267.038 45.0546 262.802 43.2379 260.063 41.7013C260.434 41.7016 260.623 41.6118 261.244 41.7485C260.321 41.4786 267.123 45.3109 267.374 45.4595C267.374 45.4591 267.374 45.4586 267.374 45.4582ZM221.084 28.3414C216.826 27.1879 217.06 27.7443 213.149 26.7669C209.582 26.6181 216.475 27.7472 217.251 27.9631C220.857 28.8092 220.679 29.2623 224.383 29.9941C223.191 29.4087 222.223 28.8873 221.084 28.3414ZM256.892 41.1C254.15 40.0403 258.861 42.3365 259.018 42.4913C260.886 43.9026 246.816 37.0795 256.892 41.1ZM42.6561 110.775C41.95 112.09 42.5986 111.36 42.0602 112.561C41.5081 113.756 39.3735 117.727 39.5678 117.692C39.7331 117.637 43.6739 110.413 40.1658 117.878C40.36 117.661 40.3767 117.773 40.5025 117.683C41.4652 115.641 42.4887 113.588 43.5389 111.587C42.7494 112.575 41.9448 113.598 41.2039 114.571C41.5991 113.34 42.1484 112.812 42.1784 112.752C42.1782 112.752 42.1779 112.752 42.1777 112.752C43.2388 110.626 44.2666 107.839 42.6561 110.775ZM129.036 35.2633C129.238 34.5406 126.196 36.4237 124.906 37.0467C123.608 37.656 121.705 38.2394 122.49 38.1819C124.683 37.4081 129.005 35.3334 129.036 35.2626C129.036 35.2628 129.036 35.2631 129.036 35.2633ZM197.537 24.9262C193.849 24.838 194.437 25.0077 189.957 24.6914C190.128 24.8404 190.298 24.9929 190.467 25.1402C194.017 25.2629 193.785 24.8195 197.901 25.2637C198.572 25.3449 197.109 25.5572 200.149 25.7004C199.283 25.4449 198.403 25.1759 197.537 24.9262ZM179.338 25.1926C183.526 25.0284 186.868 23.7801 179.107 24.5358C177.961 24.6649 176.194 25.3532 179.338 25.1926ZM64.7542 78.7381C60.0144 84.1524 65.4873 78.0738 66.9106 76.8464C56.0074 89.5173 68.0332 75.3025 69.739 74.6332C71.0178 73.0437 73.4508 70.065 70.385 73.0089C69.1176 74.2498 69.6992 73.9112 69.6238 73.9865C67.3445 76.3195 67.3896 75.8244 64.7542 78.7381ZM228.486 30.137C228.221 30.0747 228.578 30.3799 227.735 30.1954C226.89 30.0075 225.039 29.3928 224.822 29.4695C224.605 29.5356 228.366 30.5993 229.542 30.8489C230.718 31.0881 230.871 30.7131 228.486 30.137ZM201.459 24.7197C197.879 24.5391 203.636 25.8104 204.412 25.92C211.22 26.7042 201.239 24.8792 201.459 24.7197ZM75.5949 65.8851C69.5143 72.1753 74.5518 68.1595 78.8661 64.8614C79.3496 64.3264 79.8512 63.782 80.3359 63.2596C78.2158 65.794 74.1927 69.8206 83.5417 61.2716C78.1536 65.6454 82.5111 61.8009 82.5324 61.753C82.506 60.5209 75.0245 67.6671 75.6007 65.8798C75.5987 65.8815 75.5968 65.8833 75.5949 65.8851ZM239.549 33.8058C243.125 34.9705 252.197 38.6418 248.138 36.5154C245.3 35.5318 242.426 34.6248 239.549 33.8058ZM23.1018 194.084C23.036 197.213 23.2437 200.071 23.6686 203.882C23.6356 200.411 23.9004 202.663 24.1049 203.815C24.4126 205.557 23.9492 201.307 23.983 201.299C24.3094 201.345 24.5577 204.046 24.051 197.896C24.2685 199.413 24.5058 200.901 24.7635 202.399C24.3319 197.74 24.4905 196.597 24.581 193.618C24.134 196.524 24.2746 192.729 23.9141 189.276C23.7274 187.547 23.1171 192.506 23.1024 194.096C23.1022 194.092 23.102 194.088 23.1018 194.084ZM69.0308 72.0956C68.4803 72.816 68.0165 73.5114 67.5101 74.2279C66.8687 74.9247 66.2312 75.6273 65.6021 76.335C65.4526 76.3572 65.3128 76.3623 65.1528 76.4018C64.2941 77.3099 64.7204 77.0383 64.4815 77.3226C64.4812 77.3222 64.4808 77.3219 64.4804 77.3215C61.082 81.4216 59.7078 83.0992 56.9026 86.2037C57.1342 86.383 57.3658 86.5623 57.5973 86.7416C58.1465 85.9866 58.7088 85.2291 59.2715 84.4841C59.4591 83.9987 59.6507 83.5119 59.8436 83.0271C60.5957 82.244 61.3496 81.4745 62.1164 80.7071C62.6345 80.01 63.2719 79.1836 63.7265 78.5837C67.1832 75.8833 60.3197 82.8961 60.5754 83.2237C60.6588 83.3624 67.0978 75.9278 68.0228 74.8453C68.1496 74.6832 66.2335 75.8088 68.9541 73.4121C69.3908 73.0424 70.4371 73.8036 72.4404 70.3182C72.7321 69.8228 70.7662 70.5856 69.0308 72.0956ZM46.5588 100.217C50.0851 95.8344 38.9873 113.192 43.9976 105.82C43.0993 108.22 43.3221 107.796 44.8702 105.755C45.0059 105.575 44.2366 107.155 44.3228 107.032C45.6398 105.05 47.0202 102.555 47.3272 102.717C47.6406 102.161 47.9405 101.638 48.2612 101.084C46.589 103.19 48.6135 99.4508 49.2895 97.9247C49.592 97.2267 48.6252 98.6561 48.8755 98.0664C48.9651 97.845 50.3526 95.8726 50.3163 95.7296C50.2185 95.4175 49.075 96.4765 47.5321 98.5562C47.5318 98.5561 47.5316 98.5559 47.5314 98.5558C47.1996 99.1118 46.8836 99.6564 46.5588 100.217ZM139.493 29.7422C140.54 29.9303 144.179 28.9586 137.304 31.2769C137.676 31.2563 138.055 31.2339 138.424 31.2167C139.587 30.8514 140.719 30.5092 141.913 30.1645C145.149 27.7857 152.179 27.7785 147.695 27.8267C147.206 27.8319 144.412 28.6545 147.13 27.6808C147.127 27.6815 147.123 27.6822 147.119 27.6828C143.246 28.7433 142.794 29.051 139.493 29.7422ZM114.578 39.813C106.693 44.703 126.362 34.9025 122.984 36.3034C122.634 36.3506 114.12 40.5016 114.578 39.813ZM186.386 22.4833C186.253 22.4825 186.123 22.4823 185.997 22.4829C182.174 22.5146 181.951 23.0583 182.359 23.2258C182.768 23.3962 185.483 23.1897 185.997 23.2118C186.013 23.2124 186.028 23.2131 186.039 23.2141C186.658 23.2653 186.295 23.3064 185.997 23.353C185.746 23.3923 185.541 23.4352 185.997 23.4892C186.066 23.4975 186.152 23.5061 186.255 23.5152C186.789 23.5202 193.996 23.9027 194.314 23.9346C196.162 23.9045 193.493 23.3279 194.023 23.306C195.751 23.2213 198.072 23.6125 198.584 23.4214C199.696 23.0025 195.306 23.2109 194.567 23.1973C192.358 23.1134 192.564 22.8474 190.905 22.7369C189.245 22.6337 188.154 22.7132 186.681 22.6859C186.191 22.6777 186.599 22.4857 186.386 22.4833ZM172.679 24.139C176.97 23.3787 166.405 23.8348 165.164 24.1758C161.539 24.9138 170.647 24.4248 172.679 24.139ZM55.4282 89.3857C57.5579 86.0263 51.8539 93.308 50.5382 95.6197C50.8904 95.2615 54.6746 90.5165 55.4282 89.3857ZM77.3925 64.2584C74.7435 66.7761 78.7528 63.9895 81.0688 62.0345C82.156 60.5593 80.9191 61.6943 79.4036 62.9845C77.8951 64.2796 79.482 62.3157 77.3925 64.2584ZM230.947 29.2366C230.206 28.903 217.795 26.2886 224.841 28.1283C225.38 28.2093 233.959 30.5297 234.596 30.7242C235.928 31.0029 232.898 29.8055 230.947 29.2366ZM90.7051 52.7834C89.3421 54.2171 87.8211 55.3539 89.508 54.6462C89.5101 54.6447 89.5122 54.6431 89.5143 54.6416C85.6725 57.666 84.9837 57.1436 84.1573 57.808C81.3138 60.1817 84.4402 58.4737 82.7769 60.096C86.8376 56.5675 85.9043 57.8685 89.1747 55.4286C89.9046 54.8792 92.7364 52.5375 93.0943 52.107C93.4443 51.6688 91.627 52.3487 90.7051 52.7834ZM247.929 35.0357C244.006 33.2815 240.107 32.4999 245.622 34.7066C248.292 35.8147 250.309 36.1241 247.929 35.0357ZM57.945 287.323C57.6619 286.711 57.3702 286.083 57.0647 285.431C58.0609 286.659 59.0759 287.871 60.1066 289.067C59.2771 288.134 58.4571 287.189 57.6428 286.228C59.4339 288.591 60.0778 289.824 57.9499 287.329C57.9483 287.327 57.9467 287.325 57.945 287.323ZM145.11 344.246C146.358 344.732 149.019 344.877 148.703 344.763C146.337 343.933 143.375 343.573 145.11 344.246ZM50.8488 93.3374C48.0186 97.4176 50.5405 94.9927 52.3167 92.5427C51.1356 93.9823 52.4838 91.0432 50.8488 93.3374ZM110.408 330.865C110.045 330.6 109.68 330.333 109.273 330.041C110.609 330.856 110.825 331.031 110.408 330.865ZM229.178 28.0394C228.463 27.7572 223.047 26.3567 222.284 26.2846C220.722 26.0894 224.881 27.4494 227.383 27.9861C227.663 28.0404 229.89 28.2935 229.167 28.0363C229.171 28.0374 229.174 28.0384 229.178 28.0394ZM61.9846 292.674C61.9845 292.662 61.9928 292.661 62.008 292.669C61.9991 292.669 61.9948 292.675 61.9846 292.674ZM254.247 335.558C254.215 335.56 254.195 335.556 254.193 335.544C254.209 335.55 254.235 335.55 254.247 335.558ZM190.207 21.6864C188.353 20.8964 183.997 21.286 187.425 21.6589C187.617 21.6762 189.754 21.6697 190.207 21.6864Z" fill="#9A8766"/>
<path d="M315.415 203.203C314.007 203.203 312.614 203.057 311.238 202.766C309.878 202.475 308.623 202.078 307.474 201.576C306.34 201.058 305.409 200.467 304.681 199.803L306.502 195.334C307.522 196.29 308.817 197.051 310.388 197.617C311.958 198.184 313.521 198.467 315.075 198.467C316.613 198.467 317.949 198.208 319.082 197.69C320.216 197.172 321.09 196.443 321.705 195.504C322.337 194.565 322.653 193.456 322.653 192.177C322.653 190.234 321.94 188.72 320.515 187.636C319.107 186.551 317.229 186.008 314.881 186.008C314.25 186.008 313.594 186.057 312.914 186.154C312.234 186.235 311.546 186.357 310.849 186.518L309.271 182.948L319.908 173.04H304.948V168.474H326.368V172.675L316.241 182.511C318.265 182.479 320.167 182.827 321.948 183.556C323.729 184.284 325.162 185.393 326.247 186.883C327.348 188.356 327.898 190.218 327.898 192.469C327.898 194.606 327.364 196.484 326.296 198.103C325.227 199.706 323.754 200.961 321.875 201.867C319.997 202.758 317.844 203.203 315.415 203.203Z" fill="#0F1A2C"/>
<path d="M46.0364 203.203L44.1664 199.026C46.6112 198.735 48.7808 198.192 50.6751 197.399C52.5695 196.605 54.1966 195.618 55.5567 194.436C56.9329 193.238 58.0501 191.918 58.9082 190.477C59.7825 189.02 60.4139 187.498 60.8025 185.911C59.9444 187.093 58.8434 188.032 57.4996 188.729C56.1719 189.409 54.7147 189.749 53.128 189.749C50.9908 189.749 49.0641 189.287 47.3479 188.364C45.6478 187.441 44.2959 186.162 43.2921 184.527C42.3044 182.876 41.8106 180.989 41.8106 178.868C41.8106 176.763 42.3368 174.877 43.3892 173.21C44.4578 171.526 45.9231 170.198 47.785 169.227C49.6632 168.239 51.8085 167.745 54.2209 167.745C56.7143 167.745 58.9244 168.288 60.8511 169.372C62.794 170.441 64.316 171.995 65.4169 174.035C66.5341 176.059 67.0927 178.512 67.0927 181.394C67.0927 184.308 66.5584 186.996 65.4898 189.457C64.4374 191.902 62.9559 194.072 61.0454 195.966C59.1511 197.86 56.9248 199.423 54.3666 200.653C51.8085 201.884 49.0317 202.734 46.0364 203.203ZM54.2209 185.328C55.581 185.328 56.7953 185.045 57.8639 184.478C58.9325 183.912 59.7825 183.135 60.4139 182.147C61.0454 181.159 61.3611 180.05 61.3611 178.82C61.3611 177.557 61.0535 176.44 60.4382 175.468C59.8392 174.497 58.9972 173.736 57.9125 173.185C56.8439 172.635 55.6133 172.36 54.2209 172.36C52.8447 172.36 51.6142 172.635 50.5294 173.185C49.4446 173.736 48.5946 174.497 47.9793 175.468C47.3641 176.44 47.0565 177.557 47.0565 178.82C47.0565 180.05 47.3722 181.159 48.0036 182.147C48.6513 183.135 49.5094 183.912 50.578 184.478C51.6628 185.045 52.8771 185.328 54.2209 185.328Z" fill="#0F1A2C"/>
<path d="M186.263 330.881C183.705 330.881 181.438 330.33 179.463 329.229C177.488 328.128 175.934 326.542 174.8 324.469C173.667 322.381 173.1 319.863 173.1 316.916C173.1 314.05 173.634 311.411 174.703 308.999C175.772 306.57 177.269 304.425 179.196 302.563C181.123 300.685 183.373 299.139 185.948 297.924C188.538 296.71 191.347 295.876 194.375 295.423L196.269 299.6C193.792 299.859 191.59 300.377 189.663 301.154C187.737 301.915 186.077 302.863 184.685 303.996C183.309 305.129 182.183 306.392 181.309 307.785C180.435 309.161 179.787 310.602 179.366 312.108C180.273 310.942 181.422 310.019 182.815 309.339C184.207 308.643 185.721 308.295 187.356 308.295C189.542 308.295 191.509 308.756 193.258 309.679C195.023 310.602 196.407 311.881 197.411 313.516C198.431 315.151 198.941 317.038 198.941 319.175C198.941 320.81 198.633 322.34 198.018 323.765C197.403 325.19 196.528 326.437 195.395 327.505C194.262 328.558 192.918 329.383 191.364 329.982C189.825 330.581 188.125 330.881 186.263 330.881ZM186.263 326.267C187.704 326.267 188.983 325.975 190.101 325.392C191.218 324.809 192.092 324.016 192.724 323.012C193.371 321.992 193.695 320.826 193.695 319.515C193.695 318.22 193.363 317.062 192.699 316.042C192.052 315.022 191.161 314.212 190.028 313.613C188.911 313.014 187.656 312.715 186.263 312.715C184.855 312.715 183.584 313.014 182.45 313.613C181.333 314.212 180.443 315.022 179.779 316.042C179.131 317.062 178.807 318.22 178.807 319.515C178.807 320.826 179.123 321.992 179.755 323.012C180.402 324.016 181.285 324.809 182.402 325.392C183.519 325.975 184.806 326.267 186.263 326.267Z" fill="#0F1A2C"/>
<path d="M105.133 311.238L119.462 282.143H103.263V277.237H125.533V281.293L110.962 311.238H105.133Z" fill="#0F1A2C"/>
<path d="M69.9623 261.525C67.4527 261.525 65.2831 261.072 63.4535 260.165C61.6239 259.259 60.2153 258.036 59.2277 256.498C58.2401 254.96 57.7462 253.236 57.7462 251.325C57.7462 249.965 57.9891 248.751 58.4748 247.682C58.9767 246.597 59.6891 245.658 60.612 244.865C61.5511 244.055 62.6764 243.392 63.9878 242.874C62.6602 242.339 61.4863 241.441 60.4663 240.178C59.4463 238.915 58.9363 237.32 58.9363 235.393C58.9363 233.596 59.4139 231.993 60.3692 230.585C61.3244 229.176 62.6359 228.075 64.3035 227.282C65.9874 226.472 67.906 226.067 70.0594 226.067C72.2614 226.067 74.2043 226.472 75.8881 227.282C77.5882 228.091 78.9158 229.2 79.8711 230.609C80.8264 232.018 81.304 233.612 81.304 235.393C81.304 236.689 81.0611 237.83 80.5754 238.818C80.1059 239.805 79.4825 240.639 78.7054 241.319C77.9282 241.999 77.1025 242.517 76.2281 242.874C78.0739 243.651 79.5554 244.744 80.6725 246.152C81.8059 247.561 82.3726 249.285 82.3726 251.325C82.3726 253.236 81.8545 254.96 80.8183 256.498C79.782 258.036 78.333 259.259 76.471 260.165C74.6252 261.072 72.4557 261.525 69.9623 261.525ZM70.0594 257.032C71.3061 257.032 72.4638 256.806 73.5324 256.352C74.6171 255.899 75.4834 255.227 76.131 254.337C76.7948 253.446 77.1267 252.345 77.1267 251.034C77.1267 249.738 76.811 248.646 76.1796 247.755C75.5481 246.848 74.6981 246.168 73.6295 245.715C72.5609 245.262 71.3709 245.035 70.0594 245.035C68.0355 245.035 66.3517 245.553 65.0078 246.589C63.664 247.609 62.9921 249.091 62.9921 251.034C62.9921 252.345 63.3159 253.446 63.9635 254.337C64.6112 255.227 65.4693 255.899 66.5379 256.352C67.6065 256.806 68.7803 257.032 70.0594 257.032ZM70.108 240.639C71.3223 240.639 72.399 240.437 73.3381 240.032C74.2933 239.611 75.03 239.02 75.5481 238.259C76.0824 237.498 76.3496 236.6 76.3496 235.563C76.3496 234.025 75.7748 232.738 74.6252 231.702C73.4757 230.666 71.9699 230.147 70.108 230.147C68.8775 230.147 67.7927 230.39 66.8536 230.876C65.9145 231.346 65.1779 231.985 64.6436 232.795C64.1254 233.604 63.8664 234.527 63.8664 235.563C63.8664 237.101 64.4493 238.332 65.615 239.255C66.7969 240.178 68.2946 240.639 70.108 240.639Z" fill="#0F1A2C"/>
<path d="M65.785 141V112.731L56.9691 115.961L55.5605 111.735L70.448 106.271H70.8366V141H65.785ZM92.7231 141.729C90.5535 141.729 88.6025 141.267 86.8701 140.344C85.1539 139.421 83.6886 138.142 82.4743 136.507C81.2762 134.872 80.3614 132.986 79.7299 130.848C79.0985 128.711 78.7828 126.428 78.7828 124C78.7828 121.555 79.0985 119.264 79.7299 117.127C80.3614 114.989 81.2762 113.111 82.4743 111.492C83.6886 109.857 85.1539 108.578 86.8701 107.655C88.6025 106.732 90.5535 106.271 92.7231 106.271C94.8927 106.271 96.8356 106.732 98.5519 107.655C100.284 108.578 101.75 109.857 102.948 111.492C104.162 113.111 105.085 114.989 105.716 117.127C106.364 119.264 106.688 121.555 106.688 124C106.688 126.428 106.364 128.711 105.716 130.848C105.085 132.986 104.162 134.872 102.948 136.507C101.75 138.142 100.284 139.421 98.5519 140.344C96.8356 141.267 94.8927 141.729 92.7231 141.729ZM92.7231 136.92C94.0184 136.92 95.1922 136.628 96.2447 136.046C97.2971 135.447 98.2038 134.588 98.9647 133.471C99.7419 132.354 100.333 131.002 100.738 129.415C101.142 127.813 101.345 126.007 101.345 124C101.345 121.312 100.98 119.005 100.252 117.078C99.5395 115.135 98.5357 113.654 97.2404 112.634C95.9613 111.597 94.4556 111.079 92.7231 111.079C91.444 111.079 90.2702 111.379 89.2016 111.978C88.1492 112.561 87.2425 113.411 86.4815 114.528C85.7206 115.645 85.1296 116.997 84.7086 118.584C84.3039 120.17 84.1015 121.976 84.1015 124C84.1015 126.687 84.4577 128.994 85.1701 130.921C85.8987 132.848 86.9106 134.329 88.2059 135.366C89.5011 136.402 91.0069 136.92 92.7231 136.92Z" fill="#0F1A2C"/>
<path d="M111.496 96.8652V68.5959L102.68 71.826L101.271 67.6002L116.159 62.1357H116.548V96.8652H111.496ZM132.557 96.8652V68.5959L123.741 71.826L122.332 67.6002L137.22 62.1357H137.608V96.8652H132.557Z" fill="#0F1A2C"/>
<path d="M171.394 77.9492V49.6799L162.578 52.91L161.17 48.6842L176.057 43.2197H176.446V77.9492H171.394ZM184.732 77.9492V74.0634L192.091 67.3361C194.422 65.1989 196.301 63.3612 197.725 61.8231C199.15 60.2688 200.186 58.8682 200.834 57.6215C201.482 56.3748 201.805 55.112 201.805 53.8329C201.805 51.9709 201.166 50.5218 199.887 49.4856C198.624 48.4332 196.859 47.907 194.592 47.907C193.087 47.907 191.646 48.1661 190.269 48.6842C188.893 49.2023 187.719 49.9551 186.748 50.9428L184.756 46.9841C186.133 45.7536 187.719 44.8226 189.517 44.1912C191.314 43.5436 193.2 43.2197 195.175 43.2197C197.523 43.2197 199.571 43.6407 201.32 44.4826C203.085 45.3084 204.453 46.4822 205.424 48.0041C206.412 49.5099 206.906 51.2747 206.906 53.2986C206.906 54.7072 206.622 56.1158 206.056 57.5244C205.505 58.9168 204.509 60.4873 203.068 62.2359C201.644 63.9846 199.62 66.0813 196.997 68.5261L191.775 73.3348H207.756V77.9492H184.732Z" fill="#0F1A2C"/>
<path d="M254.933 96.8652V68.5959L246.118 71.826L244.709 67.6002L259.596 62.1357H259.985V96.8652H254.933Z" fill="#0F1A2C"/>
<path d="M292.921 141V137.114L300.28 130.387C302.612 128.25 304.49 126.412 305.915 124.874C307.339 123.32 308.376 121.919 309.023 120.672C309.671 119.426 309.995 118.163 309.995 116.884C309.995 115.022 309.355 113.573 308.076 112.536C306.813 111.484 305.048 110.958 302.782 110.958C301.276 110.958 299.835 111.217 298.459 111.735C297.082 112.253 295.909 113.006 294.937 113.994L292.946 110.035C294.322 108.804 295.909 107.873 297.706 107.242C299.503 106.594 301.389 106.271 303.364 106.271C305.712 106.271 307.76 106.691 309.509 107.533C311.274 108.359 312.642 109.533 313.613 111.055C314.601 112.561 315.095 114.325 315.095 116.349C315.095 117.758 314.811 119.167 314.245 120.575C313.694 121.968 312.699 123.538 311.258 125.287C309.833 127.035 307.809 129.132 305.186 131.577L299.964 136.386H315.945V141H292.921Z" fill="#0F1A2C"/>
<path d="M304.66 260.797V253.827H287.733V249.722L299.925 226.796H305.462L293.44 249.285H304.66V241.732H309.348V249.285H314.594V253.827H309.348V260.797H304.66Z" fill="#0F1A2C"/>
<path d="M253.971 311.967C251.882 311.967 249.874 311.667 247.948 311.068C246.037 310.469 244.459 309.668 243.212 308.664L244.961 304.244C246.078 305.215 247.413 305.96 248.968 306.478C250.522 306.98 252.093 307.231 253.679 307.231C255.266 307.231 256.642 306.972 257.808 306.454C258.974 305.92 259.872 305.159 260.504 304.171C261.135 303.183 261.451 301.985 261.451 300.577C261.451 299.281 261.119 298.172 260.455 297.249C259.791 296.31 258.869 295.59 257.687 295.088C256.521 294.586 255.193 294.335 253.704 294.335C252.748 294.335 251.761 294.448 250.741 294.675C249.721 294.902 248.676 295.25 247.608 295.719L245.373 293.315L247.122 277.286L265.871 277.262V282.022H250.984L249.964 290.886C250.805 290.611 251.639 290.401 252.465 290.255C253.307 290.109 254.141 290.036 254.967 290.036C257.201 290.036 259.2 290.465 260.965 291.323C262.73 292.165 264.122 293.388 265.143 294.991C266.179 296.594 266.697 298.512 266.697 300.747C266.697 303.013 266.154 304.989 265.07 306.672C264.001 308.356 262.511 309.66 260.601 310.583C258.69 311.505 256.48 311.967 253.971 311.967Z" fill="#0F1A2C"/>
<circle cx="186.002" cy="186" r="4.72881" fill="#0F1A2C"/>
<path d="M131.459 215.621C134.189 215.942 137.771 218.351 135.602 221.194C134.045 223.233 128.841 223.828 125.019 222.639V225.016H123.253V216.472C126.079 215.364 128.986 215.316 131.459 215.621ZM130.56 222.736C133.29 222.414 134.575 220.889 134.43 219.106C134.125 215.107 127.107 215.814 125.019 216.472V221.804C125.613 222.109 126.111 222.318 126.095 222.318C127.653 222.768 129.211 222.896 130.56 222.736ZM149.377 216.183L151.144 215.461V224.502C148.799 225.128 144.672 225.096 142.616 224.855C141.123 224.679 138.939 223.876 138.023 222.72V216.183L139.79 215.461V222.72C141.075 224.647 146.904 224.695 149.377 224.325V216.183ZM163.574 222.639C164.73 223.298 165.533 224.149 165.983 225.016H164.714C164.12 224.085 163.301 223.426 162.385 222.96C160.217 223.394 157.535 223.314 155.319 222.623V225H153.553V216.456C156.379 215.348 159.286 215.316 161.759 215.605C164.489 215.926 168.07 218.335 165.902 221.178C165.421 221.804 164.585 222.302 163.574 222.639ZM160.86 222.72C161.101 222.687 161.341 222.655 161.582 222.591C159.735 221.917 157.632 221.901 156.026 222.141C156.251 222.238 156.395 222.302 156.395 222.302C157.953 222.752 159.511 222.88 160.86 222.72ZM159.35 221.483C160.651 221.563 161.775 221.836 162.723 222.222C164.168 221.579 164.842 220.407 164.73 219.09C164.425 215.107 157.407 215.798 155.319 216.456V221.74C156.491 221.451 158.081 221.403 159.35 221.483ZM178.567 222.639C179.723 223.298 180.526 224.149 180.976 225.016H179.707C179.113 224.085 178.294 223.426 177.378 222.96C175.21 223.394 172.528 223.314 170.312 222.623V225H168.546V216.456C171.372 215.348 174.279 215.316 176.752 215.605C179.482 215.926 183.064 218.335 180.895 221.178C180.414 221.804 179.579 222.302 178.567 222.639ZM175.853 222.72C176.094 222.687 176.335 222.655 176.575 222.591C174.729 221.917 172.625 221.901 171.019 222.141C171.244 222.238 171.388 222.302 171.388 222.302C172.946 222.752 174.504 222.88 175.853 222.72ZM174.343 221.483C175.644 221.563 176.768 221.836 177.716 222.222C179.161 221.579 179.836 220.407 179.723 219.09C179.418 215.107 172.4 215.798 170.312 216.456V221.74C171.485 221.451 173.074 221.403 174.343 221.483ZM181.729 215.461H194.85V216.456H189.181V225H187.398V216.456H181.729V215.461ZM200.766 215.461L206.58 225H204.701L203.77 223.506C202.356 221.756 198.309 221.724 195.868 222.366L194.182 225H193.427L199.225 216.167L200.766 215.461ZM200.397 221.467C201.296 221.515 202.051 221.627 202.742 221.836L199.514 216.649L196.27 221.74C197.458 221.451 199.096 221.403 200.397 221.467ZM205.175 215.461H218.296V216.456H212.627V225H210.844V216.456H205.175V215.461ZM225.054 215.461C228.603 215.461 231.622 216.761 231.622 220.23C231.622 223.844 228.41 225.032 225.054 225.032C221.713 225.032 218.501 223.844 218.501 220.23C218.501 216.761 221.521 215.461 225.054 215.461ZM228.362 223.394C229.245 222.623 229.807 221.451 229.807 220.246C229.807 219.042 229.325 217.789 228.426 217.002C227.527 216.231 226.242 215.91 225.054 215.91C223.881 215.91 222.597 216.231 221.697 217.018C220.798 217.789 220.3 219.042 220.316 220.246C220.3 221.451 220.878 222.623 221.761 223.394C222.661 224.181 223.881 224.566 225.054 224.566C226.242 224.566 227.463 224.181 228.362 223.394ZM239.764 215.461C243.314 215.461 246.333 216.761 246.333 220.23C246.333 223.844 243.121 225.032 239.764 225.032C236.424 225.032 233.212 223.844 233.212 220.23C233.212 216.761 236.231 215.461 239.764 215.461ZM243.073 223.394C243.956 222.623 244.518 221.451 244.518 220.246C244.518 219.042 244.036 217.789 243.137 217.002C242.238 216.231 240.953 215.91 239.764 215.91C238.592 215.91 237.307 216.231 236.408 217.018C235.509 217.789 235.011 219.042 235.027 220.246C235.011 221.451 235.589 222.623 236.472 223.394C237.372 224.181 238.592 224.566 239.764 224.566C240.953 224.566 242.173 224.181 243.073 223.394Z" fill="#999999"/>
<defs>
<linearGradient id="paint0_linear_3811_213" x1="186" y1="0" x2="186" y2="372" gradientUnits="userSpaceOnUse">
<stop stop-color="#BBB19E"/>
<stop offset="1" stop-color="#A6906B"/>
</linearGradient>
<linearGradient id="paint1_linear_3811_213" x1="185.997" y1="23.6445" x2="185.997" y2="348.356" gradientUnits="userSpaceOnUse">
<stop stop-color="white"/>
<stop offset="1" stop-color="#D9D9D9"/>
</linearGradient>
</defs>
</svg>
