<svg width="173" height="144" viewBox="0 0 173 144" fill="none" xmlns="http://www.w3.org/2000/svg">
<path d="M24.6373 75.3352C23.2616 76.8315 20.751 80.8879 21.714 85.1438C24.7513 92.4586 41.8658 107.288 86.0252 108.086C126.745 108.822 146.127 95.4785 152.045 87.1387C152.545 86.4342 152.949 85.7654 153.262 85.1438C153.835 83.5367 154.053 79.3251 150.338 75.3352C149.764 84.5342 136.098 102.699 86.0252 101.768C35.9522 100.837 24.2362 83.7584 24.6373 75.3352Z" fill="#A98F5E"/>
<path d="M86.0252 108.086C41.8658 107.288 24.7513 92.4586 21.714 85.1438C2.59209 95.3845 0.907314 105.703 2.45517 109.582C7.26997 121.33 29.8727 142 86.0252 142C155.213 142 167.018 121.884 169.769 109.582C171.971 99.7402 158.87 90.5191 152.045 87.1387C146.127 95.4785 126.745 108.822 86.0252 108.086Z" fill="#997E4D"/>
<path d="M86.0252 29.6175C77.7707 29.7838 75.5364 25.9601 75.8804 24.2976C75.9342 24.0372 76.0901 23.756 76.3166 23.4664C60.1219 27.2346 27.1135 42.884 24.6373 75.3352C24.2362 83.7584 35.9522 100.837 86.0252 101.768C136.098 102.699 149.764 84.5342 150.338 75.3352C149.653 61.3151 137.88 31.3132 96.2623 23.4664C96.4046 23.7347 96.4943 24.0127 96.5154 24.2976C96.6873 26.6251 94.2798 29.4513 86.0252 29.6175Z" fill="#C4AA7A"/>
<path d="M86.0252 22.469C83.8833 22.5631 81.8516 21.6979 80.5232 20.3261C79.3708 20.9451 77.2472 22.2769 76.3166 23.4664C76.0901 23.756 75.9342 24.0372 75.8804 24.2976C75.5364 25.9601 77.7707 29.7838 86.0252 29.6175C94.2798 29.4513 96.6873 26.6251 96.5154 24.2976C96.4943 24.0127 96.4046 23.7347 96.2623 23.4664C95.4748 21.9814 93.0767 20.7903 91.7917 20.3261C90.4673 21.8115 88.3793 22.3655 86.0252 22.469Z" fill="#B49A6A"/>
<path d="M82.9301 11.3305C81.6691 11.94 79.1126 13.8242 78.9751 16.4841C78.9005 17.9265 79.5054 19.275 80.5232 20.3261C81.8516 21.6979 83.8833 22.5631 86.0252 22.469C88.3793 22.3655 90.4673 21.8115 91.7917 20.3261C92.5956 19.4244 93.1181 18.1796 93.248 16.4841C93.5232 12.8932 90.6114 11.5521 89.1211 11.3305C88.1463 11.9401 85.5434 12.7935 82.9301 11.3305Z" fill="#B59458"/>
<path d="M82.9301 7.00807V11.3305C85.5434 12.7935 88.1463 11.9401 89.1211 11.3305V7.00807C87.3327 7.27412 84.2486 7.11893 82.9301 7.00807Z" fill="#836836"/>
<path d="M86.0252 2.02069C83.7325 2.18693 79.2157 2.95166 79.4909 4.68063C79.766 6.40959 81.8983 6.95266 82.9301 7.00807C84.2486 7.11893 87.3327 7.27412 89.1211 7.00807C90.4394 6.89724 93.0417 6.27659 92.9041 4.68063C92.7322 2.68567 89.9796 1.85444 86.0252 2.02069Z" fill="#AF9462"/>
<path d="M82.9301 7.00807C81.8983 6.95266 79.766 6.40959 79.4909 4.68063C79.2157 2.95166 83.7325 2.18693 86.0252 2.02069C89.9796 1.85444 92.7322 2.68567 92.9041 4.68063C93.0417 6.27659 90.4394 6.89724 89.1211 7.00807M82.9301 7.00807V11.3305M82.9301 7.00807C84.2486 7.11893 87.3327 7.27412 89.1211 7.00807M82.9301 11.3305C81.6691 11.94 79.1126 13.8242 78.9751 16.4841C78.9005 17.9265 79.5054 19.275 80.5232 20.3261M82.9301 11.3305C85.5434 12.7935 88.1463 11.9401 89.1211 11.3305M89.1211 11.3305C90.6114 11.5521 93.5232 12.8932 93.248 16.4841C93.1181 18.1796 92.5956 19.4244 91.7917 20.3261M89.1211 11.3305V7.00807M80.5232 20.3261C81.8516 21.6979 83.8833 22.5631 86.0252 22.469C88.3793 22.3655 90.4673 21.8115 91.7917 20.3261M80.5232 20.3261C79.3708 20.9451 77.2472 22.2769 76.3166 23.4664M91.7917 20.3261C93.0767 20.7903 95.4748 21.9814 96.2623 23.4664M76.3166 23.4664C76.0901 23.756 75.9342 24.0372 75.8804 24.2976C75.5364 25.9601 77.7707 29.7838 86.0252 29.6175C94.2798 29.4513 96.6873 26.6251 96.5154 24.2976C96.4943 24.0127 96.4046 23.7347 96.2623 23.4664M76.3166 23.4664C60.1219 27.2346 27.1135 42.884 24.6373 75.3352M24.6373 75.3352C23.2616 76.8315 20.751 80.8879 21.714 85.1438M24.6373 75.3352C24.2362 83.7584 35.9522 100.837 86.0252 101.768C136.098 102.699 149.764 84.5342 150.338 75.3352M21.714 85.1438C24.7513 92.4586 41.8658 107.288 86.0252 108.086C126.745 108.822 146.127 95.4785 152.045 87.1387M21.714 85.1438C2.59209 95.3845 0.907314 105.703 2.45517 109.582C7.26997 121.33 29.8727 142 86.0252 142C155.213 142 167.018 121.884 169.769 109.582C171.971 99.7402 158.87 90.5191 152.045 87.1387M150.338 75.3352C154.053 79.3251 153.835 83.5367 153.262 85.1438C152.949 85.7654 152.545 86.4342 152.045 87.1387M150.338 75.3352C149.653 61.3151 137.88 31.3132 96.2623 23.4664" stroke="#7E6943" stroke-width="4"/>
<path d="M105.35 34.995C116.288 39.316 136.763 49.4271 131.163 55.3037C124.163 62.6493 79.5375 27.6493 105.35 34.995Z" fill="white" fill-opacity="0.75"/>
<path d="M136.945 59.9281C133.095 59.5824 133.008 62.6647 133.445 64.249C134.494 71.1625 137.967 69.1462 139.572 67.2739C140.3 64.9693 140.795 60.2737 136.945 59.9281Z" fill="white" fill-opacity="0.77"/>
<path d="M154.323 94.0929C152.132 95.3561 154.999 98.643 156.706 100.129C163.739 106.975 163.517 103.38 162.527 100.728C160.705 97.9897 156.513 92.8296 154.323 94.0929Z" fill="white" fill-opacity="0.77"/>
</svg>
