<svg width="2699" height="1195" viewBox="0 0 2699 1195" fill="none" xmlns="http://www.w3.org/2000/svg">
<g clip-path="url(#clip0_3808_32)">
<path d="M2.97656 2.53711H2694.98V1190.54H2.97656V2.53711Z" fill="url(#paint0_linear_3808_32)"/>
<path d="M20.9766 -389.463V1623.54" stroke="url(#paint1_linear_3808_32)" stroke-opacity="0.36" stroke-width="12"/>
<path d="M116.977 -395.463V1617.54" stroke="url(#paint2_linear_3808_32)" stroke-opacity="0.36" stroke-width="12"/>
<path d="M212.977 -391.463V1621.54" stroke="url(#paint3_linear_3808_32)" stroke-opacity="0.36" stroke-width="12"/>
<path d="M308.977 -387.463V1625.54" stroke="url(#paint4_linear_3808_32)" stroke-opacity="0.36" stroke-width="12"/>
<path d="M404.977 -393.463V1619.54" stroke="url(#paint5_linear_3808_32)" stroke-opacity="0.36" stroke-width="12"/>
<path d="M500.977 -397.463V1615.54" stroke="url(#paint6_linear_3808_32)" stroke-opacity="0.36" stroke-width="12"/>
<path d="M596.977 -399.463V1613.54" stroke="url(#paint7_linear_3808_32)" stroke-opacity="0.36" stroke-width="12"/>
<path d="M692.977 -397.463V1615.54" stroke="url(#paint8_linear_3808_32)" stroke-opacity="0.36" stroke-width="12"/>
<path d="M788.977 -401.463V1611.54" stroke="url(#paint9_linear_3808_32)" stroke-opacity="0.36" stroke-width="12"/>
<path d="M884.977 -403.463V1609.54" stroke="url(#paint10_linear_3808_32)" stroke-opacity="0.36" stroke-width="12"/>
<path d="M980.977 -403.463V1609.54" stroke="url(#paint11_linear_3808_32)" stroke-opacity="0.36" stroke-width="12"/>
<path d="M1076.98 -401.463V1611.54" stroke="url(#paint12_linear_3808_32)" stroke-opacity="0.36" stroke-width="12"/>
<path d="M1172.98 -405.463V1607.54" stroke="url(#paint13_linear_3808_32)" stroke-opacity="0.36" stroke-width="12"/>
<path d="M1268.98 -403.463V1609.54" stroke="url(#paint14_linear_3808_32)" stroke-opacity="0.36" stroke-width="12"/>
<path d="M52.9766 -388.463V1624.54" stroke="url(#paint15_linear_3808_32)" stroke-opacity="0.36" stroke-width="12"/>
<path d="M148.977 -394.463V1618.54" stroke="url(#paint16_linear_3808_32)" stroke-opacity="0.36" stroke-width="12"/>
<path d="M244.977 -390.463V1622.54" stroke="url(#paint17_linear_3808_32)" stroke-opacity="0.36" stroke-width="12"/>
<path d="M340.977 -386.463V1626.54" stroke="url(#paint18_linear_3808_32)" stroke-opacity="0.36" stroke-width="12"/>
<path d="M436.977 -392.463V1620.54" stroke="url(#paint19_linear_3808_32)" stroke-opacity="0.36" stroke-width="12"/>
<path d="M532.977 -396.463V1616.54" stroke="url(#paint20_linear_3808_32)" stroke-opacity="0.36" stroke-width="12"/>
<path d="M628.977 -398.463V1614.54" stroke="url(#paint21_linear_3808_32)" stroke-opacity="0.36" stroke-width="12"/>
<path d="M724.977 -396.463V1616.54" stroke="url(#paint22_linear_3808_32)" stroke-opacity="0.36" stroke-width="12"/>
<path d="M820.977 -400.463V1612.54" stroke="url(#paint23_linear_3808_32)" stroke-opacity="0.36" stroke-width="12"/>
<path d="M916.977 -402.463V1610.54" stroke="url(#paint24_linear_3808_32)" stroke-opacity="0.36" stroke-width="12"/>
<path d="M1012.98 -402.463V1610.54" stroke="url(#paint25_linear_3808_32)" stroke-opacity="0.36" stroke-width="12"/>
<path d="M1108.98 -400.463V1612.54" stroke="url(#paint26_linear_3808_32)" stroke-opacity="0.36" stroke-width="12"/>
<path d="M1204.98 -404.463V1608.54" stroke="url(#paint27_linear_3808_32)" stroke-opacity="0.36" stroke-width="12"/>
<path d="M1300.98 -402.463V1610.54" stroke="url(#paint28_linear_3808_32)" stroke-opacity="0.36" stroke-width="12"/>
<path d="M84.9766 -389.463V1623.54" stroke="url(#paint29_linear_3808_32)" stroke-opacity="0.36" stroke-width="12"/>
<path d="M180.977 -395.463V1617.54" stroke="url(#paint30_linear_3808_32)" stroke-opacity="0.36" stroke-width="12"/>
<path d="M276.977 -391.463V1621.54" stroke="url(#paint31_linear_3808_32)" stroke-opacity="0.36" stroke-width="12"/>
<path d="M372.977 -387.463V1625.54" stroke="url(#paint32_linear_3808_32)" stroke-opacity="0.36" stroke-width="12"/>
<path d="M468.977 -393.463V1619.54" stroke="url(#paint33_linear_3808_32)" stroke-opacity="0.36" stroke-width="12"/>
<path d="M564.977 -397.463V1615.54" stroke="url(#paint34_linear_3808_32)" stroke-opacity="0.36" stroke-width="12"/>
<path d="M660.977 -399.463V1613.54" stroke="url(#paint35_linear_3808_32)" stroke-opacity="0.36" stroke-width="12"/>
<path d="M756.977 -397.463V1615.54" stroke="url(#paint36_linear_3808_32)" stroke-opacity="0.36" stroke-width="12"/>
<path d="M852.977 -401.463V1611.54" stroke="url(#paint37_linear_3808_32)" stroke-opacity="0.36" stroke-width="12"/>
<path d="M948.977 -403.463V1609.54" stroke="url(#paint38_linear_3808_32)" stroke-opacity="0.36" stroke-width="12"/>
<path d="M1044.98 -403.463V1609.54" stroke="url(#paint39_linear_3808_32)" stroke-opacity="0.36" stroke-width="12"/>
<path d="M1140.98 -401.463V1611.54" stroke="url(#paint40_linear_3808_32)" stroke-opacity="0.36" stroke-width="12"/>
<path d="M1236.98 -405.463V1607.54" stroke="url(#paint41_linear_3808_32)" stroke-opacity="0.36" stroke-width="12"/>
<path d="M1332.98 -403.463V1609.54" stroke="url(#paint42_linear_3808_32)" stroke-opacity="0.36" stroke-width="12"/>
<path d="M1364.98 -397.463V1615.54" stroke="url(#paint43_linear_3808_32)" stroke-opacity="0.36" stroke-width="12"/>
<path d="M1396.98 -396.463V1616.54" stroke="url(#paint44_linear_3808_32)" stroke-opacity="0.36" stroke-width="12"/>
<path d="M1428.98 -397.463V1615.54" stroke="url(#paint45_linear_3808_32)" stroke-opacity="0.36" stroke-width="12"/>
<path d="M1460.98 -399.463V1613.54" stroke="url(#paint46_linear_3808_32)" stroke-opacity="0.36" stroke-width="12"/>
<path d="M1556.98 -405.463V1607.54" stroke="url(#paint47_linear_3808_32)" stroke-opacity="0.36" stroke-width="12"/>
<path d="M1652.98 -401.463V1611.54" stroke="url(#paint48_linear_3808_32)" stroke-opacity="0.36" stroke-width="12"/>
<path d="M1748.98 -397.463V1615.54" stroke="url(#paint49_linear_3808_32)" stroke-opacity="0.36" stroke-width="12"/>
<path d="M1844.98 -403.463V1609.54" stroke="url(#paint50_linear_3808_32)" stroke-opacity="0.36" stroke-width="12"/>
<path d="M1940.98 -407.463V1605.54" stroke="url(#paint51_linear_3808_32)" stroke-opacity="0.36" stroke-width="12"/>
<path d="M2036.98 -409.463V1603.54" stroke="url(#paint52_linear_3808_32)" stroke-opacity="0.36" stroke-width="12"/>
<path d="M2132.98 -407.463V1605.54" stroke="url(#paint53_linear_3808_32)" stroke-opacity="0.36" stroke-width="12"/>
<path d="M2228.98 -411.463V1601.54" stroke="url(#paint54_linear_3808_32)" stroke-opacity="0.36" stroke-width="12"/>
<path d="M2324.98 -413.463V1599.54" stroke="url(#paint55_linear_3808_32)" stroke-opacity="0.36" stroke-width="12"/>
<path d="M2420.98 -413.463V1599.54" stroke="url(#paint56_linear_3808_32)" stroke-opacity="0.36" stroke-width="12"/>
<path d="M2516.98 -411.463V1601.54" stroke="url(#paint57_linear_3808_32)" stroke-opacity="0.36" stroke-width="12"/>
<path d="M2612.98 -415.463V1597.54" stroke="url(#paint58_linear_3808_32)" stroke-opacity="0.36" stroke-width="12"/>
<path d="M1492.98 -398.463V1614.54" stroke="url(#paint59_linear_3808_32)" stroke-opacity="0.36" stroke-width="12"/>
<path d="M1588.98 -404.463V1608.54" stroke="url(#paint60_linear_3808_32)" stroke-opacity="0.36" stroke-width="12"/>
<path d="M1684.98 -400.463V1612.54" stroke="url(#paint61_linear_3808_32)" stroke-opacity="0.36" stroke-width="12"/>
<path d="M1780.98 -396.463V1616.54" stroke="url(#paint62_linear_3808_32)" stroke-opacity="0.36" stroke-width="12"/>
<path d="M1876.98 -402.463V1610.54" stroke="url(#paint63_linear_3808_32)" stroke-opacity="0.36" stroke-width="12"/>
<path d="M1972.98 -406.463V1606.54" stroke="url(#paint64_linear_3808_32)" stroke-opacity="0.36" stroke-width="12"/>
<path d="M2068.98 -408.463V1604.54" stroke="url(#paint65_linear_3808_32)" stroke-opacity="0.36" stroke-width="12"/>
<path d="M2164.98 -406.463V1606.54" stroke="url(#paint66_linear_3808_32)" stroke-opacity="0.36" stroke-width="12"/>
<path d="M2260.98 -410.463V1602.54" stroke="url(#paint67_linear_3808_32)" stroke-opacity="0.36" stroke-width="12"/>
<path d="M2356.98 -412.463V1600.54" stroke="url(#paint68_linear_3808_32)" stroke-opacity="0.36" stroke-width="12"/>
<path d="M2452.98 -412.463V1600.54" stroke="url(#paint69_linear_3808_32)" stroke-opacity="0.36" stroke-width="12"/>
<path d="M2548.98 -410.463V1602.54" stroke="url(#paint70_linear_3808_32)" stroke-opacity="0.36" stroke-width="12"/>
<path d="M2644.98 -414.463V1598.54" stroke="url(#paint71_linear_3808_32)" stroke-opacity="0.36" stroke-width="12"/>
<path d="M1524.98 -399.463V1613.54" stroke="url(#paint72_linear_3808_32)" stroke-opacity="0.36" stroke-width="12"/>
<path d="M1620.98 -405.463V1607.54" stroke="url(#paint73_linear_3808_32)" stroke-opacity="0.36" stroke-width="12"/>
<path d="M1716.98 -401.463V1611.54" stroke="url(#paint74_linear_3808_32)" stroke-opacity="0.36" stroke-width="12"/>
<path d="M1812.98 -397.463V1615.54" stroke="url(#paint75_linear_3808_32)" stroke-opacity="0.36" stroke-width="12"/>
<path d="M1908.98 -403.463V1609.54" stroke="url(#paint76_linear_3808_32)" stroke-opacity="0.36" stroke-width="12"/>
<path d="M2004.98 -407.463V1605.54" stroke="url(#paint77_linear_3808_32)" stroke-opacity="0.36" stroke-width="12"/>
<path d="M2100.98 -409.463V1603.54" stroke="url(#paint78_linear_3808_32)" stroke-opacity="0.36" stroke-width="12"/>
<path d="M2196.98 -407.463V1605.54" stroke="url(#paint79_linear_3808_32)" stroke-opacity="0.36" stroke-width="12"/>
<path d="M2292.98 -411.463V1601.54" stroke="url(#paint80_linear_3808_32)" stroke-opacity="0.36" stroke-width="12"/>
<path d="M2388.98 -413.463V1599.54" stroke="url(#paint81_linear_3808_32)" stroke-opacity="0.36" stroke-width="12"/>
<path d="M2484.98 -413.463V1599.54" stroke="url(#paint82_linear_3808_32)" stroke-opacity="0.36" stroke-width="12"/>
<path d="M2580.98 -411.463V1601.54" stroke="url(#paint83_linear_3808_32)" stroke-opacity="0.36" stroke-width="12"/>
<path d="M2676.98 -415.463V1597.54" stroke="url(#paint84_linear_3808_32)" stroke-opacity="0.36" stroke-width="12"/>
</g>
<path d="M1784.36 1194.47C1469.74 1194.49 1125.29 1194.62 809.417 1194.46C770.639 1194.44 773.288 1194.17 762.409 1194.13C732.667 1194.03 714.759 1194.35 693.081 1194.33C587.694 1194.22 489.11 1194.17 385.722 1194.07C279.22 1193.96 329.599 1193.13 292.594 1192.93C220.291 1192.53 281.791 1193.62 253.371 1193.86C170.484 1193.8 86.8609 1193.68 3.82569 1193.56C24.0969 1193.46 44.3721 1193.36 64.8653 1193.26C28.6748 1193.24 -23.1238 1193.07 37.4832 1192.79C25.7789 1192.72 14.7559 1192.64 2.97656 1192.57L0.945268 1192.57L0.94317 1190.54C0.953261 1188.83 0.963168 1187.12 0.972833 1185.38C0.576261 1181.6 0.544361 1117.53 0.309257 1111.67C0.0740888 1105.82 0.128126 1141.85 0.107596 1141.63C-0.185313 1139.24 0.215073 991.454 0.247733 980.797C0.334634 952.622 0.826269 977.324 0.79461 953.356C0.740484 912.132 -0.259818 939.595 1.07 883.791C0.637997 861.591 0.862346 859.654 0.892267 831.543C0.896 827.843 0.645869 830.714 0.639336 829.086C0.453682 786.537 0.918829 819.244 0.944025 819.022C1.37206 815.158 1.18178 769.496 1.22283 759.877C1.7342 639.171 2.0804 550.728 2.19891 423.36C2.2241 395.827 2.05044 311.969 2.12323 285.326C2.19506 259.048 2.50347 273.147 2.65155 259.394C1.90963 237.35 1.8278 216.32 2.31659 166.829C1.77539 148.401 2.21195 150.771 2.1037 115.469C2.01402 86.0857 1.36481 34.877 1.91815 2.53711C1.86776 39.6162 2.13362 35.7773 2.29413 77.5191C2.34729 91.4141 2.35864 236.312 2.91181 225.53C3.20015 219.905 2.93532 171.882 2.98847 170.026C3.29829 159.22 3.67905 186.024 3.5456 209.781C3.48307 203.86 3.41964 196.727 3.35712 190.362C2.96984 243.723 4.45727 207.028 3.15741 247.583C2.99796 252.598 2.83172 250.654 2.66229 258.921C2.73237 260.62 2.90608 250.507 2.9372 259.217C2.96856 268.102 2.63873 284.971 2.91669 287.487C3.3209 291.247 3.16161 254.438 3.18524 251.668C3.1828 251.638 3.18036 251.609 3.17792 251.579C3.39253 227.09 3.41701 278.236 3.45526 280.678C3.70712 296.499 3.90105 285.711 4.10908 309.451C4.22759 322.995 4.15773 357.495 4.19599 370.225C4.23521 382.873 4.42642 363.194 4.46748 371.705C4.50853 380.216 4.36324 390.812 4.41083 400.803C4.43181 405.08 4.64508 404.861 4.65253 406.931C4.73459 429.129 4.291 414.568 4.31806 434.698C4.33605 447.739 4.74956 491.509 4.87275 461.34C4.91566 475.842 4.94708 489.983 4.98066 504.411C5.0441 495.31 5.0872 485.908 5.16181 477.029C5.06023 504.18 5.42519 516.463 5.45234 533.48C5.4794 550.502 5.04146 565.761 5.25508 584.484C5.70955 624.45 5.49957 525.488 5.58076 513.203C5.61268 508.413 5.95572 526.8 5.96553 529.632C6.00844 542.209 5.76312 557.087 5.77412 566.782C5.81518 601.492 6.13895 622.745 6.2043 655.825C6.4264 768.469 6.60652 908.205 6.67744 1014.93C6.70357 1054.67 6.33954 1078.59 6.34981 1096.42C6.3741 1138.15 6.69134 1143.27 6.70821 1179.66C6.70991 1183.2 6.71033 1186.83 6.70959 1190.54L2.97656 1186.8C56.107 1186.81 125.551 1187.06 167.821 1187.12C199.127 1187.16 227.467 1186.85 235.61 1186.84C348.773 1186.73 486.436 1186.74 580.208 1186.74C624.309 1186.73 645.255 1187.08 654.361 1187.07C693.508 1187.03 683.012 1186.73 714.749 1186.76C731.894 1186.78 735.101 1187.06 737.395 1187.07C757.599 1187.16 761.623 1186.79 777.387 1186.78C868.043 1186.71 955.37 1186.95 1045.14 1186.99C1051.65 1186.99 1051.07 1187.16 1055.29 1187.15C1073.41 1187.11 1064.99 1186.85 1083.92 1186.83C1123.29 1186.79 1163.72 1186.83 1205.46 1186.87C1209.6 1186.87 1211.46 1187.08 1220.92 1187.08C1230.39 1187.08 1237.57 1186.88 1252.44 1186.89C1291.3 1186.92 1329.64 1187.16 1370.79 1187.17C1377.6 1187.17 1386.04 1186.92 1396.25 1186.92C1428.29 1186.93 1475.74 1187.16 1503.2 1187.17C1593.79 1187.2 1677.36 1187.05 1762.69 1187.05C1782.74 1187.05 1800.51 1187.29 1810.94 1187.29C1834.46 1187.3 1816.72 1187.08 1840.55 1187.08C2035.19 1187.07 2230.59 1187.18 2427.53 1187.16C2504.87 1187.15 2599.01 1186.92 2673.76 1186.98C2682.55 1186.99 2689.31 1187.02 2694.98 1187.06L2691.5 1190.54C2691.6 1176.18 2691.76 1168.82 2691.76 1153.06C2691.76 1113.85 2691.37 1106.74 2691.33 1065.38C2691.3 1032.37 2691.69 994.54 2691.67 960.2C2691.65 925.859 2691.26 910.012 2691.22 870.565C2691.18 838.074 2691.35 792.711 2691.33 757.337C2691.13 504.605 2690.99 254.887 2691.08 2.53711L2694.98 6.43828C2623.65 6.41291 2552.12 6.36922 2480.25 6.30342C2365.16 6.19797 2237.48 6.25279 2118.54 5.87764C2107.37 5.84213 2124.46 5.47355 2088.64 5.55098C2069.4 5.59297 2042.54 5.91057 1998.06 5.92647C1733.62 6.01979 1451.55 5.34042 1182.67 5.47481C779.909 5.67733 362.495 8.30023 12.501 4.46211C-4.6667 4.27363 4.64287 3.34999 14.9284 3.08759C24.4735 3.27513 33.2982 3.49787 43.2872 3.70966C55.8658 2.55559 53.6478 2.85608 100.271 2.95966C128.975 3.02398 106.047 2.53041 121.348 2.39032C141.183 2.20928 234.311 1.63921 216.4 2.4035C222.173 2.271 227.501 2.14405 233.125 2.01434C300.546 1.89862 366.051 1.70727 431.992 1.48797C443.383 1.44964 443.908 1.20982 455.674 1.17157C487.273 1.06709 512.362 1.22463 544.924 1.20038C562.613 1.18731 565.066 0.910182 588.232 0.927913C611.383 0.945755 610.876 1.31986 642.463 0.913265C621.888 0.443871 713.666 0.784464 746.307 0.755549C751.043 0.751817 789.893 0.330124 810.543 0.378595C831.264 0.426182 862.719 0.695569 894.761 0.542658C909.785 0.470803 918.902 0.142392 935.109 0.123711C946.506 0.110647 960.197 0.40256 974.628 0.414728C989.053 0.426854 1020.27 0.187229 1025.99 0.183281C1046.63 0.16742 1023.86 0.372652 1037.98 0.382989C1106.14 0.429648 1185.33 0.539633 1252.53 0.401544C1260.79 0.384801 1249.36 0.143 1250.46 0.134941C1306.55 -0.161741 1276.61 0.153306 1291.75 0.369806C1306.43 0.579151 1413.78 0.464955 1414.57 0.0446091C1417.87 0.570981 1441.74 0.168947 1447.94 0.153496C1472.06 0.0938292 1467.33 0.549241 1490.71 0.40838C1499.29 0.357078 1482.58 0.049258 1491.81 0.0582809C1514.6 0.0806768 1535.11 0.575193 1565.46 0.624689C1572.78 0.636821 1575.16 0.416539 1588.19 0.424005C1601.23 0.431584 1655.9 0.701073 1630.67 0.236504C1663.82 0.608794 1670.5 0.404463 1709.06 0.414728C1718.82 0.417856 1731.4 0.772842 1752.19 0.662775C1759.22 0.625421 1759.01 0.283249 1769.59 0.28045C1793.79 0.273081 1816.59 0.627295 1847.3 0.641291C1904.73 0.668342 1965.86 0.419337 2025.74 0.50799C2042.01 0.532318 2037.95 0.876342 2061.62 0.882991C2065.09 0.882991 2093.6 0.585487 2109.96 0.613459C2119.8 0.630256 2170.8 0.839338 2181.09 0.856135C2198.1 0.883062 2201.14 0.550338 2210.46 0.615412C2237.4 0.802985 2215.78 1.29275 2248.2 0.622736C2258.86 0.994148 2277.8 0.95699 2283.87 1.41424C2294.9 0.913155 2309.19 1.39459 2330.58 1.22674C2351.97 1.05877 2369.51 0.0882456 2374.69 1.1325C2384.68 1.00559 2427.25 0.788992 2434.42 0.773127C2455.58 0.728375 2444.27 1.01723 2460.24 0.978206C2463.05 0.971676 2460.1 0.77416 2478.15 0.793635C2489.99 0.8067 2576.75 0.818819 2581.93 0.845882C2641.04 1.15511 2549.72 1.04177 2536.94 1.25555C2534.68 1.1994 2532.45 1.14307 2530.04 1.08758C2503.92 0.994315 2518.79 1.44055 2530.63 1.54413C2542.47 1.64768 2564.6 1.44889 2574.44 1.5954C2579.35 1.66896 2576.31 2.20396 2561.48 2.13934C2577.35 2.30414 2555.67 2.47813 2561.95 2.633C2568.85 2.80277 2640.17 2.85504 2640.54 2.56024C2627.22 2.54998 2610.65 2.56016 2597.18 2.54804C2579.56 2.03571 2633.07 0.286071 2682.14 0.985042C2691.53 1.11851 2694.36 1.24476 2694.98 1.35051L2696.16 1.34929L2696.16 2.53711C2696.12 2.76905 2696.09 2.69346 2696.05 2.53711L2696.05 1.45858L2694.98 1.45969C2694.65 1.5281 2693.98 1.58132 2694.98 1.61324L2695.9 1.61229L2695.9 2.53711C2695.83 4.64964 2695.86 14.2912 2696.05 50.8238C2696.07 37.874 2696.11 26.9194 2696.14 15.1533C2696.52 13.9005 2696.1 32.989 2696.22 42.8312C2696.28 47.5587 2696.55 18.4215 2696.64 43.7193C2696.09 65.4759 2696.64 82.217 2696.65 118.701C2696.55 108.562 2696.46 98.4098 2696.36 88.2704C2695.96 149.92 2695.83 6.72683 2695.6 126.605C2695.59 112.179 2695.59 97.8265 2695.56 83.3269C2695.36 90.355 2694.77 79.1085 2694.65 85.399C2694.32 101.9 2694.52 126.313 2694.49 146.438C2694.48 155.246 2694.32 149.783 2694.31 150.524C2694.3 162.585 2694.53 159.922 2694.55 170.505C2694.56 183.823 2694.34 222.288 2694.36 228.525C2694.43 244.659 2694.89 217.794 2694.93 219.348C2695.15 229.635 2694.96 250.647 2695.26 249.543C2695.06 198.987 2695.31 53.2909 2695.8 185.099C2696.27 148.76 2696.92 159.254 2696.97 211.504C2697.02 254.726 2696.76 226.836 2696.47 249.335C2696.43 252.244 2696.3 310.133 2696.5 313.098C2696.03 310.778 2695.62 329.617 2695.13 316.976C2695.06 315.126 2695.09 291.37 2694.7 299.659C2694.51 303.803 2694.08 315.696 2693.83 313.779C2694.01 318.663 2694.2 323.77 2694.38 328.728C2694.43 364.327 2694.25 369.385 2693.92 388.85C2694.06 387.962 2694.62 369.977 2694.45 397.286C2694.44 398.688 2694.24 399.9 2694.14 413.775C2693.94 441.821 2693.87 447.675 2693.28 426.149C2693.62 484.231 2692.95 496.745 2693.15 556.309C2693.91 544.467 2693.72 523.526 2693.58 468.983C2693.76 466.615 2693.94 465.504 2694.12 463.062C2693.71 535.659 2693.75 499.786 2694.12 540.916C2694.21 550.981 2694.12 604.651 2694.63 586.74C2694.75 582.512 2694.74 549.17 2694.93 552.993C2694.97 553.733 2695.06 594.267 2695.01 597.841C2694.4 642.69 2693.97 562.543 2694.2 686.055C2694.2 689.457 2694.43 690.653 2694.46 697.304C2694.51 709.808 2694.26 709.965 2694.32 721.133C2694.38 732.307 2694.72 747.791 2694.4 764.589C2693.82 795.304 2693.48 722.853 2693.79 690.584C2693.03 677.484 2693.01 908.025 2693.08 922.309C2693.36 984.685 2693.2 880.886 2693.41 875.538C2693.5 873.318 2694.63 874.422 2693.9 848.156C2693.68 840.385 2693.39 872.865 2693.27 853.484C2693.15 834.094 2693.48 841.776 2693.51 840.37C2693.59 835.547 2693.46 814.924 2693.51 812.248C2694.23 771.098 2695.32 774.872 2693.71 829.418C2694.08 853.175 2694.65 798.644 2694.9 828.174C2695.2 864.066 2694.68 890.265 2694.66 894.779C2694.38 948.865 2695.14 886.5 2694.9 952.562C2694.76 989.345 2694.39 897.514 2694.44 981.513C2694.49 1051.82 2694.75 1013.85 2695.35 1018.96C2695.49 1020.17 2695.66 1058.69 2695.6 1006.23C2695.44 1004.75 2695.24 1001.95 2695.09 998.623C2695.21 985.755 2695.99 964.302 2696.01 957.476C2696.14 924.099 2695.74 925.711 2696.21 906.028C2695.69 920.085 2696.01 897.207 2695.9 888.622C2695.49 856.744 2695.34 898.543 2695.86 826.99C2695.62 836.315 2695.38 844.751 2695.13 853.78C2695.13 845.198 2695.12 836.609 2695.11 828.026C2695.65 815.223 2695.58 769.625 2696.12 810.916C2696.27 761.262 2696.16 741.19 2695.74 730.31C2695.66 728.243 2695.63 720.782 2695.62 712.016C2695.5 713.674 2695.14 715.795 2695.09 714.414C2694.7 702.057 2695.38 682.898 2695.64 689.429C2695.65 683.298 2695.66 678.443 2695.67 676.73C2695.71 665.867 2695.94 687.164 2696.02 678.358C2696.05 675.456 2696 644.848 2696.09 644.257C2696.7 640.568 2696.26 690.936 2696.62 589.789C2696.06 587.346 2696.19 634.326 2695.6 622.262C2694.96 609.31 2695.81 582.892 2695.03 577.119C2695.16 574.974 2695.27 574.024 2695.41 572.176C2695.08 531.255 2695.72 530.713 2695.87 518.211C2696.15 493.935 2696.1 382.33 2695.54 482.54C2695.49 467.886 2695.46 452.925 2695.41 438.345C2696.57 435.016 2696.11 443.895 2696.29 373.664C2696.33 358.197 2696.84 353.162 2696.23 337.994C2696.82 340.054 2696.47 294.308 2696.54 290.038C2697.01 262.656 2697.66 364.328 2696.61 377.364C2697.02 394.527 2696.48 394.466 2696.55 413.627C2696.65 441.307 2696.76 445.151 2696.36 478.011C2696.92 510.354 2696.61 351.396 2697.35 447.758C2698.03 535.372 2698.44 1007.05 2698.59 1190.54L2698.59 1194.15L2694.98 1194.15C2676.6 1194.17 2661.11 1194.18 2649.19 1194.19C2411.98 1194.39 2287.27 1194.52 2074.2 1194.49C2053.18 1194.49 1894.51 1194.54 1927.49 1193.89C1932.22 1193.8 2000.47 1193.55 1941.93 1193.04C1953.84 1193.34 1919.42 1193.54 1916.53 1193.57C1850.3 1194.29 1888.64 1194.46 1784.36 1194.47ZM1475.23 1188.67C1611.33 1188.82 1511.34 1188.39 1539.61 1187.4C1522.14 1187.4 1504.74 1187.4 1487.27 1187.4C1491.86 1187.46 1496.39 1187.52 1500.98 1187.58C1501 1187.58 1501.02 1187.58 1501.04 1187.58C1492.46 1187.94 1483.81 1188.31 1475.23 1188.67ZM5.49824 437.924C5.62751 443.234 5.75702 448.482 5.8835 454.235C5.84338 472.217 5.80399 490.13 5.76387 508.111C5.67616 505.965 5.58741 503.892 5.49971 501.747C5.50343 480.475 5.5075 459.269 5.49824 437.924ZM2693.65 671.55C2694.01 646.092 2693.37 648.388 2693.66 614.566C2693.19 618.71 2692.72 623.313 2692.26 627.68C2692.33 653.424 2692.51 659.274 2692.39 687.239C2692.54 683.984 2692.7 680.651 2692.85 677.47C2692.82 672.813 2692.78 667.859 2692.75 663.35C2693.17 656.174 2693.24 700.861 2693.65 671.639C2693.65 671.609 2693.65 671.579 2693.65 671.55ZM2693.46 410.667C2693.52 396.974 2693.75 342.731 2693.56 335.329C2692.89 310.24 2693.31 463.278 2692.72 350.486C2692.63 351.002 2692.54 350.486 2692.45 350.486C2692.41 371.06 2692.39 391.573 2692.36 412.295C2692.73 411.185 2693.09 411.924 2693.46 410.667ZM1967.48 1188.63C1988.52 1188.68 2088.84 1188.37 2056.14 1187.95C2046.52 1187.83 2001.73 1188.43 1984.71 1188.4C1973.68 1188.39 1986.04 1188.06 1964.28 1188.18C1965.24 1188.32 1965.84 1188.48 1967.54 1188.63C1967.52 1188.63 1967.5 1188.63 1967.48 1188.63ZM1928.02 1190.55C1949.78 1190.49 1971.83 1190.42 1993.74 1190.36C1977.75 1189.98 1946.3 1190.22 1944.45 1189.69C1950.44 1189.65 1956.37 1189.61 1962.36 1189.57C1966.95 1189.69 1971.46 1189.8 1975.98 1189.92C1994.77 1189.63 1983.39 1189.49 2018.4 1189.57C1997.23 1188.77 1993.3 1188.34 1933.35 1189.15C1944.67 1188.72 1934.01 1187.3 1900.79 1188.32C1894.57 1188.5 1920.53 1188.63 1920.83 1188.66C1924.82 1189.03 1910.41 1189.27 1914.7 1189.62C1916.62 1189.78 1932.46 1189.77 1934.83 1189.99C1935.92 1190.1 1920.86 1190.41 1928.02 1190.55ZM1884.65 1188.67C1891.39 1188.44 1868.37 1187.91 1848.39 1188.02C1817.23 1188.19 1866.37 1188.69 1884.65 1188.67ZM5.49775 437.806C5.49792 437.846 5.49808 437.885 5.49824 437.924C5.49775 437.905 5.49726 437.885 5.49678 437.865C5.4971 437.846 5.49743 437.826 5.49775 437.806ZM2693.2 481.268C2693.01 465.137 2693.04 441.258 2692.73 443.022C2692.79 435.177 2692.85 427.244 2692.91 419.399C2692.82 419.473 2692.73 419.621 2692.64 419.695C2692.58 443.302 2692.52 466.838 2692.46 490.444C2692.71 487.484 2692.95 484.746 2693.2 481.268ZM2693.41 224.085C2693.44 194.412 2693.03 219.289 2692.83 212.777C2692.63 206.264 2692.79 179.829 2692.51 182.938C2692.49 200.404 2692.48 218.622 2692.47 236.31C2692.78 231.648 2693.1 228.392 2693.41 224.026C2693.41 224.045 2693.41 224.065 2693.41 224.085ZM919.773 1188.35C939.9 1188.44 931.687 1188.75 971.429 1188.38C971.399 1188.38 971.37 1188.38 971.34 1188.38C933.524 1188.12 884.84 1187.89 843.104 1188.14C868.632 1188.48 888.101 1188.21 919.773 1188.35ZM2692.72 741.943C2692.97 750.442 2693.18 710.861 2692.95 702.129C2692.57 687.997 2692.34 728.992 2692.72 741.943ZM106.752 1190.56C76.1316 1191.33 134.151 1192.2 194.907 1191.82C200.162 1191.79 160.938 1191.55 172.558 1191.39C173.732 1191.38 195.264 1191.4 200.591 1191.29C205.92 1191.18 200.323 1190.93 209.057 1190.83C224.381 1190.65 259.012 1190.99 270.481 1190.75C271.992 1190.71 250.516 1190.38 249.168 1190.37C227.114 1190.17 205.863 1190.6 202.456 1190.61C184.915 1190.62 187.566 1190.28 183.125 1190.2C174.761 1190.05 160.035 1190.2 159 1190.19C132.38 1189.89 193.205 1189.97 201.42 1189.85C223.545 1189.52 203.06 1189.21 256.124 1189.02C261.162 1189 321.48 1189.02 245.467 1188.64C394.722 1187.84 170.472 1188.19 146.123 1188.36C134.898 1188.45 151.893 1188.77 145.087 1188.92C129.544 1189.25 103.052 1189.31 105.42 1189.78C110.529 1190.78 145.323 1190.13 169.301 1190.29C166.785 1190.51 165.823 1190.72 161.161 1190.93C168.34 1190.65 108.972 1190.5 106.752 1190.56C106.752 1190.56 106.752 1190.56 106.752 1190.56ZM484.593 1189.43C518.12 1189.73 515.747 1189.1 546.461 1189.46C573.547 1188.9 520.122 1188.93 513.899 1188.9C485.483 1188.76 486.137 1188.15 457.063 1188.34C467.054 1188.7 475.195 1189.06 484.593 1189.43ZM192.983 1189.17C215.406 1188.85 175.281 1188.86 173.653 1188.8C155.934 1188.15 276.083 1188.28 192.983 1189.17ZM2098.08 1189.89C2109.48 1189.91 2102.25 1189.61 2112.29 1189.52C2122.35 1189.43 2156.76 1189.69 2155.9 1189.5C2155.01 1189.31 2091.97 1188.82 2155.25 1188.71C2153.1 1188.61 2153.82 1188.53 2152.79 1188.43C2135.4 1188.43 2117.84 1188.42 2100.45 1188.42C2110 1188.73 2119.78 1189.05 2128.96 1189.35C2119.19 1189.59 2113.7 1189.28 2113.18 1189.28C2113.18 1189.28 2113.18 1189.28 2113.18 1189.28C2094.98 1189.3 2072.5 1189.84 2098.08 1189.89ZM1201.17 1188.94C1197.77 1189.7 1224.63 1188.85 1235.66 1188.76C1246.68 1188.66 1261.83 1188.94 1256.14 1188.62C1238.31 1188.39 1201.54 1188.85 1201.17 1188.94C1201.17 1188.94 1201.17 1188.94 1201.17 1188.94ZM666.735 1189.43C694.837 1189.24 690.375 1189.04 724.755 1189.27C723.423 1189.09 722.09 1188.9 720.758 1188.72C693.45 1188.71 695.37 1189.25 663.774 1189.03C658.595 1189 669.686 1188.57 646.309 1188.71C653.113 1188.93 660.005 1189.19 666.735 1189.43ZM806.012 1188.74C773.745 1188.77 748.152 1190.26 807.581 1189.59C816.389 1189.49 830.28 1188.72 806.012 1188.74ZM1800.44 1189.93C1855.33 1189.97 1792.97 1189.73 1778.68 1189.5C1906.46 1189.32 1764.25 1189.57 1751.5 1188.81C1735.89 1189.02 1706.67 1189.52 1739.13 1189.65C1752.67 1189.71 1747.73 1189.48 1748.54 1189.48C1773.48 1189.54 1770.46 1189.91 1800.44 1189.93ZM426.336 1189.46C428.408 1189.45 425.166 1189.2 431.753 1189.14C438.347 1189.09 453.275 1189.27 454.754 1189.12C456.227 1188.96 426.286 1188.83 417.1 1188.95C407.923 1189.07 407.613 1189.56 426.336 1189.46ZM636.985 1190.1C664.408 1189.91 619.564 1188.97 613.599 1188.97C561.199 1189.02 638.539 1189.8 636.985 1190.1ZM1672.97 1191.54C1739.13 1191.06 1690.73 1190.22 1649.29 1189.72C1643.81 1189.82 1638.2 1189.92 1632.8 1190.03C1657.67 1189.41 1701.25 1188.8 1604.29 1189.34C1657.36 1189.48 1612.92 1189.65 1612.58 1189.68C1606.73 1190.82 1685.34 1190.29 1672.91 1191.54C1672.93 1191.54 1672.95 1191.54 1672.97 1191.54ZM337.145 1189.19C308.346 1189.2 233.48 1189.39 268.409 1189.89C291.348 1189.66 314.207 1189.43 337.145 1189.19ZM2695.91 1129.32C2696.19 1105.78 2696.19 1084.09 2696.17 1055.07C2695.76 1081.2 2695.71 1064.03 2695.61 1055.22C2695.46 1041.86 2695.47 1074.22 2695.44 1074.32C2695.05 1073.72 2694.99 1053.09 2695 1100.07C2694.86 1088.45 2694.73 1076.99 2694.59 1065.38C2694.57 1101.19 2694.32 1109.62 2694.01 1132.34C2694.77 1110.28 2694.29 1139.32 2694.67 1165.67C2694.86 1178.82 2695.77 1141.29 2695.91 1129.23C2695.91 1129.26 2695.91 1129.29 2695.91 1129.32ZM1741.35 1191.69C1748.16 1191.55 1754.39 1191.37 1760.98 1191.21C1768.15 1191.2 1775.35 1191.18 1782.53 1191.17C1783.41 1191.29 1784.15 1191.42 1785.19 1191.53C1794.65 1191.57 1790.96 1191.4 1793.77 1191.38C1793.77 1191.38 1793.77 1191.38 1793.77 1191.38C1834.09 1191.16 1850.61 1191.19 1882.2 1191.56C1882.2 1191.19 1882.2 1190.82 1882.2 1190.45C1875.1 1190.48 1867.92 1190.52 1860.82 1190.55C1857.05 1190.75 1853.26 1190.95 1849.49 1191.15C1841.27 1191.04 1833.13 1190.93 1824.92 1190.82C1818.33 1190.89 1810.42 1190.97 1804.73 1191.04C1771.94 1190 1846.45 1190.7 1847.12 1190.27C1847.56 1190 1772.52 1190.01 1761.72 1190.2C1760.16 1190.23 1776.38 1191 1748.93 1190.6C1744.64 1190.53 1743.13 1188.86 1713.52 1190.22C1709.31 1190.41 1724.04 1191.45 1741.35 1191.69ZM2013.81 1192.23C1971.62 1191.16 2127.32 1192.29 2060.13 1191.41C2079.3 1190.92 2075.74 1190.92 2056.43 1190.49C2054.73 1190.45 2068.08 1190.31 2066.94 1190.3C2048.88 1190.06 2027.13 1190.18 2026.98 1189.75C2022.1 1189.77 2017.5 1189.79 2012.62 1189.81C2032.96 1190.23 2000.62 1190.5 1988.11 1190.85C1982.42 1191.01 1995.51 1191.06 1990.72 1191.2C1988.94 1191.25 1970.66 1191.14 1969.91 1191.29C1968.35 1191.62 1979.84 1192.06 1999.3 1192.3C1999.3 1192.3 1999.3 1192.3 1999.3 1192.3C2004.18 1192.28 2008.93 1192.25 2013.81 1192.23ZM1112.19 1191.34C1105.01 1190.75 1076.23 1190.58 1131.52 1190.29C1128.78 1190.17 1125.96 1190.06 1123.23 1189.94C1113.91 1189.95 1104.87 1189.96 1095.4 1189.97C1066.98 1191.71 1015.11 1189.75 1048.33 1190.98C1051.96 1191.12 1074.08 1190.97 1052.24 1191.33C1052.27 1191.33 1052.3 1191.33 1052.33 1191.33C1082.81 1191.22 1086.66 1191.01 1112.19 1191.34ZM1316.23 1190.93C1386.54 1189.68 1219.08 1190.23 1247.05 1190.56C1249.57 1190.59 1321.71 1190.33 1316.23 1190.93ZM752.048 1192.01C783.568 1192.03 785.657 1191.36 782.479 1191.12C779.297 1190.88 757.469 1191.12 754.653 1191.08C745.475 1190.96 764.94 1190.87 753.025 1190.7C749.079 1190.65 694.175 1190.41 691.659 1190.43C677.691 1190.6 698.112 1191.15 694.117 1191.21C681.093 1191.42 663.408 1191.13 659.63 1191.43C651.492 1192.06 684.463 1191.4 690.031 1191.39C706.832 1191.36 705.365 1191.71 717.946 1191.78C730.518 1191.85 738.735 1191.73 749.828 1191.76C753.518 1191.76 750.449 1192.01 752.048 1192.01ZM856.277 1190.59C823.354 1191.1 903.515 1191.65 913.024 1191.54C941 1191.18 872.041 1190.35 856.277 1190.59ZM1908.19 1190.61C1878.07 1190.98 1948.22 1191.28 1968.28 1191.13C1964.56 1190.98 1918.55 1190.49 1908.19 1190.61ZM1654.62 1191.54C1682.3 1191.42 1645.59 1190.59 1622.5 1190.6C1608.96 1191.15 1621.7 1191.04 1636.79 1191.06C1651.87 1191.09 1633.02 1191.62 1654.62 1191.54ZM410.144 1191.4C416.116 1191.41 512.365 1190.96 457.063 1190.77C452.845 1190.76 385.471 1190.84 380.364 1190.92C370.089 1191.09 394.752 1191.38 410.144 1191.4ZM1521.85 1192.34C1536.5 1191.87 1550.92 1191.88 1537.45 1191.32C1537.43 1191.32 1537.41 1191.32 1537.39 1191.32C1574.47 1191.15 1576.11 1192.29 1584.1 1192.26C1612.06 1192.18 1585.57 1191.37 1603.11 1191.1C1562.33 1191.35 1574.02 1190.81 1543.02 1190.77C1536.06 1190.77 1508.22 1191.09 1504.15 1191.29C1500.08 1191.5 1514.3 1192.1 1521.85 1192.34ZM274.181 1191.52C306.668 1191.7 336.414 1190.94 291.351 1190.82C269.369 1190.76 254.347 1191.41 274.181 1191.52ZM2696.15 363.807C2695.95 368.764 2695.75 373.872 2695.55 379.2C2695.51 367.214 2695.46 355.218 2695.41 343.233C2695.47 352.707 2695.53 362.193 2695.59 371.74C2695.66 349.241 2696.03 338.954 2696.15 363.747C2696.15 363.767 2696.15 363.787 2696.15 363.807ZM2255.24 1.20819C2245.18 1.01501 2225.35 1.61319 2227.86 1.65985C2246.8 2.00756 2269.21 1.47603 2255.24 1.20819ZM1952.68 1192.43C1990.1 1192.51 1964.37 1191.54 1941.43 1191.48C1955.46 1191.66 1931.44 1192.38 1952.68 1192.43ZM2536.94 1.25555C2540.3 1.33916 2543.68 1.42278 2547.45 1.50653C2535.61 1.39025 2533.56 1.31206 2536.94 1.25555ZM425.448 1192.26C431.161 1192.34 473.41 1192.4 479.117 1192.31C490.958 1192.11 458.012 1191.58 438.621 1191.74C436.475 1191.76 419.764 1192.19 425.537 1192.26C425.507 1192.26 425.478 1192.26 425.448 1192.26ZM2696.53 313.187C2696.52 313.253 2696.51 313.218 2696.5 313.098C2696.51 313.141 2696.52 313.129 2696.53 313.187ZM1414.25 0.000175238C1414.48 0.0152626 1414.6 0.0302365 1414.57 0.0446091C1414.49 0.0304964 1414.31 0.0156484 1414.25 0.000175238ZM723.423 1193.09C737.485 1194.02 769.899 1193.52 744.292 1193.06C742.858 1193.04 726.832 1193.09 723.423 1193.09Z" fill="#424242"/>
<defs>
<linearGradient id="paint0_linear_3808_32" x1="1348.98" y1="2.53711" x2="1348.98" y2="1190.54" gradientUnits="userSpaceOnUse">
<stop stop-color="#AA8282"/>
<stop offset="1" stop-color="#D1CDC8"/>
</linearGradient>
<linearGradient id="paint1_linear_3808_32" x1="21.4766" y1="-389.463" x2="21.4766" y2="1623.54" gradientUnits="userSpaceOnUse">
<stop stop-color="#AB8383"/>
<stop offset="1" stop-color="white"/>
</linearGradient>
<linearGradient id="paint2_linear_3808_32" x1="117.477" y1="-395.463" x2="117.477" y2="1617.54" gradientUnits="userSpaceOnUse">
<stop stop-color="#AB8383"/>
<stop offset="1" stop-color="white"/>
</linearGradient>
<linearGradient id="paint3_linear_3808_32" x1="213.477" y1="-391.463" x2="213.477" y2="1621.54" gradientUnits="userSpaceOnUse">
<stop stop-color="#AB8383"/>
<stop offset="1" stop-color="white"/>
</linearGradient>
<linearGradient id="paint4_linear_3808_32" x1="309.477" y1="-387.463" x2="309.477" y2="1625.54" gradientUnits="userSpaceOnUse">
<stop stop-color="#AB8383"/>
<stop offset="1" stop-color="white"/>
</linearGradient>
<linearGradient id="paint5_linear_3808_32" x1="405.477" y1="-393.463" x2="405.477" y2="1619.54" gradientUnits="userSpaceOnUse">
<stop stop-color="#AB8383"/>
<stop offset="1" stop-color="white"/>
</linearGradient>
<linearGradient id="paint6_linear_3808_32" x1="501.477" y1="-397.463" x2="501.477" y2="1615.54" gradientUnits="userSpaceOnUse">
<stop stop-color="#AB8383"/>
<stop offset="1" stop-color="white"/>
</linearGradient>
<linearGradient id="paint7_linear_3808_32" x1="597.477" y1="-399.463" x2="597.477" y2="1613.54" gradientUnits="userSpaceOnUse">
<stop stop-color="#AB8383"/>
<stop offset="1" stop-color="white"/>
</linearGradient>
<linearGradient id="paint8_linear_3808_32" x1="693.477" y1="-397.463" x2="693.477" y2="1615.54" gradientUnits="userSpaceOnUse">
<stop stop-color="#AB8383"/>
<stop offset="1" stop-color="white"/>
</linearGradient>
<linearGradient id="paint9_linear_3808_32" x1="789.477" y1="-401.463" x2="789.477" y2="1611.54" gradientUnits="userSpaceOnUse">
<stop stop-color="#AB8383"/>
<stop offset="1" stop-color="white"/>
</linearGradient>
<linearGradient id="paint10_linear_3808_32" x1="885.477" y1="-403.463" x2="885.477" y2="1609.54" gradientUnits="userSpaceOnUse">
<stop stop-color="#AB8383"/>
<stop offset="1" stop-color="white"/>
</linearGradient>
<linearGradient id="paint11_linear_3808_32" x1="981.477" y1="-403.463" x2="981.477" y2="1609.54" gradientUnits="userSpaceOnUse">
<stop stop-color="#AB8383"/>
<stop offset="1" stop-color="white"/>
</linearGradient>
<linearGradient id="paint12_linear_3808_32" x1="1077.48" y1="-401.463" x2="1077.48" y2="1611.54" gradientUnits="userSpaceOnUse">
<stop stop-color="#AB8383"/>
<stop offset="1" stop-color="white"/>
</linearGradient>
<linearGradient id="paint13_linear_3808_32" x1="1173.48" y1="-405.463" x2="1173.48" y2="1607.54" gradientUnits="userSpaceOnUse">
<stop stop-color="#AB8383"/>
<stop offset="1" stop-color="white"/>
</linearGradient>
<linearGradient id="paint14_linear_3808_32" x1="1269.48" y1="-403.463" x2="1269.48" y2="1609.54" gradientUnits="userSpaceOnUse">
<stop stop-color="#AB8383"/>
<stop offset="1" stop-color="white"/>
</linearGradient>
<linearGradient id="paint15_linear_3808_32" x1="53.4766" y1="-388.463" x2="53.4766" y2="1624.54" gradientUnits="userSpaceOnUse">
<stop stop-color="#AB8383"/>
<stop offset="1" stop-color="white"/>
</linearGradient>
<linearGradient id="paint16_linear_3808_32" x1="149.477" y1="-394.463" x2="149.477" y2="1618.54" gradientUnits="userSpaceOnUse">
<stop stop-color="#AB8383"/>
<stop offset="1" stop-color="white"/>
</linearGradient>
<linearGradient id="paint17_linear_3808_32" x1="245.477" y1="-390.463" x2="245.477" y2="1622.54" gradientUnits="userSpaceOnUse">
<stop stop-color="#AB8383"/>
<stop offset="1" stop-color="white"/>
</linearGradient>
<linearGradient id="paint18_linear_3808_32" x1="341.477" y1="-386.463" x2="341.477" y2="1626.54" gradientUnits="userSpaceOnUse">
<stop stop-color="#AB8383"/>
<stop offset="1" stop-color="white"/>
</linearGradient>
<linearGradient id="paint19_linear_3808_32" x1="437.477" y1="-392.463" x2="437.477" y2="1620.54" gradientUnits="userSpaceOnUse">
<stop stop-color="#AB8383"/>
<stop offset="1" stop-color="white"/>
</linearGradient>
<linearGradient id="paint20_linear_3808_32" x1="533.477" y1="-396.463" x2="533.477" y2="1616.54" gradientUnits="userSpaceOnUse">
<stop stop-color="#AB8383"/>
<stop offset="1" stop-color="white"/>
</linearGradient>
<linearGradient id="paint21_linear_3808_32" x1="629.477" y1="-398.463" x2="629.477" y2="1614.54" gradientUnits="userSpaceOnUse">
<stop stop-color="#AB8383"/>
<stop offset="1" stop-color="white"/>
</linearGradient>
<linearGradient id="paint22_linear_3808_32" x1="725.477" y1="-396.463" x2="725.477" y2="1616.54" gradientUnits="userSpaceOnUse">
<stop stop-color="#AB8383"/>
<stop offset="1" stop-color="white"/>
</linearGradient>
<linearGradient id="paint23_linear_3808_32" x1="821.477" y1="-400.463" x2="821.477" y2="1612.54" gradientUnits="userSpaceOnUse">
<stop stop-color="#AB8383"/>
<stop offset="1" stop-color="white"/>
</linearGradient>
<linearGradient id="paint24_linear_3808_32" x1="917.477" y1="-402.463" x2="917.477" y2="1610.54" gradientUnits="userSpaceOnUse">
<stop stop-color="#AB8383"/>
<stop offset="1" stop-color="white"/>
</linearGradient>
<linearGradient id="paint25_linear_3808_32" x1="1013.48" y1="-402.463" x2="1013.48" y2="1610.54" gradientUnits="userSpaceOnUse">
<stop stop-color="#AB8383"/>
<stop offset="1" stop-color="white"/>
</linearGradient>
<linearGradient id="paint26_linear_3808_32" x1="1109.48" y1="-400.463" x2="1109.48" y2="1612.54" gradientUnits="userSpaceOnUse">
<stop stop-color="#AB8383"/>
<stop offset="1" stop-color="white"/>
</linearGradient>
<linearGradient id="paint27_linear_3808_32" x1="1205.48" y1="-404.463" x2="1205.48" y2="1608.54" gradientUnits="userSpaceOnUse">
<stop stop-color="#AB8383"/>
<stop offset="1" stop-color="white"/>
</linearGradient>
<linearGradient id="paint28_linear_3808_32" x1="1301.48" y1="-402.463" x2="1301.48" y2="1610.54" gradientUnits="userSpaceOnUse">
<stop stop-color="#AB8383"/>
<stop offset="1" stop-color="white"/>
</linearGradient>
<linearGradient id="paint29_linear_3808_32" x1="85.4766" y1="-389.463" x2="85.4766" y2="1623.54" gradientUnits="userSpaceOnUse">
<stop stop-color="#AB8383"/>
<stop offset="1" stop-color="white"/>
</linearGradient>
<linearGradient id="paint30_linear_3808_32" x1="181.477" y1="-395.463" x2="181.477" y2="1617.54" gradientUnits="userSpaceOnUse">
<stop stop-color="#AB8383"/>
<stop offset="1" stop-color="white"/>
</linearGradient>
<linearGradient id="paint31_linear_3808_32" x1="277.477" y1="-391.463" x2="277.477" y2="1621.54" gradientUnits="userSpaceOnUse">
<stop stop-color="#AB8383"/>
<stop offset="1" stop-color="white"/>
</linearGradient>
<linearGradient id="paint32_linear_3808_32" x1="373.477" y1="-387.463" x2="373.477" y2="1625.54" gradientUnits="userSpaceOnUse">
<stop stop-color="#AB8383"/>
<stop offset="1" stop-color="white"/>
</linearGradient>
<linearGradient id="paint33_linear_3808_32" x1="469.477" y1="-393.463" x2="469.477" y2="1619.54" gradientUnits="userSpaceOnUse">
<stop stop-color="#AB8383"/>
<stop offset="1" stop-color="white"/>
</linearGradient>
<linearGradient id="paint34_linear_3808_32" x1="565.477" y1="-397.463" x2="565.477" y2="1615.54" gradientUnits="userSpaceOnUse">
<stop stop-color="#AB8383"/>
<stop offset="1" stop-color="white"/>
</linearGradient>
<linearGradient id="paint35_linear_3808_32" x1="661.477" y1="-399.463" x2="661.477" y2="1613.54" gradientUnits="userSpaceOnUse">
<stop stop-color="#AB8383"/>
<stop offset="1" stop-color="white"/>
</linearGradient>
<linearGradient id="paint36_linear_3808_32" x1="757.477" y1="-397.463" x2="757.477" y2="1615.54" gradientUnits="userSpaceOnUse">
<stop stop-color="#AB8383"/>
<stop offset="1" stop-color="white"/>
</linearGradient>
<linearGradient id="paint37_linear_3808_32" x1="853.477" y1="-401.463" x2="853.477" y2="1611.54" gradientUnits="userSpaceOnUse">
<stop stop-color="#AB8383"/>
<stop offset="1" stop-color="white"/>
</linearGradient>
<linearGradient id="paint38_linear_3808_32" x1="949.477" y1="-403.463" x2="949.477" y2="1609.54" gradientUnits="userSpaceOnUse">
<stop stop-color="#AB8383"/>
<stop offset="1" stop-color="white"/>
</linearGradient>
<linearGradient id="paint39_linear_3808_32" x1="1045.48" y1="-403.463" x2="1045.48" y2="1609.54" gradientUnits="userSpaceOnUse">
<stop stop-color="#AB8383"/>
<stop offset="1" stop-color="white"/>
</linearGradient>
<linearGradient id="paint40_linear_3808_32" x1="1141.48" y1="-401.463" x2="1141.48" y2="1611.54" gradientUnits="userSpaceOnUse">
<stop stop-color="#AB8383"/>
<stop offset="1" stop-color="white"/>
</linearGradient>
<linearGradient id="paint41_linear_3808_32" x1="1237.48" y1="-405.463" x2="1237.48" y2="1607.54" gradientUnits="userSpaceOnUse">
<stop stop-color="#AB8383"/>
<stop offset="1" stop-color="white"/>
</linearGradient>
<linearGradient id="paint42_linear_3808_32" x1="1333.48" y1="-403.463" x2="1333.48" y2="1609.54" gradientUnits="userSpaceOnUse">
<stop stop-color="#AB8383"/>
<stop offset="1" stop-color="white"/>
</linearGradient>
<linearGradient id="paint43_linear_3808_32" x1="1365.48" y1="-397.463" x2="1365.48" y2="1615.54" gradientUnits="userSpaceOnUse">
<stop stop-color="#AB8383"/>
<stop offset="1" stop-color="white"/>
</linearGradient>
<linearGradient id="paint44_linear_3808_32" x1="1397.48" y1="-396.463" x2="1397.48" y2="1616.54" gradientUnits="userSpaceOnUse">
<stop stop-color="#AB8383"/>
<stop offset="1" stop-color="white"/>
</linearGradient>
<linearGradient id="paint45_linear_3808_32" x1="1429.48" y1="-397.463" x2="1429.48" y2="1615.54" gradientUnits="userSpaceOnUse">
<stop stop-color="#AB8383"/>
<stop offset="1" stop-color="white"/>
</linearGradient>
<linearGradient id="paint46_linear_3808_32" x1="1461.48" y1="-399.463" x2="1461.48" y2="1613.54" gradientUnits="userSpaceOnUse">
<stop stop-color="#AB8383"/>
<stop offset="1" stop-color="white"/>
</linearGradient>
<linearGradient id="paint47_linear_3808_32" x1="1557.48" y1="-405.463" x2="1557.48" y2="1607.54" gradientUnits="userSpaceOnUse">
<stop stop-color="#AB8383"/>
<stop offset="1" stop-color="white"/>
</linearGradient>
<linearGradient id="paint48_linear_3808_32" x1="1653.48" y1="-401.463" x2="1653.48" y2="1611.54" gradientUnits="userSpaceOnUse">
<stop stop-color="#AB8383"/>
<stop offset="1" stop-color="white"/>
</linearGradient>
<linearGradient id="paint49_linear_3808_32" x1="1749.48" y1="-397.463" x2="1749.48" y2="1615.54" gradientUnits="userSpaceOnUse">
<stop stop-color="#AB8383"/>
<stop offset="1" stop-color="white"/>
</linearGradient>
<linearGradient id="paint50_linear_3808_32" x1="1845.48" y1="-403.463" x2="1845.48" y2="1609.54" gradientUnits="userSpaceOnUse">
<stop stop-color="#AB8383"/>
<stop offset="1" stop-color="white"/>
</linearGradient>
<linearGradient id="paint51_linear_3808_32" x1="1941.48" y1="-407.463" x2="1941.48" y2="1605.54" gradientUnits="userSpaceOnUse">
<stop stop-color="#AB8383"/>
<stop offset="1" stop-color="white"/>
</linearGradient>
<linearGradient id="paint52_linear_3808_32" x1="2037.48" y1="-409.463" x2="2037.48" y2="1603.54" gradientUnits="userSpaceOnUse">
<stop stop-color="#AB8383"/>
<stop offset="1" stop-color="white"/>
</linearGradient>
<linearGradient id="paint53_linear_3808_32" x1="2133.48" y1="-407.463" x2="2133.48" y2="1605.54" gradientUnits="userSpaceOnUse">
<stop stop-color="#AB8383"/>
<stop offset="1" stop-color="white"/>
</linearGradient>
<linearGradient id="paint54_linear_3808_32" x1="2229.48" y1="-411.463" x2="2229.48" y2="1601.54" gradientUnits="userSpaceOnUse">
<stop stop-color="#AB8383"/>
<stop offset="1" stop-color="white"/>
</linearGradient>
<linearGradient id="paint55_linear_3808_32" x1="2325.48" y1="-413.463" x2="2325.48" y2="1599.54" gradientUnits="userSpaceOnUse">
<stop stop-color="#AB8383"/>
<stop offset="1" stop-color="white"/>
</linearGradient>
<linearGradient id="paint56_linear_3808_32" x1="2421.48" y1="-413.463" x2="2421.48" y2="1599.54" gradientUnits="userSpaceOnUse">
<stop stop-color="#AB8383"/>
<stop offset="1" stop-color="white"/>
</linearGradient>
<linearGradient id="paint57_linear_3808_32" x1="2517.48" y1="-411.463" x2="2517.48" y2="1601.54" gradientUnits="userSpaceOnUse">
<stop stop-color="#AB8383"/>
<stop offset="1" stop-color="white"/>
</linearGradient>
<linearGradient id="paint58_linear_3808_32" x1="2613.48" y1="-415.463" x2="2613.48" y2="1597.54" gradientUnits="userSpaceOnUse">
<stop stop-color="#AB8383"/>
<stop offset="1" stop-color="white"/>
</linearGradient>
<linearGradient id="paint59_linear_3808_32" x1="1493.48" y1="-398.463" x2="1493.48" y2="1614.54" gradientUnits="userSpaceOnUse">
<stop stop-color="#AB8383"/>
<stop offset="1" stop-color="white"/>
</linearGradient>
<linearGradient id="paint60_linear_3808_32" x1="1589.48" y1="-404.463" x2="1589.48" y2="1608.54" gradientUnits="userSpaceOnUse">
<stop stop-color="#AB8383"/>
<stop offset="1" stop-color="white"/>
</linearGradient>
<linearGradient id="paint61_linear_3808_32" x1="1685.48" y1="-400.463" x2="1685.48" y2="1612.54" gradientUnits="userSpaceOnUse">
<stop stop-color="#AB8383"/>
<stop offset="1" stop-color="white"/>
</linearGradient>
<linearGradient id="paint62_linear_3808_32" x1="1781.48" y1="-396.463" x2="1781.48" y2="1616.54" gradientUnits="userSpaceOnUse">
<stop stop-color="#AB8383"/>
<stop offset="1" stop-color="white"/>
</linearGradient>
<linearGradient id="paint63_linear_3808_32" x1="1877.48" y1="-402.463" x2="1877.48" y2="1610.54" gradientUnits="userSpaceOnUse">
<stop stop-color="#AB8383"/>
<stop offset="1" stop-color="white"/>
</linearGradient>
<linearGradient id="paint64_linear_3808_32" x1="1973.48" y1="-406.463" x2="1973.48" y2="1606.54" gradientUnits="userSpaceOnUse">
<stop stop-color="#AB8383"/>
<stop offset="1" stop-color="white"/>
</linearGradient>
<linearGradient id="paint65_linear_3808_32" x1="2069.48" y1="-408.463" x2="2069.48" y2="1604.54" gradientUnits="userSpaceOnUse">
<stop stop-color="#AB8383"/>
<stop offset="1" stop-color="white"/>
</linearGradient>
<linearGradient id="paint66_linear_3808_32" x1="2165.48" y1="-406.463" x2="2165.48" y2="1606.54" gradientUnits="userSpaceOnUse">
<stop stop-color="#AB8383"/>
<stop offset="1" stop-color="white"/>
</linearGradient>
<linearGradient id="paint67_linear_3808_32" x1="2261.48" y1="-410.463" x2="2261.48" y2="1602.54" gradientUnits="userSpaceOnUse">
<stop stop-color="#AB8383"/>
<stop offset="1" stop-color="white"/>
</linearGradient>
<linearGradient id="paint68_linear_3808_32" x1="2357.48" y1="-412.463" x2="2357.48" y2="1600.54" gradientUnits="userSpaceOnUse">
<stop stop-color="#AB8383"/>
<stop offset="1" stop-color="white"/>
</linearGradient>
<linearGradient id="paint69_linear_3808_32" x1="2453.48" y1="-412.463" x2="2453.48" y2="1600.54" gradientUnits="userSpaceOnUse">
<stop stop-color="#AB8383"/>
<stop offset="1" stop-color="white"/>
</linearGradient>
<linearGradient id="paint70_linear_3808_32" x1="2549.48" y1="-410.463" x2="2549.48" y2="1602.54" gradientUnits="userSpaceOnUse">
<stop stop-color="#AB8383"/>
<stop offset="1" stop-color="white"/>
</linearGradient>
<linearGradient id="paint71_linear_3808_32" x1="2645.48" y1="-414.463" x2="2645.48" y2="1598.54" gradientUnits="userSpaceOnUse">
<stop stop-color="#AB8383"/>
<stop offset="1" stop-color="white"/>
</linearGradient>
<linearGradient id="paint72_linear_3808_32" x1="1525.48" y1="-399.463" x2="1525.48" y2="1613.54" gradientUnits="userSpaceOnUse">
<stop stop-color="#AB8383"/>
<stop offset="1" stop-color="white"/>
</linearGradient>
<linearGradient id="paint73_linear_3808_32" x1="1621.48" y1="-405.463" x2="1621.48" y2="1607.54" gradientUnits="userSpaceOnUse">
<stop stop-color="#AB8383"/>
<stop offset="1" stop-color="white"/>
</linearGradient>
<linearGradient id="paint74_linear_3808_32" x1="1717.48" y1="-401.463" x2="1717.48" y2="1611.54" gradientUnits="userSpaceOnUse">
<stop stop-color="#AB8383"/>
<stop offset="1" stop-color="white"/>
</linearGradient>
<linearGradient id="paint75_linear_3808_32" x1="1813.48" y1="-397.463" x2="1813.48" y2="1615.54" gradientUnits="userSpaceOnUse">
<stop stop-color="#AB8383"/>
<stop offset="1" stop-color="white"/>
</linearGradient>
<linearGradient id="paint76_linear_3808_32" x1="1909.48" y1="-403.463" x2="1909.48" y2="1609.54" gradientUnits="userSpaceOnUse">
<stop stop-color="#AB8383"/>
<stop offset="1" stop-color="white"/>
</linearGradient>
<linearGradient id="paint77_linear_3808_32" x1="2005.48" y1="-407.463" x2="2005.48" y2="1605.54" gradientUnits="userSpaceOnUse">
<stop stop-color="#AB8383"/>
<stop offset="1" stop-color="white"/>
</linearGradient>
<linearGradient id="paint78_linear_3808_32" x1="2101.48" y1="-409.463" x2="2101.48" y2="1603.54" gradientUnits="userSpaceOnUse">
<stop stop-color="#AB8383"/>
<stop offset="1" stop-color="white"/>
</linearGradient>
<linearGradient id="paint79_linear_3808_32" x1="2197.48" y1="-407.463" x2="2197.48" y2="1605.54" gradientUnits="userSpaceOnUse">
<stop stop-color="#AB8383"/>
<stop offset="1" stop-color="white"/>
</linearGradient>
<linearGradient id="paint80_linear_3808_32" x1="2293.48" y1="-411.463" x2="2293.48" y2="1601.54" gradientUnits="userSpaceOnUse">
<stop stop-color="#AB8383"/>
<stop offset="1" stop-color="white"/>
</linearGradient>
<linearGradient id="paint81_linear_3808_32" x1="2389.48" y1="-413.463" x2="2389.48" y2="1599.54" gradientUnits="userSpaceOnUse">
<stop stop-color="#AB8383"/>
<stop offset="1" stop-color="white"/>
</linearGradient>
<linearGradient id="paint82_linear_3808_32" x1="2485.48" y1="-413.463" x2="2485.48" y2="1599.54" gradientUnits="userSpaceOnUse">
<stop stop-color="#AB8383"/>
<stop offset="1" stop-color="white"/>
</linearGradient>
<linearGradient id="paint83_linear_3808_32" x1="2581.48" y1="-411.463" x2="2581.48" y2="1601.54" gradientUnits="userSpaceOnUse">
<stop stop-color="#AB8383"/>
<stop offset="1" stop-color="white"/>
</linearGradient>
<linearGradient id="paint84_linear_3808_32" x1="2677.48" y1="-415.463" x2="2677.48" y2="1597.54" gradientUnits="userSpaceOnUse">
<stop stop-color="#AB8383"/>
<stop offset="1" stop-color="white"/>
</linearGradient>
<clipPath id="clip0_3808_32">
<path d="M2.97656 2.53711H2694.98V1190.54H2.97656V2.53711Z" fill="white"/>
</clipPath>
</defs>
</svg>
