<svg width="90" height="105" viewBox="0 0 90 105" fill="none" xmlns="http://www.w3.org/2000/svg">
<circle cx="45" cy="55" r="45" fill="url(#paint0_linear_3808_183)"/>
<circle cx="45" cy="55" r="40" fill="#F2F2F2"/>
<path d="M34.304 81.6262L38.4161 80.1308V50.8225L34.304 49.5514V49.1776L52.547 42.8972H52.6217V80.1308L56.7339 81.6262V82H34.304V81.6262ZM45.5189 41.3271C43.0766 41.3271 41.1326 40.6792 39.6872 39.3832C38.2417 38.0873 37.5189 36.3926 37.5189 34.2991C37.5189 32.1558 38.2168 30.4362 39.6124 29.1402C41.0579 27.7944 43.0267 27.1215 45.5189 27.1215C47.9613 27.1215 49.9052 27.7944 51.3507 29.1402C52.7962 30.4362 53.5189 32.1558 53.5189 34.2991C53.5189 36.3926 52.7962 38.0873 51.3507 39.3832C49.9052 40.6792 47.9613 41.3271 45.5189 41.3271Z" fill="#1D3252"/>
<defs>
<linearGradient id="paint0_linear_3808_183" x1="45" y1="10" x2="45" y2="100" gradientUnits="userSpaceOnUse">
<stop stop-color="#132542"/>
<stop offset="1" stop-color="#243C5C"/>
</linearGradient>
</defs>
</svg>
