<svg width="342" height="342" viewBox="0 0 342 342" fill="none" xmlns="http://www.w3.org/2000/svg">
<rect x="3" y="3" width="336" height="336" fill="url(#paint0_linear_3808_175)" stroke="#804949" stroke-width="6"/>
<rect x="37.5469" y="40.1602" width="264.29" height="264.29" fill="#D9D9D9" stroke="#804949" stroke-width="2"/>
<path d="M112.825 192.679C90.1613 162.814 59.3595 158.367 46.7916 159.876C70.8626 161.793 73.1806 174.727 71.3307 180.954C68.5568 189.257 72.7034 193.865 75.1234 195.131C88.4006 200.101 86.8911 185.437 84.4767 177.484C104.184 186.114 102.094 203.41 95.1635 219.325C89.619 232.058 96.0694 238.924 99.9878 240.765C117.418 242.688 112.11 220.118 107.278 208.593C109.351 210.667 115.295 217.441 122.48 227.949C129.665 238.458 118.077 254.47 111.384 261.162C101.417 268.918 109.3 272.462 114.487 273.265C131.09 272.144 128.346 244.2 124.899 230.368C140.381 245.85 138.246 261.716 135.244 267.714C134.397 287.913 142.721 287.652 146.989 284.997C161.664 272.534 143.907 247.992 133.194 237.279C141.837 241.768 159.742 254.965 162.218 271.841C164.694 288.718 175.46 291.084 180.534 290.157C197.397 284.235 172.49 259.036 158.431 251.438C201.025 271.325 226.909 256.454 234.526 246.532C240.411 240.186 249.624 225.076 239.394 215.4C229.165 205.724 222.678 215.068 220.713 220.949C224.854 231.737 217.353 240.667 213.085 243.783C198.131 258.737 170.882 251.889 159.127 246.595C172.611 252.464 217.582 242.05 209.295 226.147C202.665 213.425 195.927 219.471 193.387 224.085C190.594 235.659 181.416 240.447 171.413 241.81C169.526 242.254 167.293 242.486 164.664 242.44C149.446 242.176 146.335 240.496 146.681 239.688C152.974 241.528 162.52 243.023 171.413 241.81C183.179 239.042 181.492 228.018 178.514 224.444C175.75 221.126 172.521 222.373 171.251 223.412C156.847 242.239 137.577 234.969 129.742 228.981C152.975 240.582 156.258 230.342 154.995 223.772C150.024 212.708 140.477 214.099 136.325 216.178C119.163 223.94 106.36 203.521 102.104 192.342C106.591 202.368 113.501 211.355 123.534 208.234C133.567 205.113 123.198 196.82 119.393 197.169C116.349 197.449 113.746 194.292 112.825 192.679Z" fill="#1D2E4A"/>
<path d="M46.6724 158.883C46.7519 159.545 46.8314 160.207 46.9109 160.869C66.9714 159.348 87.2282 168.239 101.886 181.995C105.576 185.452 108.964 189.244 112.029 193.283L111.957 193.174C113.53 195.665 115.831 198.316 119.484 198.165C121.667 198.21 124.561 200.166 126.034 202.253C126.787 203.341 127.048 204.507 126.459 205.344C125.873 206.233 124.574 206.865 123.237 207.279C113.703 210.546 106.656 200.294 103.016 191.933L101.169 192.698C104.078 200.069 108.237 207.031 114.14 212.508C119.8 218.08 129.219 220.92 136.737 217.089L136.772 217.072C143.263 213.677 151.53 217.193 154.083 224.181L154.013 223.96C154.498 226.483 154.209 229.295 152.626 231.086C151.062 232.906 148.333 233.397 145.714 233.214C140.38 232.785 135.159 230.526 130.189 228.086L129.135 229.775C141.781 240.019 162.969 238.025 172.046 224.02L171.885 224.186C173.655 222.758 176.27 223.118 177.746 225.084C179.712 227.656 180.263 231.704 179.059 234.83C177.872 238.052 174.663 240.062 171.184 240.837L171.548 242.801C181.651 241.838 192.326 234.986 194.359 224.32L194.263 224.568C195.842 221.699 198.743 218.933 201.696 219.639C204.666 220.373 206.8 223.573 208.408 226.609C210.992 230.944 207.587 235.678 203.446 238.318C199.273 241.115 194.435 242.946 189.517 244.358C179.768 246.909 168.839 248.818 159.526 245.679L158.716 247.507C175.913 254.578 198.657 258.708 213.792 244.49L213.674 244.591C220.781 239.269 225.249 229.291 221.646 220.591L221.661 221.266C222.918 217.638 225.248 213.947 228.657 212.629C232.101 211.276 235.893 213.419 238.707 216.126C247.556 224.238 241.02 237.932 233.793 245.852L233.733 245.923C215.127 266.528 182.349 261.916 158.854 250.532L157.955 252.318C165.48 256.566 172.231 262.464 177.912 269.039C180.698 272.364 183.31 275.973 184.625 279.944C186.182 283.955 184.4 288.053 180.203 289.214L180.354 289.173C170.861 290.755 164.075 280.847 163.208 271.696C160.318 255.481 147.139 244.027 133.655 236.391L132.487 237.986C138.831 244.44 144.466 251.832 148.305 260.009C152.136 267.888 153.602 278.539 146.342 284.235L146.461 284.148C144.796 285.189 142.708 285.636 141.05 284.913C139.372 284.215 138.227 282.433 137.535 280.501C136.17 276.562 136.086 272.1 136.243 267.755L136.138 268.161C142.04 254.535 135.472 239.207 125.606 229.661L123.059 227.111L123.929 230.61C125.833 238.504 126.889 246.741 126.367 254.813C125.968 262.549 122.763 272.068 114.42 272.267L114.64 272.277C111.836 271.823 108.416 270.661 107.69 268.471C107.091 266.279 109.712 263.738 111.998 261.951L112.091 261.869C120.116 253.024 130.458 240.266 123.306 227.385C118.613 220.585 113.734 213.964 107.985 207.886L106.356 208.98C108.88 215.153 110.808 221.75 110.995 228.337C111.041 231.58 110.559 235.002 108.6 237.296C106.66 239.622 103.314 240.15 100.097 239.771L100.413 239.86C93.3586 236.389 92.6579 226.661 96.0804 219.725C99.3261 212.143 102.007 203.817 100.757 195.253C99.6616 186.534 92.5869 179.72 84.8778 176.568L82.8912 175.695L83.5198 177.775C85.045 183.334 86.6653 191.015 82.5377 194.441C80.6616 195.644 77.9132 195.106 75.4739 194.195L75.587 194.245C71.4129 191.882 70.5316 185.941 72.2792 181.271L72.2893 181.239C74.2794 174.665 70.6215 167.489 65.076 164.143C59.5756 160.619 53.131 159.41 46.871 158.879C46.8181 159.544 46.7652 160.209 46.7123 160.873C52.7916 161.378 58.9764 162.595 63.9818 165.817C69.0227 168.885 72.0441 175.082 70.3721 180.669L70.3822 180.637C68.4902 185.718 69.1754 192.881 74.6598 196.017L74.7729 196.068C77.4186 197.008 80.6384 197.919 83.6182 196.124C86.9142 193.826 87.0933 189.877 87.0765 186.729C86.9755 183.457 86.3555 180.281 85.4335 177.194L84.0755 178.4C91.46 181.462 97.7519 187.592 98.7814 195.562C99.9505 203.44 97.4351 211.515 94.2467 218.926C90.627 226.17 91.0605 237.477 99.5624 241.67L99.8781 241.759C103.351 242.176 107.555 241.648 110.116 238.6C112.617 235.615 113.022 231.768 112.994 228.305C112.785 221.272 110.799 214.584 108.2 208.207L106.571 209.3C112.105 215.15 117.023 221.794 121.655 228.514C127.948 239.186 118.571 252 110.677 260.455L110.77 260.373C108.458 262.385 105.001 264.658 105.77 269.031C107.4 272.977 111.234 273.608 114.334 274.253L114.554 274.263C124.505 273.934 128.005 262.782 128.362 254.957C128.899 246.564 127.818 238.223 125.869 230.126L124.192 231.075C133.749 240.26 139.715 254.967 134.35 267.266L134.245 267.672C134.094 272.149 134.126 276.729 135.655 281.181C136.441 283.348 137.791 285.693 140.269 286.754C142.751 287.807 145.478 287.115 147.517 285.846L147.636 285.759C155.908 279.237 154.079 267.197 150.121 259.173C146.126 250.679 140.408 243.199 133.901 236.572L132.733 238.166C145.788 245.504 158.631 256.924 161.229 271.987C162.07 281.428 169.482 292.985 180.714 291.141L180.865 291.101C183.059 290.344 185.398 288.923 186.483 286.538C187.583 284.161 187.227 281.528 186.531 279.338C185.042 274.881 182.312 271.192 179.438 267.746C173.565 260.963 166.783 255.015 158.906 250.558L158.008 252.344C181.846 263.799 215.381 269.063 235.319 247.141L235.259 247.212C242.702 239.013 250.207 224.305 240.082 214.673C237.112 211.823 232.583 209.002 227.959 210.754C223.564 212.531 221.191 216.634 219.764 220.633L219.651 220.975L219.779 221.308C223.016 229.039 218.991 238.085 212.495 242.976L212.378 243.076C198.507 256.316 176.251 252.63 159.537 245.684L158.728 247.512C169.239 250.994 179.958 248.857 190.061 246.282C195.118 244.826 200.093 242.966 204.571 239.972C206.771 238.461 208.927 236.614 210.271 234.07C211.681 231.555 211.58 228.176 210.182 225.685C208.422 222.503 206.377 218.856 202.132 217.687C197.593 216.781 194.308 220.432 192.511 223.603L192.414 223.851C190.484 233.677 181.007 239.811 171.278 240.82L171.642 242.784C175.452 241.954 179.455 239.557 180.925 235.55C182.348 231.633 181.842 227.248 179.282 223.803C177.512 221.249 173.152 220.417 170.618 222.638L170.457 222.804C161.756 236.056 142.387 237.768 130.35 228.186L129.296 229.875C134.391 232.363 139.684 234.719 145.585 235.21C148.461 235.404 151.916 234.935 154.129 232.405C156.302 229.888 156.52 226.493 155.977 223.583L155.907 223.362C153.269 215.719 143.253 211.254 135.877 215.284L135.913 215.267C120.817 222.314 108.202 205.275 103.038 191.986L101.191 192.75C104.855 201.142 112.452 212.875 123.831 209.189C125.35 208.686 126.988 208.071 128.129 206.443C129.344 204.71 128.636 202.425 127.686 201.126C125.617 198.476 123.165 196.393 119.302 196.174C117.167 196.375 114.946 194.282 113.694 192.183L113.622 192.074C110.493 187.95 107.029 184.073 103.253 180.535C88.1956 166.458 67.6632 157.314 46.6724 158.883ZM147.6 240.083C146.987 239.82 146.375 239.557 145.762 239.294C145.569 239.699 145.68 240.234 145.832 240.474C145.985 240.741 146.134 240.873 146.278 240.996C146.558 241.223 146.786 241.338 147.024 241.454C147.487 241.671 147.925 241.812 148.363 241.938C153.858 243.265 159.239 243.287 164.647 243.44C166.969 243.478 169.322 243.326 171.642 242.784L171.278 240.82C164.013 241.775 156.511 241.082 149.354 239.369C148.551 239.173 147.753 238.96 146.962 238.729C146.775 239.369 146.588 240.008 146.4 240.648C147.223 240.889 148.049 241.109 148.878 241.312C156.265 243.076 163.942 243.797 171.548 242.801L171.184 240.837C169.088 241.328 166.885 241.477 164.681 241.441C159.368 241.302 153.869 241.222 148.911 240.014C148.538 239.908 148.174 239.785 147.88 239.646C147.733 239.578 147.605 239.5 147.553 239.456C147.529 239.438 147.534 239.425 147.583 239.506C147.632 239.568 147.704 239.873 147.6 240.083Z" fill="#1D2E4A"/>
<path d="M228.511 151.321C251.175 181.186 281.976 185.633 294.544 184.124C270.473 182.207 268.155 169.273 270.005 163.046C272.779 154.743 268.633 150.135 266.213 148.869C252.935 143.899 254.445 158.563 256.859 166.516C237.152 157.886 239.242 140.59 246.172 124.675C251.717 111.942 245.267 105.076 241.348 103.235C223.918 101.312 229.225 123.882 234.058 135.407C231.984 133.333 226.041 126.559 218.856 116.051C211.671 105.542 223.259 89.5304 229.952 82.838C239.919 75.0821 232.036 71.5378 226.849 70.7351C210.246 71.8558 212.99 99.7998 216.437 113.632C200.955 98.1497 203.09 82.2841 206.092 76.2865C206.939 56.087 198.615 56.3476 194.347 59.0028C179.672 71.4664 197.429 96.0083 208.142 106.721C199.499 102.232 181.594 89.035 179.118 72.1586C176.642 55.2823 165.875 52.9163 160.802 53.8429C143.939 59.7654 168.846 84.9644 182.905 92.5618C140.311 72.6754 114.427 87.5465 106.81 97.4678C100.925 103.814 91.7118 118.924 101.941 128.6C112.171 138.276 118.658 128.932 120.623 123.051C116.482 112.263 123.983 103.333 128.251 100.217C143.205 85.2626 170.454 92.1111 182.209 97.4045C168.725 91.5361 123.754 101.95 132.041 117.853C138.671 130.575 145.409 124.529 147.949 119.915C150.742 108.341 159.92 103.553 169.923 102.19C171.81 101.746 174.043 101.514 176.672 101.56C191.89 101.824 195.001 103.504 194.655 104.312C188.362 102.472 178.816 100.977 169.923 102.19C158.157 104.958 159.844 115.982 162.822 119.556C165.586 122.874 168.815 121.627 170.084 120.588C184.488 101.761 203.759 109.031 211.594 115.019C188.361 103.418 185.078 113.658 186.341 120.228C191.312 131.292 200.859 129.901 205.011 127.822C222.173 120.06 234.976 140.479 239.232 151.658C234.744 141.632 227.835 132.645 217.802 135.766C207.769 138.887 218.138 147.18 221.943 146.831C224.987 146.551 227.59 149.708 228.511 151.321Z" fill="#1D2E4A"/>
<path d="M294.664 185.117C294.584 184.455 294.505 183.793 294.425 183.131C274.365 184.652 254.108 175.761 239.45 162.005C235.76 158.548 232.372 154.756 229.307 150.717L229.379 150.826C227.805 148.335 225.505 145.684 221.852 145.835C219.669 145.79 216.775 143.834 215.302 141.747C214.549 140.659 214.287 139.493 214.877 138.656C215.463 137.767 216.762 137.135 218.099 136.721C227.633 133.454 234.68 143.706 238.32 152.067L240.167 151.302C237.258 143.931 233.099 136.969 227.196 131.492C221.536 125.92 212.117 123.08 204.599 126.911L204.564 126.928C198.073 130.323 189.806 126.807 187.253 119.819L187.323 120.04C186.838 117.517 187.127 114.705 188.71 112.914C190.274 111.094 193.003 110.603 195.622 110.786C200.956 111.215 206.177 113.474 211.147 115.914L212.201 114.225C199.555 103.981 178.367 105.975 169.29 119.98L169.451 119.814C167.681 121.242 165.066 120.882 163.59 118.916C161.624 116.344 161.073 112.296 162.277 109.17C163.463 105.948 166.673 103.938 170.152 103.163L169.788 101.199C159.685 102.162 149.01 109.014 146.977 119.68L147.073 119.432C145.494 122.301 142.593 125.067 139.64 124.361C136.67 123.627 134.536 120.427 132.928 117.391C130.344 113.056 133.749 108.322 137.89 105.682C142.063 102.885 146.901 101.054 151.819 99.6421C161.568 97.0914 172.497 95.1822 181.81 98.3215L182.62 96.4927C165.423 89.4221 142.679 85.2925 127.544 99.5096L127.662 99.4091C120.555 104.731 116.087 114.709 119.689 123.409L119.675 122.734C118.418 126.362 116.088 130.053 112.679 131.371C109.235 132.724 105.443 130.581 102.629 127.874C93.7799 119.763 100.316 106.068 107.543 98.1478L107.603 98.0768C126.209 77.4716 158.987 82.0843 182.482 93.4679L183.381 91.682C175.856 87.4342 169.105 81.5363 163.424 74.9615C160.638 71.6364 158.025 68.0272 156.711 64.056C155.154 60.0454 156.936 55.9474 161.133 54.7864L160.982 54.8266C170.475 53.2447 177.261 63.1526 178.128 72.3038C181.018 88.5191 194.197 99.9729 207.681 107.609L208.849 106.014C202.505 99.5596 196.87 92.1684 193.031 83.9908C189.2 76.1121 187.734 65.4608 194.994 59.765L194.875 59.8519C196.54 58.8113 198.628 58.3644 200.286 59.0871C201.964 59.7851 203.109 61.5668 203.801 63.499C205.166 67.4384 205.25 71.9002 205.093 76.2446L205.198 75.8388C199.295 89.4655 205.864 104.793 215.73 114.339L218.277 116.889L217.407 113.39C215.503 105.496 214.447 97.2586 214.969 89.1871C215.368 81.4512 218.573 71.9324 226.916 71.7329L226.696 71.7234C229.5 72.1766 232.92 73.3392 233.646 75.5286C234.245 77.7207 231.624 80.2625 229.337 82.0488L229.244 82.1309C221.22 90.9762 210.878 103.734 218.03 116.615C222.723 123.415 227.602 130.036 233.351 136.114L234.98 135.02C232.456 128.847 230.528 122.25 230.341 115.663C230.295 112.42 230.777 108.998 232.736 106.704C234.675 104.378 238.022 103.85 241.239 104.229L240.923 104.14C247.977 107.611 248.678 117.339 245.256 124.275C242.01 131.857 239.329 140.183 240.579 148.747C241.674 157.466 248.749 164.28 256.458 167.432L258.445 168.305L257.816 166.225C256.291 160.666 254.671 152.985 258.798 149.559C260.674 148.356 263.423 148.894 265.862 149.805L265.749 149.755C269.923 152.118 270.804 158.059 269.057 162.729L269.047 162.761C267.057 169.335 270.714 176.511 276.26 179.857C281.76 183.381 288.205 184.59 294.465 185.12C294.518 184.456 294.571 183.791 294.624 183.127C288.544 182.622 282.359 181.405 277.354 178.183C272.313 175.115 269.292 168.918 270.964 163.331L270.954 163.363C272.846 158.282 272.161 151.119 266.676 147.983L266.563 147.932C263.917 146.992 260.698 146.081 257.718 147.876C254.422 150.174 254.243 154.123 254.259 157.271C254.36 160.543 254.98 163.719 255.902 166.806L257.26 165.6C249.876 162.538 243.584 156.408 242.555 148.438C241.385 140.56 243.901 132.485 247.089 125.074C250.709 117.83 250.275 106.523 241.774 102.33L241.458 102.241C237.985 101.824 233.781 102.352 231.22 105.4C228.719 108.385 228.313 112.232 228.342 115.695C228.551 122.728 230.537 129.416 233.136 135.793L234.765 134.7C229.231 128.85 224.313 122.206 219.681 115.486C213.388 104.814 222.765 91.9998 230.659 83.5451L230.566 83.6272C232.878 81.6153 236.334 79.3422 235.566 74.9686C233.936 71.0227 230.102 70.3921 227.002 69.7469L226.782 69.7374C216.831 70.0663 213.331 81.2185 212.974 89.0434C212.437 97.4357 213.518 105.777 215.467 113.874L217.144 112.925C207.587 103.74 201.621 89.0327 206.986 76.7341L207.091 76.3284C207.242 71.8508 207.21 67.2713 205.681 62.8188C204.895 60.6517 203.545 58.3074 201.067 57.2456C198.585 56.1935 195.858 56.8852 193.819 58.1537L193.7 58.2406C185.428 64.7626 187.257 76.8026 191.214 84.8267C195.21 93.3214 200.928 100.801 207.435 107.428L208.603 105.834C195.548 98.4957 182.705 87.0761 180.107 72.0135C179.266 62.5724 171.854 51.0148 160.622 52.8592L160.471 52.8994C158.277 53.6565 155.938 55.0775 154.853 57.4617C153.753 59.8388 154.109 62.4717 154.805 64.6618C156.294 69.1188 159.024 72.8077 161.898 76.2541C167.771 83.0368 174.553 88.9847 182.43 93.4416L183.328 91.6557C159.49 80.2014 125.955 74.9371 106.017 96.8588L106.076 96.7878C98.6344 104.987 91.1294 119.695 101.254 129.327C104.224 132.177 108.753 134.998 113.376 133.246C117.772 131.469 120.144 127.366 121.572 123.367L121.685 123.025L121.557 122.692C118.32 114.961 122.345 105.915 128.841 101.024L128.958 100.924C142.828 87.6841 165.084 91.3703 181.799 98.3164L182.608 96.4876C172.096 93.0064 161.378 95.1431 151.274 97.7178C146.218 99.1741 141.243 101.034 136.765 104.028C134.565 105.539 132.409 107.386 131.065 109.93C129.655 112.445 129.756 115.824 131.154 118.315C132.914 121.497 134.959 125.144 139.204 126.313C143.743 127.219 147.028 123.568 148.825 120.397L148.921 120.149C150.852 110.323 160.329 104.189 170.058 103.18L169.694 101.216C165.884 102.046 161.881 104.443 160.411 108.45C158.988 112.367 159.494 116.752 162.054 120.197C163.824 122.751 168.183 123.583 170.718 121.362L170.879 121.196C179.58 107.944 198.949 106.232 210.986 115.814L212.04 114.125C206.945 111.637 201.652 109.281 195.751 108.79C192.875 108.596 189.42 109.065 187.207 111.595C185.034 114.112 184.816 117.507 185.359 120.417L185.429 120.638C188.067 128.281 198.083 132.746 205.459 128.716L205.423 128.733C220.519 121.686 233.134 138.725 238.298 152.014L240.145 151.25C236.48 142.858 228.884 131.125 217.505 134.811C215.986 135.314 214.348 135.929 213.207 137.557C211.992 139.29 212.7 141.575 213.65 142.874C215.719 145.524 218.17 147.607 222.034 147.826C224.169 147.625 226.39 149.718 227.642 151.817L227.714 151.926C230.843 156.05 234.307 159.927 238.083 163.465C253.14 177.542 273.673 186.686 294.664 185.117ZM193.736 103.917C194.349 104.18 194.961 104.443 195.574 104.706C195.767 104.301 195.656 103.766 195.504 103.526C195.351 103.259 195.202 103.127 195.058 103.004C194.778 102.777 194.55 102.662 194.311 102.546C193.849 102.329 193.411 102.188 192.973 102.062C187.478 100.735 182.097 100.713 176.689 100.56C174.367 100.522 172.014 100.674 169.694 101.216L170.058 103.18C177.323 102.225 184.825 102.918 191.982 104.631C192.785 104.827 193.583 105.04 194.374 105.271C194.561 104.631 194.748 103.992 194.935 103.352C194.113 103.111 193.287 102.891 192.458 102.688C185.071 100.924 177.394 100.203 169.788 101.199L170.152 103.163C172.248 102.672 174.451 102.523 176.655 102.559C181.968 102.698 187.467 102.778 192.425 103.986C192.798 104.092 193.162 104.215 193.456 104.354C193.603 104.422 193.731 104.5 193.782 104.544C193.807 104.562 193.802 104.575 193.753 104.494C193.704 104.432 193.632 104.127 193.736 103.917Z" fill="#1D2E4A"/>
<defs>
<linearGradient id="paint0_linear_3808_175" x1="171" y1="0" x2="171" y2="342" gradientUnits="userSpaceOnUse">
<stop stop-color="#996161"/>
<stop offset="1" stop-color="#804848"/>
</linearGradient>
</defs>
</svg>
