<svg width="424" height="262" viewBox="0 0 424 262" fill="none" xmlns="http://www.w3.org/2000/svg">
<rect x="3" y="3.00003" width="418" height="256" fill="url(#paint0_linear_3808_165)" stroke="#1C304F" stroke-width="6"/>
<rect x="26" y="30" width="370" height="204" fill="#D9D9D9"/>
<path fill-rule="evenodd" clip-rule="evenodd" d="M275.588 142.769C303.448 148.704 295.639 155.647 288.252 158.376C279.272 161.6 272.806 157.417 270.695 154.922C256.65 140.877 268.105 140.968 275.588 142.769Z" fill="#D9D9D9"/>
<path d="M288.252 158.376C295.639 155.647 303.448 148.704 275.588 142.769C268.105 140.968 256.65 140.877 270.695 154.922C272.806 157.417 279.272 161.6 288.252 158.376Z" fill="#1C304F"/>
<path d="M139.166 122.688C132.834 124.606 116.429 124.875 101.462 110.599C82.7546 92.7552 45.0514 59.9448 64.3347 96.7846C67.8845 103.884 76.4805 119.925 82.467 127.293C88.4535 134.66 84.9613 139.956 82.467 141.683C77.2863 148.015 66.4068 161.6 64.3347 165.284C64.1663 165.583 63.9103 166.009 63.5961 166.532C59.0781 174.049 42.5297 201.581 101.462 160.679C108.573 155.813 125.629 147.517 138.216 152.235C125.172 146.808 108.375 133.925 139.166 122.688Z" fill="#1C304F"/>
<path fill-rule="evenodd" clip-rule="evenodd" d="M372.292 139.668C375.458 135.639 313.001 85.6468 258.607 90.7404C243.641 90.7404 202.482 99.7626 195.084 102.966C194.972 103.016 194.859 103.066 194.745 103.116C181.837 108.817 163.743 114.699 141.384 121.966L139.166 122.688C108.375 133.925 125.172 146.808 138.216 152.235C138.535 152.355 138.852 152.483 139.166 152.62C141.144 153.868 143.524 155.456 146.073 157.27C160.173 165.946 160.461 165.946 199.318 179.098C205.362 181.593 219.75 188.539 227.808 188.308C237.303 189.259 251.409 189.259 265.227 188.308C284.126 188.788 331.999 181.631 372.292 149.166C373.443 147.972 374.019 145.02 367.112 142.769C369.396 141.92 371.337 140.884 372.292 139.668ZM275.588 142.769C303.448 148.704 295.639 155.647 288.252 158.376C279.272 161.6 272.806 157.417 270.695 154.922C256.65 140.877 268.105 140.968 275.588 142.769Z" fill="#D9D9D9"/>
<path d="M227.808 188.308C228.576 190.707 229.02 194.525 225.797 198.67C221.767 203.85 214.572 215.65 243.641 201.548C249.397 198.574 261.773 191.762 265.227 188.308C251.409 189.259 237.303 189.259 227.808 188.308Z" fill="#1C304F"/>
<path d="M169.673 182.552C169.961 191.762 176.293 203.965 199.318 179.098C160.461 165.946 160.173 165.946 146.073 157.27C156.257 164.518 169.121 175.37 169.673 182.552Z" fill="#1C304F"/>
<path d="M258.607 90.7404C258.029 84.2077 243.526 68.8093 223.494 61.6716C222.554 61.3366 221.651 61.0142 220.786 60.7049L220.781 60.7033C210.234 56.935 205.177 55.1283 204.204 56.4139C203.307 57.5982 205.874 61.4063 210.807 68.7221C211.781 70.1663 212.847 71.7473 213.996 73.4718C222.235 85.8304 214.812 94.1967 195.084 102.966C202.482 99.7626 243.641 90.7404 258.607 90.7404Z" fill="#1C304F"/>
<path d="M355.887 145.425C358.635 145.066 363.341 144.172 367.112 142.769M258.607 90.7404C313.001 85.6468 375.458 135.639 372.292 139.668C371.337 140.884 369.396 141.92 367.112 142.769M258.607 90.7404C258.029 84.2077 243.526 68.8093 223.494 61.6716C222.554 61.3366 221.651 61.0142 220.786 60.7049M258.607 90.7404C243.641 90.7404 202.482 99.7626 195.084 102.966M139.166 122.688C132.834 124.606 116.429 124.875 101.462 110.599C82.7546 92.7552 45.0514 59.9448 64.3347 96.7846C67.8845 103.884 76.4805 119.925 82.467 127.293C88.4535 134.66 84.9613 139.956 82.467 141.683C77.2863 148.015 66.4068 161.6 64.3347 165.284C64.1663 165.583 63.9103 166.009 63.5961 166.532C59.0781 174.049 42.5297 201.581 101.462 160.679C108.573 155.813 125.629 147.517 138.216 152.235M139.166 122.688C139.91 122.446 140.649 122.205 141.384 121.966M139.166 122.688C108.375 133.925 125.172 146.808 138.216 152.235M139.166 122.688L141.384 121.966M139.166 152.62C141.144 153.868 143.524 155.456 146.073 157.27M139.166 152.62C138.852 152.496 138.535 152.368 138.216 152.235M139.166 152.62C138.852 152.483 138.535 152.355 138.216 152.235M199.318 179.098C176.293 203.965 169.961 191.762 169.673 182.552C169.121 175.37 156.257 164.518 146.073 157.27M199.318 179.098C205.362 181.593 219.75 188.539 227.808 188.308M199.318 179.098C160.461 165.946 160.173 165.946 146.073 157.27M227.808 188.308C228.576 190.707 229.02 194.525 225.797 198.67C221.767 203.85 214.572 215.65 243.641 201.548C249.397 198.574 261.773 191.762 265.227 188.308M227.808 188.308C237.303 189.259 251.409 189.259 265.227 188.308M265.227 188.308C284.126 188.788 331.999 181.631 372.292 149.166C373.443 147.972 374.019 145.02 367.112 142.769M194.745 103.116C194.859 103.065 194.972 103.015 195.084 102.966M194.745 103.116C181.837 108.817 163.743 114.699 141.384 121.966M194.745 103.116C194.859 103.066 194.972 103.016 195.084 102.966M322.501 161.542C314.826 156.17 301.376 139.668 308.974 116.644M314.155 164.708C309.646 162.214 300.455 154.232 299.764 142.259M195.084 102.966C214.812 94.1967 222.235 85.8304 213.996 73.4718C212.847 71.7473 211.781 70.1663 210.807 68.7221C205.874 61.4063 203.307 57.5982 204.204 56.4139C205.177 55.1283 210.234 56.935 220.781 60.7033M220.781 60.7033L220.786 60.7049M220.781 60.7033C220.783 60.7038 220.784 60.7044 220.786 60.7049M288.252 158.376C295.639 155.647 303.448 148.704 275.588 142.769C268.105 140.968 256.65 140.877 270.695 154.922C272.806 157.417 279.272 161.6 288.252 158.376Z" stroke="#1C304F" stroke-width="2.85728"/>
<path d="M331.391 123.942C323.246 123.61 320.725 130.43 320.482 133.881C320.264 136.985 322.664 144.484 331.391 144.65C340.118 144.815 341.937 137.54 341.755 133.881C341.694 130.706 339.537 124.273 331.391 123.942Z" stroke="#1C304F" stroke-width="2.85728"/>
<path d="M325.655 134.058C325.78 132.141 327.074 128.352 331.257 128.536C335.44 128.72 336.548 132.294 336.579 134.058C336.672 136.091 335.739 140.132 331.257 140.04C326.776 139.948 325.543 135.782 325.655 134.058Z" fill="#1C304F" stroke="#1C304F" stroke-width="1.67355"/>
<defs>
<linearGradient id="paint0_linear_3808_165" x1="212" y1="3.05176e-05" x2="212" y2="262" gradientUnits="userSpaceOnUse">
<stop stop-color="#3E5576"/>
<stop offset="1" stop-color="#587694"/>
</linearGradient>
</defs>
</svg>
