<svg width="420" height="742" viewBox="0 0 420 742" fill="none" xmlns="http://www.w3.org/2000/svg">
<path d="M228.031 477.21C215.004 482.949 202.032 489.372 186.827 492.161C184.874 492.41 182.88 492.602 180.553 492.176C179.428 491.951 178.102 491.528 176.934 490.527C175.731 489.531 175.016 487.902 174.877 486.584C174.651 481.253 176.975 478.148 178.81 474.749C182.781 468.207 187.542 462.373 192.381 456.65L195.822 460.228C168.421 482.291 143.507 508.182 122.727 534.841C118.088 540.881 118.305 540.4 117.012 542.1C113.516 546.782 111.677 549.789 109.285 553.307C98.8625 568.75 90.2294 584.166 83.8658 601.042L80.073 598.84C81.333 597.343 82.6923 595.753 83.9842 594.261C97.9619 578.403 91.7989 586.288 96.7945 580.918C106.711 570.576 97.9228 579.045 101.65 574.823C112.98 562.903 124.726 551.128 137.835 540.889C134.668 543.433 131.618 546.091 128.601 548.839C133.988 544.041 142.172 537.756 132.918 545.499C134.975 543.83 136.972 542.282 139.165 540.666C139.506 540.117 145.935 535.291 149.526 533.372C150.485 532.827 151.162 532.438 151.366 532.292C151.796 531.988 150.742 532.514 149.435 533.204C147.873 534.021 146.038 535.187 146.057 535.169C146.129 535.083 147.379 534.236 149.397 533.133C156.382 529.14 173.278 521.13 176.496 523.252C178.39 523.69 179.261 524.854 179.544 525.34C179.832 525.849 179.805 525.959 179.795 526.017C179.777 526.08 179.76 526.101 179.887 526.501C179.985 526.858 180.246 527.625 180.252 529.018C179.94 533.519 179.455 534.109 179.279 535.154C178.945 536.251 178.557 537.605 175.795 542.514C174.103 546.595 173.773 546.934 171.07 551.787C170.7 552.441 171.122 552.009 170.963 552.3C166.856 559.688 169.859 553.887 169.815 553.932C169.618 554.102 169.032 555.032 168.24 556.332C166.658 558.931 164.374 562.865 163.7 563.964C151.3 584.304 141.85 599.157 132.825 622.627C130.728 627.652 126.211 643.578 125.309 648.754C124.254 653.808 124.604 651.062 124.021 653.714C123.765 658.076 123.05 662.148 122.024 671.852C122.15 675.522 121.825 675.004 121.758 681.974C121.692 687.787 122.561 697.815 122.937 704.2C122.283 696.887 122.139 697.68 121.708 689.453C120.995 686.689 122.977 658.215 122.829 660.291C122.431 661.359 121.645 670.85 121.649 671.194C121.315 673.317 121.394 667.987 122.043 663.34C121.944 664.51 121.835 665.903 121.754 667.167C123.167 656.707 121.358 663.786 123.321 655.956C123.58 654.994 123.616 655.386 123.998 653.805C124.012 653.468 123.565 655.407 123.839 653.718C124.116 651.976 124.974 648.749 124.91 648.238C124.789 647.439 123.497 654.627 123.435 655.156C123.435 655.162 123.436 655.168 123.436 655.174C122.508 659.933 124.17 649.946 124.31 649.482C124.795 646.401 124.209 648.432 125.132 643.825C125.646 641.175 127.499 634.587 128.256 632.175C128.982 629.766 127.703 633.468 128.182 631.843C128.66 630.217 129.396 628.253 130.018 626.363C130.284 625.556 130.145 625.554 130.276 625.165C131.72 621 130.987 623.801 132.377 620.064C133.256 617.625 136.41 609.518 134.014 615.022C135.094 612.339 136.199 609.761 137.373 607.146C136.586 608.768 135.798 610.478 135.061 612.074C137.265 607.147 138.121 604.848 139.57 601.797C141.038 598.739 142.65 596.164 144.265 592.815C147.706 585.651 138.691 603.129 137.766 605.402C137.341 606.258 138.705 602.85 138.949 602.346C140.012 600.073 141.474 597.503 142.353 595.783C145.499 589.643 147.371 585.854 150.584 580.13C155.101 572.104 160.305 563.43 165.406 554.667C169.034 548.385 172.54 542.055 174.971 535.75C176.125 532.785 177.07 528.954 176.362 527.638C176.493 526.831 172.784 526.999 170.204 527.968C163.169 530.42 158.896 532.676 155.786 534.228C153.948 535.192 152.52 535.977 151.301 536.659C147.979 538.59 146.448 539.721 142.234 542.838C133.793 549.116 122.75 559.338 116.447 565.612C112.063 569.945 108.357 574.114 107.25 575.285C99.5674 583.418 91.221 592.683 83.5956 601.787L79.5598 599.445C83.7217 588.187 88.9401 577.877 93.5056 569.785C97.8543 562.128 100.344 558.765 101.296 557.224C105.507 550.661 104.214 552.313 107.792 547.102C109.747 544.304 110.272 543.894 110.54 543.524C112.925 540.287 113.214 539.514 115.079 536.987C125.839 522.506 137.3 509.422 149.602 496.534C150.493 495.604 150.479 495.767 151.064 495.151C153.559 492.531 152.27 493.624 154.884 490.938C160.351 485.347 166.143 479.755 172.26 474.154C172.872 473.594 173.193 473.474 174.61 472.187C176.031 470.9 176.951 469.9 179.21 467.915C183.647 464.028 188.187 460.301 192.963 456.595L195.9 459.649C194.621 461.128 193.461 462.502 192.263 463.97C191.371 465.066 190.529 466.366 189.287 467.974C185.502 472.853 179.811 480.708 179.42 485.088C179.356 486.834 179.607 487.173 181.277 487.648C182.869 488.002 185.039 487.819 186.98 487.504C191.059 486.821 195.045 485.576 199.001 484.22C206.918 481.46 214.524 478.186 222.216 474.75C225.799 473.145 229.033 471.807 230.922 470.929C230.923 470.929 230.925 470.928 230.927 470.927C235.06 468.948 231.895 470.364 236.024 468.25C260.886 454.966 282.037 433.762 295.378 408.84L295.948 407.682L297.225 407.653C306.69 407.427 316.034 404.649 324.611 400.349C338.077 393.778 351.951 381.337 361.657 370.463C365.703 365.938 366.531 365.186 369.25 361.842C374.009 355.813 374.653 354.543 379.265 347.886C382.908 342.555 387.066 336.395 390.344 330.522C392.507 326.637 393.729 324.058 395.243 320.779L399.541 321.883C399.484 323.807 399.27 326.096 398.786 328.775C397.64 335.403 394.603 343.994 391.894 350.542C369.95 400.249 338.027 443.223 304.659 485.298L300.584 482.742C304.713 473.512 309.65 463.232 308.62 454.31C308.143 449.846 302.409 450.171 297.14 452.053C291.853 453.888 286.608 456.772 281.534 459.875C271.348 466.174 261.751 473.542 252.751 481C251.071 482.414 253.449 480.027 248.169 484.689C245.354 487.216 241.516 490.862 235.287 496.984C229.945 502.264 224.706 507.786 219.918 513.609C217.411 516.693 215.153 520.103 214.791 523.486C214.368 526.754 216.779 529.361 220.314 530.99C227.376 534.145 235.998 534.728 244.289 535.009C260.989 535.349 277.963 533.599 294.476 530.947L294.704 534.614C283.041 535.108 270.799 539.199 259.336 542.916C237.145 550.444 215.45 560.048 194.222 570.257C142.625 594.768 123.742 655.245 123.385 702.363C123.439 705.671 122.757 703.959 122.507 701.917C122.551 700.027 122.663 698.253 122.803 696.33C122.145 693.85 122.131 694.237 122.802 685.087C123.321 679.44 122.622 683.901 122.816 680.906C122.825 676.974 125.818 658.722 125.688 662.335C125.839 661.204 125.987 660.151 126.156 659.038C129.055 646.005 133.219 633.619 138.984 621.856C139.992 619.825 139.906 619.663 140.998 617.597C143.977 612.059 146.729 607.869 150.544 602.638C152.66 599.811 152.792 599.312 155.78 595.78C158.836 592.32 158.88 592.517 163.179 587.893C159.91 590.439 173.533 578.108 179.255 574.874C180.011 574.308 186.531 569.996 190.245 568.25C190.987 567.883 191.813 567.489 192.715 567.077C196.313 565.432 200.851 563.415 205.448 561.244C208.148 559.97 209.695 559.05 212.634 557.736C214.642 556.839 217.282 555.884 219.868 554.783C222.524 553.643 228.161 551.13 229.191 550.712C233.012 549.14 228.851 550.976 231.455 549.922C243.954 544.87 258.748 539.499 271.573 535.797C273.123 535.351 270.934 535.809 271.135 535.749C281.86 532.643 276.169 534.417 279.118 533.797C280.785 533.539 288.166 531.485 294.834 531.443L294.998 534.077C290.352 534.895 286.453 535.502 286.407 535.624C285.71 535.397 281.052 536.262 279.82 536.411C275.069 537.001 275.976 536.617 271.36 537.161C269.669 537.352 272.985 537.232 271.164 537.399C266.648 537.8 262.564 537.822 256.541 538.051C255.089 538.1 254.603 538.263 252.029 538.318C249.431 538.461 238.523 537.99 243.558 538.42C236.943 537.907 235.61 538.101 227.928 536.812C226.003 536.405 223.515 535.788 219.542 534.196C218.215 533.597 218.125 533.876 216.195 532.649C214.062 531.223 212.095 529.013 211.561 526.112C211.009 523.241 211.91 520.218 213.348 517.456C213.908 516.38 214.483 515.439 215.212 514.371C215.84 513.454 216.553 512.502 217.357 511.513C223.211 504.331 229.981 497.233 236.865 490.748C239.217 488.552 238.793 489.224 242.242 486.074C242.747 485.603 246.837 481.689 249.325 479.598C250.796 478.295 258.682 471.989 260.344 470.76C263.013 468.703 263.371 468.183 264.884 467.095C269.249 464.022 265.948 466.78 270.959 462.696C272.783 461.689 275.964 459.532 277.094 459.152C278.815 457.673 281.349 456.401 284.989 454.242C288.684 452.048 291.686 450.059 292.856 450.281C294.636 449.197 302.93 446.724 304.708 447.308C306.973 447.501 307.555 447.987 307.88 448.139C308.207 448.382 308.562 448.384 309.909 449.662C310.123 449.891 310.145 449.859 310.431 450.175C310.677 450.473 311.381 451.269 311.874 453.115C313.972 456.142 308.884 472.958 308.252 473.656C303.568 484.816 310.694 467.559 310.772 465.075C310.926 464.62 311.07 464.179 311.213 463.713C312.254 458.748 311.476 461.517 310.908 463.765C310.758 464.343 310.573 465.067 310.349 465.887C310.159 466.587 309.945 467.34 309.709 468.12C309.248 469.648 308.644 471.381 308.316 472.141C307.963 472.942 307.805 472.526 308.853 469.578C307.681 472.689 309.044 468.362 308.53 469.572C308.154 470.87 303.701 481.607 302.729 483.745L302.823 483.804C302.927 483.656 302.98 483.569 302.972 483.555C302.912 483.628 302.851 483.703 302.79 483.777L302.767 483.763C303.965 481.216 305.142 478.534 306.128 476.139C306.711 474.996 306.717 475.554 306.254 477.204C305.87 478.656 305.036 481.112 303.698 484.198L301.994 483.128C303.55 481.089 305.443 478.725 307.339 476.546C311.944 471.204 304.977 480.553 315.028 467.201C313.409 469.281 312.13 470.876 310.644 472.752C310.316 472.783 312.824 470.004 313.962 468.404C314.503 467.645 310.838 472.096 313.861 468.103C316.759 464.908 318.494 462.089 322.82 456.307C321.699 457.908 320.493 459.612 319.351 461.221C326.882 451.659 309.935 474.25 324.274 455.452C322.6 457.717 320.854 460.033 319.162 462.29C320.091 461.273 319.059 463.246 319.863 462.315C321.99 459.855 324.791 455.915 327.179 452.709C328.212 451.323 327.656 452.245 327.743 452.128C329.161 450.221 328.732 450.557 329.969 448.852C331.513 446.736 336.081 440.637 336.775 439.621C338.598 436.99 335.272 441.162 335.434 440.893C336.504 439.163 339.007 435.827 338.726 435.906C333.132 444.194 315.817 467.22 331.032 446.066C326.554 451.686 327.483 449.789 333.494 441.401C338.425 434.456 335.378 439.005 338.083 435.502C338.444 435.062 345.048 425.717 345.26 425.149C345.243 425.694 347.553 422.769 346.396 425C346.233 425.323 343.548 429.193 344.68 427.977C345.247 427.37 346.797 425.578 346.71 425.979C347.165 425.123 347.634 424.22 348.092 423.345C352.016 417.492 352.649 416.718 354.939 413.612C354.772 413.713 352.525 416.493 355.579 412.035C355.735 411.806 355.976 411.677 357.52 409.409C360.637 404.808 361.28 403.847 359.3 407.639C365.297 397.815 366.958 395.95 372.832 385.693C371.228 387.479 369.303 391.144 363.679 400.371C363.335 400.708 363.123 400.835 362.769 401.184C370.544 389.09 366.789 395.133 370.771 388.017C371.756 386.298 377.041 377.069 375.012 380.005C374.551 380.698 371.272 386.418 371.538 385.706C371.617 385.558 375.519 378.592 375.882 377.962C380.384 370.346 373.394 384.554 384.417 362.735C384.711 362.123 384.693 361.846 385.243 360.652C386.263 358.418 386.422 358.456 387.315 356.411C388.189 354.397 389.245 351.46 390.65 348.498C393.263 342.958 388.144 356.413 385.04 362.033C384.538 364.419 399.037 333.934 398.479 321.829L396.2 321.244C395.417 322.861 394.792 324.086 394.636 324.404C390.932 331.644 393.954 326.139 396.332 321.308L398.331 321.822C398.187 324.578 397.71 327.218 397.613 327.538C397.456 327.94 396.926 327.718 396.189 332.842C395.976 334.381 397.602 328.123 396.821 331.892C395.953 335.736 396.109 334.148 396.031 334.428C395.776 335.286 394.625 339.355 394.432 339.787C391.272 347.375 391.092 346.509 395.327 336.471C396.434 331.871 392.987 342.214 394.545 336.499C396.41 329.629 397.25 324.573 397.344 323.624C397.423 322.898 397.472 322.291 397.505 321.779L397.077 321.669C393.739 328.089 398.69 319.508 392.833 330.2C389.219 336.482 397.896 320.565 389.758 335.017C382.565 346.915 386.579 340.555 386.385 341.635C386.336 341.872 382.33 348.399 387.852 339.578C387.924 339.276 388.106 338.735 388.369 338.13C389.756 336.007 392.314 332.547 392.971 331.387C396.226 325.639 395.819 325.761 397.828 322.408C397.003 323.681 397.284 323.067 397.8 322.021L396.702 321.738C396.654 322.669 396.509 323.984 396.443 324.761C395.632 330.887 397.686 323.081 393.902 336.554C394.57 334.837 395.14 333.293 395.701 331.57C395.316 333.24 394.885 334.867 394.412 336.491C393.426 338.866 390.447 347.35 392.801 339.526C389.579 348.711 387.81 352.354 387.246 354.396C387.128 354.786 386.552 356.129 385.817 357.727C386.023 357.456 386.407 357.166 386.317 357.429C385.522 359.758 383.485 362.967 383.902 361.737C383.364 362.829 382.921 363.702 382.774 363.991C381.807 365.881 383.526 362.086 382.716 363.608C382.48 364.086 379.734 369.534 379.629 369.578C378.892 370.046 383.963 361.435 374.225 378.867C374.321 379.456 378.685 371.299 377.871 373.557C377.019 375.997 373.994 380.327 373.86 381.532C373.582 381.86 373.432 381.989 373.172 382.261C369.313 389.399 368.883 389.229 367.537 391.326C364.99 395.378 353.224 414.025 364.046 397.45C362.563 399.919 360.993 402.451 359.477 404.888C358.494 405.039 359.764 403.777 352.053 415.305C350.341 417.839 349.527 418.481 348.163 421.18C348.09 420.643 343.184 428.227 342.654 428.89C339.357 433.181 350.378 416.404 352.289 414.584C353.941 411.614 354.219 411.811 356.239 408.615C359.147 403.98 359.505 403.312 363.143 397.94C366.287 392.374 349.614 418.951 359.447 402.672C364.129 393.282 390.105 358.469 395.194 321.662L399.158 322.68C386.673 348.375 369.386 369.071 361.67 377.087C340.74 398.906 320.766 411.187 297.343 412.223L299.487 410.845C293.678 422.279 285.889 432.821 275.35 443.945C273.031 447.644 247.985 467.442 252.874 462.888C253.681 462.377 264.409 453.905 254.908 460.765C256.948 459.51 251.444 463.668 250.954 463.975C241.077 470.784 245.626 468.502 232.818 474.993C231.42 475.648 229.86 476.373 228.031 477.21ZM180.041 480.143C178.643 483.008 178.087 485.627 178.679 486.915C179.209 488.175 180.552 488.472 181.372 488.625C183.168 488.856 183.399 488.69 182.988 488.644C182.602 488.579 181.587 488.402 181.144 488.172C180.667 487.927 180.605 487.819 181.648 487.867C181.002 487.765 180.392 487.564 180.018 487.307C179.656 487.054 179.478 486.813 179.351 486.373C179.096 485.47 179.371 483.981 179.914 482.497C179.591 483.289 179.36 483.948 179.205 484.725C179.205 484.728 179.204 484.732 179.204 484.735C179.176 483.34 179.539 481.737 180.041 480.143ZM131.92 619.201C132.228 618.182 132.539 617.179 132.896 616.088C134.265 612.777 135.715 609.508 137.235 606.275C137.106 606.685 136.985 607.082 136.858 607.493C135.099 611.353 133.455 615.225 131.92 619.201ZM383.451 365.462C380.965 369.867 381.56 369.631 378.208 375.478C378.854 374.908 379.554 374.22 380.221 373.593C382.566 369.072 383.022 367.965 385.536 363.017C385.167 363.558 384.776 364.137 384.418 364.645C384.031 365.472 383.613 366.357 383.223 367.164C382.364 368.309 386.252 360.4 383.458 365.446C383.456 365.452 383.453 365.457 383.451 365.462ZM357.542 410.155C356.054 412.421 349.989 421.278 349.252 422.553C346.869 426.933 363.407 401.538 351.362 420.354C351.468 420.302 351.458 420.419 351.506 420.451C353.793 417.081 356.05 413.693 358.295 410.259C357.982 410.318 357.871 410.072 357.542 410.155ZM257.254 455.505C260.75 453.231 274.713 439.353 269.925 443.641C268.586 444.953 262.416 451.198 259.786 453.266C258.111 454.623 259.861 452.962 256.587 455.669C256.791 455.624 256.945 455.632 257.263 455.497C257.26 455.5 257.257 455.502 257.254 455.505ZM251.757 461.122C255.248 458.609 258.661 455.892 261.93 453.059C259.402 454.954 254.571 458.854 254.067 458.785C255.002 458.06 255.906 457.34 256.827 456.589C257.586 456.088 258.318 455.597 259.059 455.089C261.797 452.579 260.073 454.017 265.261 449.479C261.771 451.839 261.259 452.384 252.104 459.801C253.72 458.258 251.604 458.879 246.537 462.973C245.585 463.747 249.874 460.999 249.915 460.966C250.692 460.715 248.448 462.431 249.264 462.139C249.633 462.019 252.197 460.224 252.647 460.057C252.867 459.989 250.549 461.866 251.757 461.122ZM243.985 464.85C245.028 464.035 241.052 466.147 237.644 468.05C232.321 470.985 240.98 466.832 243.985 464.85ZM131.911 619.224C131.914 619.216 131.917 619.209 131.92 619.201C131.918 619.205 131.917 619.209 131.916 619.213C131.915 619.216 131.913 619.22 131.911 619.224ZM365.16 398.433C363.594 401.205 361.036 405.207 361.386 405.007C360.523 406.297 359.645 407.601 358.77 408.888C358.826 408.907 358.89 408.913 358.946 408.932C361.51 405.019 364.029 401.091 366.507 397.121C366.069 397.542 365.651 397.93 365.16 398.433ZM336.748 440.682C333.324 445.428 336.391 441.593 335.745 442.709C335.106 443.821 331.935 448.023 332.446 447.62C334.485 444.829 336.593 441.909 338.634 439.046C337.938 439.69 337.401 440.101 336.741 440.692C336.744 440.689 336.746 440.685 336.748 440.682ZM133.533 515.542C136.177 512.576 135.243 513.891 140.308 507.859C140.304 507.863 140.3 507.867 140.296 507.872C135.16 513.335 128.769 520.595 123.732 527.172C127.061 523.351 129.371 520.27 133.533 515.542ZM389.894 353.049C390.432 351.454 387.145 358.597 386.504 360.198C385.518 362.844 389.141 355.506 389.894 353.049ZM123.596 555.688C127.732 551.213 118.826 558.548 110.593 567.34C109.872 568.088 115.449 562.682 113.895 564.381C113.733 564.55 110.729 567.571 110.043 568.377C109.356 569.178 110.238 568.494 109.083 569.777C107.045 572.027 102.192 576.852 100.759 578.629C100.567 578.86 103.62 575.898 103.811 575.713C106.888 572.626 109.625 569.421 110.093 568.94C112.512 566.451 112.3 566.982 112.951 566.391C114.179 565.281 116.176 563.161 116.327 563.025C120.197 559.455 111.624 567.879 110.573 569.123C107.688 572.412 110.597 569.597 103.484 577.289C102.804 578.024 94.689 586.725 105.099 575.92C85.4312 597.846 115.304 565.205 118.938 562.054C120.483 560.475 117.948 562.666 118.843 561.664C120.884 559.361 124.66 555.755 124.122 555.863C122.958 556.085 118.25 561.127 114.837 564.413C115.094 563.966 115.136 563.738 115.697 562.995C114.791 564.1 123.277 555.974 123.597 555.689C123.597 555.689 123.596 555.689 123.596 555.688ZM86.3343 587.485C89.3219 581.54 88.7746 581.804 91.7813 576.491C93.987 571.581 89.0414 580.966 88.5346 582.088C85.9948 587.141 85.7003 586.847 83.5017 592.218C84.4845 590.483 85.3594 589.072 86.3343 587.485ZM112.043 568.229C109.087 571.53 114.628 565.872 114.891 565.682C117.592 563.439 101.02 580.379 112.043 568.229ZM276.488 438.505C277.986 436.855 276.911 437.777 278.174 436.257C279.467 434.756 283.854 429.593 283.636 429.633C283.458 429.753 275.385 439.108 283.17 429.431C282.858 429.72 282.907 429.578 282.734 429.7C280.621 432.377 278.399 435.008 276.116 437.546C277.512 436.279 278.921 434.961 280.223 433.694C279.104 435.264 278.238 435.951 278.174 436.026C278.174 436.026 278.174 436.026 278.174 436.026C275.84 438.736 273.039 442.204 276.488 438.505ZM172.511 475.684C172.335 476.488 175.9 472.491 177.484 471.007C179.069 469.504 181.453 467.652 180.47 468.242C177.659 470.498 172.535 475.577 172.512 475.684C172.511 475.684 172.511 475.684 172.511 475.684ZM103.866 555.952C106.823 551.237 106.219 551.885 110.214 546.367C109.969 546.518 109.721 546.667 109.477 546.819C106.4 551.276 106.876 551.14 103.34 556.311C102.768 557.165 103.718 555.161 101.306 559.124C102.144 558.058 103.014 556.991 103.866 555.952ZM119.488 533.195C115.624 538.296 113.331 542.902 120.096 533.271C121.113 531.851 122.425 529.38 119.488 533.195ZM229.729 473.303C230.472 472.961 231.099 472.67 231.62 472.427C234.96 470.835 233.785 471.361 231.581 472.341C229.596 473.215 226.875 474.395 225.712 474.855C228.198 473.709 230.038 472.844 231.495 472.157C237.331 469.295 235.294 470.312 231.467 472.097C227.536 473.896 221.774 476.394 220.64 476.655C217.888 478.027 212.708 480.581 218.622 478.118C221.092 477.073 220.128 477.34 220.279 477.275C224.806 475.299 224.348 475.764 229.729 473.303ZM81.8644 598.146C82.0061 597.76 81.6222 598.302 82.0671 597.072C82.5089 595.836 83.7465 593.131 83.772 592.83C83.7825 592.503 81.4517 598.01 80.9171 599.741C80.8962 599.805 80.8766 599.867 80.8581 599.926L82.5335 600.899C83.2471 599.946 83.2741 599.636 82.302 600.705L81.1411 600.031C81.3258 599.588 81.5638 598.969 81.8644 598.146ZM101.064 561.149C103.841 556.485 98.6294 563.705 98.0506 564.742C92.8017 573.714 101.003 560.747 101.064 561.149ZM206.981 484.226C219.046 479.002 209.987 482.288 202.205 484.811C201.259 485.223 200.157 485.679 199.199 486.07C203.674 484.008 211.693 481.066 193.714 487.342C203.754 484.312 195.361 487.074 195.359 487.083C194.459 488.292 209.04 482.705 206.97 484.23C206.974 484.229 206.977 484.227 206.981 484.226ZM92.6176 589.025C96.3592 584.742 106.369 573.851 101.43 578.695C98.4492 582.112 95.516 585.551 92.6176 589.025ZM374.179 359.763C377.16 356.161 379.69 352.688 382.9 347.917C379.783 352.033 381.681 349.211 382.594 347.746C383.999 345.496 380.422 350.796 380.374 350.801C380.231 350.543 382.587 347.237 377.189 354.792C378.487 352.867 379.707 350.993 380.945 349.039C376.906 354.845 375.741 356.071 372.873 359.509C375.88 356.343 372.221 360.756 369.098 364.915C367.54 367.007 372.685 361.62 374.19 359.749C374.186 359.754 374.182 359.758 374.179 359.763ZM219.54 479.108C220.739 478.489 221.801 477.892 222.966 477.264C224.279 476.666 225.533 476.089 226.839 475.483C227.031 475.479 227.198 475.489 227.417 475.469C229.131 474.708 228.417 474.919 228.917 474.678C228.917 474.678 228.917 474.679 228.917 474.679C230.022 474.146 231.036 473.656 231.981 473.199C237.086 470.695 239.875 469.211 244.519 466.643C244.398 466.445 244.277 466.246 244.156 466.048C242.977 466.795 241.753 467.541 240.551 468.248C239.964 468.724 239.369 469.198 238.768 469.667C237.31 470.382 235.838 471.069 234.356 471.726C233.586 472.141 232.701 472.601 231.893 473.012C231.497 473.213 231.123 473.403 230.793 473.572C227.889 474.579 229.356 473.834 231.751 472.707C234.423 471.469 238.109 469.572 238.095 469.408C238.094 469.312 235.091 470.91 231.654 472.499C227.923 474.236 223.835 476.117 222.843 476.627C222.573 476.764 225.702 475.903 220.63 477.883C219.85 478.176 219.149 477.38 214.107 480.441C213.387 480.873 216.317 480.356 219.54 479.108ZM265.699 451.321C259.238 456.66 281.857 435.59 272.014 444.608C274.449 441.679 273.974 442.194 271.086 444.723C270.833 444.947 272.635 443.005 272.465 443.158C269.874 445.619 266.794 448.597 266.579 448.418C265.878 449.088 265.228 449.697 264.517 450.353C267.665 447.854 263.067 452.276 261.28 454.013C260.481 454.811 262.481 453.17 261.811 453.847C261.578 454.1 258.721 456.359 258.661 456.508C258.541 456.856 260.522 455.679 263.56 453.261C263.56 453.261 263.56 453.261 263.56 453.261C264.286 452.616 264.981 451.984 265.699 451.321ZM160.831 488.958C159.583 489.689 155.446 493.621 163.097 485.801C162.662 486.125 162.215 486.462 161.778 486.791C160.459 488.099 159.203 489.359 157.89 490.689C154.682 495.428 146.775 502.017 151.842 497.803C152.381 497.357 155.381 494.111 152.529 497.401C152.533 497.397 152.537 497.393 152.541 497.389C156.687 492.989 157.137 492.359 160.831 488.958ZM190.476 461.637C200.71 452.176 175.482 473.68 179.925 470.345C180.254 469.991 191.012 460.629 190.476 461.637ZM114.741 542.967C118.409 537.955 118.361 537.394 117.855 537.801C117.35 538.21 114.913 541.772 114.573 542.211C113.444 543.632 115.662 540.49 114.191 542.331C113.67 542.916 107.337 551.731 107.109 552.182C105.656 554.533 108.19 551.371 107.783 552.05C106.45 554.253 104.401 557.081 104.154 557.811C103.611 559.37 106.8 553.688 107.423 552.78C109.261 550.018 109.285 550.385 110.732 548.369C112.184 546.359 113.061 544.994 114.354 543.228C114.785 542.641 114.555 543.222 114.741 542.967ZM126.559 526.098C122.714 531.342 132.952 519.289 134.179 517.851C137.595 513.5 128.359 523.537 126.559 526.098ZM248.545 463.373C243.696 466.873 255.405 459.336 258.349 456.632C257.748 457.074 250.245 462.248 248.545 463.373ZM203.577 485.516C208.721 483.487 201.722 485.671 197.376 487.055C194.925 488.181 197.346 487.386 200.151 486.43C202.987 485.444 199.613 487.013 203.577 485.516ZM82.1118 599.029C82.0163 599.142 81.7439 599.471 81.3721 599.927L82.2779 600.453C83.595 596.414 88.835 584.085 84.9042 592.813C84.7307 593.204 83.2106 596.831 81.9436 600.329L81.6455 600.156C83.7845 597.57 85.8623 595.13 86.1767 594.728C87.419 593.13 84.0827 596.702 82.1118 599.029ZM177.397 489.092C178.831 490.432 180.589 490.584 181.328 490.636C182.174 490.653 182.159 490.614 180.823 490.203C180.819 490.202 180.816 490.201 180.812 490.2C184.628 490.731 186.505 490.24 187.781 490.269C188.994 490.223 189.489 490.29 190.308 490.102C195.726 488.71 190.488 489.521 193.793 488.468C185.967 490.524 188.136 489.98 182.012 490.034C181.291 489.941 179.485 489.87 178.136 488.614C176.787 487.344 176.885 485.403 176.838 485.042C176.825 484.091 175.862 487.368 177.397 489.092ZM99.9079 578.834C95.4539 583.483 91.8761 588.181 97.9313 581.629C100.902 578.447 102.627 576.015 99.9079 578.834ZM351.045 416.973C351.692 416.228 352.355 415.456 353.039 414.645C351.758 416.64 350.467 418.629 349.171 420.608C350.183 419.035 351.192 417.456 352.203 415.861C349.704 419.54 348.379 421.094 351.038 416.983C351.041 416.98 351.043 416.977 351.045 416.973ZM272.302 462.207C270.622 463.208 267.608 465.851 268.035 465.581C271.234 463.511 274.689 460.777 272.302 462.207ZM256.397 459.175C262.302 454.615 257.926 457.371 254.247 460.037C256.559 458.465 252.995 461.688 256.397 459.175ZM310.772 465.075C310.535 465.786 310.315 466.38 310.065 467.046C310.404 466.022 310.627 465.278 310.734 464.967C310.84 464.653 310.844 464.724 310.772 465.075ZM83.4348 598.936C83.8322 597.886 87.0692 590.248 87.5269 589.21C88.3782 587.037 85.3724 592.807 84.0766 596.405C83.92 596.803 82.9897 599.96 83.441 598.92C83.4389 598.925 83.4369 598.93 83.4348 598.936ZM345.256 425.126C345.268 425.118 345.269 425.127 345.26 425.149C345.26 425.139 345.254 425.138 345.256 425.126ZM286.475 535.642C286.429 535.639 286.403 535.633 286.407 535.624C286.426 535.63 286.462 535.634 286.475 535.642ZM112.019 547.952C114.067 546.011 117.565 540.677 114.381 544.592C114.201 544.81 112.401 547.401 112.019 547.952ZM368.157 170.392C340.29 225.825 291.921 285.831 222.027 292.255L224.049 290.814C217.157 305.291 208.12 319.005 195.279 329.198C183.103 340.293 161.272 340.872 149.634 328.635C140.645 321.508 137.053 308.007 140.902 297.449C144.284 286.806 150.957 278.116 157.963 270.333C167.809 259.97 167.526 261.109 170.441 258.388C178.68 251.254 183.846 247.2 190.342 242.655C193.036 240.794 195.8 238.973 198.534 237.273L200.819 241.379C170.393 256.897 143.566 276.431 120.137 300.941C95.2392 329.825 106.84 316.058 98.9255 326.678C85.663 348.928 97.178 330.137 92.4503 339.122C88.7107 346.482 85.6966 354.227 83.7593 362.243L80.1029 360.614C88.1845 350.04 98.0935 338.53 113.341 337.82C117.658 338.077 122.918 338.475 126.313 343.061C129.387 348.041 127.216 353.144 125.43 357.021C126.99 353.566 128.658 349.517 127.153 344.991C125.398 340.32 120.514 338.856 116.769 338.351C120.108 338.822 124.59 340.147 126.582 343.986C128.436 347.797 127.278 351.192 126.767 352.975C126.159 354.773 125.788 355.448 126.207 354.322C126.402 353.737 126.782 352.722 127.105 351.073C127.369 349.436 127.843 346.819 126.198 343.845C128.877 349.453 126.127 354.339 123.818 358.733C123.999 360.666 108.966 378.763 107.321 380.08C105.963 381.795 114.909 372.134 114.813 372.079C114.658 372.557 104.513 383.843 93.5047 393.613C83.9144 402.316 75.7623 412.569 74.5311 414.039C68.2901 421.854 73.4574 414.716 68.2169 421.608C59.4985 433.728 65.6156 425.763 53.8463 442.159C49.8479 449.063 49.2631 449.682 44.2791 458.392C43.6219 459.56 44.2667 458.729 43.9823 459.246C36.7373 472.78 42.1106 462.277 42.0431 462.366C41.0899 463.364 33.6629 478.1 32.2461 481.311C14.0496 520.726 4.36596 552.206 1.80518 598.139C0.905531 608.097 2.89183 638.377 4.95763 647.829C6.57358 657.168 5.48785 652.197 6.36946 657.113C8.54858 664.762 10.0336 672.222 15.733 689.204C18.3863 695.244 17.7024 694.778 22.8676 706.31C27.2536 716.16 36.4293 731.908 42.8303 741.901C35.5109 730.477 36.12 731.98 28.7823 718.683C25.0337 714.831 7.2463 665.586 9.02877 669.062C9.22253 671.171 14.6118 687.682 14.9483 688.267C16.1161 692.015 12.4458 682.947 10.1743 674.672C10.8053 676.708 11.5974 679.162 12.348 681.352C7.06671 662.859 9.74725 675.752 6.97139 661.348C6.67158 659.558 6.92123 660.247 6.39826 657.284C6.22566 656.686 6.88709 660.318 6.20797 657.213C5.50015 654.042 4.64279 648.006 4.3411 647.143C3.79563 645.831 6.33568 658.969 6.6319 659.917C6.6357 659.927 6.63947 659.937 6.64328 659.947C8.43389 668.615 4.43066 650.523 4.42006 649.622C3.33289 644.001 3.76851 647.923 2.44442 639.364C1.6513 634.522 0.666869 621.983 0.552954 617.404C0.365718 612.793 0.501991 619.967 0.363332 616.871C0.22291 613.761 0.246008 609.903 0.241212 606.287C0.239576 604.739 0.108225 604.817 0.113516 604.069C0.255963 595.974 0.358317 601.278 0.671604 593.978C0.799559 589.261 2.19046 573.386 1.02724 584.292C1.47792 579.048 2.07596 573.924 2.82697 568.734C2.30098 571.991 1.82783 575.412 1.42338 578.606C2.6342 568.772 3.19329 564.381 4.28925 558.252C5.41488 552.18 6.8693 546.768 8.39105 540.164C11.6079 525.979 3.15245 560.967 2.94406 565.523C2.63869 567.244 3.51791 560.593 3.71916 559.574C4.50779 555.049 5.77228 549.801 6.56785 546.341C9.42523 534.071 11.4246 526.502 15.21 515.108C28.0795 476.016 53.2741 431.115 79.5284 401.948C83.6931 397.293 87.5926 393.448 90.7741 390.616C95.0692 386.78 98.118 383.953 100.766 381.334C111.187 370.627 112.562 369.218 119.685 358.696C121.835 355.151 124.133 350.65 123.475 347.058C123.013 343.65 117.976 342.136 113.209 342.036C101.901 342.172 92.4039 352.262 86.9007 358.586C85.684 360.039 84.537 361.532 83.5436 362.984L79.6963 361.269C81.7863 352.38 84.7428 345.331 85.7311 343.061C102.663 304.164 143.019 271.129 171.489 252.795C185.008 244.099 191.991 240.879 194.941 239.289C196.422 238.516 197.759 237.837 198.815 237.31L200.936 241.121C193.378 246.05 194.858 245.184 186.736 251.082C181.826 254.772 180.868 255.404 180.208 255.909C174.573 260.452 173.66 261.605 169.532 265.436C152.708 280.963 132.27 308.042 152.767 325.081C158.125 329.856 164.596 333.253 171.56 333.409C173.721 333.425 173.533 333.494 174.937 333.364C180.894 332.263 178.173 332.874 184.095 330.492C196.271 324.573 205.804 312.934 213.521 300.396C214.281 299.124 214.756 298.635 216.374 295.698C217.583 293.467 218.464 291.614 219.725 288.821L220.27 287.642L221.555 287.516C222.61 287.4 223.779 287.265 225.116 287.098C238.817 285.376 252.161 281.772 265.485 275.577C267.687 274.549 270.319 273.082 273.517 271.34C283.652 266.036 297.41 256.007 304.653 249.319C328.785 227.54 345.867 202.161 360.413 175.202C363.821 168.839 366.777 163.155 368.408 159.767C372.04 152.109 369.217 157.848 372.789 150.04C393.926 102.608 408.148 51.8205 415.18 -6.21974e-05L419.383 0.496928C417.351 19.1508 415.175 37.1247 412.648 55.7108C408.903 83.5159 403.623 117.078 398.243 143.795C396.039 154.737 395.377 156.862 393.711 164.578C390.631 178.475 390.292 181.09 386.705 195.56C383.75 207.315 379.864 220.412 376.176 232.253C372.375 244.283 370.844 249.731 365.756 263.183C361.518 274.3 354.846 289.278 348.244 300.63C341.742 311.198 335.35 322.93 322.569 328.961L320.25 325.01C334.898 311.095 345.083 291.807 348.922 271.824C350.408 264.669 349.748 255.923 343.06 255.182C336.458 254.239 328.922 257.682 322.371 261.348C309.064 269.074 297.451 279.747 287.12 291.391C279.398 300.024 273.623 311.338 276.785 322.141C279.835 332.842 289.763 340.973 300.227 345.518L302.863 346.633L301.354 349.056C286.388 372.955 266.171 392.995 244.193 410.525C229.112 422.419 212.517 433.89 194.316 443.311L191.922 439.422C210.818 425.179 228.684 408.383 242.239 389.772C244.45 386.471 241.533 391.825 248.153 380.936C249.967 377.703 252.081 373.638 253.859 368.137C255.318 363.422 256.978 357.703 257.328 350.735C257.554 345.471 256.641 340.042 253.403 336.347C250.221 332.613 244.953 331.029 239.616 330.746C228.798 330.272 217.642 333.5 206.986 337.238C200.064 339.807 192.824 342.388 187.632 346.711C187.074 347.222 186.555 347.835 186.327 348.301C186.092 348.806 186.108 348.967 186.215 349.242C186.451 349.896 187.98 350.901 189.522 351.487C192.703 352.729 196.375 353.365 199.984 353.751L200.017 357.781C154.362 361.8 104.273 390.107 97.5991 437.437L97.4799 438.696L96.2666 439.029C84.7391 443.358 75.4919 454.001 67.9229 464.267C61.6961 472.921 56.4921 482.3 51.9915 492.061C49.0401 498.425 45.5754 508.443 53.8427 506.15C60.8103 504.77 67.7074 500.874 74.2375 497.149C87.3829 489.405 99.8973 480.41 111.941 471.044L114.739 474.39C35.1637 541.144 -4.27843 657.255 41.5237 738.748C44.6125 743.981 42.3974 741.591 40.3326 738.418C38.7209 735.413 37.3482 732.501 35.9225 729.199C33.49 725.326 33.3547 726.253 28.0037 710.212C25.0812 700.292 27.1066 708.284 25.5361 702.998C22.6835 696.278 18.6127 662.666 19.9593 669.072C19.7305 666.947 19.5542 665.085 19.397 663.04C18.436 638.584 22.1364 614.729 29.5963 591.978C30.896 588.078 30.843 587.775 32.3027 583.795C36.3705 572.998 40.2399 564.846 45.8869 554.366C48.9413 548.843 49.3148 547.768 53.6763 540.734C58.2699 533.594 58.1999 533.966 64.7561 524.38C59.9212 530.16 80.2748 503.613 88.7047 495.319C89.9009 493.946 99.4833 483.641 104.962 478.607C107.025 476.669 109.55 474.365 112.425 471.818L114.063 473.777C109.178 477.511 103.385 481.77 97.5092 485.972C93.0615 489.138 90.438 491.178 85.4867 494.391C82 496.64 77.6709 499.111 73.0518 501.665C68.5471 504.362 58.0025 509.119 55.6926 509.273C51.7833 510.026 51.7903 509.636 52.388 509.67C52.6631 509.646 53.0302 509.6 52.9568 509.593C52.8746 509.571 52.3959 509.675 50.937 509.562C49.1769 509.481 46.7318 508.328 45.9626 506.244C45.1666 504.31 45.3619 502.312 45.6375 500.631C46.2878 497.105 47.5868 493.98 49.0827 490.714C57.2806 473.088 68.4493 455.349 82.598 443.534C84.9611 441.613 81.5891 444.14 81.8997 443.897C89.8789 437.264 92.7465 436.83 93.1685 436.55C93.7105 436.402 92.335 436.93 95.1838 436.029C95.2572 436.01 95.336 435.989 95.4197 435.967L94.4358 437.143C94.6025 434.036 96.8703 422.86 101.682 413.582C106.264 404.172 112.524 396.711 112.512 396.497C113.441 395.727 119.188 389.079 120.919 387.578C127.481 381.599 126.323 382.942 133.184 377.807C135.731 376 130.633 379.314 133.386 377.399C140.284 372.705 147.069 369.173 157.283 365.019C159.768 364.045 160.533 363.56 165.031 362.023C169.466 360.175 188.948 355.968 179.937 357.712C188.91 355.911 192.387 355.4 199.626 354.463L199.647 357.075C197.249 356.826 194.451 356.478 190.98 355.524C189.225 354.982 187.173 354.418 184.856 352.604C183.755 351.763 182.368 349.746 183.122 347.649C183.781 345.734 185.228 344.448 186.77 343.223C188.907 341.67 188.782 341.461 192.228 339.622C196.554 337.421 201.032 335.729 205.845 334.057C209.849 332.68 214.08 331.338 218.981 330.072C229.045 327.709 240.493 325.095 251.156 330.309C262.416 336.336 261.676 350.899 259.273 361.003C258.19 365.449 257.971 365.579 256.793 369.101C256.418 370.177 255.902 371.612 255.106 373.513C254.756 374.753 250.206 384.222 246.706 389.088C244.925 392.27 233.106 406.628 230.395 409.218C226.173 413.741 225.513 414.646 223.097 417.022C215.99 423.775 221.505 418.155 213.131 426.464C210.112 428.908 204.899 433.386 203.005 434.551C200.803 436.666 197.794 438.958 193.753 441.912L192.918 440.555C194.273 439.876 195.787 439.079 197.418 438.161C204.118 434.384 209.183 430.469 211.098 430.045C214.188 428.13 226.809 419.403 228.866 417.801C235.014 413.28 231.818 415.857 236.426 412.357C237.219 411.733 236.327 412.317 241.454 408.303C245.092 405.953 268.349 385.014 269.389 383.389C284.276 368.126 261.491 391.925 257.841 394.809C257.212 395.332 256.588 395.845 255.918 396.396C248.787 402.571 253.023 399.261 256.267 396.467C259.529 393.679 265.247 388.101 267.813 385.638C269.091 384.412 268.588 385.452 264.701 389.16C268.9 385.231 263.338 390.776 265.038 389.264C267.148 387.84 284.688 368.841 284.383 368.404C281.316 372.126 277.336 376.627 273.978 380.161C269.289 384.495 282.289 370.128 292.732 355.881C298.906 347.286 292.16 357.858 298.792 347.465L299.057 348.297C296.624 347.275 293.136 345.677 288.697 342.576C292.189 345.078 295.456 346.907 299 348.431L298.668 347.388C298.459 347.721 298.249 348.055 298.036 348.391C297.907 348.464 298.142 348.044 298.577 347.332L298.959 348.53C297.001 347.762 293.24 345.681 291.062 344.309C289.532 343.479 298.685 349.089 290.646 344.355C284.536 339.472 278.044 336.231 273.432 323.152C274.524 326.811 276.377 330.195 278.668 333.172C267.131 313.703 293.724 358.598 273.427 320.141C274.302 325.382 276.803 330.229 280.179 334.301C278.676 332.225 281.518 335.178 280.155 333.355C276.48 328.725 272.84 320.246 273.916 312.951C274.339 309.84 274.186 311.785 274.215 311.525C275.064 307.314 274.732 308.181 276.014 304.618C277.179 301.128 282.038 293.703 285.559 290.014C286.643 288.799 287.471 287.9 287.834 287.496C291.746 283.187 284.976 290.126 285.349 289.737C287.688 286.802 293.058 281.439 292.675 281.6C290.591 283.728 287.96 286.511 285.178 289.678C277.524 297.635 272.654 310.345 273.241 315.907C273.275 318.6 273.377 319.384 273.141 316.943C273.041 314.608 272.709 308.412 277.609 299.511C274.316 305.255 273.843 307.783 274.156 306.037C274.573 304.424 276.389 298.614 282.505 291.109C283.156 290.307 283.771 289.586 284.34 288.94C292.223 280.275 286.66 286.519 292.083 281.12C292.623 280.154 308.481 266.268 309.513 265.803C308.981 266.533 314.715 262.705 311.154 265.65C310.598 266.025 303.853 271.359 306.353 269.68C307.558 268.839 311.175 266.434 310.704 266.991C312.067 265.841 313.457 264.699 314.903 263.583C325.672 256.596 327.652 256.195 334.271 254.23C333.938 254.291 327.615 255.532 337.132 253.245C337.615 253.286 338.072 252.797 342.943 253.245C347.908 254.017 349.348 257.189 349.647 257.758C349.867 258.591 349.58 256.911 346.642 255.087C349.901 257.105 350.723 260.769 350.943 263.742C351.131 266.788 350.768 269.436 350.263 272.076C348.657 279.648 346.919 286.234 341.494 297.717C343.43 294.347 347.148 288.36 350.44 272.11C350.689 270.736 350.863 269.553 350.994 268.054C351.18 267.212 351.314 266.885 351.454 265.998C351.369 268.333 351.05 270.337 350.692 272.157C346.364 289.354 348.892 280.291 344.362 292.951C343.406 296.52 333.374 313.107 336.975 307.731C338.008 306.558 343.615 295.886 343.016 297.131C343.126 297.486 335.952 310.303 334.984 311.227C330.668 317.111 331.526 315.454 331.59 315.268C331.458 314.906 331.29 316.783 321.44 326.378L321.955 327.256C325.015 326.138 328.191 323.824 331.453 320.585C332.282 319.746 332.561 319.295 334.137 317.496C337.086 313.988 337.156 314.098 339.572 310.739C341.897 307.438 344.748 302.598 347.9 297.339C353.454 287.725 341.698 311.311 332.775 319.6C331.537 321.674 345.042 306.756 353.893 287.577C363.228 268.741 370.238 247.545 371.062 245.125C378.038 223.626 366.224 259.402 365.137 260.977C364.805 261.632 364.284 261.269 361.19 270.104C360.28 272.722 364.796 262.033 362.275 268.487C359.657 275.052 360.507 272.392 360.306 272.857C359.606 274.452 356.635 281.345 356.183 282.196C349.243 295.399 349.508 294.076 358.634 276.428C361.849 268.504 353.562 286.443 357.779 276.532C362.804 264.548 366.208 255.796 366.823 254.21C373.428 235.833 365.771 256.986 373.402 234.351C377.516 221.504 367.737 253.567 376.752 224.427C383.786 199.962 379.792 213.06 379.959 211.225C380.01 210.699 383.612 197.25 378.559 215.64C378.507 216.179 378.355 217.18 378.114 218.341C376.774 222.782 374.038 230.1 373.283 232.41C369.52 243.948 369.874 243.476 367.285 250.039C369.246 245.43 366.386 253.03 365.323 256.057C361.469 266.704 367.248 253.109 357.062 276.671C358.499 273.782 359.895 270.851 361.235 267.952C360.105 270.756 358.829 273.801 357.639 276.528C355.514 280.777 348.345 295.533 354.503 281.943C346.801 298.126 342.597 304.117 340.724 307.515C340.309 308.218 338.924 310.333 336.937 312.934C337.356 312.51 338.006 312.019 337.724 312.442C335.338 316.206 330.118 320.932 331.653 319.104C330.206 320.6 328.756 321.855 328.346 322.191C325.338 324.668 331.024 319.655 328.627 321.657C328.219 322.021 324.597 325.14 321.555 326.145L322.214 327.269C323.727 325.955 324.857 324.789 324.917 324.766C325.56 324.426 322.475 327.436 322.586 327.288C322.528 327.023 327.105 324.676 337.434 309.331C337.862 308.565 327.682 322.327 330.012 318.567C332.755 314.746 338.434 306.981 338.987 304.881C339.444 304.252 339.679 303.973 340.082 303.441C346.827 290.21 346.588 289.873 348.326 285.669C349.249 283.157 350.915 277.801 351.924 272.389C353.324 266.136 352.3 259.8 351.425 258.431C350.299 256.989 353.981 260.082 351.634 272.335C351.585 272.584 351.534 272.836 351.481 273.091C351.529 272.839 351.576 272.586 351.622 272.332C352.479 267.328 353 261.807 350.454 257.211C350.388 256.512 351.003 256.78 349.152 254.725C347.506 252.682 340.609 249.485 328.591 254.644C323.353 256.896 321.614 257.548 317.081 260.775C317.37 259.843 303.974 269.844 302.926 271.021C299.084 274.196 303.904 269.444 310.881 264.295C317.739 259.043 327.357 254.345 329.781 253.953C335.703 251.769 335.802 251.49 343.098 251.745C348.528 252.476 350.951 255.789 352.034 258.812C353.113 262.01 353.386 265.539 352.291 271.52C352.24 271.884 352.195 272.188 352.158 272.434C352.003 273.47 352.062 273.347 352.261 272.453C352.871 270.002 354.86 258.064 348.482 253.657C345.745 251.683 343.527 251.647 344.337 251.68C344.724 251.767 345.829 251.88 347.667 252.878C349.475 253.833 351.935 256.234 352.899 260.139C353.722 263.186 353.78 267.509 352.848 272.563C350.277 286.829 342.507 309.423 323.007 328.18L321.146 325.008C375.421 275.981 387.864 163.343 395.528 134.156C405.663 79.4609 410.261 41.2585 414.837 0.00342971L419.716 0.5804C416.835 22.7854 412.367 45.6019 405.312 71.8916C404.086 79.4778 385.277 134.079 388.695 122.543C389.324 120.969 397.408 97.4669 390.008 117.447C391.671 113.45 387.492 125.212 387.095 126.197C378.425 148.656 384.635 136.179 368.157 170.392ZM297.598 256.528C333.914 223.694 307.191 247.763 314.182 240.409C309.795 244.878 305.24 249.127 300.433 253.168C301.716 252.14 302.982 251.096 304.232 250.038C304.238 250.033 304.243 250.028 304.248 250.024C302.097 252.237 299.859 254.426 297.598 256.528ZM0.00102627 592.768C0.0330396 590.846 0.0844785 588.922 0.175668 586.819C0.731751 580.282 1.52461 573.797 2.54411 567.331C2.47981 568.11 2.42314 568.864 2.36505 569.644C1.24578 577.333 0.451809 584.994 0.00102627 592.768ZM327.643 324.373C325.374 326.004 323.52 326.939 322.038 327.487L321.278 326.192C323.886 323.753 325.46 322.215 330.778 315.635C329.643 316.635 328.386 317.744 327.161 318.74C324.492 321.907 322.622 323.831 320.715 325.544L322.329 328.295C325.665 326.984 328.478 325.05 332.549 321.088C331.709 321.801 330.597 322.714 329.688 323.364C328.369 324.523 326.941 325.633 325.398 326.569C324.16 327.137 327.206 325.333 329.079 323.587C330.804 321.962 331.95 321.013 327.669 324.352C327.661 324.359 327.652 324.366 327.643 324.373ZM341.827 253.557C336.857 251.923 319.056 260.768 317.157 262.709C313.534 265.391 323.03 258.779 330.052 256.193C333.523 254.818 336.186 254.324 335.54 254.494C334.96 254.748 330.815 255.343 322.076 260.335C322.264 260.296 322.133 260.435 322.161 260.486C328.469 257.017 335.523 253.772 342.311 254.287C341.97 254.024 342.223 253.817 341.827 253.557ZM390.498 107.792C393.316 100.695 403.172 65.801 399.638 77.086C398.656 80.4897 394.372 96.0145 392.354 101.846C391.076 105.626 392.316 101.36 389.854 108.788C390.053 108.491 390.218 108.321 390.505 107.772C390.503 107.778 390.501 107.785 390.498 107.792ZM386.808 121.631C389.531 114.249 392.109 106.711 394.533 99.1195C392.546 104.596 388.921 115.339 388.353 115.873C389.069 113.816 389.763 111.784 390.45 109.73C391.063 108.189 391.659 106.672 392.247 105.157C394.225 98.6079 392.918 102.541 396.755 90.4658C393.936 97.6279 393.553 98.9674 386.66 119.522C387.786 115.593 385.764 118.916 381.962 130.324C381.254 132.461 384.746 123.752 384.783 123.648C385.516 122.38 383.791 127.305 384.55 125.935C384.902 125.32 386.922 119.957 387.338 119.203C387.543 118.855 385.816 124.025 386.808 121.631ZM379.99 135.809C380.778 133.502 377.353 141.086 374.48 147.695C369.965 158.002 377.575 141.971 379.99 135.809ZM-0.00117993 592.811C-0.000445604 592.797 0.000289679 592.783 0.00102627 592.768C0.000913262 592.776 0.00079906 592.783 0.000683904 592.79C6.50883e-05 592.797 -0.000561595 592.804 -0.00117993 592.811ZM350.131 272.36C350.148 272.261 350.165 272.161 350.182 272.061C350.681 269.191 350.967 265.77 350.666 263.213C350.404 260.661 349.602 259.081 349.637 259.378C348.789 257.003 346.996 255.17 344.605 254.403C344.61 254.465 344.636 254.534 344.64 254.595C351.093 256.596 351.1 265.284 349.752 271.98C349.525 273.157 349.28 274.305 349.008 275.473C349.393 274.472 349.745 273.559 350.131 272.36ZM287.2 289.081C286.753 289.576 286.359 290.02 286.013 290.414C281.025 296.382 286.091 290.659 284.797 292.4C283.226 294.136 278.213 301.994 279.045 301.17C281.013 297.527 283.583 294.041 286.448 290.799C287.833 289.231 289.189 287.746 290.608 286.242C289.306 287.343 288.386 288.052 287.185 289.097C287.19 289.092 287.195 289.086 287.2 289.081ZM143.189 306.809C143.166 310.264 143.406 311.271 143.798 313.089C144.34 314.816 144.745 317.735 149.326 322.937C149.319 322.929 149.312 322.921 149.305 322.913C138.934 313.004 144.225 293.779 153.269 282.299C148.059 289.589 143.971 295.894 143.189 306.809ZM344.595 305.012C346.184 302.345 338.18 314.392 335.993 316.785C332.879 320.994 342.564 309.319 344.595 305.012ZM101.914 342.851C111.638 338.205 92.7349 343.556 81.0893 361.293L82.5944 361.964C82.897 360.664 83.2279 359.358 83.585 358.052C83.8145 357.233 83.0947 359.514 82.4726 361.935L81.1925 361.364C83.0024 358.831 85.195 356.373 83.7574 358.212C83.6379 358.372 82.5061 359.776 81.3457 361.47L82.2917 361.891C82.826 359.602 83.5749 356.989 83.8478 355.997C84.3619 354.147 83.583 356.019 84.5153 353.003C86.0192 347.644 91.5951 336.393 93.6396 332.789C93.8535 332.277 89.9922 339.036 89.8242 339.497C86.1308 346.606 83.982 354.058 83.6382 355.227C81.8916 361.046 81.988 360.436 81.5808 361.721L81.9477 361.884C81.9829 361.838 82.0204 361.788 82.0607 361.734C83.8232 359.272 87.2372 355.212 87.5175 354.954C92.2964 350.189 85.9348 356.309 82.0967 361.987L81.4049 361.679C82.0795 358.808 82.8333 356.299 83.0759 355.444C85.6284 347.832 82.0745 354.417 90.2092 336.861C90.9857 335.198 101.704 315.96 88.2667 340.237C109.927 303.155 85.3813 337.339 80.3839 361.434L82.9612 362.583C86.5584 357.387 90.2456 353.73 91.5421 352.425C94.3947 349.635 89.8821 353.665 91.5663 351.921C95.264 347.684 103.367 342.772 102.564 343.058C100.468 343.028 90.3722 350.857 85.0356 357.726C85.5105 356.942 85.6296 356.581 86.6493 355.226C85.8679 356.277 88.9556 352.667 92.8548 349.285C96.6926 345.82 101.549 343.01 101.915 342.853C101.915 342.852 101.914 342.852 101.914 342.851ZM144.343 274.585C153.97 267.157 153.077 267.383 162.27 261.069C170.099 255.165 154.242 266.294 152.513 267.756C144.288 273.992 144.207 273.545 136.246 280.505C139.143 278.286 141.544 276.571 144.343 274.585ZM81.7998 358.275C83.2557 352.876 81.691 357.672 80.7523 361.522L82.6493 362.368C83.6674 360.909 84.6639 359.668 84.7858 359.53C85.9893 358.226 84.6665 359.859 82.8603 362.513L80.5031 361.463C82.3846 352.98 88.4482 337.436 81.7998 358.275ZM404.735 62.7564C405.751 58.7825 404.924 61.3063 405.753 57.7196C406.611 54.146 409.497 42.0571 409.29 42.3291C409.151 42.6414 403.772 64.7935 408.76 42.4543C408.531 43.1955 408.537 42.9306 408.399 43.2831C407.038 49.5069 405.601 55.5875 404.053 61.7062C405.067 58.4779 406.128 54.9674 407.053 51.8217C406.4 55.2763 405.725 57.1869 405.682 57.3685C405.682 57.3685 405.682 57.3686 405.682 57.3686C404.138 63.7691 402.387 71.6966 404.735 62.7564ZM213.827 302.376C213.62 303.705 218.159 295.1 219.723 291.503C220.063 290.781 220.42 290.025 220.757 289.297L221.029 288.711L221.668 288.648C225.066 288.322 228.22 287.924 226.572 287.994C225.193 288.152 223.491 288.35 221.657 288.536L220.953 288.604L220.655 289.249C217.967 295.248 213.854 302.29 213.828 302.376C213.828 302.376 213.827 302.376 213.827 302.376ZM200.017 239.939C191.597 245.536 192.91 244.687 182.925 252.01C183.378 251.805 183.832 251.604 184.282 251.403C191.933 245.717 191.455 245.605 200.272 240.058L199.368 238.434C199.11 238.557 198.842 238.686 198.564 238.821C196.896 239.657 200.321 237.532 192.814 241.571C195.045 240.532 197.313 239.535 199.468 238.637L200.152 239.866C200.107 239.89 200.062 239.915 200.017 239.939ZM161.433 271.833C169.476 263.507 175.503 256.389 160.66 271.891C158.57 274.283 155.631 278.334 161.433 271.833ZM368.232 163.902C376.824 145.995 367.053 166.339 364.453 170.81C384.498 129.181 362.549 175.704 359.454 179.274C356.884 184.279 351.801 193.567 357.741 183.434C360.164 179.185 359.16 180.669 359.307 180.414C363.644 172.504 363.367 173.599 368.232 163.902ZM128.446 288.531C128.988 288.01 128.017 288.698 129.746 287.037C131.466 285.369 135.591 281.841 135.935 281.423C136.252 280.962 128.097 288.196 125.802 290.618C123.473 293.015 123.581 293.267 128.446 288.531ZM190.268 243.947C198.905 239.098 184.365 246.355 182.56 247.562C166.279 257.507 190.58 243.279 190.268 243.947ZM346.238 204.484C358.823 184.024 349.32 198.857 340.453 210.924C339.363 212.577 338.228 214.257 337.124 215.858C341.966 208.281 351.209 195.567 330.5 223.768C342.294 208.645 332.597 221.462 332.523 221.559C332.027 223.852 348.275 200.445 346.226 204.502C346.23 204.496 346.234 204.49 346.238 204.484ZM106.386 312.234C99.3088 320.089 86.4049 344.175 92.8038 333.18C96.7474 325.839 101.34 318.88 106.386 312.234ZM389.311 172.421C387.257 180.652 385.435 188.349 382.839 198.469C385.432 189.355 383.959 195.276 383.191 198.503C382.063 203.258 385.001 191.806 384.99 191.846C385.173 192.046 383.432 199.483 387.483 182.792C386.566 187.006 385.657 191.058 384.73 195.059C387.866 182.61 388.686 179.608 390.715 171.604C388.447 179.391 391.179 168.96 392.892 159.749C393.756 155.143 390.431 168.004 389.304 172.452C389.307 172.442 389.309 172.431 389.311 172.421ZM359.246 183.36C360.379 181.167 361.365 179.13 362.411 176.978C363.637 174.675 364.837 172.368 366.014 170.047C366.228 169.795 366.421 169.592 366.656 169.29C368.226 166.239 367.525 167.383 367.974 166.467C367.974 166.468 367.975 166.468 367.975 166.468C374.311 153.289 376.684 147.797 381.323 137.319C381.108 137.231 380.893 137.142 380.678 137.054C379.717 139.444 378.728 141.844 377.73 144.211C377.304 145.515 376.869 146.823 376.43 148.125C375.162 150.822 373.88 153.48 372.561 156.148C371.596 158.328 370.403 160.935 369.537 162.809C363.768 173.207 375.896 149.101 375.581 148.687C375.654 148.554 363.947 173.051 361.981 176.443C361.722 176.942 364.961 172.013 359.986 180.63C359.17 181.964 358.122 181.968 353.383 191.62C352.691 192.991 356.041 188.764 359.246 183.36ZM397.848 92.5529C392.96 107.038 409.246 53.0586 402.112 76.2771C403.65 69.53 403.331 70.7602 401.195 77.413C401.009 77.9966 402.221 73.3278 402.097 73.7218C400.236 79.9818 398.045 87.555 397.765 87.5205C397.269 89.2153 396.793 90.8138 396.278 92.5169C398.702 85.5309 395.43 96.7993 394.194 101.153C393.642 103.148 395.152 98.6431 394.693 100.322C394.534 100.944 392.36 107.235 392.354 107.503C392.356 108.108 394.004 104.249 396.307 97.5758C396.307 97.5759 396.307 97.5759 396.308 97.576C396.836 95.885 397.328 94.274 397.848 92.5529ZM194.072 327.607C192.929 328.293 190.161 330.029 189.737 330.154C189.23 330.195 191.681 329.395 198.949 322.523C198.191 323.15 197.384 323.794 196.6 324.387C194.08 326.608 191.484 328.584 188.568 330.334C184.528 333.56 177.333 335.878 172.812 335.709C170.557 335.72 169.044 335.435 168.81 335.422C168.589 335.373 169.616 335.73 172.664 335.91C174.006 336.146 182.024 334.738 174.106 336.065C174.116 336.064 174.127 336.064 174.138 336.063C185.213 334.321 186.346 332.639 194.072 327.607ZM248.024 284.783C259.979 280.344 251.709 283.45 241.372 286.124C230.972 288.877 218.388 289.992 223.453 289.607C224.533 290.122 249.892 284.358 248.024 284.783ZM174.168 256.908C165.493 264.424 165.443 265.476 166.336 264.734C167.24 264.009 173.001 258.584 173.826 257.963C176.403 255.857 171.084 260.497 174.429 257.76C175.395 256.671 191.291 244.714 192.156 244.359C196.268 241.423 189.972 245.316 191.139 244.472C193.801 242.499 197.318 240.263 199.53 238.869L199.988 239.691C199.011 240.181 198.244 240.595 197.9 240.832C196.833 241.566 198.189 240.884 200.095 239.909L199.401 238.663C196.893 240.263 193.233 242.883 192.308 243.534C187.309 247.034 187.632 246.563 183.932 249.264C180.253 252.001 177.991 253.918 174.886 256.509C173.861 257.37 174.611 256.533 174.168 256.908ZM149.352 285.348C152.564 280.319 149.823 283.618 146.671 289.024C143.358 294.388 141.298 302.499 141.356 304.274C141.254 309.481 141.105 305.57 142.552 300.041C143.964 294.445 147.839 287.772 149.352 285.348ZM384.277 128.364C380.528 138.603 389.959 115.005 392.07 108.027C391.602 109.285 385.645 124.852 384.277 128.364ZM342.491 209.993C348.105 201.629 340.268 212.456 335.172 219.066C332.44 223.167 335.263 219.485 338.5 215.08C341.703 210.662 338.012 216.426 342.491 209.993ZM125.074 293.48C126.266 291.607 152.519 268.731 137.246 281.654C135.898 282.451 118.37 299.402 117.384 301.017C114.954 303.829 121.079 297.345 125.074 293.48ZM311.786 247.116C315.46 243.191 319.02 239.431 315.381 242.68C315.376 242.686 315.371 242.691 315.366 242.696C324.641 232.945 325.32 232.759 327.252 230.579C333.734 222.713 327.207 229.817 331.095 224.793C321.763 236.295 324.252 232.801 316.545 241.003C314.857 242.838 307.673 249.99 306.627 251.011C305.618 252.091 309.704 248.935 311.786 247.116ZM94.7251 331.87C100.775 321.851 106.841 312.931 97.5732 326.345C93.2862 333.051 91.2008 338.092 94.7251 331.87ZM325.318 256.209C327.028 255.52 328.801 254.881 330.629 254.339C326.555 255.88 322.681 257.933 318.972 260.21C321.908 258.388 324.925 256.727 328.097 255.322C320.665 258.693 317.358 260.555 325.299 256.218C325.305 256.215 325.312 256.212 325.318 256.209ZM210.98 427.898C213.818 425.579 218.798 420.367 218.111 420.964C212.997 425.56 207.062 431.107 210.98 427.898ZM390.973 113.633C395.466 100.838 391.911 109.447 389.027 117.284C390.87 112.52 388.334 120.901 390.973 113.633ZM257.841 394.809C258.781 394.028 259.71 393.248 260.743 392.359C257.564 395.201 256.951 395.654 257.841 394.809ZM129.415 290.022C130.869 288.551 142.329 278.505 143.947 277.235C147.179 274.424 137.732 281.685 132.674 286.543C132.098 287.06 127.891 291.396 129.439 290C129.431 290.007 129.423 290.014 129.415 290.022ZM309.529 265.77C309.551 265.761 309.544 265.773 309.513 265.803C309.522 265.789 309.515 265.787 309.529 265.77ZM112.414 396.573C112.475 396.513 112.512 396.483 112.512 396.497C112.485 396.517 112.435 396.563 112.414 396.573ZM181.851 249.823C177.373 252.444 168.586 260.415 175.91 254.585C176.311 254.247 180.845 250.569 181.851 249.823ZM258.566 160.484C274.701 135.914 291.351 108.086 302.782 81.0311C304.171 77.6769 304.206 77.9839 304.598 77.0585C305.673 74.4634 306.029 72.9057 306.725 70.9751C308.499 66.0228 309.977 61.1808 311.051 56.2923L315.449 57.4769C314.078 61.6033 312.79 65.7457 311.538 70.0087C308.793 79.5838 309.575 74.8979 308.551 78.217C306.635 84.7022 308.714 79.299 308.212 81.9111C306.302 89.4116 304.586 97.0156 303.32 104.644C303.548 102.766 303.802 100.906 304.091 99.0074C303.463 102.316 302.613 107.085 303.352 101.469C303.095 102.677 302.846 103.849 302.607 105.098C302.775 105.467 302.008 111.399 302.127 111.955C302.207 112.52 302.561 109.158 302.578 109.202C302.558 109.455 301.284 123.044 301.573 123.997C301.619 126.57 301.202 124.319 301.355 126.51C301.798 130.223 301.917 127.717 302.184 132.734C303.028 134.509 302.878 134.787 304.071 136.78C304.247 137.038 304.237 136.75 304.318 136.858C305.391 138.166 305.593 138.177 305.371 138.111C305.159 138.015 304.67 137.605 304.672 137.612C304.661 137.804 305.326 138.617 306.227 139.119C307.132 139.656 308.224 139.825 308.634 139.877C311.852 140.284 315.019 138.99 317.889 137.549C323.942 134.418 329.474 131.244 336.075 126.586C338.216 125.141 344.297 120.182 346.141 118.516C347.995 116.914 347.154 117.928 348.157 117.134C349.35 115.367 350.754 114.046 354.08 110.812C354.942 109.301 355.054 109.667 357.033 107.045C358.678 104.855 361.001 100.673 362.15 98.0694C360.929 101.138 361.158 100.923 359.191 104.25C358.8 105.581 349.763 115.656 350.566 115.052C351.076 114.844 354.074 111.445 354.194 111.316C355.017 110.679 353.519 112.751 351.889 114.284C352.261 113.848 352.675 113.36 353.07 112.882C349.4 116.325 352.484 114.522 349.185 116.603C348.774 116.854 348.828 116.662 348.194 117.109C348.108 117.248 348.867 116.69 348.291 117.253C347.704 117.829 346.375 118.743 346.319 119.021C346.226 119.454 348.723 117.063 348.915 116.882C348.916 116.878 348.917 116.875 348.918 116.872C350.692 115.386 347.195 118.694 347.016 118.851C346.017 119.945 346.85 119.386 345.244 120.939C344.313 121.844 341.77 123.848 340.822 124.599C339.88 125.359 341.442 124.302 340.814 124.82C340.186 125.339 339.354 125.857 338.599 126.454C338.279 126.707 338.38 126.799 338.226 126.918C336.57 128.189 337.51 127.167 335.976 128.284C334.992 129.012 331.715 131.537 334.106 130.008C333.005 130.794 331.88 131.565 330.758 132.317C331.503 131.882 332.249 131.423 332.984 130.986C330.811 132.36 329.936 133.18 328.595 134.042C327.219 134.921 325.872 135.419 324.395 136.443C321.291 138.607 329.29 133.72 330.257 133.085C330.651 132.858 329.295 133.977 329.074 134.121C328.078 134.778 326.789 135.386 326.009 135.861C323.342 137.484 321.745 138.6 319.243 140.032C319.081 140.124 318.917 140.215 318.751 140.306C316.296 141.61 313.458 142.925 310.02 143.13C306.573 143.506 302.458 141.241 300.812 138.187C297.41 132.103 297.594 125.93 297.547 120.791C297.62 116.953 298.076 114.712 298.227 112.983C298.617 109.05 298.499 108.536 298.983 105.091C299.706 99.988 301.28 92.9264 302.261 88.7625C302.928 85.8796 303.375 83.2283 303.553 82.4811C305.576 73.906 308.431 63.9372 311.024 56.0308L315.604 57.2646C315.235 58.9982 314.802 60.759 314.402 62.2579C313.293 66.3613 312.445 68.1395 312.185 68.9934C311.039 72.53 311.53 71.6391 310.49 74.4939C309.928 76.0043 309.647 76.2315 309.566 76.432C308.829 78.2111 308.898 78.661 308.361 80.0397C305.215 88.0395 301.577 95.5036 297.766 103.052C297.489 103.599 297.422 103.504 297.247 103.861C296.497 105.397 297.002 104.761 296.195 106.362C294.521 109.674 292.709 113.034 290.8 116.485C290.61 116.827 290.412 116.916 289.983 117.697C289.553 118.478 289.335 119.131 288.646 120.354C286.845 123.546 284.924 126.611 282.963 129.955C282.639 130.508 282.374 131.273 281.883 132.103C280.349 134.703 277.919 138.467 276.571 140.661C272.11 147.937 267.959 154.63 263.552 161.347C262.524 162.912 261.468 164.239 260.921 165.055C259.69 166.889 260.729 165.583 259.492 167.434C253.228 176.774 246.74 186.022 239.982 195.042L236.712 192.337C241.551 187.052 246.592 181.858 251.899 176.975C257.326 172.005 264.127 166.116 270.897 162.843C273.749 161.546 274.365 161.552 276.654 161.027C278.74 160.64 280.12 160.645 281.623 160.984C283.041 161.332 284.857 162.162 286.19 164.456C288.191 168.193 287.581 172.181 287.217 175.51C286.75 178.846 286.616 180.469 285.625 184.121C285.597 184.222 285.567 184.325 285.537 184.43C284.658 187.557 282.839 191.393 281.317 194.329C266.144 221.515 245.252 243.473 223.648 265.318C222.123 266.819 220.485 268.417 218.895 269.94L216.044 266.302C223.56 261.617 231.182 256.155 238.243 250.79C239.072 250.157 237.971 251.341 240.551 249.204C241.932 248.051 243.739 246.33 246.898 243.621C265.611 227.572 284.018 208.533 299.856 188.979C323.6 159.636 343.921 126.208 361.315 98.478C362.137 97.1558 362.266 98.1614 361.973 99.0734C361.462 99.7968 360.95 100.466 360.378 101.254C360.429 102.677 360.443 102.297 358.23 106.178C356.912 108.464 358.21 106.768 357.593 108.052C356.773 109.796 352.702 117.507 353.135 115.804C352.937 116.306 352.754 116.773 352.555 117.268C349.393 122.762 346.249 128.091 343.052 133.365C342.493 134.285 342.593 134.408 342.007 135.365C340.478 137.864 339.075 139.834 337.414 142.372C336.508 143.754 336.527 144.04 335.295 145.857C334.05 147.686 333.915 147.472 332.447 150.076C333.783 148.653 328.736 155.63 326.944 158.165C326.686 158.538 324.805 161.639 323.63 163.211C322.442 164.807 320.604 167.047 318.868 169.549C318.05 170.726 317.716 171.517 316.81 172.743C316.174 173.604 315.252 174.523 314.419 175.605C313.58 176.698 311.928 179.09 311.595 179.522C310.412 181.065 311.625 179.291 310.804 180.338C306.845 185.394 302.123 191.145 298.122 196.054C297.632 196.656 298.437 195.929 298.375 196.012C295.124 200.169 296.782 197.887 295.76 198.889C294.779 199.884 288.202 207.538 288.33 207.755C287.879 207.769 286.571 209.61 286.186 210.05C284.691 211.762 284.779 211.241 283.358 212.927C282.837 213.544 284.04 212.515 283.45 213.151C281.99 214.722 280.452 215.93 278.468 217.987C277.988 218.483 277.935 218.741 277.086 219.626C276.241 220.517 272.532 224.09 274.396 222.589C272.05 224.662 271.702 225.202 269.126 227.762C268.471 228.409 267.477 229.083 266.122 230.499C265.663 230.978 265.826 231.118 265.11 231.813C263.47 233.401 261.769 234.716 259.641 236.682C255.666 240.352 251.465 244.294 247.104 247.886C245.918 248.86 246.075 248.453 244.356 249.866C244.106 250.074 242.144 251.917 240.921 252.865C240.189 253.448 236.335 256.284 235.538 256.861C234.247 257.818 234.142 258.154 233.413 258.647C231.302 260.059 232.763 258.611 230.547 260.742C229.592 261.147 228.147 262.201 227.514 262.295C226.843 263.148 225.569 263.672 223.967 264.882C222.349 266.103 221.293 267.514 220.528 267.234C220.114 267.556 218.916 268.403 217.83 269.141L216.565 267.527C217.267 266.797 217.945 266.094 218.162 265.876C219.549 264.478 218.914 265.354 219.972 264.277C220.153 264.092 219.897 264.174 221.079 263.017C221.904 262.232 227.608 256.443 227.931 256.114C231.939 252.239 225.92 258.378 225.173 259.307C225.001 259.432 224.834 259.551 224.65 259.688C222.867 261.41 224.052 260.609 224.893 259.848C225.691 259.132 227.098 257.515 227.78 256.942C228.13 256.647 228.18 257.078 227.18 258.046C228.297 257.047 226.95 258.586 227.432 258.229C227.955 257.86 232.628 253.043 232.516 252.881C231.645 253.788 230.574 254.917 229.696 255.818C228.318 256.783 231.015 252.429 234.476 249.37C236.975 247.151 233.427 251.353 238.595 245.375C237.758 246.267 237.053 246.986 236.285 247.792C236.033 247.711 237.437 246.587 238.006 245.855C238.279 245.505 236.304 247.393 237.869 245.615C239.512 244.334 240.311 242.955 242.593 240.411C242.004 241.158 241.416 241.901 240.818 242.651C244.889 238.522 235.929 248.552 243.575 240.296C242.679 241.313 241.78 242.305 240.873 243.328C241.41 242.924 240.973 243.955 241.429 243.57C242.632 242.551 244.063 240.776 245.337 239.369C245.891 238.757 245.626 239.206 245.672 239.155C246.431 238.315 246.156 238.405 246.807 237.653C247.632 236.705 250.106 234.076 250.476 233.618C251.432 232.443 249.568 234.165 249.646 234.04C250.173 233.219 251.543 231.797 251.336 231.756C248.375 235.472 239.143 245.56 247.125 236.106C244.644 238.473 245.011 237.464 248.196 233.759C250.822 230.676 249.238 232.762 250.747 231.279C250.948 231.091 254.508 226.999 254.582 226.698C254.668 227.053 255.996 225.856 255.471 226.963C255.395 227.126 253.953 228.827 254.638 228.385C254.98 228.166 255.9 227.475 255.904 227.712C256.115 227.29 256.328 226.842 256.537 226.411C258.632 223.811 259.022 223.5 260.319 222.205C260.203 222.216 258.871 223.318 260.558 221.377C260.645 221.278 260.818 221.267 261.674 220.282C263.394 218.295 263.77 217.864 262.814 219.7C265.997 215.245 267.048 214.555 270.227 209.917C269.177 210.558 268.163 212.236 265.129 216.393C264.904 216.501 264.752 216.515 264.522 216.627C268.839 211.328 266.796 214 268.887 210.745C269.41 209.951 272.333 205.838 271.107 207.043C270.829 207.324 269.032 209.89 269.137 209.529C269.174 209.452 271.29 206.321 271.506 206.041C274.138 202.733 270.318 209.261 276.425 199.347C276.586 199.072 276.518 198.917 276.829 198.356C277.403 197.313 277.548 197.381 278.031 196.459C278.521 195.519 279.029 194.15 279.93 192.822C281.579 190.381 278.663 196.633 276.859 199.117C276.682 200.038 282.559 190.857 284.433 184.106C285.229 181.428 285.653 179.373 285.717 179.011C286.702 173.064 284.858 182.912 284.443 183.276C284.37 183.399 284.08 183.319 283.807 183.923C283.656 184.244 283.517 184.767 283.373 185.691C283.269 186.446 284.416 183.533 283.91 185.327C283.36 187.155 283.407 186.351 283.349 186.483C283.165 186.873 282.482 188.775 282.353 188.977C280.316 192.355 279.947 191.779 282.864 187.403C283.473 185.225 281.227 189.907 282.129 187.24C282.564 185.93 282.994 184.687 283.302 183.775C283.762 182.401 284.09 181.56 284.159 181.329C285.475 176.367 283.825 182.081 285.116 175.969C285.667 172.506 284.759 181.221 285.702 173.276C285.881 169.937 285.533 169.164 285.485 169.192C285.4 169.207 285.34 169.984 285.131 169.763C285.029 169.663 284.569 166.185 285.041 170.949C285.142 171.079 285.275 171.333 285.362 171.65C285.298 172.875 284.603 174.798 284.492 175.408C283.944 178.433 284.155 178.361 283.471 180.059C284.092 178.84 283.403 180.94 283.268 181.678C282.909 183.647 283.297 182.602 282.937 183.668C282.771 184.125 282.406 185.193 281.53 187.123C281.991 186.374 282.397 185.705 282.814 184.933C282.561 185.713 282.293 186.458 282.003 187.206C281.259 188.251 279.551 192.065 280.807 188.446C278.858 192.615 277.93 194.231 277.678 195.272C277.623 195.475 277.307 196.083 276.904 196.791C277.045 196.694 277.34 196.636 277.301 196.762C276.941 197.888 275.636 199.227 275.816 198.615C275.518 199.095 275.273 199.477 275.186 199.611C274.633 200.462 275.549 198.692 275.077 199.366C274.93 199.589 273.424 202.037 273.344 202.041C272.809 202.117 275.692 198.358 270.247 206.1C270.421 206.479 272.79 202.81 272.472 203.945C272.152 205.154 270.287 206.938 270.388 207.637C270.208 207.755 270.103 207.79 269.93 207.879C267.878 211.161 267.52 210.922 266.754 211.828C265.301 213.575 258.932 221.879 264.922 214.631C264.114 215.762 263.288 216.868 262.468 217.975C261.694 217.772 262.475 217.318 258.278 222.39C257.35 223.5 256.8 223.671 256.196 225.006C256.036 224.623 253.475 228.068 253.179 228.34C251.318 230.12 257.086 222.553 258.338 221.994C259.138 220.587 259.407 220.794 260.482 219.36C262.022 217.291 262.203 216.958 264.258 214.664C265.833 212.071 256.888 223.934 262.049 216.533C264.529 212.546 276.196 198.688 281.303 183.189C283.212 176.656 284.481 168.154 281.496 165.698C280.237 164.622 277.703 164.985 275.749 165.667C273.773 166.339 272.054 167.272 270.942 167.901C256.667 176.954 249.362 185.649 240.106 195.434L236.304 192.288C238.466 189.392 240.734 186.289 243.205 182.841C244.399 181.249 252.809 169.048 251.381 171.813C251.209 172.174 247.649 177.595 251.062 173.216C250.276 174.025 251.987 171.322 252.124 171.083C255.243 165.687 253.169 168.609 258.566 160.484ZM277.133 137.928C270.38 148.802 275.516 140.922 274.65 143.511C275.513 142.117 276.378 140.706 277.228 139.31C276.971 139.658 276.717 140.002 276.46 140.349C276.459 140.351 276.458 140.352 276.457 140.354C276.683 139.548 276.91 138.736 277.133 137.928ZM336.155 129.061C335.793 129.415 335.43 129.767 335.02 130.146C333.609 131.09 332.169 132.02 330.728 132.919C330.871 132.762 331.006 132.608 331.146 132.452C332.823 131.365 334.502 130.234 336.155 129.061ZM276.005 200.688C274.521 202.633 275.007 202.634 273.083 205.21C273.544 205.052 274.022 204.855 274.499 204.663C275.804 202.584 276.01 202.059 277.449 199.837C277.209 200.049 276.964 200.267 276.726 200.474C276.513 200.86 276.284 201.274 276.069 201.65C275.493 202.084 277.674 198.464 276.009 200.681C276.007 200.683 276.006 200.686 276.005 200.688ZM261.827 220.774C261.003 221.773 257.68 225.653 257.329 226.26C256.172 228.372 265.021 216.982 258.636 225.486C258.712 225.485 258.725 225.559 258.77 225.596C260.015 224.1 261.235 222.609 262.461 221.079C262.216 221.019 262.081 220.824 261.827 220.774ZM251.954 176.772C250.837 178.358 245.508 186.214 247.509 183.845C248.118 183.127 250.214 179.5 251.154 178.173C251.749 177.337 251.258 178.406 252.359 176.687C252.232 176.709 252.118 176.698 251.951 176.777C251.952 176.775 251.953 176.773 251.954 176.772ZM253.073 173.034C251.968 174.711 250.795 176.487 249.668 178.169C250.713 177.086 252.27 174.568 252.648 174.6C252.344 175.086 252.045 175.562 251.744 176.041C251.439 176.355 251.138 176.661 250.839 176.966C249.992 178.496 250.667 177.691 248.731 180.36C250.286 179.01 250.72 178.884 253.514 173.937C253.145 174.95 254.42 174.666 255.673 171.707C255.908 171.155 254.459 173.141 254.43 173.148C254.027 173.327 254.668 172.126 254.26 172.335C254.075 172.43 253.24 173.652 253.003 173.753C252.89 173.8 253.525 172.535 253.073 173.034ZM256.345 170.324C256.11 170.921 257.585 169.344 258.588 167.727C260.151 165.208 257.28 168.923 256.345 170.324ZM336.164 129.054C336.161 129.056 336.158 129.059 336.155 129.061C336.156 129.06 336.158 129.058 336.159 129.057C336.161 129.056 336.162 129.055 336.164 129.054ZM266.019 215.608C265.192 216.908 263.815 218.662 264.062 218.651C263.579 219.215 263.087 219.786 262.604 220.341C262.654 220.371 262.707 220.395 262.756 220.425C264.16 218.693 265.534 216.964 266.907 215.191C266.617 215.323 266.34 215.437 266.019 215.608ZM250.653 234.321C248.81 236.422 250.539 234.82 250.231 235.366C249.924 235.913 248.212 237.717 248.539 237.615C249.625 236.387 250.76 235.09 251.848 233.833C251.414 234.039 251.064 234.141 250.65 234.326C250.651 234.324 250.652 234.323 250.653 234.321ZM302.134 92.0319C301.288 93.7233 301.453 92.93 300.046 96.4278C300.047 96.4253 300.049 96.4228 300.05 96.4202C301.745 93.2594 303.782 89.1654 305.196 85.4609C304.04 87.6199 303.474 89.3215 302.134 92.0319ZM279.865 195.209C280.119 194.429 278.189 197.66 277.878 198.439C277.403 199.715 279.489 196.446 279.865 195.209ZM303.174 94.8403C303.095 97.7565 304.63 92.5147 305.694 86.9283C305.782 86.4431 304.819 89.9928 304.968 88.9107C304.982 88.8013 305.441 86.8357 305.492 86.3342C305.54 85.832 305.268 86.3079 305.393 85.4947C305.608 84.0671 306.592 80.9603 306.716 79.8821C306.73 79.7385 306.035 81.644 305.998 81.7669C305.376 83.7479 305.185 85.7538 305.114 86.0661C304.749 87.6728 304.6 87.3831 304.458 87.7787C304.19 88.5243 303.983 89.8949 303.956 89.9881C303.236 92.3925 304.518 86.8214 304.632 86.0536C304.913 83.9801 304.257 85.8088 305.34 80.9273C305.443 80.4626 306.851 74.9621 304.867 81.8463C307.86 68.0825 302.815 88.6268 302.585 90.9327C302.412 91.98 302.948 90.4534 302.902 91.101C302.795 92.5788 302.339 95.025 302.673 94.8679C303.374 94.5097 303.631 91.2381 304.23 89.0584C304.31 89.3182 304.418 89.4349 304.453 89.8899C304.415 89.1904 303.167 94.6219 303.173 94.8401C303.174 94.8401 303.174 94.8402 303.174 94.8403ZM311.42 60.3066C312.227 58.1909 312.243 57.6301 312.575 56.5378L314.008 56.9237C313.92 57.3768 313.786 57.9262 313.535 58.72C313.344 60.6134 313.936 58.4554 314.266 56.9789L312.324 56.4556C312.146 56.9754 312 57.423 311.947 57.5695C311.04 60.1062 310.702 59.9059 310.001 62.58C310.497 61.7343 310.942 61.0704 311.42 60.3066ZM304.038 86.7309C304.322 84.6277 303.472 88.3125 303.406 88.4548C302.622 89.9911 305.29 78.9781 304.038 86.7309ZM244.226 186.346C243.588 187.207 244.139 186.77 243.636 187.56C243.164 188.314 241.07 190.901 241.234 190.875C241.36 190.909 245.137 186.257 241.666 191.118C241.836 190.998 241.837 191.081 241.942 191.039C242.899 189.739 243.897 188.371 244.841 187.065C244.153 187.693 243.488 188.267 242.808 188.887C243.247 188.025 243.677 187.763 243.711 187.716C243.711 187.716 243.711 187.716 243.711 187.716C244.686 186.343 245.675 184.381 244.226 186.346ZM289.857 115.509C289.593 115.002 288.849 117.47 288.396 118.406C287.945 119.342 287.095 120.502 287.535 120.134C288.482 118.734 289.886 115.57 289.857 115.508C289.857 115.508 289.857 115.508 289.857 115.509ZM310.417 69.6497C309.687 72.1616 309.929 71.8624 308.695 74.8343C308.846 74.7571 309 74.6807 309.149 74.6028C310.024 72.1968 309.673 72.2097 310.738 69.4664C310.909 69.0118 310.841 70.098 311.447 67.9443C311.116 68.5128 310.753 69.1164 310.417 69.6497ZM306.204 82.0956C307.346 79.2513 307.375 76.6805 305.659 82.0324C305.397 82.8308 305.338 84.2168 306.204 82.0956ZM260.095 163.317C257.215 167.598 260.591 162.802 261.448 161.754C254.894 171.824 262.182 160.603 263.211 159.865C263.91 158.552 265.144 156.084 263.409 158.597C262.68 159.651 263.054 159.336 263.012 159.4C261.691 161.352 261.677 160.954 260.095 163.317ZM309.842 65.5477C309.891 65.3584 309.65 65.6051 309.797 65.0013C309.945 64.3914 310.45 63.1126 310.403 62.9334C310.341 62.7894 309.464 65.4226 309.285 66.2962C309.108 67.1583 309.397 67.2656 309.842 65.5477ZM310.885 66.8414C310.216 69.3437 312.056 65.486 312.194 64.9542C313.547 60.1388 311.046 67.0762 310.885 66.8414ZM265.795 152.738C262.67 158.143 265.599 154.581 267.943 151.483C268.166 151.016 268.395 150.536 268.615 150.072C267.684 152.252 265.817 155.921 270.41 148.037C267.67 152.207 269.82 148.609 269.813 148.578C269.515 147.735 265.825 154.148 265.798 152.734C265.797 152.735 265.796 152.737 265.795 152.738ZM307.376 73.5762C306.646 76.1829 305.042 83.0496 306.148 79.9384C306.535 77.8231 306.947 75.6951 307.376 73.5762ZM279.234 163.367C281.283 163.576 282.984 164.407 283.937 166.733C283.167 164.645 283.886 165.865 284.257 166.59C284.506 167.12 284.402 166.723 284.17 166.19C283.937 165.64 283.522 165.072 283.518 165.06C283.633 165.001 283.973 165.371 283.969 165.299C283.926 165.301 283.832 164.452 281.898 163.379C282.912 163.766 283.797 164.525 284.418 165.461C282.482 162.551 281.099 162.508 278.946 162.179C281.177 162.775 278.151 162.086 275.829 163.091C274.68 163.526 278.233 163.115 279.242 163.368C279.24 163.367 279.237 163.367 279.234 163.367ZM262.227 158.077C261.948 158.662 261.723 159.216 261.467 159.786C261.105 160.353 260.743 160.919 260.383 161.48C260.275 161.507 260.171 161.521 260.057 161.561C259.545 162.295 259.825 162.063 259.687 162.29C259.686 162.29 259.686 162.29 259.686 162.29C257.706 165.528 256.824 166.81 254.977 169.121C255.169 169.252 255.362 169.382 255.554 169.512C255.906 168.953 256.264 168.385 256.619 167.819C256.714 167.455 256.81 167.088 256.906 166.722C257.401 166.109 257.877 165.521 258.359 164.922C258.663 164.387 259.034 163.743 259.295 163.272C261.54 161.065 257.31 166.633 257.486 166.841C257.617 166.97 261.515 161.096 261.957 160.19C262.022 160.058 260.783 161.068 262.407 159.048C262.656 158.739 263.634 159.162 264.422 156.392C264.532 156 263.252 156.784 262.227 158.077ZM247.62 179.053C250.447 176.221 241.452 187.683 245.529 182.897C244.744 184.527 244.929 184.263 246.2 182.948C246.312 182.834 245.656 183.9 245.727 183.819C246.828 182.537 247.962 180.789 248.183 180.951C248.432 180.572 248.668 180.214 248.919 179.83C247.612 181.242 249.214 178.663 249.719 177.556C249.941 177.066 249.217 178.051 249.404 177.632C249.473 177.478 250.491 176.125 250.459 176.012C250.368 175.784 249.554 176.478 248.37 177.908C248.37 177.908 248.37 177.908 248.369 177.908C248.115 178.295 247.871 178.671 247.62 179.053ZM292.47 107.425C293.106 107.002 294.456 104.655 292.209 109.337C292.393 109.143 292.581 108.943 292.765 108.749C293.166 107.97 293.552 107.215 293.954 106.426C294.225 103.547 297.481 99.7709 295.401 102.198C295.175 102.463 294.322 104.354 295.042 102.427C295.04 102.429 295.039 102.431 295.038 102.434C293.811 105.011 293.752 105.406 292.47 107.425ZM283.498 124.338C280.901 130.461 288.378 116.616 286.888 118.794C286.765 118.999 283.577 124.975 283.498 124.338ZM306.186 76.6298C305.107 79.3739 305.413 79.6938 305.666 79.4786C305.922 79.2537 306.516 77.3254 306.638 77.0684C307.025 76.2848 306.408 78.0263 306.917 77.0102C307.106 76.6642 309.015 71.91 309.066 71.6539C309.403 70.3799 308.444 72.0797 308.53 71.7115C308.818 70.5075 309.502 69.027 309.438 68.6266C309.303 67.7929 308.732 70.8108 308.555 71.3134C308.051 72.8047 307.875 72.6318 307.441 73.698C306.999 74.7745 306.799 75.5205 306.411 76.4916C306.281 76.8149 306.242 76.4894 306.186 76.6298ZM303.297 85.9981C304.24 83.0381 300.922 89.7783 300.59 90.6194C299.696 93.1088 302.865 87.4253 303.297 85.9981ZM254.091 171.477C255.494 169.012 251.647 174.322 250.626 175.943C250.908 175.71 253.61 172.33 254.091 171.477ZM266.719 151.295C265.387 153.512 267.67 150.911 268.83 149.058C269.222 147.797 268.639 148.849 267.866 150.043C267.094 151.231 267.759 149.558 266.719 151.295ZM310.571 67.3605C310.716 66.7985 313.101 58.0882 311.458 63.0258C311.321 63.3996 309.579 69.4665 309.509 69.9533C309.346 70.9167 310.155 68.7185 310.571 67.3605ZM272.897 140.473C272.429 141.8 271.716 142.945 272.673 142.054C272.674 142.052 272.675 142.051 272.676 142.049C270.946 145.051 270.247 144.821 269.866 145.462C268.52 147.71 270.265 145.876 269.533 147.355C271.428 144.037 271.147 145.127 272.69 142.677C273.037 142.127 274.233 139.79 274.324 139.395C274.415 139.002 273.394 139.948 272.897 140.473ZM307.271 79.6661C308.136 76.7464 308.401 73.9215 307.246 77.9978C306.691 79.9855 306.748 81.4491 307.271 79.6661ZM257.763 223.161C258.153 222.879 258.551 222.585 258.96 222.274C258.282 223.166 257.593 224.064 256.906 224.953C257.436 224.242 257.971 223.522 258.502 222.802C257.141 224.416 256.35 225.02 257.759 223.165C257.761 223.164 257.762 223.162 257.763 223.161ZM229.791 260.835C230.641 260.375 231.915 258.98 231.708 259.094C230.155 259.967 228.62 261.468 229.791 260.835ZM250.795 174.273C248.751 177.132 250.617 175.511 251.894 173.731C251.04 174.766 251.965 172.628 250.795 174.273ZM225.173 259.307C225.428 259.122 225.686 258.934 225.97 258.719C225.143 259.458 224.98 259.553 225.173 259.307ZM311.495 66.1265C311.686 65.626 312.878 61.8466 312.985 61.3291C313.202 60.2305 311.951 63.099 311.536 64.8515C311.488 65.0436 311.298 66.6252 311.497 66.1185C311.496 66.1212 311.496 66.1238 311.495 66.1265ZM254.575 226.681C254.583 226.68 254.585 226.686 254.582 226.698C254.58 226.691 254.575 226.689 254.575 226.681ZM288.371 207.751C288.35 207.761 288.335 207.763 288.33 207.755C288.342 207.755 288.36 207.749 288.371 207.751ZM306.499 73.891C305.514 74.9019 304.702 77.8557 305.832 75.7135C305.896 75.5921 306.391 74.1844 306.499 73.891Z" fill="black"/>
</svg>
