<svg width="2700" height="1117" viewBox="0 0 2700 1117" fill="none" xmlns="http://www.w3.org/2000/svg">
<path d="M3.98438 2.53711H865.984V1112.54H3.98438V2.53711Z" fill="url(#paint0_linear_3828_3624)"/>
<path d="M403.166 1116.47C274.759 1116.49 136.575 1116.57 3.98438 1116.52L0.00893521 1116.53L0.000838757 1112.54C0.0133817 1080.01 0.0339837 1047.83 0.0655997 1016.21C0.0852103 996.497 0.353871 997.844 0.389331 992.314C0.487179 977.198 0.170274 968.097 0.19353 957.079C0.30551 903.516 0.351098 853.411 0.452808 800.865C0.557327 746.735 1.39244 772.34 1.59588 753.532C1.9943 716.785 0.905313 748.042 0.660817 733.597C0.726138 691.47 0.84411 648.969 0.963552 606.767C1.06523 617.069 1.16475 627.374 1.25896 637.79C1.28137 619.396 1.44946 593.07 1.73406 623.873C1.81245 617.065 1.90412 610.709 1.98065 603.712C1.58407 601.794 1.55217 569.227 1.31707 566.25C1.0819 563.278 1.13594 581.588 1.11541 581.476C0.822499 580.262 1.22289 505.151 1.25555 499.735C1.34245 485.415 1.83408 497.97 1.80242 485.788C1.7483 464.836 0.747995 478.794 2.07781 450.432C1.64581 439.149 1.87016 438.165 1.90008 423.877C1.90381 421.997 1.65368 423.456 1.64715 422.629C1.46149 401.003 1.92664 417.626 1.95184 417.513C2.37987 415.55 2.18959 392.342 2.23065 387.453C2.74201 326.105 3.08821 281.154 3.20672 216.419C3.23192 202.426 3.05825 159.805 3.13104 146.264C3.20287 132.908 3.51128 140.074 3.65936 133.084C2.91744 121.88 2.83562 111.192 3.3244 86.0378C2.7832 76.6723 3.21976 77.8768 3.11151 59.9344C3.02183 45.0006 2.37262 18.9738 2.92596 2.53711C2.87557 21.3826 3.14143 19.4311 3.30194 40.6466C3.3551 47.7086 3.36646 121.352 3.91962 115.872C4.20796 113.014 3.94313 88.6062 3.99628 87.6627C4.3061 82.1707 4.68686 95.7939 4.55341 107.868C4.49088 104.859 4.42746 101.234 4.36493 97.9988C3.97766 125.119 5.46508 106.469 4.16522 127.081C4.00578 129.63 3.83953 128.642 3.67011 132.843C3.74018 133.707 3.91389 128.567 3.94501 132.994C3.97637 137.509 3.64654 146.084 3.9245 147.362C4.32871 149.273 4.16942 130.565 4.19306 129.157C4.19062 129.142 4.18817 129.127 4.18573 129.112C4.40034 116.665 4.42482 142.66 4.46308 143.902C4.71493 151.943 4.90886 146.459 5.11689 158.526C5.23541 165.409 5.16554 182.943 5.2038 189.413C5.24302 195.842 5.43423 185.84 5.47529 190.166C5.51634 194.491 5.37105 199.877 5.41865 204.955C5.43963 207.128 5.65289 207.017 5.66035 208.069C5.74241 219.351 5.29881 211.951 5.32587 222.182C5.34386 228.81 5.75738 251.056 5.88056 235.722C5.92347 243.093 5.95489 250.28 5.98847 257.613C6.05191 252.988 6.09502 248.209 6.16963 243.696C6.06805 257.496 6.433 263.739 6.46016 272.387C6.48722 281.039 6.04927 288.794 6.26289 298.31C6.71736 318.623 6.50738 268.326 6.58857 262.082C6.62049 259.647 6.96354 268.992 6.97334 270.432C7.01625 276.824 6.77093 284.386 6.78193 289.313C6.82299 306.954 7.14676 317.756 7.21211 334.569C7.43421 391.82 7.61433 462.84 7.68526 517.082C7.71139 537.282 7.34735 549.436 7.35762 558.502C7.38191 579.711 7.69915 582.309 7.71602 600.809C7.74215 628.343 7.4652 667.133 7.40547 690.117C7.36441 706.028 7.67142 720.432 7.67891 724.57C7.78903 782.085 7.78211 852.052 7.78584 899.711C7.7877 922.126 7.44271 932.771 7.45283 937.399C7.49576 957.296 7.79072 951.961 7.76094 968.092C7.7451 976.806 7.46194 978.435 7.45088 979.601C7.35756 989.87 7.72732 991.915 7.73946 999.927C7.79736 1038.07 7.6415 1075.05 7.56598 1112.54L3.98438 1108.96C11.7821 1108.97 19.6018 1108.98 27.4582 1108.99C30.7682 1108.99 30.4746 1109.16 32.6187 1109.15C41.8257 1109.11 37.5455 1108.85 47.1674 1108.83C67.1789 1108.79 87.7276 1108.83 108.943 1108.87C111.044 1108.87 111.989 1109.08 116.796 1109.08C121.611 1109.08 125.261 1108.88 132.82 1108.89C152.568 1108.92 172.056 1109.16 192.97 1109.17C196.43 1109.17 200.719 1108.92 205.909 1108.92C222.197 1108.93 246.312 1109.16 260.267 1109.17C306.308 1109.2 348.783 1109.05 392.153 1109.05C402.344 1109.05 411.375 1109.29 416.677 1109.29C428.631 1109.3 419.612 1109.08 431.722 1109.08C530.65 1109.07 629.959 1109.18 730.053 1109.16C769.361 1109.15 817.208 1108.92 855.199 1108.98C859.669 1108.99 863.104 1109.02 865.984 1109.06L862.509 1112.54C862.608 1105.24 862.767 1101.5 862.769 1093.49C862.772 1073.56 862.379 1069.95 862.34 1048.92C862.309 1032.15 862.702 1012.92 862.678 995.469C862.653 978.015 862.272 969.961 862.226 949.912C862.189 933.399 862.362 910.343 862.334 892.364C862.076 727.609 861.919 565.374 862.218 399.604C862.323 341.112 862.269 276.216 862.644 215.767C862.679 210.09 863.048 218.775 862.971 200.572C862.929 190.792 862.611 177.138 862.595 154.533C862.56 104.829 862.632 53.8997 862.728 2.53711L865.984 5.79321C778.461 5.6286 689.681 5.39012 603.561 5.47481C398.858 5.67733 186.709 8.30023 8.82514 4.46211C0.099709 4.27363 4.83127 3.34999 10.0588 3.08759C14.9102 3.27513 19.3953 3.49787 24.4721 3.70966C30.8652 2.55559 29.7379 2.85608 53.4341 2.95966C68.0228 3.02398 56.3698 2.53041 64.1463 2.39032C74.2273 2.20928 121.559 1.63921 112.456 2.4035C115.39 2.271 118.098 2.14405 120.957 2.01434C155.223 1.89862 188.516 1.70727 222.03 1.48797C227.82 1.44964 228.087 1.20982 234.067 1.17157C250.127 1.06709 262.878 1.22463 279.428 1.20038C288.418 1.18731 289.665 0.910182 301.439 0.927913C313.205 0.945755 312.948 1.31986 329.002 0.913265C318.545 0.443871 365.191 0.784464 381.78 0.755549C384.187 0.751817 403.933 0.330124 414.428 0.378595C424.959 0.426182 440.946 0.695569 457.232 0.542658C464.867 0.470803 469.501 0.142392 477.738 0.123711C483.531 0.110647 490.489 0.40256 497.824 0.414728C505.155 0.426854 521.02 0.187229 523.927 0.183281C534.42 0.16742 522.844 0.372652 530.02 0.382989C564.663 0.429648 604.913 0.539633 639.068 0.401544C643.267 0.384801 637.457 0.143 638.015 0.134941C666.52 -0.161741 651.305 0.153306 659.003 0.369806C666.459 0.579151 721.023 0.464955 721.425 0.0446091C723.101 0.570981 735.231 0.168947 738.381 0.153496C750.641 0.0938292 748.237 0.549241 760.121 0.40838C764.483 0.357078 755.991 0.049258 760.678 0.0582809C772.263 0.0806768 782.689 0.575193 798.11 0.624689C801.834 0.636821 803.045 0.416539 809.665 0.424005C816.293 0.431584 844.076 0.701073 831.255 0.236504C846.525 0.573882 850.743 0.437715 865.984 0.416849L868.1 0.412557L868.105 2.53711C868.107 4.1143 868.108 5.80954 868.107 7.64727C868.104 12.6116 867.749 19.003 867.859 29.5681C867.896 33.1411 868.238 33.0358 868.241 38.4147C868.248 50.7132 867.894 62.2998 867.88 77.9083C867.853 107.098 868.102 138.17 868.013 168.601C867.989 176.871 867.645 174.807 867.638 186.835C867.638 188.603 867.936 203.091 867.908 211.404C867.891 216.407 867.682 242.329 867.665 247.558C867.638 256.203 867.971 257.747 867.906 262.483C867.719 276.175 867.229 265.19 867.899 281.665C867.527 287.082 867.565 296.71 867.107 299.795C867.608 305.399 867.127 312.666 867.295 323.536C867.463 334.407 868.433 343.32 867.389 345.953C867.516 351.031 867.732 372.666 867.748 376.314C867.793 387.068 867.504 381.318 867.543 389.434C867.55 390.863 867.747 389.366 867.728 398.536C867.715 404.555 867.703 448.651 867.676 451.285C867.366 481.328 867.48 434.913 867.266 428.416C867.322 427.269 867.378 426.134 867.434 424.91C867.527 411.634 867.081 419.193 866.977 425.211C866.874 431.23 867.073 442.475 866.926 447.478C866.853 449.971 866.318 448.426 866.382 440.888C866.217 448.954 866.043 437.939 865.888 441.129C865.719 444.636 865.666 480.882 865.961 481.074C865.971 474.304 865.961 465.878 865.973 459.033C866.486 450.08 868.235 477.273 867.536 502.212C867.031 520.302 866.628 490.48 867.053 533.281C867.074 526.699 867.121 521.131 867.143 515.151C867.527 514.515 867.105 524.216 867.227 529.219C867.287 531.621 867.559 516.812 867.649 529.67C867.1 540.728 867.652 549.236 867.659 567.779C867.561 562.626 867.464 557.466 867.366 552.313C866.967 583.646 866.836 510.869 866.613 571.796C866.595 564.465 866.6 557.17 866.573 549.8C866.371 553.372 865.779 547.656 865.654 550.854C865.326 559.24 865.524 571.648 865.495 581.877C865.483 586.353 865.323 583.577 865.322 583.953C865.304 590.083 865.539 588.729 865.554 594.108C865.572 600.877 865.344 620.427 865.37 623.597C865.437 631.797 865.899 618.143 865.933 618.933C866.157 624.161 865.972 634.84 866.264 634.279C866.063 608.584 866.322 534.535 866.806 601.526C867.279 583.057 867.931 588.39 867.983 614.946C868.026 636.913 867.764 622.739 867.477 634.174C867.441 635.652 867.303 665.074 867.507 666.581C867.039 665.402 866.624 674.977 866.141 668.552C866.07 667.611 866.098 655.538 865.71 659.751C865.515 661.857 865.091 667.901 864.843 666.927C865.015 669.409 865.209 672.005 865.389 674.525C865.44 692.618 865.254 695.189 864.932 705.082C865.066 704.63 865.631 695.489 865.459 709.37C865.449 710.082 865.246 710.698 865.146 717.75C864.944 732.004 864.882 734.979 864.286 724.039C864.626 753.559 863.963 759.919 864.157 790.192C864.922 784.174 864.732 773.53 864.585 745.809C864.767 744.605 864.947 744.041 865.131 742.8C864.718 779.697 864.76 761.464 865.13 782.369C865.22 787.484 865.123 814.762 865.638 805.659C865.76 803.51 865.746 786.564 865.937 788.507C865.973 788.883 866.066 809.485 866.016 811.301C865.407 834.095 864.982 793.361 865.204 856.135C865.211 857.865 865.434 858.472 865.465 861.852C865.523 868.208 865.264 868.288 865.324 873.964C865.384 879.643 865.731 887.513 865.41 896.05C864.826 911.661 864.49 874.838 864.8 858.437C864.036 851.779 864.019 968.951 864.085 976.211C864.369 1007.91 864.205 955.158 864.417 952.44C864.506 951.311 865.642 951.873 864.905 938.523C864.687 934.573 864.399 951.081 864.279 941.231C864.158 931.376 864.493 935.28 864.516 934.566C864.596 932.114 864.472 921.633 864.519 920.273C865.239 899.359 866.326 901.276 864.72 928.999C865.083 941.074 865.662 913.358 865.908 928.367C866.207 946.609 865.69 959.924 865.666 962.219C865.39 989.708 866.146 958.011 865.905 991.587C865.77 1010.28 865.402 963.609 865.451 1006.3C865.493 1042.04 865.756 1022.74 866.354 1025.33C866.494 1025.95 866.666 1045.53 866.604 1018.86C866.448 1018.11 866.243 1016.69 866.099 1015C866.213 1008.46 866.993 997.554 867.02 994.085C867.15 977.121 866.745 977.94 867.222 967.936C866.7 975.081 867.015 963.453 866.905 959.089C866.499 942.888 866.348 964.132 866.869 927.765C866.625 932.505 866.385 936.792 866.141 941.381C866.133 937.019 866.124 932.654 866.116 928.292C866.654 921.785 866.586 898.609 867.128 919.596C867.282 894.359 867.164 884.158 866.745 878.628C866.665 877.577 866.633 873.785 866.626 869.33C866.508 870.173 866.144 871.251 866.099 870.549C865.707 864.268 866.385 854.531 866.644 857.85C866.656 854.734 866.671 852.267 866.677 851.396C866.717 845.875 866.951 856.699 867.032 852.224C867.058 850.749 867.007 835.192 867.102 834.891C867.712 833.016 867.272 858.616 867.626 807.208C867.071 805.967 867.193 829.844 866.603 823.713C865.97 817.13 866.82 803.703 866.042 800.769C866.17 799.678 866.277 799.196 866.422 798.256C866.083 777.459 866.731 777.183 866.874 770.829C867.153 758.491 867.111 701.768 866.55 752.7C866.494 745.252 866.468 737.648 866.419 730.237C867.579 728.545 867.117 733.058 867.295 697.363C867.334 689.503 867.844 686.944 867.238 679.234C867.833 680.281 867.474 657.031 867.546 654.861C868.015 640.944 868.668 692.618 867.617 699.244C868.026 707.967 867.485 707.936 867.557 717.674C867.661 731.743 867.766 733.697 867.367 750.398C867.929 766.836 867.614 686.046 868.361 735.022C869.039 779.551 869.445 1019.28 869.597 1112.54L869.605 1116.14L865.984 1116.15C856.643 1116.17 848.77 1116.18 842.711 1116.19C722.154 1116.39 658.768 1116.52 550.474 1116.49C539.792 1116.49 459.15 1116.54 475.91 1115.89C478.317 1115.8 513.003 1115.55 483.252 1115.04C489.304 1115.34 471.81 1115.54 470.343 1115.57C436.679 1116.29 456.166 1116.46 403.166 1116.47ZM246.05 1110.67C315.221 1110.82 264.404 1110.39 278.773 1109.4C269.895 1109.4 261.05 1109.4 252.173 1109.4C254.505 1109.46 256.807 1109.52 259.139 1109.58C259.149 1109.58 259.159 1109.58 259.169 1109.58C254.806 1109.94 250.412 1110.31 246.05 1110.67ZM6.50605 223.822C6.63532 226.52 6.76483 229.188 6.89131 232.111C6.85119 241.251 6.8118 250.355 6.77168 259.494C6.68397 258.403 6.59522 257.35 6.50752 256.259C6.51124 245.448 6.51531 234.67 6.50605 223.822ZM864.658 848.763C865.017 835.824 864.376 836.991 864.668 819.801C864.195 821.908 863.732 824.247 863.263 826.466C863.333 839.551 863.513 842.524 863.398 856.737C863.55 855.083 863.703 853.389 863.856 851.772C863.823 849.405 863.786 846.887 863.757 844.596C864.183 840.949 864.246 863.66 864.659 848.808C864.658 848.793 864.658 848.778 864.658 848.763ZM864.467 716.17C864.529 709.211 864.76 681.642 864.564 677.88C863.9 665.128 864.321 742.909 863.731 685.583C863.638 685.845 863.546 685.583 863.454 685.583C863.421 696.04 863.393 706.466 863.367 716.997C863.735 716.433 864.098 716.809 864.467 716.17ZM496.236 1110.63C506.931 1110.68 557.917 1110.37 541.296 1109.95C536.406 1109.83 513.644 1110.43 504.992 1110.4C499.39 1110.39 505.669 1110.06 494.611 1110.18C495.099 1110.32 495.402 1110.48 496.266 1110.63C496.256 1110.63 496.246 1110.63 496.236 1110.63ZM476.181 1112.55C487.239 1112.49 498.448 1112.42 509.581 1112.36C501.456 1111.98 485.471 1112.22 484.531 1111.69C487.576 1111.65 490.587 1111.61 493.633 1111.57C495.965 1111.69 498.26 1111.8 500.554 1111.92C510.108 1111.63 504.321 1111.49 522.114 1111.57C511.356 1110.77 509.358 1110.34 478.889 1111.15C484.644 1110.72 479.227 1109.3 462.339 1110.32C459.179 1110.5 472.374 1110.63 472.525 1110.66C474.554 1111.03 467.233 1111.27 469.41 1111.62C470.388 1111.78 478.437 1111.77 479.641 1111.99C480.197 1112.1 472.542 1112.41 476.181 1112.55ZM454.139 1110.67C457.562 1110.44 445.865 1109.91 435.709 1110.02C419.873 1110.19 444.848 1110.69 454.139 1110.67ZM6.50557 223.761C6.50573 223.782 6.50589 223.802 6.50605 223.822C6.50557 223.812 6.50508 223.802 6.50459 223.792C6.50491 223.781 6.50524 223.772 6.50557 223.761ZM864.207 752.053C864.016 743.854 864.044 731.718 863.74 732.614C863.799 728.627 863.858 724.596 863.918 720.608C863.826 720.646 863.735 720.721 863.644 720.759C863.587 732.757 863.53 744.719 863.472 756.717C863.717 755.212 863.962 753.82 864.207 752.053ZM864.42 621.34C864.451 606.259 864.037 618.903 863.837 615.593C863.638 612.283 863.8 598.847 863.513 600.427C863.502 609.305 863.491 618.564 863.481 627.554C863.792 625.184 864.11 623.529 864.42 621.31C864.42 621.32 864.42 621.33 864.42 621.34ZM6.17451 1072.29C6.0849 1082.52 5.76933 1078.35 6.13886 1098.55C6.13886 1098.53 6.13886 1098.52 6.13886 1098.5C6.39732 1079.28 6.62765 1054.54 6.37764 1033.33C6.0447 1046.3 6.31447 1056.2 6.17451 1072.29ZM863.726 884.541C863.976 888.86 864.185 868.743 863.953 864.305C863.577 857.122 863.347 877.958 863.726 884.541ZM3.95966 659.079C3.18983 643.516 2.32571 673.004 2.69891 703.883C2.73157 706.554 2.9764 686.618 3.12665 692.524C3.14144 693.121 3.1231 704.065 3.23016 706.772C3.33748 709.48 3.58658 706.636 3.6911 711.075C3.87377 718.864 3.5353 736.464 3.77509 742.294C3.80722 743.061 4.14037 732.146 4.15302 731.461C4.35457 720.253 3.91909 709.452 3.9162 707.72C3.90127 698.805 4.24268 700.152 4.32294 697.895C4.47387 693.644 4.32298 686.16 4.33417 685.633C4.6336 672.104 4.54792 703.018 4.67109 707.193C5.00329 718.438 5.31213 708.027 5.4997 734.997C5.51736 737.557 5.4973 768.214 5.87959 729.58C6.67646 805.439 6.33286 691.464 6.15742 679.089C6.07608 673.384 5.75065 682.022 5.60419 678.562C5.26923 670.663 5.21015 657.198 4.73798 658.402C3.74528 660.999 4.39574 678.682 4.2287 690.869C4.01313 689.59 3.80288 689.102 3.59198 686.732C3.87568 690.38 4.0176 660.207 3.96161 659.079C3.96096 659.079 3.96031 659.079 3.95966 659.079ZM5.09394 851.115C4.79438 868.155 5.42104 866.949 5.06269 882.56C5.62538 896.326 5.58761 869.173 5.61933 866.01C5.76116 851.568 6.37301 851.9 6.18476 837.123C5.82273 842.201 5.45691 846.339 5.09394 851.115ZM5.35224 702.905C5.66951 714.302 5.66414 693.908 5.7248 693.081C6.36839 684.075 6.24331 745.14 5.35224 702.905ZM562.615 1111.89C568.406 1111.91 564.731 1111.61 569.837 1111.52C574.951 1111.43 592.436 1111.69 591.998 1111.5C591.547 1111.31 559.506 1110.82 591.667 1110.71C590.578 1110.61 590.945 1110.53 590.419 1110.43C581.579 1110.43 572.659 1110.42 563.819 1110.42C568.671 1110.73 573.643 1111.05 578.307 1111.35C573.342 1111.59 570.552 1111.28 570.288 1111.28C570.288 1111.28 570.288 1111.28 570.288 1111.28C561.037 1111.3 549.613 1111.84 562.615 1111.89ZM106.761 1110.94C105.031 1111.7 118.684 1110.85 124.289 1110.76C129.893 1110.66 137.593 1110.94 134.7 1110.62C125.635 1110.39 106.949 1110.85 106.761 1110.94C106.761 1110.94 106.761 1110.94 106.761 1110.94ZM5.0954 943.688C5.28002 957.971 5.47775 955.704 5.25214 973.177C5.43598 972.5 5.62384 971.823 5.80488 971.146C5.80861 957.267 5.27493 958.242 5.48945 942.184C5.52491 939.551 5.95118 945.188 5.81416 933.307C5.58665 936.765 5.33412 940.268 5.0954 943.688ZM5.77705 1014.48C5.74898 998.076 4.26136 985.069 4.93232 1015.27C5.0326 1019.75 5.7985 1026.81 5.77705 1014.48ZM411.336 1111.93C439.234 1111.97 407.541 1111.73 400.278 1111.5C465.224 1111.32 392.946 1111.57 386.466 1110.81C378.53 1111.02 363.678 1111.52 380.177 1111.65C387.061 1111.71 384.548 1111.48 384.962 1111.48C397.637 1111.54 396.102 1111.91 411.336 1111.93ZM5.05732 821.506C5.06852 822.56 5.32533 820.912 5.37665 824.26C5.42761 827.611 5.24787 835.198 5.40546 835.95C5.56404 836.699 5.68702 821.481 5.57148 816.812C5.45483 812.148 4.95843 811.99 5.05732 821.506ZM4.4245 928.568C4.6093 942.506 5.55539 919.714 5.55097 916.682C5.50151 890.05 4.72406 929.358 4.4245 928.568ZM346.551 1113.54C380.18 1113.06 355.58 1112.22 334.515 1111.72C331.733 1111.82 328.879 1111.92 326.135 1112.03C338.774 1111.41 360.923 1110.8 311.647 1111.34C338.618 1111.48 316.033 1111.65 315.859 1111.68C312.888 1112.82 352.841 1112.29 346.521 1113.54C346.531 1113.54 346.541 1113.54 346.551 1113.54ZM5.32783 776.175C5.32404 761.539 5.12802 723.488 4.63349 741.24C4.86488 752.899 5.09644 764.517 5.32783 776.175ZM866.918 1081.42C867.201 1069.46 867.196 1058.43 867.177 1043.69C866.766 1056.97 866.718 1048.24 866.617 1043.76C866.466 1036.97 866.478 1053.42 866.451 1053.47C866.06 1053.17 865.999 1042.68 866.008 1066.56C865.872 1060.65 865.735 1054.83 865.599 1048.92C865.582 1067.13 865.327 1071.41 865.015 1082.96C865.776 1071.75 865.3 1086.51 865.679 1099.9C865.868 1106.58 866.773 1087.51 866.918 1081.38C866.918 1081.39 866.918 1081.41 866.918 1081.42ZM381.306 1113.69C384.766 1113.55 387.933 1113.37 391.281 1113.21C394.929 1113.2 398.585 1113.18 402.234 1113.17C402.685 1113.29 403.061 1113.42 403.588 1113.53C408.396 1113.57 406.522 1113.4 407.951 1113.38C407.951 1113.38 407.951 1113.38 407.951 1113.38C428.443 1113.16 436.835 1113.19 452.891 1113.56C452.891 1113.19 452.891 1112.82 452.891 1112.45C449.282 1112.48 445.636 1112.52 442.028 1112.55C440.11 1112.75 438.184 1112.95 436.266 1113.15C432.091 1113.04 427.953 1112.93 423.778 1112.82C420.433 1112.89 416.413 1112.97 413.517 1113.04C396.855 1112 434.724 1112.7 435.062 1112.27C435.287 1112 397.149 1112.01 391.657 1112.2C390.867 1112.23 399.108 1113 385.157 1112.6C382.976 1112.53 382.208 1110.86 367.163 1112.22C365.02 1112.41 372.506 1113.45 381.306 1113.69ZM519.782 1114.23C498.341 1113.16 577.474 1114.29 543.327 1113.41C553.068 1112.92 551.261 1112.92 541.447 1112.49C540.583 1112.45 547.363 1112.31 546.788 1112.3C537.609 1112.06 526.552 1112.18 526.477 1111.75C523.995 1111.77 521.661 1111.79 519.18 1111.81C529.517 1112.23 513.079 1112.5 506.722 1112.85C503.827 1113.01 510.482 1113.06 508.046 1113.2C507.144 1113.25 497.852 1113.14 497.47 1113.29C496.68 1113.62 502.517 1114.06 512.409 1114.3C512.409 1114.3 512.409 1114.3 512.409 1114.3C514.89 1114.28 517.301 1114.25 519.782 1114.23ZM61.5355 1113.34C57.8868 1112.75 43.2611 1112.58 71.36 1112.29C69.9696 1112.17 68.5379 1112.06 67.1473 1111.94C62.4089 1111.95 57.8183 1111.96 53.0049 1111.97C38.5609 1113.71 12.1971 1111.75 29.0831 1112.98C30.9263 1113.12 42.1657 1112.97 31.069 1113.33C31.0842 1113.33 31.099 1113.33 31.1141 1113.33C46.6074 1113.22 48.5595 1113.01 61.5355 1113.34ZM165.242 1112.93C200.977 1111.68 115.862 1112.23 130.081 1112.56C131.36 1112.59 168.025 1112.33 165.242 1112.93ZM2.51043 987.049C2.48898 1003.07 3.16065 1004.13 3.40253 1002.52C3.64513 1000.9 3.39997 989.804 3.43817 988.373C3.56415 983.708 3.64737 993.601 3.82001 987.545C3.87607 985.54 4.11553 957.635 4.08661 956.356C3.92595 949.257 3.37173 959.636 3.30829 957.605C3.1003 950.986 3.38861 941.997 3.09393 940.078C2.46517 935.941 3.12521 952.699 3.13592 955.529C3.16579 964.068 2.81183 963.322 2.7409 969.717C2.67012 976.106 2.79137 980.282 2.76629 985.92C2.75792 987.796 2.51267 986.236 2.51043 987.049ZM3.9289 1040.02C3.42044 1023.29 2.86746 1064.03 2.98651 1068.86C3.34019 1083.08 4.17153 1048.03 3.9289 1040.02ZM466.1 1112.61C450.796 1112.98 486.449 1113.28 496.642 1113.13C494.752 1112.98 471.365 1112.49 466.1 1112.61ZM337.223 1113.54C351.292 1113.42 332.635 1112.59 320.899 1112.6C314.019 1113.15 320.493 1113.04 328.166 1113.06C335.83 1113.09 326.248 1113.62 337.223 1113.54ZM3.11737 813.277C3.1087 816.312 3.5598 865.23 3.74725 837.123C3.76125 834.979 3.68183 800.737 3.59784 798.141C3.42799 792.919 3.14163 805.454 3.11737 813.277ZM269.746 1114.34C277.193 1113.87 284.52 1113.88 277.675 1113.32C277.665 1113.32 277.654 1113.32 277.644 1113.32C296.488 1113.15 297.323 1114.29 301.386 1114.26C315.595 1114.18 302.133 1113.37 311.045 1113.1C290.32 1113.35 296.263 1112.81 280.503 1112.77C276.967 1112.77 262.818 1113.09 260.749 1113.29C258.684 1113.5 265.909 1114.1 269.746 1114.34ZM2.99969 744.174C2.81881 760.686 3.58391 775.804 3.70526 752.9C3.76499 741.728 3.10981 734.093 2.99969 744.174ZM867.16 692.353C866.96 694.873 866.76 697.469 866.561 700.177C866.513 694.086 866.463 687.988 866.414 681.897C866.477 686.712 866.54 691.533 866.602 696.386C866.672 684.95 867.037 679.722 867.16 692.323C867.16 692.333 867.16 692.343 867.16 692.353ZM867.313 285.246C867.506 280.13 866.908 270.05 866.862 271.329C866.514 280.956 867.045 292.346 867.313 285.246ZM488.713 1114.43C507.732 1114.51 494.654 1113.54 482.996 1113.48C490.128 1113.66 477.921 1114.38 488.713 1114.43ZM867.266 428.416C867.182 430.123 867.099 431.844 867.015 433.757C867.131 427.741 867.209 426.698 867.266 428.416ZM2.25848 821.055C2.18385 823.959 2.12222 845.432 2.21453 848.332C2.40864 854.351 2.94561 837.606 2.78045 827.75C2.76272 826.659 2.33314 818.166 2.25848 821.1C2.25848 821.085 2.25848 821.07 2.25848 821.055ZM867.533 666.626C867.524 666.66 867.515 666.642 867.507 666.581C867.515 666.603 867.524 666.597 867.533 666.626ZM721.26 0.000175238C721.376 0.0152626 721.439 0.0302365 721.425 0.0446091C721.38 0.0304964 721.289 0.0156484 721.26 0.000175238ZM1.43279 972.5C0.506118 979.647 0.999002 996.122 1.45721 983.107C1.48129 982.378 1.43097 974.233 1.43279 972.5Z" fill="#424242"/>
<g clip-path="url(#clip0_3828_3624)">
<path d="M939.984 2.53711H2695.98V1112.54H939.984V2.53711Z" fill="url(#paint1_linear_3828_3624)"/>
<circle cx="1848.02" cy="-1.50609" r="12.9568" fill="#D9D9D9" fill-opacity="0.42"/>
<circle cx="1376.27" cy="-1.50609" r="12.9568" fill="#D9D9D9" fill-opacity="0.42"/>
<circle cx="2319.77" cy="-1.50609" r="12.9568" fill="#D9D9D9" fill-opacity="0.42"/>
<ellipse cx="1848.61" cy="292.672" rx="12.9568" ry="13.2513" fill="#D9D9D9" fill-opacity="0.42"/>
<ellipse cx="1376.86" cy="292.672" rx="12.9568" ry="13.2513" fill="#D9D9D9" fill-opacity="0.42"/>
<ellipse cx="2320.36" cy="292.672" rx="12.9568" ry="13.2513" fill="#D9D9D9" fill-opacity="0.42"/>
<circle cx="1022.32" cy="-1.50609" r="12.9568" fill="#D9D9D9" fill-opacity="0.42"/>
<circle cx="1965.81" cy="-1.50609" r="12.9568" fill="#D9D9D9" fill-opacity="0.42"/>
<circle cx="1494.07" cy="-1.50609" r="12.9568" fill="#D9D9D9" fill-opacity="0.42"/>
<circle cx="2437.55" cy="-1.50609" r="12.9568" fill="#D9D9D9" fill-opacity="0.42"/>
<circle cx="1022.61" cy="292.672" r="13.2513" fill="#D9D9D9" fill-opacity="0.42"/>
<circle cx="1966.1" cy="292.672" r="13.2513" fill="#D9D9D9" fill-opacity="0.42"/>
<circle cx="1494.36" cy="292.672" r="13.2513" fill="#D9D9D9" fill-opacity="0.42"/>
<circle cx="2437.85" cy="292.672" r="13.2513" fill="#D9D9D9" fill-opacity="0.42"/>
<circle cx="963.426" cy="-1.50609" r="12.9568" fill="#D9D9D9" fill-opacity="0.42"/>
<circle cx="1906.92" cy="-1.50609" r="12.9568" fill="#D9D9D9" fill-opacity="0.42"/>
<circle cx="1435.17" cy="-1.50609" r="12.9568" fill="#D9D9D9" fill-opacity="0.42"/>
<circle cx="2378.66" cy="-1.50609" r="12.9568" fill="#D9D9D9" fill-opacity="0.42"/>
<ellipse cx="964.015" cy="292.672" rx="12.9568" ry="13.2513" fill="#D9D9D9" fill-opacity="0.42"/>
<ellipse cx="1907.5" cy="292.672" rx="12.9568" ry="13.2513" fill="#D9D9D9" fill-opacity="0.42"/>
<ellipse cx="1435.76" cy="292.672" rx="12.9568" ry="13.2513" fill="#D9D9D9" fill-opacity="0.42"/>
<ellipse cx="2379.25" cy="292.672" rx="12.9568" ry="13.2513" fill="#D9D9D9" fill-opacity="0.42"/>
<circle cx="1081.21" cy="-1.50609" r="12.9568" fill="#D9D9D9" fill-opacity="0.42"/>
<circle cx="2024.71" cy="-1.50609" r="12.9568" fill="#D9D9D9" fill-opacity="0.42"/>
<circle cx="1552.96" cy="-1.50609" r="12.9568" fill="#D9D9D9" fill-opacity="0.42"/>
<circle cx="2496.45" cy="-1.50609" r="12.9568" fill="#D9D9D9" fill-opacity="0.42"/>
<circle cx="1081.51" cy="292.672" r="13.2513" fill="#D9D9D9" fill-opacity="0.42"/>
<circle cx="2025" cy="292.672" r="13.2513" fill="#D9D9D9" fill-opacity="0.42"/>
<circle cx="1553.25" cy="292.672" r="13.2513" fill="#D9D9D9" fill-opacity="0.42"/>
<circle cx="2496.74" cy="292.672" r="13.2513" fill="#D9D9D9" fill-opacity="0.42"/>
<circle cx="1848.02" cy="57.3889" r="12.9568" fill="#D9D9D9" fill-opacity="0.42"/>
<circle cx="1376.27" cy="57.3889" r="12.9568" fill="#D9D9D9" fill-opacity="0.42"/>
<circle cx="2319.77" cy="57.3889" r="12.9568" fill="#D9D9D9" fill-opacity="0.42"/>
<circle cx="1848.61" cy="351.272" r="12.9568" fill="#D9D9D9" fill-opacity="0.42"/>
<circle cx="1376.86" cy="351.272" r="12.9568" fill="#D9D9D9" fill-opacity="0.42"/>
<circle cx="2320.36" cy="351.272" r="12.9568" fill="#D9D9D9" fill-opacity="0.42"/>
<circle cx="1022.32" cy="57.3889" r="12.9568" fill="#D9D9D9" fill-opacity="0.42"/>
<circle cx="1965.81" cy="57.3889" r="12.9568" fill="#D9D9D9" fill-opacity="0.42"/>
<circle cx="1494.07" cy="57.3889" r="12.9568" fill="#D9D9D9" fill-opacity="0.42"/>
<circle cx="2437.55" cy="57.3889" r="12.9568" fill="#D9D9D9" fill-opacity="0.42"/>
<ellipse cx="1022.61" cy="351.272" rx="13.2513" ry="12.9568" fill="#D9D9D9" fill-opacity="0.42"/>
<ellipse cx="1966.1" cy="351.272" rx="13.2513" ry="12.9568" fill="#D9D9D9" fill-opacity="0.42"/>
<ellipse cx="1494.36" cy="351.272" rx="13.2513" ry="12.9568" fill="#D9D9D9" fill-opacity="0.42"/>
<ellipse cx="2437.85" cy="351.272" rx="13.2513" ry="12.9568" fill="#D9D9D9" fill-opacity="0.42"/>
<circle cx="963.426" cy="57.3889" r="12.9568" fill="#D9D9D9" fill-opacity="0.42"/>
<circle cx="1906.92" cy="57.3889" r="12.9568" fill="#D9D9D9" fill-opacity="0.42"/>
<circle cx="1435.17" cy="57.3889" r="12.9568" fill="#D9D9D9" fill-opacity="0.42"/>
<circle cx="2378.66" cy="57.3889" r="12.9568" fill="#D9D9D9" fill-opacity="0.42"/>
<circle cx="964.015" cy="351.272" r="12.9568" fill="#D9D9D9" fill-opacity="0.42"/>
<circle cx="1907.5" cy="351.272" r="12.9568" fill="#D9D9D9" fill-opacity="0.42"/>
<circle cx="1435.76" cy="351.272" r="12.9568" fill="#D9D9D9" fill-opacity="0.42"/>
<circle cx="2379.25" cy="351.272" r="12.9568" fill="#D9D9D9" fill-opacity="0.42"/>
<circle cx="1081.21" cy="57.3889" r="12.9568" fill="#D9D9D9" fill-opacity="0.42"/>
<circle cx="2024.71" cy="57.3889" r="12.9568" fill="#D9D9D9" fill-opacity="0.42"/>
<circle cx="1552.96" cy="57.3889" r="12.9568" fill="#D9D9D9" fill-opacity="0.42"/>
<circle cx="2496.45" cy="57.3889" r="12.9568" fill="#D9D9D9" fill-opacity="0.42"/>
<ellipse cx="1081.51" cy="351.272" rx="13.2513" ry="12.9568" fill="#D9D9D9" fill-opacity="0.42"/>
<ellipse cx="2025" cy="351.272" rx="13.2513" ry="12.9568" fill="#D9D9D9" fill-opacity="0.42"/>
<ellipse cx="1553.25" cy="351.272" rx="13.2513" ry="12.9568" fill="#D9D9D9" fill-opacity="0.42"/>
<ellipse cx="2496.74" cy="351.272" rx="13.2513" ry="12.9568" fill="#D9D9D9" fill-opacity="0.42"/>
<circle cx="1848.02" cy="116.283" r="12.9568" fill="#D9D9D9" fill-opacity="0.42"/>
<circle cx="1376.27" cy="116.283" r="12.9568" fill="#D9D9D9" fill-opacity="0.42"/>
<circle cx="2319.77" cy="116.283" r="12.9568" fill="#D9D9D9" fill-opacity="0.42"/>
<circle cx="1848.61" cy="410.167" r="12.9568" fill="#D9D9D9" fill-opacity="0.42"/>
<circle cx="1376.86" cy="410.167" r="12.9568" fill="#D9D9D9" fill-opacity="0.42"/>
<circle cx="2320.36" cy="410.167" r="12.9568" fill="#D9D9D9" fill-opacity="0.42"/>
<circle cx="1022.32" cy="116.283" r="12.9568" fill="#D9D9D9" fill-opacity="0.42"/>
<circle cx="1965.81" cy="116.283" r="12.9568" fill="#D9D9D9" fill-opacity="0.42"/>
<circle cx="1494.07" cy="116.283" r="12.9568" fill="#D9D9D9" fill-opacity="0.42"/>
<circle cx="2437.55" cy="116.283" r="12.9568" fill="#D9D9D9" fill-opacity="0.42"/>
<ellipse cx="1022.61" cy="410.167" rx="13.2513" ry="12.9568" fill="#D9D9D9" fill-opacity="0.42"/>
<ellipse cx="1966.1" cy="410.167" rx="13.2513" ry="12.9568" fill="#D9D9D9" fill-opacity="0.42"/>
<ellipse cx="1494.36" cy="410.167" rx="13.2513" ry="12.9568" fill="#D9D9D9" fill-opacity="0.42"/>
<ellipse cx="2437.85" cy="410.167" rx="13.2513" ry="12.9568" fill="#D9D9D9" fill-opacity="0.42"/>
<circle cx="963.426" cy="116.283" r="12.9568" fill="#D9D9D9" fill-opacity="0.42"/>
<circle cx="1906.92" cy="116.283" r="12.9568" fill="#D9D9D9" fill-opacity="0.42"/>
<circle cx="1435.17" cy="116.283" r="12.9568" fill="#D9D9D9" fill-opacity="0.42"/>
<circle cx="2378.66" cy="116.283" r="12.9568" fill="#D9D9D9" fill-opacity="0.42"/>
<circle cx="964.015" cy="410.167" r="12.9568" fill="#D9D9D9" fill-opacity="0.42"/>
<circle cx="1907.5" cy="410.167" r="12.9568" fill="#D9D9D9" fill-opacity="0.42"/>
<circle cx="1435.76" cy="410.167" r="12.9568" fill="#D9D9D9" fill-opacity="0.42"/>
<circle cx="2379.25" cy="410.167" r="12.9568" fill="#D9D9D9" fill-opacity="0.42"/>
<circle cx="1081.21" cy="116.283" r="12.9568" fill="#D9D9D9" fill-opacity="0.42"/>
<circle cx="2024.71" cy="116.283" r="12.9568" fill="#D9D9D9" fill-opacity="0.42"/>
<circle cx="1552.96" cy="116.283" r="12.9568" fill="#D9D9D9" fill-opacity="0.42"/>
<circle cx="2496.45" cy="116.283" r="12.9568" fill="#D9D9D9" fill-opacity="0.42"/>
<ellipse cx="1081.51" cy="410.167" rx="13.2513" ry="12.9568" fill="#D9D9D9" fill-opacity="0.42"/>
<ellipse cx="2025" cy="410.167" rx="13.2513" ry="12.9568" fill="#D9D9D9" fill-opacity="0.42"/>
<ellipse cx="1553.25" cy="410.167" rx="13.2513" ry="12.9568" fill="#D9D9D9" fill-opacity="0.42"/>
<ellipse cx="2496.74" cy="410.167" rx="13.2513" ry="12.9568" fill="#D9D9D9" fill-opacity="0.42"/>
<circle cx="1848.02" cy="175.177" r="12.9568" fill="#D9D9D9" fill-opacity="0.42"/>
<circle cx="1376.27" cy="175.177" r="12.9568" fill="#D9D9D9" fill-opacity="0.42"/>
<circle cx="2319.77" cy="175.177" r="12.9568" fill="#D9D9D9" fill-opacity="0.42"/>
<circle cx="1848.61" cy="469.061" r="12.9568" fill="#D9D9D9" fill-opacity="0.42"/>
<circle cx="1376.86" cy="469.061" r="12.9568" fill="#D9D9D9" fill-opacity="0.42"/>
<circle cx="2320.36" cy="469.061" r="12.9568" fill="#D9D9D9" fill-opacity="0.42"/>
<circle cx="1022.32" cy="175.177" r="12.9568" fill="#D9D9D9" fill-opacity="0.42"/>
<circle cx="1965.81" cy="175.177" r="12.9568" fill="#D9D9D9" fill-opacity="0.42"/>
<circle cx="1494.07" cy="175.177" r="12.9568" fill="#D9D9D9" fill-opacity="0.42"/>
<circle cx="2437.55" cy="175.177" r="12.9568" fill="#D9D9D9" fill-opacity="0.42"/>
<ellipse cx="1022.61" cy="469.061" rx="13.2513" ry="12.9568" fill="#D9D9D9" fill-opacity="0.42"/>
<ellipse cx="1966.1" cy="469.061" rx="13.2513" ry="12.9568" fill="#D9D9D9" fill-opacity="0.42"/>
<ellipse cx="1494.36" cy="469.061" rx="13.2513" ry="12.9568" fill="#D9D9D9" fill-opacity="0.42"/>
<ellipse cx="2437.85" cy="469.061" rx="13.2513" ry="12.9568" fill="#D9D9D9" fill-opacity="0.42"/>
<circle cx="963.426" cy="175.177" r="12.9568" fill="#D9D9D9" fill-opacity="0.42"/>
<circle cx="1906.92" cy="175.177" r="12.9568" fill="#D9D9D9" fill-opacity="0.42"/>
<circle cx="1435.17" cy="175.177" r="12.9568" fill="#D9D9D9" fill-opacity="0.42"/>
<circle cx="2378.66" cy="175.177" r="12.9568" fill="#D9D9D9" fill-opacity="0.42"/>
<circle cx="964.015" cy="469.061" r="12.9568" fill="#D9D9D9" fill-opacity="0.42"/>
<circle cx="1907.5" cy="469.061" r="12.9568" fill="#D9D9D9" fill-opacity="0.42"/>
<circle cx="1435.76" cy="469.061" r="12.9568" fill="#D9D9D9" fill-opacity="0.42"/>
<circle cx="2379.25" cy="469.061" r="12.9568" fill="#D9D9D9" fill-opacity="0.42"/>
<circle cx="1081.21" cy="175.177" r="12.9568" fill="#D9D9D9" fill-opacity="0.42"/>
<circle cx="2024.71" cy="175.177" r="12.9568" fill="#D9D9D9" fill-opacity="0.42"/>
<circle cx="1552.96" cy="175.177" r="12.9568" fill="#D9D9D9" fill-opacity="0.42"/>
<circle cx="2496.45" cy="175.177" r="12.9568" fill="#D9D9D9" fill-opacity="0.42"/>
<ellipse cx="1081.51" cy="469.061" rx="13.2513" ry="12.9568" fill="#D9D9D9" fill-opacity="0.42"/>
<ellipse cx="2025" cy="469.061" rx="13.2513" ry="12.9568" fill="#D9D9D9" fill-opacity="0.42"/>
<ellipse cx="1553.25" cy="469.061" rx="13.2513" ry="12.9568" fill="#D9D9D9" fill-opacity="0.42"/>
<ellipse cx="2496.74" cy="469.061" rx="13.2513" ry="12.9568" fill="#D9D9D9" fill-opacity="0.42"/>
<ellipse cx="1848.02" cy="233.777" rx="12.9568" ry="13.2513" fill="#D9D9D9" fill-opacity="0.42"/>
<ellipse cx="1376.27" cy="233.777" rx="12.9568" ry="13.2513" fill="#D9D9D9" fill-opacity="0.42"/>
<ellipse cx="2319.77" cy="233.777" rx="12.9568" ry="13.2513" fill="#D9D9D9" fill-opacity="0.42"/>
<circle cx="1848.61" cy="527.956" r="12.9568" fill="#D9D9D9" fill-opacity="0.42"/>
<circle cx="1376.86" cy="527.956" r="12.9568" fill="#D9D9D9" fill-opacity="0.42"/>
<circle cx="2320.36" cy="527.956" r="12.9568" fill="#D9D9D9" fill-opacity="0.42"/>
<ellipse cx="1022.32" cy="233.777" rx="12.9568" ry="13.2513" fill="#D9D9D9" fill-opacity="0.42"/>
<ellipse cx="1965.81" cy="233.777" rx="12.9568" ry="13.2513" fill="#D9D9D9" fill-opacity="0.42"/>
<ellipse cx="1494.07" cy="233.777" rx="12.9568" ry="13.2513" fill="#D9D9D9" fill-opacity="0.42"/>
<ellipse cx="2437.55" cy="233.777" rx="12.9568" ry="13.2513" fill="#D9D9D9" fill-opacity="0.42"/>
<ellipse cx="1022.61" cy="527.956" rx="13.2513" ry="12.9568" fill="#D9D9D9" fill-opacity="0.42"/>
<ellipse cx="1966.1" cy="527.956" rx="13.2513" ry="12.9568" fill="#D9D9D9" fill-opacity="0.42"/>
<ellipse cx="1494.36" cy="527.956" rx="13.2513" ry="12.9568" fill="#D9D9D9" fill-opacity="0.42"/>
<ellipse cx="2437.85" cy="527.956" rx="13.2513" ry="12.9568" fill="#D9D9D9" fill-opacity="0.42"/>
<ellipse cx="963.426" cy="233.777" rx="12.9568" ry="13.2513" fill="#D9D9D9" fill-opacity="0.42"/>
<ellipse cx="1906.92" cy="233.777" rx="12.9568" ry="13.2513" fill="#D9D9D9" fill-opacity="0.42"/>
<ellipse cx="1435.17" cy="233.777" rx="12.9568" ry="13.2513" fill="#D9D9D9" fill-opacity="0.42"/>
<ellipse cx="2378.66" cy="233.777" rx="12.9568" ry="13.2513" fill="#D9D9D9" fill-opacity="0.42"/>
<circle cx="964.015" cy="527.956" r="12.9568" fill="#D9D9D9" fill-opacity="0.42"/>
<circle cx="1907.5" cy="527.956" r="12.9568" fill="#D9D9D9" fill-opacity="0.42"/>
<circle cx="1435.76" cy="527.956" r="12.9568" fill="#D9D9D9" fill-opacity="0.42"/>
<circle cx="2379.25" cy="527.956" r="12.9568" fill="#D9D9D9" fill-opacity="0.42"/>
<ellipse cx="1081.21" cy="233.777" rx="12.9568" ry="13.2513" fill="#D9D9D9" fill-opacity="0.42"/>
<ellipse cx="2024.71" cy="233.777" rx="12.9568" ry="13.2513" fill="#D9D9D9" fill-opacity="0.42"/>
<ellipse cx="1552.96" cy="233.777" rx="12.9568" ry="13.2513" fill="#D9D9D9" fill-opacity="0.42"/>
<ellipse cx="2496.45" cy="233.777" rx="12.9568" ry="13.2513" fill="#D9D9D9" fill-opacity="0.42"/>
<ellipse cx="1081.51" cy="527.956" rx="13.2513" ry="12.9568" fill="#D9D9D9" fill-opacity="0.42"/>
<ellipse cx="2025" cy="527.956" rx="13.2513" ry="12.9568" fill="#D9D9D9" fill-opacity="0.42"/>
<ellipse cx="1553.25" cy="527.956" rx="13.2513" ry="12.9568" fill="#D9D9D9" fill-opacity="0.42"/>
<ellipse cx="2496.74" cy="527.956" rx="13.2513" ry="12.9568" fill="#D9D9D9" fill-opacity="0.42"/>
<ellipse cx="1139.81" cy="-1.50609" rx="13.2513" ry="12.9568" fill="#D9D9D9" fill-opacity="0.42"/>
<ellipse cx="2083.31" cy="-1.50609" rx="13.2513" ry="12.9568" fill="#D9D9D9" fill-opacity="0.42"/>
<ellipse cx="1611.56" cy="-1.50609" rx="13.2513" ry="12.9568" fill="#D9D9D9" fill-opacity="0.42"/>
<ellipse cx="2555.05" cy="-1.50609" rx="13.2513" ry="12.9568" fill="#D9D9D9" fill-opacity="0.42"/>
<ellipse cx="1140.11" cy="292.672" rx="12.9568" ry="13.2513" fill="#D9D9D9" fill-opacity="0.42"/>
<ellipse cx="2083.6" cy="292.672" rx="12.9568" ry="13.2513" fill="#D9D9D9" fill-opacity="0.42"/>
<ellipse cx="1611.86" cy="292.672" rx="12.9568" ry="13.2513" fill="#D9D9D9" fill-opacity="0.42"/>
<ellipse cx="2555.34" cy="292.672" rx="12.9568" ry="13.2513" fill="#D9D9D9" fill-opacity="0.42"/>
<circle cx="1257.31" cy="-1.50609" r="12.9568" fill="#D9D9D9" fill-opacity="0.42"/>
<circle cx="2200.8" cy="-1.50609" r="12.9568" fill="#D9D9D9" fill-opacity="0.42"/>
<circle cx="1729.05" cy="-1.50609" r="12.9568" fill="#D9D9D9" fill-opacity="0.42"/>
<circle cx="2672.55" cy="-1.50609" r="12.9568" fill="#D9D9D9" fill-opacity="0.42"/>
<ellipse cx="1257.89" cy="292.672" rx="12.9568" ry="13.2513" fill="#D9D9D9" fill-opacity="0.42"/>
<ellipse cx="2201.39" cy="292.672" rx="12.9568" ry="13.2513" fill="#D9D9D9" fill-opacity="0.42"/>
<ellipse cx="1729.64" cy="292.672" rx="12.9568" ry="13.2513" fill="#D9D9D9" fill-opacity="0.42"/>
<ellipse cx="2673.13" cy="292.672" rx="12.9568" ry="13.2513" fill="#D9D9D9" fill-opacity="0.42"/>
<ellipse cx="1198.71" cy="-1.50609" rx="13.2513" ry="12.9568" fill="#D9D9D9" fill-opacity="0.42"/>
<ellipse cx="2142.2" cy="-1.50609" rx="13.2513" ry="12.9568" fill="#D9D9D9" fill-opacity="0.42"/>
<ellipse cx="1670.45" cy="-1.50609" rx="13.2513" ry="12.9568" fill="#D9D9D9" fill-opacity="0.42"/>
<ellipse cx="2613.94" cy="-1.50609" rx="13.2513" ry="12.9568" fill="#D9D9D9" fill-opacity="0.42"/>
<ellipse cx="1199" cy="292.672" rx="12.9568" ry="13.2513" fill="#D9D9D9" fill-opacity="0.42"/>
<ellipse cx="2142.49" cy="292.672" rx="12.9568" ry="13.2513" fill="#D9D9D9" fill-opacity="0.42"/>
<ellipse cx="1670.75" cy="292.672" rx="12.9568" ry="13.2513" fill="#D9D9D9" fill-opacity="0.42"/>
<ellipse cx="2614.24" cy="292.672" rx="12.9568" ry="13.2513" fill="#D9D9D9" fill-opacity="0.42"/>
<circle cx="1316.2" cy="-1.50609" r="12.9568" fill="#D9D9D9" fill-opacity="0.42"/>
<circle cx="2259.7" cy="-1.50609" r="12.9568" fill="#D9D9D9" fill-opacity="0.42"/>
<circle cx="1787.95" cy="-1.50609" r="12.9568" fill="#D9D9D9" fill-opacity="0.42"/>
<ellipse cx="1316.79" cy="292.672" rx="12.9568" ry="13.2513" fill="#D9D9D9" fill-opacity="0.42"/>
<ellipse cx="2260.28" cy="292.672" rx="12.9568" ry="13.2513" fill="#D9D9D9" fill-opacity="0.42"/>
<ellipse cx="1788.54" cy="292.672" rx="12.9568" ry="13.2513" fill="#D9D9D9" fill-opacity="0.42"/>
<ellipse cx="1139.81" cy="57.3889" rx="13.2513" ry="12.9568" fill="#D9D9D9" fill-opacity="0.42"/>
<ellipse cx="2083.31" cy="57.3889" rx="13.2513" ry="12.9568" fill="#D9D9D9" fill-opacity="0.42"/>
<ellipse cx="1611.56" cy="57.3889" rx="13.2513" ry="12.9568" fill="#D9D9D9" fill-opacity="0.42"/>
<ellipse cx="2555.05" cy="57.3889" rx="13.2513" ry="12.9568" fill="#D9D9D9" fill-opacity="0.42"/>
<circle cx="1140.11" cy="351.272" r="12.9568" fill="#D9D9D9" fill-opacity="0.42"/>
<circle cx="2083.6" cy="351.272" r="12.9568" fill="#D9D9D9" fill-opacity="0.42"/>
<circle cx="1611.86" cy="351.272" r="12.9568" fill="#D9D9D9" fill-opacity="0.42"/>
<circle cx="2555.34" cy="351.272" r="12.9568" fill="#D9D9D9" fill-opacity="0.42"/>
<circle cx="1257.31" cy="57.3889" r="12.9568" fill="#D9D9D9" fill-opacity="0.42"/>
<circle cx="2200.8" cy="57.3889" r="12.9568" fill="#D9D9D9" fill-opacity="0.42"/>
<circle cx="1729.05" cy="57.3889" r="12.9568" fill="#D9D9D9" fill-opacity="0.42"/>
<circle cx="2672.55" cy="57.3889" r="12.9568" fill="#D9D9D9" fill-opacity="0.42"/>
<circle cx="1257.89" cy="351.272" r="12.9568" fill="#D9D9D9" fill-opacity="0.42"/>
<circle cx="2201.39" cy="351.272" r="12.9568" fill="#D9D9D9" fill-opacity="0.42"/>
<circle cx="1729.64" cy="351.272" r="12.9568" fill="#D9D9D9" fill-opacity="0.42"/>
<circle cx="2673.13" cy="351.272" r="12.9568" fill="#D9D9D9" fill-opacity="0.42"/>
<ellipse cx="1198.71" cy="57.3889" rx="13.2513" ry="12.9568" fill="#D9D9D9" fill-opacity="0.42"/>
<ellipse cx="2142.2" cy="57.3889" rx="13.2513" ry="12.9568" fill="#D9D9D9" fill-opacity="0.42"/>
<ellipse cx="1670.45" cy="57.3889" rx="13.2513" ry="12.9568" fill="#D9D9D9" fill-opacity="0.42"/>
<ellipse cx="2613.94" cy="57.3889" rx="13.2513" ry="12.9568" fill="#D9D9D9" fill-opacity="0.42"/>
<circle cx="1199" cy="351.272" r="12.9568" fill="#D9D9D9" fill-opacity="0.42"/>
<circle cx="2142.49" cy="351.272" r="12.9568" fill="#D9D9D9" fill-opacity="0.42"/>
<circle cx="1670.75" cy="351.272" r="12.9568" fill="#D9D9D9" fill-opacity="0.42"/>
<circle cx="2614.24" cy="351.272" r="12.9568" fill="#D9D9D9" fill-opacity="0.42"/>
<circle cx="1316.2" cy="57.3889" r="12.9568" fill="#D9D9D9" fill-opacity="0.42"/>
<circle cx="2259.7" cy="57.3889" r="12.9568" fill="#D9D9D9" fill-opacity="0.42"/>
<circle cx="1787.95" cy="57.3889" r="12.9568" fill="#D9D9D9" fill-opacity="0.42"/>
<circle cx="1316.79" cy="351.272" r="12.9568" fill="#D9D9D9" fill-opacity="0.42"/>
<circle cx="2260.28" cy="351.272" r="12.9568" fill="#D9D9D9" fill-opacity="0.42"/>
<circle cx="1788.54" cy="351.272" r="12.9568" fill="#D9D9D9" fill-opacity="0.42"/>
<ellipse cx="1139.81" cy="116.283" rx="13.2513" ry="12.9568" fill="#D9D9D9" fill-opacity="0.42"/>
<ellipse cx="2083.31" cy="116.283" rx="13.2513" ry="12.9568" fill="#D9D9D9" fill-opacity="0.42"/>
<ellipse cx="1611.56" cy="116.283" rx="13.2513" ry="12.9568" fill="#D9D9D9" fill-opacity="0.42"/>
<ellipse cx="2555.05" cy="116.283" rx="13.2513" ry="12.9568" fill="#D9D9D9" fill-opacity="0.42"/>
<circle cx="1140.11" cy="410.167" r="12.9568" fill="#D9D9D9" fill-opacity="0.42"/>
<circle cx="2083.6" cy="410.167" r="12.9568" fill="#D9D9D9" fill-opacity="0.42"/>
<circle cx="1611.86" cy="410.167" r="12.9568" fill="#D9D9D9" fill-opacity="0.42"/>
<circle cx="2555.34" cy="410.167" r="12.9568" fill="#D9D9D9" fill-opacity="0.42"/>
<circle cx="1257.31" cy="116.283" r="12.9568" fill="#D9D9D9" fill-opacity="0.42"/>
<circle cx="2200.8" cy="116.283" r="12.9568" fill="#D9D9D9" fill-opacity="0.42"/>
<circle cx="1729.05" cy="116.283" r="12.9568" fill="#D9D9D9" fill-opacity="0.42"/>
<circle cx="2672.55" cy="116.283" r="12.9568" fill="#D9D9D9" fill-opacity="0.42"/>
<circle cx="1257.89" cy="410.167" r="12.9568" fill="#D9D9D9" fill-opacity="0.42"/>
<circle cx="2201.39" cy="410.167" r="12.9568" fill="#D9D9D9" fill-opacity="0.42"/>
<circle cx="1729.64" cy="410.167" r="12.9568" fill="#D9D9D9" fill-opacity="0.42"/>
<circle cx="2673.13" cy="410.167" r="12.9568" fill="#D9D9D9" fill-opacity="0.42"/>
<ellipse cx="1198.71" cy="116.283" rx="13.2513" ry="12.9568" fill="#D9D9D9" fill-opacity="0.42"/>
<ellipse cx="2142.2" cy="116.283" rx="13.2513" ry="12.9568" fill="#D9D9D9" fill-opacity="0.42"/>
<ellipse cx="1670.45" cy="116.283" rx="13.2513" ry="12.9568" fill="#D9D9D9" fill-opacity="0.42"/>
<ellipse cx="2613.94" cy="116.283" rx="13.2513" ry="12.9568" fill="#D9D9D9" fill-opacity="0.42"/>
<circle cx="1199" cy="410.167" r="12.9568" fill="#D9D9D9" fill-opacity="0.42"/>
<circle cx="2142.49" cy="410.167" r="12.9568" fill="#D9D9D9" fill-opacity="0.42"/>
<circle cx="1670.75" cy="410.167" r="12.9568" fill="#D9D9D9" fill-opacity="0.42"/>
<circle cx="2614.24" cy="410.167" r="12.9568" fill="#D9D9D9" fill-opacity="0.42"/>
<circle cx="1316.2" cy="116.283" r="12.9568" fill="#D9D9D9" fill-opacity="0.42"/>
<circle cx="2259.7" cy="116.283" r="12.9568" fill="#D9D9D9" fill-opacity="0.42"/>
<circle cx="1787.95" cy="116.283" r="12.9568" fill="#D9D9D9" fill-opacity="0.42"/>
<circle cx="1316.79" cy="410.167" r="12.9568" fill="#D9D9D9" fill-opacity="0.42"/>
<circle cx="2260.28" cy="410.167" r="12.9568" fill="#D9D9D9" fill-opacity="0.42"/>
<circle cx="1788.54" cy="410.167" r="12.9568" fill="#D9D9D9" fill-opacity="0.42"/>
<ellipse cx="1139.81" cy="175.177" rx="13.2513" ry="12.9568" fill="#D9D9D9" fill-opacity="0.42"/>
<ellipse cx="2083.31" cy="175.177" rx="13.2513" ry="12.9568" fill="#D9D9D9" fill-opacity="0.42"/>
<ellipse cx="1611.56" cy="175.177" rx="13.2513" ry="12.9568" fill="#D9D9D9" fill-opacity="0.42"/>
<ellipse cx="2555.05" cy="175.177" rx="13.2513" ry="12.9568" fill="#D9D9D9" fill-opacity="0.42"/>
<circle cx="1140.11" cy="469.061" r="12.9568" fill="#D9D9D9" fill-opacity="0.42"/>
<circle cx="2083.6" cy="469.061" r="12.9568" fill="#D9D9D9" fill-opacity="0.42"/>
<circle cx="1611.86" cy="469.061" r="12.9568" fill="#D9D9D9" fill-opacity="0.42"/>
<circle cx="2555.34" cy="469.061" r="12.9568" fill="#D9D9D9" fill-opacity="0.42"/>
<circle cx="1257.31" cy="175.177" r="12.9568" fill="#D9D9D9" fill-opacity="0.42"/>
<circle cx="2200.8" cy="175.177" r="12.9568" fill="#D9D9D9" fill-opacity="0.42"/>
<circle cx="1729.05" cy="175.177" r="12.9568" fill="#D9D9D9" fill-opacity="0.42"/>
<circle cx="2672.55" cy="175.177" r="12.9568" fill="#D9D9D9" fill-opacity="0.42"/>
<circle cx="1257.89" cy="469.061" r="12.9568" fill="#D9D9D9" fill-opacity="0.42"/>
<circle cx="2201.39" cy="469.061" r="12.9568" fill="#D9D9D9" fill-opacity="0.42"/>
<circle cx="1729.64" cy="469.061" r="12.9568" fill="#D9D9D9" fill-opacity="0.42"/>
<circle cx="2673.13" cy="469.061" r="12.9568" fill="#D9D9D9" fill-opacity="0.42"/>
<ellipse cx="1198.71" cy="175.177" rx="13.2513" ry="12.9568" fill="#D9D9D9" fill-opacity="0.42"/>
<ellipse cx="2142.2" cy="175.177" rx="13.2513" ry="12.9568" fill="#D9D9D9" fill-opacity="0.42"/>
<ellipse cx="1670.45" cy="175.177" rx="13.2513" ry="12.9568" fill="#D9D9D9" fill-opacity="0.42"/>
<ellipse cx="2613.94" cy="175.177" rx="13.2513" ry="12.9568" fill="#D9D9D9" fill-opacity="0.42"/>
<circle cx="1199" cy="469.061" r="12.9568" fill="#D9D9D9" fill-opacity="0.42"/>
<circle cx="2142.49" cy="469.061" r="12.9568" fill="#D9D9D9" fill-opacity="0.42"/>
<circle cx="1670.75" cy="469.061" r="12.9568" fill="#D9D9D9" fill-opacity="0.42"/>
<circle cx="2614.24" cy="469.061" r="12.9568" fill="#D9D9D9" fill-opacity="0.42"/>
<circle cx="1316.2" cy="175.177" r="12.9568" fill="#D9D9D9" fill-opacity="0.42"/>
<circle cx="2259.7" cy="175.177" r="12.9568" fill="#D9D9D9" fill-opacity="0.42"/>
<circle cx="1787.95" cy="175.177" r="12.9568" fill="#D9D9D9" fill-opacity="0.42"/>
<circle cx="1316.79" cy="469.061" r="12.9568" fill="#D9D9D9" fill-opacity="0.42"/>
<circle cx="2260.28" cy="469.061" r="12.9568" fill="#D9D9D9" fill-opacity="0.42"/>
<circle cx="1788.54" cy="469.061" r="12.9568" fill="#D9D9D9" fill-opacity="0.42"/>
<circle cx="1139.81" cy="233.777" r="13.2513" fill="#D9D9D9" fill-opacity="0.42"/>
<circle cx="2083.31" cy="233.777" r="13.2513" fill="#D9D9D9" fill-opacity="0.42"/>
<circle cx="1611.56" cy="233.777" r="13.2513" fill="#D9D9D9" fill-opacity="0.42"/>
<circle cx="2555.05" cy="233.777" r="13.2513" fill="#D9D9D9" fill-opacity="0.42"/>
<circle cx="1140.11" cy="527.956" r="12.9568" fill="#D9D9D9" fill-opacity="0.42"/>
<circle cx="2083.6" cy="527.956" r="12.9568" fill="#D9D9D9" fill-opacity="0.42"/>
<circle cx="1611.86" cy="527.956" r="12.9568" fill="#D9D9D9" fill-opacity="0.42"/>
<circle cx="2555.34" cy="527.956" r="12.9568" fill="#D9D9D9" fill-opacity="0.42"/>
<ellipse cx="1257.31" cy="233.777" rx="12.9568" ry="13.2513" fill="#D9D9D9" fill-opacity="0.42"/>
<ellipse cx="2200.8" cy="233.777" rx="12.9568" ry="13.2513" fill="#D9D9D9" fill-opacity="0.42"/>
<ellipse cx="1729.05" cy="233.777" rx="12.9568" ry="13.2513" fill="#D9D9D9" fill-opacity="0.42"/>
<ellipse cx="2672.55" cy="233.777" rx="12.9568" ry="13.2513" fill="#D9D9D9" fill-opacity="0.42"/>
<circle cx="1257.89" cy="527.956" r="12.9568" fill="#D9D9D9" fill-opacity="0.42"/>
<circle cx="2201.39" cy="527.956" r="12.9568" fill="#D9D9D9" fill-opacity="0.42"/>
<circle cx="1729.64" cy="527.956" r="12.9568" fill="#D9D9D9" fill-opacity="0.42"/>
<circle cx="2673.13" cy="527.956" r="12.9568" fill="#D9D9D9" fill-opacity="0.42"/>
<circle cx="1198.71" cy="233.777" r="13.2513" fill="#D9D9D9" fill-opacity="0.42"/>
<circle cx="2142.2" cy="233.777" r="13.2513" fill="#D9D9D9" fill-opacity="0.42"/>
<circle cx="1670.45" cy="233.777" r="13.2513" fill="#D9D9D9" fill-opacity="0.42"/>
<circle cx="2613.94" cy="233.777" r="13.2513" fill="#D9D9D9" fill-opacity="0.42"/>
<circle cx="1199" cy="527.956" r="12.9568" fill="#D9D9D9" fill-opacity="0.42"/>
<circle cx="2142.49" cy="527.956" r="12.9568" fill="#D9D9D9" fill-opacity="0.42"/>
<circle cx="1670.75" cy="527.956" r="12.9568" fill="#D9D9D9" fill-opacity="0.42"/>
<circle cx="2614.24" cy="527.956" r="12.9568" fill="#D9D9D9" fill-opacity="0.42"/>
<ellipse cx="1316.2" cy="233.777" rx="12.9568" ry="13.2513" fill="#D9D9D9" fill-opacity="0.42"/>
<ellipse cx="2259.7" cy="233.777" rx="12.9568" ry="13.2513" fill="#D9D9D9" fill-opacity="0.42"/>
<ellipse cx="1787.95" cy="233.777" rx="12.9568" ry="13.2513" fill="#D9D9D9" fill-opacity="0.42"/>
<circle cx="1316.79" cy="527.956" r="12.9568" fill="#D9D9D9" fill-opacity="0.42"/>
<circle cx="2260.28" cy="527.956" r="12.9568" fill="#D9D9D9" fill-opacity="0.42"/>
<circle cx="1788.54" cy="527.956" r="12.9568" fill="#D9D9D9" fill-opacity="0.42"/>
<circle cx="1847.43" cy="586.85" r="12.9568" fill="#D9D9D9" fill-opacity="0.42"/>
<circle cx="1375.69" cy="586.85" r="12.9568" fill="#D9D9D9" fill-opacity="0.42"/>
<circle cx="2319.18" cy="586.85" r="12.9568" fill="#D9D9D9" fill-opacity="0.42"/>
<ellipse cx="1848.02" cy="881.029" rx="12.9568" ry="13.2513" fill="#D9D9D9" fill-opacity="0.42"/>
<ellipse cx="1376.27" cy="881.029" rx="12.9568" ry="13.2513" fill="#D9D9D9" fill-opacity="0.42"/>
<ellipse cx="2319.77" cy="881.029" rx="12.9568" ry="13.2513" fill="#D9D9D9" fill-opacity="0.42"/>
<circle cx="1021.73" cy="586.85" r="12.9568" fill="#D9D9D9" fill-opacity="0.42"/>
<circle cx="1965.22" cy="586.85" r="12.9568" fill="#D9D9D9" fill-opacity="0.42"/>
<circle cx="1493.48" cy="586.85" r="12.9568" fill="#D9D9D9" fill-opacity="0.42"/>
<circle cx="2436.96" cy="586.85" r="12.9568" fill="#D9D9D9" fill-opacity="0.42"/>
<circle cx="1022.02" cy="881.029" r="13.2513" fill="#D9D9D9" fill-opacity="0.42"/>
<circle cx="1965.52" cy="881.029" r="13.2513" fill="#D9D9D9" fill-opacity="0.42"/>
<circle cx="1493.77" cy="881.029" r="13.2513" fill="#D9D9D9" fill-opacity="0.42"/>
<circle cx="2437.26" cy="881.029" r="13.2513" fill="#D9D9D9" fill-opacity="0.42"/>
<circle cx="962.836" cy="586.85" r="12.9568" fill="#D9D9D9" fill-opacity="0.42"/>
<circle cx="1906.33" cy="586.85" r="12.9568" fill="#D9D9D9" fill-opacity="0.42"/>
<circle cx="1434.58" cy="586.85" r="12.9568" fill="#D9D9D9" fill-opacity="0.42"/>
<circle cx="2378.07" cy="586.85" r="12.9568" fill="#D9D9D9" fill-opacity="0.42"/>
<ellipse cx="963.426" cy="881.029" rx="12.9568" ry="13.2513" fill="#D9D9D9" fill-opacity="0.42"/>
<ellipse cx="1906.92" cy="881.029" rx="12.9568" ry="13.2513" fill="#D9D9D9" fill-opacity="0.42"/>
<ellipse cx="1435.17" cy="881.029" rx="12.9568" ry="13.2513" fill="#D9D9D9" fill-opacity="0.42"/>
<ellipse cx="2378.66" cy="881.029" rx="12.9568" ry="13.2513" fill="#D9D9D9" fill-opacity="0.42"/>
<circle cx="1080.62" cy="586.85" r="12.9568" fill="#D9D9D9" fill-opacity="0.42"/>
<circle cx="2024.11" cy="586.85" r="12.9568" fill="#D9D9D9" fill-opacity="0.42"/>
<circle cx="1552.37" cy="586.85" r="12.9568" fill="#D9D9D9" fill-opacity="0.42"/>
<circle cx="2495.86" cy="586.85" r="12.9568" fill="#D9D9D9" fill-opacity="0.42"/>
<circle cx="1080.92" cy="881.029" r="13.2513" fill="#D9D9D9" fill-opacity="0.42"/>
<circle cx="2024.41" cy="881.029" r="13.2513" fill="#D9D9D9" fill-opacity="0.42"/>
<circle cx="1552.67" cy="881.029" r="13.2513" fill="#D9D9D9" fill-opacity="0.42"/>
<circle cx="2496.16" cy="881.029" r="13.2513" fill="#D9D9D9" fill-opacity="0.42"/>
<circle cx="1847.43" cy="645.745" r="12.9568" fill="#D9D9D9" fill-opacity="0.42"/>
<circle cx="1375.69" cy="645.745" r="12.9568" fill="#D9D9D9" fill-opacity="0.42"/>
<circle cx="2319.18" cy="645.745" r="12.9568" fill="#D9D9D9" fill-opacity="0.42"/>
<circle cx="1848.02" cy="939.629" r="12.9568" fill="#D9D9D9" fill-opacity="0.42"/>
<circle cx="1376.27" cy="939.629" r="12.9568" fill="#D9D9D9" fill-opacity="0.42"/>
<circle cx="2319.77" cy="939.629" r="12.9568" fill="#D9D9D9" fill-opacity="0.42"/>
<circle cx="1021.73" cy="645.745" r="12.9568" fill="#D9D9D9" fill-opacity="0.42"/>
<circle cx="1965.22" cy="645.745" r="12.9568" fill="#D9D9D9" fill-opacity="0.42"/>
<circle cx="1493.48" cy="645.745" r="12.9568" fill="#D9D9D9" fill-opacity="0.42"/>
<circle cx="2436.96" cy="645.745" r="12.9568" fill="#D9D9D9" fill-opacity="0.42"/>
<ellipse cx="1022.02" cy="939.629" rx="13.2513" ry="12.9568" fill="#D9D9D9" fill-opacity="0.42"/>
<ellipse cx="1965.52" cy="939.629" rx="13.2513" ry="12.9568" fill="#D9D9D9" fill-opacity="0.42"/>
<ellipse cx="1493.77" cy="939.629" rx="13.2513" ry="12.9568" fill="#D9D9D9" fill-opacity="0.42"/>
<ellipse cx="2437.26" cy="939.629" rx="13.2513" ry="12.9568" fill="#D9D9D9" fill-opacity="0.42"/>
<circle cx="962.836" cy="645.745" r="12.9568" fill="#D9D9D9" fill-opacity="0.42"/>
<circle cx="1906.33" cy="645.745" r="12.9568" fill="#D9D9D9" fill-opacity="0.42"/>
<circle cx="1434.58" cy="645.745" r="12.9568" fill="#D9D9D9" fill-opacity="0.42"/>
<circle cx="2378.07" cy="645.745" r="12.9568" fill="#D9D9D9" fill-opacity="0.42"/>
<circle cx="963.426" cy="939.629" r="12.9568" fill="#D9D9D9" fill-opacity="0.42"/>
<circle cx="1906.92" cy="939.629" r="12.9568" fill="#D9D9D9" fill-opacity="0.42"/>
<circle cx="1435.17" cy="939.629" r="12.9568" fill="#D9D9D9" fill-opacity="0.42"/>
<circle cx="2378.66" cy="939.629" r="12.9568" fill="#D9D9D9" fill-opacity="0.42"/>
<circle cx="1080.62" cy="645.745" r="12.9568" fill="#D9D9D9" fill-opacity="0.42"/>
<circle cx="2024.11" cy="645.745" r="12.9568" fill="#D9D9D9" fill-opacity="0.42"/>
<circle cx="1552.37" cy="645.745" r="12.9568" fill="#D9D9D9" fill-opacity="0.42"/>
<circle cx="2495.86" cy="645.745" r="12.9568" fill="#D9D9D9" fill-opacity="0.42"/>
<ellipse cx="1080.92" cy="939.629" rx="13.2513" ry="12.9568" fill="#D9D9D9" fill-opacity="0.42"/>
<ellipse cx="2024.41" cy="939.629" rx="13.2513" ry="12.9568" fill="#D9D9D9" fill-opacity="0.42"/>
<ellipse cx="1552.67" cy="939.629" rx="13.2513" ry="12.9568" fill="#D9D9D9" fill-opacity="0.42"/>
<ellipse cx="2496.16" cy="939.629" rx="13.2513" ry="12.9568" fill="#D9D9D9" fill-opacity="0.42"/>
<circle cx="1847.43" cy="704.639" r="12.9568" fill="#D9D9D9" fill-opacity="0.42"/>
<circle cx="1375.69" cy="704.639" r="12.9568" fill="#D9D9D9" fill-opacity="0.42"/>
<circle cx="2319.18" cy="704.639" r="12.9568" fill="#D9D9D9" fill-opacity="0.42"/>
<circle cx="1848.02" cy="998.523" r="12.9568" fill="#D9D9D9" fill-opacity="0.42"/>
<circle cx="1376.27" cy="998.523" r="12.9568" fill="#D9D9D9" fill-opacity="0.42"/>
<circle cx="2319.77" cy="998.523" r="12.9568" fill="#D9D9D9" fill-opacity="0.42"/>
<circle cx="1021.73" cy="704.639" r="12.9568" fill="#D9D9D9" fill-opacity="0.42"/>
<circle cx="1965.22" cy="704.639" r="12.9568" fill="#D9D9D9" fill-opacity="0.42"/>
<circle cx="1493.48" cy="704.639" r="12.9568" fill="#D9D9D9" fill-opacity="0.42"/>
<circle cx="2436.96" cy="704.639" r="12.9568" fill="#D9D9D9" fill-opacity="0.42"/>
<ellipse cx="1022.02" cy="998.523" rx="13.2513" ry="12.9568" fill="#D9D9D9" fill-opacity="0.42"/>
<ellipse cx="1965.52" cy="998.523" rx="13.2513" ry="12.9568" fill="#D9D9D9" fill-opacity="0.42"/>
<ellipse cx="1493.77" cy="998.523" rx="13.2513" ry="12.9568" fill="#D9D9D9" fill-opacity="0.42"/>
<ellipse cx="2437.26" cy="998.523" rx="13.2513" ry="12.9568" fill="#D9D9D9" fill-opacity="0.42"/>
<circle cx="962.836" cy="704.639" r="12.9568" fill="#D9D9D9" fill-opacity="0.42"/>
<circle cx="1906.33" cy="704.639" r="12.9568" fill="#D9D9D9" fill-opacity="0.42"/>
<circle cx="1434.58" cy="704.639" r="12.9568" fill="#D9D9D9" fill-opacity="0.42"/>
<circle cx="2378.07" cy="704.639" r="12.9568" fill="#D9D9D9" fill-opacity="0.42"/>
<circle cx="963.426" cy="998.523" r="12.9568" fill="#D9D9D9" fill-opacity="0.42"/>
<circle cx="1906.92" cy="998.523" r="12.9568" fill="#D9D9D9" fill-opacity="0.42"/>
<circle cx="1435.17" cy="998.523" r="12.9568" fill="#D9D9D9" fill-opacity="0.42"/>
<circle cx="2378.66" cy="998.523" r="12.9568" fill="#D9D9D9" fill-opacity="0.42"/>
<circle cx="1080.62" cy="704.639" r="12.9568" fill="#D9D9D9" fill-opacity="0.42"/>
<circle cx="2024.11" cy="704.639" r="12.9568" fill="#D9D9D9" fill-opacity="0.42"/>
<circle cx="1552.37" cy="704.639" r="12.9568" fill="#D9D9D9" fill-opacity="0.42"/>
<circle cx="2495.86" cy="704.639" r="12.9568" fill="#D9D9D9" fill-opacity="0.42"/>
<ellipse cx="1080.92" cy="998.523" rx="13.2513" ry="12.9568" fill="#D9D9D9" fill-opacity="0.42"/>
<ellipse cx="2024.41" cy="998.523" rx="13.2513" ry="12.9568" fill="#D9D9D9" fill-opacity="0.42"/>
<ellipse cx="1552.67" cy="998.523" rx="13.2513" ry="12.9568" fill="#D9D9D9" fill-opacity="0.42"/>
<ellipse cx="2496.16" cy="998.523" rx="13.2513" ry="12.9568" fill="#D9D9D9" fill-opacity="0.42"/>
<circle cx="1847.43" cy="763.534" r="12.9568" fill="#D9D9D9" fill-opacity="0.42"/>
<circle cx="1375.69" cy="763.534" r="12.9568" fill="#D9D9D9" fill-opacity="0.42"/>
<circle cx="2319.18" cy="763.534" r="12.9568" fill="#D9D9D9" fill-opacity="0.42"/>
<circle cx="1848.02" cy="1057.42" r="12.9568" fill="#D9D9D9" fill-opacity="0.42"/>
<circle cx="1376.27" cy="1057.42" r="12.9568" fill="#D9D9D9" fill-opacity="0.42"/>
<circle cx="2319.77" cy="1057.42" r="12.9568" fill="#D9D9D9" fill-opacity="0.42"/>
<circle cx="1021.73" cy="763.534" r="12.9568" fill="#D9D9D9" fill-opacity="0.42"/>
<circle cx="1965.22" cy="763.534" r="12.9568" fill="#D9D9D9" fill-opacity="0.42"/>
<circle cx="1493.48" cy="763.534" r="12.9568" fill="#D9D9D9" fill-opacity="0.42"/>
<circle cx="2436.96" cy="763.534" r="12.9568" fill="#D9D9D9" fill-opacity="0.42"/>
<ellipse cx="1022.02" cy="1057.42" rx="13.2513" ry="12.9568" fill="#D9D9D9" fill-opacity="0.42"/>
<ellipse cx="1965.52" cy="1057.42" rx="13.2513" ry="12.9568" fill="#D9D9D9" fill-opacity="0.42"/>
<ellipse cx="1493.77" cy="1057.42" rx="13.2513" ry="12.9568" fill="#D9D9D9" fill-opacity="0.42"/>
<ellipse cx="2437.26" cy="1057.42" rx="13.2513" ry="12.9568" fill="#D9D9D9" fill-opacity="0.42"/>
<circle cx="962.836" cy="763.534" r="12.9568" fill="#D9D9D9" fill-opacity="0.42"/>
<circle cx="1906.33" cy="763.534" r="12.9568" fill="#D9D9D9" fill-opacity="0.42"/>
<circle cx="1434.58" cy="763.534" r="12.9568" fill="#D9D9D9" fill-opacity="0.42"/>
<circle cx="2378.07" cy="763.534" r="12.9568" fill="#D9D9D9" fill-opacity="0.42"/>
<circle cx="963.426" cy="1057.42" r="12.9568" fill="#D9D9D9" fill-opacity="0.42"/>
<circle cx="1906.92" cy="1057.42" r="12.9568" fill="#D9D9D9" fill-opacity="0.42"/>
<circle cx="1435.17" cy="1057.42" r="12.9568" fill="#D9D9D9" fill-opacity="0.42"/>
<circle cx="2378.66" cy="1057.42" r="12.9568" fill="#D9D9D9" fill-opacity="0.42"/>
<circle cx="1080.62" cy="763.534" r="12.9568" fill="#D9D9D9" fill-opacity="0.42"/>
<circle cx="2024.11" cy="763.534" r="12.9568" fill="#D9D9D9" fill-opacity="0.42"/>
<circle cx="1552.37" cy="763.534" r="12.9568" fill="#D9D9D9" fill-opacity="0.42"/>
<circle cx="2495.86" cy="763.534" r="12.9568" fill="#D9D9D9" fill-opacity="0.42"/>
<ellipse cx="1080.92" cy="1057.42" rx="13.2513" ry="12.9568" fill="#D9D9D9" fill-opacity="0.42"/>
<ellipse cx="2024.41" cy="1057.42" rx="13.2513" ry="12.9568" fill="#D9D9D9" fill-opacity="0.42"/>
<ellipse cx="1552.67" cy="1057.42" rx="13.2513" ry="12.9568" fill="#D9D9D9" fill-opacity="0.42"/>
<ellipse cx="2496.16" cy="1057.42" rx="13.2513" ry="12.9568" fill="#D9D9D9" fill-opacity="0.42"/>
<ellipse cx="1847.43" cy="822.135" rx="12.9568" ry="13.2513" fill="#D9D9D9" fill-opacity="0.42"/>
<ellipse cx="1375.69" cy="822.135" rx="12.9568" ry="13.2513" fill="#D9D9D9" fill-opacity="0.42"/>
<ellipse cx="2319.18" cy="822.135" rx="12.9568" ry="13.2513" fill="#D9D9D9" fill-opacity="0.42"/>
<circle cx="1848.02" cy="1116.31" r="12.9568" fill="#D9D9D9" fill-opacity="0.42"/>
<circle cx="1376.27" cy="1116.31" r="12.9568" fill="#D9D9D9" fill-opacity="0.42"/>
<circle cx="2319.77" cy="1116.31" r="12.9568" fill="#D9D9D9" fill-opacity="0.42"/>
<ellipse cx="1021.73" cy="822.135" rx="12.9568" ry="13.2513" fill="#D9D9D9" fill-opacity="0.42"/>
<ellipse cx="1965.22" cy="822.135" rx="12.9568" ry="13.2513" fill="#D9D9D9" fill-opacity="0.42"/>
<ellipse cx="1493.48" cy="822.135" rx="12.9568" ry="13.2513" fill="#D9D9D9" fill-opacity="0.42"/>
<ellipse cx="2436.96" cy="822.135" rx="12.9568" ry="13.2513" fill="#D9D9D9" fill-opacity="0.42"/>
<ellipse cx="1022.02" cy="1116.31" rx="13.2513" ry="12.9568" fill="#D9D9D9" fill-opacity="0.42"/>
<ellipse cx="1965.52" cy="1116.31" rx="13.2513" ry="12.9568" fill="#D9D9D9" fill-opacity="0.42"/>
<ellipse cx="1493.77" cy="1116.31" rx="13.2513" ry="12.9568" fill="#D9D9D9" fill-opacity="0.42"/>
<ellipse cx="2437.26" cy="1116.31" rx="13.2513" ry="12.9568" fill="#D9D9D9" fill-opacity="0.42"/>
<ellipse cx="962.836" cy="822.135" rx="12.9568" ry="13.2513" fill="#D9D9D9" fill-opacity="0.42"/>
<ellipse cx="1906.33" cy="822.135" rx="12.9568" ry="13.2513" fill="#D9D9D9" fill-opacity="0.42"/>
<ellipse cx="1434.58" cy="822.135" rx="12.9568" ry="13.2513" fill="#D9D9D9" fill-opacity="0.42"/>
<ellipse cx="2378.07" cy="822.135" rx="12.9568" ry="13.2513" fill="#D9D9D9" fill-opacity="0.42"/>
<circle cx="963.426" cy="1116.31" r="12.9568" fill="#D9D9D9" fill-opacity="0.42"/>
<circle cx="1906.92" cy="1116.31" r="12.9568" fill="#D9D9D9" fill-opacity="0.42"/>
<circle cx="1435.17" cy="1116.31" r="12.9568" fill="#D9D9D9" fill-opacity="0.42"/>
<circle cx="2378.66" cy="1116.31" r="12.9568" fill="#D9D9D9" fill-opacity="0.42"/>
<ellipse cx="1080.62" cy="822.135" rx="12.9568" ry="13.2513" fill="#D9D9D9" fill-opacity="0.42"/>
<ellipse cx="2024.11" cy="822.135" rx="12.9568" ry="13.2513" fill="#D9D9D9" fill-opacity="0.42"/>
<ellipse cx="1552.37" cy="822.135" rx="12.9568" ry="13.2513" fill="#D9D9D9" fill-opacity="0.42"/>
<ellipse cx="2495.86" cy="822.135" rx="12.9568" ry="13.2513" fill="#D9D9D9" fill-opacity="0.42"/>
<ellipse cx="1080.92" cy="1116.31" rx="13.2513" ry="12.9568" fill="#D9D9D9" fill-opacity="0.42"/>
<ellipse cx="2024.41" cy="1116.31" rx="13.2513" ry="12.9568" fill="#D9D9D9" fill-opacity="0.42"/>
<ellipse cx="1552.67" cy="1116.31" rx="13.2513" ry="12.9568" fill="#D9D9D9" fill-opacity="0.42"/>
<ellipse cx="2496.16" cy="1116.31" rx="13.2513" ry="12.9568" fill="#D9D9D9" fill-opacity="0.42"/>
<ellipse cx="1139.22" cy="586.85" rx="13.2513" ry="12.9568" fill="#D9D9D9" fill-opacity="0.42"/>
<ellipse cx="2082.72" cy="586.85" rx="13.2513" ry="12.9568" fill="#D9D9D9" fill-opacity="0.42"/>
<ellipse cx="1610.97" cy="586.85" rx="13.2513" ry="12.9568" fill="#D9D9D9" fill-opacity="0.42"/>
<ellipse cx="2554.46" cy="586.85" rx="13.2513" ry="12.9568" fill="#D9D9D9" fill-opacity="0.42"/>
<ellipse cx="1139.52" cy="881.029" rx="12.9568" ry="13.2513" fill="#D9D9D9" fill-opacity="0.42"/>
<ellipse cx="2083.01" cy="881.029" rx="12.9568" ry="13.2513" fill="#D9D9D9" fill-opacity="0.42"/>
<ellipse cx="1611.27" cy="881.029" rx="12.9568" ry="13.2513" fill="#D9D9D9" fill-opacity="0.42"/>
<ellipse cx="2554.76" cy="881.029" rx="12.9568" ry="13.2513" fill="#D9D9D9" fill-opacity="0.42"/>
<circle cx="1256.72" cy="586.85" r="12.9568" fill="#D9D9D9" fill-opacity="0.42"/>
<circle cx="2200.21" cy="586.85" r="12.9568" fill="#D9D9D9" fill-opacity="0.42"/>
<circle cx="1728.46" cy="586.85" r="12.9568" fill="#D9D9D9" fill-opacity="0.42"/>
<circle cx="2671.96" cy="586.85" r="12.9568" fill="#D9D9D9" fill-opacity="0.42"/>
<ellipse cx="1257.31" cy="881.029" rx="12.9568" ry="13.2513" fill="#D9D9D9" fill-opacity="0.42"/>
<ellipse cx="2200.8" cy="881.029" rx="12.9568" ry="13.2513" fill="#D9D9D9" fill-opacity="0.42"/>
<ellipse cx="1729.05" cy="881.029" rx="12.9568" ry="13.2513" fill="#D9D9D9" fill-opacity="0.42"/>
<ellipse cx="2672.55" cy="881.029" rx="12.9568" ry="13.2513" fill="#D9D9D9" fill-opacity="0.42"/>
<ellipse cx="1198.12" cy="586.85" rx="13.2513" ry="12.9568" fill="#D9D9D9" fill-opacity="0.42"/>
<ellipse cx="2141.61" cy="586.85" rx="13.2513" ry="12.9568" fill="#D9D9D9" fill-opacity="0.42"/>
<ellipse cx="1669.86" cy="586.85" rx="13.2513" ry="12.9568" fill="#D9D9D9" fill-opacity="0.42"/>
<ellipse cx="2613.36" cy="586.85" rx="13.2513" ry="12.9568" fill="#D9D9D9" fill-opacity="0.42"/>
<ellipse cx="1198.41" cy="881.029" rx="12.9568" ry="13.2513" fill="#D9D9D9" fill-opacity="0.42"/>
<ellipse cx="2141.91" cy="881.029" rx="12.9568" ry="13.2513" fill="#D9D9D9" fill-opacity="0.42"/>
<ellipse cx="1670.16" cy="881.029" rx="12.9568" ry="13.2513" fill="#D9D9D9" fill-opacity="0.42"/>
<ellipse cx="2613.65" cy="881.029" rx="12.9568" ry="13.2513" fill="#D9D9D9" fill-opacity="0.42"/>
<circle cx="1315.61" cy="586.85" r="12.9568" fill="#D9D9D9" fill-opacity="0.42"/>
<circle cx="2259.11" cy="586.85" r="12.9568" fill="#D9D9D9" fill-opacity="0.42"/>
<circle cx="1787.36" cy="586.85" r="12.9568" fill="#D9D9D9" fill-opacity="0.42"/>
<ellipse cx="1316.2" cy="881.029" rx="12.9568" ry="13.2513" fill="#D9D9D9" fill-opacity="0.42"/>
<ellipse cx="2259.7" cy="881.029" rx="12.9568" ry="13.2513" fill="#D9D9D9" fill-opacity="0.42"/>
<ellipse cx="1787.95" cy="881.029" rx="12.9568" ry="13.2513" fill="#D9D9D9" fill-opacity="0.42"/>
<ellipse cx="1139.22" cy="645.745" rx="13.2513" ry="12.9568" fill="#D9D9D9" fill-opacity="0.42"/>
<ellipse cx="2082.72" cy="645.745" rx="13.2513" ry="12.9568" fill="#D9D9D9" fill-opacity="0.42"/>
<ellipse cx="1610.97" cy="645.745" rx="13.2513" ry="12.9568" fill="#D9D9D9" fill-opacity="0.42"/>
<ellipse cx="2554.46" cy="645.745" rx="13.2513" ry="12.9568" fill="#D9D9D9" fill-opacity="0.42"/>
<circle cx="1139.52" cy="939.629" r="12.9568" fill="#D9D9D9" fill-opacity="0.42"/>
<circle cx="2083.01" cy="939.629" r="12.9568" fill="#D9D9D9" fill-opacity="0.42"/>
<circle cx="1611.27" cy="939.629" r="12.9568" fill="#D9D9D9" fill-opacity="0.42"/>
<circle cx="2554.76" cy="939.629" r="12.9568" fill="#D9D9D9" fill-opacity="0.42"/>
<circle cx="1256.72" cy="645.745" r="12.9568" fill="#D9D9D9" fill-opacity="0.42"/>
<circle cx="2200.21" cy="645.745" r="12.9568" fill="#D9D9D9" fill-opacity="0.42"/>
<circle cx="1728.46" cy="645.745" r="12.9568" fill="#D9D9D9" fill-opacity="0.42"/>
<circle cx="2671.96" cy="645.745" r="12.9568" fill="#D9D9D9" fill-opacity="0.42"/>
<circle cx="1257.31" cy="939.629" r="12.9568" fill="#D9D9D9" fill-opacity="0.42"/>
<circle cx="2200.8" cy="939.629" r="12.9568" fill="#D9D9D9" fill-opacity="0.42"/>
<circle cx="1729.05" cy="939.629" r="12.9568" fill="#D9D9D9" fill-opacity="0.42"/>
<circle cx="2672.55" cy="939.629" r="12.9568" fill="#D9D9D9" fill-opacity="0.42"/>
<ellipse cx="1198.12" cy="645.745" rx="13.2513" ry="12.9568" fill="#D9D9D9" fill-opacity="0.42"/>
<ellipse cx="2141.61" cy="645.745" rx="13.2513" ry="12.9568" fill="#D9D9D9" fill-opacity="0.42"/>
<ellipse cx="1669.86" cy="645.745" rx="13.2513" ry="12.9568" fill="#D9D9D9" fill-opacity="0.42"/>
<ellipse cx="2613.36" cy="645.745" rx="13.2513" ry="12.9568" fill="#D9D9D9" fill-opacity="0.42"/>
<circle cx="1198.41" cy="939.629" r="12.9568" fill="#D9D9D9" fill-opacity="0.42"/>
<circle cx="2141.91" cy="939.629" r="12.9568" fill="#D9D9D9" fill-opacity="0.42"/>
<circle cx="1670.16" cy="939.629" r="12.9568" fill="#D9D9D9" fill-opacity="0.42"/>
<circle cx="2613.65" cy="939.629" r="12.9568" fill="#D9D9D9" fill-opacity="0.42"/>
<circle cx="1315.61" cy="645.745" r="12.9568" fill="#D9D9D9" fill-opacity="0.42"/>
<circle cx="2259.11" cy="645.745" r="12.9568" fill="#D9D9D9" fill-opacity="0.42"/>
<circle cx="1787.36" cy="645.745" r="12.9568" fill="#D9D9D9" fill-opacity="0.42"/>
<circle cx="1316.2" cy="939.629" r="12.9568" fill="#D9D9D9" fill-opacity="0.42"/>
<circle cx="2259.7" cy="939.629" r="12.9568" fill="#D9D9D9" fill-opacity="0.42"/>
<circle cx="1787.95" cy="939.629" r="12.9568" fill="#D9D9D9" fill-opacity="0.42"/>
<ellipse cx="1139.22" cy="704.639" rx="13.2513" ry="12.9568" fill="#D9D9D9" fill-opacity="0.42"/>
<ellipse cx="2082.72" cy="704.639" rx="13.2513" ry="12.9568" fill="#D9D9D9" fill-opacity="0.42"/>
<ellipse cx="1610.97" cy="704.639" rx="13.2513" ry="12.9568" fill="#D9D9D9" fill-opacity="0.42"/>
<ellipse cx="2554.46" cy="704.639" rx="13.2513" ry="12.9568" fill="#D9D9D9" fill-opacity="0.42"/>
<circle cx="1139.52" cy="998.523" r="12.9568" fill="#D9D9D9" fill-opacity="0.42"/>
<circle cx="2083.01" cy="998.523" r="12.9568" fill="#D9D9D9" fill-opacity="0.42"/>
<circle cx="1611.27" cy="998.523" r="12.9568" fill="#D9D9D9" fill-opacity="0.42"/>
<circle cx="2554.76" cy="998.523" r="12.9568" fill="#D9D9D9" fill-opacity="0.42"/>
<circle cx="1256.72" cy="704.639" r="12.9568" fill="#D9D9D9" fill-opacity="0.42"/>
<circle cx="2200.21" cy="704.639" r="12.9568" fill="#D9D9D9" fill-opacity="0.42"/>
<circle cx="1728.46" cy="704.639" r="12.9568" fill="#D9D9D9" fill-opacity="0.42"/>
<circle cx="2671.96" cy="704.639" r="12.9568" fill="#D9D9D9" fill-opacity="0.42"/>
<circle cx="1257.31" cy="998.523" r="12.9568" fill="#D9D9D9" fill-opacity="0.42"/>
<circle cx="2200.8" cy="998.523" r="12.9568" fill="#D9D9D9" fill-opacity="0.42"/>
<circle cx="1729.05" cy="998.523" r="12.9568" fill="#D9D9D9" fill-opacity="0.42"/>
<circle cx="2672.55" cy="998.523" r="12.9568" fill="#D9D9D9" fill-opacity="0.42"/>
<ellipse cx="1198.12" cy="704.639" rx="13.2513" ry="12.9568" fill="#D9D9D9" fill-opacity="0.42"/>
<ellipse cx="2141.61" cy="704.639" rx="13.2513" ry="12.9568" fill="#D9D9D9" fill-opacity="0.42"/>
<ellipse cx="1669.86" cy="704.639" rx="13.2513" ry="12.9568" fill="#D9D9D9" fill-opacity="0.42"/>
<ellipse cx="2613.36" cy="704.639" rx="13.2513" ry="12.9568" fill="#D9D9D9" fill-opacity="0.42"/>
<circle cx="1198.41" cy="998.523" r="12.9568" fill="#D9D9D9" fill-opacity="0.42"/>
<circle cx="2141.91" cy="998.523" r="12.9568" fill="#D9D9D9" fill-opacity="0.42"/>
<circle cx="1670.16" cy="998.523" r="12.9568" fill="#D9D9D9" fill-opacity="0.42"/>
<circle cx="2613.65" cy="998.523" r="12.9568" fill="#D9D9D9" fill-opacity="0.42"/>
<circle cx="1315.61" cy="704.639" r="12.9568" fill="#D9D9D9" fill-opacity="0.42"/>
<circle cx="2259.11" cy="704.639" r="12.9568" fill="#D9D9D9" fill-opacity="0.42"/>
<circle cx="1787.36" cy="704.639" r="12.9568" fill="#D9D9D9" fill-opacity="0.42"/>
<circle cx="1316.2" cy="998.523" r="12.9568" fill="#D9D9D9" fill-opacity="0.42"/>
<circle cx="2259.7" cy="998.523" r="12.9568" fill="#D9D9D9" fill-opacity="0.42"/>
<circle cx="1787.95" cy="998.523" r="12.9568" fill="#D9D9D9" fill-opacity="0.42"/>
<ellipse cx="1139.22" cy="763.534" rx="13.2513" ry="12.9568" fill="#D9D9D9" fill-opacity="0.42"/>
<ellipse cx="2082.72" cy="763.534" rx="13.2513" ry="12.9568" fill="#D9D9D9" fill-opacity="0.42"/>
<ellipse cx="1610.97" cy="763.534" rx="13.2513" ry="12.9568" fill="#D9D9D9" fill-opacity="0.42"/>
<ellipse cx="2554.46" cy="763.534" rx="13.2513" ry="12.9568" fill="#D9D9D9" fill-opacity="0.42"/>
<circle cx="1139.52" cy="1057.42" r="12.9568" fill="#D9D9D9" fill-opacity="0.42"/>
<circle cx="2083.01" cy="1057.42" r="12.9568" fill="#D9D9D9" fill-opacity="0.42"/>
<circle cx="1611.27" cy="1057.42" r="12.9568" fill="#D9D9D9" fill-opacity="0.42"/>
<circle cx="2554.76" cy="1057.42" r="12.9568" fill="#D9D9D9" fill-opacity="0.42"/>
<circle cx="1256.72" cy="763.534" r="12.9568" fill="#D9D9D9" fill-opacity="0.42"/>
<circle cx="2200.21" cy="763.534" r="12.9568" fill="#D9D9D9" fill-opacity="0.42"/>
<circle cx="1728.46" cy="763.534" r="12.9568" fill="#D9D9D9" fill-opacity="0.42"/>
<circle cx="2671.96" cy="763.534" r="12.9568" fill="#D9D9D9" fill-opacity="0.42"/>
<circle cx="1257.31" cy="1057.42" r="12.9568" fill="#D9D9D9" fill-opacity="0.42"/>
<circle cx="2200.8" cy="1057.42" r="12.9568" fill="#D9D9D9" fill-opacity="0.42"/>
<circle cx="1729.05" cy="1057.42" r="12.9568" fill="#D9D9D9" fill-opacity="0.42"/>
<circle cx="2672.55" cy="1057.42" r="12.9568" fill="#D9D9D9" fill-opacity="0.42"/>
<ellipse cx="1198.12" cy="763.534" rx="13.2513" ry="12.9568" fill="#D9D9D9" fill-opacity="0.42"/>
<ellipse cx="2141.61" cy="763.534" rx="13.2513" ry="12.9568" fill="#D9D9D9" fill-opacity="0.42"/>
<ellipse cx="1669.86" cy="763.534" rx="13.2513" ry="12.9568" fill="#D9D9D9" fill-opacity="0.42"/>
<ellipse cx="2613.36" cy="763.534" rx="13.2513" ry="12.9568" fill="#D9D9D9" fill-opacity="0.42"/>
<circle cx="1198.41" cy="1057.42" r="12.9568" fill="#D9D9D9" fill-opacity="0.42"/>
<circle cx="2141.91" cy="1057.42" r="12.9568" fill="#D9D9D9" fill-opacity="0.42"/>
<circle cx="1670.16" cy="1057.42" r="12.9568" fill="#D9D9D9" fill-opacity="0.42"/>
<circle cx="2613.65" cy="1057.42" r="12.9568" fill="#D9D9D9" fill-opacity="0.42"/>
<circle cx="1315.61" cy="763.534" r="12.9568" fill="#D9D9D9" fill-opacity="0.42"/>
<circle cx="2259.11" cy="763.534" r="12.9568" fill="#D9D9D9" fill-opacity="0.42"/>
<circle cx="1787.36" cy="763.534" r="12.9568" fill="#D9D9D9" fill-opacity="0.42"/>
<circle cx="1316.2" cy="1057.42" r="12.9568" fill="#D9D9D9" fill-opacity="0.42"/>
<circle cx="2259.7" cy="1057.42" r="12.9568" fill="#D9D9D9" fill-opacity="0.42"/>
<circle cx="1787.95" cy="1057.42" r="12.9568" fill="#D9D9D9" fill-opacity="0.42"/>
<circle cx="1139.22" cy="822.135" r="13.2513" fill="#D9D9D9" fill-opacity="0.42"/>
<circle cx="2082.72" cy="822.135" r="13.2513" fill="#D9D9D9" fill-opacity="0.42"/>
<circle cx="1610.97" cy="822.135" r="13.2513" fill="#D9D9D9" fill-opacity="0.42"/>
<circle cx="2554.46" cy="822.135" r="13.2513" fill="#D9D9D9" fill-opacity="0.42"/>
<circle cx="1139.52" cy="1116.31" r="12.9568" fill="#D9D9D9" fill-opacity="0.42"/>
<circle cx="2083.01" cy="1116.31" r="12.9568" fill="#D9D9D9" fill-opacity="0.42"/>
<circle cx="1611.27" cy="1116.31" r="12.9568" fill="#D9D9D9" fill-opacity="0.42"/>
<circle cx="2554.76" cy="1116.31" r="12.9568" fill="#D9D9D9" fill-opacity="0.42"/>
<ellipse cx="1256.72" cy="822.135" rx="12.9568" ry="13.2513" fill="#D9D9D9" fill-opacity="0.42"/>
<ellipse cx="2200.21" cy="822.135" rx="12.9568" ry="13.2513" fill="#D9D9D9" fill-opacity="0.42"/>
<ellipse cx="1728.46" cy="822.135" rx="12.9568" ry="13.2513" fill="#D9D9D9" fill-opacity="0.42"/>
<ellipse cx="2671.96" cy="822.135" rx="12.9568" ry="13.2513" fill="#D9D9D9" fill-opacity="0.42"/>
<circle cx="1257.31" cy="1116.31" r="12.9568" fill="#D9D9D9" fill-opacity="0.42"/>
<circle cx="2200.8" cy="1116.31" r="12.9568" fill="#D9D9D9" fill-opacity="0.42"/>
<circle cx="1729.05" cy="1116.31" r="12.9568" fill="#D9D9D9" fill-opacity="0.42"/>
<circle cx="2672.55" cy="1116.31" r="12.9568" fill="#D9D9D9" fill-opacity="0.42"/>
<circle cx="1198.12" cy="822.135" r="13.2513" fill="#D9D9D9" fill-opacity="0.42"/>
<circle cx="2141.61" cy="822.135" r="13.2513" fill="#D9D9D9" fill-opacity="0.42"/>
<circle cx="1669.86" cy="822.135" r="13.2513" fill="#D9D9D9" fill-opacity="0.42"/>
<circle cx="2613.36" cy="822.135" r="13.2513" fill="#D9D9D9" fill-opacity="0.42"/>
<circle cx="1198.41" cy="1116.31" r="12.9568" fill="#D9D9D9" fill-opacity="0.42"/>
<circle cx="2141.91" cy="1116.31" r="12.9568" fill="#D9D9D9" fill-opacity="0.42"/>
<circle cx="1670.16" cy="1116.31" r="12.9568" fill="#D9D9D9" fill-opacity="0.42"/>
<circle cx="2613.65" cy="1116.31" r="12.9568" fill="#D9D9D9" fill-opacity="0.42"/>
<ellipse cx="1315.61" cy="822.135" rx="12.9568" ry="13.2513" fill="#D9D9D9" fill-opacity="0.42"/>
<ellipse cx="2259.11" cy="822.135" rx="12.9568" ry="13.2513" fill="#D9D9D9" fill-opacity="0.42"/>
<ellipse cx="1787.36" cy="822.135" rx="12.9568" ry="13.2513" fill="#D9D9D9" fill-opacity="0.42"/>
<circle cx="1316.2" cy="1116.31" r="12.9568" fill="#D9D9D9" fill-opacity="0.42"/>
<circle cx="2259.7" cy="1116.31" r="12.9568" fill="#D9D9D9" fill-opacity="0.42"/>
<circle cx="1787.95" cy="1116.31" r="12.9568" fill="#D9D9D9" fill-opacity="0.42"/>
</g>
<path d="M2023.35 1116.47C1790.95 1116.49 1536.52 1116.62 1303.2 1116.46C1274.55 1116.44 1276.51 1116.17 1268.47 1116.13C1246.51 1116.03 1233.28 1116.35 1217.26 1116.33C1139.42 1116.22 1066.6 1116.17 990.231 1116.07C958.904 1116.03 945.953 1115.87 939.984 1115.68L936.844 1115.69L936.839 1112.54C937.122 1103.52 937.473 1110.44 937.596 1093.99C937.994 1040.59 936.905 1086.01 936.661 1065.02C936.726 1003.8 936.844 942.027 936.964 880.692C937.065 895.665 937.165 910.643 937.259 925.78C937.281 899.047 937.449 860.786 937.734 905.554C937.812 895.659 937.904 886.422 937.981 876.253C937.584 873.465 937.552 826.134 937.317 821.807C937.082 817.489 937.136 844.1 937.115 843.936C936.822 842.171 937.223 733.01 937.256 725.138C937.342 704.327 937.834 722.573 937.802 704.869C937.748 674.418 936.748 694.704 938.078 653.484C937.646 637.086 937.87 635.655 937.9 614.891C937.904 612.157 937.654 614.278 937.647 613.076C937.461 581.646 937.927 605.805 937.952 605.641C938.38 602.788 938.19 569.059 938.231 561.953C938.742 472.793 939.088 407.464 939.207 313.382C939.232 293.045 939.058 231.102 939.131 211.422C939.203 192.012 939.511 202.426 939.659 192.267C938.917 175.984 938.836 160.45 939.324 123.893C938.783 110.281 939.22 112.032 939.112 85.9555C939.022 64.251 938.373 26.4251 938.926 2.53711C938.876 29.9262 939.141 27.09 939.302 57.9233C939.355 68.1871 939.366 175.217 939.92 167.253C940.208 163.098 939.943 127.625 939.996 126.254C940.306 118.272 940.687 138.071 940.553 155.62C940.491 151.247 940.427 145.977 940.365 141.276C939.978 180.692 941.465 153.586 940.165 183.543C940.006 187.247 939.84 185.811 939.67 191.917C939.74 193.172 939.914 185.702 939.945 192.136C939.976 198.699 939.647 211.16 939.925 213.018C940.329 215.795 940.169 188.606 940.193 186.56C940.191 186.538 940.188 186.517 940.186 186.495C940.4 168.405 940.425 206.185 940.463 207.989C940.715 219.675 940.909 211.706 941.117 229.242C941.235 239.247 941.166 264.73 941.204 274.133C941.243 283.476 941.434 268.94 941.475 275.226C941.516 281.513 941.371 289.34 941.419 296.72C941.44 299.879 941.653 299.718 941.66 301.247C941.742 317.643 941.299 306.888 941.326 321.757C941.344 331.39 941.757 363.721 941.881 341.436C941.923 352.148 941.955 362.594 941.988 373.251C942.052 366.529 942.095 359.583 942.17 353.025C942.068 373.08 942.433 382.154 942.46 394.723C942.487 407.296 942.049 418.568 942.263 432.398C942.717 461.92 942.507 388.82 942.589 379.745C942.62 376.208 942.964 389.789 942.973 391.881C943.016 401.171 942.771 412.161 942.782 419.322C942.823 444.961 943.147 460.66 943.212 485.095C943.434 568.3 943.614 671.518 943.685 750.35C943.711 779.707 943.347 797.371 943.358 810.546C943.382 841.371 943.699 845.147 943.716 872.033C943.742 912.051 943.465 968.426 943.405 1001.83C943.364 1024.95 943.671 1045.89 943.679 1051.9C943.705 1071.35 943.724 1091.77 943.738 1112.54L939.984 1108.78C1008.49 1108.74 1080.74 1108.74 1133.89 1108.74C1166.47 1108.73 1181.94 1109.08 1188.66 1109.07C1217.58 1109.03 1209.83 1108.73 1233.27 1108.76C1245.93 1108.78 1248.3 1109.06 1250 1109.07C1264.92 1109.16 1267.89 1108.79 1279.54 1108.78C1346.5 1108.71 1411.01 1108.95 1477.31 1108.99C1482.13 1108.99 1481.7 1109.16 1484.81 1109.15C1498.2 1109.11 1491.98 1108.85 1505.96 1108.83C1535.04 1108.79 1564.91 1108.83 1595.74 1108.87C1598.79 1108.87 1600.17 1109.08 1607.15 1109.08C1614.15 1109.08 1619.46 1108.88 1630.44 1108.89C1659.14 1108.92 1687.47 1109.16 1717.86 1109.17C1722.89 1109.17 1729.12 1108.92 1736.67 1108.92C1760.34 1108.93 1795.38 1109.16 1815.67 1109.17C1882.58 1109.2 1944.31 1109.05 2007.34 1109.05C2022.15 1109.05 2035.28 1109.29 2042.98 1109.29C2060.36 1109.3 2047.25 1109.08 2064.85 1109.08C2208.63 1109.07 2352.96 1109.18 2498.43 1109.16C2555.56 1109.15 2625.1 1108.92 2680.31 1108.98C2686.81 1108.99 2691.8 1109.02 2695.98 1109.06L2692.51 1112.54C2692.61 1101.93 2692.77 1096.49 2692.77 1084.85C2692.77 1055.89 2692.38 1050.64 2692.34 1020.09C2692.31 995.703 2692.7 967.762 2692.68 942.396C2692.65 917.03 2692.27 905.325 2692.23 876.186C2692.19 852.187 2692.36 818.679 2692.33 792.549C2692.08 553.104 2691.92 317.32 2692.22 76.3985C2692.25 52.4013 2692.26 27.6626 2692.28 2.53711L2695.98 6.23916C2632.1 6.19466 2565.72 6.14689 2502.67 5.87764C2494.42 5.84213 2507.04 5.47355 2480.58 5.55098C2466.37 5.59297 2446.53 5.91057 2413.67 5.92647C2218.34 6.01979 2009.99 5.34042 1811.38 5.47481C1513.87 5.67733 1205.55 8.30023 947.02 4.46211C934.339 4.27363 941.215 3.34999 948.813 3.08759C955.863 3.27513 962.382 3.49787 969.76 3.70966C979.052 2.55559 977.413 2.85608 1011.85 2.95966C1033.05 3.02398 1016.12 2.53041 1027.42 2.39032C1042.07 2.20928 1110.86 1.63921 1097.63 2.4035C1101.9 2.271 1105.83 2.14405 1109.99 2.01434C1159.79 1.89862 1208.17 1.70727 1256.88 1.48797C1265.29 1.44964 1265.68 1.20982 1274.37 1.17157C1297.71 1.06709 1316.25 1.22463 1340.3 1.20038C1353.37 1.18731 1355.18 0.910182 1372.29 0.927913C1389.39 0.945755 1389.02 1.31986 1412.35 0.913265C1397.15 0.443871 1464.94 0.784464 1489.05 0.755549C1492.55 0.751817 1521.25 0.330124 1536.5 0.378595C1551.81 0.426182 1575.04 0.695569 1598.71 0.542658C1609.81 0.470803 1616.54 0.142392 1628.51 0.123711C1636.93 0.110647 1647.04 0.40256 1657.7 0.414728C1668.36 0.426854 1691.42 0.187229 1695.64 0.183281C1710.89 0.16742 1694.07 0.372652 1704.5 0.382989C1754.85 0.429648 1813.34 0.539633 1862.98 0.401544C1869.08 0.384801 1860.64 0.143 1861.45 0.134941C1902.88 -0.161741 1880.77 0.153306 1891.95 0.369806C1902.79 0.579151 1982.09 0.464955 1982.67 0.0446091C1985.11 0.570981 2002.74 0.168947 2007.32 0.153496C2025.14 0.0938292 2021.64 0.549241 2038.91 0.40838C2045.25 0.357078 2032.91 0.049258 2039.72 0.0582809C2056.56 0.0806768 2071.71 0.575193 2094.12 0.624689C2099.54 0.636821 2101.3 0.416539 2110.92 0.424005C2120.55 0.431584 2160.93 0.701073 2142.3 0.236504C2166.78 0.608794 2171.71 0.404463 2200.2 0.414728C2207.41 0.417856 2216.7 0.772842 2232.05 0.662775C2237.25 0.625421 2237.09 0.283249 2244.91 0.28045C2262.79 0.273081 2279.63 0.627295 2302.31 0.641291C2344.73 0.668342 2389.89 0.419337 2434.12 0.50799C2446.14 0.532318 2443.14 0.876342 2460.62 0.882991C2463.19 0.882991 2484.24 0.585487 2496.33 0.613459C2503.6 0.630256 2541.27 0.839338 2548.87 0.856135C2561.43 0.883062 2563.68 0.550338 2570.56 0.615412C2590.46 0.802985 2574.5 1.29275 2598.44 0.622736C2606.31 0.994148 2620.3 0.95699 2624.79 1.41424C2632.93 0.913155 2643.49 1.39459 2659.29 1.22674C2675.09 1.05877 2688.05 0.0882456 2691.87 1.1325C2692.86 1.11559 2694.27 1.09709 2695.98 1.07769L2697.44 1.07565L2697.44 2.53711C2697.57 13.719 2697.73 37.9538 2697.75 42.5501C2697.79 58.1787 2697.5 49.822 2697.54 61.6171C2697.55 63.694 2697.75 61.5188 2697.73 74.846C2697.71 83.593 2697.7 147.681 2697.68 151.508C2697.37 195.171 2697.48 127.714 2697.27 118.272C2697.32 116.605 2697.38 114.956 2697.43 113.177C2697.53 93.8825 2697.08 104.867 2696.98 113.614C2696.87 122.362 2697.07 138.705 2696.93 145.976C2696.85 149.598 2696.32 147.354 2696.38 136.398C2696.22 148.121 2696.04 132.112 2695.89 136.748C2695.72 141.845 2695.67 194.522 2695.96 194.802C2695.97 184.963 2695.96 172.718 2695.97 162.769C2696.49 149.757 2698.24 189.278 2697.54 225.524C2697.03 251.815 2696.63 208.472 2697.05 270.677C2697.07 261.111 2697.12 253.019 2697.14 244.328C2697.53 243.403 2697.1 257.503 2697.23 264.773C2697.29 268.265 2697.56 246.742 2697.65 265.429C2697.1 281.5 2697.65 293.866 2697.66 320.815C2697.56 313.326 2697.46 305.827 2697.37 298.337C2696.97 343.875 2696.84 238.104 2696.61 326.653C2696.59 315.998 2696.6 305.396 2696.57 294.685C2696.37 299.877 2695.78 291.57 2695.65 296.216C2695.33 308.404 2695.52 326.438 2695.49 341.303C2695.48 347.809 2695.32 343.774 2695.32 344.321C2695.3 353.231 2695.54 351.263 2695.55 359.08C2695.57 368.918 2695.34 397.331 2695.37 401.937C2695.44 413.855 2695.9 394.011 2695.93 395.159C2696.16 402.758 2695.97 418.278 2696.26 417.462C2696.06 380.119 2696.32 272.499 2696.81 369.86C2697.28 343.018 2697.93 350.77 2697.98 389.365C2698.03 421.291 2697.76 400.69 2697.48 417.309C2697.44 419.458 2697.3 462.218 2697.51 464.408C2697.04 462.695 2696.62 476.61 2696.14 467.273C2696.07 465.906 2696.1 448.358 2695.71 454.481C2695.52 457.542 2695.09 466.327 2694.84 464.911C2695.02 468.519 2695.21 472.291 2695.39 475.953C2695.44 502.249 2695.25 505.985 2694.93 520.363C2695.07 519.707 2695.63 506.422 2695.46 526.595C2695.45 527.63 2695.25 528.525 2695.15 538.774C2694.94 559.491 2694.88 563.815 2694.29 547.914C2694.63 590.817 2693.96 600.061 2694.16 644.058C2694.92 635.311 2694.73 619.843 2694.58 579.554C2694.77 577.805 2694.95 576.984 2695.13 575.181C2694.72 628.805 2694.76 602.307 2695.13 632.688C2695.22 640.123 2695.12 679.766 2695.64 666.536C2695.76 663.414 2695.75 638.785 2695.94 641.609C2695.97 642.156 2696.07 672.097 2696.02 674.736C2695.41 707.864 2694.98 648.663 2695.2 739.896C2695.21 742.41 2695.43 743.293 2695.46 748.205C2695.52 757.442 2695.26 757.558 2695.32 765.807C2695.38 774.061 2695.73 785.498 2695.41 797.906C2694.83 820.594 2694.49 767.077 2694.8 743.242C2694.04 733.566 2694.02 903.857 2694.08 914.408C2694.37 960.482 2694.21 883.81 2694.42 879.86C2694.51 878.22 2695.64 879.036 2694.91 859.634C2694.69 853.894 2694.4 877.885 2694.28 863.57C2694.16 849.246 2694.49 854.922 2694.52 853.883C2694.6 850.32 2694.47 835.087 2694.52 833.11C2695.24 802.714 2696.33 805.502 2694.72 845.793C2695.08 863.341 2695.66 823.061 2695.91 844.874C2696.21 871.386 2695.69 890.738 2695.67 894.073C2695.39 934.024 2696.15 887.957 2695.9 936.755C2695.77 963.925 2695.4 896.093 2695.45 958.14C2695.49 1010.07 2695.76 982.028 2696.35 985.8C2696.49 986.691 2696.67 1015.15 2696.6 976.398C2696.45 975.304 2696.24 973.237 2696.1 970.778C2696.21 961.273 2696.99 945.427 2697.02 940.384C2697.15 915.73 2696.75 916.921 2697.22 902.382C2696.7 912.765 2697.01 895.866 2696.9 889.524C2696.5 865.978 2696.35 896.853 2696.87 844C2696.62 850.888 2696.39 857.119 2696.14 863.788C2696.13 857.449 2696.12 851.104 2696.12 844.765C2696.65 835.308 2696.59 801.626 2697.13 832.127C2697.28 795.449 2697.16 780.623 2696.75 772.586C2696.67 771.059 2696.63 765.548 2696.63 759.073C2696.51 760.298 2696.14 761.864 2696.1 760.844C2695.71 751.716 2696.39 737.564 2696.64 742.389C2696.66 737.86 2696.67 734.274 2696.68 733.009C2696.72 724.984 2696.95 740.715 2697.03 734.211C2697.06 732.068 2697.01 709.459 2697.1 709.022C2697.71 706.297 2697.27 743.502 2697.63 668.788C2697.07 666.984 2697.19 701.686 2696.6 692.775C2695.97 683.208 2696.82 663.694 2696.04 659.43C2696.17 657.845 2696.28 657.144 2696.42 655.778C2696.08 625.552 2696.73 625.151 2696.87 615.917C2697.15 597.985 2697.11 515.547 2696.55 589.568C2696.49 578.744 2696.47 567.693 2696.42 556.923C2697.58 554.464 2697.12 561.022 2697.29 509.146C2697.33 497.721 2697.84 494.002 2697.24 482.797C2697.83 484.32 2697.47 450.528 2697.55 447.375C2698.02 427.148 2698.67 502.25 2697.62 511.879C2698.03 524.557 2697.49 524.511 2697.56 538.665C2697.66 559.111 2697.77 561.95 2697.37 586.223C2697.93 610.113 2697.61 492.697 2698.36 563.876C2699.04 628.593 2699.45 977 2699.6 1112.54L2699.6 1116.15L2695.98 1116.15C2682.41 1116.17 2670.97 1116.18 2662.16 1116.19C2486.95 1116.39 2394.83 1116.52 2237.44 1116.49C2221.91 1116.49 2104.71 1116.54 2129.07 1115.89C2132.57 1115.8 2182.98 1115.55 2139.74 1115.04C2148.54 1115.34 2123.11 1115.54 2120.98 1115.57C2072.05 1116.29 2100.38 1116.46 2023.35 1116.47ZM1795 1110.67C1895.53 1110.82 1821.68 1110.39 1842.56 1109.4C1829.66 1109.4 1816.81 1109.4 1803.9 1109.4C1807.29 1109.46 1810.64 1109.52 1814.03 1109.58C1814.04 1109.58 1814.06 1109.58 1814.07 1109.58C1807.73 1109.94 1801.34 1110.31 1795 1110.67ZM942.506 324.14C942.635 328.062 942.765 331.939 942.891 336.188C942.851 349.471 942.812 362.702 942.772 375.984C942.684 374.399 942.595 372.868 942.508 371.283C942.511 355.57 942.515 339.907 942.506 324.14ZM2694.66 729.182C2695.02 710.377 2694.38 712.073 2694.67 687.09C2694.19 690.152 2693.73 693.552 2693.26 696.777C2693.33 715.793 2693.51 720.115 2693.4 740.771C2693.55 738.366 2693.7 735.905 2693.86 733.555C2693.82 730.115 2693.79 726.456 2693.76 723.125C2694.18 717.825 2694.25 750.833 2694.66 729.248C2694.66 729.226 2694.66 729.204 2694.66 729.182ZM2694.47 536.478C2694.53 526.364 2694.76 486.297 2694.56 480.83C2693.9 462.297 2694.32 575.34 2693.73 492.025C2693.64 492.406 2693.55 492.025 2693.45 492.025C2693.42 507.222 2693.39 522.374 2693.37 537.681C2693.73 536.861 2694.1 537.407 2694.47 536.478ZM2158.61 1110.63C2174.16 1110.68 2248.26 1110.37 2224.1 1109.95C2216.99 1109.83 2183.91 1110.43 2171.34 1110.4C2163.2 1110.39 2172.32 1110.06 2156.25 1110.18C2156.96 1110.32 2157.4 1110.48 2158.66 1110.63C2158.64 1110.63 2158.63 1110.63 2158.61 1110.63ZM2129.46 1112.55C2145.54 1112.49 2161.83 1112.42 2178.01 1112.36C2166.2 1111.98 2142.97 1112.22 2141.6 1111.69C2146.03 1111.65 2150.4 1111.61 2154.83 1111.57C2158.22 1111.69 2161.55 1111.8 2164.89 1111.92C2178.77 1111.63 2170.36 1111.49 2196.22 1111.57C2180.59 1110.77 2177.68 1110.34 2133.4 1111.15C2141.76 1110.72 2133.89 1109.3 2109.35 1110.32C2104.76 1110.5 2123.93 1110.63 2124.15 1110.66C2127.1 1111.03 2116.46 1111.27 2119.62 1111.62C2121.05 1111.78 2132.74 1111.77 2134.49 1111.99C2135.3 1112.1 2124.18 1112.41 2129.46 1112.55ZM2097.43 1110.67C2102.41 1110.44 2085.41 1109.91 2070.65 1110.02C2047.63 1110.19 2083.93 1110.69 2097.43 1110.67ZM942.506 324.053C942.506 324.082 942.506 324.111 942.506 324.14C942.506 324.126 942.505 324.111 942.505 324.097C942.505 324.082 942.505 324.067 942.506 324.053ZM2694.21 588.628C2694.02 576.713 2694.04 559.075 2693.74 560.378C2693.8 554.583 2693.86 548.723 2693.92 542.929C2693.83 542.983 2693.73 543.093 2693.64 543.147C2693.59 560.585 2693.53 577.969 2693.47 595.407C2693.72 593.22 2693.96 591.197 2694.21 588.628ZM2694.42 398.658C2694.45 376.74 2694.04 395.115 2693.84 390.305C2693.64 385.494 2693.8 365.968 2693.51 368.264C2693.5 381.166 2693.49 394.623 2693.48 407.688C2693.79 404.244 2694.11 401.839 2694.42 398.614C2694.42 398.628 2694.42 398.643 2694.42 398.658ZM1384.71 1110.35C1399.58 1110.44 1393.51 1110.75 1422.87 1110.38C1422.85 1110.38 1422.83 1110.38 1422.8 1110.38C1394.87 1110.12 1358.91 1109.89 1328.08 1110.14C1346.94 1110.48 1361.32 1110.21 1384.71 1110.35ZM2693.73 781.179C2693.98 787.457 2694.19 758.219 2693.95 751.769C2693.58 741.331 2693.35 771.612 2693.73 781.179ZM939.96 956.72C939.19 934.102 938.326 976.958 938.699 1021.84C938.732 1025.72 938.976 996.745 939.127 1005.33C939.141 1006.2 939.123 1022.1 939.23 1026.03C939.337 1029.97 939.587 1025.84 939.691 1032.29C939.874 1043.61 939.535 1069.19 939.775 1077.66C939.807 1078.78 940.14 1062.91 940.153 1061.92C940.355 1045.63 939.919 1029.93 939.916 1027.41C939.901 1014.46 940.243 1016.41 940.323 1013.13C940.474 1006.96 940.323 996.078 940.334 995.313C940.634 975.65 940.548 1020.58 940.671 1026.65C941.003 1042.99 941.312 1027.86 941.5 1067.05C941.517 1070.78 941.497 1115.33 941.88 1059.18C942.676 1169.43 942.333 1003.79 942.157 985.801C942.076 977.51 941.751 990.064 941.604 985.036C941.269 973.555 941.21 953.986 940.738 955.736C939.745 959.51 940.396 985.211 940.229 1002.92C940.013 1001.06 939.803 1000.35 939.592 996.909C939.876 1002.21 940.018 958.36 939.962 956.72C939.961 956.72 939.96 956.72 939.96 956.72ZM1063.26 1111.43C1088.03 1111.73 1086.28 1111.1 1108.96 1111.46C1128.97 1110.9 1089.51 1110.93 1084.91 1110.9C1063.92 1110.76 1064.4 1110.15 1042.93 1110.34C1050.31 1110.7 1056.32 1111.06 1063.26 1111.43ZM941.352 1020.42C941.67 1036.98 941.664 1007.34 941.725 1006.14C942.368 993.049 942.243 1081.8 941.352 1020.42ZM2255.08 1111.89C2263.5 1111.91 2258.16 1111.61 2265.58 1111.52C2273.01 1111.43 2298.42 1111.69 2297.79 1111.5C2297.13 1111.31 2250.57 1110.82 2297.31 1110.71C2295.72 1110.61 2296.26 1110.53 2295.49 1110.43C2282.64 1110.43 2269.68 1110.42 2256.83 1110.42C2263.88 1110.73 2271.11 1111.05 2277.89 1111.35C2270.67 1111.59 2266.62 1111.28 2266.24 1111.28C2266.24 1111.28 2266.24 1111.28 2266.24 1111.28C2252.79 1111.3 2236.19 1111.84 2255.08 1111.89ZM1592.57 1110.94C1590.06 1111.7 1609.9 1110.85 1618.04 1110.76C1626.19 1110.66 1637.38 1110.94 1633.17 1110.62C1620 1110.39 1592.84 1110.85 1592.57 1110.94C1592.57 1110.94 1592.57 1110.94 1592.57 1110.94ZM1197.8 1111.43C1218.56 1111.24 1215.27 1111.04 1240.66 1111.27C1239.68 1111.09 1238.69 1110.9 1237.71 1110.72C1217.54 1110.71 1218.96 1111.25 1195.62 1111.03C1191.79 1111 1199.98 1110.57 1182.72 1110.71C1187.74 1110.93 1192.83 1111.19 1197.8 1111.43ZM1300.68 1110.74C1276.85 1110.77 1257.94 1112.26 1301.84 1111.59C1308.35 1111.49 1318.61 1110.72 1300.68 1110.74ZM2035.22 1111.93C2075.77 1111.97 2029.71 1111.73 2019.15 1111.5C2113.54 1111.32 2008.5 1111.57 1999.08 1110.81C1987.54 1111.02 1965.96 1111.52 1989.94 1111.65C1999.94 1111.71 1996.29 1111.48 1996.89 1111.48C2015.31 1111.54 2013.08 1111.91 2035.22 1111.93ZM1020.23 1111.46C1021.76 1111.45 1019.37 1111.2 1024.23 1111.14C1029.1 1111.09 1040.13 1111.27 1041.22 1111.12C1042.31 1110.96 1020.19 1110.83 1013.41 1110.95C1006.63 1111.07 1006.4 1111.56 1020.23 1111.46ZM1175.83 1112.1C1196.09 1111.91 1162.96 1110.97 1158.55 1110.97C1119.85 1111.02 1176.98 1111.8 1175.83 1112.1ZM1941.07 1113.54C1989.94 1113.06 1954.19 1112.22 1923.58 1111.72C1919.53 1111.82 1915.38 1111.92 1911.4 1112.03C1929.76 1111.41 1961.96 1110.8 1890.34 1111.34C1929.54 1111.48 1896.71 1111.65 1896.46 1111.68C1892.14 1112.82 1950.21 1112.29 1941.02 1113.54C1941.04 1113.54 1941.05 1113.54 1941.07 1113.54ZM954.349 1111.19C950.463 1111.19 945.44 1111.2 939.984 1111.22L941.306 1112.54C941.242 1088.13 941.038 1055.04 940.633 1076.13C940.799 1088.28 940.965 1100.4 941.131 1112.54L939.984 1111.39C944.77 1111.32 949.557 1111.26 954.349 1111.19ZM2696.92 1067.32C2697.2 1049.93 2697.2 1033.91 2697.18 1012.48C2696.77 1031.77 2696.72 1019.09 2696.62 1012.59C2696.47 1002.72 2696.48 1026.62 2696.45 1026.69C2696.06 1026.25 2696 1011.01 2696.01 1045.71C2695.87 1037.13 2695.73 1028.66 2695.6 1020.09C2695.58 1046.54 2695.33 1052.77 2695.01 1069.55C2695.78 1053.26 2695.3 1074.71 2695.68 1094.17C2695.87 1103.88 2696.77 1076.16 2696.92 1067.25C2696.92 1067.27 2696.92 1067.29 2696.92 1067.32ZM1991.58 1113.69C1996.61 1113.55 2001.21 1113.37 2006.08 1113.21C2011.38 1113.2 2016.69 1113.18 2021.99 1113.17C2022.65 1113.29 2023.2 1113.42 2023.96 1113.53C2030.95 1113.57 2028.23 1113.4 2030.3 1113.38C2030.3 1113.38 2030.3 1113.38 2030.3 1113.38C2060.09 1113.16 2072.28 1113.19 2095.62 1113.56C2095.62 1113.19 2095.62 1112.82 2095.62 1112.45C2090.37 1112.48 2085.07 1112.52 2079.83 1112.55C2077.04 1112.75 2074.24 1112.95 2071.45 1113.15C2065.39 1113.04 2059.37 1112.93 2053.31 1112.82C2048.44 1112.89 2042.6 1112.97 2038.39 1113.04C2014.18 1112 2069.21 1112.7 2069.7 1112.27C2070.03 1112 2014.6 1112.01 2006.62 1112.2C2005.47 1112.23 2017.45 1113 1997.18 1112.6C1994.01 1112.53 1992.89 1110.86 1971.02 1112.22C1967.91 1112.41 1978.79 1113.45 1991.58 1113.69ZM2192.83 1114.23C2161.67 1113.16 2276.68 1114.29 2227.05 1113.41C2241.21 1112.92 2238.58 1112.92 2224.32 1112.49C2223.06 1112.45 2232.92 1112.31 2232.08 1112.3C2218.74 1112.06 2202.67 1112.18 2202.56 1111.75C2198.96 1111.77 2195.56 1111.79 2191.96 1111.81C2206.98 1112.23 2183.09 1112.5 2173.85 1112.85C2169.64 1113.01 2179.32 1113.06 2175.78 1113.2C2174.46 1113.25 2160.96 1113.14 2160.4 1113.29C2159.26 1113.62 2167.74 1114.06 2182.12 1114.3C2182.12 1114.3 2182.12 1114.3 2182.12 1114.3C2185.72 1114.28 2189.23 1114.25 2192.83 1114.23ZM1526.84 1113.34C1521.54 1112.75 1500.28 1112.58 1541.12 1112.29C1539.1 1112.17 1537.02 1112.06 1535 1111.94C1528.11 1111.95 1521.44 1111.96 1514.44 1111.97C1493.45 1113.71 1455.14 1111.75 1479.68 1112.98C1482.36 1113.12 1498.69 1112.97 1482.56 1113.33C1482.58 1113.33 1482.61 1113.33 1482.63 1113.33C1505.15 1113.22 1507.98 1113.01 1526.84 1113.34ZM1677.56 1112.93C1729.5 1111.68 1605.8 1112.23 1626.46 1112.56C1628.32 1112.59 1681.61 1112.33 1677.56 1112.93ZM1260.82 1114.01C1284.1 1114.03 1285.65 1113.36 1283.3 1113.12C1280.95 1112.88 1264.83 1113.12 1262.75 1113.08C1255.97 1112.96 1270.34 1112.87 1261.54 1112.7C1258.63 1112.65 1218.07 1112.41 1216.21 1112.43C1205.9 1112.6 1220.98 1113.15 1218.03 1113.21C1208.41 1113.42 1195.35 1113.13 1192.56 1113.43C1186.54 1114.06 1210.9 1113.4 1215.01 1113.39C1227.42 1113.36 1226.34 1113.71 1235.63 1113.78C1244.92 1113.85 1250.99 1113.73 1259.18 1113.76C1261.91 1113.76 1259.64 1114.01 1260.82 1114.01ZM1337.81 1112.59C1313.49 1113.1 1372.7 1113.65 1379.73 1113.54C1400.39 1113.18 1349.46 1112.35 1337.81 1112.59ZM2114.81 1112.61C2092.57 1112.98 2144.39 1113.28 2159.2 1113.13C2156.45 1112.98 2122.47 1112.49 2114.81 1112.61ZM1927.51 1113.54C1947.96 1113.42 1920.84 1112.59 1903.79 1112.6C1893.79 1113.15 1903.2 1113.04 1914.35 1113.06C1925.49 1113.09 1911.56 1113.62 1927.51 1113.54ZM1008.27 1113.4C1012.68 1113.41 1083.78 1112.96 1042.93 1112.77C1039.81 1112.76 990.045 1112.84 986.273 1112.92C978.684 1113.09 996.901 1113.38 1008.27 1113.4ZM1829.44 1114.34C1840.27 1113.87 1850.92 1113.88 1840.97 1113.32C1840.95 1113.32 1840.94 1113.32 1840.92 1113.32C1868.31 1113.15 1869.52 1114.29 1875.43 1114.26C1896.08 1114.18 1876.51 1113.37 1889.46 1113.1C1859.34 1113.35 1867.98 1112.81 1845.08 1112.77C1839.94 1112.77 1819.37 1113.09 1816.37 1113.29C1813.37 1113.5 1823.87 1114.1 1829.44 1114.34ZM939 1080.39C938.819 1104.39 939.584 1126.36 939.705 1093.08C939.765 1076.84 939.11 1065.74 939 1080.39ZM2697.16 501.864C2696.96 505.527 2696.76 509.299 2696.56 513.235C2696.51 504.382 2696.46 495.521 2696.41 486.668C2696.48 493.665 2696.54 500.672 2696.6 507.725C2696.67 491.105 2697.04 483.507 2697.16 501.821C2697.16 501.835 2697.16 501.85 2697.16 501.864ZM2603.64 1.20819C2596.21 1.01501 2581.56 1.61319 2583.42 1.65985C2597.41 2.00756 2613.96 1.47603 2603.64 1.20819ZM2147.68 1114.43C2175.32 1114.51 2156.31 1113.54 2139.37 1113.48C2149.73 1113.66 2131.99 1114.38 2147.68 1114.43ZM2697.27 118.272C2697.18 120.753 2697.1 123.254 2697.02 126.034C2697.13 117.291 2697.21 115.776 2697.27 118.272ZM1019.57 1114.26C1023.8 1114.34 1055 1114.4 1059.22 1114.31C1067.96 1114.11 1043.63 1113.58 1029.31 1113.74C1027.72 1113.76 1015.38 1114.19 1019.64 1114.26C1019.62 1114.26 1019.6 1114.26 1019.57 1114.26ZM2697.53 464.474C2697.52 464.523 2697.51 464.496 2697.51 464.408C2697.52 464.44 2697.52 464.431 2697.53 464.474ZM1982.43 0.000175238C1982.6 0.0152626 1982.69 0.0302365 1982.67 0.0446091C1982.61 0.0304964 1982.48 0.0156484 1982.43 0.000175238ZM1239.68 1115.09C1250.06 1116.02 1274.01 1115.52 1255.09 1115.06C1254.03 1115.04 1242.2 1115.09 1239.68 1115.09Z" fill="#424242"/>
<defs>
<linearGradient id="paint0_linear_3828_3624" x1="434.984" y1="2.53711" x2="434.984" y2="1112.54" gradientUnits="userSpaceOnUse">
<stop stop-color="#52667E"/>
<stop offset="1" stop-color="#D3D3D2"/>
</linearGradient>
<linearGradient id="paint1_linear_3828_3624" x1="1817.98" y1="2.53711" x2="1817.98" y2="1112.54" gradientUnits="userSpaceOnUse">
<stop stop-color="#D3D3D2"/>
<stop offset="1" stop-color="#D7B99E"/>
</linearGradient>
<clipPath id="clip0_3828_3624">
<path d="M939.984 2.53711H2695.98V1112.54H939.984V2.53711Z" fill="white"/>
</clipPath>
</defs>
</svg>
