<svg width="870" height="1117" viewBox="0 0 870 1117" fill="none" xmlns="http://www.w3.org/2000/svg">
<path d="M3.98438 2.53711H865.984V1112.54H3.98438V2.53711Z" fill="url(#paint0_linear_3824_340)"/>
<path d="M403.166 1116.47C274.759 1116.49 136.575 1116.57 3.98438 1116.52L0.00893521 1116.53L0.000838757 1112.54C0.0133817 1080.01 0.0339837 1047.83 0.0655997 1016.21C0.0852103 996.497 0.353871 997.844 0.389331 992.314C0.487179 977.198 0.170274 968.097 0.19353 957.079C0.30551 903.516 0.351098 853.411 0.452808 800.865C0.557327 746.735 1.39244 772.34 1.59588 753.532C1.9943 716.785 0.905313 748.042 0.660817 733.597C0.726138 691.47 0.84411 648.969 0.963552 606.767C1.06523 617.069 1.16475 627.374 1.25896 637.79C1.28137 619.396 1.44946 593.07 1.73406 623.873C1.81245 617.065 1.90412 610.709 1.98065 603.712C1.58407 601.794 1.55217 569.227 1.31707 566.25C1.0819 563.278 1.13594 581.588 1.11541 581.476C0.822499 580.262 1.22289 505.151 1.25555 499.735C1.34245 485.415 1.83408 497.97 1.80242 485.788C1.7483 464.836 0.747995 478.794 2.07781 450.432C1.64581 439.149 1.87016 438.165 1.90008 423.877C1.90381 421.997 1.65368 423.456 1.64715 422.629C1.46149 401.003 1.92664 417.626 1.95184 417.513C2.37987 415.55 2.18959 392.342 2.23065 387.453C2.74201 326.105 3.08821 281.154 3.20672 216.419C3.23192 202.426 3.05825 159.805 3.13104 146.264C3.20287 132.908 3.51128 140.074 3.65936 133.084C2.91744 121.88 2.83562 111.192 3.3244 86.0378C2.7832 76.6723 3.21976 77.8768 3.11151 59.9344C3.02183 45.0006 2.37262 18.9738 2.92596 2.53711C2.87557 21.3826 3.14143 19.4311 3.30194 40.6466C3.3551 47.7086 3.36646 121.352 3.91962 115.872C4.20796 113.014 3.94313 88.6062 3.99628 87.6627C4.3061 82.1707 4.68686 95.7939 4.55341 107.868C4.49088 104.859 4.42746 101.234 4.36493 97.9988C3.97766 125.119 5.46508 106.469 4.16522 127.081C4.00578 129.63 3.83953 128.642 3.67011 132.843C3.74018 133.707 3.91389 128.567 3.94501 132.994C3.97637 137.509 3.64654 146.084 3.9245 147.362C4.32871 149.273 4.16942 130.565 4.19306 129.157C4.19062 129.142 4.18817 129.127 4.18573 129.112C4.40034 116.665 4.42482 142.66 4.46308 143.902C4.71493 151.943 4.90886 146.459 5.11689 158.526C5.23541 165.409 5.16554 182.943 5.2038 189.413C5.24302 195.842 5.43423 185.84 5.47529 190.166C5.51634 194.491 5.37105 199.877 5.41865 204.955C5.43963 207.128 5.65289 207.017 5.66035 208.069C5.74241 219.351 5.29881 211.951 5.32587 222.182C5.34386 228.81 5.75738 251.056 5.88056 235.722C5.92347 243.093 5.95489 250.28 5.98847 257.613C6.05191 252.988 6.09502 248.209 6.16963 243.696C6.06805 257.496 6.433 263.739 6.46016 272.387C6.48722 281.039 6.04927 288.794 6.26289 298.31C6.71736 318.623 6.50738 268.326 6.58857 262.082C6.62049 259.647 6.96354 268.992 6.97334 270.432C7.01625 276.824 6.77093 284.386 6.78193 289.313C6.82299 306.954 7.14676 317.756 7.21211 334.569C7.43421 391.82 7.61433 462.84 7.68526 517.082C7.71139 537.282 7.34735 549.436 7.35762 558.502C7.38191 579.711 7.69915 582.309 7.71602 600.809C7.74215 628.343 7.4652 667.133 7.40547 690.117C7.36441 706.028 7.67142 720.432 7.67891 724.57C7.78903 782.085 7.78211 852.052 7.78584 899.711C7.7877 922.126 7.44271 932.771 7.45283 937.399C7.49576 957.296 7.79072 951.961 7.76094 968.092C7.7451 976.806 7.46194 978.435 7.45088 979.601C7.35756 989.87 7.72732 991.915 7.73946 999.927C7.79736 1038.07 7.6415 1075.05 7.56598 1112.54L3.98438 1108.96C11.7821 1108.97 19.6018 1108.98 27.4582 1108.99C30.7682 1108.99 30.4746 1109.16 32.6187 1109.15C41.8257 1109.11 37.5455 1108.85 47.1674 1108.83C67.1789 1108.79 87.7276 1108.83 108.943 1108.87C111.044 1108.87 111.989 1109.08 116.796 1109.08C121.611 1109.08 125.261 1108.88 132.82 1108.89C152.568 1108.92 172.056 1109.16 192.97 1109.17C196.43 1109.17 200.719 1108.92 205.909 1108.92C222.197 1108.93 246.312 1109.16 260.267 1109.17C306.308 1109.2 348.783 1109.05 392.153 1109.05C402.344 1109.05 411.375 1109.29 416.677 1109.29C428.631 1109.3 419.612 1109.08 431.722 1109.08C530.65 1109.07 629.959 1109.18 730.053 1109.16C769.361 1109.15 817.208 1108.92 855.199 1108.98C859.669 1108.99 863.104 1109.02 865.984 1109.06L862.509 1112.54C862.608 1105.24 862.767 1101.5 862.769 1093.49C862.772 1073.56 862.379 1069.95 862.34 1048.92C862.309 1032.15 862.702 1012.92 862.678 995.469C862.653 978.015 862.272 969.961 862.226 949.912C862.189 933.399 862.362 910.343 862.334 892.364C862.076 727.609 861.919 565.374 862.218 399.604C862.323 341.112 862.269 276.216 862.644 215.767C862.679 210.09 863.048 218.775 862.971 200.572C862.929 190.792 862.611 177.138 862.595 154.533C862.56 104.829 862.632 53.8997 862.728 2.53711L865.984 5.79321C778.461 5.6286 689.681 5.39012 603.561 5.47481C398.858 5.67733 186.709 8.30023 8.82514 4.46211C0.099709 4.27363 4.83127 3.34999 10.0588 3.08759C14.9102 3.27513 19.3953 3.49787 24.4721 3.70966C30.8652 2.55559 29.7379 2.85608 53.4341 2.95966C68.0228 3.02398 56.3698 2.53041 64.1463 2.39032C74.2273 2.20928 121.559 1.63921 112.456 2.4035C115.39 2.271 118.098 2.14405 120.957 2.01434C155.223 1.89862 188.516 1.70727 222.03 1.48797C227.82 1.44964 228.087 1.20982 234.067 1.17157C250.127 1.06709 262.878 1.22463 279.428 1.20038C288.418 1.18731 289.665 0.910182 301.439 0.927913C313.205 0.945755 312.948 1.31986 329.002 0.913265C318.545 0.443871 365.191 0.784464 381.78 0.755549C384.187 0.751817 403.933 0.330124 414.428 0.378595C424.959 0.426182 440.946 0.695569 457.232 0.542658C464.867 0.470803 469.501 0.142392 477.738 0.123711C483.531 0.110647 490.489 0.40256 497.824 0.414728C505.155 0.426854 521.02 0.187229 523.927 0.183281C534.42 0.16742 522.844 0.372652 530.02 0.382989C564.663 0.429648 604.913 0.539633 639.068 0.401544C643.267 0.384801 637.457 0.143 638.015 0.134941C666.52 -0.161741 651.305 0.153306 659.003 0.369806C666.459 0.579151 721.023 0.464955 721.425 0.0446091C723.101 0.570981 735.231 0.168947 738.381 0.153496C750.641 0.0938292 748.237 0.549241 760.121 0.40838C764.483 0.357078 755.991 0.049258 760.678 0.0582809C772.263 0.0806768 782.689 0.575193 798.11 0.624689C801.834 0.636821 803.045 0.416539 809.665 0.424005C816.293 0.431584 844.076 0.701073 831.255 0.236504C846.525 0.573882 850.743 0.437715 865.984 0.416849L868.1 0.412557L868.105 2.53711C868.107 4.1143 868.108 5.80954 868.107 7.64727C868.104 12.6116 867.749 19.003 867.859 29.5681C867.896 33.1411 868.238 33.0358 868.241 38.4147C868.248 50.7132 867.894 62.2998 867.88 77.9083C867.853 107.098 868.102 138.17 868.013 168.601C867.989 176.871 867.645 174.807 867.638 186.835C867.638 188.603 867.936 203.091 867.908 211.404C867.891 216.407 867.682 242.329 867.665 247.558C867.638 256.203 867.971 257.747 867.906 262.483C867.719 276.175 867.229 265.19 867.899 281.665C867.527 287.082 867.565 296.71 867.107 299.795C867.608 305.399 867.127 312.666 867.295 323.536C867.463 334.407 868.433 343.32 867.389 345.953C867.516 351.031 867.732 372.666 867.748 376.314C867.793 387.068 867.504 381.318 867.543 389.434C867.55 390.863 867.747 389.366 867.728 398.536C867.715 404.555 867.703 448.651 867.676 451.285C867.366 481.328 867.48 434.913 867.266 428.416C867.322 427.269 867.378 426.134 867.434 424.91C867.527 411.634 867.081 419.193 866.977 425.211C866.874 431.23 867.073 442.475 866.926 447.478C866.853 449.971 866.318 448.426 866.382 440.888C866.217 448.954 866.043 437.939 865.888 441.129C865.719 444.636 865.666 480.882 865.961 481.074C865.971 474.304 865.961 465.878 865.973 459.033C866.486 450.08 868.235 477.273 867.536 502.212C867.031 520.302 866.628 490.48 867.053 533.281C867.074 526.699 867.121 521.131 867.143 515.151C867.527 514.515 867.105 524.216 867.227 529.219C867.287 531.621 867.559 516.812 867.649 529.67C867.1 540.728 867.652 549.236 867.659 567.779C867.561 562.626 867.464 557.466 867.366 552.313C866.967 583.646 866.836 510.869 866.613 571.796C866.595 564.465 866.6 557.17 866.573 549.8C866.371 553.372 865.779 547.656 865.654 550.854C865.326 559.24 865.524 571.648 865.495 581.877C865.483 586.353 865.323 583.577 865.322 583.953C865.304 590.083 865.539 588.729 865.554 594.108C865.572 600.877 865.344 620.427 865.37 623.597C865.437 631.797 865.899 618.143 865.933 618.933C866.157 624.161 865.972 634.84 866.264 634.279C866.063 608.584 866.322 534.535 866.806 601.526C867.279 583.057 867.931 588.39 867.983 614.946C868.026 636.913 867.764 622.739 867.477 634.174C867.441 635.652 867.303 665.074 867.507 666.581C867.039 665.402 866.624 674.977 866.141 668.552C866.07 667.611 866.098 655.538 865.71 659.751C865.515 661.857 865.091 667.901 864.843 666.927C865.015 669.409 865.209 672.005 865.389 674.525C865.44 692.618 865.254 695.189 864.932 705.082C865.066 704.63 865.631 695.489 865.459 709.37C865.449 710.082 865.246 710.698 865.146 717.75C864.944 732.004 864.882 734.979 864.286 724.039C864.626 753.559 863.963 759.919 864.157 790.192C864.922 784.174 864.732 773.53 864.585 745.809C864.767 744.605 864.947 744.041 865.131 742.8C864.718 779.697 864.76 761.464 865.13 782.369C865.22 787.484 865.123 814.762 865.638 805.659C865.76 803.51 865.746 786.564 865.937 788.507C865.973 788.883 866.066 809.485 866.016 811.301C865.407 834.095 864.982 793.361 865.204 856.135C865.211 857.865 865.434 858.472 865.465 861.852C865.523 868.208 865.264 868.288 865.324 873.964C865.384 879.643 865.731 887.513 865.41 896.05C864.826 911.661 864.49 874.838 864.8 858.437C864.036 851.779 864.019 968.951 864.085 976.211C864.369 1007.91 864.205 955.158 864.417 952.44C864.506 951.311 865.642 951.873 864.905 938.523C864.687 934.573 864.399 951.081 864.279 941.231C864.158 931.376 864.493 935.28 864.516 934.566C864.596 932.114 864.472 921.633 864.519 920.273C865.239 899.359 866.326 901.276 864.72 928.999C865.083 941.074 865.662 913.358 865.908 928.367C866.207 946.609 865.69 959.924 865.666 962.219C865.39 989.708 866.146 958.011 865.905 991.587C865.77 1010.28 865.402 963.609 865.451 1006.3C865.493 1042.04 865.756 1022.74 866.354 1025.33C866.494 1025.95 866.666 1045.53 866.604 1018.86C866.448 1018.11 866.243 1016.69 866.099 1015C866.213 1008.46 866.993 997.554 867.02 994.085C867.15 977.121 866.745 977.94 867.222 967.936C866.7 975.081 867.015 963.453 866.905 959.089C866.499 942.888 866.348 964.132 866.869 927.765C866.625 932.505 866.385 936.792 866.141 941.381C866.133 937.019 866.124 932.654 866.116 928.292C866.654 921.785 866.586 898.609 867.128 919.596C867.282 894.359 867.164 884.158 866.745 878.628C866.665 877.577 866.633 873.785 866.626 869.33C866.508 870.173 866.144 871.251 866.099 870.549C865.707 864.268 866.385 854.531 866.644 857.85C866.656 854.734 866.671 852.267 866.677 851.396C866.717 845.875 866.951 856.699 867.032 852.224C867.058 850.749 867.007 835.192 867.102 834.891C867.712 833.016 867.272 858.616 867.626 807.208C867.071 805.967 867.193 829.844 866.603 823.713C865.97 817.13 866.82 803.703 866.042 800.769C866.17 799.678 866.277 799.196 866.422 798.256C866.083 777.459 866.731 777.183 866.874 770.829C867.153 758.491 867.111 701.768 866.55 752.7C866.494 745.252 866.468 737.648 866.419 730.237C867.579 728.545 867.117 733.058 867.295 697.363C867.334 689.503 867.844 686.944 867.238 679.234C867.833 680.281 867.474 657.031 867.546 654.861C868.015 640.944 868.668 692.618 867.617 699.244C868.026 707.967 867.485 707.936 867.557 717.674C867.661 731.743 867.766 733.697 867.367 750.398C867.929 766.836 867.614 686.046 868.361 735.022C869.039 779.551 869.445 1019.28 869.597 1112.54L869.605 1116.14L865.984 1116.15C856.643 1116.17 848.77 1116.18 842.711 1116.19C722.154 1116.39 658.768 1116.52 550.474 1116.49C539.792 1116.49 459.15 1116.54 475.91 1115.89C478.317 1115.8 513.003 1115.55 483.252 1115.04C489.304 1115.34 471.81 1115.54 470.343 1115.57C436.679 1116.29 456.166 1116.46 403.166 1116.47ZM246.05 1110.67C315.221 1110.82 264.404 1110.39 278.773 1109.4C269.895 1109.4 261.05 1109.4 252.173 1109.4C254.505 1109.46 256.807 1109.52 259.139 1109.58C259.149 1109.58 259.159 1109.58 259.169 1109.58C254.806 1109.94 250.412 1110.31 246.05 1110.67ZM6.50605 223.822C6.63532 226.52 6.76483 229.188 6.89131 232.111C6.85119 241.251 6.8118 250.355 6.77168 259.494C6.68397 258.403 6.59522 257.35 6.50752 256.259C6.51124 245.448 6.51531 234.67 6.50605 223.822ZM864.658 848.763C865.017 835.824 864.376 836.991 864.668 819.801C864.195 821.908 863.732 824.247 863.263 826.466C863.333 839.551 863.513 842.524 863.398 856.737C863.55 855.083 863.703 853.389 863.856 851.772C863.823 849.405 863.786 846.887 863.757 844.596C864.183 840.949 864.246 863.66 864.659 848.808C864.658 848.793 864.658 848.778 864.658 848.763ZM864.467 716.17C864.529 709.211 864.76 681.642 864.564 677.88C863.9 665.128 864.321 742.909 863.731 685.583C863.638 685.845 863.546 685.583 863.454 685.583C863.421 696.04 863.393 706.466 863.367 716.997C863.735 716.433 864.098 716.809 864.467 716.17ZM496.236 1110.63C506.931 1110.68 557.917 1110.37 541.296 1109.95C536.406 1109.83 513.644 1110.43 504.992 1110.4C499.39 1110.39 505.669 1110.06 494.611 1110.18C495.099 1110.32 495.402 1110.48 496.266 1110.63C496.256 1110.63 496.246 1110.63 496.236 1110.63ZM476.181 1112.55C487.239 1112.49 498.448 1112.42 509.581 1112.36C501.456 1111.98 485.471 1112.22 484.531 1111.69C487.576 1111.65 490.587 1111.61 493.633 1111.57C495.965 1111.69 498.26 1111.8 500.554 1111.92C510.108 1111.63 504.321 1111.49 522.114 1111.57C511.356 1110.77 509.358 1110.34 478.889 1111.15C484.644 1110.72 479.227 1109.3 462.339 1110.32C459.179 1110.5 472.374 1110.63 472.525 1110.66C474.554 1111.03 467.233 1111.27 469.41 1111.62C470.388 1111.78 478.437 1111.77 479.641 1111.99C480.197 1112.1 472.542 1112.41 476.181 1112.55ZM454.139 1110.67C457.562 1110.44 445.865 1109.91 435.709 1110.02C419.873 1110.19 444.848 1110.69 454.139 1110.67ZM6.50557 223.761C6.50573 223.782 6.50589 223.802 6.50605 223.822C6.50557 223.812 6.50508 223.802 6.50459 223.792C6.50491 223.781 6.50524 223.772 6.50557 223.761ZM864.207 752.053C864.016 743.854 864.044 731.718 863.74 732.614C863.799 728.627 863.858 724.596 863.918 720.608C863.826 720.646 863.735 720.721 863.644 720.759C863.587 732.757 863.53 744.719 863.472 756.717C863.717 755.212 863.962 753.82 864.207 752.053ZM864.42 621.34C864.451 606.259 864.037 618.903 863.837 615.593C863.638 612.283 863.8 598.847 863.513 600.427C863.502 609.305 863.491 618.564 863.481 627.554C863.792 625.184 864.11 623.529 864.42 621.31C864.42 621.32 864.42 621.33 864.42 621.34ZM6.17451 1072.29C6.0849 1082.52 5.76933 1078.35 6.13886 1098.55C6.13886 1098.53 6.13886 1098.52 6.13886 1098.5C6.39732 1079.28 6.62765 1054.54 6.37764 1033.33C6.0447 1046.3 6.31447 1056.2 6.17451 1072.29ZM863.726 884.541C863.976 888.86 864.185 868.743 863.953 864.305C863.577 857.122 863.347 877.958 863.726 884.541ZM3.95966 659.079C3.18983 643.516 2.32571 673.004 2.69891 703.883C2.73157 706.554 2.9764 686.618 3.12665 692.524C3.14144 693.121 3.1231 704.065 3.23016 706.772C3.33748 709.48 3.58658 706.636 3.6911 711.075C3.87377 718.864 3.5353 736.464 3.77509 742.294C3.80722 743.061 4.14037 732.146 4.15302 731.461C4.35457 720.253 3.91909 709.452 3.9162 707.72C3.90127 698.805 4.24268 700.152 4.32294 697.895C4.47387 693.644 4.32298 686.16 4.33417 685.633C4.6336 672.104 4.54792 703.018 4.67109 707.193C5.00329 718.438 5.31213 708.027 5.4997 734.997C5.51736 737.557 5.4973 768.214 5.87959 729.58C6.67646 805.439 6.33286 691.464 6.15742 679.089C6.07608 673.384 5.75065 682.022 5.60419 678.562C5.26923 670.663 5.21015 657.198 4.73798 658.402C3.74528 660.999 4.39574 678.682 4.2287 690.869C4.01313 689.59 3.80288 689.102 3.59198 686.732C3.87568 690.38 4.0176 660.207 3.96161 659.079C3.96096 659.079 3.96031 659.079 3.95966 659.079ZM5.09394 851.115C4.79438 868.155 5.42104 866.949 5.06269 882.56C5.62538 896.326 5.58761 869.173 5.61933 866.01C5.76116 851.568 6.37301 851.9 6.18476 837.123C5.82273 842.201 5.45691 846.339 5.09394 851.115ZM5.35224 702.905C5.66951 714.302 5.66414 693.908 5.7248 693.081C6.36839 684.075 6.24331 745.14 5.35224 702.905ZM562.615 1111.89C568.406 1111.91 564.731 1111.61 569.837 1111.52C574.951 1111.43 592.436 1111.69 591.998 1111.5C591.547 1111.31 559.506 1110.82 591.667 1110.71C590.578 1110.61 590.945 1110.53 590.419 1110.43C581.579 1110.43 572.659 1110.42 563.819 1110.42C568.671 1110.73 573.643 1111.05 578.307 1111.35C573.342 1111.59 570.552 1111.28 570.288 1111.28C570.288 1111.28 570.288 1111.28 570.288 1111.28C561.037 1111.3 549.613 1111.84 562.615 1111.89ZM106.761 1110.94C105.031 1111.7 118.684 1110.85 124.289 1110.76C129.893 1110.66 137.593 1110.94 134.7 1110.62C125.635 1110.39 106.949 1110.85 106.761 1110.94C106.761 1110.94 106.761 1110.94 106.761 1110.94ZM5.0954 943.688C5.28002 957.971 5.47775 955.704 5.25214 973.177C5.43598 972.5 5.62384 971.823 5.80488 971.146C5.80861 957.267 5.27493 958.242 5.48945 942.184C5.52491 939.551 5.95118 945.188 5.81416 933.307C5.58665 936.765 5.33412 940.268 5.0954 943.688ZM5.77705 1014.48C5.74898 998.076 4.26136 985.069 4.93232 1015.27C5.0326 1019.75 5.7985 1026.81 5.77705 1014.48ZM411.336 1111.93C439.234 1111.97 407.541 1111.73 400.278 1111.5C465.224 1111.32 392.946 1111.57 386.466 1110.81C378.53 1111.02 363.678 1111.52 380.177 1111.65C387.061 1111.71 384.548 1111.48 384.962 1111.48C397.637 1111.54 396.102 1111.91 411.336 1111.93ZM5.05732 821.506C5.06852 822.56 5.32533 820.912 5.37665 824.26C5.42761 827.611 5.24787 835.198 5.40546 835.95C5.56404 836.699 5.68702 821.481 5.57148 816.812C5.45483 812.148 4.95843 811.99 5.05732 821.506ZM4.4245 928.568C4.6093 942.506 5.55539 919.714 5.55097 916.682C5.50151 890.05 4.72406 929.358 4.4245 928.568ZM346.551 1113.54C380.18 1113.06 355.58 1112.22 334.515 1111.72C331.733 1111.82 328.879 1111.92 326.135 1112.03C338.774 1111.41 360.923 1110.8 311.647 1111.34C338.618 1111.48 316.033 1111.65 315.859 1111.68C312.888 1112.82 352.841 1112.29 346.521 1113.54C346.531 1113.54 346.541 1113.54 346.551 1113.54ZM5.32783 776.175C5.32404 761.539 5.12802 723.488 4.63349 741.24C4.86488 752.899 5.09644 764.517 5.32783 776.175ZM866.918 1081.42C867.201 1069.46 867.196 1058.43 867.177 1043.69C866.766 1056.97 866.718 1048.24 866.617 1043.76C866.466 1036.97 866.478 1053.42 866.451 1053.47C866.06 1053.17 865.999 1042.68 866.008 1066.56C865.872 1060.65 865.735 1054.83 865.599 1048.92C865.582 1067.13 865.327 1071.41 865.015 1082.96C865.776 1071.75 865.3 1086.51 865.679 1099.9C865.868 1106.58 866.773 1087.51 866.918 1081.38C866.918 1081.39 866.918 1081.41 866.918 1081.42ZM381.306 1113.69C384.766 1113.55 387.933 1113.37 391.281 1113.21C394.929 1113.2 398.585 1113.18 402.234 1113.17C402.685 1113.29 403.061 1113.42 403.588 1113.53C408.396 1113.57 406.522 1113.4 407.951 1113.38C407.951 1113.38 407.951 1113.38 407.951 1113.38C428.443 1113.16 436.835 1113.19 452.891 1113.56C452.891 1113.19 452.891 1112.82 452.891 1112.45C449.282 1112.48 445.636 1112.52 442.028 1112.55C440.11 1112.75 438.184 1112.95 436.266 1113.15C432.091 1113.04 427.953 1112.93 423.778 1112.82C420.433 1112.89 416.413 1112.97 413.517 1113.04C396.855 1112 434.724 1112.7 435.062 1112.27C435.287 1112 397.149 1112.01 391.657 1112.2C390.867 1112.23 399.108 1113 385.157 1112.6C382.976 1112.53 382.208 1110.86 367.163 1112.22C365.02 1112.41 372.506 1113.45 381.306 1113.69ZM519.782 1114.23C498.341 1113.16 577.474 1114.29 543.327 1113.41C553.068 1112.92 551.261 1112.92 541.447 1112.49C540.583 1112.45 547.363 1112.31 546.788 1112.3C537.609 1112.06 526.552 1112.18 526.477 1111.75C523.995 1111.77 521.661 1111.79 519.18 1111.81C529.517 1112.23 513.079 1112.5 506.722 1112.85C503.827 1113.01 510.482 1113.06 508.046 1113.2C507.144 1113.25 497.852 1113.14 497.47 1113.29C496.68 1113.62 502.517 1114.06 512.409 1114.3C512.409 1114.3 512.409 1114.3 512.409 1114.3C514.89 1114.28 517.301 1114.25 519.782 1114.23ZM61.5355 1113.34C57.8868 1112.75 43.2611 1112.58 71.36 1112.29C69.9696 1112.17 68.5379 1112.06 67.1473 1111.94C62.4089 1111.95 57.8183 1111.96 53.0049 1111.97C38.5609 1113.71 12.1971 1111.75 29.0831 1112.98C30.9263 1113.12 42.1657 1112.97 31.069 1113.33C31.0842 1113.33 31.099 1113.33 31.1141 1113.33C46.6074 1113.22 48.5595 1113.01 61.5355 1113.34ZM165.242 1112.93C200.977 1111.68 115.862 1112.23 130.081 1112.56C131.36 1112.59 168.025 1112.33 165.242 1112.93ZM2.51043 987.049C2.48898 1003.07 3.16065 1004.13 3.40253 1002.52C3.64513 1000.9 3.39997 989.804 3.43817 988.373C3.56415 983.708 3.64737 993.601 3.82001 987.545C3.87607 985.54 4.11553 957.635 4.08661 956.356C3.92595 949.257 3.37173 959.636 3.30829 957.605C3.1003 950.986 3.38861 941.997 3.09393 940.078C2.46517 935.941 3.12521 952.699 3.13592 955.529C3.16579 964.068 2.81183 963.322 2.7409 969.717C2.67012 976.106 2.79137 980.282 2.76629 985.92C2.75792 987.796 2.51267 986.236 2.51043 987.049ZM3.9289 1040.02C3.42044 1023.29 2.86746 1064.03 2.98651 1068.86C3.34019 1083.08 4.17153 1048.03 3.9289 1040.02ZM466.1 1112.61C450.796 1112.98 486.449 1113.28 496.642 1113.13C494.752 1112.98 471.365 1112.49 466.1 1112.61ZM337.223 1113.54C351.292 1113.42 332.635 1112.59 320.899 1112.6C314.019 1113.15 320.493 1113.04 328.166 1113.06C335.83 1113.09 326.248 1113.62 337.223 1113.54ZM3.11737 813.277C3.1087 816.312 3.5598 865.23 3.74725 837.123C3.76125 834.979 3.68183 800.737 3.59784 798.141C3.42799 792.919 3.14163 805.454 3.11737 813.277ZM269.746 1114.34C277.193 1113.87 284.52 1113.88 277.675 1113.32C277.665 1113.32 277.654 1113.32 277.644 1113.32C296.488 1113.15 297.323 1114.29 301.386 1114.26C315.595 1114.18 302.133 1113.37 311.045 1113.1C290.32 1113.35 296.263 1112.81 280.503 1112.77C276.967 1112.77 262.818 1113.09 260.749 1113.29C258.684 1113.5 265.909 1114.1 269.746 1114.34ZM2.99969 744.174C2.81881 760.686 3.58391 775.804 3.70526 752.9C3.76499 741.728 3.10981 734.093 2.99969 744.174ZM867.16 692.353C866.96 694.873 866.76 697.469 866.561 700.177C866.513 694.086 866.463 687.988 866.414 681.897C866.477 686.712 866.54 691.533 866.602 696.386C866.672 684.95 867.037 679.722 867.16 692.323C867.16 692.333 867.16 692.343 867.16 692.353ZM867.313 285.246C867.506 280.13 866.908 270.05 866.862 271.329C866.514 280.956 867.045 292.346 867.313 285.246ZM488.713 1114.43C507.732 1114.51 494.654 1113.54 482.996 1113.48C490.128 1113.66 477.921 1114.38 488.713 1114.43ZM867.266 428.416C867.182 430.123 867.099 431.844 867.015 433.757C867.131 427.741 867.209 426.698 867.266 428.416ZM2.25848 821.055C2.18385 823.959 2.12222 845.432 2.21453 848.332C2.40864 854.351 2.94561 837.606 2.78045 827.75C2.76272 826.659 2.33314 818.166 2.25848 821.1C2.25848 821.085 2.25848 821.07 2.25848 821.055ZM867.533 666.626C867.524 666.66 867.515 666.642 867.507 666.581C867.515 666.603 867.524 666.597 867.533 666.626ZM721.26 0.000175238C721.376 0.0152626 721.439 0.0302365 721.425 0.0446091C721.38 0.0304964 721.289 0.0156484 721.26 0.000175238ZM1.43279 972.5C0.506118 979.647 0.999002 996.122 1.45721 983.107C1.48129 982.378 1.43097 974.233 1.43279 972.5Z" fill="#424242"/>
<defs>
<linearGradient id="paint0_linear_3824_340" x1="434.984" y1="2.53711" x2="434.984" y2="1112.54" gradientUnits="userSpaceOnUse">
<stop stop-color="#52667E"/>
<stop offset="1" stop-color="#D3D3D2"/>
</linearGradient>
</defs>
</svg>
