<svg width="75" height="201" viewBox="0 0 75 201" fill="none" xmlns="http://www.w3.org/2000/svg">
<path d="M9.48998 61.3268C9.60992 65.7588 15.5349 74.2634 38.2754 72.826C61.0159 71.3886 66.701 64.561 66.701 61.3268L66.701 7.42413C63.7027 10.6583 53.82 17.1266 38.2754 17.1266C22.7308 17.1266 12.6082 9.46044 9.48998 5.62736L9.48998 61.3268Z" fill="url(#paint0_linear_3824_373)"/>
<path d="M13.448 83.2471C20.7643 86.7207 40.5782 91.5839 61.3037 83.2471C78.575 74.0476 72.0983 64.8004 66.701 61.3268C66.701 64.561 61.0159 71.3886 38.2754 72.826C15.5349 74.2634 9.60992 65.7588 9.48998 61.3268C-5.76629 69.6637 5.77186 79.414 13.448 83.2471Z" fill="#828282"/>
<path d="M61.3037 143.259L61.3037 83.2471C40.5782 91.5839 20.7643 86.7207 13.448 83.2471L13.448 143.259C13.9283 143.598 14.4081 143.926 14.8872 144.241C33.1081 156.225 50.4125 150.644 58.8724 145.056C59.7904 144.449 60.6042 143.843 61.3037 143.259Z" fill="url(#paint1_linear_3824_373)"/>
<path d="M58.8724 145.056C50.4125 150.644 33.1081 156.225 14.8872 144.241C14.1078 148.941 16.8225 158.253 32.8787 160.483C34.117 160.655 35.4346 160.785 36.8361 160.867C38.6767 160.839 40.9422 160.628 43.3134 160.158C50.9062 158.651 59.5838 154.476 58.8724 145.056Z" fill="#4C4C4C"/>
<path d="M36.8361 160.867C35.4346 160.785 34.117 160.655 32.8787 160.483L32.8787 196.443C34.6778 197.88 39.2834 199.893 43.3134 196.443L43.3134 160.158C40.9422 160.628 38.6767 160.839 36.8361 160.867Z" fill="#404040"/>
<path d="M61.3037 83.2471L61.3037 143.259C60.6042 143.843 59.7904 144.449 58.8724 145.056M61.3037 83.2471C40.5782 91.5839 20.7643 86.7207 13.448 83.2471M61.3037 83.2471C78.575 74.0476 72.0983 64.8004 66.701 61.3268M13.448 83.2471L13.448 143.259C13.9283 143.598 14.4081 143.926 14.8872 144.241M13.448 83.2471C5.77186 79.414 -5.76629 69.6637 9.48998 61.3268M14.8872 144.241C33.1081 156.225 50.4125 150.644 58.8724 145.056M14.8872 144.241C14.1078 148.941 16.8225 158.253 32.8787 160.483M58.8724 145.056C59.5838 154.476 50.9062 158.651 43.3134 160.158M9.48998 61.3268C9.60992 65.7588 15.5349 74.2634 38.2754 72.826C61.0159 71.3886 66.701 64.561 66.701 61.3268M9.48998 61.3268L9.48998 5.62736C12.6082 9.46044 22.7308 17.1266 38.2754 17.1266C53.82 17.1266 63.7027 10.6583 66.701 7.42413L66.701 61.3268M32.8787 160.483C34.117 160.655 35.4346 160.785 36.8361 160.867C38.6767 160.839 40.9422 160.628 43.3134 160.158M32.8787 160.483L32.8787 196.443C34.6778 197.88 39.2834 199.893 43.3134 196.443L43.3134 160.158" stroke="#404040" stroke-width="4"/>
<defs>
<linearGradient id="paint0_linear_3824_373" x1="37.2541" y1="5.62736" x2="37.2541" y2="198.348" gradientUnits="userSpaceOnUse">
<stop stop-color="#AEAEAE"/>
<stop offset="1" stop-color="#7D7D7D"/>
</linearGradient>
<linearGradient id="paint1_linear_3824_373" x1="37.2541" y1="5.62736" x2="37.2541" y2="198.348" gradientUnits="userSpaceOnUse">
<stop stop-color="#AEAEAE"/>
<stop offset="1" stop-color="#7D7D7D"/>
</linearGradient>
</defs>
</svg>
