<svg width="75" height="202" viewBox="0 0 75 202" fill="none" xmlns="http://www.w3.org/2000/svg">
<path d="M9.48997 61.2986C9.60991 65.7284 15.5349 74.229 38.2754 72.7923C61.0159 71.3556 66.701 64.5312 66.701 61.2986L66.701 7.42188C63.7027 10.6545 53.82 17.1197 38.2754 17.1197C22.7308 17.1197 12.6082 9.45721 9.48998 5.62598L9.48997 61.2986Z" fill="url(#paint0_linear_3824_374)"/>
<path d="M13.448 83.2083C20.7643 86.6803 40.5782 91.5411 61.3037 83.2083C78.575 74.0133 72.0983 64.7705 66.701 61.2986C66.701 64.5312 61.0159 71.3556 38.2754 72.7923C15.5349 74.229 9.60991 65.7284 9.48997 61.2986C-5.7663 69.6315 5.77186 79.3772 13.448 83.2083Z" fill="#797979"/>
<path d="M61.3037 143.191L61.3037 83.2083C40.5782 91.5411 20.7643 86.6803 13.448 83.2083L13.448 143.191C13.9283 143.531 14.4081 143.858 14.8872 144.173C33.1081 156.151 50.4125 150.573 58.8724 144.987C59.7904 144.381 60.6042 143.775 61.3037 143.191Z" fill="url(#paint1_linear_3824_374)"/>
<path d="M58.8724 144.987C50.4125 150.573 33.1081 156.151 14.8872 144.173C14.1078 148.871 12.6516 157.923 28.7077 160.151C29.946 160.323 35.4346 160.709 36.8361 160.791C38.6767 160.762 43.4292 160.622 45.8004 160.151C53.3933 158.645 59.5838 154.402 58.8724 144.987Z" fill="#4E4E4E"/>
<path d="M36.8361 160.791C35.4346 160.709 29.946 160.323 28.7077 160.151L28.7077 188.73C30.5068 190.167 41.7705 202.766 45.8004 199.318L45.8004 160.151C43.4292 160.622 38.6767 160.762 36.8361 160.791Z" fill="#404040"/>
<path d="M61.3037 83.2083L61.3037 143.191C60.6042 143.775 59.7904 144.381 58.8724 144.987M61.3037 83.2083C40.5782 91.5411 20.7643 86.6803 13.448 83.2083M61.3037 83.2083C78.575 74.0133 72.0983 64.7705 66.701 61.2986M13.448 83.2083L13.448 143.191C13.9283 143.531 14.4081 143.858 14.8872 144.173M13.448 83.2083C5.77186 79.3772 -5.7663 69.6315 9.48997 61.2986M14.8872 144.173C33.1081 156.151 50.4125 150.573 58.8724 144.987M14.8872 144.173C14.1078 148.871 12.6516 157.923 28.7077 160.151M58.8724 144.987C59.5838 154.402 53.3933 158.645 45.8004 160.151M9.48997 61.2986C9.60991 65.7284 15.5349 74.229 38.2754 72.7923C61.0159 71.3556 66.701 64.5312 66.701 61.2986M9.48997 61.2986L9.48998 5.62598C12.6082 9.45721 22.7308 17.1197 38.2754 17.1197C53.82 17.1197 63.7027 10.6545 66.701 7.42188L66.701 61.2986M28.7077 160.151C29.946 160.323 35.4346 160.709 36.8361 160.791C38.6767 160.762 43.4292 160.622 45.8004 160.151M28.7077 160.151L28.7077 188.73C30.5068 190.167 41.7705 202.766 45.8004 199.318L45.8004 160.151" stroke="#404040" stroke-width="4"/>
<defs>
<linearGradient id="paint0_linear_3824_374" x1="37.2541" y1="5.62597" x2="37.2541" y2="199.913" gradientUnits="userSpaceOnUse">
<stop stop-color="#AEAEAE"/>
<stop offset="1" stop-color="#7D7D7D"/>
</linearGradient>
<linearGradient id="paint1_linear_3824_374" x1="37.2541" y1="5.62597" x2="37.2541" y2="199.913" gradientUnits="userSpaceOnUse">
<stop stop-color="#AEAEAE"/>
<stop offset="1" stop-color="#7D7D7D"/>
</linearGradient>
</defs>
</svg>
