<svg width="73" height="196" viewBox="0 0 73 196" fill="none" xmlns="http://www.w3.org/2000/svg">
<path d="M9.32396 61.4406C9.44123 65.8736 15.2346 74.3803 37.4697 72.9426C59.7048 71.5048 65.2636 64.6755 65.2636 61.4406L65.2636 7.52501C62.332 10.7599 52.6688 17.2298 37.4697 17.2298C22.2706 17.2298 12.3729 9.56182 9.32396 5.72782L9.32396 61.4406Z" fill="url(#paint0_linear_3824_376)"/>
<path d="M13.194 83.3661C20.3477 86.8406 39.7214 91.7049 59.9863 83.3661C76.8737 74.1644 70.5409 64.915 65.2636 61.4406C65.2636 64.6755 59.7048 71.5048 37.4697 72.9426C15.2346 74.3803 9.44123 65.8736 9.32396 61.4406C-5.59328 69.7795 5.68847 79.5321 13.194 83.3661Z" fill="#838383"/>
<path d="M59.9863 143.392L59.9863 83.3661C39.7214 91.7049 20.3477 86.8406 13.194 83.3661L13.194 143.392C13.6636 143.732 14.1328 144.059 14.6013 144.375C32.4172 156.361 49.3371 150.779 57.609 145.189C58.5066 144.583 59.3023 143.976 59.9863 143.392Z" fill="url(#paint1_linear_3824_376)"/>
<path d="M57.609 145.189C49.3371 150.779 32.4172 156.361 14.6013 144.375C13.8391 149.076 20.6902 158.767 36.3896 160.998C38.1273 160.95 40.2158 160.738 42.3957 160.295C49.8198 158.788 58.3046 154.612 57.609 145.189Z" fill="#595959"/>
<path d="M59.9863 83.3661L59.9863 143.392C59.3023 143.976 58.5066 144.583 57.609 145.189M59.9863 83.3661C39.7214 91.7049 20.3477 86.8406 13.194 83.3661M59.9863 83.3661C76.8737 74.1644 70.5409 64.915 65.2636 61.4406M13.194 83.3661L13.194 143.392C13.6636 143.732 14.1328 144.059 14.6013 144.375M13.194 83.3661C5.68847 79.5321 -5.59328 69.7795 9.32396 61.4406M14.6013 144.375C32.4172 156.361 49.3371 150.779 57.609 145.189M14.6013 144.375C13.8391 149.076 20.6902 158.767 36.3896 160.998M57.609 145.189C58.3046 154.612 49.8198 158.788 42.3957 160.295M9.32396 61.4406C9.44123 65.8736 15.2346 74.3803 37.4697 72.9426C59.7048 71.5048 65.2636 64.6755 65.2636 61.4406M9.32396 61.4406L9.32396 5.72782C12.3729 9.56182 22.2706 17.2298 37.4697 17.2298C52.6688 17.2298 62.332 10.7599 65.2636 7.52501L65.2636 61.4406M36.3896 160.998C37.6003 161.17 34.692 160.922 36.0624 161.005C37.8621 160.976 40.0772 160.766 42.3957 160.295M36.3896 160.998L36.3896 195.314M36.3896 160.998C38.1273 160.95 40.2158 160.738 42.3957 160.295" stroke="#404040" stroke-width="4"/>
<defs>
<linearGradient id="paint0_linear_3824_376" x1="36.4711" y1="5.72783" x2="36.4711" y2="195.314" gradientUnits="userSpaceOnUse">
<stop stop-color="#AEAEAE"/>
<stop offset="1" stop-color="#7D7D7D"/>
</linearGradient>
<linearGradient id="paint1_linear_3824_376" x1="36.4711" y1="5.72783" x2="36.4711" y2="195.314" gradientUnits="userSpaceOnUse">
<stop stop-color="#AEAEAE"/>
<stop offset="1" stop-color="#7D7D7D"/>
</linearGradient>
</defs>
</svg>
