<svg width="75" height="207" viewBox="0 0 75 207" fill="none" xmlns="http://www.w3.org/2000/svg">
<path d="M9.48997 61.4784C9.60991 65.9216 15.5349 74.4478 38.2754 73.0068C61.0159 71.5658 66.701 64.7207 66.701 61.4784L66.701 7.43966C63.7027 10.682 53.82 17.1666 38.2754 17.1666C22.7308 17.1666 12.6082 9.48111 9.48998 5.63836L9.48997 61.4784Z" fill="url(#paint0_linear_3824_375)"/>
<path d="M13.448 83.4541C20.7643 86.9366 40.5782 91.812 61.3037 83.4541C78.575 74.2314 72.0983 64.9608 66.701 61.4784C66.701 64.7207 61.0159 71.5658 38.2754 73.0068C15.5349 74.4478 9.60991 65.9216 9.48997 61.4784C-5.7663 69.8364 5.77186 79.6114 13.448 83.4541Z" fill="#717171"/>
<path d="M61.3037 143.617L61.3037 83.4541C40.5782 91.812 20.7643 86.9366 13.448 83.4541L13.448 143.617C13.9283 143.958 14.4081 144.286 14.8872 144.602C33.1081 156.616 50.4125 151.021 58.8724 145.419C59.7904 144.811 60.6042 144.203 61.3037 143.617Z" fill="url(#paint1_linear_3824_375)"/>
<path d="M58.8724 145.419C50.4125 151.021 33.1081 156.616 14.8872 144.602C14.1078 149.314 13.448 156.38 22.298 160.628C23.5362 160.801 35.4346 161.187 36.8361 161.27C38.6767 161.241 48.7707 161.1 51.1419 160.628C54.3468 159.565 59.5838 154.862 58.8724 145.419Z" fill="#525252"/>
<path d="M36.8361 161.27C35.4346 161.187 23.5362 160.801 22.298 160.628L22.298 188.229C24.0971 189.67 47.112 207.643 51.1419 204.185L51.1419 160.628C48.7707 161.1 38.6767 161.241 36.8361 161.27Z" fill="#404040"/>
<path d="M61.3037 83.4541L61.3037 143.617C60.6042 144.203 59.7904 144.811 58.8724 145.419M61.3037 83.4541C40.5782 91.812 20.7643 86.9366 13.448 83.4541M61.3037 83.4541C78.575 74.2314 72.0983 64.9608 66.701 61.4784M13.448 83.4541L13.448 143.617C13.9283 143.958 14.4081 144.286 14.8872 144.602M13.448 83.4541C5.77186 79.6114 -5.7663 69.8364 9.48997 61.4784M14.8872 144.602C33.1081 156.616 50.4125 151.021 58.8724 145.419M14.8872 144.602C14.1078 149.314 13.448 156.38 22.298 160.628M58.8724 145.419C59.5838 154.862 54.3468 159.565 51.1419 160.628M9.48997 61.4784C9.60991 65.9216 15.5349 74.4478 38.2754 73.0068C61.0159 71.5658 66.701 64.7207 66.701 61.4784M9.48997 61.4784L9.48998 5.63836C12.6082 9.48111 22.7308 17.1666 38.2754 17.1666C53.82 17.1666 63.7027 10.682 66.701 7.43966L66.701 61.4784M22.298 160.628C23.5362 160.801 35.4346 161.187 36.8361 161.27C38.6767 161.241 48.7707 161.1 51.1419 160.628M22.298 160.628L22.298 188.229C24.0971 189.67 47.112 207.643 51.1419 204.185L51.1419 160.628" stroke="#404040" stroke-width="4"/>
<defs>
<linearGradient id="paint0_linear_3824_375" x1="37.2541" y1="5.63836" x2="37.2541" y2="204.626" gradientUnits="userSpaceOnUse">
<stop stop-color="#AEAEAE"/>
<stop offset="1" stop-color="#7D7D7D"/>
</linearGradient>
<linearGradient id="paint1_linear_3824_375" x1="37.2541" y1="5.63836" x2="37.2541" y2="204.626" gradientUnits="userSpaceOnUse">
<stop stop-color="#AEAEAE"/>
<stop offset="1" stop-color="#7D7D7D"/>
</linearGradient>
</defs>
</svg>
