<svg width="1763" height="1117" viewBox="0 0 1763 1117" fill="none" xmlns="http://www.w3.org/2000/svg">
<g clip-path="url(#clip0_3827_1312)">
<path d="M3.32422 2.53711H1759.32V1112.54H3.32422V2.53711Z" fill="url(#paint0_linear_3827_1312)"/>
<circle cx="911.359" cy="-1.50609" r="12.9568" fill="#D9D9D9" fill-opacity="0.42"/>
<circle cx="439.613" cy="-1.50609" r="12.9568" fill="#D9D9D9" fill-opacity="0.42"/>
<circle cx="1383.11" cy="-1.50609" r="12.9568" fill="#D9D9D9" fill-opacity="0.42"/>
<ellipse cx="911.953" cy="292.672" rx="12.9568" ry="13.2513" fill="#D9D9D9" fill-opacity="0.42"/>
<ellipse cx="440.203" cy="292.672" rx="12.9568" ry="13.2513" fill="#D9D9D9" fill-opacity="0.42"/>
<ellipse cx="1383.7" cy="292.672" rx="12.9568" ry="13.2513" fill="#D9D9D9" fill-opacity="0.42"/>
<circle cx="85.6599" cy="-1.50609" r="12.9568" fill="#D9D9D9" fill-opacity="0.42"/>
<circle cx="1029.15" cy="-1.50609" r="12.9568" fill="#D9D9D9" fill-opacity="0.42"/>
<circle cx="557.406" cy="-1.50609" r="12.9568" fill="#D9D9D9" fill-opacity="0.42"/>
<circle cx="1500.89" cy="-1.50609" r="12.9568" fill="#D9D9D9" fill-opacity="0.42"/>
<circle cx="85.9544" cy="292.672" r="13.2513" fill="#D9D9D9" fill-opacity="0.42"/>
<circle cx="1029.44" cy="292.672" r="13.2513" fill="#D9D9D9" fill-opacity="0.42"/>
<circle cx="557.701" cy="292.672" r="13.2513" fill="#D9D9D9" fill-opacity="0.42"/>
<circle cx="1501.19" cy="292.672" r="13.2513" fill="#D9D9D9" fill-opacity="0.42"/>
<circle cx="26.7654" cy="-1.50609" r="12.9568" fill="#D9D9D9" fill-opacity="0.42"/>
<circle cx="970.258" cy="-1.50609" r="12.9568" fill="#D9D9D9" fill-opacity="0.42"/>
<circle cx="498.512" cy="-1.50609" r="12.9568" fill="#D9D9D9" fill-opacity="0.42"/>
<circle cx="1442" cy="-1.50609" r="12.9568" fill="#D9D9D9" fill-opacity="0.42"/>
<ellipse cx="27.3552" cy="292.672" rx="12.9568" ry="13.2513" fill="#D9D9D9" fill-opacity="0.42"/>
<ellipse cx="970.844" cy="292.672" rx="12.9568" ry="13.2513" fill="#D9D9D9" fill-opacity="0.42"/>
<ellipse cx="499.101" cy="292.672" rx="12.9568" ry="13.2513" fill="#D9D9D9" fill-opacity="0.42"/>
<ellipse cx="1442.59" cy="292.672" rx="12.9568" ry="13.2513" fill="#D9D9D9" fill-opacity="0.42"/>
<circle cx="144.554" cy="-1.50609" r="12.9568" fill="#D9D9D9" fill-opacity="0.42"/>
<circle cx="1088.05" cy="-1.50609" r="12.9568" fill="#D9D9D9" fill-opacity="0.42"/>
<circle cx="616.297" cy="-1.50609" r="12.9568" fill="#D9D9D9" fill-opacity="0.42"/>
<circle cx="1559.79" cy="-1.50609" r="12.9568" fill="#D9D9D9" fill-opacity="0.42"/>
<circle cx="144.849" cy="292.672" r="13.2513" fill="#D9D9D9" fill-opacity="0.42"/>
<circle cx="1088.34" cy="292.672" r="13.2513" fill="#D9D9D9" fill-opacity="0.42"/>
<circle cx="616.591" cy="292.672" r="13.2513" fill="#D9D9D9" fill-opacity="0.42"/>
<circle cx="1560.08" cy="292.672" r="13.2513" fill="#D9D9D9" fill-opacity="0.42"/>
<circle cx="911.359" cy="57.3888" r="12.9568" fill="#D9D9D9" fill-opacity="0.42"/>
<circle cx="439.613" cy="57.3888" r="12.9568" fill="#D9D9D9" fill-opacity="0.42"/>
<circle cx="1383.11" cy="57.3888" r="12.9568" fill="#D9D9D9" fill-opacity="0.42"/>
<circle cx="911.953" cy="351.272" r="12.9568" fill="#D9D9D9" fill-opacity="0.42"/>
<circle cx="440.203" cy="351.272" r="12.9568" fill="#D9D9D9" fill-opacity="0.42"/>
<circle cx="1383.7" cy="351.272" r="12.9568" fill="#D9D9D9" fill-opacity="0.42"/>
<circle cx="85.6599" cy="57.3888" r="12.9568" fill="#D9D9D9" fill-opacity="0.42"/>
<circle cx="1029.15" cy="57.3888" r="12.9568" fill="#D9D9D9" fill-opacity="0.42"/>
<circle cx="557.406" cy="57.3888" r="12.9568" fill="#D9D9D9" fill-opacity="0.42"/>
<circle cx="1500.89" cy="57.3888" r="12.9568" fill="#D9D9D9" fill-opacity="0.42"/>
<ellipse cx="85.9544" cy="351.272" rx="13.2513" ry="12.9568" fill="#D9D9D9" fill-opacity="0.42"/>
<ellipse cx="1029.44" cy="351.272" rx="13.2513" ry="12.9568" fill="#D9D9D9" fill-opacity="0.42"/>
<ellipse cx="557.701" cy="351.272" rx="13.2513" ry="12.9568" fill="#D9D9D9" fill-opacity="0.42"/>
<ellipse cx="1501.19" cy="351.272" rx="13.2513" ry="12.9568" fill="#D9D9D9" fill-opacity="0.42"/>
<circle cx="26.7654" cy="57.3888" r="12.9568" fill="#D9D9D9" fill-opacity="0.42"/>
<circle cx="970.258" cy="57.3888" r="12.9568" fill="#D9D9D9" fill-opacity="0.42"/>
<circle cx="498.512" cy="57.3888" r="12.9568" fill="#D9D9D9" fill-opacity="0.42"/>
<circle cx="1442" cy="57.3888" r="12.9568" fill="#D9D9D9" fill-opacity="0.42"/>
<circle cx="27.3552" cy="351.272" r="12.9568" fill="#D9D9D9" fill-opacity="0.42"/>
<circle cx="970.844" cy="351.272" r="12.9568" fill="#D9D9D9" fill-opacity="0.42"/>
<circle cx="499.101" cy="351.272" r="12.9568" fill="#D9D9D9" fill-opacity="0.42"/>
<circle cx="1442.59" cy="351.272" r="12.9568" fill="#D9D9D9" fill-opacity="0.42"/>
<circle cx="144.554" cy="57.3888" r="12.9568" fill="#D9D9D9" fill-opacity="0.42"/>
<circle cx="1088.05" cy="57.3888" r="12.9568" fill="#D9D9D9" fill-opacity="0.42"/>
<circle cx="616.297" cy="57.3888" r="12.9568" fill="#D9D9D9" fill-opacity="0.42"/>
<circle cx="1559.79" cy="57.3888" r="12.9568" fill="#D9D9D9" fill-opacity="0.42"/>
<ellipse cx="144.849" cy="351.272" rx="13.2513" ry="12.9568" fill="#D9D9D9" fill-opacity="0.42"/>
<ellipse cx="1088.34" cy="351.272" rx="13.2513" ry="12.9568" fill="#D9D9D9" fill-opacity="0.42"/>
<ellipse cx="616.591" cy="351.272" rx="13.2513" ry="12.9568" fill="#D9D9D9" fill-opacity="0.42"/>
<ellipse cx="1560.08" cy="351.272" rx="13.2513" ry="12.9568" fill="#D9D9D9" fill-opacity="0.42"/>
<circle cx="911.359" cy="116.283" r="12.9568" fill="#D9D9D9" fill-opacity="0.42"/>
<circle cx="439.613" cy="116.283" r="12.9568" fill="#D9D9D9" fill-opacity="0.42"/>
<circle cx="1383.11" cy="116.283" r="12.9568" fill="#D9D9D9" fill-opacity="0.42"/>
<circle cx="911.953" cy="410.167" r="12.9568" fill="#D9D9D9" fill-opacity="0.42"/>
<circle cx="440.203" cy="410.167" r="12.9568" fill="#D9D9D9" fill-opacity="0.42"/>
<circle cx="1383.7" cy="410.167" r="12.9568" fill="#D9D9D9" fill-opacity="0.42"/>
<circle cx="85.6599" cy="116.283" r="12.9568" fill="#D9D9D9" fill-opacity="0.42"/>
<circle cx="1029.15" cy="116.283" r="12.9568" fill="#D9D9D9" fill-opacity="0.42"/>
<circle cx="557.406" cy="116.283" r="12.9568" fill="#D9D9D9" fill-opacity="0.42"/>
<circle cx="1500.89" cy="116.283" r="12.9568" fill="#D9D9D9" fill-opacity="0.42"/>
<ellipse cx="85.9544" cy="410.167" rx="13.2513" ry="12.9568" fill="#D9D9D9" fill-opacity="0.42"/>
<ellipse cx="1029.44" cy="410.167" rx="13.2513" ry="12.9568" fill="#D9D9D9" fill-opacity="0.42"/>
<ellipse cx="557.701" cy="410.167" rx="13.2513" ry="12.9568" fill="#D9D9D9" fill-opacity="0.42"/>
<ellipse cx="1501.19" cy="410.167" rx="13.2513" ry="12.9568" fill="#D9D9D9" fill-opacity="0.42"/>
<circle cx="26.7654" cy="116.283" r="12.9568" fill="#D9D9D9" fill-opacity="0.42"/>
<circle cx="970.258" cy="116.283" r="12.9568" fill="#D9D9D9" fill-opacity="0.42"/>
<circle cx="498.512" cy="116.283" r="12.9568" fill="#D9D9D9" fill-opacity="0.42"/>
<circle cx="1442" cy="116.283" r="12.9568" fill="#D9D9D9" fill-opacity="0.42"/>
<circle cx="27.3552" cy="410.167" r="12.9568" fill="#D9D9D9" fill-opacity="0.42"/>
<circle cx="970.844" cy="410.167" r="12.9568" fill="#D9D9D9" fill-opacity="0.42"/>
<circle cx="499.101" cy="410.167" r="12.9568" fill="#D9D9D9" fill-opacity="0.42"/>
<circle cx="1442.59" cy="410.167" r="12.9568" fill="#D9D9D9" fill-opacity="0.42"/>
<circle cx="144.554" cy="116.283" r="12.9568" fill="#D9D9D9" fill-opacity="0.42"/>
<circle cx="1088.05" cy="116.283" r="12.9568" fill="#D9D9D9" fill-opacity="0.42"/>
<circle cx="616.297" cy="116.283" r="12.9568" fill="#D9D9D9" fill-opacity="0.42"/>
<circle cx="1559.79" cy="116.283" r="12.9568" fill="#D9D9D9" fill-opacity="0.42"/>
<ellipse cx="144.849" cy="410.167" rx="13.2513" ry="12.9568" fill="#D9D9D9" fill-opacity="0.42"/>
<ellipse cx="1088.34" cy="410.167" rx="13.2513" ry="12.9568" fill="#D9D9D9" fill-opacity="0.42"/>
<ellipse cx="616.591" cy="410.167" rx="13.2513" ry="12.9568" fill="#D9D9D9" fill-opacity="0.42"/>
<ellipse cx="1560.08" cy="410.167" rx="13.2513" ry="12.9568" fill="#D9D9D9" fill-opacity="0.42"/>
<circle cx="911.359" cy="175.177" r="12.9568" fill="#D9D9D9" fill-opacity="0.42"/>
<circle cx="439.613" cy="175.177" r="12.9568" fill="#D9D9D9" fill-opacity="0.42"/>
<circle cx="1383.11" cy="175.177" r="12.9568" fill="#D9D9D9" fill-opacity="0.42"/>
<circle cx="911.953" cy="469.061" r="12.9568" fill="#D9D9D9" fill-opacity="0.42"/>
<circle cx="440.203" cy="469.061" r="12.9568" fill="#D9D9D9" fill-opacity="0.42"/>
<circle cx="1383.7" cy="469.061" r="12.9568" fill="#D9D9D9" fill-opacity="0.42"/>
<circle cx="85.6599" cy="175.177" r="12.9568" fill="#D9D9D9" fill-opacity="0.42"/>
<circle cx="1029.15" cy="175.177" r="12.9568" fill="#D9D9D9" fill-opacity="0.42"/>
<circle cx="557.406" cy="175.177" r="12.9568" fill="#D9D9D9" fill-opacity="0.42"/>
<circle cx="1500.89" cy="175.177" r="12.9568" fill="#D9D9D9" fill-opacity="0.42"/>
<ellipse cx="85.9544" cy="469.061" rx="13.2513" ry="12.9568" fill="#D9D9D9" fill-opacity="0.42"/>
<ellipse cx="1029.44" cy="469.061" rx="13.2513" ry="12.9568" fill="#D9D9D9" fill-opacity="0.42"/>
<ellipse cx="557.701" cy="469.061" rx="13.2513" ry="12.9568" fill="#D9D9D9" fill-opacity="0.42"/>
<ellipse cx="1501.19" cy="469.061" rx="13.2513" ry="12.9568" fill="#D9D9D9" fill-opacity="0.42"/>
<circle cx="26.7654" cy="175.177" r="12.9568" fill="#D9D9D9" fill-opacity="0.42"/>
<circle cx="970.258" cy="175.177" r="12.9568" fill="#D9D9D9" fill-opacity="0.42"/>
<circle cx="498.512" cy="175.177" r="12.9568" fill="#D9D9D9" fill-opacity="0.42"/>
<circle cx="1442" cy="175.177" r="12.9568" fill="#D9D9D9" fill-opacity="0.42"/>
<circle cx="27.3552" cy="469.061" r="12.9568" fill="#D9D9D9" fill-opacity="0.42"/>
<circle cx="970.844" cy="469.061" r="12.9568" fill="#D9D9D9" fill-opacity="0.42"/>
<circle cx="499.101" cy="469.061" r="12.9568" fill="#D9D9D9" fill-opacity="0.42"/>
<circle cx="1442.59" cy="469.061" r="12.9568" fill="#D9D9D9" fill-opacity="0.42"/>
<circle cx="144.554" cy="175.177" r="12.9568" fill="#D9D9D9" fill-opacity="0.42"/>
<circle cx="1088.05" cy="175.177" r="12.9568" fill="#D9D9D9" fill-opacity="0.42"/>
<circle cx="616.297" cy="175.177" r="12.9568" fill="#D9D9D9" fill-opacity="0.42"/>
<circle cx="1559.79" cy="175.177" r="12.9568" fill="#D9D9D9" fill-opacity="0.42"/>
<ellipse cx="144.849" cy="469.061" rx="13.2513" ry="12.9568" fill="#D9D9D9" fill-opacity="0.42"/>
<ellipse cx="1088.34" cy="469.061" rx="13.2513" ry="12.9568" fill="#D9D9D9" fill-opacity="0.42"/>
<ellipse cx="616.591" cy="469.061" rx="13.2513" ry="12.9568" fill="#D9D9D9" fill-opacity="0.42"/>
<ellipse cx="1560.08" cy="469.061" rx="13.2513" ry="12.9568" fill="#D9D9D9" fill-opacity="0.42"/>
<ellipse cx="911.359" cy="233.777" rx="12.9568" ry="13.2513" fill="#D9D9D9" fill-opacity="0.42"/>
<ellipse cx="439.613" cy="233.777" rx="12.9568" ry="13.2513" fill="#D9D9D9" fill-opacity="0.42"/>
<ellipse cx="1383.11" cy="233.777" rx="12.9568" ry="13.2513" fill="#D9D9D9" fill-opacity="0.42"/>
<circle cx="911.953" cy="527.956" r="12.9568" fill="#D9D9D9" fill-opacity="0.42"/>
<circle cx="440.203" cy="527.956" r="12.9568" fill="#D9D9D9" fill-opacity="0.42"/>
<circle cx="1383.7" cy="527.956" r="12.9568" fill="#D9D9D9" fill-opacity="0.42"/>
<ellipse cx="85.6599" cy="233.777" rx="12.9568" ry="13.2513" fill="#D9D9D9" fill-opacity="0.42"/>
<ellipse cx="1029.15" cy="233.777" rx="12.9568" ry="13.2513" fill="#D9D9D9" fill-opacity="0.42"/>
<ellipse cx="557.406" cy="233.777" rx="12.9568" ry="13.2513" fill="#D9D9D9" fill-opacity="0.42"/>
<ellipse cx="1500.89" cy="233.777" rx="12.9568" ry="13.2513" fill="#D9D9D9" fill-opacity="0.42"/>
<ellipse cx="85.9544" cy="527.956" rx="13.2513" ry="12.9568" fill="#D9D9D9" fill-opacity="0.42"/>
<ellipse cx="1029.44" cy="527.956" rx="13.2513" ry="12.9568" fill="#D9D9D9" fill-opacity="0.42"/>
<ellipse cx="557.701" cy="527.956" rx="13.2513" ry="12.9568" fill="#D9D9D9" fill-opacity="0.42"/>
<ellipse cx="1501.19" cy="527.956" rx="13.2513" ry="12.9568" fill="#D9D9D9" fill-opacity="0.42"/>
<ellipse cx="26.7654" cy="233.777" rx="12.9568" ry="13.2513" fill="#D9D9D9" fill-opacity="0.42"/>
<ellipse cx="970.258" cy="233.777" rx="12.9568" ry="13.2513" fill="#D9D9D9" fill-opacity="0.42"/>
<ellipse cx="498.512" cy="233.777" rx="12.9568" ry="13.2513" fill="#D9D9D9" fill-opacity="0.42"/>
<ellipse cx="1442" cy="233.777" rx="12.9568" ry="13.2513" fill="#D9D9D9" fill-opacity="0.42"/>
<circle cx="27.3552" cy="527.956" r="12.9568" fill="#D9D9D9" fill-opacity="0.42"/>
<circle cx="970.844" cy="527.956" r="12.9568" fill="#D9D9D9" fill-opacity="0.42"/>
<circle cx="499.101" cy="527.956" r="12.9568" fill="#D9D9D9" fill-opacity="0.42"/>
<circle cx="1442.59" cy="527.956" r="12.9568" fill="#D9D9D9" fill-opacity="0.42"/>
<ellipse cx="144.554" cy="233.777" rx="12.9568" ry="13.2513" fill="#D9D9D9" fill-opacity="0.42"/>
<ellipse cx="1088.05" cy="233.777" rx="12.9568" ry="13.2513" fill="#D9D9D9" fill-opacity="0.42"/>
<ellipse cx="616.297" cy="233.777" rx="12.9568" ry="13.2513" fill="#D9D9D9" fill-opacity="0.42"/>
<ellipse cx="1559.79" cy="233.777" rx="12.9568" ry="13.2513" fill="#D9D9D9" fill-opacity="0.42"/>
<ellipse cx="144.849" cy="527.956" rx="13.2513" ry="12.9568" fill="#D9D9D9" fill-opacity="0.42"/>
<ellipse cx="1088.34" cy="527.956" rx="13.2513" ry="12.9568" fill="#D9D9D9" fill-opacity="0.42"/>
<ellipse cx="616.591" cy="527.956" rx="13.2513" ry="12.9568" fill="#D9D9D9" fill-opacity="0.42"/>
<ellipse cx="1560.08" cy="527.956" rx="13.2513" ry="12.9568" fill="#D9D9D9" fill-opacity="0.42"/>
<ellipse cx="203.154" cy="-1.50609" rx="13.2513" ry="12.9568" fill="#D9D9D9" fill-opacity="0.42"/>
<ellipse cx="1146.65" cy="-1.50609" rx="13.2513" ry="12.9568" fill="#D9D9D9" fill-opacity="0.42"/>
<ellipse cx="674.9" cy="-1.50609" rx="13.2513" ry="12.9568" fill="#D9D9D9" fill-opacity="0.42"/>
<ellipse cx="1618.39" cy="-1.50609" rx="13.2513" ry="12.9568" fill="#D9D9D9" fill-opacity="0.42"/>
<ellipse cx="203.449" cy="292.672" rx="12.9568" ry="13.2513" fill="#D9D9D9" fill-opacity="0.42"/>
<ellipse cx="1146.94" cy="292.672" rx="12.9568" ry="13.2513" fill="#D9D9D9" fill-opacity="0.42"/>
<ellipse cx="675.195" cy="292.672" rx="12.9568" ry="13.2513" fill="#D9D9D9" fill-opacity="0.42"/>
<ellipse cx="1618.68" cy="292.672" rx="12.9568" ry="13.2513" fill="#D9D9D9" fill-opacity="0.42"/>
<circle cx="320.648" cy="-1.50609" r="12.9568" fill="#D9D9D9" fill-opacity="0.42"/>
<circle cx="1264.14" cy="-1.50609" r="12.9568" fill="#D9D9D9" fill-opacity="0.42"/>
<circle cx="792.394" cy="-1.50609" r="12.9568" fill="#D9D9D9" fill-opacity="0.42"/>
<circle cx="1735.89" cy="-1.50609" r="12.9568" fill="#D9D9D9" fill-opacity="0.42"/>
<ellipse cx="321.234" cy="292.672" rx="12.9568" ry="13.2513" fill="#D9D9D9" fill-opacity="0.42"/>
<ellipse cx="1264.73" cy="292.672" rx="12.9568" ry="13.2513" fill="#D9D9D9" fill-opacity="0.42"/>
<ellipse cx="792.984" cy="292.672" rx="12.9568" ry="13.2513" fill="#D9D9D9" fill-opacity="0.42"/>
<ellipse cx="1736.47" cy="292.672" rx="12.9568" ry="13.2513" fill="#D9D9D9" fill-opacity="0.42"/>
<ellipse cx="262.048" cy="-1.50609" rx="13.2513" ry="12.9568" fill="#D9D9D9" fill-opacity="0.42"/>
<ellipse cx="1205.54" cy="-1.50609" rx="13.2513" ry="12.9568" fill="#D9D9D9" fill-opacity="0.42"/>
<ellipse cx="733.794" cy="-1.50609" rx="13.2513" ry="12.9568" fill="#D9D9D9" fill-opacity="0.42"/>
<ellipse cx="1677.28" cy="-1.50609" rx="13.2513" ry="12.9568" fill="#D9D9D9" fill-opacity="0.42"/>
<ellipse cx="262.344" cy="292.672" rx="12.9568" ry="13.2513" fill="#D9D9D9" fill-opacity="0.42"/>
<ellipse cx="1205.83" cy="292.672" rx="12.9568" ry="13.2513" fill="#D9D9D9" fill-opacity="0.42"/>
<ellipse cx="734.086" cy="292.672" rx="12.9568" ry="13.2513" fill="#D9D9D9" fill-opacity="0.42"/>
<ellipse cx="1677.58" cy="292.672" rx="12.9568" ry="13.2513" fill="#D9D9D9" fill-opacity="0.42"/>
<circle cx="379.543" cy="-1.50609" r="12.9568" fill="#D9D9D9" fill-opacity="0.42"/>
<circle cx="1323.03" cy="-1.50609" r="12.9568" fill="#D9D9D9" fill-opacity="0.42"/>
<circle cx="851.289" cy="-1.50609" r="12.9568" fill="#D9D9D9" fill-opacity="0.42"/>
<ellipse cx="380.133" cy="292.672" rx="12.9568" ry="13.2513" fill="#D9D9D9" fill-opacity="0.42"/>
<ellipse cx="1323.62" cy="292.672" rx="12.9568" ry="13.2513" fill="#D9D9D9" fill-opacity="0.42"/>
<ellipse cx="851.879" cy="292.672" rx="12.9568" ry="13.2513" fill="#D9D9D9" fill-opacity="0.42"/>
<ellipse cx="203.154" cy="57.3888" rx="13.2513" ry="12.9568" fill="#D9D9D9" fill-opacity="0.42"/>
<ellipse cx="1146.65" cy="57.3888" rx="13.2513" ry="12.9568" fill="#D9D9D9" fill-opacity="0.42"/>
<ellipse cx="674.9" cy="57.3888" rx="13.2513" ry="12.9568" fill="#D9D9D9" fill-opacity="0.42"/>
<ellipse cx="1618.39" cy="57.3888" rx="13.2513" ry="12.9568" fill="#D9D9D9" fill-opacity="0.42"/>
<circle cx="203.449" cy="351.272" r="12.9568" fill="#D9D9D9" fill-opacity="0.42"/>
<circle cx="1146.94" cy="351.272" r="12.9568" fill="#D9D9D9" fill-opacity="0.42"/>
<circle cx="675.195" cy="351.272" r="12.9568" fill="#D9D9D9" fill-opacity="0.42"/>
<circle cx="1618.68" cy="351.272" r="12.9568" fill="#D9D9D9" fill-opacity="0.42"/>
<circle cx="320.648" cy="57.3888" r="12.9568" fill="#D9D9D9" fill-opacity="0.42"/>
<circle cx="1264.14" cy="57.3888" r="12.9568" fill="#D9D9D9" fill-opacity="0.42"/>
<circle cx="792.394" cy="57.3888" r="12.9568" fill="#D9D9D9" fill-opacity="0.42"/>
<circle cx="1735.89" cy="57.3888" r="12.9568" fill="#D9D9D9" fill-opacity="0.42"/>
<circle cx="321.234" cy="351.272" r="12.9568" fill="#D9D9D9" fill-opacity="0.42"/>
<circle cx="1264.73" cy="351.272" r="12.9568" fill="#D9D9D9" fill-opacity="0.42"/>
<circle cx="792.984" cy="351.272" r="12.9568" fill="#D9D9D9" fill-opacity="0.42"/>
<circle cx="1736.47" cy="351.272" r="12.9568" fill="#D9D9D9" fill-opacity="0.42"/>
<ellipse cx="262.048" cy="57.3888" rx="13.2513" ry="12.9568" fill="#D9D9D9" fill-opacity="0.42"/>
<ellipse cx="1205.54" cy="57.3888" rx="13.2513" ry="12.9568" fill="#D9D9D9" fill-opacity="0.42"/>
<ellipse cx="733.794" cy="57.3888" rx="13.2513" ry="12.9568" fill="#D9D9D9" fill-opacity="0.42"/>
<ellipse cx="1677.28" cy="57.3888" rx="13.2513" ry="12.9568" fill="#D9D9D9" fill-opacity="0.42"/>
<circle cx="262.344" cy="351.272" r="12.9568" fill="#D9D9D9" fill-opacity="0.42"/>
<circle cx="1205.83" cy="351.272" r="12.9568" fill="#D9D9D9" fill-opacity="0.42"/>
<circle cx="734.086" cy="351.272" r="12.9568" fill="#D9D9D9" fill-opacity="0.42"/>
<circle cx="1677.58" cy="351.272" r="12.9568" fill="#D9D9D9" fill-opacity="0.42"/>
<circle cx="379.543" cy="57.3888" r="12.9568" fill="#D9D9D9" fill-opacity="0.42"/>
<circle cx="1323.03" cy="57.3888" r="12.9568" fill="#D9D9D9" fill-opacity="0.42"/>
<circle cx="851.289" cy="57.3888" r="12.9568" fill="#D9D9D9" fill-opacity="0.42"/>
<circle cx="380.133" cy="351.272" r="12.9568" fill="#D9D9D9" fill-opacity="0.42"/>
<circle cx="1323.62" cy="351.272" r="12.9568" fill="#D9D9D9" fill-opacity="0.42"/>
<circle cx="851.879" cy="351.272" r="12.9568" fill="#D9D9D9" fill-opacity="0.42"/>
<ellipse cx="203.154" cy="116.283" rx="13.2513" ry="12.9568" fill="#D9D9D9" fill-opacity="0.42"/>
<ellipse cx="1146.65" cy="116.283" rx="13.2513" ry="12.9568" fill="#D9D9D9" fill-opacity="0.42"/>
<ellipse cx="674.9" cy="116.283" rx="13.2513" ry="12.9568" fill="#D9D9D9" fill-opacity="0.42"/>
<ellipse cx="1618.39" cy="116.283" rx="13.2513" ry="12.9568" fill="#D9D9D9" fill-opacity="0.42"/>
<circle cx="203.449" cy="410.167" r="12.9568" fill="#D9D9D9" fill-opacity="0.42"/>
<circle cx="1146.94" cy="410.167" r="12.9568" fill="#D9D9D9" fill-opacity="0.42"/>
<circle cx="675.195" cy="410.167" r="12.9568" fill="#D9D9D9" fill-opacity="0.42"/>
<circle cx="1618.68" cy="410.167" r="12.9568" fill="#D9D9D9" fill-opacity="0.42"/>
<circle cx="320.648" cy="116.283" r="12.9568" fill="#D9D9D9" fill-opacity="0.42"/>
<circle cx="1264.14" cy="116.283" r="12.9568" fill="#D9D9D9" fill-opacity="0.42"/>
<circle cx="792.394" cy="116.283" r="12.9568" fill="#D9D9D9" fill-opacity="0.42"/>
<circle cx="1735.89" cy="116.283" r="12.9568" fill="#D9D9D9" fill-opacity="0.42"/>
<circle cx="321.234" cy="410.167" r="12.9568" fill="#D9D9D9" fill-opacity="0.42"/>
<circle cx="1264.73" cy="410.167" r="12.9568" fill="#D9D9D9" fill-opacity="0.42"/>
<circle cx="792.984" cy="410.167" r="12.9568" fill="#D9D9D9" fill-opacity="0.42"/>
<circle cx="1736.47" cy="410.167" r="12.9568" fill="#D9D9D9" fill-opacity="0.42"/>
<ellipse cx="262.048" cy="116.283" rx="13.2513" ry="12.9568" fill="#D9D9D9" fill-opacity="0.42"/>
<ellipse cx="1205.54" cy="116.283" rx="13.2513" ry="12.9568" fill="#D9D9D9" fill-opacity="0.42"/>
<ellipse cx="733.794" cy="116.283" rx="13.2513" ry="12.9568" fill="#D9D9D9" fill-opacity="0.42"/>
<ellipse cx="1677.28" cy="116.283" rx="13.2513" ry="12.9568" fill="#D9D9D9" fill-opacity="0.42"/>
<circle cx="262.344" cy="410.167" r="12.9568" fill="#D9D9D9" fill-opacity="0.42"/>
<circle cx="1205.83" cy="410.167" r="12.9568" fill="#D9D9D9" fill-opacity="0.42"/>
<circle cx="734.086" cy="410.167" r="12.9568" fill="#D9D9D9" fill-opacity="0.42"/>
<circle cx="1677.58" cy="410.167" r="12.9568" fill="#D9D9D9" fill-opacity="0.42"/>
<circle cx="379.543" cy="116.283" r="12.9568" fill="#D9D9D9" fill-opacity="0.42"/>
<circle cx="1323.03" cy="116.283" r="12.9568" fill="#D9D9D9" fill-opacity="0.42"/>
<circle cx="851.289" cy="116.283" r="12.9568" fill="#D9D9D9" fill-opacity="0.42"/>
<circle cx="380.133" cy="410.167" r="12.9568" fill="#D9D9D9" fill-opacity="0.42"/>
<circle cx="1323.62" cy="410.167" r="12.9568" fill="#D9D9D9" fill-opacity="0.42"/>
<circle cx="851.879" cy="410.167" r="12.9568" fill="#D9D9D9" fill-opacity="0.42"/>
<ellipse cx="203.154" cy="175.177" rx="13.2513" ry="12.9568" fill="#D9D9D9" fill-opacity="0.42"/>
<ellipse cx="1146.65" cy="175.177" rx="13.2513" ry="12.9568" fill="#D9D9D9" fill-opacity="0.42"/>
<ellipse cx="674.9" cy="175.177" rx="13.2513" ry="12.9568" fill="#D9D9D9" fill-opacity="0.42"/>
<ellipse cx="1618.39" cy="175.177" rx="13.2513" ry="12.9568" fill="#D9D9D9" fill-opacity="0.42"/>
<circle cx="203.449" cy="469.061" r="12.9568" fill="#D9D9D9" fill-opacity="0.42"/>
<circle cx="1146.94" cy="469.061" r="12.9568" fill="#D9D9D9" fill-opacity="0.42"/>
<circle cx="675.195" cy="469.061" r="12.9568" fill="#D9D9D9" fill-opacity="0.42"/>
<circle cx="1618.68" cy="469.061" r="12.9568" fill="#D9D9D9" fill-opacity="0.42"/>
<circle cx="320.648" cy="175.177" r="12.9568" fill="#D9D9D9" fill-opacity="0.42"/>
<circle cx="1264.14" cy="175.177" r="12.9568" fill="#D9D9D9" fill-opacity="0.42"/>
<circle cx="792.394" cy="175.177" r="12.9568" fill="#D9D9D9" fill-opacity="0.42"/>
<circle cx="1735.89" cy="175.177" r="12.9568" fill="#D9D9D9" fill-opacity="0.42"/>
<circle cx="321.234" cy="469.061" r="12.9568" fill="#D9D9D9" fill-opacity="0.42"/>
<circle cx="1264.73" cy="469.061" r="12.9568" fill="#D9D9D9" fill-opacity="0.42"/>
<circle cx="792.984" cy="469.061" r="12.9568" fill="#D9D9D9" fill-opacity="0.42"/>
<circle cx="1736.47" cy="469.061" r="12.9568" fill="#D9D9D9" fill-opacity="0.42"/>
<ellipse cx="262.048" cy="175.177" rx="13.2513" ry="12.9568" fill="#D9D9D9" fill-opacity="0.42"/>
<ellipse cx="1205.54" cy="175.177" rx="13.2513" ry="12.9568" fill="#D9D9D9" fill-opacity="0.42"/>
<ellipse cx="733.794" cy="175.177" rx="13.2513" ry="12.9568" fill="#D9D9D9" fill-opacity="0.42"/>
<ellipse cx="1677.28" cy="175.177" rx="13.2513" ry="12.9568" fill="#D9D9D9" fill-opacity="0.42"/>
<circle cx="262.344" cy="469.061" r="12.9568" fill="#D9D9D9" fill-opacity="0.42"/>
<circle cx="1205.83" cy="469.061" r="12.9568" fill="#D9D9D9" fill-opacity="0.42"/>
<circle cx="734.086" cy="469.061" r="12.9568" fill="#D9D9D9" fill-opacity="0.42"/>
<circle cx="1677.58" cy="469.061" r="12.9568" fill="#D9D9D9" fill-opacity="0.42"/>
<circle cx="379.543" cy="175.177" r="12.9568" fill="#D9D9D9" fill-opacity="0.42"/>
<circle cx="1323.03" cy="175.177" r="12.9568" fill="#D9D9D9" fill-opacity="0.42"/>
<circle cx="851.289" cy="175.177" r="12.9568" fill="#D9D9D9" fill-opacity="0.42"/>
<circle cx="380.133" cy="469.061" r="12.9568" fill="#D9D9D9" fill-opacity="0.42"/>
<circle cx="1323.62" cy="469.061" r="12.9568" fill="#D9D9D9" fill-opacity="0.42"/>
<circle cx="851.879" cy="469.061" r="12.9568" fill="#D9D9D9" fill-opacity="0.42"/>
<circle cx="203.154" cy="233.777" r="13.2513" fill="#D9D9D9" fill-opacity="0.42"/>
<circle cx="1146.65" cy="233.777" r="13.2513" fill="#D9D9D9" fill-opacity="0.42"/>
<circle cx="674.9" cy="233.777" r="13.2513" fill="#D9D9D9" fill-opacity="0.42"/>
<circle cx="1618.39" cy="233.777" r="13.2513" fill="#D9D9D9" fill-opacity="0.42"/>
<circle cx="203.449" cy="527.956" r="12.9568" fill="#D9D9D9" fill-opacity="0.42"/>
<circle cx="1146.94" cy="527.956" r="12.9568" fill="#D9D9D9" fill-opacity="0.42"/>
<circle cx="675.195" cy="527.956" r="12.9568" fill="#D9D9D9" fill-opacity="0.42"/>
<circle cx="1618.68" cy="527.956" r="12.9568" fill="#D9D9D9" fill-opacity="0.42"/>
<ellipse cx="320.648" cy="233.777" rx="12.9568" ry="13.2513" fill="#D9D9D9" fill-opacity="0.42"/>
<ellipse cx="1264.14" cy="233.777" rx="12.9568" ry="13.2513" fill="#D9D9D9" fill-opacity="0.42"/>
<ellipse cx="792.394" cy="233.777" rx="12.9568" ry="13.2513" fill="#D9D9D9" fill-opacity="0.42"/>
<ellipse cx="1735.89" cy="233.777" rx="12.9568" ry="13.2513" fill="#D9D9D9" fill-opacity="0.42"/>
<circle cx="321.234" cy="527.956" r="12.9568" fill="#D9D9D9" fill-opacity="0.42"/>
<circle cx="1264.73" cy="527.956" r="12.9568" fill="#D9D9D9" fill-opacity="0.42"/>
<circle cx="792.984" cy="527.956" r="12.9568" fill="#D9D9D9" fill-opacity="0.42"/>
<circle cx="1736.47" cy="527.956" r="12.9568" fill="#D9D9D9" fill-opacity="0.42"/>
<circle cx="262.048" cy="233.777" r="13.2513" fill="#D9D9D9" fill-opacity="0.42"/>
<circle cx="1205.54" cy="233.777" r="13.2513" fill="#D9D9D9" fill-opacity="0.42"/>
<circle cx="733.794" cy="233.777" r="13.2513" fill="#D9D9D9" fill-opacity="0.42"/>
<circle cx="1677.28" cy="233.777" r="13.2513" fill="#D9D9D9" fill-opacity="0.42"/>
<circle cx="262.344" cy="527.956" r="12.9568" fill="#D9D9D9" fill-opacity="0.42"/>
<circle cx="1205.83" cy="527.956" r="12.9568" fill="#D9D9D9" fill-opacity="0.42"/>
<circle cx="734.086" cy="527.956" r="12.9568" fill="#D9D9D9" fill-opacity="0.42"/>
<circle cx="1677.58" cy="527.956" r="12.9568" fill="#D9D9D9" fill-opacity="0.42"/>
<ellipse cx="379.543" cy="233.777" rx="12.9568" ry="13.2513" fill="#D9D9D9" fill-opacity="0.42"/>
<ellipse cx="1323.03" cy="233.777" rx="12.9568" ry="13.2513" fill="#D9D9D9" fill-opacity="0.42"/>
<ellipse cx="851.289" cy="233.777" rx="12.9568" ry="13.2513" fill="#D9D9D9" fill-opacity="0.42"/>
<circle cx="380.133" cy="527.956" r="12.9568" fill="#D9D9D9" fill-opacity="0.42"/>
<circle cx="1323.62" cy="527.956" r="12.9568" fill="#D9D9D9" fill-opacity="0.42"/>
<circle cx="851.879" cy="527.956" r="12.9568" fill="#D9D9D9" fill-opacity="0.42"/>
<circle cx="910.769" cy="586.85" r="12.9568" fill="#D9D9D9" fill-opacity="0.42"/>
<circle cx="439.027" cy="586.85" r="12.9568" fill="#D9D9D9" fill-opacity="0.42"/>
<circle cx="1382.52" cy="586.85" r="12.9568" fill="#D9D9D9" fill-opacity="0.42"/>
<ellipse cx="911.359" cy="881.029" rx="12.9568" ry="13.2513" fill="#D9D9D9" fill-opacity="0.42"/>
<ellipse cx="439.613" cy="881.029" rx="12.9568" ry="13.2513" fill="#D9D9D9" fill-opacity="0.42"/>
<ellipse cx="1383.11" cy="881.029" rx="12.9568" ry="13.2513" fill="#D9D9D9" fill-opacity="0.42"/>
<circle cx="85.0701" cy="586.85" r="12.9568" fill="#D9D9D9" fill-opacity="0.42"/>
<circle cx="1028.56" cy="586.85" r="12.9568" fill="#D9D9D9" fill-opacity="0.42"/>
<circle cx="556.816" cy="586.85" r="12.9568" fill="#D9D9D9" fill-opacity="0.42"/>
<circle cx="1500.3" cy="586.85" r="12.9568" fill="#D9D9D9" fill-opacity="0.42"/>
<circle cx="85.3646" cy="881.029" r="13.2513" fill="#D9D9D9" fill-opacity="0.42"/>
<circle cx="1028.86" cy="881.029" r="13.2513" fill="#D9D9D9" fill-opacity="0.42"/>
<circle cx="557.111" cy="881.029" r="13.2513" fill="#D9D9D9" fill-opacity="0.42"/>
<circle cx="1500.6" cy="881.029" r="13.2513" fill="#D9D9D9" fill-opacity="0.42"/>
<circle cx="26.1756" cy="586.85" r="12.9568" fill="#D9D9D9" fill-opacity="0.42"/>
<circle cx="969.668" cy="586.85" r="12.9568" fill="#D9D9D9" fill-opacity="0.42"/>
<circle cx="497.922" cy="586.85" r="12.9568" fill="#D9D9D9" fill-opacity="0.42"/>
<circle cx="1441.41" cy="586.85" r="12.9568" fill="#D9D9D9" fill-opacity="0.42"/>
<ellipse cx="26.7654" cy="881.029" rx="12.9568" ry="13.2513" fill="#D9D9D9" fill-opacity="0.42"/>
<ellipse cx="970.258" cy="881.029" rx="12.9568" ry="13.2513" fill="#D9D9D9" fill-opacity="0.42"/>
<ellipse cx="498.512" cy="881.029" rx="12.9568" ry="13.2513" fill="#D9D9D9" fill-opacity="0.42"/>
<ellipse cx="1442" cy="881.029" rx="12.9568" ry="13.2513" fill="#D9D9D9" fill-opacity="0.42"/>
<circle cx="143.965" cy="586.85" r="12.9568" fill="#D9D9D9" fill-opacity="0.42"/>
<circle cx="1087.45" cy="586.85" r="12.9568" fill="#D9D9D9" fill-opacity="0.42"/>
<circle cx="615.711" cy="586.85" r="12.9568" fill="#D9D9D9" fill-opacity="0.42"/>
<circle cx="1559.2" cy="586.85" r="12.9568" fill="#D9D9D9" fill-opacity="0.42"/>
<circle cx="144.259" cy="881.029" r="13.2513" fill="#D9D9D9" fill-opacity="0.42"/>
<circle cx="1087.75" cy="881.029" r="13.2513" fill="#D9D9D9" fill-opacity="0.42"/>
<circle cx="616.005" cy="881.029" r="13.2513" fill="#D9D9D9" fill-opacity="0.42"/>
<circle cx="1559.5" cy="881.029" r="13.2513" fill="#D9D9D9" fill-opacity="0.42"/>
<circle cx="910.769" cy="645.745" r="12.9568" fill="#D9D9D9" fill-opacity="0.42"/>
<circle cx="439.027" cy="645.745" r="12.9568" fill="#D9D9D9" fill-opacity="0.42"/>
<circle cx="1382.52" cy="645.745" r="12.9568" fill="#D9D9D9" fill-opacity="0.42"/>
<circle cx="911.359" cy="939.629" r="12.9568" fill="#D9D9D9" fill-opacity="0.42"/>
<circle cx="439.613" cy="939.629" r="12.9568" fill="#D9D9D9" fill-opacity="0.42"/>
<circle cx="1383.11" cy="939.629" r="12.9568" fill="#D9D9D9" fill-opacity="0.42"/>
<circle cx="85.0701" cy="645.745" r="12.9568" fill="#D9D9D9" fill-opacity="0.42"/>
<circle cx="1028.56" cy="645.745" r="12.9568" fill="#D9D9D9" fill-opacity="0.42"/>
<circle cx="556.816" cy="645.745" r="12.9568" fill="#D9D9D9" fill-opacity="0.42"/>
<circle cx="1500.3" cy="645.745" r="12.9568" fill="#D9D9D9" fill-opacity="0.42"/>
<ellipse cx="85.3646" cy="939.629" rx="13.2513" ry="12.9568" fill="#D9D9D9" fill-opacity="0.42"/>
<ellipse cx="1028.86" cy="939.629" rx="13.2513" ry="12.9568" fill="#D9D9D9" fill-opacity="0.42"/>
<ellipse cx="557.111" cy="939.629" rx="13.2513" ry="12.9568" fill="#D9D9D9" fill-opacity="0.42"/>
<ellipse cx="1500.6" cy="939.629" rx="13.2513" ry="12.9568" fill="#D9D9D9" fill-opacity="0.42"/>
<circle cx="26.1756" cy="645.745" r="12.9568" fill="#D9D9D9" fill-opacity="0.42"/>
<circle cx="969.668" cy="645.745" r="12.9568" fill="#D9D9D9" fill-opacity="0.42"/>
<circle cx="497.922" cy="645.745" r="12.9568" fill="#D9D9D9" fill-opacity="0.42"/>
<circle cx="1441.41" cy="645.745" r="12.9568" fill="#D9D9D9" fill-opacity="0.42"/>
<circle cx="26.7654" cy="939.629" r="12.9568" fill="#D9D9D9" fill-opacity="0.42"/>
<circle cx="970.258" cy="939.629" r="12.9568" fill="#D9D9D9" fill-opacity="0.42"/>
<circle cx="498.512" cy="939.629" r="12.9568" fill="#D9D9D9" fill-opacity="0.42"/>
<circle cx="1442" cy="939.629" r="12.9568" fill="#D9D9D9" fill-opacity="0.42"/>
<circle cx="143.965" cy="645.745" r="12.9568" fill="#D9D9D9" fill-opacity="0.42"/>
<circle cx="1087.45" cy="645.745" r="12.9568" fill="#D9D9D9" fill-opacity="0.42"/>
<circle cx="615.711" cy="645.745" r="12.9568" fill="#D9D9D9" fill-opacity="0.42"/>
<circle cx="1559.2" cy="645.745" r="12.9568" fill="#D9D9D9" fill-opacity="0.42"/>
<ellipse cx="144.259" cy="939.629" rx="13.2513" ry="12.9568" fill="#D9D9D9" fill-opacity="0.42"/>
<ellipse cx="1087.75" cy="939.629" rx="13.2513" ry="12.9568" fill="#D9D9D9" fill-opacity="0.42"/>
<ellipse cx="616.005" cy="939.629" rx="13.2513" ry="12.9568" fill="#D9D9D9" fill-opacity="0.42"/>
<ellipse cx="1559.5" cy="939.629" rx="13.2513" ry="12.9568" fill="#D9D9D9" fill-opacity="0.42"/>
<circle cx="910.769" cy="704.639" r="12.9568" fill="#D9D9D9" fill-opacity="0.42"/>
<circle cx="439.027" cy="704.639" r="12.9568" fill="#D9D9D9" fill-opacity="0.42"/>
<circle cx="1382.52" cy="704.639" r="12.9568" fill="#D9D9D9" fill-opacity="0.42"/>
<circle cx="911.359" cy="998.523" r="12.9568" fill="#D9D9D9" fill-opacity="0.42"/>
<circle cx="439.613" cy="998.523" r="12.9568" fill="#D9D9D9" fill-opacity="0.42"/>
<circle cx="1383.11" cy="998.523" r="12.9568" fill="#D9D9D9" fill-opacity="0.42"/>
<circle cx="85.0701" cy="704.639" r="12.9568" fill="#D9D9D9" fill-opacity="0.42"/>
<circle cx="1028.56" cy="704.639" r="12.9568" fill="#D9D9D9" fill-opacity="0.42"/>
<circle cx="556.816" cy="704.639" r="12.9568" fill="#D9D9D9" fill-opacity="0.42"/>
<circle cx="1500.3" cy="704.639" r="12.9568" fill="#D9D9D9" fill-opacity="0.42"/>
<ellipse cx="85.3646" cy="998.523" rx="13.2513" ry="12.9568" fill="#D9D9D9" fill-opacity="0.42"/>
<ellipse cx="1028.86" cy="998.523" rx="13.2513" ry="12.9568" fill="#D9D9D9" fill-opacity="0.42"/>
<ellipse cx="557.111" cy="998.523" rx="13.2513" ry="12.9568" fill="#D9D9D9" fill-opacity="0.42"/>
<ellipse cx="1500.6" cy="998.523" rx="13.2513" ry="12.9568" fill="#D9D9D9" fill-opacity="0.42"/>
<circle cx="26.1756" cy="704.639" r="12.9568" fill="#D9D9D9" fill-opacity="0.42"/>
<circle cx="969.668" cy="704.639" r="12.9568" fill="#D9D9D9" fill-opacity="0.42"/>
<circle cx="497.922" cy="704.639" r="12.9568" fill="#D9D9D9" fill-opacity="0.42"/>
<circle cx="1441.41" cy="704.639" r="12.9568" fill="#D9D9D9" fill-opacity="0.42"/>
<circle cx="26.7654" cy="998.523" r="12.9568" fill="#D9D9D9" fill-opacity="0.42"/>
<circle cx="970.258" cy="998.523" r="12.9568" fill="#D9D9D9" fill-opacity="0.42"/>
<circle cx="498.512" cy="998.523" r="12.9568" fill="#D9D9D9" fill-opacity="0.42"/>
<circle cx="1442" cy="998.523" r="12.9568" fill="#D9D9D9" fill-opacity="0.42"/>
<circle cx="143.965" cy="704.639" r="12.9568" fill="#D9D9D9" fill-opacity="0.42"/>
<circle cx="1087.45" cy="704.639" r="12.9568" fill="#D9D9D9" fill-opacity="0.42"/>
<circle cx="615.711" cy="704.639" r="12.9568" fill="#D9D9D9" fill-opacity="0.42"/>
<circle cx="1559.2" cy="704.639" r="12.9568" fill="#D9D9D9" fill-opacity="0.42"/>
<ellipse cx="144.259" cy="998.523" rx="13.2513" ry="12.9568" fill="#D9D9D9" fill-opacity="0.42"/>
<ellipse cx="1087.75" cy="998.523" rx="13.2513" ry="12.9568" fill="#D9D9D9" fill-opacity="0.42"/>
<ellipse cx="616.005" cy="998.523" rx="13.2513" ry="12.9568" fill="#D9D9D9" fill-opacity="0.42"/>
<ellipse cx="1559.5" cy="998.523" rx="13.2513" ry="12.9568" fill="#D9D9D9" fill-opacity="0.42"/>
<circle cx="910.769" cy="763.534" r="12.9568" fill="#D9D9D9" fill-opacity="0.42"/>
<circle cx="439.027" cy="763.534" r="12.9568" fill="#D9D9D9" fill-opacity="0.42"/>
<circle cx="1382.52" cy="763.534" r="12.9568" fill="#D9D9D9" fill-opacity="0.42"/>
<circle cx="911.359" cy="1057.42" r="12.9568" fill="#D9D9D9" fill-opacity="0.42"/>
<circle cx="439.613" cy="1057.42" r="12.9568" fill="#D9D9D9" fill-opacity="0.42"/>
<circle cx="1383.11" cy="1057.42" r="12.9568" fill="#D9D9D9" fill-opacity="0.42"/>
<circle cx="85.0701" cy="763.534" r="12.9568" fill="#D9D9D9" fill-opacity="0.42"/>
<circle cx="1028.56" cy="763.534" r="12.9568" fill="#D9D9D9" fill-opacity="0.42"/>
<circle cx="556.816" cy="763.534" r="12.9568" fill="#D9D9D9" fill-opacity="0.42"/>
<circle cx="1500.3" cy="763.534" r="12.9568" fill="#D9D9D9" fill-opacity="0.42"/>
<ellipse cx="85.3646" cy="1057.42" rx="13.2513" ry="12.9568" fill="#D9D9D9" fill-opacity="0.42"/>
<ellipse cx="1028.86" cy="1057.42" rx="13.2513" ry="12.9568" fill="#D9D9D9" fill-opacity="0.42"/>
<ellipse cx="557.111" cy="1057.42" rx="13.2513" ry="12.9568" fill="#D9D9D9" fill-opacity="0.42"/>
<ellipse cx="1500.6" cy="1057.42" rx="13.2513" ry="12.9568" fill="#D9D9D9" fill-opacity="0.42"/>
<circle cx="26.1756" cy="763.534" r="12.9568" fill="#D9D9D9" fill-opacity="0.42"/>
<circle cx="969.668" cy="763.534" r="12.9568" fill="#D9D9D9" fill-opacity="0.42"/>
<circle cx="497.922" cy="763.534" r="12.9568" fill="#D9D9D9" fill-opacity="0.42"/>
<circle cx="1441.41" cy="763.534" r="12.9568" fill="#D9D9D9" fill-opacity="0.42"/>
<circle cx="26.7654" cy="1057.42" r="12.9568" fill="#D9D9D9" fill-opacity="0.42"/>
<circle cx="970.258" cy="1057.42" r="12.9568" fill="#D9D9D9" fill-opacity="0.42"/>
<circle cx="498.512" cy="1057.42" r="12.9568" fill="#D9D9D9" fill-opacity="0.42"/>
<circle cx="1442" cy="1057.42" r="12.9568" fill="#D9D9D9" fill-opacity="0.42"/>
<circle cx="143.965" cy="763.534" r="12.9568" fill="#D9D9D9" fill-opacity="0.42"/>
<circle cx="1087.45" cy="763.534" r="12.9568" fill="#D9D9D9" fill-opacity="0.42"/>
<circle cx="615.711" cy="763.534" r="12.9568" fill="#D9D9D9" fill-opacity="0.42"/>
<circle cx="1559.2" cy="763.534" r="12.9568" fill="#D9D9D9" fill-opacity="0.42"/>
<ellipse cx="144.259" cy="1057.42" rx="13.2513" ry="12.9568" fill="#D9D9D9" fill-opacity="0.42"/>
<ellipse cx="1087.75" cy="1057.42" rx="13.2513" ry="12.9568" fill="#D9D9D9" fill-opacity="0.42"/>
<ellipse cx="616.005" cy="1057.42" rx="13.2513" ry="12.9568" fill="#D9D9D9" fill-opacity="0.42"/>
<ellipse cx="1559.5" cy="1057.42" rx="13.2513" ry="12.9568" fill="#D9D9D9" fill-opacity="0.42"/>
<ellipse cx="910.769" cy="822.135" rx="12.9568" ry="13.2513" fill="#D9D9D9" fill-opacity="0.42"/>
<ellipse cx="439.027" cy="822.135" rx="12.9568" ry="13.2513" fill="#D9D9D9" fill-opacity="0.42"/>
<ellipse cx="1382.52" cy="822.135" rx="12.9568" ry="13.2513" fill="#D9D9D9" fill-opacity="0.42"/>
<circle cx="911.359" cy="1116.31" r="12.9568" fill="#D9D9D9" fill-opacity="0.42"/>
<circle cx="439.613" cy="1116.31" r="12.9568" fill="#D9D9D9" fill-opacity="0.42"/>
<circle cx="1383.11" cy="1116.31" r="12.9568" fill="#D9D9D9" fill-opacity="0.42"/>
<ellipse cx="85.0701" cy="822.135" rx="12.9568" ry="13.2513" fill="#D9D9D9" fill-opacity="0.42"/>
<ellipse cx="1028.56" cy="822.135" rx="12.9568" ry="13.2513" fill="#D9D9D9" fill-opacity="0.42"/>
<ellipse cx="556.816" cy="822.135" rx="12.9568" ry="13.2513" fill="#D9D9D9" fill-opacity="0.42"/>
<ellipse cx="1500.3" cy="822.135" rx="12.9568" ry="13.2513" fill="#D9D9D9" fill-opacity="0.42"/>
<ellipse cx="85.3646" cy="1116.31" rx="13.2513" ry="12.9568" fill="#D9D9D9" fill-opacity="0.42"/>
<ellipse cx="1028.86" cy="1116.31" rx="13.2513" ry="12.9568" fill="#D9D9D9" fill-opacity="0.42"/>
<ellipse cx="557.111" cy="1116.31" rx="13.2513" ry="12.9568" fill="#D9D9D9" fill-opacity="0.42"/>
<ellipse cx="1500.6" cy="1116.31" rx="13.2513" ry="12.9568" fill="#D9D9D9" fill-opacity="0.42"/>
<ellipse cx="26.1756" cy="822.135" rx="12.9568" ry="13.2513" fill="#D9D9D9" fill-opacity="0.42"/>
<ellipse cx="969.668" cy="822.135" rx="12.9568" ry="13.2513" fill="#D9D9D9" fill-opacity="0.42"/>
<ellipse cx="497.922" cy="822.135" rx="12.9568" ry="13.2513" fill="#D9D9D9" fill-opacity="0.42"/>
<ellipse cx="1441.41" cy="822.135" rx="12.9568" ry="13.2513" fill="#D9D9D9" fill-opacity="0.42"/>
<circle cx="26.7654" cy="1116.31" r="12.9568" fill="#D9D9D9" fill-opacity="0.42"/>
<circle cx="970.258" cy="1116.31" r="12.9568" fill="#D9D9D9" fill-opacity="0.42"/>
<circle cx="498.512" cy="1116.31" r="12.9568" fill="#D9D9D9" fill-opacity="0.42"/>
<circle cx="1442" cy="1116.31" r="12.9568" fill="#D9D9D9" fill-opacity="0.42"/>
<ellipse cx="143.965" cy="822.135" rx="12.9568" ry="13.2513" fill="#D9D9D9" fill-opacity="0.42"/>
<ellipse cx="1087.45" cy="822.135" rx="12.9568" ry="13.2513" fill="#D9D9D9" fill-opacity="0.42"/>
<ellipse cx="615.711" cy="822.135" rx="12.9568" ry="13.2513" fill="#D9D9D9" fill-opacity="0.42"/>
<ellipse cx="1559.2" cy="822.135" rx="12.9568" ry="13.2513" fill="#D9D9D9" fill-opacity="0.42"/>
<ellipse cx="144.259" cy="1116.31" rx="13.2513" ry="12.9568" fill="#D9D9D9" fill-opacity="0.42"/>
<ellipse cx="1087.75" cy="1116.31" rx="13.2513" ry="12.9568" fill="#D9D9D9" fill-opacity="0.42"/>
<ellipse cx="616.005" cy="1116.31" rx="13.2513" ry="12.9568" fill="#D9D9D9" fill-opacity="0.42"/>
<ellipse cx="1559.5" cy="1116.31" rx="13.2513" ry="12.9568" fill="#D9D9D9" fill-opacity="0.42"/>
<ellipse cx="202.564" cy="586.85" rx="13.2513" ry="12.9568" fill="#D9D9D9" fill-opacity="0.42"/>
<ellipse cx="1146.06" cy="586.85" rx="13.2513" ry="12.9568" fill="#D9D9D9" fill-opacity="0.42"/>
<ellipse cx="674.31" cy="586.85" rx="13.2513" ry="12.9568" fill="#D9D9D9" fill-opacity="0.42"/>
<ellipse cx="1617.8" cy="586.85" rx="13.2513" ry="12.9568" fill="#D9D9D9" fill-opacity="0.42"/>
<ellipse cx="202.859" cy="881.029" rx="12.9568" ry="13.2513" fill="#D9D9D9" fill-opacity="0.42"/>
<ellipse cx="1146.35" cy="881.029" rx="12.9568" ry="13.2513" fill="#D9D9D9" fill-opacity="0.42"/>
<ellipse cx="674.605" cy="881.029" rx="12.9568" ry="13.2513" fill="#D9D9D9" fill-opacity="0.42"/>
<ellipse cx="1618.1" cy="881.029" rx="12.9568" ry="13.2513" fill="#D9D9D9" fill-opacity="0.42"/>
<circle cx="320.058" cy="586.85" r="12.9568" fill="#D9D9D9" fill-opacity="0.42"/>
<circle cx="1263.55" cy="586.85" r="12.9568" fill="#D9D9D9" fill-opacity="0.42"/>
<circle cx="791.804" cy="586.85" r="12.9568" fill="#D9D9D9" fill-opacity="0.42"/>
<circle cx="1735.3" cy="586.85" r="12.9568" fill="#D9D9D9" fill-opacity="0.42"/>
<ellipse cx="320.648" cy="881.029" rx="12.9568" ry="13.2513" fill="#D9D9D9" fill-opacity="0.42"/>
<ellipse cx="1264.14" cy="881.029" rx="12.9568" ry="13.2513" fill="#D9D9D9" fill-opacity="0.42"/>
<ellipse cx="792.394" cy="881.029" rx="12.9568" ry="13.2513" fill="#D9D9D9" fill-opacity="0.42"/>
<ellipse cx="1735.89" cy="881.029" rx="12.9568" ry="13.2513" fill="#D9D9D9" fill-opacity="0.42"/>
<ellipse cx="261.458" cy="586.85" rx="13.2513" ry="12.9568" fill="#D9D9D9" fill-opacity="0.42"/>
<ellipse cx="1204.95" cy="586.85" rx="13.2513" ry="12.9568" fill="#D9D9D9" fill-opacity="0.42"/>
<ellipse cx="733.204" cy="586.85" rx="13.2513" ry="12.9568" fill="#D9D9D9" fill-opacity="0.42"/>
<ellipse cx="1676.7" cy="586.85" rx="13.2513" ry="12.9568" fill="#D9D9D9" fill-opacity="0.42"/>
<ellipse cx="261.754" cy="881.029" rx="12.9568" ry="13.2513" fill="#D9D9D9" fill-opacity="0.42"/>
<ellipse cx="1205.25" cy="881.029" rx="12.9568" ry="13.2513" fill="#D9D9D9" fill-opacity="0.42"/>
<ellipse cx="733.5" cy="881.029" rx="12.9568" ry="13.2513" fill="#D9D9D9" fill-opacity="0.42"/>
<ellipse cx="1676.99" cy="881.029" rx="12.9568" ry="13.2513" fill="#D9D9D9" fill-opacity="0.42"/>
<circle cx="378.953" cy="586.85" r="12.9568" fill="#D9D9D9" fill-opacity="0.42"/>
<circle cx="1322.45" cy="586.85" r="12.9568" fill="#D9D9D9" fill-opacity="0.42"/>
<circle cx="850.699" cy="586.85" r="12.9568" fill="#D9D9D9" fill-opacity="0.42"/>
<ellipse cx="379.543" cy="881.029" rx="12.9568" ry="13.2513" fill="#D9D9D9" fill-opacity="0.42"/>
<ellipse cx="1323.03" cy="881.029" rx="12.9568" ry="13.2513" fill="#D9D9D9" fill-opacity="0.42"/>
<ellipse cx="851.289" cy="881.029" rx="12.9568" ry="13.2513" fill="#D9D9D9" fill-opacity="0.42"/>
<ellipse cx="202.564" cy="645.745" rx="13.2513" ry="12.9568" fill="#D9D9D9" fill-opacity="0.42"/>
<ellipse cx="1146.06" cy="645.745" rx="13.2513" ry="12.9568" fill="#D9D9D9" fill-opacity="0.42"/>
<ellipse cx="674.31" cy="645.745" rx="13.2513" ry="12.9568" fill="#D9D9D9" fill-opacity="0.42"/>
<ellipse cx="1617.8" cy="645.745" rx="13.2513" ry="12.9568" fill="#D9D9D9" fill-opacity="0.42"/>
<circle cx="202.859" cy="939.629" r="12.9568" fill="#D9D9D9" fill-opacity="0.42"/>
<circle cx="1146.35" cy="939.629" r="12.9568" fill="#D9D9D9" fill-opacity="0.42"/>
<circle cx="674.605" cy="939.629" r="12.9568" fill="#D9D9D9" fill-opacity="0.42"/>
<circle cx="1618.1" cy="939.629" r="12.9568" fill="#D9D9D9" fill-opacity="0.42"/>
<circle cx="320.058" cy="645.745" r="12.9568" fill="#D9D9D9" fill-opacity="0.42"/>
<circle cx="1263.55" cy="645.745" r="12.9568" fill="#D9D9D9" fill-opacity="0.42"/>
<circle cx="791.804" cy="645.745" r="12.9568" fill="#D9D9D9" fill-opacity="0.42"/>
<circle cx="1735.3" cy="645.745" r="12.9568" fill="#D9D9D9" fill-opacity="0.42"/>
<circle cx="320.648" cy="939.629" r="12.9568" fill="#D9D9D9" fill-opacity="0.42"/>
<circle cx="1264.14" cy="939.629" r="12.9568" fill="#D9D9D9" fill-opacity="0.42"/>
<circle cx="792.394" cy="939.629" r="12.9568" fill="#D9D9D9" fill-opacity="0.42"/>
<circle cx="1735.89" cy="939.629" r="12.9568" fill="#D9D9D9" fill-opacity="0.42"/>
<ellipse cx="261.458" cy="645.745" rx="13.2513" ry="12.9568" fill="#D9D9D9" fill-opacity="0.42"/>
<ellipse cx="1204.95" cy="645.745" rx="13.2513" ry="12.9568" fill="#D9D9D9" fill-opacity="0.42"/>
<ellipse cx="733.204" cy="645.745" rx="13.2513" ry="12.9568" fill="#D9D9D9" fill-opacity="0.42"/>
<ellipse cx="1676.7" cy="645.745" rx="13.2513" ry="12.9568" fill="#D9D9D9" fill-opacity="0.42"/>
<circle cx="261.754" cy="939.629" r="12.9568" fill="#D9D9D9" fill-opacity="0.42"/>
<circle cx="1205.25" cy="939.629" r="12.9568" fill="#D9D9D9" fill-opacity="0.42"/>
<circle cx="733.5" cy="939.629" r="12.9568" fill="#D9D9D9" fill-opacity="0.42"/>
<circle cx="1676.99" cy="939.629" r="12.9568" fill="#D9D9D9" fill-opacity="0.42"/>
<circle cx="378.953" cy="645.745" r="12.9568" fill="#D9D9D9" fill-opacity="0.42"/>
<circle cx="1322.45" cy="645.745" r="12.9568" fill="#D9D9D9" fill-opacity="0.42"/>
<circle cx="850.699" cy="645.745" r="12.9568" fill="#D9D9D9" fill-opacity="0.42"/>
<circle cx="379.543" cy="939.629" r="12.9568" fill="#D9D9D9" fill-opacity="0.42"/>
<circle cx="1323.03" cy="939.629" r="12.9568" fill="#D9D9D9" fill-opacity="0.42"/>
<circle cx="851.289" cy="939.629" r="12.9568" fill="#D9D9D9" fill-opacity="0.42"/>
<ellipse cx="202.564" cy="704.639" rx="13.2513" ry="12.9568" fill="#D9D9D9" fill-opacity="0.42"/>
<ellipse cx="1146.06" cy="704.639" rx="13.2513" ry="12.9568" fill="#D9D9D9" fill-opacity="0.42"/>
<ellipse cx="674.31" cy="704.639" rx="13.2513" ry="12.9568" fill="#D9D9D9" fill-opacity="0.42"/>
<ellipse cx="1617.8" cy="704.639" rx="13.2513" ry="12.9568" fill="#D9D9D9" fill-opacity="0.42"/>
<circle cx="202.859" cy="998.523" r="12.9568" fill="#D9D9D9" fill-opacity="0.42"/>
<circle cx="1146.35" cy="998.523" r="12.9568" fill="#D9D9D9" fill-opacity="0.42"/>
<circle cx="674.605" cy="998.523" r="12.9568" fill="#D9D9D9" fill-opacity="0.42"/>
<circle cx="1618.1" cy="998.523" r="12.9568" fill="#D9D9D9" fill-opacity="0.42"/>
<circle cx="320.058" cy="704.639" r="12.9568" fill="#D9D9D9" fill-opacity="0.42"/>
<circle cx="1263.55" cy="704.639" r="12.9568" fill="#D9D9D9" fill-opacity="0.42"/>
<circle cx="791.804" cy="704.639" r="12.9568" fill="#D9D9D9" fill-opacity="0.42"/>
<circle cx="1735.3" cy="704.639" r="12.9568" fill="#D9D9D9" fill-opacity="0.42"/>
<circle cx="320.648" cy="998.523" r="12.9568" fill="#D9D9D9" fill-opacity="0.42"/>
<circle cx="1264.14" cy="998.523" r="12.9568" fill="#D9D9D9" fill-opacity="0.42"/>
<circle cx="792.394" cy="998.523" r="12.9568" fill="#D9D9D9" fill-opacity="0.42"/>
<circle cx="1735.89" cy="998.523" r="12.9568" fill="#D9D9D9" fill-opacity="0.42"/>
<ellipse cx="261.458" cy="704.639" rx="13.2513" ry="12.9568" fill="#D9D9D9" fill-opacity="0.42"/>
<ellipse cx="1204.95" cy="704.639" rx="13.2513" ry="12.9568" fill="#D9D9D9" fill-opacity="0.42"/>
<ellipse cx="733.204" cy="704.639" rx="13.2513" ry="12.9568" fill="#D9D9D9" fill-opacity="0.42"/>
<ellipse cx="1676.7" cy="704.639" rx="13.2513" ry="12.9568" fill="#D9D9D9" fill-opacity="0.42"/>
<circle cx="261.754" cy="998.523" r="12.9568" fill="#D9D9D9" fill-opacity="0.42"/>
<circle cx="1205.25" cy="998.523" r="12.9568" fill="#D9D9D9" fill-opacity="0.42"/>
<circle cx="733.5" cy="998.523" r="12.9568" fill="#D9D9D9" fill-opacity="0.42"/>
<circle cx="1676.99" cy="998.523" r="12.9568" fill="#D9D9D9" fill-opacity="0.42"/>
<circle cx="378.953" cy="704.639" r="12.9568" fill="#D9D9D9" fill-opacity="0.42"/>
<circle cx="1322.45" cy="704.639" r="12.9568" fill="#D9D9D9" fill-opacity="0.42"/>
<circle cx="850.699" cy="704.639" r="12.9568" fill="#D9D9D9" fill-opacity="0.42"/>
<circle cx="379.543" cy="998.523" r="12.9568" fill="#D9D9D9" fill-opacity="0.42"/>
<circle cx="1323.03" cy="998.523" r="12.9568" fill="#D9D9D9" fill-opacity="0.42"/>
<circle cx="851.289" cy="998.523" r="12.9568" fill="#D9D9D9" fill-opacity="0.42"/>
<ellipse cx="202.564" cy="763.534" rx="13.2513" ry="12.9568" fill="#D9D9D9" fill-opacity="0.42"/>
<ellipse cx="1146.06" cy="763.534" rx="13.2513" ry="12.9568" fill="#D9D9D9" fill-opacity="0.42"/>
<ellipse cx="674.31" cy="763.534" rx="13.2513" ry="12.9568" fill="#D9D9D9" fill-opacity="0.42"/>
<ellipse cx="1617.8" cy="763.534" rx="13.2513" ry="12.9568" fill="#D9D9D9" fill-opacity="0.42"/>
<circle cx="202.859" cy="1057.42" r="12.9568" fill="#D9D9D9" fill-opacity="0.42"/>
<circle cx="1146.35" cy="1057.42" r="12.9568" fill="#D9D9D9" fill-opacity="0.42"/>
<circle cx="674.605" cy="1057.42" r="12.9568" fill="#D9D9D9" fill-opacity="0.42"/>
<circle cx="1618.1" cy="1057.42" r="12.9568" fill="#D9D9D9" fill-opacity="0.42"/>
<circle cx="320.058" cy="763.534" r="12.9568" fill="#D9D9D9" fill-opacity="0.42"/>
<circle cx="1263.55" cy="763.534" r="12.9568" fill="#D9D9D9" fill-opacity="0.42"/>
<circle cx="791.804" cy="763.534" r="12.9568" fill="#D9D9D9" fill-opacity="0.42"/>
<circle cx="1735.3" cy="763.534" r="12.9568" fill="#D9D9D9" fill-opacity="0.42"/>
<circle cx="320.648" cy="1057.42" r="12.9568" fill="#D9D9D9" fill-opacity="0.42"/>
<circle cx="1264.14" cy="1057.42" r="12.9568" fill="#D9D9D9" fill-opacity="0.42"/>
<circle cx="792.394" cy="1057.42" r="12.9568" fill="#D9D9D9" fill-opacity="0.42"/>
<circle cx="1735.89" cy="1057.42" r="12.9568" fill="#D9D9D9" fill-opacity="0.42"/>
<ellipse cx="261.458" cy="763.534" rx="13.2513" ry="12.9568" fill="#D9D9D9" fill-opacity="0.42"/>
<ellipse cx="1204.95" cy="763.534" rx="13.2513" ry="12.9568" fill="#D9D9D9" fill-opacity="0.42"/>
<ellipse cx="733.204" cy="763.534" rx="13.2513" ry="12.9568" fill="#D9D9D9" fill-opacity="0.42"/>
<ellipse cx="1676.7" cy="763.534" rx="13.2513" ry="12.9568" fill="#D9D9D9" fill-opacity="0.42"/>
<circle cx="261.754" cy="1057.42" r="12.9568" fill="#D9D9D9" fill-opacity="0.42"/>
<circle cx="1205.25" cy="1057.42" r="12.9568" fill="#D9D9D9" fill-opacity="0.42"/>
<circle cx="733.5" cy="1057.42" r="12.9568" fill="#D9D9D9" fill-opacity="0.42"/>
<circle cx="1676.99" cy="1057.42" r="12.9568" fill="#D9D9D9" fill-opacity="0.42"/>
<circle cx="378.953" cy="763.534" r="12.9568" fill="#D9D9D9" fill-opacity="0.42"/>
<circle cx="1322.45" cy="763.534" r="12.9568" fill="#D9D9D9" fill-opacity="0.42"/>
<circle cx="850.699" cy="763.534" r="12.9568" fill="#D9D9D9" fill-opacity="0.42"/>
<circle cx="379.543" cy="1057.42" r="12.9568" fill="#D9D9D9" fill-opacity="0.42"/>
<circle cx="1323.03" cy="1057.42" r="12.9568" fill="#D9D9D9" fill-opacity="0.42"/>
<circle cx="851.289" cy="1057.42" r="12.9568" fill="#D9D9D9" fill-opacity="0.42"/>
<circle cx="202.564" cy="822.135" r="13.2513" fill="#D9D9D9" fill-opacity="0.42"/>
<circle cx="1146.06" cy="822.135" r="13.2513" fill="#D9D9D9" fill-opacity="0.42"/>
<circle cx="674.31" cy="822.135" r="13.2513" fill="#D9D9D9" fill-opacity="0.42"/>
<circle cx="1617.8" cy="822.135" r="13.2513" fill="#D9D9D9" fill-opacity="0.42"/>
<circle cx="202.859" cy="1116.31" r="12.9568" fill="#D9D9D9" fill-opacity="0.42"/>
<circle cx="1146.35" cy="1116.31" r="12.9568" fill="#D9D9D9" fill-opacity="0.42"/>
<circle cx="674.605" cy="1116.31" r="12.9568" fill="#D9D9D9" fill-opacity="0.42"/>
<circle cx="1618.1" cy="1116.31" r="12.9568" fill="#D9D9D9" fill-opacity="0.42"/>
<ellipse cx="320.058" cy="822.135" rx="12.9568" ry="13.2513" fill="#D9D9D9" fill-opacity="0.42"/>
<ellipse cx="1263.55" cy="822.135" rx="12.9568" ry="13.2513" fill="#D9D9D9" fill-opacity="0.42"/>
<ellipse cx="791.804" cy="822.135" rx="12.9568" ry="13.2513" fill="#D9D9D9" fill-opacity="0.42"/>
<ellipse cx="1735.3" cy="822.135" rx="12.9568" ry="13.2513" fill="#D9D9D9" fill-opacity="0.42"/>
<circle cx="320.648" cy="1116.31" r="12.9568" fill="#D9D9D9" fill-opacity="0.42"/>
<circle cx="1264.14" cy="1116.31" r="12.9568" fill="#D9D9D9" fill-opacity="0.42"/>
<circle cx="792.394" cy="1116.31" r="12.9568" fill="#D9D9D9" fill-opacity="0.42"/>
<circle cx="1735.89" cy="1116.31" r="12.9568" fill="#D9D9D9" fill-opacity="0.42"/>
<circle cx="261.458" cy="822.135" r="13.2513" fill="#D9D9D9" fill-opacity="0.42"/>
<circle cx="1204.95" cy="822.135" r="13.2513" fill="#D9D9D9" fill-opacity="0.42"/>
<circle cx="733.204" cy="822.135" r="13.2513" fill="#D9D9D9" fill-opacity="0.42"/>
<circle cx="1676.7" cy="822.135" r="13.2513" fill="#D9D9D9" fill-opacity="0.42"/>
<circle cx="261.754" cy="1116.31" r="12.9568" fill="#D9D9D9" fill-opacity="0.42"/>
<circle cx="1205.25" cy="1116.31" r="12.9568" fill="#D9D9D9" fill-opacity="0.42"/>
<circle cx="733.5" cy="1116.31" r="12.9568" fill="#D9D9D9" fill-opacity="0.42"/>
<circle cx="1676.99" cy="1116.31" r="12.9568" fill="#D9D9D9" fill-opacity="0.42"/>
<ellipse cx="378.953" cy="822.135" rx="12.9568" ry="13.2513" fill="#D9D9D9" fill-opacity="0.42"/>
<ellipse cx="1322.45" cy="822.135" rx="12.9568" ry="13.2513" fill="#D9D9D9" fill-opacity="0.42"/>
<ellipse cx="850.699" cy="822.135" rx="12.9568" ry="13.2513" fill="#D9D9D9" fill-opacity="0.42"/>
<circle cx="379.543" cy="1116.31" r="12.9568" fill="#D9D9D9" fill-opacity="0.42"/>
<circle cx="1323.03" cy="1116.31" r="12.9568" fill="#D9D9D9" fill-opacity="0.42"/>
<circle cx="851.289" cy="1116.31" r="12.9568" fill="#D9D9D9" fill-opacity="0.42"/>
</g>
<path d="M1086.69 1116.47C854.293 1116.49 599.863 1116.62 366.537 1116.46C337.893 1116.44 339.85 1116.17 331.814 1116.13C309.845 1116.03 296.618 1116.35 280.604 1116.33C202.76 1116.22 129.939 1116.17 53.5708 1116.07C22.2439 1116.03 9.29297 1115.87 3.32422 1115.68L0.183443 1115.69L0.179047 1112.54C0.462106 1103.52 0.813295 1110.44 0.935723 1093.99C1.33414 1040.59 0.245156 1086.01 0.000660419 1065.02C0.0659819 1003.8 0.183953 942.027 0.303396 880.692C0.405073 895.665 0.50459 910.643 0.598807 925.78C0.621215 899.047 0.7893 860.786 1.07391 905.554C1.1523 895.659 1.24397 886.422 1.32049 876.253C0.923917 873.465 0.892017 826.134 0.656913 821.807C0.421745 817.489 0.475783 844.1 0.455252 843.936C0.162343 842.171 0.56273 733.01 0.595389 725.138C0.68229 704.327 1.17393 722.573 1.14227 704.869C1.08814 674.418 0.0878386 694.704 1.41766 653.484C0.985653 637.086 1.21 635.655 1.23992 614.891C1.24366 612.157 0.993525 614.278 0.986992 613.076C0.801338 581.646 1.26649 605.805 1.29168 605.641C1.71971 602.788 1.52944 569.059 1.57049 561.953C2.08186 472.793 2.42806 407.464 2.54657 313.382C2.57176 293.045 2.3981 231.102 2.47088 211.422C2.54272 192.012 2.85113 202.426 2.99921 192.267C2.25729 175.984 2.17546 160.45 2.66424 123.893C2.12304 110.281 2.5596 112.032 2.45135 85.9555C2.36168 64.251 1.71246 26.4251 2.26581 2.53711C2.21541 29.9262 2.48127 27.09 2.64178 57.9233C2.69494 68.1871 2.7063 175.217 3.25946 167.253C3.5478 163.098 3.28297 127.625 3.33612 126.254C3.64595 118.272 4.0267 138.071 3.89325 155.62C3.83073 151.247 3.7673 145.977 3.70478 141.276C3.3175 180.692 4.80493 153.586 3.50507 183.543C3.34562 187.247 3.17938 185.811 3.00995 191.917C3.08002 193.172 3.25374 185.702 3.28485 192.136C3.31621 198.699 2.98638 211.16 3.26434 213.018C3.66855 215.795 3.50927 188.606 3.5329 186.56C3.53046 186.538 3.52802 186.517 3.52558 186.495C3.74019 168.405 3.76466 206.185 3.80292 207.989C4.05477 219.675 4.2487 211.706 4.45673 229.242C4.57525 239.247 4.50538 264.73 4.54365 274.133C4.58287 283.476 4.77407 268.94 4.81513 275.226C4.85618 281.513 4.7109 289.34 4.75849 296.72C4.77947 299.879 4.99273 299.718 5.00019 301.247C5.08225 317.643 4.63866 306.888 4.66572 321.757C4.68371 331.39 5.09722 363.721 5.22041 341.436C5.26332 352.148 5.29473 362.594 5.32832 373.251C5.39175 366.529 5.43486 359.583 5.50947 353.025C5.40789 373.08 5.77285 382.154 5.8 394.723C5.82706 407.296 5.38911 418.568 5.60273 432.398C6.0572 461.92 5.84723 388.82 5.92842 379.745C5.96033 376.208 6.30338 389.789 6.31318 391.881C6.3561 401.171 6.11077 412.161 6.12178 419.322C6.16284 444.961 6.48661 460.66 6.55195 485.095C6.77406 568.3 6.95418 671.518 7.0251 750.35C7.05123 779.707 6.6872 797.371 6.69746 810.546C6.72176 841.371 7.03899 845.147 7.05586 872.033C7.08199 912.051 6.80504 968.426 6.74531 1001.83C6.70426 1024.95 7.01126 1045.89 7.01875 1051.9C7.04437 1071.35 7.06365 1091.77 7.07821 1112.54L3.32422 1108.78C71.8322 1108.74 144.077 1108.74 197.229 1108.74C229.805 1108.73 245.277 1109.08 252.004 1109.07C280.92 1109.03 273.167 1108.73 296.61 1108.76C309.275 1108.78 311.643 1109.06 313.337 1109.07C328.262 1109.16 331.233 1108.79 342.878 1108.78C409.842 1108.71 474.347 1108.95 540.655 1108.99C545.466 1108.99 545.038 1109.16 548.155 1109.15C561.536 1109.11 555.315 1108.85 569.299 1108.83C598.383 1108.79 628.247 1108.83 659.08 1108.87C662.135 1108.87 663.508 1109.08 670.494 1109.08C677.491 1109.08 682.796 1108.88 693.781 1108.89C722.482 1108.92 750.806 1109.16 781.201 1109.17C786.23 1109.17 792.462 1108.92 800.006 1108.92C823.677 1108.93 858.725 1109.16 879.007 1109.17C945.92 1109.2 1007.65 1109.05 1070.68 1109.05C1085.49 1109.05 1098.62 1109.29 1106.32 1109.29C1123.7 1109.3 1110.59 1109.08 1128.19 1109.08C1271.97 1109.07 1416.3 1109.18 1561.77 1109.16C1618.9 1109.15 1688.44 1108.92 1743.65 1108.98C1750.15 1108.99 1755.14 1109.02 1759.32 1109.06L1755.85 1112.54C1755.95 1101.93 1756.11 1096.49 1756.11 1084.85C1756.11 1055.89 1755.72 1050.64 1755.68 1020.09C1755.65 995.703 1756.04 967.762 1756.02 942.396C1755.99 917.03 1755.61 905.325 1755.57 876.186C1755.53 852.187 1755.7 818.679 1755.67 792.549C1755.42 553.104 1755.26 317.32 1755.56 76.3985C1755.59 52.4013 1755.6 27.6626 1755.62 2.53711L1759.32 6.23916C1695.44 6.19466 1629.06 6.14689 1566.01 5.87764C1557.76 5.84213 1570.38 5.47355 1543.92 5.55098C1529.71 5.59297 1509.86 5.91057 1477.01 5.92647C1281.68 6.01979 1073.33 5.34042 874.717 5.47481C577.213 5.67733 268.886 8.30023 10.3595 4.46211C-2.32155 4.27363 4.55505 3.34999 12.1525 3.08759C19.2032 3.27513 25.7216 3.49787 33.1 3.70966C42.3914 2.55559 40.753 2.85608 75.1918 2.95966C96.3943 3.02398 79.4584 2.53041 90.7603 2.39032C105.412 2.20928 174.201 1.63921 160.972 2.4035C165.236 2.271 169.171 2.14405 173.326 2.01434C223.127 1.89862 271.513 1.70727 320.221 1.48797C328.635 1.44964 329.023 1.20982 337.713 1.17157C361.055 1.06709 379.586 1.22463 403.639 1.20038C416.705 1.18731 418.517 0.910182 435.629 0.927913C452.73 0.945755 452.355 1.31986 475.687 0.913265C460.489 0.443871 528.282 0.784464 552.392 0.755549C555.891 0.751817 584.588 0.330124 599.841 0.378595C615.147 0.426182 638.381 0.695569 662.05 0.542658C673.147 0.470803 679.881 0.142392 691.853 0.123711C700.271 0.110647 710.384 0.40256 721.044 0.414728C731.699 0.426854 754.756 0.187229 758.981 0.183281C774.231 0.16742 757.407 0.372652 767.837 0.382989C818.185 0.429648 876.683 0.539633 926.321 0.401544C932.424 0.384801 923.98 0.143 924.79 0.134941C966.218 -0.161741 944.106 0.153306 955.293 0.369806C966.129 0.579151 1045.43 0.464955 1046.01 0.0446091C1048.45 0.570981 1066.08 0.168947 1070.66 0.153496C1088.48 0.0938292 1084.98 0.549241 1102.25 0.40838C1108.59 0.357078 1096.25 0.049258 1103.06 0.0582809C1119.9 0.0806768 1135.05 0.575193 1157.46 0.624689C1162.88 0.636821 1164.64 0.416539 1174.26 0.424005C1183.89 0.431584 1224.27 0.701073 1205.64 0.236504C1230.12 0.608794 1235.05 0.404463 1263.54 0.414728C1270.75 0.417856 1280.04 0.772842 1295.39 0.662775C1300.59 0.625421 1300.43 0.283249 1308.25 0.28045C1326.13 0.273081 1342.97 0.627295 1365.65 0.641291C1408.07 0.668342 1453.23 0.419337 1497.46 0.50799C1509.48 0.532318 1506.48 0.876342 1523.96 0.882991C1526.53 0.882991 1547.58 0.585487 1559.67 0.613459C1566.94 0.630256 1604.61 0.839338 1612.21 0.856135C1624.77 0.883062 1627.02 0.550338 1633.9 0.615412C1653.8 0.802985 1637.84 1.29275 1661.78 0.622736C1669.65 0.994148 1683.64 0.95699 1688.13 1.41424C1696.27 0.913155 1706.83 1.39459 1722.63 1.22674C1738.43 1.05877 1751.38 0.0882456 1755.21 1.1325C1756.2 1.11559 1757.61 1.09709 1759.32 1.07769L1760.78 1.07565L1760.78 2.53711C1760.91 13.719 1761.07 37.9538 1761.09 42.5501C1761.13 58.1787 1760.84 49.822 1760.88 61.6171C1760.89 63.694 1761.09 61.5188 1761.07 74.846C1761.05 83.593 1761.04 147.681 1761.02 151.508C1760.71 195.171 1760.82 127.714 1760.61 118.272C1760.66 116.605 1760.72 114.956 1760.77 113.177C1760.87 93.8825 1760.42 104.867 1760.32 113.614C1760.21 122.362 1760.41 138.705 1760.27 145.976C1760.19 149.598 1759.66 147.354 1759.72 136.398C1759.56 148.121 1759.38 132.112 1759.23 136.748C1759.06 141.845 1759.01 194.522 1759.3 194.802C1759.31 184.963 1759.3 172.718 1759.31 162.769C1759.83 149.757 1761.58 189.278 1760.88 225.524C1760.37 251.815 1759.97 208.472 1760.39 270.677C1760.41 261.111 1760.46 253.019 1760.48 244.328C1760.87 243.403 1760.44 257.503 1760.57 264.773C1760.63 268.265 1760.9 246.742 1760.99 265.429C1760.44 281.5 1760.99 293.866 1761 320.815C1760.9 313.326 1760.8 305.827 1760.71 298.337C1760.31 343.875 1760.18 238.104 1759.95 326.653C1759.93 315.998 1759.94 305.396 1759.91 294.685C1759.71 299.877 1759.12 291.57 1758.99 296.216C1758.67 308.404 1758.86 326.438 1758.83 341.303C1758.82 347.809 1758.66 343.774 1758.66 344.321C1758.64 353.231 1758.88 351.263 1758.89 359.08C1758.91 368.918 1758.68 397.331 1758.71 401.937C1758.78 413.855 1759.24 394.011 1759.27 395.159C1759.5 402.758 1759.31 418.278 1759.6 417.462C1759.4 380.119 1759.66 272.499 1760.15 369.86C1760.62 343.018 1761.27 350.77 1761.32 389.365C1761.37 421.291 1761.1 400.69 1760.82 417.309C1760.78 419.458 1760.64 462.218 1760.85 464.408C1760.38 462.695 1759.96 476.61 1759.48 467.273C1759.41 465.906 1759.44 448.358 1759.05 454.481C1758.86 457.542 1758.43 466.327 1758.18 464.911C1758.36 468.519 1758.55 472.291 1758.73 475.953C1758.78 502.249 1758.59 505.985 1758.27 520.363C1758.41 519.707 1758.97 506.422 1758.8 526.595C1758.79 527.63 1758.59 528.525 1758.49 538.774C1758.28 559.491 1758.22 563.815 1757.63 547.914C1757.97 590.817 1757.3 600.061 1757.5 644.058C1758.26 635.311 1758.07 619.843 1757.92 579.554C1758.11 577.805 1758.29 576.984 1758.47 575.181C1758.06 628.805 1758.1 602.307 1758.47 632.688C1758.56 640.123 1758.46 679.766 1758.98 666.536C1759.1 663.414 1759.09 638.785 1759.28 641.609C1759.31 642.156 1759.41 672.097 1759.36 674.736C1758.75 707.864 1758.32 648.663 1758.54 739.896C1758.55 742.41 1758.77 743.293 1758.8 748.205C1758.86 757.442 1758.6 757.558 1758.66 765.807C1758.72 774.061 1759.07 785.498 1758.75 797.906C1758.17 820.594 1757.83 767.077 1758.14 743.242C1757.38 733.566 1757.36 903.857 1757.42 914.408C1757.71 960.482 1757.54 883.81 1757.76 879.86C1757.85 878.22 1758.98 879.036 1758.24 859.634C1758.03 853.894 1757.74 877.885 1757.62 863.57C1757.5 849.246 1757.83 854.922 1757.86 853.883C1757.94 850.32 1757.81 835.087 1757.86 833.11C1758.58 802.714 1759.67 805.502 1758.06 845.793C1758.42 863.341 1759 823.061 1759.25 844.874C1759.55 871.386 1759.03 890.738 1759.01 894.073C1758.73 934.024 1759.49 887.957 1759.24 936.755C1759.11 963.925 1758.74 896.093 1758.79 958.14C1758.83 1010.07 1759.1 982.028 1759.69 985.8C1759.83 986.691 1760.01 1015.15 1759.94 976.398C1759.79 975.304 1759.58 973.237 1759.44 970.778C1759.55 961.273 1760.33 945.427 1760.36 940.384C1760.49 915.73 1760.09 916.921 1760.56 902.382C1760.04 912.765 1760.35 895.866 1760.24 889.524C1759.84 865.978 1759.69 896.853 1760.21 844C1759.96 850.888 1759.72 857.119 1759.48 863.788C1759.47 857.449 1759.46 851.104 1759.46 844.765C1759.99 835.308 1759.93 801.626 1760.47 832.127C1760.62 795.449 1760.5 780.623 1760.09 772.586C1760.01 771.059 1759.97 765.548 1759.97 759.073C1759.85 760.298 1759.48 761.864 1759.44 760.844C1759.05 751.716 1759.72 737.564 1759.98 742.389C1760 737.86 1760.01 734.274 1760.02 733.009C1760.06 724.984 1760.29 740.715 1760.37 734.211C1760.4 732.068 1760.35 709.459 1760.44 709.022C1761.05 706.297 1760.61 743.502 1760.97 668.788C1760.41 666.984 1760.53 701.686 1759.94 692.775C1759.31 683.208 1760.16 663.694 1759.38 659.43C1759.51 657.845 1759.62 657.144 1759.76 655.778C1759.42 625.552 1760.07 625.151 1760.21 615.917C1760.49 597.985 1760.45 515.547 1759.89 589.568C1759.83 578.744 1759.81 567.693 1759.76 556.923C1760.92 554.464 1760.46 561.022 1760.63 509.146C1760.67 497.721 1761.18 494.002 1760.58 482.797C1761.17 484.32 1760.81 450.528 1760.89 447.375C1761.35 427.148 1762.01 502.25 1760.96 511.879C1761.37 524.557 1760.83 524.511 1760.9 538.665C1761 559.111 1761.11 561.95 1760.71 586.223C1761.27 610.113 1760.95 492.697 1761.7 563.876C1762.38 628.593 1762.78 977 1762.94 1112.54L1762.94 1116.15L1759.32 1116.15C1745.75 1116.17 1734.31 1116.18 1725.5 1116.19C1550.29 1116.39 1458.17 1116.52 1300.78 1116.49C1285.25 1116.49 1168.05 1116.54 1192.41 1115.89C1195.91 1115.8 1246.32 1115.55 1203.08 1115.04C1211.88 1115.34 1186.45 1115.54 1184.32 1115.57C1135.39 1116.29 1163.72 1116.46 1086.69 1116.47ZM858.344 1110.67C958.874 1110.82 885.019 1110.39 905.902 1109.4C893 1109.4 880.145 1109.4 867.243 1109.4C870.633 1109.46 873.978 1109.52 877.367 1109.58C877.382 1109.58 877.396 1109.58 877.411 1109.58C871.07 1109.94 864.685 1110.31 858.344 1110.67ZM5.8459 324.14C5.97516 328.062 6.10468 331.939 6.23115 336.188C6.19103 349.471 6.15164 362.702 6.11152 375.984C6.02382 374.399 5.93507 372.868 5.84736 371.283C5.85109 355.57 5.85516 339.907 5.8459 324.14ZM1758 729.182C1758.36 710.377 1757.72 712.073 1758.01 687.09C1757.53 690.152 1757.07 693.552 1756.6 696.777C1756.67 715.793 1756.85 720.115 1756.74 740.771C1756.89 738.366 1757.04 735.905 1757.2 733.555C1757.16 730.115 1757.13 726.456 1757.1 723.125C1757.52 717.825 1757.59 750.833 1758 729.248C1758 729.226 1758 729.204 1758 729.182ZM1757.81 536.478C1757.87 526.364 1758.1 486.297 1757.9 480.83C1757.24 462.297 1757.66 575.34 1757.07 492.025C1756.98 492.406 1756.89 492.025 1756.79 492.025C1756.76 507.222 1756.73 522.374 1756.71 537.681C1757.07 536.861 1757.44 537.407 1757.81 536.478ZM1221.95 1110.63C1237.5 1110.68 1311.59 1110.37 1287.44 1109.95C1280.33 1109.83 1247.25 1110.43 1234.68 1110.4C1226.54 1110.39 1235.66 1110.06 1219.59 1110.18C1220.3 1110.32 1220.74 1110.48 1222 1110.63C1221.98 1110.63 1221.97 1110.63 1221.95 1110.63ZM1192.8 1112.55C1208.88 1112.49 1225.17 1112.42 1241.35 1112.36C1229.54 1111.98 1206.31 1112.22 1204.94 1111.69C1209.37 1111.65 1213.74 1111.61 1218.17 1111.57C1221.56 1111.69 1224.89 1111.8 1228.23 1111.92C1242.11 1111.63 1233.7 1111.49 1259.56 1111.57C1243.93 1110.77 1241.02 1110.34 1196.74 1111.15C1205.1 1110.72 1197.23 1109.3 1172.69 1110.32C1168.1 1110.5 1187.27 1110.63 1187.49 1110.66C1190.44 1111.03 1179.8 1111.27 1182.96 1111.62C1184.39 1111.78 1196.08 1111.77 1197.83 1111.99C1198.64 1112.1 1187.52 1112.41 1192.8 1112.55ZM1160.77 1110.67C1165.75 1110.44 1148.75 1109.91 1133.99 1110.02C1110.97 1110.19 1147.27 1110.69 1160.77 1110.67ZM5.84541 324.053C5.84557 324.082 5.84573 324.111 5.8459 324.14C5.84541 324.126 5.84492 324.111 5.84443 324.097C5.84476 324.082 5.84508 324.067 5.84541 324.053ZM1757.55 588.628C1757.36 576.713 1757.38 559.075 1757.08 560.378C1757.14 554.583 1757.2 548.723 1757.26 542.929C1757.17 542.983 1757.07 543.093 1756.98 543.147C1756.93 560.585 1756.87 577.969 1756.81 595.407C1757.06 593.22 1757.3 591.197 1757.55 588.628ZM1757.76 398.658C1757.79 376.74 1757.38 395.115 1757.18 390.305C1756.98 385.494 1757.14 365.968 1756.85 368.264C1756.84 381.166 1756.83 394.623 1756.82 407.688C1757.13 404.244 1757.45 401.839 1757.76 398.614C1757.76 398.628 1757.76 398.643 1757.76 398.658ZM448.053 1110.35C462.92 1110.44 456.853 1110.75 486.209 1110.38C486.187 1110.38 486.165 1110.38 486.143 1110.38C458.21 1110.12 422.25 1109.89 391.42 1110.14C410.277 1110.48 424.658 1110.21 448.053 1110.35ZM1757.07 781.179C1757.32 787.457 1757.53 758.219 1757.29 751.769C1756.92 741.331 1756.69 771.612 1757.07 781.179ZM3.2995 956.72C2.52967 934.102 1.66555 976.958 2.03875 1021.84C2.07142 1025.72 2.31624 996.745 2.46649 1005.33C2.48129 1006.2 2.46295 1022.1 2.57001 1026.03C2.67732 1029.97 2.92643 1025.84 3.03095 1032.29C3.21361 1043.61 2.87514 1069.19 3.11493 1077.66C3.14706 1078.78 3.48021 1062.91 3.49286 1061.92C3.69441 1045.63 3.25893 1029.93 3.25604 1027.41C3.24111 1014.46 3.58253 1016.41 3.66278 1013.13C3.81372 1006.96 3.66282 996.078 3.67401 995.313C3.97345 975.65 3.88776 1020.58 4.01093 1026.65C4.34314 1042.99 4.65198 1027.86 4.83955 1067.05C4.85721 1070.78 4.83715 1115.33 5.21943 1059.18C6.0163 1169.43 5.6727 1003.79 5.49726 985.801C5.41592 977.51 5.0905 990.064 4.94404 985.036C4.60907 973.555 4.55 953.986 4.07782 955.736C3.08512 959.51 3.73558 985.211 3.56855 1002.92C3.35297 1001.06 3.14273 1000.35 2.93182 996.909C3.21552 1002.21 3.35745 958.36 3.30145 956.72C3.3008 956.72 3.30015 956.72 3.2995 956.72ZM126.603 1111.43C151.368 1111.73 149.615 1111.1 172.302 1111.46C192.31 1110.9 152.846 1110.93 148.25 1110.9C127.26 1110.76 127.743 1110.15 106.267 1110.34C113.647 1110.7 119.661 1111.06 126.603 1111.43ZM4.69208 1020.42C5.00936 1036.98 5.00399 1007.34 5.06464 1006.14C5.70823 993.049 5.58315 1081.8 4.69208 1020.42ZM1318.42 1111.89C1326.84 1111.91 1321.5 1111.61 1328.92 1111.52C1336.35 1111.43 1361.76 1111.69 1361.13 1111.5C1360.47 1111.31 1313.9 1110.82 1360.65 1110.71C1359.06 1110.61 1359.6 1110.53 1358.83 1110.43C1345.98 1110.43 1333.02 1110.42 1320.17 1110.42C1327.22 1110.73 1334.45 1111.05 1341.23 1111.35C1334.01 1111.59 1329.96 1111.28 1329.58 1111.28C1329.58 1111.28 1329.58 1111.28 1329.58 1111.28C1316.13 1111.3 1299.53 1111.84 1318.42 1111.89ZM655.91 1110.94C653.395 1111.7 673.238 1110.85 681.384 1110.76C689.527 1110.66 700.72 1110.94 696.515 1110.62C683.339 1110.39 656.183 1110.85 655.91 1110.94C655.91 1110.94 655.91 1110.94 655.91 1110.94ZM261.143 1111.43C281.902 1111.24 278.606 1111.04 304 1111.27C303.017 1111.09 302.033 1110.9 301.049 1110.72C280.878 1110.71 282.295 1111.25 258.957 1111.03C255.131 1111 263.323 1110.57 246.056 1110.71C251.081 1110.93 256.173 1111.19 261.143 1111.43ZM364.022 1110.74C340.187 1110.77 321.283 1112.26 365.181 1111.59C371.687 1111.49 381.948 1110.72 364.022 1110.74ZM1098.56 1111.93C1139.11 1111.97 1093.05 1111.73 1082.49 1111.5C1176.88 1111.32 1071.84 1111.57 1062.42 1110.81C1050.88 1111.02 1029.3 1111.52 1053.28 1111.65C1063.28 1111.71 1059.63 1111.48 1060.23 1111.48C1078.65 1111.54 1076.42 1111.91 1098.56 1111.93ZM83.5708 1111.46C85.1012 1111.45 82.707 1111.2 87.5721 1111.14C92.4435 1111.09 103.469 1111.27 104.562 1111.12C105.65 1110.96 83.5335 1110.83 76.7485 1110.95C69.9698 1111.07 69.7405 1111.56 83.5708 1111.46ZM239.168 1112.1C259.425 1111.91 226.3 1110.97 221.894 1110.97C183.189 1111.02 240.316 1111.8 239.168 1112.1ZM1004.41 1113.54C1053.28 1113.06 1017.53 1112.22 986.915 1111.72C982.872 1111.82 978.724 1111.92 974.736 1112.03C993.105 1111.41 1025.3 1110.8 953.679 1111.34C992.878 1111.48 960.054 1111.65 959.802 1111.68C955.483 1112.82 1013.55 1112.29 1004.36 1113.54C1004.38 1113.54 1004.39 1113.54 1004.41 1113.54ZM17.6889 1111.19C13.8024 1111.19 8.77997 1111.2 3.32422 1111.22L4.6457 1112.54C4.5823 1088.13 4.37751 1055.04 3.97333 1076.13C4.13928 1088.28 4.30532 1100.4 4.47131 1112.54L3.32422 1111.39C8.10955 1111.32 12.8968 1111.26 17.6889 1111.19ZM1760.26 1067.32C1760.54 1049.93 1760.54 1033.91 1760.52 1012.48C1760.11 1031.77 1760.06 1019.09 1759.96 1012.59C1759.81 1002.72 1759.82 1026.62 1759.79 1026.69C1759.4 1026.25 1759.34 1011.01 1759.35 1045.71C1759.21 1037.13 1759.07 1028.66 1758.94 1020.09C1758.92 1046.54 1758.67 1052.77 1758.35 1069.55C1759.12 1053.26 1758.64 1074.71 1759.02 1094.17C1759.21 1103.88 1760.11 1076.16 1760.26 1067.25C1760.26 1067.27 1760.26 1067.29 1760.26 1067.32ZM1054.92 1113.69C1059.95 1113.55 1064.55 1113.37 1069.42 1113.21C1074.72 1113.2 1080.03 1113.18 1085.33 1113.17C1085.99 1113.29 1086.54 1113.42 1087.3 1113.53C1094.29 1113.57 1091.57 1113.4 1093.64 1113.38C1093.64 1113.38 1093.64 1113.38 1093.64 1113.38C1123.43 1113.16 1135.62 1113.19 1158.96 1113.56C1158.96 1113.19 1158.96 1112.82 1158.96 1112.45C1153.71 1112.48 1148.41 1112.52 1143.17 1112.55C1140.38 1112.75 1137.58 1112.95 1134.79 1113.15C1128.73 1113.04 1122.71 1112.93 1116.65 1112.82C1111.78 1112.89 1105.94 1112.97 1101.73 1113.04C1077.52 1112 1132.55 1112.7 1133.04 1112.27C1133.37 1112 1077.94 1112.01 1069.96 1112.2C1068.81 1112.23 1080.79 1113 1060.52 1112.6C1057.35 1112.53 1056.23 1110.86 1034.36 1112.22C1031.25 1112.41 1042.13 1113.45 1054.92 1113.69ZM1256.17 1114.23C1225.01 1113.16 1340.02 1114.29 1290.39 1113.41C1304.55 1112.92 1301.92 1112.92 1287.66 1112.49C1286.4 1112.45 1296.26 1112.31 1295.42 1112.3C1282.08 1112.06 1266.01 1112.18 1265.9 1111.75C1262.3 1111.77 1258.9 1111.79 1255.3 1111.81C1270.32 1112.23 1246.43 1112.5 1237.19 1112.85C1232.98 1113.01 1242.66 1113.06 1239.12 1113.2C1237.8 1113.25 1224.3 1113.14 1223.74 1113.29C1222.6 1113.62 1231.08 1114.06 1245.46 1114.3C1245.46 1114.3 1245.46 1114.3 1245.46 1114.3C1249.06 1114.28 1252.57 1114.25 1256.17 1114.23ZM590.181 1113.34C584.878 1112.75 563.622 1112.58 604.459 1112.29C602.439 1112.17 600.358 1112.06 598.337 1111.94C591.45 1111.95 584.779 1111.96 577.783 1111.97C556.791 1113.71 518.475 1111.75 543.016 1112.98C545.695 1113.12 562.03 1112.97 545.903 1113.33C545.925 1113.33 545.946 1113.33 545.968 1113.33C568.485 1113.22 571.322 1113.01 590.181 1113.34ZM740.902 1112.93C792.838 1111.68 669.137 1112.23 689.802 1112.56C691.661 1112.59 744.948 1112.33 740.902 1112.93ZM324.161 1114.01C347.443 1114.03 348.987 1113.36 346.639 1113.12C344.288 1112.88 328.165 1113.12 326.085 1113.08C319.306 1112.96 333.684 1112.87 324.882 1112.7C321.968 1112.65 281.413 1112.41 279.554 1112.43C269.237 1112.6 284.321 1113.15 281.369 1113.21C271.749 1113.42 258.686 1113.13 255.896 1113.43C249.884 1114.06 274.239 1113.4 278.352 1113.39C290.762 1113.36 289.678 1113.71 298.971 1113.78C308.258 1113.85 314.327 1113.73 322.521 1113.76C325.247 1113.76 322.98 1114.01 324.161 1114.01ZM401.151 1112.59C376.832 1113.1 436.044 1113.65 443.067 1113.54C463.733 1113.18 412.795 1112.35 401.151 1112.59ZM1178.15 1112.61C1155.91 1112.98 1207.73 1113.28 1222.54 1113.13C1219.79 1112.98 1185.81 1112.49 1178.15 1112.61ZM990.851 1113.54C1011.3 1113.42 984.183 1112.59 967.127 1112.6C957.128 1113.15 966.537 1113.04 977.688 1113.06C988.826 1113.09 974.9 1113.62 990.851 1113.54ZM71.6101 1113.4C76.0216 1113.41 147.117 1112.96 106.267 1112.77C103.151 1112.76 53.3852 1112.84 49.6131 1112.92C42.0233 1113.09 60.2408 1113.38 71.6101 1113.4ZM892.783 1114.34C903.606 1113.87 914.255 1113.88 904.306 1113.32C904.292 1113.32 904.277 1113.32 904.262 1113.32C931.649 1113.15 932.863 1114.29 938.767 1114.26C959.417 1114.18 939.852 1113.37 952.805 1113.1C922.684 1113.35 931.322 1112.81 908.417 1112.77C903.278 1112.77 882.714 1113.09 879.707 1113.29C876.706 1113.5 887.207 1114.1 892.783 1114.34ZM2.33954 1080.39C2.15865 1104.39 2.92376 1126.36 3.04511 1093.08C3.10483 1076.84 2.44965 1065.74 2.33954 1080.39ZM1760.5 501.864C1760.3 505.527 1760.1 509.299 1759.9 513.235C1759.85 504.382 1759.8 495.521 1759.75 486.668C1759.82 493.665 1759.88 500.672 1759.94 507.725C1760.01 491.105 1760.38 483.507 1760.5 501.821C1760.5 501.835 1760.5 501.85 1760.5 501.864ZM1666.98 1.20819C1659.55 1.01501 1644.9 1.61319 1646.76 1.65985C1660.75 2.00756 1677.3 1.47603 1666.98 1.20819ZM1211.02 1114.43C1238.66 1114.51 1219.65 1113.54 1202.71 1113.48C1213.07 1113.66 1195.33 1114.38 1211.02 1114.43ZM1760.61 118.272C1760.52 120.753 1760.44 123.254 1760.35 126.034C1760.47 117.291 1760.55 115.776 1760.61 118.272ZM82.9148 1114.26C87.1351 1114.34 118.342 1114.4 122.558 1114.31C131.304 1114.11 106.968 1113.58 92.645 1113.74C91.06 1113.76 78.7162 1114.19 82.9803 1114.26C82.9586 1114.26 82.9364 1114.26 82.9148 1114.26ZM1760.87 464.474C1760.86 464.523 1760.85 464.496 1760.85 464.408C1760.86 464.44 1760.86 464.431 1760.87 464.474ZM1045.77 0.000175238C1045.94 0.0152626 1046.03 0.0302365 1046.01 0.0446091C1045.95 0.0304964 1045.82 0.0156484 1045.77 0.000175238ZM303.017 1115.09C313.404 1116.02 337.347 1115.52 318.432 1115.06C317.373 1115.04 305.535 1115.09 303.017 1115.09Z" fill="#424242"/>
<defs>
<linearGradient id="paint0_linear_3827_1312" x1="881.324" y1="2.53711" x2="881.324" y2="1112.54" gradientUnits="userSpaceOnUse">
<stop stop-color="#D3D3D2"/>
<stop offset="1" stop-color="#D7B99E"/>
</linearGradient>
<clipPath id="clip0_3827_1312">
<path d="M3.32422 2.53711H1759.32V1112.54H3.32422V2.53711Z" fill="white"/>
</clipPath>
</defs>
</svg>
