<svg width="1519" height="214" viewBox="0 0 1519 214" fill="none" xmlns="http://www.w3.org/2000/svg">
<path d="M96.8857 94.627C123.324 94.627 147.165 101.344 164.332 112.097C181.527 122.867 191.771 137.492 191.771 153.313C191.771 169.135 181.527 183.76 164.332 194.53C147.165 205.283 123.324 212 96.8857 212C70.4472 212 46.6059 205.284 29.4385 194.53C12.2436 183.76 2 169.135 2 153.313C2.00002 137.492 12.2436 122.867 29.4385 112.097C46.6059 101.343 70.4472 94.627 96.8857 94.627Z" fill="#C8C8C8" stroke="#313131" stroke-width="4"/>
<path d="M96.8838 106.338C116.27 106.338 133.727 111.21 146.271 118.98C158.846 126.769 166.218 137.268 166.218 148.522C166.218 159.776 158.847 170.276 146.271 178.065C133.727 185.835 116.27 190.707 96.8838 190.707C77.4973 190.706 60.0417 185.835 47.4971 178.065C34.9218 170.276 27.5508 159.776 27.5508 148.522C27.551 137.268 34.922 126.769 47.4971 118.98C60.0417 111.21 77.4973 106.338 96.8838 106.338Z" fill="#C8C8C8" stroke="#313131" stroke-width="4"/>
<mask id="path-3-inside-1_3843_513" fill="white">
<path d="M25.5508 41.5225H168.217V149.055H25.5508V41.5225Z"/>
</mask>
<path d="M25.5508 41.5225H168.217V149.055H25.5508V41.5225Z" fill="#C8C8C8"/>
<path d="M168.217 41.5225H164.217V149.055H168.217H172.217V41.5225H168.217ZM25.5508 149.055H29.5508V41.5225H25.5508H21.5508V149.055H25.5508Z" fill="#313131" mask="url(#path-3-inside-1_3843_513)"/>
<path d="M96.8838 2C116.292 2 133.766 6.58298 146.318 13.8896C158.921 21.2254 166.218 31.0652 166.218 41.5225C166.218 51.9797 158.921 61.8186 146.318 69.1543C133.766 76.461 116.292 81.0449 96.8838 81.0449C77.4755 81.0449 60.0027 76.461 47.4502 69.1543C34.8478 61.8186 27.5508 51.9797 27.5508 41.5225C27.5508 31.0652 34.8478 21.2254 47.4502 13.8896C60.0027 6.5831 77.4757 2.00005 96.8838 2Z" fill="#C8C8C8" stroke="#313131" stroke-width="4"/>
<path d="M361.886 94.627C388.324 94.627 412.165 101.344 429.332 112.097C446.527 122.867 456.771 137.492 456.771 153.313C456.771 169.135 446.527 183.76 429.332 194.53C412.165 205.283 388.324 212 361.886 212C335.447 212 311.606 205.284 294.438 194.53C277.244 183.76 267 169.135 267 153.313C267 137.492 277.244 122.867 294.438 112.097C311.606 101.343 335.447 94.627 361.886 94.627Z" fill="#C8C8C8" stroke="#313131" stroke-width="4"/>
<path d="M361.884 106.338C381.27 106.338 398.727 111.209 411.271 118.979C423.846 126.769 431.218 137.268 431.218 148.521C431.218 159.775 423.847 170.275 411.271 178.064C398.727 185.835 381.27 190.706 361.884 190.706C342.497 190.706 325.042 185.835 312.497 178.064C299.922 170.275 292.551 159.775 292.551 148.521C292.551 137.268 299.922 126.769 312.497 118.979C325.042 111.209 342.497 106.338 361.884 106.338Z" fill="#C8C8C8" stroke="#313131" stroke-width="4"/>
<mask id="path-8-inside-2_3843_513" fill="white">
<path d="M290.551 41.5225H433.217V149.055H290.551V41.5225Z"/>
</mask>
<path d="M290.551 41.5225H433.217V149.055H290.551V41.5225Z" fill="#C8C8C8"/>
<path d="M433.217 41.5225H429.217V149.055H433.217H437.217V41.5225H433.217ZM290.551 149.055H294.551V41.5225H290.551H286.551V149.055H290.551Z" fill="#313131" mask="url(#path-8-inside-2_3843_513)"/>
<path d="M361.884 2C381.292 2 398.766 6.58298 411.318 13.8896C423.921 21.2254 431.218 31.0652 431.218 41.5225C431.218 51.9797 423.921 61.8186 411.318 69.1543C398.766 76.461 381.292 81.0449 361.884 81.0449C342.476 81.0449 325.003 76.461 312.45 69.1543C299.848 61.8186 292.551 51.9797 292.551 41.5225C292.551 31.0652 299.848 21.2254 312.45 13.8896C325.003 6.5831 342.476 2.00005 361.884 2Z" fill="#C8C8C8" stroke="#313131" stroke-width="4"/>
<ellipse cx="361.5" cy="152" rx="67.5" ry="37" fill="#9C6868"/>
<path d="M626.886 94.627C653.324 94.627 677.165 101.344 694.332 112.097C711.527 122.867 721.771 137.492 721.771 153.313C721.771 169.135 711.527 183.76 694.332 194.53C677.165 205.283 653.324 212 626.886 212C600.447 212 576.606 205.284 559.438 194.53C542.244 183.76 532 169.135 532 153.313C532 137.492 542.244 122.867 559.438 112.097C576.606 101.343 600.447 94.627 626.886 94.627Z" fill="#C8C8C8" stroke="#313131" stroke-width="4"/>
<path d="M626.884 106.338C646.27 106.338 663.727 111.209 676.271 118.979C688.846 126.769 696.218 137.268 696.218 148.521C696.218 159.775 688.847 170.275 676.271 178.064C663.727 185.835 646.27 190.706 626.884 190.706C607.497 190.706 590.042 185.835 577.497 178.064C564.922 170.275 557.551 159.775 557.551 148.521C557.551 137.268 564.922 126.769 577.497 118.979C590.042 111.209 607.497 106.338 626.884 106.338Z" fill="#C8C8C8" stroke="#313131" stroke-width="4"/>
<mask id="path-14-inside-3_3843_513" fill="white">
<path d="M555.551 41.5225H698.217V149.055H555.551V41.5225Z"/>
</mask>
<path d="M555.551 41.5225H698.217V149.055H555.551V41.5225Z" fill="#C8C8C8"/>
<path d="M698.217 41.5225H694.217V149.055H698.217H702.217V41.5225H698.217ZM555.551 149.055H559.551V41.5225H555.551H551.551V149.055H555.551Z" fill="#313131" mask="url(#path-14-inside-3_3843_513)"/>
<path d="M559 127H695V155H559V127Z" fill="#9C6868"/>
<path d="M626.884 2C646.292 2 663.766 6.58298 676.318 13.8896C688.921 21.2254 696.218 31.0652 696.218 41.5225C696.218 51.9797 688.921 61.8186 676.318 69.1543C663.766 76.461 646.292 81.0449 626.884 81.0449C607.476 81.0449 590.003 76.461 577.45 69.1543C564.848 61.8186 557.551 51.9797 557.551 41.5225C557.551 31.0652 564.848 21.2254 577.45 13.8896C590.003 6.5831 607.476 2.00005 626.884 2Z" fill="#C8C8C8" stroke="#313131" stroke-width="4"/>
<ellipse cx="627" cy="153" rx="68" ry="37" fill="#9C6868"/>
<ellipse cx="627" cy="129" rx="68" ry="37" fill="#9C6868"/>
<path d="M891.886 94.627C918.324 94.627 942.165 101.344 959.332 112.097C976.527 122.867 986.771 137.492 986.771 153.313C986.771 169.135 976.527 183.76 959.332 194.53C942.165 205.283 918.324 212 891.886 212C865.447 212 841.606 205.284 824.438 194.53C807.244 183.76 797 169.135 797 153.313C797 137.492 807.244 122.867 824.438 112.097C841.606 101.343 865.447 94.627 891.886 94.627Z" fill="#C8C8C8" stroke="#313131" stroke-width="4"/>
<path d="M891.884 106.338C911.27 106.338 928.727 111.209 941.271 118.979C953.846 126.769 961.218 137.268 961.218 148.521C961.218 159.775 953.847 170.275 941.271 178.064C928.727 185.835 911.27 190.706 891.884 190.706C872.497 190.706 855.042 185.835 842.497 178.064C829.922 170.275 822.551 159.775 822.551 148.521C822.551 137.268 829.922 126.769 842.497 118.979C855.042 111.209 872.497 106.338 891.884 106.338Z" fill="#C8C8C8" stroke="#313131" stroke-width="4"/>
<mask id="path-22-inside-4_3843_513" fill="white">
<path d="M820.551 41.5225H963.217V149.055H820.551V41.5225Z"/>
</mask>
<path d="M820.551 41.5225H963.217V149.055H820.551V41.5225Z" fill="#C8C8C8"/>
<path d="M963.217 41.5225H959.217V149.055H963.217H967.217V41.5225H963.217ZM820.551 149.055H824.551V41.5225H820.551H816.551V149.055H820.551Z" fill="#313131" mask="url(#path-22-inside-4_3843_513)"/>
<path d="M824 106H960V155H824V106Z" fill="#9C6868"/>
<path d="M891.884 2C911.292 2 928.766 6.58298 941.318 13.8896C953.921 21.2254 961.218 31.0652 961.218 41.5225C961.218 51.9797 953.921 61.8186 941.318 69.1543C928.766 76.461 911.292 81.0449 891.884 81.0449C872.476 81.0449 855.003 76.461 842.45 69.1543C829.848 61.8186 822.551 51.9797 822.551 41.5225C822.551 31.0652 829.848 21.2254 842.45 13.8896C855.003 6.5831 872.476 2.00005 891.884 2Z" fill="#C8C8C8" stroke="#313131" stroke-width="4"/>
<ellipse cx="892" cy="153" rx="68" ry="37" fill="#9C6868"/>
<ellipse cx="892" cy="105" rx="68" ry="37" fill="#9C6868"/>
<path d="M891.333 2C910.741 2 928.215 6.58298 940.768 13.8896C953.37 21.2254 960.667 31.0652 960.667 41.5225C960.667 51.9797 953.37 61.8186 940.768 69.1543C928.215 76.461 910.741 81.0449 891.333 81.0449C871.925 81.0449 854.452 76.461 841.899 69.1543C829.297 61.8186 822 51.9797 822 41.5225C822 31.0652 829.297 21.2254 841.899 13.8896C854.452 6.5831 871.925 2.00005 891.333 2Z" stroke="#313131" stroke-width="4"/>
<path d="M1156.89 94.627C1183.32 94.627 1207.16 101.344 1224.33 112.097C1241.53 122.867 1251.77 137.492 1251.77 153.313C1251.77 169.135 1241.53 183.76 1224.33 194.53C1207.16 205.283 1183.32 212 1156.89 212C1130.45 212 1106.61 205.284 1089.44 194.53C1072.24 183.76 1062 169.135 1062 153.313C1062 137.492 1072.24 122.867 1089.44 112.097C1106.61 101.343 1130.45 94.627 1156.89 94.627Z" fill="#C8C8C8" stroke="#313131" stroke-width="4"/>
<path d="M1156.88 106.338C1176.27 106.338 1193.73 111.209 1206.27 118.979C1218.85 126.769 1226.22 137.268 1226.22 148.521C1226.22 159.775 1218.85 170.275 1206.27 178.064C1193.73 185.835 1176.27 190.706 1156.88 190.706C1137.5 190.706 1120.04 185.835 1107.5 178.064C1094.92 170.275 1087.55 159.775 1087.55 148.521C1087.55 137.268 1094.92 126.769 1107.5 118.979C1120.04 111.209 1137.5 106.338 1156.88 106.338Z" fill="#C8C8C8" stroke="#313131" stroke-width="4"/>
<mask id="path-31-inside-5_3843_513" fill="white">
<path d="M1085.55 41.5225H1228.22V149.055H1085.55V41.5225Z"/>
</mask>
<path d="M1085.55 41.5225H1228.22V149.055H1085.55V41.5225Z" fill="#C8C8C8"/>
<path d="M1228.22 41.5225H1224.22V149.055H1228.22H1232.22V41.5225H1228.22ZM1085.55 149.055H1089.55V41.5225H1085.55H1081.55V149.055H1085.55Z" fill="#313131" mask="url(#path-31-inside-5_3843_513)"/>
<path d="M1089 83H1225V155H1089V83Z" fill="#9C6868"/>
<path d="M1156.88 2C1176.29 2 1193.77 6.58298 1206.32 13.8896C1218.92 21.2254 1226.22 31.0652 1226.22 41.5225C1226.22 51.9797 1218.92 61.8186 1206.32 69.1543C1193.77 76.461 1176.29 81.0449 1156.88 81.0449C1137.48 81.0449 1120 76.461 1107.45 69.1543C1094.85 61.8186 1087.55 51.9797 1087.55 41.5225C1087.55 31.0652 1094.85 21.2254 1107.45 13.8896C1120 6.5831 1137.48 2.00005 1156.88 2Z" fill="#C8C8C8" stroke="#313131" stroke-width="4"/>
<ellipse cx="1157" cy="153" rx="68" ry="37" fill="#9C6868"/>
<ellipse cx="1157" cy="83" rx="68" ry="37" fill="#9C6868"/>
<path d="M1156.33 2C1175.74 2 1193.22 6.58298 1205.77 13.8896C1218.37 21.2254 1225.67 31.0652 1225.67 41.5225C1225.67 51.9797 1218.37 61.8186 1205.77 69.1543C1193.22 76.461 1175.74 81.0449 1156.33 81.0449C1136.92 81.0449 1119.45 76.461 1106.9 69.1543C1094.3 61.8186 1087 51.9797 1087 41.5225C1087 31.0652 1094.3 21.2254 1106.9 13.8896C1119.45 6.5831 1136.92 2.00005 1156.33 2Z" stroke="#313131" stroke-width="4"/>
<path d="M1421.89 94.627C1448.32 94.627 1472.16 101.344 1489.33 112.097C1506.53 122.867 1516.77 137.492 1516.77 153.313C1516.77 169.135 1506.53 183.76 1489.33 194.53C1472.16 205.283 1448.32 212 1421.89 212C1395.45 212 1371.61 205.284 1354.44 194.53C1337.24 183.76 1327 169.135 1327 153.313C1327 137.492 1337.24 122.867 1354.44 112.097C1371.61 101.343 1395.45 94.627 1421.89 94.627Z" fill="#C8C8C8" stroke="#313131" stroke-width="4"/>
<path d="M1421.88 106.338C1441.27 106.338 1458.73 111.209 1471.27 118.979C1483.85 126.769 1491.22 137.268 1491.22 148.521C1491.22 159.775 1483.85 170.275 1471.27 178.064C1458.73 185.835 1441.27 190.706 1421.88 190.706C1402.5 190.706 1385.04 185.835 1372.5 178.064C1359.92 170.275 1352.55 159.775 1352.55 148.521C1352.55 137.268 1359.92 126.769 1372.5 118.979C1385.04 111.209 1402.5 106.338 1421.88 106.338Z" fill="#C8C8C8" stroke="#313131" stroke-width="4"/>
<mask id="path-40-inside-6_3843_513" fill="white">
<path d="M1350.55 41.5225H1493.22V149.055H1350.55V41.5225Z"/>
</mask>
<path d="M1350.55 41.5225H1493.22V149.055H1350.55V41.5225Z" fill="#C8C8C8"/>
<path d="M1493.22 41.5225H1489.22V149.055H1493.22H1497.22V41.5225H1493.22ZM1350.55 149.055H1354.55V41.5225H1350.55H1346.55V149.055H1350.55Z" fill="#313131" mask="url(#path-40-inside-6_3843_513)"/>
<path d="M1354 63H1490V155H1354V63Z" fill="#9C6868"/>
<path d="M1421.88 2C1441.29 2 1458.77 6.58298 1471.32 13.8896C1483.92 21.2254 1491.22 31.0652 1491.22 41.5225C1491.22 51.9797 1483.92 61.8186 1471.32 69.1543C1458.77 76.461 1441.29 81.0449 1421.88 81.0449C1402.48 81.0449 1385 76.461 1372.45 69.1543C1359.85 61.8186 1352.55 51.9797 1352.55 41.5225C1352.55 31.0652 1359.85 21.2254 1372.45 13.8896C1385 6.5831 1402.48 2.00005 1421.88 2Z" fill="#C8C8C8" stroke="#313131" stroke-width="4"/>
<ellipse cx="1422" cy="153" rx="68" ry="37" fill="#9C6868"/>
<ellipse cx="1422" cy="61" rx="68" ry="37" fill="#9C6868"/>
<path d="M1421.33 2C1440.74 2 1458.22 6.58298 1470.77 13.8896C1483.37 21.2254 1490.67 31.0652 1490.67 41.5225C1490.67 51.9797 1483.37 61.8186 1470.77 69.1543C1458.22 76.461 1440.74 81.0449 1421.33 81.0449C1401.92 81.0449 1384.45 76.461 1371.9 69.1543C1359.3 61.8186 1352 51.9797 1352 41.5225C1352 31.0652 1359.3 21.2254 1371.9 13.8896C1384.45 6.5831 1401.92 2.00005 1421.33 2Z" stroke="#313131" stroke-width="4"/>
</svg>
