<svg width="162" height="179" viewBox="0 0 162 179" fill="none" xmlns="http://www.w3.org/2000/svg">
<path d="M80.791 78.9082C102.838 78.9082 122.719 84.5087 137.034 93.4756C151.373 102.457 159.915 114.652 159.915 127.846C159.915 141.039 151.373 153.234 137.034 162.216C122.718 171.183 102.838 176.784 80.791 176.784C58.7445 176.784 38.8644 171.183 24.5488 162.216C10.2101 153.234 1.66797 141.039 1.66797 127.846C1.66803 114.652 10.2102 102.457 24.5488 93.4756C38.8644 84.5088 58.7446 78.9083 80.791 78.9082Z" fill="#C8C8C8" stroke="#313131" stroke-width="3.33554"/>
<path d="M80.7881 88.6738C96.9542 88.6738 111.511 92.7354 121.972 99.2148C132.458 105.71 138.604 114.466 138.604 123.851C138.604 133.235 132.458 141.99 121.972 148.485C111.511 154.965 96.9543 159.027 80.7881 159.027C64.6221 159.027 50.0662 154.965 39.6055 148.485C29.1193 141.99 22.9728 133.235 22.9727 123.851C22.9727 114.466 29.1192 105.71 39.6055 99.2148C50.0662 92.7355 64.6222 88.6739 80.7881 88.6738Z" fill="#2D4262" stroke="#313131" stroke-width="3.33554"/>
<mask id="path-3-inside-1_3864_873" fill="white">
<path d="M21.3047 34.625H140.272V124.295H21.3047V34.625Z"/>
</mask>
<path d="M21.3047 34.625H140.272V124.295H21.3047V34.625Z" fill="#2D4262"/>
<path d="M140.272 34.625H136.937V124.295H140.272H143.608V34.625H140.272ZM21.3047 124.295H24.6402V34.625H21.3047H17.9691V124.295H21.3047Z" fill="#313131" mask="url(#path-3-inside-1_3864_873)"/>
<path d="M80.7881 1.66797C96.9725 1.66797 111.543 5.49005 122.011 11.583C132.52 17.7002 138.604 25.9048 138.604 34.625C138.604 43.3451 132.52 51.5499 122.011 57.667C111.543 63.7599 96.9724 67.582 80.7881 67.582C64.604 67.582 50.0337 63.7598 39.5664 57.667C29.0575 51.5499 22.9727 43.3451 22.9727 34.625C22.9727 25.9048 29.0575 17.7002 39.5664 11.583C50.0337 5.49014 64.6039 1.66803 80.7881 1.66797Z" fill="#C8C8C8" stroke="#313131" stroke-width="3.33554"/>
<ellipse cx="80.5" cy="39" rx="53.5" ry="27" fill="#2D4262"/>
</svg>
