<svg width="683" height="1128" viewBox="0 0 683 1128" fill="none" xmlns="http://www.w3.org/2000/svg">
<path d="M2 1.26855H681V1125.27H2V1.26855Z" fill="#A4AFB9"/>
<path d="M257.845 1127.24C175.352 1127.24 88.4447 1127.26 2 1127.27L0.00277603 1127.27L0.000555634 1125.27C-0.00237823 1058.51 0.0056411 992.028 0.0406123 928.066C0.0504177 910.047 0.184748 911.278 0.202478 906.222C0.251402 892.401 0.0929495 884.08 0.104577 874.006C0.160567 825.034 0.183362 779.223 0.234217 731.179C0.286476 681.689 0.704032 705.1 0.805752 687.904C1.00496 654.305 0.460469 682.884 0.338221 669.677C0.370882 631.16 0.429867 592.301 0.489589 553.716C0.540427 563.135 0.590186 572.557 0.637294 582.08C0.648498 565.263 0.732541 541.193 0.874844 569.356C0.914039 563.131 0.959874 557.32 0.998135 550.923C0.799849 549.169 0.783899 519.393 0.666347 516.671C0.548763 513.954 0.575782 530.695 0.565517 530.592C0.419062 529.482 0.619255 460.809 0.635585 455.857C0.679036 442.764 0.924853 454.243 0.909024 443.105C0.881961 423.949 0.38181 436.711 1.04672 410.779C0.830717 400.463 0.942892 399.563 0.957852 386.5C0.959719 384.78 0.834653 386.115 0.831387 385.358C0.73856 365.586 0.971133 380.785 0.983731 380.681C1.19775 378.886 1.10261 357.667 1.12314 353.197C1.37882 297.107 1.55192 256.008 1.61117 196.821C1.62377 184.027 1.53694 145.059 1.57333 132.678C1.60925 120.467 1.76345 127.019 1.83749 120.628C1.46653 110.384 1.42562 100.611 1.67001 77.6133C1.39941 69.0505 1.61769 70.1515 1.56357 53.747C1.51873 40.0926 1.19412 16.2968 1.47079 1.26855C1.4456 18.4987 1.57853 16.715 1.65878 36.112C1.68536 42.569 1.69104 109.902 1.96762 104.891C2.11179 102.278 1.97938 79.9613 2.00595 79.0989C2.16086 74.0778 2.35124 86.5332 2.28452 97.573C2.25325 94.8216 2.22154 91.507 2.19028 88.5492C1.99664 113.346 2.74035 96.2935 2.09042 115.139C2.0107 117.47 1.92758 116.566 1.84287 120.408C1.8779 121.197 1.96476 116.498 1.98032 120.545C1.996 124.674 1.83108 132.513 1.97006 133.682C2.17217 135.429 2.09252 118.324 2.10434 117.037C2.10312 117.024 2.1019 117.01 2.10068 116.996C2.20798 105.616 2.22022 129.383 2.23935 130.518C2.36528 137.87 2.46224 132.857 2.56626 143.889C2.62552 150.183 2.59058 166.214 2.60971 172.13C2.62932 178.007 2.72493 168.863 2.74546 172.817C2.76598 176.772 2.69334 181.696 2.71714 186.339C2.72763 188.326 2.83426 188.225 2.83799 189.187C2.87902 199.502 2.65722 192.735 2.67075 202.09C2.67974 208.15 2.8865 228.489 2.94809 214.47C2.96955 221.209 2.98526 227.78 3.00205 234.485C3.03377 230.256 3.05532 225.886 3.09263 221.76C3.04184 234.377 3.22431 240.085 3.23789 247.993C3.25142 255.903 3.03245 262.993 3.13926 271.694C3.36649 290.266 3.2615 244.279 3.3021 238.57C3.31806 236.345 3.48958 244.888 3.49448 246.205C3.51594 252.049 3.39328 258.963 3.39878 263.468C3.41931 279.597 3.58119 289.474 3.61387 304.846C3.72492 357.19 3.81498 422.124 3.85044 471.717C3.86351 490.186 3.68149 501.298 3.68662 509.587C3.69877 528.979 3.85739 531.354 3.86582 548.268C3.87889 573.443 3.74041 608.909 3.71055 629.923C3.69002 644.47 3.84352 657.64 3.84727 661.424C3.90233 714.009 3.89887 777.98 3.90073 821.555C3.90166 842.049 3.72917 851.782 3.73423 856.013C3.75569 874.205 3.90317 869.327 3.88828 884.075C3.88036 892.042 3.73878 893.533 3.73325 894.598C3.68659 903.987 3.87147 905.857 3.87754 913.183C3.91252 955.31 3.79152 995.89 3.77378 1037.6C3.77238 1040.63 3.69048 1040.36 3.69468 1042.32C3.71478 1050.74 3.84376 1046.83 3.85313 1055.62C3.87319 1073.92 3.85188 1092.71 3.83555 1112.11C3.83394 1114.03 3.72866 1114.89 3.72861 1119.29C3.72861 1121.35 3.75066 1123.19 3.77346 1125.27L2 1123.5C4.34563 1123.47 7.0045 1123.44 10.6673 1123.45C28.7231 1123.46 46.5412 1123.58 65.663 1123.59C68.8269 1123.59 72.7472 1123.46 77.493 1123.46C92.3847 1123.47 114.433 1123.58 127.193 1123.59C169.288 1123.6 208.123 1123.53 247.776 1123.53C257.094 1123.53 265.35 1123.64 270.198 1123.65C281.127 1123.65 272.881 1123.54 283.954 1123.54C374.404 1123.54 465.202 1123.59 556.718 1123.58C592.657 1123.58 636.404 1123.46 671.139 1123.49C675.226 1123.5 678.366 1123.51 681 1123.53L679.262 1125.27C679.312 1118.6 679.391 1115.18 679.392 1107.85C679.394 1089.63 679.197 1086.33 679.178 1067.11C679.162 1051.77 679.359 1034.19 679.347 1018.23C679.334 1002.27 679.144 994.911 679.121 976.58C679.102 961.482 679.189 940.402 679.175 923.964C679.046 773.329 678.968 624.998 679.117 473.434C679.17 419.954 679.142 360.62 679.33 305.352C679.347 300.161 679.532 308.101 679.493 291.458C679.472 282.517 679.313 270.033 679.305 249.366C679.275 168.841 679.41 84.7988 679.488 1.26855L681 2.78047C637.061 2.73943 593.263 2.71424 550.193 2.7374C363.033 2.83866 169.065 4.15011 6.42592 2.23105C-1.55175 2.13681 2.77432 1.675 7.55389 1.54379C11.9894 1.63756 16.0902 1.74893 20.732 1.85483C26.5772 1.27779 25.5465 1.42804 47.2119 1.47983C60.5504 1.51199 49.896 1.26521 57.006 1.19516C66.2231 1.10464 109.499 0.819604 101.176 1.20175C103.858 1.1355 106.334 1.07203 108.948 1.00717C140.278 0.949312 170.717 0.853634 201.36 0.743987C206.653 0.72482 206.897 0.60491 212.364 0.585783C227.048 0.533544 238.707 0.612317 253.838 0.600188C262.058 0.593655 263.198 0.455091 273.963 0.463957C284.721 0.472877 284.485 0.65993 299.163 0.456632C289.602 0.221935 332.251 0.392232 347.419 0.377775C349.62 0.375908 367.673 0.165062 377.269 0.189297C386.897 0.213091 401.514 0.347785 416.404 0.271329C423.385 0.235401 427.622 0.0711961 435.153 0.0618554C440.449 0.0553234 446.811 0.20128 453.517 0.207364C460.221 0.213427 474.726 0.0936147 477.384 0.0916407C486.977 0.08371 476.394 0.186326 482.955 0.191495C514.629 0.214824 551.43 0.269816 582.657 0.200772C586.496 0.192401 581.184 0.0715001 581.694 0.0674707C607.757 -0.0808707 593.846 0.0766532 600.883 0.184903C607.701 0.289576 657.588 0.232478 657.956 0.0223045C659.489 0.285491 670.579 0.0844733 673.459 0.076748C677.068 0.0671428 679.287 0.084234 681 0.109476L682.158 0.108192L682.159 1.26855C682.106 4.87567 682.017 6.23708 682.064 13.6047C682.09 17.5923 682.244 9.82829 682.239 14.1137C682.228 24.7059 681.981 34.2383 681.956 48.3381C681.95 51.7429 682.06 52.8495 682.057 58.9026C682.053 64.9626 681.918 90.3644 682.15 78.6422C681.964 94.0482 682.066 97.15 682.061 115.068C682.06 119.606 681.882 125.45 681.937 135.11C681.956 138.377 682.127 138.28 682.128 143.198C682.132 154.443 681.955 165.036 681.948 179.307C681.934 205.995 682.059 234.404 682.015 262.227C682.002 269.789 681.83 267.902 681.827 278.899C681.827 280.516 681.976 293.762 681.962 301.363C681.953 305.937 681.849 329.637 681.841 334.418C681.827 342.322 681.993 343.734 681.961 348.063C681.867 360.582 681.622 350.539 681.957 365.602C681.771 370.555 681.79 379.358 681.561 382.178C681.812 387.302 681.571 393.947 681.655 403.885C681.739 413.824 682.224 421.973 681.702 424.381C681.766 429.024 681.874 448.804 681.882 452.14C681.904 461.972 681.76 456.715 681.779 464.135C681.783 465.442 681.881 464.073 681.872 472.457C681.865 477.96 681.859 518.278 681.846 520.685C681.691 548.154 681.748 505.717 681.641 499.776C681.669 498.728 681.697 497.69 681.725 496.571C681.771 484.433 681.548 491.344 681.497 496.846C681.445 502.349 681.544 512.631 681.471 517.205C681.434 519.484 681.167 518.072 681.199 511.18C681.117 518.555 681.029 508.483 680.952 511.4C680.867 514.606 680.841 547.746 680.988 547.922C680.994 541.732 680.988 534.028 680.995 527.769C681.251 519.584 682.126 544.447 681.776 567.249C681.523 583.788 681.322 556.522 681.534 595.654C681.545 589.637 681.569 584.546 681.579 579.079C681.771 578.496 681.56 587.367 681.621 591.94C681.651 594.137 681.787 580.597 681.832 592.353C681.558 602.463 681.834 610.243 681.837 627.196C681.788 622.485 681.74 617.767 681.691 613.055C681.491 641.703 681.426 575.163 681.314 630.869C681.305 624.166 681.308 617.496 681.294 610.758C681.193 614.024 680.897 608.798 680.835 611.721C680.671 619.389 680.77 630.734 680.755 640.086C680.749 644.178 680.669 641.64 680.669 641.984C680.66 647.589 680.777 646.351 680.785 651.269C680.794 657.458 680.68 675.332 680.693 678.23C680.726 685.728 680.957 673.244 680.974 673.966C681.086 678.746 680.994 688.51 681.14 687.997C681.039 664.505 681.169 596.801 681.411 658.051C681.647 641.164 681.974 646.041 681.999 670.321C682.021 690.406 681.89 677.446 681.746 687.901C681.728 689.252 681.66 716.153 681.761 717.531C681.527 716.453 681.32 725.207 681.078 719.333C681.043 718.473 681.057 707.434 680.863 711.286C680.765 713.211 680.553 718.738 680.429 717.847C680.515 720.117 680.612 722.49 680.703 724.794C680.728 741.337 680.635 743.687 680.474 752.732C680.541 752.319 680.823 743.962 680.737 756.652C680.732 757.304 680.631 757.867 680.581 764.314C680.48 777.347 680.449 780.068 680.151 770.064C680.321 797.055 679.989 802.87 680.086 830.549C680.469 825.046 680.374 815.315 680.3 789.969C680.391 788.869 680.481 788.352 680.573 787.218C680.367 820.953 680.388 804.283 680.573 823.396C680.618 828.073 680.57 853.012 680.827 844.69C680.888 842.725 680.881 827.231 680.976 829.008C680.994 829.352 681.041 848.188 681.016 849.848C680.711 870.689 680.499 833.446 680.61 890.84C680.613 892.421 680.725 892.977 680.74 896.068C680.769 901.878 680.64 901.951 680.67 907.141C680.7 912.334 680.873 919.529 680.713 927.334C680.421 941.607 680.253 907.94 680.408 892.945C680.026 886.858 680.018 993.988 680.05 1000.63C680.193 1029.61 680.11 981.376 680.216 978.891C680.261 977.86 680.829 978.373 680.46 966.167C680.351 962.556 680.207 977.649 680.147 968.643C680.087 959.632 680.254 963.203 680.266 962.549C680.306 960.308 680.244 950.725 680.267 949.481C680.627 930.359 681.171 932.113 680.368 957.46C680.549 968.5 680.839 943.159 680.962 956.882C681.112 973.561 680.853 985.735 680.841 987.833C680.703 1012.97 681.081 983.985 680.96 1014.68C680.893 1031.78 680.709 989.103 680.733 1028.14C680.754 1060.81 680.886 1043.16 681.185 1045.54C681.255 1046.1 681.341 1064 681.31 1039.62C681.232 1038.94 681.129 1037.64 681.057 1036.09C681.114 1030.11 681.504 1020.14 681.518 1016.97C681.583 1001.46 681.38 1002.21 681.619 993.06C681.358 999.592 681.515 988.961 681.46 984.971C681.257 970.158 681.182 989.582 681.443 956.332C681.32 960.665 681.2 964.585 681.078 968.781C681.074 964.792 681.07 960.801 681.066 956.813C681.335 950.864 681.301 929.675 681.572 948.862C681.649 925.789 681.59 916.461 681.381 911.405C681.341 910.445 681.325 906.978 681.321 902.904C681.262 903.675 681.08 904.66 681.057 904.018C680.861 898.276 681.2 889.373 681.33 892.408C681.336 889.559 681.343 887.303 681.346 886.507C681.366 881.459 681.483 891.356 681.524 887.264C681.537 885.915 681.511 871.692 681.559 871.417C681.864 869.703 681.644 893.109 681.821 846.106C681.543 844.971 681.604 866.802 681.31 861.197C680.993 855.178 681.418 842.901 681.029 840.219C681.093 839.222 681.146 838.781 681.219 837.922C681.05 818.906 681.373 818.654 681.445 812.845C681.584 801.564 681.563 749.702 681.283 796.269C681.255 789.459 681.242 782.507 681.217 775.732C681.798 774.185 681.567 778.311 681.655 745.675C681.675 738.488 681.93 736.148 681.627 729.099C681.924 730.057 681.745 708.799 681.781 706.815C682.015 694.091 682.342 741.337 681.816 747.395C682.021 755.37 681.75 755.341 681.786 764.246C681.838 777.108 681.891 778.894 681.691 794.164C681.972 809.194 681.815 735.327 682.188 780.106C682.527 820.819 682.73 1040 682.807 1125.27L682.809 1127.07L681 1127.08C672.459 1127.08 665.261 1127.09 659.721 1127.09C549.496 1127.2 491.542 1127.26 392.529 1127.24C382.762 1127.24 309.031 1127.27 324.355 1126.95C326.556 1126.9 358.269 1126.77 331.068 1126.52C336.601 1126.67 320.606 1126.77 319.265 1126.78C288.486 1127.14 306.303 1127.23 257.845 1127.24ZM114.194 1124.34C177.437 1124.41 130.975 1124.19 144.112 1123.7C135.996 1123.7 127.909 1123.7 119.792 1123.7C121.924 1123.73 124.029 1123.76 126.161 1123.79C126.17 1123.79 126.179 1123.79 126.189 1123.79C122.2 1123.97 118.183 1124.15 114.194 1124.34ZM3.26084 203.589C3.32547 206.057 3.39023 208.495 3.45347 211.168C3.43341 219.524 3.41371 227.848 3.39365 236.204C3.3498 235.207 3.30542 234.244 3.26157 233.247C3.26343 223.362 3.26547 213.508 3.26084 203.589ZM680.337 884.1C680.516 872.27 680.196 873.337 680.342 857.62C680.105 859.546 679.874 861.685 679.64 863.714C679.675 875.677 679.765 878.396 679.707 891.391C679.783 889.878 679.859 888.329 679.936 886.851C679.919 884.687 679.901 882.385 679.886 880.29C680.099 876.955 680.131 897.721 680.337 884.141C680.337 884.128 680.337 884.114 680.337 884.1ZM680.241 762.87C680.272 756.507 680.388 731.301 680.29 727.861C679.958 716.203 680.169 787.318 679.873 734.904C679.827 735.144 679.781 734.904 679.735 734.904C679.718 744.465 679.704 753.997 679.691 763.627C679.875 763.111 680.057 763.454 680.241 762.87ZM342.939 1124.32C352.718 1124.34 399.334 1124.19 384.138 1123.97C379.667 1123.91 358.855 1124.21 350.945 1124.2C345.822 1124.19 351.564 1124.03 341.453 1124.09C341.9 1124.16 342.176 1124.24 342.966 1124.32C342.957 1124.32 342.948 1124.32 342.939 1124.32ZM324.602 1125.28C334.713 1125.25 344.961 1125.21 355.14 1125.18C347.711 1124.99 333.097 1125.11 332.237 1124.85C335.022 1124.83 337.774 1124.81 340.559 1124.79C342.691 1124.84 344.79 1124.9 346.887 1124.96C355.622 1124.82 350.331 1124.74 366.599 1124.79C356.763 1124.39 354.936 1124.17 327.078 1124.58C332.34 1124.36 327.387 1123.65 311.947 1124.16C309.058 1124.25 321.122 1124.31 321.26 1124.33C323.115 1124.51 316.421 1124.63 318.412 1124.81C319.306 1124.89 326.666 1124.89 327.766 1125C328.274 1125.05 321.275 1125.2 324.602 1125.28ZM304.45 1124.33C307.579 1124.22 296.885 1123.96 287.599 1124.01C273.12 1124.09 295.955 1124.35 304.45 1124.33ZM3.2606 203.534C3.26068 203.552 3.26076 203.571 3.26084 203.589C3.2606 203.58 3.26035 203.571 3.26011 203.561C3.26027 203.552 3.26043 203.543 3.2606 203.534ZM680.111 795.678C680.016 788.182 680.03 777.086 679.878 777.905C679.907 774.259 679.937 770.574 679.967 766.928C679.921 766.962 679.875 767.031 679.83 767.065C679.802 778.035 679.773 788.972 679.744 799.942C679.866 798.566 679.989 797.294 680.111 795.678ZM680.218 676.167C680.233 662.378 680.026 673.939 679.926 670.912C679.827 667.886 679.908 655.602 679.765 657.047C679.759 665.163 679.753 673.629 679.748 681.848C679.904 679.681 680.063 678.169 680.218 676.14C680.218 676.149 680.218 676.158 680.218 676.167ZM3.09507 979.348C3.05026 988.701 2.89248 984.884 3.07724 1003.35C3.07724 1003.34 3.07724 1003.32 3.07724 1003.31C3.20647 985.738 3.32164 963.115 3.19663 943.72C3.03016 955.583 3.16505 964.63 3.09507 979.348ZM679.871 916.811C679.996 920.761 680.1 902.367 679.984 898.31C679.796 891.743 679.681 910.793 679.871 916.811ZM1.98764 601.545C1.60273 587.316 1.17067 614.277 1.35727 642.509C1.3736 644.951 1.49601 626.724 1.57114 632.124C1.57853 632.67 1.56936 642.675 1.62289 645.151C1.67655 647.627 1.8011 645.027 1.85336 649.085C1.9447 656.206 1.77546 672.298 1.89536 677.628C1.91142 678.33 2.078 668.35 2.08432 667.724C2.1851 657.476 1.96736 647.601 1.96591 646.017C1.95845 637.866 2.12915 639.098 2.16928 637.035C2.24475 633.148 2.1693 626.305 2.1749 625.824C2.32461 613.454 2.28177 641.719 2.34336 645.536C2.50946 655.817 2.66388 646.298 2.75766 670.956C2.76649 673.298 2.75646 701.327 2.94761 666.004C3.34604 735.362 3.17424 631.155 3.08652 619.84C3.04585 614.624 2.88314 622.521 2.80991 619.358C2.64243 612.136 2.61289 599.825 2.3768 600.926C1.88045 603.3 2.20568 619.468 2.12216 630.611C2.01438 629.441 1.90925 628.995 1.8038 626.828C1.94565 630.164 2.01661 602.576 1.98862 601.545C1.98829 601.545 1.98797 601.545 1.98764 601.545ZM2.55478 777.124C2.405 792.704 2.71833 791.601 2.53916 805.873C2.8205 818.46 2.80162 793.634 2.81748 790.742C2.88839 777.537 3.19432 777.841 3.10019 764.331C2.91918 768.973 2.73627 772.757 2.55478 777.124ZM2.68393 641.615C2.84257 652.035 2.83988 633.389 2.87021 632.633C3.19201 624.399 3.12947 680.231 2.68393 641.615ZM403.63 1124.95C408.924 1124.96 405.564 1124.81 410.232 1124.76C414.908 1124.71 430.895 1124.84 430.495 1124.75C430.082 1124.66 400.787 1124.41 430.192 1124.36C429.196 1124.3 429.532 1124.26 429.05 1124.22C420.968 1124.21 412.812 1124.21 404.73 1124.21C409.166 1124.36 413.713 1124.52 417.977 1124.67C413.437 1124.79 410.886 1124.64 410.645 1124.64C410.645 1124.64 410.645 1124.64 410.645 1124.64C402.187 1124.65 391.742 1124.92 403.63 1124.95ZM2.79917 1110.11C2.43891 1108.61 2.80109 1119.74 2.88031 1125.27L2 1124.39C2.30753 1124.38 2.59785 1124.38 2.86775 1124.38C7.99103 1124.33 15.0321 1124.47 12.3867 1124.31C9.59493 1124.27 5.80518 1124.27 2 1124.29L2.97769 1125.27C2.9387 1117.78 2.82715 1110.22 2.79868 1110.11C2.79884 1110.11 2.799 1110.11 2.79917 1110.11ZM2.55551 861.763C2.64782 874.822 2.74669 872.749 2.63388 888.725C2.7258 888.106 2.81973 887.487 2.91025 886.868C2.91212 874.178 2.64528 875.07 2.75254 860.388C2.77027 857.981 2.9834 863.135 2.91489 852.272C2.80114 855.433 2.67487 858.636 2.55551 861.763ZM2.89634 926.484C2.8823 911.49 2.13849 899.597 2.47397 927.214C2.52411 931.307 2.90706 937.761 2.89634 926.484ZM265.315 1124.96C290.822 1124.99 261.845 1124.87 255.204 1124.75C314.585 1124.66 248.501 1124.78 242.577 1124.4C235.32 1124.51 221.741 1124.76 236.827 1124.83C243.12 1124.85 240.823 1124.74 241.201 1124.74C252.79 1124.77 251.386 1124.95 265.315 1124.96ZM2.53647 750.052C2.54207 751.015 2.67048 749.509 2.69614 752.57C2.72162 755.634 2.63175 762.571 2.71054 763.258C2.78983 763.943 2.85132 750.029 2.79355 745.761C2.73523 741.496 2.48703 741.352 2.53647 750.052ZM2.22006 847.939C2.31246 860.682 2.78551 839.844 2.7833 837.072C2.75857 812.722 2.36984 848.661 2.22006 847.939ZM206.082 1125.77C236.829 1125.53 214.337 1125.11 195.078 1124.86C192.534 1124.91 189.925 1124.96 187.416 1125.01C198.971 1124.7 219.223 1124.4 174.169 1124.67C198.829 1124.74 178.179 1124.82 178.02 1124.84C175.303 1125.41 211.833 1125.14 206.055 1125.77C206.064 1125.77 206.073 1125.77 206.082 1125.77ZM2.67173 708.606C2.66983 695.224 2.57182 660.434 2.32456 676.665C2.44025 687.325 2.55603 697.947 2.67173 708.606ZM681.467 1096.82C681.608 1085.88 681.606 1075.8 681.596 1062.32C681.391 1074.46 681.367 1066.48 681.317 1062.39C681.241 1056.18 681.247 1071.22 681.233 1071.26C681.038 1070.99 681.007 1061.4 681.012 1083.23C680.944 1077.83 680.875 1072.5 680.807 1067.11C680.799 1083.75 680.671 1087.67 680.515 1098.22C680.896 1087.97 680.658 1101.47 680.847 1113.71C680.942 1119.82 681.394 1102.38 681.467 1096.78C681.467 1096.79 681.467 1096.81 681.467 1096.82ZM237.858 1125.84C241.022 1125.78 243.918 1125.68 246.978 1125.61C250.314 1125.6 253.657 1125.59 256.993 1125.58C257.405 1125.64 257.749 1125.71 258.231 1125.77C262.627 1125.78 260.913 1125.7 262.22 1125.69C262.22 1125.69 262.22 1125.69 262.22 1125.69C280.956 1125.58 288.629 1125.59 303.308 1125.78C303.308 1125.59 303.308 1125.41 303.308 1125.22C300.009 1125.24 296.676 1125.26 293.377 1125.28C291.623 1125.38 289.862 1125.47 288.108 1125.57C284.291 1125.52 280.508 1125.47 276.691 1125.41C273.632 1125.45 269.957 1125.48 267.309 1125.52C252.075 1125 286.698 1125.35 287.008 1125.14C287.213 1125 252.344 1125 247.322 1125.1C246.6 1125.11 254.135 1125.5 241.38 1125.3C239.385 1125.27 238.683 1124.43 224.928 1125.11C222.968 1125.2 229.813 1125.72 237.858 1125.84ZM364.467 1126.11C344.864 1125.58 417.215 1126.15 385.995 1125.7C394.901 1125.46 393.248 1125.46 384.275 1125.24C383.485 1125.22 389.685 1125.16 389.158 1125.15C380.767 1125.03 370.657 1125.09 370.588 1124.87C368.319 1124.88 366.185 1124.9 363.917 1124.91C373.368 1125.11 358.338 1125.25 352.527 1125.43C349.88 1125.5 355.964 1125.53 353.737 1125.6C352.912 1125.62 344.416 1125.57 344.067 1125.64C343.345 1125.81 348.681 1126.03 357.726 1126.15C357.726 1126.15 357.726 1126.15 357.726 1126.15C359.994 1126.14 362.199 1126.13 364.467 1126.11ZM1.59848 1068.76C1.89431 1065.42 1.97898 1052.05 2.12363 1077.74C2.1819 1076.47 2.23968 1075.16 2.29795 1073.89C2.29281 1069.56 2.28772 1065.36 2.28305 1060.96C1.41153 1047.76 2.39506 1023.65 1.77695 1039.09C1.70976 1040.77 1.78483 1051.05 1.60239 1040.91C1.60222 1040.92 1.60206 1040.93 1.6019 1040.95C1.65789 1055.11 1.76271 1056.9 1.59848 1068.76ZM40.311 1125.46C72.9836 1124.84 -4.83657 1125.12 8.1637 1125.28C9.33322 1125.3 42.8562 1125.16 40.311 1125.46ZM1.26303 901.408C1.2523 916.055 1.58814 917.026 1.70908 915.549C1.83038 914.07 1.7078 903.927 1.7269 902.618C1.78989 898.353 1.8315 907.399 1.91782 901.862C1.94585 900.028 2.06558 874.515 2.05112 873.346C1.97079 866.855 1.69368 876.344 1.66196 874.487C1.55796 868.435 1.70212 860.217 1.55478 858.462C1.2404 854.68 1.57042 870.002 1.57577 872.589C1.59071 880.396 1.41373 879.714 1.37826 885.561C1.34287 891.403 1.4035 895.221 1.39096 900.376C1.38677 902.091 1.26415 900.665 1.26303 901.408ZM1.97226 949.842C1.71803 934.543 1.44154 971.793 1.50107 976.212C1.67791 989.212 2.09358 957.167 1.97226 949.842ZM315.386 1125.31C301.393 1125.49 333.991 1125.64 343.31 1125.57C341.582 1125.49 320.2 1125.24 315.386 1125.31ZM197.554 1125.77C210.417 1125.71 193.359 1125.29 182.629 1125.3C176.338 1125.57 182.258 1125.52 189.273 1125.53C196.28 1125.54 187.519 1125.81 197.554 1125.77ZM1.5665 742.528C1.56216 745.303 1.78771 790.029 1.88144 764.331C1.88844 762.371 1.84873 731.063 1.80673 728.69C1.72181 723.915 1.57863 735.375 1.5665 742.528ZM135.859 1126.17C142.668 1125.93 149.367 1125.94 143.108 1125.66C143.099 1125.66 143.09 1125.66 143.081 1125.66C160.31 1125.58 161.073 1126.14 164.787 1126.13C177.779 1126.09 165.47 1125.68 173.619 1125.55C154.67 1125.68 160.104 1125.4 145.694 1125.39C142.462 1125.38 129.525 1125.55 127.633 1125.65C125.745 1125.75 132.351 1126.05 135.859 1126.17ZM1.50766 679.348C1.41722 694.444 1.79977 708.266 1.86044 687.326C1.89031 677.111 1.56272 670.13 1.50766 679.348ZM681.588 741.095C681.488 743.398 681.388 745.772 681.289 748.248C681.264 742.678 681.24 737.104 681.215 731.534C681.246 735.937 681.278 740.345 681.309 744.781C681.344 734.326 681.526 729.546 681.588 741.067C681.588 741.076 681.588 741.085 681.588 741.095ZM681.664 368.876C681.761 364.199 681.462 354.982 681.439 356.152C681.265 364.954 681.531 375.368 681.664 368.876ZM336.061 1126.22C353.449 1126.26 341.492 1125.77 330.834 1125.74C337.355 1125.83 326.194 1126.19 336.061 1126.22ZM681.641 499.776C681.599 501.337 681.557 502.911 681.515 504.66C681.573 499.159 681.613 498.206 681.641 499.776ZM1.13705 749.64C1.09974 752.295 1.06892 771.927 1.11508 774.579C1.21213 780.082 1.48062 764.772 1.39804 755.761C1.38917 754.764 1.17438 746.998 1.13705 749.681C1.13705 749.667 1.13705 749.654 1.13705 749.64ZM681.774 717.572C681.77 717.603 681.765 717.586 681.761 717.531C681.766 717.551 681.77 717.545 681.774 717.572ZM657.805 8.76188e-05C657.912 0.0076313 657.969 0.0151182 657.956 0.0223045C657.915 0.0152482 657.832 0.00782418 657.805 8.76188e-05ZM0.724209 888.106C0.260872 894.64 0.507313 909.703 0.736416 897.804C0.748456 897.137 0.723297 889.69 0.724209 888.106Z" fill="#313131"/>
</svg>
