<svg width="2696" height="1135" viewBox="0 0 2696 1135" fill="none" xmlns="http://www.w3.org/2000/svg">
<g clip-path="url(#clip0_3872_894)">
<path d="M1.48828 1.26953H2693.49V1132.27H1.48828V1.26953Z" fill="url(#paint0_linear_3872_894)"/>
<path d="M2700.55 4.26953L-596.941 4.26939" stroke="url(#paint1_linear_3872_894)" stroke-opacity="0.36" stroke-width="12"/>
<path d="M2707.11 100.27L-590.39 100.269" stroke="url(#paint2_linear_3872_894)" stroke-opacity="0.36" stroke-width="12"/>
<path d="M2703.83 196.27L-593.663 196.269" stroke="url(#paint3_linear_3872_894)" stroke-opacity="0.36" stroke-width="12"/>
<path d="M2698.92 36.2695L-598.577 36.2694" stroke="url(#paint4_linear_3872_894)" stroke-opacity="0.36" stroke-width="12"/>
<path d="M2705.47 132.27L-592.027 132.269" stroke="url(#paint5_linear_3872_894)" stroke-opacity="0.36" stroke-width="12"/>
<path d="M2702.19 228.27L-595.304 228.269" stroke="url(#paint6_linear_3872_894)" stroke-opacity="0.36" stroke-width="12"/>
<path d="M2700.55 68.2695L-596.941 68.2694" stroke="url(#paint7_linear_3872_894)" stroke-opacity="0.36" stroke-width="12"/>
<path d="M2707.11 164.27L-590.39 164.269" stroke="url(#paint8_linear_3872_894)" stroke-opacity="0.36" stroke-width="12"/>
<path d="M2703.83 260.27L-593.663 260.269" stroke="url(#paint9_linear_3872_894)" stroke-opacity="0.36" stroke-width="12"/>
<path d="M2694 292.27L-603.491 292.269" stroke="url(#paint10_linear_3872_894)" stroke-opacity="0.36" stroke-width="12"/>
<path d="M2692.36 324.27L-605.132 324.269" stroke="url(#paint11_linear_3872_894)" stroke-opacity="0.36" stroke-width="12"/>
<path d="M2694 356.27L-603.491 356.269" stroke="url(#paint12_linear_3872_894)" stroke-opacity="0.36" stroke-width="12"/>
<path d="M2697.28 388.27L-600.218 388.269" stroke="url(#paint13_linear_3872_894)" stroke-opacity="0.36" stroke-width="12"/>
<path d="M2707.11 484.27L-590.39 484.269" stroke="url(#paint14_linear_3872_894)" stroke-opacity="0.36" stroke-width="12"/>
<path d="M2700.55 580.27L-596.941 580.269" stroke="url(#paint15_linear_3872_894)" stroke-opacity="0.36" stroke-width="12"/>
<path d="M2694 676.27L-603.491 676.269" stroke="url(#paint16_linear_3872_894)" stroke-opacity="0.36" stroke-width="12"/>
<path d="M2703.83 772.27L-593.663 772.269" stroke="url(#paint17_linear_3872_894)" stroke-opacity="0.36" stroke-width="12"/>
<path d="M2710.38 868.27L-587.113 868.269" stroke="url(#paint18_linear_3872_894)" stroke-opacity="0.36" stroke-width="12"/>
<path d="M2713.66 964.27L-583.835 964.269" stroke="url(#paint19_linear_3872_894)" stroke-opacity="0.36" stroke-width="12"/>
<path d="M2710.38 1060.27L-587.113 1060.27" stroke="url(#paint20_linear_3872_894)" stroke-opacity="0.36" stroke-width="12"/>
<path d="M2695.64 420.27L-601.855 420.269" stroke="url(#paint21_linear_3872_894)" stroke-opacity="0.36" stroke-width="12"/>
<path d="M2705.47 516.27L-592.027 516.269" stroke="url(#paint22_linear_3872_894)" stroke-opacity="0.36" stroke-width="12"/>
<path d="M2698.92 612.27L-598.577 612.269" stroke="url(#paint23_linear_3872_894)" stroke-opacity="0.36" stroke-width="12"/>
<path d="M2692.36 708.27L-605.132 708.269" stroke="url(#paint24_linear_3872_894)" stroke-opacity="0.36" stroke-width="12"/>
<path d="M2702.19 804.27L-595.304 804.269" stroke="url(#paint25_linear_3872_894)" stroke-opacity="0.36" stroke-width="12"/>
<path d="M2708.75 900.27L-588.749 900.269" stroke="url(#paint26_linear_3872_894)" stroke-opacity="0.36" stroke-width="12"/>
<path d="M2712.02 996.27L-585.472 996.269" stroke="url(#paint27_linear_3872_894)" stroke-opacity="0.36" stroke-width="12"/>
<path d="M2708.75 1092.27L-588.749 1092.27" stroke="url(#paint28_linear_3872_894)" stroke-opacity="0.36" stroke-width="12"/>
<path d="M2697.28 452.27L-600.218 452.269" stroke="url(#paint29_linear_3872_894)" stroke-opacity="0.36" stroke-width="12"/>
<path d="M2707.11 548.27L-590.39 548.269" stroke="url(#paint30_linear_3872_894)" stroke-opacity="0.36" stroke-width="12"/>
<path d="M2700.55 644.27L-596.941 644.269" stroke="url(#paint31_linear_3872_894)" stroke-opacity="0.36" stroke-width="12"/>
<path d="M2694 740.27L-603.491 740.269" stroke="url(#paint32_linear_3872_894)" stroke-opacity="0.36" stroke-width="12"/>
<path d="M2703.83 836.27L-593.663 836.269" stroke="url(#paint33_linear_3872_894)" stroke-opacity="0.36" stroke-width="12"/>
<path d="M2710.38 932.27L-587.113 932.269" stroke="url(#paint34_linear_3872_894)" stroke-opacity="0.36" stroke-width="12"/>
<path d="M2713.66 1028.27L-583.835 1028.27" stroke="url(#paint35_linear_3872_894)" stroke-opacity="0.36" stroke-width="12"/>
<path d="M2710.38 1124.27L-587.113 1124.27" stroke="url(#paint36_linear_3872_894)" stroke-opacity="0.36" stroke-width="12"/>
</g>
<path d="M1796.25 1134.24C1486.25 1134.25 1146.87 1134.31 835.628 1134.23C797.42 1134.22 800.03 1134.08 789.311 1134.07C760.006 1134.02 742.362 1134.18 721.002 1134.16C617.163 1134.11 520.027 1134.09 418.158 1134.04C313.221 1133.98 362.86 1133.57 326.398 1133.46C255.158 1133.26 315.754 1133.81 287.752 1133.93C206.082 1133.9 123.688 1133.84 41.8723 1133.78C61.8457 1133.73 81.8234 1133.68 102.015 1133.63C66.3567 1133.62 15.3186 1133.54 75.0354 1133.39C61.8363 1133.36 49.5148 1133.31 35.9514 1133.27C34.1313 1133.37 18.0815 1133.42 1.48828 1133.46L0.293655 1133.47L0.293029 1132.27C0.248185 1114.96 0.214652 1097.05 0.154628 1094.11C0.0370444 1088.35 0.0640632 1123.84 0.053798 1123.62C-0.0926566 1121.27 0.107537 975.658 0.123867 965.158C0.167317 937.397 0.413135 961.736 0.397305 938.12C0.370242 897.502 -0.129909 924.561 0.535001 869.577C0.318999 847.704 0.431173 845.795 0.446133 818.097C0.448 814.451 0.322934 817.28 0.319668 815.676C0.226841 773.752 0.459415 805.978 0.472012 805.759C0.686029 801.953 0.59089 756.962 0.611417 747.483C0.867101 628.551 1.0402 541.407 1.09946 415.91C1.11205 388.782 1.02522 306.156 1.06161 279.904C1.09753 254.012 1.25174 267.904 1.32578 254.353C0.954815 232.632 0.913902 211.912 1.15829 163.148C0.887694 144.991 1.10597 147.326 1.05185 112.542C1.00701 83.5907 0.682403 33.1341 0.959075 1.26953C0.933878 37.8041 1.06681 34.0211 1.14706 75.15C1.17364 88.8408 1.17932 231.61 1.4559 220.986C1.60007 215.444 1.46766 168.127 1.49423 166.298C1.64915 155.651 1.83952 182.061 1.7728 205.469C1.74154 199.635 1.70982 192.607 1.67856 186.335C1.48492 238.913 2.22864 202.756 1.57871 242.716C1.49898 247.657 1.41586 245.742 1.33115 253.887C1.36618 255.561 1.45304 245.596 1.4686 254.178C1.48428 262.933 1.31936 279.555 1.45834 282.033C1.66045 285.738 1.58081 249.47 1.59262 246.741C1.5914 246.711 1.59018 246.682 1.58896 246.653C1.69627 222.523 1.7085 272.918 1.72763 275.325C1.85356 290.913 1.95052 280.283 2.05454 303.675C2.1138 317.02 2.07886 351.013 2.098 363.555C2.11761 376.018 2.21321 356.628 2.23374 365.014C2.25426 373.4 2.18162 383.841 2.20542 393.685C2.21591 397.898 2.32254 397.683 2.32627 399.723C2.3673 421.594 2.1455 407.247 2.15903 427.082C2.16803 439.931 2.37478 483.058 2.43638 453.332C2.45783 467.621 2.47354 481.555 2.49033 495.77C2.52205 486.804 2.5436 477.539 2.58091 468.791C2.53012 495.543 2.71259 507.646 2.72617 524.412C2.7397 541.184 2.52073 556.219 2.62754 574.668C2.85477 614.047 2.74979 516.538 2.79038 504.433C2.80634 499.714 2.97786 517.83 2.98276 520.621C3.00422 533.013 2.88156 547.672 2.88706 557.226C2.90759 591.425 3.06948 612.367 3.10215 644.961C3.2132 755.949 3.30326 893.632 3.33872 998.788C3.35179 1037.95 3.16977 1061.51 3.1749 1079.09C3.18286 1106.03 3.25374 1117.48 3.30401 1132.27L1.48828 1130.45C9.26391 1130.43 17.9626 1130.41 30.322 1130.4C83.7016 1130.39 158.902 1130.53 203.459 1130.56C234.304 1130.58 262.229 1130.43 270.251 1130.42C381.752 1130.37 517.393 1130.37 609.787 1130.37C653.24 1130.37 673.879 1130.54 682.851 1130.54C721.423 1130.51 711.081 1130.37 742.352 1130.38C759.245 1130.39 762.405 1130.53 764.665 1130.54C784.573 1130.58 788.537 1130.4 804.07 1130.39C893.394 1130.36 979.438 1130.48 1067.89 1130.5C1074.3 1130.5 1073.73 1130.58 1077.89 1130.57C1095.74 1130.55 1087.44 1130.43 1106.1 1130.42C1144.89 1130.4 1184.73 1130.42 1225.86 1130.43C1229.93 1130.44 1231.76 1130.54 1241.08 1130.54C1250.41 1130.54 1257.49 1130.44 1272.14 1130.45C1310.43 1130.46 1348.21 1130.58 1388.76 1130.59C1395.46 1130.59 1403.78 1130.46 1413.84 1130.46C1445.41 1130.47 1492.17 1130.58 1519.22 1130.59C1608.48 1130.6 1690.82 1130.53 1774.9 1130.53C1794.66 1130.53 1812.16 1130.64 1822.44 1130.65C1845.62 1130.65 1828.13 1130.54 1851.61 1130.54C2043.4 1130.54 2235.92 1130.59 2429.97 1130.58C2506.17 1130.58 2598.93 1130.46 2672.58 1130.49C2681.25 1130.5 2687.9 1130.51 2693.49 1130.53L2691.75 1132.27C2691.8 1118.12 2691.88 1110.87 2691.88 1095.34C2691.88 1056.71 2691.69 1049.7 2691.67 1008.95C2691.65 976.423 2691.85 939.152 2691.83 905.316C2691.82 871.479 2691.63 855.866 2691.61 816.998C2691.59 784.985 2691.68 740.288 2691.66 705.433C2691.57 469.624 2691.5 236.477 2691.53 1.26953L2693.49 3.2263C2610.11 3.21524 2526.47 3.19176 2442.37 3.15269C2328.97 3.09996 2203.16 3.12737 2085.97 2.9398C2074.97 2.92204 2091.8 2.73775 2056.51 2.77647C2037.56 2.79746 2011.09 2.95626 1967.26 2.96421C1706.71 3.01087 1428.78 2.67119 1163.85 2.73838C767.007 2.83964 355.725 4.15109 10.8728 2.23203C-6.04269 2.13779 3.13011 1.67597 13.2645 1.54477C22.6694 1.63854 31.3645 1.74991 41.2067 1.85581C53.6006 1.27877 51.4151 1.42902 97.3536 1.48081C125.636 1.51297 103.045 1.26618 118.121 1.19614C137.664 1.10562 229.424 0.820581 211.776 1.20273C217.464 1.13647 222.714 1.073 228.256 1.00815C294.686 0.950289 359.229 0.854611 424.201 0.744963C435.425 0.725796 435.942 0.605887 447.535 0.58676C478.67 0.534521 503.39 0.613294 535.474 0.601164C552.903 0.594632 555.321 0.456068 578.146 0.464933C600.957 0.473854 600.457 0.660906 631.58 0.457609C611.308 0.222912 701.738 0.393209 733.899 0.378751C738.565 0.376885 776.845 0.166038 797.191 0.190274C817.607 0.214067 848.601 0.348761 880.172 0.272305C894.975 0.236378 903.957 0.0721726 919.927 0.062832C931.156 0.0562999 944.646 0.202257 958.865 0.20834C973.079 0.214403 1003.83 0.0945913 1009.47 0.0926173C1029.81 0.0846865 1007.37 0.187302 1021.28 0.192471C1088.44 0.2158 1166.47 0.270793 1232.69 0.201748C1240.83 0.193377 1229.56 0.0724766 1230.65 0.0684472C1285.91 -0.0798942 1256.41 0.0776298 1271.33 0.185879C1285.79 0.290552 1391.57 0.233454 1392.35 0.0232811C1395.6 0.286467 1419.11 0.0854498 1425.22 0.0777246C1448.99 0.0478911 1444.33 0.275597 1467.37 0.205166C1475.82 0.179516 1459.36 0.0256056 1468.45 0.030117C1490.9 0.041315 1511.12 0.288573 1541.01 0.313321C1548.23 0.319387 1550.58 0.209246 1563.41 0.212979C1576.26 0.216769 1630.12 0.351513 1605.27 0.119229C1637.94 0.305373 1644.51 0.203208 1682.5 0.20834C1692.13 0.209905 1704.52 0.387398 1725 0.332364C1731.93 0.313687 1731.72 0.142601 1742.15 0.141201C1765.99 0.137517 1788.46 0.314624 1818.71 0.321622C1875.3 0.335148 1935.54 0.210645 1994.53 0.254971C2010.57 0.267136 2006.57 0.439147 2029.89 0.442472C2033.31 0.442472 2061.4 0.29372 2077.51 0.307706C2087.21 0.316105 2137.47 0.420646 2147.6 0.429044C2164.36 0.442507 2167.36 0.276145 2176.54 0.308683C2203.08 0.402469 2181.79 0.64735 2213.73 0.312345C2224.23 0.49805 2242.89 0.479472 2248.87 0.708098C2259.74 0.457554 2273.83 0.698273 2294.9 0.614348C2315.97 0.530359 2333.25 0.0450994 2338.36 0.567228C2348.2 0.50377 2390.14 0.395472 2397.22 0.38754C2418.06 0.365164 2406.92 0.509591 2422.65 0.49008C2425.42 0.486814 2422.52 0.388056 2440.3 0.397794C2451.96 0.404327 2537.45 0.410386 2542.56 0.423917C2600.8 0.578532 2510.82 0.521862 2498.22 0.628752C2496 0.600678 2493.8 0.572511 2491.43 0.544767C2465.69 0.498134 2480.34 0.721249 2492.01 0.77304C2503.68 0.824817 2525.48 0.725421 2535.18 0.798675C2540.01 0.835456 2537.02 1.10295 2522.4 1.07065C2538.04 1.15304 2516.69 1.24004 2522.87 1.31748C2529.67 1.40236 2599.94 1.42849 2600.31 1.2811C2587.18 1.27597 2570.85 1.28106 2557.58 1.27499C2540.22 1.01883 2592.94 0.144012 2641.29 0.493498C2675.16 0.737731 2622.39 0.933652 2693.49 0.755544L2694 0.755275L2694 1.26953C2694.01 3.78766 2694.02 6.46116 2694.02 9.2994C2694.02 6.54017 2694.03 3.87287 2694.03 1.26953L2694.03 0.726609L2693.49 0.726892C2684.05 0.7152 2675.46 0.698686 2666.37 0.690276C2665.14 0.499182 2683.75 0.707176 2693.49 0.649231L2694.11 0.648907L2694.11 1.26953C2694.11 1.32136 2694.11 1.37293 2694.11 1.42425C2694.11 2.23973 2694.12 2.03255 2694.13 1.26953L2694.13 0.623548L2693.49 0.623886C2689.95 0.574419 2674.5 0.47784 2693.49 0.439084L2694.32 0.43865L2694.32 1.26953C2694.32 1.60213 2694.32 1.94529 2694.32 2.29927C2694.05 23.7363 2694.32 40.2314 2694.33 76.1798C2694.28 66.1893 2694.23 56.1864 2694.18 46.1959C2693.98 106.939 2693.91 -34.1497 2693.8 83.9674C2693.79 69.7537 2693.8 55.6117 2693.78 41.325C2693.68 48.2499 2693.39 37.1687 2693.32 43.3667C2693.16 59.6249 2693.26 83.6798 2693.24 103.509C2693.24 112.187 2693.16 106.805 2693.16 107.535C2693.15 119.419 2693.27 116.795 2693.27 127.222C2693.28 140.345 2693.17 178.245 2693.18 184.39C2693.21 200.287 2693.45 173.817 2693.46 175.348C2693.57 185.484 2693.48 206.187 2693.63 205.099C2693.53 155.286 2693.66 11.7303 2693.9 141.602C2694.14 105.797 2694.46 116.137 2694.49 167.619C2694.51 210.206 2694.38 182.726 2694.23 204.895C2694.22 207.761 2694.15 264.799 2694.25 267.721C2694.02 265.435 2693.81 283.997 2693.57 271.542C2693.53 269.719 2693.55 246.311 2693.35 254.479C2693.25 258.562 2693.04 270.28 2692.92 268.392C2693 273.204 2693.1 278.236 2693.19 283.121C2693.22 318.197 2693.12 323.181 2692.96 342.36C2693.03 341.485 2693.31 323.764 2693.23 350.672C2693.22 352.053 2693.12 353.247 2693.07 366.918C2692.97 394.553 2692.94 400.321 2692.64 379.11C2692.81 436.34 2692.48 448.67 2692.57 507.359C2692.96 495.691 2692.86 475.057 2692.79 421.315C2692.88 418.982 2692.97 417.888 2693.06 415.482C2692.86 487.012 2692.88 451.666 2693.06 492.192C2693.11 502.109 2693.06 554.99 2693.32 537.342C2693.38 533.177 2693.37 500.324 2693.46 504.092C2693.48 504.821 2693.53 544.759 2693.5 548.28C2693.2 592.471 2692.99 513.501 2693.1 635.198C2693.1 638.551 2693.21 639.729 2693.23 646.282C2693.26 658.603 2693.13 658.758 2693.16 669.762C2693.19 680.772 2693.36 696.028 2693.2 712.579C2692.91 742.842 2692.74 671.456 2692.9 639.661C2692.51 626.754 2692.51 853.907 2692.54 867.982C2692.68 929.441 2692.6 827.167 2692.7 821.898C2692.75 819.71 2693.32 820.799 2692.95 794.918C2692.84 787.262 2692.7 819.264 2692.64 800.168C2692.58 781.062 2692.74 788.633 2692.75 787.247C2692.79 782.494 2692.73 762.175 2692.76 759.538C2693.12 718.992 2693.66 722.711 2692.86 776.455C2693.04 799.864 2693.33 746.134 2693.45 775.23C2693.6 810.595 2693.34 836.408 2693.33 840.856C2693.19 894.147 2693.57 832.699 2693.45 897.791C2693.38 934.033 2693.2 843.551 2693.22 926.316C2693.24 995.594 2693.37 958.181 2693.67 963.213C2693.74 964.401 2693.83 1002.36 2693.8 950.671C2693.72 949.213 2693.62 946.456 2693.55 943.175C2693.6 930.496 2693.99 909.358 2694.01 902.633C2694.07 869.746 2693.87 871.334 2694.11 851.94C2693.85 865.79 2694 843.248 2693.95 834.79C2693.75 803.38 2693.67 844.565 2693.93 774.063C2693.81 783.252 2693.69 791.563 2693.57 800.46C2693.56 792.004 2693.56 783.541 2693.55 775.084C2693.82 762.469 2693.79 717.541 2694.06 758.226C2694.14 709.301 2694.08 689.524 2693.87 678.803C2693.83 676.767 2693.81 669.416 2693.81 660.778C2693.75 662.412 2693.57 664.502 2693.55 663.141C2693.35 650.965 2693.69 632.088 2693.82 638.523C2693.82 632.482 2693.83 627.699 2693.83 626.011C2693.85 615.307 2693.97 636.291 2694.01 627.615C2694.02 624.756 2694 594.597 2694.05 594.014C2694.35 590.379 2694.13 640.008 2694.31 540.347C2694.03 537.94 2694.09 584.23 2693.8 572.343C2693.48 559.581 2693.91 533.551 2693.52 527.863C2693.58 525.749 2693.63 524.814 2693.71 522.992C2693.54 482.672 2693.86 482.138 2693.93 469.82C2694.07 445.901 2694.05 335.935 2693.77 434.674C2693.74 420.235 2693.73 405.493 2693.71 391.127C2694.29 387.847 2694.05 396.596 2694.14 327.397C2694.16 312.158 2694.42 307.196 2694.12 292.25C2694.41 294.281 2694.23 249.206 2694.27 245C2694.5 218.019 2694.83 318.198 2694.3 331.043C2694.51 347.954 2694.24 347.893 2694.27 366.773C2694.33 394.046 2694.38 397.833 2694.18 430.211C2694.46 462.079 2694.3 305.456 2694.68 400.402C2695.02 486.729 2695.22 951.475 2695.29 1132.27L2695.3 1134.08L2693.49 1134.08C2675.38 1134.08 2660.12 1134.09 2648.37 1134.1C2414.65 1134.2 2291.77 1134.26 2081.83 1134.25C2061.12 1134.24 1904.78 1134.27 1937.27 1133.95C1941.94 1133.9 2009.18 1133.78 1951.51 1133.52C1963.24 1133.67 1929.33 1133.77 1926.48 1133.79C1861.22 1134.15 1899 1134.23 1796.25 1134.24ZM1491.66 1131.34C1625.76 1131.41 1527.24 1131.19 1555.1 1130.7C1537.89 1130.7 1520.74 1130.7 1503.53 1130.7C1508.05 1130.73 1512.51 1130.76 1517.03 1130.79C1517.05 1130.79 1517.07 1130.79 1517.09 1130.79C1508.63 1130.97 1500.12 1131.16 1491.66 1131.34ZM2.74912 430.261C2.81375 435.493 2.87851 440.663 2.94175 446.332C2.92169 464.049 2.90199 481.699 2.88193 499.416C2.83808 497.302 2.79371 495.259 2.74985 493.145C2.75172 472.186 2.75375 451.292 2.74912 430.261ZM2692.82 620.906C2693 595.823 2692.68 598.085 2692.83 564.76C2692.59 568.843 2692.36 573.379 2692.13 577.681C2692.16 603.047 2692.25 608.811 2692.2 636.365C2692.27 633.158 2692.35 629.874 2692.42 626.74C2692.41 622.152 2692.39 617.27 2692.37 612.827C2692.59 605.757 2692.62 649.787 2692.83 620.994C2692.83 620.965 2692.82 620.936 2692.82 620.906ZM2692.73 363.856C2692.76 350.365 2692.88 296.918 2692.78 289.625C2692.45 264.904 2692.66 415.694 2692.36 304.559C2692.31 305.068 2692.27 304.559 2692.22 304.559C2692.21 324.831 2692.19 345.042 2692.18 365.46C2692.36 364.367 2692.54 365.095 2692.73 363.856ZM1976.68 1131.32C1997.41 1131.34 2096.26 1131.19 2064.03 1130.98C2054.55 1130.91 2010.43 1131.22 1993.65 1131.2C1982.79 1131.19 1994.97 1131.03 1973.53 1131.09C1974.48 1131.16 1975.06 1131.24 1976.74 1131.32C1976.72 1131.32 1976.7 1131.32 1976.68 1131.32ZM1937.8 1132.28C1959.24 1132.25 1980.97 1132.21 2002.55 1132.18C1986.8 1131.99 1955.81 1132.11 1953.99 1131.85C1959.89 1131.83 1965.73 1131.81 1971.63 1131.79C1976.15 1131.85 1980.6 1131.9 1985.05 1131.96C2003.57 1131.82 1992.35 1131.75 2026.85 1131.79C2005.99 1131.39 2002.12 1131.17 1943.05 1131.58C1954.21 1131.36 1943.7 1130.65 1910.96 1131.16C1904.84 1131.25 1930.42 1131.32 1930.71 1131.33C1934.65 1131.52 1920.45 1131.63 1924.67 1131.81C1926.57 1131.89 1942.17 1131.89 1944.51 1132C1945.58 1132.05 1930.74 1132.2 1937.8 1132.28ZM1895.07 1131.34C1901.7 1131.22 1879.03 1130.96 1859.34 1131.01C1828.64 1131.09 1877.06 1131.35 1895.07 1131.34ZM2.74888 430.144C2.74896 430.183 2.74904 430.222 2.74912 430.261C2.74888 430.241 2.74863 430.222 2.74839 430.202C2.74855 430.183 2.74871 430.163 2.74888 430.144ZM2692.6 433.42C2692.5 417.526 2692.52 393.998 2692.37 395.736C2692.4 388.006 2692.43 380.19 2692.46 372.46C2692.41 372.533 2692.36 372.679 2692.32 372.752C2692.29 396.012 2692.26 419.202 2692.23 442.462C2692.35 439.545 2692.48 436.847 2692.6 433.42ZM2692.71 180.015C2692.72 150.778 2692.51 175.29 2692.41 168.873C2692.31 162.456 2692.4 136.41 2692.25 139.473C2692.25 156.682 2692.24 174.633 2692.24 192.061C2692.39 187.467 2692.55 184.259 2692.71 179.957C2692.71 179.976 2692.71 179.996 2692.71 180.015ZM944.364 1131.17C964.195 1131.22 956.103 1131.38 995.261 1131.19C995.231 1131.19 995.202 1131.19 995.173 1131.19C957.912 1131.06 909.944 1130.95 868.821 1131.07C893.974 1131.24 913.157 1131.1 944.364 1131.17ZM2692.36 690.266C2692.48 698.64 2692.59 659.64 2692.47 651.036C2692.28 637.112 2692.17 677.505 2692.36 690.266ZM143.287 1132.28C113.116 1132.67 170.283 1133.1 230.147 1132.91C235.324 1132.9 196.676 1132.77 208.126 1132.7C209.282 1132.69 230.498 1132.7 235.747 1132.65C240.997 1132.59 235.484 1132.47 244.089 1132.42C259.188 1132.32 293.31 1132.49 304.611 1132.37C306.099 1132.36 284.938 1132.19 283.61 1132.19C261.881 1132.08 240.942 1132.3 237.584 1132.3C220.301 1132.31 222.913 1132.14 218.538 1132.1C210.296 1132.02 195.788 1132.1 194.767 1132.09C168.538 1131.94 228.47 1131.99 236.563 1131.93C258.364 1131.76 238.18 1131.61 290.464 1131.51C295.428 1131.5 354.861 1131.51 279.964 1131.32C427.026 1130.92 206.07 1131.1 182.079 1131.18C171.02 1131.22 187.765 1131.39 181.058 1131.46C165.744 1131.63 139.641 1131.66 141.974 1131.89C147.009 1132.39 181.291 1132.06 204.917 1132.15C202.438 1132.26 201.49 1132.36 196.896 1132.47C203.969 1132.32 145.475 1132.25 143.287 1132.28C143.287 1132.28 143.287 1132.28 143.287 1132.28ZM515.577 1131.71C548.612 1131.86 546.273 1131.55 576.536 1131.73C603.225 1131.45 550.584 1131.47 544.452 1131.45C516.454 1131.38 517.097 1131.08 488.451 1131.17C498.294 1131.35 506.318 1131.53 515.577 1131.71ZM228.251 1131.59C250.344 1131.43 210.809 1131.43 209.205 1131.4C191.747 1131.08 310.13 1131.14 228.251 1131.59ZM2105.36 1131.95C2116.59 1131.96 2109.47 1131.81 2119.36 1131.76C2129.28 1131.72 2163.18 1131.85 2162.33 1131.75C2161.45 1131.66 2099.34 1131.41 2161.69 1131.36C2159.57 1131.3 2160.29 1131.27 2159.27 1131.22C2142.13 1131.22 2124.83 1131.21 2107.7 1131.21C2117.1 1131.36 2126.74 1131.53 2135.79 1131.67C2126.16 1131.8 2120.75 1131.64 2120.24 1131.64C2120.24 1131.64 2120.24 1131.64 2120.24 1131.64C2102.31 1131.65 2080.16 1131.92 2105.36 1131.95ZM1221.63 1131.47C1218.27 1131.85 1244.74 1131.43 1255.61 1131.38C1266.47 1131.33 1281.4 1131.47 1275.79 1131.31C1258.22 1131.2 1221.99 1131.43 1221.63 1131.47C1221.63 1131.47 1221.63 1131.47 1221.63 1131.47ZM695.043 1131.71C722.732 1131.62 718.336 1131.52 752.21 1131.64C750.898 1131.54 749.586 1131.45 748.273 1131.36C721.366 1131.36 723.257 1131.62 692.126 1131.52C687.022 1131.5 697.95 1131.29 674.917 1131.35C681.621 1131.47 688.412 1131.59 695.043 1131.71ZM832.274 1131.37C800.481 1131.39 775.264 1132.13 833.82 1131.8C842.499 1131.75 856.185 1131.36 832.274 1131.37ZM1812.09 1131.97C1866.17 1131.99 1804.73 1131.87 1790.65 1131.75C1916.56 1131.66 1776.44 1131.78 1763.87 1131.4C1748.49 1131.51 1719.7 1131.76 1751.68 1131.83C1765.03 1131.85 1760.16 1131.74 1760.96 1131.74C1785.53 1131.77 1782.56 1131.95 1812.09 1131.97ZM458.176 1131.73C460.218 1131.73 457.023 1131.6 463.513 1131.57C470.011 1131.55 484.719 1131.64 486.176 1131.56C487.628 1131.48 458.126 1131.42 449.076 1131.48C440.034 1131.53 439.727 1131.78 458.176 1131.73ZM665.73 1132.05C692.75 1131.96 648.565 1131.48 642.688 1131.49C591.057 1131.51 667.261 1131.9 665.73 1132.05ZM1686.49 1132.77C1751.69 1132.53 1704 1132.11 1663.16 1131.86C1657.77 1131.91 1652.23 1131.96 1646.91 1132.01C1671.42 1131.7 1714.36 1131.4 1618.83 1131.67C1671.11 1131.74 1627.33 1131.82 1626.99 1131.84C1621.23 1132.41 1698.69 1132.15 1686.44 1132.77C1686.46 1132.77 1686.47 1132.77 1686.49 1132.77ZM370.295 1131.6C341.919 1131.6 268.153 1131.7 302.569 1131.94C325.171 1131.83 347.693 1131.71 370.295 1131.6ZM2693.96 1071.95C2694.1 1048.76 2694.09 1027.38 2694.08 998.797C2693.88 1024.54 2693.86 1007.62 2693.8 998.943C2693.73 985.779 2693.74 1017.67 2693.72 1017.76C2693.53 1017.17 2693.5 996.839 2693.5 1043.13C2693.43 1031.69 2693.36 1020.39 2693.3 1008.95C2693.29 1044.23 2693.16 1052.54 2693 1074.92C2693.38 1053.19 2693.15 1081.8 2693.34 1107.77C2693.43 1120.72 2693.88 1083.74 2693.96 1071.86C2693.96 1071.89 2693.96 1071.92 2693.96 1071.95ZM1753.87 1132.85C1760.58 1132.78 1766.72 1132.68 1773.21 1132.61C1780.28 1132.6 1787.37 1132.59 1794.44 1132.58C1795.32 1132.65 1796.05 1132.71 1797.07 1132.77C1806.39 1132.78 1802.76 1132.7 1805.53 1132.69C1805.53 1132.69 1805.53 1132.69 1805.53 1132.69C1845.25 1132.58 1861.52 1132.59 1892.65 1132.78C1892.65 1132.6 1892.65 1132.41 1892.65 1132.22C1885.65 1132.24 1878.58 1132.26 1871.59 1132.28C1867.87 1132.38 1864.14 1132.48 1860.42 1132.58C1852.32 1132.52 1844.3 1132.47 1836.21 1132.41C1829.72 1132.45 1821.93 1132.48 1816.32 1132.52C1784.02 1132 1857.43 1132.35 1858.08 1132.14C1858.52 1132 1784.58 1132.01 1773.94 1132.1C1772.41 1132.11 1788.38 1132.5 1761.34 1132.3C1757.11 1132.27 1755.62 1131.43 1726.45 1132.11C1722.3 1132.21 1736.81 1132.72 1753.87 1132.85ZM2022.33 1133.12C1980.76 1132.58 2134.17 1133.15 2067.97 1132.71C2086.86 1132.46 2083.35 1132.46 2064.33 1132.24C2062.65 1132.23 2075.8 1132.16 2074.68 1132.15C2056.89 1132.03 2035.45 1132.09 2035.3 1131.87C2030.49 1131.89 2025.97 1131.9 2021.16 1131.91C2041.2 1132.11 2009.33 1132.25 1997.01 1132.43C1991.4 1132.51 2004.3 1132.53 1999.58 1132.6C1997.83 1132.62 1979.81 1132.57 1979.07 1132.65C1977.54 1132.81 1988.85 1133.03 2008.03 1133.15C2008.03 1133.15 2008.03 1133.15 2008.03 1133.15C2012.84 1133.14 2017.52 1133.13 2022.33 1133.12ZM1133.95 1132.67C1126.88 1132.38 1098.52 1132.29 1153 1132.15C1150.3 1132.09 1147.53 1132.03 1144.83 1131.97C1135.64 1131.98 1126.74 1131.98 1117.41 1131.99C1089.41 1132.86 1038.3 1131.87 1071.04 1132.49C1074.61 1132.56 1096.4 1132.48 1074.89 1132.67C1074.92 1132.67 1074.95 1132.67 1074.97 1132.67C1105.01 1132.61 1108.8 1132.51 1133.95 1132.67ZM1335 1132.46C1404.28 1131.84 1239.27 1132.12 1266.84 1132.28C1269.32 1132.3 1340.4 1132.16 1335 1132.46ZM779.103 1133.01C810.159 1133.02 812.218 1132.68 809.086 1132.56C805.951 1132.44 784.444 1132.56 781.669 1132.54C772.627 1132.48 791.806 1132.44 780.065 1132.35C776.177 1132.32 722.08 1132.2 719.601 1132.22C705.838 1132.3 725.959 1132.58 722.022 1132.61C709.19 1132.71 691.764 1132.57 688.043 1132.71C680.024 1133.03 712.511 1132.7 717.997 1132.69C734.551 1132.68 733.105 1132.86 745.502 1132.89C757.889 1132.93 765.985 1132.87 776.915 1132.88C780.552 1132.88 777.528 1133.01 779.103 1133.01ZM881.8 1132.3C849.361 1132.55 928.345 1132.83 937.714 1132.77C965.279 1132.59 897.333 1132.18 881.8 1132.3ZM1918.26 1132.31C1888.59 1132.49 1957.7 1132.64 1977.47 1132.57C1973.8 1132.49 1928.46 1132.24 1918.26 1132.31ZM1668.41 1132.77C1695.68 1132.71 1659.52 1132.3 1636.76 1132.3C1623.43 1132.58 1635.98 1132.52 1650.85 1132.53C1665.71 1132.54 1647.13 1132.81 1668.41 1132.77ZM442.221 1132.7C448.105 1132.71 542.941 1132.48 488.451 1132.39C484.295 1132.38 417.911 1132.42 412.879 1132.46C402.755 1132.55 427.056 1132.69 442.221 1132.7ZM1537.6 1133.17C1552.03 1132.94 1566.24 1132.94 1552.97 1132.66C1552.95 1132.66 1552.93 1132.66 1552.91 1132.66C1589.44 1132.58 1591.06 1133.14 1598.93 1133.13C1626.48 1133.09 1600.38 1132.69 1617.66 1132.55C1577.48 1132.68 1589 1132.41 1558.45 1132.39C1551.6 1132.38 1524.16 1132.55 1520.15 1132.65C1516.15 1132.75 1530.16 1133.05 1537.6 1133.17ZM308.256 1132.76C340.266 1132.85 369.574 1132.47 325.173 1132.41C303.515 1132.38 288.713 1132.71 308.256 1132.76ZM2694.08 317.684C2693.98 322.569 2693.88 327.602 2693.78 332.851C2693.75 321.042 2693.73 309.222 2693.7 297.413C2693.73 306.747 2693.77 316.094 2693.8 325.501C2693.83 303.332 2694.01 293.197 2694.08 317.626C2694.08 317.645 2694.08 317.665 2694.08 317.684ZM2220.67 0.60507C2210.75 0.508484 2191.21 0.807571 2193.69 0.830901C2212.35 1.00476 2234.43 0.73899 2220.67 0.60507ZM1962.1 1133.22C1998.96 1133.26 1973.61 1132.77 1951.01 1132.74C1964.84 1132.83 1941.17 1133.19 1962.1 1133.22ZM2498.22 0.628752C2501.53 0.670558 2504.87 0.712369 2508.58 0.754241C2496.91 0.696104 2494.89 0.657005 2498.22 0.628752ZM457.301 1133.13C462.93 1133.17 504.559 1133.2 510.181 1133.15C521.849 1133.06 489.386 1132.79 470.28 1132.87C468.166 1132.88 451.7 1133.1 457.388 1133.13C457.359 1133.13 457.33 1133.13 457.301 1133.13ZM2694.26 267.808C2694.26 267.873 2694.25 267.838 2694.25 267.721C2694.25 267.763 2694.26 267.751 2694.26 267.808ZM1392.03 0.00106418C1392.25 0.00860786 1392.37 0.0160948 1392.35 0.0232811C1392.26 0.0162247 1392.08 0.00880075 1392.03 0.00106418ZM750.898 1133.55C764.753 1134.01 796.692 1133.76 771.461 1133.53C770.049 1133.52 754.258 1133.55 750.898 1133.55Z" fill="#424242"/>
<defs>
<linearGradient id="paint0_linear_3872_894" x1="1347.49" y1="1.26953" x2="1347.49" y2="1132.27" gradientUnits="userSpaceOnUse">
<stop stop-color="#B79C9A"/>
<stop offset="1" stop-color="#D2CFCA"/>
</linearGradient>
<linearGradient id="paint1_linear_3872_894" x1="2700.55" y1="4.76953" x2="-596.941" y2="4.76939" gradientUnits="userSpaceOnUse">
<stop stop-color="#D2CFCA"/>
<stop offset="1" stop-color="#9C6868"/>
</linearGradient>
<linearGradient id="paint2_linear_3872_894" x1="2707.11" y1="100.77" x2="-590.39" y2="100.769" gradientUnits="userSpaceOnUse">
<stop stop-color="#D2CFCA"/>
<stop offset="1" stop-color="#9C6868"/>
</linearGradient>
<linearGradient id="paint3_linear_3872_894" x1="2703.83" y1="196.77" x2="-593.663" y2="196.769" gradientUnits="userSpaceOnUse">
<stop stop-color="#D2CFCA"/>
<stop offset="1" stop-color="#9C6868"/>
</linearGradient>
<linearGradient id="paint4_linear_3872_894" x1="2698.92" y1="36.7695" x2="-598.577" y2="36.7694" gradientUnits="userSpaceOnUse">
<stop stop-color="#D2CFCA"/>
<stop offset="1" stop-color="#9C6868"/>
</linearGradient>
<linearGradient id="paint5_linear_3872_894" x1="2705.47" y1="132.77" x2="-592.027" y2="132.769" gradientUnits="userSpaceOnUse">
<stop stop-color="#D2CFCA"/>
<stop offset="1" stop-color="#9C6868"/>
</linearGradient>
<linearGradient id="paint6_linear_3872_894" x1="2702.19" y1="228.77" x2="-595.304" y2="228.769" gradientUnits="userSpaceOnUse">
<stop stop-color="#D2CFCA"/>
<stop offset="1" stop-color="#9C6868"/>
</linearGradient>
<linearGradient id="paint7_linear_3872_894" x1="2700.55" y1="68.7695" x2="-596.941" y2="68.7694" gradientUnits="userSpaceOnUse">
<stop stop-color="#D2CFCA"/>
<stop offset="1" stop-color="#9C6868"/>
</linearGradient>
<linearGradient id="paint8_linear_3872_894" x1="2707.11" y1="164.77" x2="-590.39" y2="164.769" gradientUnits="userSpaceOnUse">
<stop stop-color="#D2CFCA"/>
<stop offset="1" stop-color="#9C6868"/>
</linearGradient>
<linearGradient id="paint9_linear_3872_894" x1="2703.83" y1="260.77" x2="-593.663" y2="260.769" gradientUnits="userSpaceOnUse">
<stop stop-color="#D2CFCA"/>
<stop offset="1" stop-color="#9C6868"/>
</linearGradient>
<linearGradient id="paint10_linear_3872_894" x1="2694" y1="292.77" x2="-603.491" y2="292.769" gradientUnits="userSpaceOnUse">
<stop stop-color="#D2CFCA"/>
<stop offset="1" stop-color="#9C6868"/>
</linearGradient>
<linearGradient id="paint11_linear_3872_894" x1="2692.36" y1="324.77" x2="-605.132" y2="324.769" gradientUnits="userSpaceOnUse">
<stop stop-color="#D2CFCA"/>
<stop offset="1" stop-color="#9C6868"/>
</linearGradient>
<linearGradient id="paint12_linear_3872_894" x1="2694" y1="356.77" x2="-603.491" y2="356.769" gradientUnits="userSpaceOnUse">
<stop stop-color="#D2CFCA"/>
<stop offset="1" stop-color="#9C6868"/>
</linearGradient>
<linearGradient id="paint13_linear_3872_894" x1="2697.28" y1="388.77" x2="-600.218" y2="388.769" gradientUnits="userSpaceOnUse">
<stop stop-color="#D2CFCA"/>
<stop offset="1" stop-color="#9C6868"/>
</linearGradient>
<linearGradient id="paint14_linear_3872_894" x1="2707.11" y1="484.77" x2="-590.39" y2="484.769" gradientUnits="userSpaceOnUse">
<stop stop-color="#D2CFCA"/>
<stop offset="1" stop-color="#9C6868"/>
</linearGradient>
<linearGradient id="paint15_linear_3872_894" x1="2700.55" y1="580.77" x2="-596.941" y2="580.769" gradientUnits="userSpaceOnUse">
<stop stop-color="#D2CFCA"/>
<stop offset="1" stop-color="#9C6868"/>
</linearGradient>
<linearGradient id="paint16_linear_3872_894" x1="2694" y1="676.77" x2="-603.491" y2="676.769" gradientUnits="userSpaceOnUse">
<stop stop-color="#D2CFCA"/>
<stop offset="1" stop-color="#9C6868"/>
</linearGradient>
<linearGradient id="paint17_linear_3872_894" x1="2703.83" y1="772.77" x2="-593.663" y2="772.769" gradientUnits="userSpaceOnUse">
<stop stop-color="#D2CFCA"/>
<stop offset="1" stop-color="#9C6868"/>
</linearGradient>
<linearGradient id="paint18_linear_3872_894" x1="2710.38" y1="868.77" x2="-587.113" y2="868.769" gradientUnits="userSpaceOnUse">
<stop stop-color="#D2CFCA"/>
<stop offset="1" stop-color="#9C6868"/>
</linearGradient>
<linearGradient id="paint19_linear_3872_894" x1="2713.66" y1="964.77" x2="-583.835" y2="964.769" gradientUnits="userSpaceOnUse">
<stop stop-color="#D2CFCA"/>
<stop offset="1" stop-color="#9C6868"/>
</linearGradient>
<linearGradient id="paint20_linear_3872_894" x1="2710.38" y1="1060.77" x2="-587.113" y2="1060.77" gradientUnits="userSpaceOnUse">
<stop stop-color="#D2CFCA"/>
<stop offset="1" stop-color="#9C6868"/>
</linearGradient>
<linearGradient id="paint21_linear_3872_894" x1="2695.64" y1="420.77" x2="-601.855" y2="420.769" gradientUnits="userSpaceOnUse">
<stop stop-color="#D2CFCA"/>
<stop offset="1" stop-color="#9C6868"/>
</linearGradient>
<linearGradient id="paint22_linear_3872_894" x1="2705.47" y1="516.77" x2="-592.027" y2="516.769" gradientUnits="userSpaceOnUse">
<stop stop-color="#D2CFCA"/>
<stop offset="1" stop-color="#9C6868"/>
</linearGradient>
<linearGradient id="paint23_linear_3872_894" x1="2698.92" y1="612.77" x2="-598.577" y2="612.769" gradientUnits="userSpaceOnUse">
<stop stop-color="#D2CFCA"/>
<stop offset="1" stop-color="#9C6868"/>
</linearGradient>
<linearGradient id="paint24_linear_3872_894" x1="2692.36" y1="708.77" x2="-605.132" y2="708.769" gradientUnits="userSpaceOnUse">
<stop stop-color="#D2CFCA"/>
<stop offset="1" stop-color="#9C6868"/>
</linearGradient>
<linearGradient id="paint25_linear_3872_894" x1="2702.19" y1="804.77" x2="-595.304" y2="804.769" gradientUnits="userSpaceOnUse">
<stop stop-color="#D2CFCA"/>
<stop offset="1" stop-color="#9C6868"/>
</linearGradient>
<linearGradient id="paint26_linear_3872_894" x1="2708.75" y1="900.77" x2="-588.749" y2="900.769" gradientUnits="userSpaceOnUse">
<stop stop-color="#D2CFCA"/>
<stop offset="1" stop-color="#9C6868"/>
</linearGradient>
<linearGradient id="paint27_linear_3872_894" x1="2712.02" y1="996.77" x2="-585.472" y2="996.769" gradientUnits="userSpaceOnUse">
<stop stop-color="#D2CFCA"/>
<stop offset="1" stop-color="#9C6868"/>
</linearGradient>
<linearGradient id="paint28_linear_3872_894" x1="2708.75" y1="1092.77" x2="-588.749" y2="1092.77" gradientUnits="userSpaceOnUse">
<stop stop-color="#D2CFCA"/>
<stop offset="1" stop-color="#9C6868"/>
</linearGradient>
<linearGradient id="paint29_linear_3872_894" x1="2697.28" y1="452.77" x2="-600.218" y2="452.769" gradientUnits="userSpaceOnUse">
<stop stop-color="#D2CFCA"/>
<stop offset="1" stop-color="#9C6868"/>
</linearGradient>
<linearGradient id="paint30_linear_3872_894" x1="2707.11" y1="548.77" x2="-590.39" y2="548.769" gradientUnits="userSpaceOnUse">
<stop stop-color="#D2CFCA"/>
<stop offset="1" stop-color="#9C6868"/>
</linearGradient>
<linearGradient id="paint31_linear_3872_894" x1="2700.55" y1="644.77" x2="-596.941" y2="644.769" gradientUnits="userSpaceOnUse">
<stop stop-color="#D2CFCA"/>
<stop offset="1" stop-color="#9C6868"/>
</linearGradient>
<linearGradient id="paint32_linear_3872_894" x1="2694" y1="740.77" x2="-603.491" y2="740.769" gradientUnits="userSpaceOnUse">
<stop stop-color="#D2CFCA"/>
<stop offset="1" stop-color="#9C6868"/>
</linearGradient>
<linearGradient id="paint33_linear_3872_894" x1="2703.83" y1="836.77" x2="-593.663" y2="836.769" gradientUnits="userSpaceOnUse">
<stop stop-color="#D2CFCA"/>
<stop offset="1" stop-color="#9C6868"/>
</linearGradient>
<linearGradient id="paint34_linear_3872_894" x1="2710.38" y1="932.77" x2="-587.113" y2="932.769" gradientUnits="userSpaceOnUse">
<stop stop-color="#D2CFCA"/>
<stop offset="1" stop-color="#9C6868"/>
</linearGradient>
<linearGradient id="paint35_linear_3872_894" x1="2713.66" y1="1028.77" x2="-583.835" y2="1028.77" gradientUnits="userSpaceOnUse">
<stop stop-color="#D2CFCA"/>
<stop offset="1" stop-color="#9C6868"/>
</linearGradient>
<linearGradient id="paint36_linear_3872_894" x1="2710.38" y1="1124.77" x2="-587.113" y2="1124.77" gradientUnits="userSpaceOnUse">
<stop stop-color="#D2CFCA"/>
<stop offset="1" stop-color="#9C6868"/>
</linearGradient>
<clipPath id="clip0_3872_894">
<path d="M1.48828 1.26953H2693.49V1132.27H1.48828V1.26953Z" fill="white"/>
</clipPath>
</defs>
</svg>
