<svg width="238" height="163" viewBox="0 0 238 163" fill="none" xmlns="http://www.w3.org/2000/svg">
<path d="M215.671 62.9574C237.152 68.3921 236.579 92.211 233.608 103.441C231.765 120.004 219.578 149.629 185.578 135.629C181.745 144.129 168.479 159.63 146.079 153.63C123.679 147.63 120.745 131.796 122.078 124.629C118.411 131.629 107.778 145.029 94.5778 142.629C81.3778 140.229 79.0778 124.629 79.5778 117.129C73.7444 128.129 55.9778 146.429 31.5778 131.629C7.17777 116.829 15.4111 98.4627 22.5778 91.1294C15.2439 88.958 1.07616 81.5181 3.07616 69.1294C5.07616 56.7407 18.202 53.6435 24.515 53.6435C31.0528 22.6138 60.4199 31.0365 74.2863 39.1266C73.8443 29.8037 81.337 10.0601 114.844 5.66823C148.351 1.2764 161.239 33.3354 163.494 49.9138C164.947 41.836 173.231 27.2273 194.748 33.4151C216.265 39.603 217.662 55.6883 215.671 62.9574Z" fill="#D9D9D9" stroke="#B2B2B2" stroke-width="4"/>
<path d="M124.074 24.3202C118.574 22.5028 104.677 31.4719 98.3854 36.2088L97.8306 25.5393C105.169 19.8902 118.325 22.3559 124.074 24.3202C124.103 24.3297 124.131 24.3394 124.159 24.3495C124.131 24.3397 124.103 24.33 124.074 24.3202Z" fill="#FDFDFD"/>
<path d="M133.347 33.2233C135.379 33.2439 138.881 32.3322 136.641 28.52C133.84 23.7547 128.57 31.28 133.347 33.2233Z" fill="#FDFDFD"/>
<path d="M111.902 25.6326C109.428 25.5348 106.794 25.8112 104.569 26.2316C104.296 26.2831 104.253 26.0461 104.167 26.0358C103.934 26.0084 103.89 26.3189 103.738 26.3434C102.992 26.467 102.335 26.6761 101.657 26.902C100.966 27.1437 100.921 26.3278 100.597 26.2925C99.9573 26.2424 100.834 26.8714 100.771 27.1614C100.356 27.3491 99.9373 27.535 99.5277 27.7439L100.609 25.3948C100.596 25.538 100.582 25.6811 100.568 25.8241C100.486 25.6863 100.406 25.5484 100.329 25.4094L99.3565 27.5215C99.3678 27.4922 99.3795 27.4629 99.3914 27.4337C99.3692 27.4479 99.3453 27.4617 99.3205 27.4747L100.27 25.4125C100.243 25.7086 100.114 26.0262 99.8603 25.5701C99.7958 25.6891 99.719 25.8012 99.6564 25.9234C100.015 25.9374 100.072 26.488 100.286 26.5275C100.5 26.5668 100.435 26.259 100.454 26.2599C100.718 26.2668 100.424 27.5589 100.4 27.6522C100.334 27.899 99.8814 27.7092 99.9205 27.9142C99.9877 28.2669 100.874 27.9835 99.7042 28.5265C100.102 28.6976 99.9016 28.7248 99.8873 28.9684C99.8857 29.0004 100.109 28.964 100.116 28.9777C100.302 29.3357 99.869 29.0756 99.8464 29.0787C99.4635 29.132 99.6549 29.5165 99.6223 29.6013C99.2168 30.6653 98.9453 31.4435 98.8958 32.5465C98.8855 32.7849 99.0792 33.4993 99.0257 33.7323C98.9729 33.9621 98.6894 33.855 98.5625 33.9804C99.2392 34.1357 99.3221 34.3131 98.905 34.7624C99.3997 34.8958 99.0063 34.8958 99.1194 35.1949C99.2131 35.4439 99.8196 35.8548 99.3367 36.1593C99.3654 35.8375 99.1282 35.883 98.9652 35.5308C98.9112 35.4136 98.8361 34.1656 98.3437 34.2844C98.0871 34.3463 98.3466 34.7477 98.2997 34.7662C98.0261 34.8738 97.6718 34.6606 97.7811 34.4497C97.84 34.4978 97.9002 34.5563 97.9592 34.6082C98.2834 34.1303 96.963 34.516 98.1131 34.1058C98.2542 34.0552 98.4045 34.0642 98.553 33.985C98.4893 33.9737 98.3377 34.0689 98.3058 33.9953C98.2737 33.9202 98.5625 33.7595 98.3116 33.7508C97.9466 33.7373 98.1063 34.047 98.0863 34.0719C98.0885 34.0721 98.0907 34.0722 98.0929 34.0724C97.911 34.2934 97.8661 33.8539 97.8306 33.8346C97.5971 33.7101 97.4277 33.8121 97.23 33.6172C97.1175 33.5061 97.1648 33.2056 97.1247 33.0977C97.0838 32.9905 96.9207 33.169 96.88 33.0976C96.8393 33.0262 96.9651 32.9281 96.9179 32.8442C96.8971 32.8084 96.7055 32.8202 96.6979 32.8027C96.6142 32.6153 97.0194 32.72 96.9861 32.5478C96.9641 32.4363 96.5728 32.0785 96.4756 32.3442C96.4305 32.2213 96.396 32.1009 96.3593 31.9781C96.3064 32.0595 96.2719 32.1425 96.2088 32.2225C96.2879 31.9838 95.9544 31.8951 95.9224 31.7497C95.8904 31.6043 96.2772 31.4524 96.0768 31.301C95.6504 30.9779 95.8835 31.8208 95.816 31.9304C95.7895 31.9732 95.4729 31.8308 95.4628 31.8068C95.4186 31.7005 95.6325 31.5608 95.6182 31.4778C95.5658 31.1806 95.2653 31.0126 95.1917 30.7307C94.9416 29.7705 94.7171 28.5749 94.6056 27.6586C94.5643 27.3174 94.8807 27.0943 94.8635 26.9411C94.823 26.5827 94.5356 26.5535 94.5041 26.2406C94.4878 26.0816 94.5021 25.8986 94.5294 25.711L94.644 23.6355L95.8142 22.9198C96.215 22.7003 96.663 22.5355 96.9454 22.3931C97.2405 22.243 97.3526 21.853 97.425 21.802C98.4091 21.0879 99.7395 20.5012 100.645 20.1751C101.072 20.0187 101.373 20.25 101.457 20.2125C101.82 20.0558 101.64 19.8342 101.956 19.7673C102.127 19.7319 102.228 19.9686 102.253 19.9718C102.469 19.9979 102.421 19.6665 102.571 19.615C103.436 19.3198 104.334 19.3577 105.197 19.2523C105.26 19.2449 105.278 19.3914 105.317 19.3776C105.485 19.3152 105.369 19.0978 105.55 19.0541C105.924 18.9631 106.32 18.9519 106.723 18.9387C106.763 18.9374 106.801 19.1239 106.891 19.1149C106.981 19.1058 107.032 18.9202 107.175 18.917C107.551 18.9089 107.931 19.0961 108.32 19.0856C108.384 19.0836 108.452 18.8512 108.55 18.8488C108.856 18.8404 109.311 19.0323 109.569 19.0348C110.42 19.0401 111.203 18.9207 111.999 18.9506C112.187 18.9582 112.342 19.1775 112.438 19.1874C112.654 19.2096 112.501 19.0012 112.722 19.0126C114.533 19.1117 116.307 19.4149 118.091 19.7057C118.79 19.8192 119.681 19.7831 120.341 19.9866C120.618 20.0722 120.607 20.3533 120.8 20.4001C121.148 20.484 121.3 20.1557 121.675 20.2113C121.98 20.2579 122.232 20.6878 122.54 20.7483C122.859 20.8118 123.081 20.5167 123.454 20.581C123.759 20.6339 124.121 20.906 124.446 20.9836C124.704 21.0439 124.994 21.1183 125.251 21.1871L123.036 27.5006C122.552 27.4299 120.1 27.9446 117.971 28.555C117.099 28.7871 116.19 29.2355 115.173 29.3427C115.077 29.3529 115.062 28.9926 114.826 29.1822C114.698 29.2856 114.627 29.6364 114.308 29.8104C112.412 30.8421 110.058 31.4714 108.188 32.7574C105.355 34.7061 103.89 38.5627 99.4898 37.546C99.2755 37.4949 98.8358 36.7855 98.763 36.5447C98.9283 36.6317 99.108 36.7476 99.29 36.8496C98.7548 35.9533 98.9028 36.1793 99.2829 36.0145C99.5121 35.9176 99.0928 35.6747 99.123 35.496C99.1614 35.2644 99.5193 34.3719 99.7944 35.0221C99.7648 34.8965 99.7352 34.777 99.7066 34.6538C100.128 34.2226 100.489 33.7567 100.845 33.2695C100.906 33.1848 100.787 33.0048 100.852 32.9179C101.028 32.6819 101.288 32.6753 101.508 32.4983C101.629 32.4018 101.506 32.1835 101.684 32.0822C101.863 31.9804 102.046 32.2632 102.069 31.8066C101.683 31.5568 102.525 31.3614 102.747 31.1847C102.779 31.1595 102.854 30.6557 103.031 30.5924C103.209 30.5274 103.57 30.5818 103.731 30.3144C103.807 30.1888 103.715 29.8967 103.827 29.8053C103.905 29.7412 104.149 29.8969 104.261 29.8391C104.373 29.7808 104.489 29.4522 104.53 29.4223C104.677 29.3134 104.605 29.5766 104.715 29.5183C105.247 29.2338 105.889 28.9542 106.331 28.5432C106.385 28.4928 106.186 28.3584 106.191 28.3472C106.477 27.8632 106.397 28.2424 106.612 28.3409C106.819 28.4348 107.579 27.8675 107.396 27.5375C107.66 27.932 107.659 27.5136 107.7 27.474C107.858 27.3207 108.026 27.6967 108.142 27.4841C108.185 27.4063 107.919 27.2395 107.994 27.2059C108.179 27.1229 108.557 27.42 108.811 27.3279C108.872 27.3058 108.793 27.1227 108.897 27.0721C109.001 27.0212 109.541 26.9994 109.144 26.7417C109.563 26.8928 109.524 26.704 109.829 26.5488C109.906 26.5098 110.156 26.7378 110.271 26.5638C110.31 26.5049 110.163 26.2342 110.245 26.1878C110.431 26.0805 110.756 26.2692 111.005 26.1538C111.467 25.9403 111.849 25.495 112.364 25.3315C112.504 25.2878 112.607 25.5816 112.797 25.4963C112.824 25.483 112.939 25.1307 113.082 25.091C113.168 25.0662 113.658 25.0454 113.746 25.0223C113.895 24.9806 113.796 24.6969 113.897 24.7155C114.187 24.7699 114.189 25.2518 114.208 24.583C114.431 24.8498 114.571 24.7519 114.784 25.108C114.691 24.6564 114.983 25.0021 115.099 24.7889C115.214 24.5757 115.026 23.7082 115.428 24.5591C115.464 24.4199 115.745 24.096 115.802 24.0584C115.966 23.9503 115.966 24.2299 116.087 24.1448C116.109 24.1303 116.019 23.9739 116.177 23.9318C116.276 23.9038 117.025 23.6408 117.077 23.651C117.67 23.7393 116.861 23.9121 116.818 24.1356C116.781 24.0951 116.745 24.0545 116.707 24.0153C116.454 24.0195 116.722 24.3482 116.854 24.399C116.986 24.4496 117.111 24.2143 117.238 24.3096C117.301 24.3576 117.435 24.8204 117.294 24.8091C117.474 24.9022 117.349 25.1131 117.448 25.226C117.557 25.3473 118.139 25.1974 118.065 24.9442C117.95 24.9723 117.819 25.0264 117.707 25.0535C117.406 24.6705 117.351 23.0196 117.983 23.4813C118.427 23.8212 118.022 24.32 118.639 23.7378C118.52 23.7529 118.411 23.7405 118.306 23.7521C118.195 23.4242 118.467 23.7393 118.525 23.6081C118.552 23.5438 118.221 23.3859 118.426 23.2409C118.758 23.6596 118.769 23.1386 119.093 23.0483C119.025 23.1569 118.958 23.2654 118.892 23.3748C119.518 23.5783 118.32 24.0212 119.395 23.9434C119.277 23.9897 119.154 24.0176 119.037 24.0749C119.144 24.2338 119.191 24.7732 119.272 24.8676C119.485 25.1155 119.629 24.8939 119.807 24.8775C119.882 24.8704 119.871 25.0212 119.877 25.0205C119.979 25.0125 119.909 24.8125 119.993 24.7792C120.102 24.7359 120.448 24.8726 120.5 24.8395C120.624 24.7546 120.318 24.3906 120.323 24.3581C120.373 24.1421 120.586 24.2723 120.529 24.0151C120.131 24.2623 118.82 24.3516 119.869 23.6517C119.455 23.3101 119.405 22.7145 119.884 22.5653C120.29 22.4446 120.071 22.728 120.33 22.9421C120.368 22.9657 120.914 23.0024 120.924 22.8191C120.962 23.2388 121.184 23.5854 121.127 24.0314C121.118 24.0967 120.912 24.1015 121.033 24.4367C121.092 24.6053 121.245 24.9695 121.259 25.1932C121.277 25.034 121.295 24.8552 121.316 24.6892C121.603 24.6086 121.661 24.7738 121.833 25.0503C121.819 24.9302 121.629 24.4347 121.867 24.572C121.879 24.5805 121.903 24.7611 122.019 24.8455C122.251 25.0164 122.28 25.074 122.147 25.6139C122.547 25.2982 122.635 25.8964 123 25.7609C123.009 25.0699 122.839 25.2128 122.443 25.3405C122.427 25.1766 122.418 25.0144 122.401 24.849C122.955 25.2326 122.657 25.1866 122.994 24.8787C123.084 24.8013 123.462 24.9534 123.412 24.4748C123.4 24.3598 123.121 24.3335 123.173 24.1678C123.183 24.1334 123.545 24.105 123.564 24.1574C123.791 24.7487 123.199 24.9662 123.916 25.0333L124.396 23.6633C124.355 23.6561 124.309 23.649 124.26 23.6418C124.23 23.6379 124.156 23.8244 124.092 23.8324C123.972 23.8471 124.044 23.6263 123.933 23.6459C123.818 23.6649 123.597 23.9215 123.547 23.6027C123.445 23.0195 124.152 22.9244 124.339 23.2841C124.68 22.6598 122.676 22.0232 122.542 22.0617C121.936 22.1604 122.866 22.2631 122.863 22.4627C122.86 22.546 122.567 23.5245 122.976 22.9533C123.098 22.7845 122.891 22.4541 123.089 22.399C123.287 22.3442 123.135 22.6133 123.141 22.637C123.162 22.7181 123.367 22.6633 123.377 22.7109C123.545 23.44 123.218 24.3619 123.181 22.8406C122.89 23.0947 123.191 23.7283 122.885 23.868C122.517 24.0392 122.417 23.5269 122.39 23.4971C122.009 23.1325 122.346 23.9318 121.851 23.5706C121.57 23.3697 122.436 23.259 121.713 23.111C121.114 22.9939 121.373 23.3066 121.197 23.8167C121.155 23.9361 120.798 24.004 121.246 24.0618C121.293 23.9292 121.363 23.7563 121.423 23.6383C121.505 23.7654 121.496 24.4895 121.548 24.5289C121.792 24.716 121.876 24.3616 121.918 24.819C121.932 24.3354 122.04 24.6592 122.135 24.5833C122.497 24.3078 122.2 24.0785 122.646 24.6997C122.635 24.4667 122.628 24.2393 122.615 24.007C122.688 24.0206 122.76 24.0341 122.832 24.0477C122.792 24.5412 123.189 24.5984 122.705 24.9605C123.075 25.2181 123.246 25.1645 123.458 24.8365C123.497 24.7736 123.568 24.7664 123.641 24.7834C123.661 24.6783 123.746 24.3616 123.77 24.3272C123.985 24.026 123.943 24.6566 123.816 24.8593C123.861 24.8863 123.894 24.9116 123.906 24.9215C123.978 24.9845 123.745 25.1274 123.79 25.219C123.794 25.2277 123.818 25.2369 123.849 25.2478L124.479 23.4544C124.38 23.4181 124.222 23.3759 124.234 23.3166C124.343 22.7883 124.803 23.2861 123.759 22.7195C123.644 23.2019 124.15 23.203 123.899 23.6907C123.649 24.2143 123.565 23.4212 123.394 24.1031C123.393 23.9866 123.4 23.8905 123.403 23.7585C122.99 24.0083 123.05 23.4379 122.936 23.2984C122.706 23.0178 121.64 23.0727 122.584 23.5737C122.442 23.6207 122.311 23.6447 122.181 23.6927C122.122 22.6532 122.218 23.0487 121.528 22.9418C121.381 22.9198 121.278 22.4688 121.195 23.0278C121.153 22.492 120.742 22.8738 120.701 22.8164C120.351 22.4389 121.324 21.7072 121.538 22.6497C121.672 22.2691 121.719 22.7535 121.905 22.6785C122.18 22.573 122.219 22.4754 122.555 22.8381C122.898 22.3202 121.241 22.6447 122.236 21.9434C122.59 21.7288 123.557 21.446 125.073 21.7886L123.272 26.9196C121.675 26.6865 119.455 26.3497 118.764 26.2786C116.864 26.0705 115.859 26.0385 114.182 25.8206C114.015 25.7951 112.762 25.7393 113.066 25.1782C113.107 25.0965 113.679 24.92 113.241 24.4235C113.315 24.7013 113.025 24.8554 113 24.8825C112.425 25.4935 112.72 25.6673 111.902 25.6326ZM109.345 20.3931C110.579 20.5011 109.667 20.1282 109.913 19.2398C109.75 19.2394 109.588 19.2401 109.424 19.2418C109.468 19.2961 109.512 19.3503 109.556 19.4047C109.556 19.4047 109.556 19.4047 109.557 19.4047C109.484 19.7339 109.413 20.0635 109.345 20.3931ZM95.9239 32.5752C95.8054 32.5355 95.6866 32.4963 95.5704 32.4527C95.5984 32.2958 95.6257 32.1397 95.6537 31.9829C95.7335 31.9972 95.8142 32.011 95.894 32.0253C95.9002 32.2088 95.906 32.3917 95.9239 32.5752ZM124.538 23.2169C124.54 23.2236 124.542 23.2301 124.544 23.2362L123.764 25.4588C123.714 25.14 123.569 25.6695 123.434 25.3706C123.365 25.7916 123.289 26.202 123.2 26.6143C123.281 26.5865 123.34 26.4958 123.389 26.5101L124.908 22.1811C124.867 22.1678 124.823 22.1427 124.773 22.0989C124.757 22.2381 124.741 22.3781 124.723 22.5176C124.748 22.5103 124.774 22.5023 124.8 22.4946L123.5 26.1977C123.486 26.2086 123.473 26.2193 123.46 26.2285C123.495 26.0915 123.543 26.0056 123.594 25.9341L124.708 22.7592C124.587 22.871 124.461 22.9431 124.537 23.2175C124.538 23.2173 124.538 23.2171 124.538 23.2169ZM122.028 25.4567C121.922 25.4042 121.5 25.2351 121.46 25.4198C121.362 26.0264 122.385 25.5518 121.656 26.1523C121.668 26.2353 121.674 26.3174 121.683 26.4C121.824 26.4142 121.956 26.4286 122.092 26.4448C122.067 26.1148 122.055 25.7883 122.028 25.4567ZM113.78 20.4873C113.965 20.5464 114.888 20.3558 114.634 19.9499C114.557 19.8303 114.103 20.3309 113.953 20.2948C113.855 20.2711 113.992 19.9846 113.786 20.0767C113.784 20.2079 113.777 20.353 113.781 20.4865C113.781 20.4867 113.781 20.487 113.78 20.4873ZM113.297 22.1826C113.486 22.1439 113.684 22.0929 113.878 22.0537C113.77 21.704 113.477 21.8982 113.498 21.4224C113.554 21.3906 113.609 21.359 113.665 21.3274C113.696 21.4345 113.727 21.5417 113.758 21.6488C113.944 21.4054 113.857 21.2681 114.157 21.3709C114.04 20.6376 114.029 20.2464 113.439 20.9303C113.57 20.5489 113.571 19.2717 113.203 20.1573C113.136 20.3217 113.361 20.4508 113.361 20.478C113.372 20.8138 113.229 21.0171 113.244 21.3347C113.25 21.4783 113.388 21.4865 113.394 21.6858C113.396 21.7828 113.245 22.0481 113.297 22.1826ZM113.036 20.4652C113.111 20.2674 112.934 19.7739 112.745 19.8605C112.453 19.9951 112.873 20.4765 113.036 20.4652ZM95.9244 32.5762C95.9242 32.5759 95.9241 32.5755 95.9239 32.5752C95.9244 32.5753 95.9248 32.5755 95.9253 32.5756C95.925 32.5758 95.9247 32.576 95.9244 32.5762ZM122.526 25.6818C122.41 25.8508 122.259 25.829 122.275 26.1024C122.224 26.0497 122.17 25.9986 122.114 25.9474C122.119 26.0295 122.123 26.1118 122.128 26.1931C122.285 26.2373 122.425 26.2874 122.565 26.3441C122.555 26.1236 122.544 25.9023 122.526 25.6818ZM120.63 25.686C120.398 25.7049 120.662 26.0309 120.649 26.217C120.639 26.4021 120.417 26.3011 120.495 26.5481C120.624 26.5296 120.751 26.5134 120.884 26.4973C120.798 26.2283 120.718 25.9527 120.629 25.6861C120.63 25.686 120.63 25.686 120.63 25.686ZM104.237 20.6689C104.439 20.7104 104.416 21.0031 104.718 20.6072C104.718 20.6073 104.718 20.6073 104.717 20.6074C104.327 20.4429 103.829 20.335 103.492 20.6469C103.796 20.8829 103.919 20.6061 104.237 20.6689ZM124.197 22.2199C124.052 22.4093 124.344 22.7018 124.484 22.5289C124.717 22.2497 124.418 21.9312 124.197 22.2199ZM98.2144 25.2823C98.4173 25.9921 99.2382 26.3474 99.4509 25.8175C99.4711 25.7691 99.0882 25.754 99.0921 25.5905C99.0927 25.5738 99.2487 25.4932 99.2347 25.3886C99.2207 25.2834 99.062 25.1181 99.0749 24.9993C99.0999 24.7893 99.5082 24.9018 99.4846 24.6678C99.4821 24.6356 99.1722 24.4682 99.1554 24.4652C98.8953 24.4073 98.9419 24.8403 98.92 24.8571C98.8 24.9485 98.6538 24.678 98.5818 24.6382C98.4458 24.564 98.411 24.7497 98.3982 24.7462C98.0511 24.6533 98.546 24.4174 98.5515 24.2863C98.5654 23.9269 98.2531 23.7872 98.5989 23.3867C98.6297 23.3499 99.142 23.0777 98.3381 23.1431C99.2559 21.7959 97.4765 23.157 97.3839 23.4507C97.3338 23.5732 97.6357 23.7223 97.6548 23.8686C97.7006 24.201 97.5313 24.3869 97.7972 24.7195C98.3537 25.4192 98.2628 24.7674 98.5261 24.7755C98.6141 24.9498 98.7111 25.1125 98.7832 25.2924C98.694 25.043 98.1989 25.2263 98.2134 25.2809C98.2137 25.2814 98.214 25.2819 98.2144 25.2823ZM100.662 22.7699C101.046 22.9025 100.816 22.3872 101.197 22.5854C101.251 22.0225 100.798 22.2323 100.733 22.2294C100.439 22.2111 100.229 21.702 100.037 21.9694C100.256 22.2293 100.456 22.502 100.662 22.7699ZM98.1588 23.8092C98.1861 23.4541 97.8658 23.6625 97.8229 23.6266C97.36 23.2301 98.4141 22.7057 98.1588 23.8092ZM114.823 21.7283C114.92 21.7584 114.887 21.4797 114.984 21.4093C115.082 21.3381 115.353 21.6059 115.366 21.4363C115.381 21.266 114.875 20.7613 115.445 20.7323C115.438 20.635 115.453 20.5649 115.454 20.478C115.3 20.4569 115.144 20.4346 114.989 20.4149C115.044 20.6981 115.098 20.9959 115.148 21.2696C115.037 21.4775 115.021 21.1928 115.016 21.1923C115.016 21.1925 115.016 21.1928 115.016 21.1931C114.853 21.1969 114.605 21.6614 114.823 21.7283ZM106.881 20.7979C106.923 21.4817 107.082 20.6962 107.176 20.6022C107.268 20.5083 107.429 20.7484 107.351 20.4597C107.168 20.2715 106.875 20.7214 106.881 20.7988C106.881 20.7985 106.881 20.7982 106.881 20.7979ZM102.22 22.1957C102.412 21.961 102.325 21.8011 102.684 21.907C102.626 21.7515 102.567 21.5927 102.509 21.4398C102.262 21.5094 102.421 21.9627 102.086 21.8661C102.03 21.8506 102.012 21.4529 101.841 21.6386C101.965 21.8131 102.097 22.0095 102.22 22.1957ZM103.282 21.2549C102.994 21.3551 103.124 22.7055 103.483 21.9884C103.536 21.8819 103.496 21.1813 103.282 21.2549ZM112.226 21.5551C112.702 21.6181 112.171 21.3739 112.052 21.1635C113.186 21.0553 111.927 21.2112 111.836 20.5262C111.687 20.7154 111.416 21.1528 111.698 21.2815C111.816 21.3352 111.779 21.1301 111.787 21.1312C112.005 21.1901 111.965 21.5218 112.226 21.5551ZM100.187 23.0141C100.2 22.997 100.076 22.7992 100.113 22.7318C100.151 22.6643 100.343 22.7559 100.299 22.6207C100.255 22.4837 99.9502 22.4981 99.9154 22.6296C99.8811 22.7614 100.069 23.1662 100.187 23.0141ZM102.154 22.8525C102.334 22.6173 101.682 21.9365 101.626 21.961C101.185 22.1632 102.088 22.5877 102.154 22.8525ZM111.082 22.9629C111.65 22.5439 111.268 21.7808 110.906 21.3253C110.856 21.4161 110.806 21.5072 110.758 21.5973C110.981 21.0446 111.381 20.4979 110.511 20.9747C110.981 21.1085 110.585 21.2552 110.583 21.2866C110.527 22.3063 111.211 21.8412 111.082 22.9629C111.082 22.9629 111.082 22.9629 111.082 22.9629ZM99.3397 23.1561C99.0973 23.2809 98.5868 23.7791 99.086 24.0057C99.1613 23.7229 99.2455 23.4396 99.3397 23.1561ZM120.161 24.085C120.299 24.3788 120.477 24.417 120.715 24.4587C120.593 24.047 120.741 24.0398 120.835 23.9697C120.978 23.8645 120.71 23.8095 120.715 23.7852C120.803 23.4447 120.989 23.4333 120.595 23.3464C120.721 23.2506 120.846 23.154 120.972 23.0596C120.677 22.9707 120.658 22.7307 120.525 22.4114C120.56 23.1237 120.403 22.6453 120.109 22.9283C119.963 23.0702 120.089 23.934 120.162 24.0851C120.162 24.0851 120.161 24.085 120.161 24.085ZM111.653 23.1162C111.714 22.9948 111.773 22.8299 111.835 22.6912C111.896 22.6802 111.958 22.671 112.02 22.6603C112.022 22.7696 112.023 22.884 112.027 22.9892C112.106 23.0246 112.082 22.8714 112.106 22.8582C112.106 22.8588 112.106 22.8594 112.106 22.86C112.456 22.6752 112.598 22.7066 112.843 23.0606C112.865 22.7269 112.887 22.3932 112.909 22.0595C112.846 22.0873 112.782 22.1143 112.719 22.1416C112.675 22.3189 112.632 22.4964 112.589 22.6739C112.524 22.5708 112.461 22.4687 112.396 22.3659C112.336 22.4274 112.265 22.4919 112.214 22.5524C111.978 21.6047 112.587 22.2711 112.615 21.8853C112.634 21.6353 111.978 21.6127 111.877 21.7825C111.863 21.8072 111.975 22.508 111.753 22.1365C111.719 22.0783 111.754 20.572 111.458 21.783C111.417 21.9549 111.516 22.8934 111.653 23.1162ZM113.894 23.7479C113.632 22.7537 114.837 23.8977 114.353 23.0518C114.561 22.6285 114.532 22.6312 114.405 22.2232C114.394 22.1867 114.522 22.0775 114.514 22.0612C114.378 21.8292 114.181 21.9256 114.217 21.5334C114.172 21.5502 114.13 21.565 114.086 21.5819C114.228 21.968 113.924 22.1899 113.79 22.4928C113.729 22.6299 113.837 22.6833 113.785 22.8034C113.766 22.8471 113.619 22.7436 113.601 22.8726C113.564 23.1645 113.627 23.5683 113.769 23.7986C113.769 23.7989 113.769 23.7992 113.769 23.7995C113.811 23.7839 113.852 23.7642 113.894 23.7479ZM106.369 23.037C106.24 22.5176 105.967 22.4001 106.409 22.0782C106.371 21.9773 106.334 21.8774 106.296 21.7765C106.216 21.7965 106.138 21.8163 106.057 21.8363C106.039 23.4222 105.336 21.7438 105.789 22.7976C105.839 22.9121 106.002 22.7502 105.871 23.1029C105.871 23.1031 105.871 23.1034 105.872 23.1036C106.109 22.965 106.117 22.7735 106.369 23.037ZM108.049 22.49C108.578 21.3268 107.156 21.9334 107.43 22.2123C107.453 22.2355 108.057 21.9449 108.049 22.49ZM103.584 24.2164C103.833 24.1677 103.697 23.58 103.616 23.3759C103.534 23.1714 103.413 23.4327 103.382 23.406C103.276 23.3176 103.416 23.2012 103.276 23.0785C103.231 23.0373 102.715 22.9635 102.701 22.9964C102.629 23.1698 102.943 23.5953 102.926 23.6601C102.878 23.8705 102.661 23.6674 102.711 23.9298C102.821 24.4886 102.896 23.8412 102.939 23.8184C103.065 23.752 103.145 24.0607 103.261 24.0929C103.377 24.1254 103.411 24.0021 103.505 23.9994C103.536 23.9986 103.571 24.2179 103.584 24.2164ZM104.112 22.7651C103.946 23.2731 104.711 23.6077 104.762 23.4903C104.929 23.13 104.201 22.5181 104.112 22.7651ZM113.122 22.2257C112.843 22.5383 113.417 22.8484 113.599 22.7309C113.58 22.5905 113.22 22.1177 113.122 22.2257ZM110.928 22.9584C111.163 22.8592 110.865 22.1059 110.663 22.1164C110.544 22.6068 110.654 22.5099 110.782 22.5315C110.91 22.5534 110.744 23.0363 110.928 22.9584ZM100.792 24.6578C100.832 24.6424 101.41 23.9495 100.916 23.9794C100.876 23.9803 100.385 24.2857 100.382 24.3744C100.373 24.5493 100.669 24.6906 100.792 24.6578ZM109.823 23.6845C109.937 23.2577 110.059 23.2621 109.939 22.7647C109.939 22.7647 109.939 22.7647 109.939 22.7647C110.252 22.6083 110.27 23.6299 110.335 23.6077C110.566 23.5312 110.347 22.8046 110.495 22.5664C110.149 22.7904 110.248 22.3006 109.981 22.2719C109.92 22.2657 109.687 22.5622 109.657 22.7454C109.628 22.9284 109.758 23.4722 109.823 23.6845ZM99.856 25.2594C100.159 25.275 100.057 24.5498 99.6698 24.6358C99.4782 24.6807 99.6675 25.2531 99.856 25.2594ZM121.446 23.0708C121.51 23.2459 121.573 23.4207 121.636 23.595C121.533 23.6474 121.431 23.7024 121.33 23.7589C121.408 23.6925 121.486 23.6278 121.566 23.564C121.361 23.5201 121.224 23.2055 121.446 23.0708C121.446 23.0708 121.446 23.0708 121.446 23.0708ZM114.479 25.0394C114.327 24.9165 114.386 25.4798 114.424 25.5089C114.703 25.7265 114.688 25.2104 114.479 25.0394ZM113.372 23.8847C113.676 23.9854 113.537 23.0951 113.347 23.0199C113.451 23.196 113.2 23.828 113.372 23.8847ZM116.818 24.1356C116.872 24.1958 116.927 24.256 116.984 24.3154C116.849 24.2533 116.806 24.1939 116.818 24.1356ZM101.228 25.308C101.296 25.3494 101.618 25.2685 101.626 25.1756C101.645 24.978 101.214 24.6353 101.129 24.837C101.119 24.8589 101.159 25.2656 101.228 25.3077C101.228 25.3078 101.228 25.3079 101.228 25.308ZM120.922 22.7955C120.923 22.8037 120.924 22.8116 120.924 22.8191C120.923 22.8113 120.922 22.8033 120.922 22.7955ZM107.373 27.5044C107.382 27.5151 107.39 27.5262 107.396 27.5375C107.389 27.5269 107.381 27.5162 107.373 27.5044ZM103.633 25.2108C103.966 25.982 104.077 25.4912 103.78 25.1457C103.764 25.1278 103.658 25.205 103.633 25.2108ZM135.07 30.3502C135.177 30.291 135.128 30.4714 134.968 30.5131C134.947 30.5184 134.721 30.433 134.689 30.427C134.601 30.4123 134.868 30.5129 134.846 30.5122C134.739 30.5172 134.693 30.538 134.6 30.5456C134.505 30.5526 133.755 30.5008 133.571 30.5173C133.211 30.5697 134.192 30.5412 134.412 30.5565C134.353 30.5679 134.247 30.5791 134.143 30.6052C134.053 30.6222 133.964 30.6331 133.879 30.6382C133.86 30.6493 133.717 30.7099 133.459 30.7192C133.391 30.7402 133.311 30.765 133.246 30.7905C133.597 30.7248 133.632 30.7478 133.836 30.6911C134.04 30.6351 133.993 30.6443 134.01 30.6395C134.265 30.5732 133.919 30.6731 133.897 30.6969C133.826 30.7315 133.417 30.8995 133.448 30.8998C133.506 30.9091 134.298 30.4794 133.246 31.0514C133.597 30.8833 133.418 30.9755 133.405 31.0072C133.403 31.011 133.596 30.8944 133.601 30.8921C133.753 30.8201 133.39 31.0286 133.369 31.0385C133.041 31.2408 133.212 31.1895 133.185 31.216C132.875 31.5765 132.765 31.9302 132.884 32.1615C132.914 32.2157 133.131 32.1773 133.137 32.2574C133.145 32.339 132.976 32.5602 132.932 32.6896C133.322 32.1454 133.376 32.0924 133.256 32.527C133.513 32.112 133.326 32.4581 133.433 32.4022C133.527 32.358 133.838 31.8575 133.706 32.3409C133.655 32.2707 133.57 32.4951 133.43 32.5901C133.379 32.6233 133.117 32.4967 132.881 32.932C132.764 33.1648 132.988 33.0161 132.967 33.0584C132.861 33.3175 132.641 33.5896 132.635 33.4484C132.678 33.4077 132.723 33.3677 132.766 33.3267C132.812 32.9535 132.225 34.1594 132.721 33.0942C132.784 32.9645 132.865 32.8386 132.928 32.6984C132.891 32.7501 132.831 32.8964 132.798 32.9093C132.764 32.9214 132.889 32.6494 132.75 32.8573C132.545 33.1587 132.704 33.0888 132.699 33.1101C132.7 33.1083 132.701 33.1065 132.702 33.1046C132.66 33.3043 132.529 33.2513 132.505 33.276C132.346 33.4433 132.279 33.6082 132.114 33.7242C132.019 33.7894 131.965 33.6754 131.91 33.6782C131.854 33.6811 131.809 33.8605 131.763 33.8728C131.716 33.8843 131.764 33.757 131.71 33.7698C131.686 33.7757 131.57 33.9282 131.56 33.9288C131.449 33.9363 131.738 33.6554 131.668 33.631C131.626 33.6186 131.261 33.7962 131.276 33.954C131.208 33.9475 131.148 33.9326 131.086 33.9173C131.074 33.9834 131.076 34.0371 131.059 34.1114C131.038 33.9714 130.782 34.1818 130.71 34.1465C130.636 34.1095 130.869 33.7856 130.676 33.8626C130.255 34.0149 130.706 34.2091 130.695 34.2914C130.691 34.3272 130.422 34.4983 130.404 34.4938C130.332 34.4788 130.436 34.2706 130.397 34.2457C130.257 34.156 129.972 34.2761 129.818 34.1854C129.288 33.8793 128.741 33.2711 128.478 32.7291C128.377 32.525 128.653 32.3017 128.618 32.2172C128.538 32.0149 128.255 32.0558 128.197 31.864C128.11 31.5746 128.309 31.1445 128.352 30.923C128.38 30.7681 128.103 30.6347 128.096 30.5919C127.989 30.0156 128.095 29.3466 128.199 28.9248C128.247 28.7215 128.574 28.7173 128.576 28.6769C128.588 28.501 128.322 28.4646 128.393 28.3354C128.431 28.2656 128.677 28.3368 128.689 28.3307C128.798 28.2764 128.491 28.1459 128.506 28.075C128.594 27.6676 128.959 27.4083 129.177 27.0923C129.193 27.0691 129.319 27.145 129.322 27.1259C129.329 27.0413 129.111 26.9544 129.139 26.874C129.198 26.7063 129.328 26.5763 129.458 26.4432C129.471 26.4298 129.63 26.5327 129.654 26.4997C129.678 26.4667 129.551 26.3353 129.599 26.2881C129.724 26.1641 129.995 26.1702 130.121 26.0426C130.141 26.0215 129.994 25.8427 130.027 25.8096C130.131 25.7045 130.426 25.6972 130.52 25.6172C130.825 25.3532 131.047 25.0047 131.4 24.7687C131.485 24.7127 131.672 24.8457 131.718 24.824C131.823 24.7742 131.645 24.6468 131.75 24.5853C132.604 24.0869 133.804 23.8167 135.048 23.9608C135.527 24.0082 136.173 23.9832 136.572 24.2314C136.734 24.3325 136.638 24.5953 136.746 24.6549C136.936 24.7622 137.159 24.483 137.373 24.5792C137.548 24.6608 137.505 25.0685 137.656 25.1635C137.804 25.2573 138.085 25.0457 138.264 25.157C138.408 25.2454 138.469 25.5336 138.586 25.6282C139.016 25.9852 139.358 26.3514 139.647 26.7531C140.074 27.3296 140.434 28.049 140.525 29.0272C140.568 29.5432 140.731 30.2308 140.366 30.8977C140.331 30.9576 140.005 30.8527 140.064 31.0433C140.094 31.1473 140.368 31.3316 140.337 31.5976C140.151 33.3598 138.319 34.3647 137.436 34.9208C136.188 35.8688 134.591 38.4077 133.358 34.9559C133.307 34.7859 133.346 33.955 133.373 33.7189C133.397 33.8879 133.421 34.0884 133.45 34.2788C133.479 33.2398 133.472 33.5111 133.595 33.6017C133.67 33.6575 133.599 33.2151 133.633 33.088C133.681 32.9243 133.859 32.4 133.863 33.0886C133.869 32.9687 133.874 32.8539 133.878 32.7365C134.026 32.6217 134.155 32.4345 134.267 32.2196C134.286 32.182 134.256 31.9683 134.274 31.9307C134.322 31.8284 134.395 31.9602 134.456 31.927C134.488 31.9089 134.447 31.6631 134.492 31.6703C134.538 31.6775 134.609 32.0066 134.59 31.6363C134.462 31.2321 134.688 31.4951 134.739 31.4537C134.747 31.4479 134.707 31.0653 134.748 31.0983C134.79 31.1306 134.914 31.3458 134.917 31.1989C134.918 31.13 134.831 30.8474 134.844 30.8246C134.853 30.8086 134.964 31.0478 134.987 31.0503C135.011 31.0527 134.966 30.8379 134.97 30.8323C134.987 30.8093 135.035 30.9899 135.055 30.9913C135.151 30.9959 135.288 31.0352 135.277 30.8949C135.275 30.8781 135.151 30.6993 135.148 30.6925C135.036 30.4472 135.171 30.697 135.29 30.852C135.408 31.0011 135.425 30.8589 135.17 30.5772C135.478 30.9375 135.252 30.6542 135.242 30.6447C135.209 30.6018 135.49 30.8998 135.41 30.8009C135.38 30.7663 135.182 30.5723 135.189 30.5769C135.202 30.5923 135.529 30.8943 135.576 30.9089C135.586 30.9131 135.435 30.7847 135.442 30.787C135.448 30.7907 135.652 30.9229 135.311 30.6808C135.584 30.8754 135.438 30.7631 135.445 30.7692C135.446 30.7721 135.727 30.9251 135.643 30.8711C135.615 30.8535 135.34 30.7138 135.337 30.7145C135.328 30.7179 135.62 30.8459 135.637 30.8388C135.667 30.825 135.452 30.7616 135.533 30.7588C135.555 30.7562 135.862 30.7971 135.87 30.778C135.871 30.7732 135.606 30.7325 135.631 30.7261C135.647 30.7241 135.835 30.684 135.85 30.6696C135.874 30.6511 135.574 30.6619 135.632 30.6518C135.8 30.6198 136.24 30.6022 135.637 30.6179C135.969 30.5779 135.933 30.5567 136.34 30.4983C135.891 30.5368 136.318 30.4624 136.163 30.4503C136.008 30.4367 135.146 30.5824 136.068 30.3983C135.953 30.4023 135.75 30.3874 135.734 30.3821C135.688 30.3636 135.944 30.3169 135.904 30.3018C135.897 30.299 135.726 30.3474 135.737 30.3177C135.744 30.2976 135.716 30.1688 135.736 30.1517C135.967 29.9676 135.92 30.1467 136.11 30.1108C136.062 30.1293 136.015 30.1477 135.968 30.1659C135.9 30.2298 136.279 30.0952 136.361 30.046C136.444 29.997 136.261 30.0109 136.38 29.9517C136.44 29.9217 136.899 29.7756 136.854 29.8259C136.984 29.7458 137.148 29.7452 137.276 29.6886C137.418 29.6274 137.399 29.4312 137.15 29.5233C137.153 29.5584 137.176 29.5947 137.176 29.6299C136.75 29.8087 135.233 30.2367 135.795 29.9482C136.193 29.7191 136.572 29.6886 136.153 29.6754C136.146 29.7072 136.115 29.7441 136.106 29.7727C135.787 29.9056 136.125 29.7276 136.015 29.7513C135.962 29.7646 135.757 29.9086 135.664 29.8977C136.104 29.6674 135.632 29.8287 135.601 29.7762C135.689 29.756 135.776 29.7357 135.865 29.7182C136.14 29.4557 136.373 29.6847 136.449 29.3662C136.477 29.3885 136.485 29.4163 136.521 29.4378C136.68 29.3487 137.178 29.158 137.274 29.0975C137.526 28.9365 137.338 28.9535 137.339 28.8955C137.339 28.8701 137.475 28.8211 137.475 28.819C137.476 28.783 137.289 28.8807 137.265 28.8618C137.235 28.8388 137.372 28.6547 137.343 28.6494C137.27 28.638 136.933 28.892 136.902 28.9016C136.711 28.9699 136.836 28.8469 136.604 28.972C136.827 29.0044 136.756 29.4022 136.237 29.3258C135.889 29.584 135.348 29.8124 135.265 29.751C135.194 29.6971 135.427 29.6357 135.637 29.4778C135.664 29.4589 135.718 29.2978 135.554 29.3803C135.926 29.1826 136.232 28.9646 136.626 28.7803C136.684 28.7533 136.69 28.8158 136.987 28.6312C137.137 28.5387 137.456 28.3271 137.654 28.2238C137.512 28.2867 137.352 28.3592 137.204 28.4266C137.119 28.3668 137.258 28.2733 137.481 28.0805C137.378 28.1439 136.962 28.44 137.059 28.2993C137.064 28.2934 137.151 28.2396 137.22 28.1798C137.243 28.1589 137.264 28.1371 137.279 28.1163C137.393 27.9535 137.428 27.9037 137.923 27.6867C137.565 27.6871 138.047 27.3321 137.79 27.2657C137.246 27.6902 137.418 27.6366 137.622 27.7103C137.488 27.8038 137.352 27.8928 137.216 27.9866C137.416 27.6098 137.435 27.7109 137.095 27.8004C137.012 27.8223 136.998 27.6529 136.65 27.9627C136.568 28.0349 136.625 28.0955 136.478 28.1855C136.45 28.2018 136.327 28.1723 136.358 28.1401C136.73 27.7218 137.174 27.6696 136.792 27.5048C136.781 27.5008 136.623 27.6248 136.59 27.6285C136.528 27.6355 136.706 27.486 136.645 27.4964C136.582 27.5061 136.322 27.6828 136.507 27.4571C136.834 27.0345 137.214 27.003 137.065 27.264C137.345 27.0644 137.37 26.8123 137.285 26.6033C137.194 26.3845 137.008 26.2349 136.969 26.2405C136.626 26.284 137.015 26.4231 136.896 26.5776C136.848 26.6433 136.14 27.3795 136.66 26.9594C136.817 26.8385 136.915 26.5724 137.04 26.5429C137.167 26.5159 136.935 26.71 136.924 26.7285C136.885 26.7911 137.016 26.7645 136.992 26.8014C136.617 27.3477 135.901 28.0117 136.821 26.8851C136.539 27.0642 136.28 27.5436 136.064 27.6402C135.812 27.7686 136.087 27.3893 136.089 27.363C136.147 27.0823 135.819 27.6981 135.838 27.4289C135.835 27.2702 136.251 27.1808 136.031 27.06C135.842 26.9648 135.795 27.2267 135.465 27.6515C135.387 27.751 135.239 27.8341 135.353 27.8483C135.439 27.7375 135.554 27.593 135.639 27.4947C135.605 27.5976 135.202 28.1738 135.192 28.198C135.158 28.3208 135.396 28.0456 135.135 28.3875C135.43 28.0217 135.27 28.258 135.347 28.1948C135.637 27.9662 135.682 27.819 135.451 28.2504C135.595 28.0831 135.734 27.9171 135.871 27.7449C135.891 27.7537 135.911 27.7626 135.931 27.7721C135.61 28.1364 135.711 28.1533 135.305 28.4337C135.264 28.5922 135.357 28.5398 135.659 28.3115C135.716 28.2676 135.747 28.2604 135.764 28.2698C135.843 28.1991 136.091 27.9841 136.123 27.9606C136.414 27.7575 135.973 28.1816 135.782 28.3162C135.781 28.3332 135.777 28.3493 135.775 28.3557C135.761 28.3955 135.57 28.4941 135.524 28.553C135.509 28.5715 135.582 28.5896 135.515 28.643C135.082 28.9817 135.349 28.6761 135.194 29.002C135.604 28.7155 135.461 28.7073 135.9 28.4079C136.377 28.0941 135.791 28.5889 136.368 28.1929C136.277 28.2636 136.2 28.3207 136.095 28.3996C136.398 28.3001 135.917 28.6316 135.824 28.7226C135.64 28.8977 135.796 29.0795 136.109 28.6273C136.169 28.6278 136.207 28.6446 136.263 28.6508C135.541 29.0977 135.634 29.0269 135.661 29.096C135.667 29.1131 135.67 29.1378 135.659 29.1772C135.645 29.2243 135.249 29.4578 135.74 29.2182C135.272 29.4764 135.598 29.3982 135.545 29.4372C135.195 29.678 134.598 29.8109 135.403 29.3151C135.124 29.4429 135.368 29.2966 135.414 29.2411C135.423 29.2303 135.425 29.2233 135.412 29.2236C135.305 29.2255 135.224 29.2739 135.495 29.0302C135.039 29.2551 135.42 29.3351 134.763 29.5479C134.441 29.6589 134.099 29.6353 133.935 29.7468C133.754 29.8467 133.856 30.0739 133.928 30.1505C134.18 30.4575 134.595 30.5764 134.853 30.4621C134.89 30.4516 135.051 30.4343 134.769 29.9189C134.725 29.8467 134.64 29.6406 134.446 29.224C134.56 29.4705 134.631 29.6313 134.645 29.6563C134.942 30.2325 135.026 30.3692 135.07 30.3502ZM131.391 26.6569C131.834 26.4143 131.307 26.3793 130.782 25.6587C130.724 25.7089 130.668 25.7598 130.612 25.8117C130.665 25.837 130.718 25.8626 130.771 25.8887C130.771 25.8886 130.771 25.8885 130.771 25.8885C130.973 26.1483 131.18 26.4052 131.391 26.6569ZM130.99 34.4482C130.899 34.5241 130.807 34.5992 130.713 34.6697C130.673 34.5892 130.635 34.509 130.6 34.428C130.661 34.3762 130.721 34.3232 130.781 34.2708C130.846 34.3344 130.913 34.3967 130.99 34.4482ZM137.203 27.231C136.999 27.4945 137.451 27.1352 137.309 27.3841C137.643 27.1195 137.967 26.8567 138.293 26.5888C138.179 26.5434 138.039 26.6267 138.051 26.4759C137.953 26.5722 137.854 26.6687 137.754 26.7641C137.787 26.7591 137.825 26.7527 137.856 26.7499C137.57 27.0052 137.431 26.9227 137.202 27.2313C137.203 27.2312 137.203 27.2311 137.203 27.231ZM137.809 27.8133C137.807 27.82 137.803 27.8286 137.8 27.8386C137.766 27.9243 137.696 28.11 137.844 28.0491C138.405 27.8248 137.841 27.6037 138.475 27.6419C138.548 27.5992 138.62 27.5601 138.692 27.5193C138.686 27.4554 138.677 27.3929 138.665 27.3304C138.663 27.3217 138.661 27.313 138.658 27.3043C138.376 27.4763 138.093 27.6405 137.809 27.8133ZM132.898 25.5718C132.981 25.579 133.306 25.1725 133.054 24.8581C132.968 24.7681 132.953 25.3493 132.885 25.3533C132.835 25.3574 132.772 25.0618 132.724 25.2007C132.779 25.3193 132.839 25.4516 132.897 25.5709C132.898 25.5712 132.898 25.5715 132.898 25.5718ZM133.488 27.2011C133.513 27.1305 133.537 27.0468 133.57 26.9735C133.404 26.6749 133.406 26.9109 133.205 26.4796C133.208 26.4388 133.211 26.3983 133.214 26.3573C133.27 26.4469 133.323 26.5373 133.376 26.6283C133.33 26.3677 133.251 26.2599 133.386 26.2887C133.075 25.6373 132.874 25.2967 132.968 26.0536C132.848 25.6795 132.261 24.5467 132.524 25.4314C132.577 25.5935 132.723 25.6472 132.735 25.6716C132.892 25.9667 132.938 26.1814 133.09 26.4585C133.158 26.584 133.202 26.5608 133.291 26.7379C133.334 26.8248 133.415 27.0914 133.488 27.2011ZM132.609 25.7456C132.542 25.5525 132.231 25.1725 132.198 25.3025C132.158 25.4994 132.561 25.7947 132.609 25.7456ZM130.99 34.4482C130.99 34.4482 130.99 34.4482 130.99 34.4482C130.99 34.448 130.99 34.4477 130.991 34.4474C130.991 34.4477 130.991 34.4479 130.99 34.4482ZM137.888 27.4949C138.062 27.4471 138.084 27.5301 138.314 27.3823C138.283 27.4339 138.252 27.4849 138.219 27.5358C138.29 27.4934 138.36 27.4507 138.43 27.4088C138.431 27.31 138.43 27.2112 138.428 27.1114C138.249 27.2396 138.068 27.3669 137.888 27.4949ZM138.11 28.2708C138.126 28.3639 138.424 28.1282 138.593 28.0648C138.764 28.0028 138.671 28.1453 138.898 28.0223C138.881 27.9658 138.863 27.9068 138.844 27.8496C138.602 27.9923 138.352 28.1322 138.11 28.271C138.11 28.2709 138.11 28.2709 138.11 28.2708ZM130.027 28.0996C130.132 28.0681 130.371 28.2239 130.138 27.9473C130.138 27.9473 130.138 27.9474 130.138 27.9475C129.87 27.959 129.598 28.0475 129.744 28.2811C130.056 28.3129 129.863 28.1509 130.027 28.0996ZM137.689 26.5058C137.501 26.6319 137.449 26.859 137.629 26.7495C137.925 26.576 137.98 26.318 137.689 26.5058ZM131.461 30.8882C132.156 30.866 132.916 30.6906 132.579 30.6313C132.549 30.6226 132.332 30.6982 132.196 30.6867C132.183 30.6852 132.197 30.6454 132.101 30.6382C132.004 30.6307 131.78 30.6496 131.686 30.6328C131.52 30.5999 131.825 30.5219 131.61 30.493C131.581 30.4877 131.28 30.5358 131.269 30.5405C131.087 30.5995 131.481 30.648 131.483 30.6539C131.498 30.6953 131.191 30.7024 131.12 30.7177C130.985 30.7472 131.123 30.7806 131.113 30.7836C130.849 30.877 130.915 30.6993 130.804 30.6782C130.504 30.6186 130.226 30.695 130.057 30.5096C130.041 30.4948 130.064 30.2707 129.715 30.5462C129.011 29.9383 129.297 30.8583 129.48 30.9444C129.556 30.9833 129.843 30.894 129.976 30.91C130.281 30.9433 130.343 31.0241 130.765 30.9688C131.651 30.8564 131.06 30.8292 131.206 30.7501C131.4 30.7454 131.589 30.7366 131.779 30.7346C131.523 30.7316 131.407 30.8875 131.459 30.8884C131.46 30.8883 131.46 30.8883 131.461 30.8882ZM130.491 29.7906C130.774 29.7396 130.22 29.6355 130.556 29.6074C130.081 29.4105 130.076 29.5921 130.044 29.6088C129.9 29.6788 129.358 29.5839 129.507 29.7226C129.835 29.7359 130.164 29.7627 130.491 29.7906ZM130.193 30.727C129.904 30.6575 129.915 30.8019 129.861 30.8119C129.284 30.9103 129.383 30.4399 130.193 30.727ZM133.718 26.4837C133.757 26.493 133.663 26.2351 133.676 26.1483C133.691 26.0596 133.858 26.2618 133.819 26.0965C133.791 25.9271 133.432 25.5564 133.671 25.4038C133.642 25.312 133.631 25.2416 133.608 25.158C133.529 25.1723 133.451 25.1869 133.375 25.2052C133.489 25.4595 133.6 25.7303 133.695 25.9814C133.713 26.2024 133.626 25.9346 133.624 25.9353C133.624 25.9355 133.624 25.9358 133.624 25.9361C133.56 25.9755 133.63 26.4642 133.718 26.4837ZM130.975 27.5294C131.529 27.9314 130.952 27.4222 130.909 27.3388C130.863 27.2577 131.097 27.3682 130.85 27.207C130.648 27.1369 130.911 27.4867 130.976 27.5299C130.975 27.5297 130.975 27.5295 130.975 27.5294ZM130.622 29.2404C130.488 29.1094 130.316 29.0633 130.543 29.0247C130.385 28.975 130.224 28.9246 130.068 28.8765C130.034 28.9667 130.494 29.1053 130.28 29.1468C130.244 29.1543 129.887 29.0074 129.982 29.1209C130.186 29.155 130.41 29.1978 130.622 29.2404ZM130.193 28.6097C130.174 28.7278 131.403 29.2634 130.901 28.887C130.826 28.8311 130.207 28.5249 130.193 28.6097ZM132.92 26.8732C133.077 26.8239 132.812 26.7299 132.659 26.5844C132.927 26.2291 132.659 26.6464 132.235 26.1115C132.294 26.3071 132.478 26.7224 132.628 26.7633C132.69 26.781 132.564 26.6207 132.566 26.62C132.661 26.617 132.835 26.9013 132.92 26.8732ZM130.495 29.9766C130.486 29.9686 130.255 29.9479 130.213 29.9198C130.17 29.891 130.338 29.8665 130.198 29.8399C130.058 29.8117 129.933 29.9001 130.032 29.9457C130.132 29.9909 130.576 30.0453 130.495 29.9766ZM131.177 29.4927C131.039 29.3714 130.183 29.2649 130.181 29.2924C130.18 29.4702 130.921 29.4041 131.177 29.4927ZM133.495 28.2312C133.333 27.8133 132.834 27.2444 132.446 26.9761C132.49 27.0581 132.535 27.1398 132.58 27.2198C132.285 26.7443 132.064 26.2145 132.118 26.7965C132.332 26.7884 132.317 26.9954 132.338 27.0184C132.982 27.8094 132.837 27.3195 133.494 28.2313C133.494 28.2313 133.495 28.2313 133.495 28.2312ZM130.223 30.2383C130.217 30.3394 130.39 30.5849 130.837 30.4823C130.63 30.4115 130.425 30.3301 130.223 30.2383ZM135.019 27.9663C134.925 28.2058 134.945 28.2131 134.988 28.2217C135.162 27.8926 135.204 27.8691 135.27 27.804C135.368 27.7053 135.309 27.6792 135.322 27.6583C135.513 27.3632 135.586 27.3437 135.487 27.2916C135.574 27.2014 135.665 27.1126 135.758 27.0286C135.686 26.9625 135.786 26.7551 135.856 26.4722C135.58 27.104 135.707 26.6808 135.481 26.9483C135.377 27.0866 135.076 27.8482 135.019 27.9664C135.019 27.9663 135.019 27.9663 135.019 27.9663ZM133.67 28.2741C133.609 28.166 133.525 28.0213 133.458 27.8963C133.463 27.8772 133.469 27.8595 133.473 27.8404C133.534 27.9315 133.596 28.0271 133.654 28.1148C133.684 28.133 133.598 28.0076 133.595 27.9928C133.595 27.9933 133.596 27.9938 133.596 27.9943C133.553 27.7842 133.605 27.7813 133.808 28.0557C133.653 27.7594 133.498 27.4631 133.342 27.1668C133.341 27.2033 133.341 27.2391 133.34 27.2746C133.419 27.4366 133.498 27.598 133.58 27.7584C133.517 27.6799 133.453 27.603 133.387 27.5269C133.407 27.5901 133.428 27.6572 133.45 27.7171C132.894 26.9612 133.38 27.4096 133.189 27.0733C133.069 26.8525 132.886 26.9758 132.958 27.1365C132.97 27.1592 133.385 27.7187 133.13 27.4529C133.094 27.4084 132.228 26.1758 132.86 27.222C132.953 27.3682 133.527 28.1079 133.67 28.2741ZM134.209 28.5336C133.823 27.6477 134.356 28.5429 134.024 27.8176C133.92 27.3862 133.928 27.3897 133.761 27.0304C133.746 26.9984 133.742 26.8719 133.735 26.858C133.622 26.6661 133.599 26.7962 133.466 26.4257C133.458 26.4507 133.451 26.4733 133.444 26.4983C133.629 26.8253 133.627 27.0922 133.723 27.3918C133.765 27.5277 133.806 27.5584 133.843 27.6773C133.857 27.7204 133.791 27.6499 133.84 27.7702C133.953 28.0417 134.125 28.4001 134.219 28.5961C134.219 28.5964 134.219 28.5967 134.219 28.5969C134.216 28.5774 134.212 28.554 134.209 28.5336ZM132.645 28.9203C132.187 28.6481 132.015 28.636 131.87 28.3766C131.778 28.326 131.687 28.2764 131.594 28.2266C131.588 28.2534 131.582 28.2794 131.576 28.3061C132.881 29.1773 131.298 28.3826 132.299 28.8719C132.408 28.9249 132.315 28.817 132.576 29.0216C132.576 29.0217 132.576 29.0218 132.577 29.0219C132.52 28.9182 132.366 28.8091 132.645 28.9203ZM132.596 28.3498C131.841 27.501 131.949 28.1619 132.238 28.2771C132.261 28.2895 132.184 27.9972 132.596 28.3498ZM132.892 29.7826C132.928 29.7423 132.366 29.5199 132.16 29.4484C131.953 29.3771 132.143 29.5001 132.109 29.4933C131.995 29.474 131.94 29.4068 131.785 29.3796C131.734 29.3691 131.486 29.4284 131.509 29.444C131.637 29.5201 132.127 29.6257 132.178 29.6528C132.348 29.7346 132.09 29.6927 132.342 29.7764C132.879 29.9528 132.328 29.7244 132.323 29.708C132.308 29.6677 132.61 29.7698 132.677 29.7692C132.745 29.7689 132.646 29.7194 132.674 29.708C132.684 29.7044 132.889 29.7845 132.892 29.7826ZM131.785 29.1133C132.177 29.3587 132.699 29.4073 132.609 29.3512C132.348 29.1573 131.603 28.9831 131.785 29.1133ZM133.468 27.2723C133.559 27.5974 133.804 27.7758 133.782 27.6416C133.727 27.5147 133.444 27.1563 133.468 27.2723ZM133.467 28.2501C133.446 28.1363 132.93 27.5895 132.888 27.6393C133.177 28.0377 133.138 27.9438 133.175 27.9395C133.212 27.9357 133.487 28.3375 133.467 28.2501ZM132.221 30.2435C132.227 30.241 131.86 29.9734 131.674 30.0658C131.659 30.074 131.709 30.2376 131.784 30.2552C131.934 30.2919 132.196 30.2682 132.221 30.2435ZM133.783 28.9351C133.506 28.6129 133.532 28.5965 133.174 28.2479C133.174 28.2479 133.174 28.248 133.174 28.248C133.128 28.0825 133.805 28.8475 133.798 28.8245C133.778 28.7405 133.273 28.2163 133.144 28.0132C133.227 28.2374 132.924 27.8524 132.849 27.8785C132.831 27.8853 132.987 28.1409 133.109 28.2763C133.231 28.412 133.63 28.7863 133.783 28.9351ZM132.308 30.5016C132.471 30.4561 131.788 30.3508 131.674 30.4471C131.618 30.4988 132.208 30.5352 132.308 30.5016ZM135.774 29.1356C135.925 29.0367 136.076 28.9372 136.224 28.8369C136.276 28.8396 136.329 28.8422 136.382 28.845C136.321 28.8535 136.261 28.8619 136.201 28.8705C136.173 28.9481 135.897 29.1275 135.774 29.1357C135.774 29.1357 135.774 29.1356 135.774 29.1356ZM136.161 30.5619C135.989 30.5895 136.527 30.5767 136.569 30.5719C136.879 30.5125 136.398 30.5152 136.161 30.5619ZM134.228 28.7219C134.285 28.7794 133.929 27.9789 133.862 27.9434C133.949 28.0876 134.192 28.6911 134.228 28.7219ZM136.11 30.1108C136.18 30.0832 136.25 30.0551 136.32 30.0258C136.226 30.0782 136.16 30.1014 136.11 30.1108ZM132.991 30.3186C133.058 30.3192 133.121 30.2738 133.041 30.2517C132.872 30.2024 132.386 30.175 132.528 30.2331C132.543 30.2402 132.923 30.3183 132.991 30.3185C132.991 30.3185 132.991 30.3185 132.991 30.3186ZM135.533 29.3915C135.54 29.3874 135.547 29.3836 135.554 29.3803C135.547 29.384 135.54 29.3879 135.533 29.3915ZM135.144 30.5467C135.153 30.557 135.162 30.5673 135.17 30.5772C135.162 30.5675 135.153 30.5573 135.144 30.5467ZM133.794 30.141C134.587 30.4006 134.177 30.2313 133.781 30.1128C133.76 30.1071 133.797 30.1383 133.794 30.141Z" fill="#FDFDFD"/>
<path d="M53.2354 63.7103C50.3709 61.0578 37.932 62.9495 32.041 64.2345L35.7736 57.3217C42.6922 55.7442 50.2658 60.8966 53.2354 63.7103C53.2503 63.7241 53.265 63.738 53.2794 63.7521C53.2648 63.7382 53.2501 63.7243 53.2354 63.7103Z" fill="#FDFDFD"/>
<path d="M55.8256 71.8826C57.1332 72.45 59.7511 72.828 59.7622 69.8008C59.776 66.0167 53.4775 69.3476 55.8256 71.8826Z" fill="#FDFDFD"/>
<path d="M45.1078 61.451C43.498 60.6953 41.6748 60.1725 40.0672 59.8424C39.8696 59.8018 39.9058 59.621 39.8518 59.5896C39.7033 59.504 39.5872 59.7117 39.4778 59.6856C38.9413 59.5599 38.4365 59.517 37.9094 59.474C37.3672 59.4373 37.5722 58.8491 37.3617 58.7265C36.9403 58.4966 37.3555 59.205 37.2276 59.3892C36.9048 59.3939 36.5787 59.3938 36.249 59.4067L37.6554 58.3377C37.5793 58.4386 37.5028 58.5391 37.4264 58.6394C37.4254 58.4976 37.4257 58.3564 37.4296 58.2158L36.192 59.1565C36.1943 59.1542 36.1966 59.152 36.199 59.1498C36.1962 59.1502 36.1935 59.1505 36.1907 59.1509L37.4245 58.2131C37.3007 58.4043 37.0515 58.6234 37.0601 58.2009C36.9726 58.2494 36.8796 58.2887 36.7921 58.3398C37.0211 58.4905 36.8488 58.8558 36.9738 58.9652C37.0988 59.0745 37.1738 58.8573 37.1856 58.8652C37.3559 58.9743 36.6714 59.6617 36.6198 59.71C36.4828 59.8376 36.2588 59.5399 36.2063 59.683C36.1158 59.929 36.8041 60.1042 35.8314 59.9782C36.0268 60.2424 35.8851 60.1798 35.7829 60.3256C35.7696 60.3449 35.9297 60.4109 35.9288 60.422C35.9141 60.7184 35.73 60.3851 35.7141 60.378C35.4432 60.2594 35.4219 60.5745 35.3683 60.6144C34.6975 61.1155 34.2232 61.492 33.7706 62.1585C33.673 62.3027 33.5275 62.8239 33.4037 62.9477C33.2816 63.0697 33.1369 62.8907 33.006 62.9184C33.3897 63.2832 33.3764 63.4265 32.9322 63.5406C33.2051 63.8197 32.9476 63.6638 32.9077 63.8947C32.8741 64.0867 33.1144 64.5827 32.6824 64.5808C32.8238 64.3919 32.6512 64.3262 32.6788 64.0425C32.6881 63.9482 33.1145 63.1421 32.7471 63.0208C32.5555 62.9576 32.5724 63.3102 32.5346 63.3031C32.3146 63.2615 32.164 62.9885 32.3159 62.9006C32.3361 62.9539 32.3532 63.0141 32.3721 63.0698C32.7663 62.901 31.7552 62.6176 32.6642 62.8183C32.7758 62.8427 32.8707 62.9079 32.9981 62.9175C32.9607 62.8852 32.8252 62.8843 32.8324 62.8259C32.84 62.7665 33.0903 62.781 32.9294 62.6761C32.6957 62.523 32.6821 62.779 32.6595 62.7866C32.6609 62.7875 32.6623 62.7885 32.6637 62.7895C32.4604 62.8549 32.5985 62.5636 32.5826 62.5376C32.4773 62.3676 32.3276 62.3638 32.2725 62.1643C32.2412 62.0505 32.3867 61.8823 32.4015 61.7993C32.4156 61.7165 32.2409 61.7629 32.2414 61.7023C32.242 61.6417 32.3617 61.6306 32.3628 61.5597C32.3628 61.5291 32.233 61.4606 32.2346 61.4467C32.2513 61.2969 32.4766 61.5227 32.5203 61.4023C32.5484 61.3242 32.4287 60.9466 32.2639 61.0733C32.2812 60.979 32.3045 60.8904 32.3273 60.7995C32.2616 60.8291 32.2074 60.8671 32.1356 60.8919C32.2784 60.7747 32.0939 60.5873 32.1284 60.4842C32.1629 60.3811 32.4739 60.4399 32.4004 60.2663C32.2445 59.8963 32.0759 60.513 31.9899 60.5545C31.9563 60.5705 31.8034 60.3565 31.8059 60.3376C31.8175 60.2539 32.0106 60.2518 32.033 60.1945C32.1119 59.9888 31.9792 59.7652 32.0385 59.5606C32.2408 58.8642 32.5494 58.0314 32.8256 57.4172C32.9286 57.1886 33.2207 57.1753 33.2678 57.0731C33.3779 56.8341 33.2009 56.702 33.2995 56.4949C33.3572 56.3732 33.4537 56.2478 33.56 56.1264L34.3681 54.964L35.2144 54.8689C35.516 54.8563 35.8208 54.8801 36.0286 54.8707C36.2661 54.8592 36.4495 54.6214 36.5114 54.6082C37.361 54.4148 38.412 54.3923 39.1117 54.4231C39.4428 54.4359 39.5806 54.686 39.6474 54.6835C39.9358 54.6765 39.8773 54.468 40.1093 54.5108C40.2346 54.5345 40.2366 54.7312 40.2524 54.7406C40.3912 54.8207 40.4502 54.5715 40.5667 54.5777C41.2366 54.6143 41.8337 54.8939 42.452 55.0623C42.4969 55.0748 42.4671 55.1837 42.4977 55.1849C42.6294 55.1878 42.6126 55.001 42.7477 55.0207C43.0288 55.0616 43.3013 55.1649 43.5799 55.2692C43.6076 55.2796 43.5796 55.4224 43.6436 55.4413C43.7075 55.4603 43.7958 55.3431 43.8945 55.3813C44.1526 55.4813 44.3575 55.721 44.6256 55.8234C44.67 55.8401 44.7834 55.6947 44.8505 55.7205C45.0611 55.8008 45.3164 56.0657 45.4906 56.1403C46.0686 56.385 46.6373 56.5235 47.1702 56.772C47.2958 56.8311 47.3356 57.0298 47.3978 57.0642C47.5384 57.1418 47.4966 56.9512 47.6432 57.0224C48.8452 57.611 49.9608 58.3401 51.0764 59.0671C51.519 59.3554 52.1277 59.5903 52.5155 59.934C52.6714 60.0735 52.5785 60.2686 52.6956 60.3602C52.9045 60.5237 53.1082 60.3385 53.3501 60.4958C53.5382 60.6183 53.5753 60.9978 53.7619 61.1328C53.9549 61.2735 54.2088 61.1445 54.4384 61.3043C54.6297 61.4384 54.789 61.7446 54.9834 61.9033C54.9948 61.9125 55.0061 61.9217 55.0174 61.9309L51.5203 65.553C51.5586 65.6448 50.8138 65.3666 50.0562 65.2847C49.272 65.1719 48.3768 65.0868 47.4502 64.9691C46.7845 64.8851 46.0416 64.9365 45.3176 64.7099C45.2499 64.6885 45.3411 64.4301 45.1285 64.4934C45.0148 64.5279 44.861 64.7543 44.5974 64.7808C43.0186 64.9382 41.2527 64.653 39.6209 64.9652C37.1585 65.4366 35.0174 67.6498 32.3793 65.5176C32.2512 65.4126 32.1696 64.7794 32.1929 64.5894C32.2773 64.7032 32.3627 64.8417 32.4538 64.9714C32.3641 64.1779 32.3933 64.3828 32.6988 64.3915C32.8803 64.3989 32.6729 64.0949 32.746 63.9812C32.8388 63.8339 33.3455 63.3313 33.3353 63.8704C33.3526 63.7738 33.3681 63.6816 33.3854 63.5871C33.7915 63.4252 34.1697 63.2187 34.5551 62.9939C34.6207 62.955 34.594 62.792 34.6626 62.7526C34.8455 62.646 35.0299 62.7231 35.2254 62.6715C35.3337 62.6432 35.3158 62.4525 35.4634 62.4392C35.6111 62.426 35.6523 62.6803 35.8041 62.3702C35.6213 62.0733 36.2326 62.2074 36.438 62.1541C36.4692 62.1463 36.6639 61.8205 36.8001 61.8326C36.9354 61.8442 37.1653 61.9957 37.3502 61.8608C37.4368 61.7974 37.4602 61.565 37.5608 61.5368C37.6316 61.517 37.7482 61.7028 37.8409 61.6975C37.9339 61.692 38.1078 61.4998 38.1433 61.492C38.2721 61.4623 38.1485 61.623 38.2386 61.6172C38.6747 61.5866 39.1856 61.5932 39.6012 61.444C39.6524 61.4258 39.5582 61.27 39.5645 61.2636C39.8956 61.0153 39.7325 61.2549 39.8474 61.3906C39.958 61.5212 40.6311 61.3611 40.6032 61.0736C40.666 61.4312 40.7862 61.1386 40.8248 61.1236C40.9744 61.0653 40.9789 61.3804 41.1173 61.2675C41.1682 61.2264 41.0383 61.0274 41.0979 61.0271C41.2456 61.0264 41.4132 61.3509 41.6099 61.3648C41.6575 61.3683 41.6572 61.2158 41.7409 61.2124C41.825 61.2089 42.1918 61.3596 41.9997 61.0569C42.2365 61.2915 42.2661 61.1473 42.5139 61.1318C42.5768 61.1283 42.6788 61.3646 42.8048 61.2776C42.8474 61.2481 42.826 61.0135 42.8937 61.0058C43.0494 60.9876 43.2162 61.2187 43.4134 61.2133C43.7799 61.204 44.1674 61.006 44.5544 61.0456C44.6612 61.0565 44.6478 61.2944 44.8008 61.291C44.8231 61.2898 44.9972 61.076 45.1036 61.0906C45.1673 61.099 45.5023 61.2296 45.57 61.2392C45.6809 61.2539 45.6931 61.0243 45.7551 61.0672C45.9335 61.1912 45.8025 61.5322 45.9993 61.0654C46.0739 61.3194 46.1957 61.2912 46.2416 61.6053C46.3068 61.2589 46.4056 61.5887 46.5415 61.4715C46.677 61.3542 46.7879 60.6853 46.8241 61.4044C46.885 61.3164 47.1684 61.1678 47.2147 61.1575C47.3533 61.1279 47.2775 61.3261 47.3814 61.3004C47.3997 61.2962 47.3824 61.1598 47.4993 61.175C47.5709 61.1836 48.1493 61.2083 48.1793 61.2296C48.5534 61.4584 47.9654 61.3554 47.8762 61.5016C47.8626 61.4625 47.8491 61.4233 47.8343 61.3847C47.6638 61.316 47.7549 61.6257 47.8296 61.6991C47.9044 61.7724 48.0517 61.6402 48.1111 61.7435C48.1405 61.7954 48.1071 62.1627 48.015 62.1149C48.1113 62.2319 47.9703 62.3468 48.0062 62.4548C48.0459 62.5721 48.4856 62.628 48.5014 62.4265C48.4178 62.4149 48.3095 62.4166 48.228 62.4048C48.1267 62.0476 48.5348 60.8573 48.8339 61.3597C49.043 61.7237 48.6376 61.9704 49.209 61.7215C49.1256 61.7003 49.0525 61.6616 48.98 61.6415C48.9908 61.3769 49.0936 61.6763 49.166 61.5979C49.2014 61.5594 49.0205 61.357 49.1957 61.3084C49.3095 61.6977 49.4527 61.3277 49.6939 61.3487C49.6204 61.4086 49.5471 61.4687 49.4742 61.5294C49.8445 61.842 48.919 61.8406 49.6666 62.0706C49.5749 62.0727 49.4845 62.0602 49.3902 62.07C49.4214 62.2124 49.3122 62.6114 49.3432 62.7009C49.4239 62.9356 49.5796 62.8148 49.7063 62.8498C49.76 62.8645 49.713 62.9698 49.7175 62.971C49.7901 62.992 49.7935 62.8299 49.8599 62.828C49.9454 62.8254 50.151 63.0131 50.1921 63.0017C50.2995 62.9721 50.1796 62.6317 50.1937 62.6099C50.2796 62.4666 50.3956 62.6147 50.4203 62.4145C50.087 62.4951 49.17 62.2133 50.0634 61.9847C49.8697 61.6316 49.9893 61.1914 50.3486 61.2062C50.6475 61.2212 50.4319 61.3706 50.5534 61.5902C50.5716 61.6169 50.9381 61.7788 50.9831 61.6466C50.9053 61.9597 50.973 62.2644 50.825 62.5738C50.8033 62.619 50.6635 62.5726 50.6637 62.8449C50.6641 62.9816 50.676 63.2818 50.6315 63.4473C50.6822 63.3361 50.7402 63.2114 50.7951 63.0962C51.0168 63.1075 51.018 63.2407 51.0728 63.4821C51.0912 63.3914 51.0801 62.9879 51.2083 63.1417C51.2146 63.1507 51.1866 63.2872 51.25 63.3757C51.3761 63.5538 51.3861 63.6028 51.1627 63.9653C51.5287 63.8279 51.4574 64.2851 51.7571 64.2628C51.912 63.7574 51.7532 63.8274 51.4416 63.8338C51.4675 63.7106 51.4989 63.5904 51.5234 63.4654C51.8266 63.8646 51.634 63.7698 51.9407 63.6137C52.0125 63.5721 52.266 63.7624 52.3238 63.3983C52.3385 63.3115 52.1414 63.2363 52.2158 63.1257C52.2265 63.1012 52.4952 63.1519 52.4981 63.1934C52.5403 63.6941 52.0225 63.7198 52.6554 63.9316C52.6717 63.9377 52.7652 63.8157 52.8088 63.8213C52.8897 63.8324 52.7801 63.9725 52.8502 63.977C52.9006 63.9801 53.0317 63.917 53.067 63.9695L53.4892 63.5322C53.4731 63.5101 53.4707 63.4719 53.4913 63.4078C53.5583 63.1941 53.716 63.1242 53.8573 63.1465L52.6944 64.3509C52.5888 64.3602 52.5112 64.3016 52.511 64.171C52.3816 64.3142 52.416 64.4879 52.4353 64.6163L54.1134 62.8782C53.8889 62.4745 53.3958 62.0544 53.3325 62.0392C52.8878 61.9176 53.4879 62.2807 53.4151 62.4136C53.3857 62.4701 52.8634 63.0515 53.3283 62.7861C53.4673 62.7085 53.4376 62.4168 53.5894 62.4408C53.741 62.4652 53.5488 62.6023 53.5451 62.6205C53.5323 62.6828 53.6876 62.7084 53.6791 62.7451C53.5469 63.2975 53.0184 63.8266 53.504 62.7726C53.2246 62.857 53.2115 63.3828 52.9609 63.3846C52.6587 63.3892 52.7647 63.0093 52.7555 62.9799C52.6205 62.6125 52.5834 63.2658 52.3694 62.8655C52.2525 62.6464 52.8603 62.8251 52.431 62.5097C52.0641 62.2452 52.1375 62.5408 51.8522 62.8393C51.7846 62.9085 51.5239 62.8487 51.8054 63.0233C51.8806 62.9462 51.9839 62.848 52.063 62.785C52.0769 62.8977 51.8335 63.3942 51.8519 63.4342C51.951 63.6347 52.1258 63.418 52.0017 63.7443C52.1719 63.4168 52.1357 63.6713 52.2237 63.6476C52.5527 63.5651 52.4367 63.3216 52.5218 63.8802C52.5935 63.7179 52.6653 63.5603 52.7345 63.3973C52.7787 63.4289 52.8224 63.4602 52.8654 63.4914C52.6718 63.8157 52.9154 63.9763 52.4731 64.0764C52.5621 64.2398 52.6402 64.3138 52.7389 64.3184L53.8264 63.192C53.7349 63.1711 53.6387 63.2006 53.5303 63.2707C53.4822 63.3017 53.4264 63.2824 53.3722 63.246C53.3316 63.3174 53.1849 63.5211 53.1585 63.5393C52.9329 63.7034 53.1084 63.2561 53.2453 63.1347C53.2153 63.1027 53.1923 63.0751 53.1846 63.0646C53.1345 62.9975 53.3542 62.9515 53.3315 62.8693C53.3243 62.8404 53.1071 62.7455 53.1352 62.6878C53.3208 62.3175 53.5278 62.758 52.9298 62.1706C52.7531 62.5071 53.0953 62.5896 52.8245 62.9068C52.5492 63.2529 52.6481 62.6511 52.3864 63.1208C52.4102 63.035 52.4346 62.9655 52.464 62.8689C52.122 62.9744 52.2917 62.5676 52.2415 62.4423C52.1349 62.1904 51.4129 62.0065 51.9341 62.5707C51.8327 62.5777 51.7347 62.5662 51.6332 62.5723C51.8345 61.8007 51.7988 62.1115 51.364 61.8785C51.2687 61.8283 51.3075 61.4768 51.1162 61.8627C51.2145 61.4639 50.8514 61.6434 50.8354 61.5911C50.6958 61.2342 51.5169 60.936 51.4403 61.6685C51.6253 61.4234 51.529 61.7832 51.6778 61.7713C51.8892 61.7551 51.9446 61.6949 52.0807 62.0271C52.4332 61.7242 51.237 61.6032 52.0731 61.3077C52.4226 61.2252 53.436 61.163 54.7938 62.2016L51.783 65.3201C50.902 64.7325 49.8184 64.0489 49.4423 63.8314C48.2546 63.1431 47.6011 62.8389 46.5596 62.2174C46.4567 62.1524 45.6454 61.7648 46.0162 61.4552C46.0679 61.409 46.5025 61.4457 46.3612 60.974C46.3264 61.19 46.0867 61.217 46.062 61.229C45.4956 61.498 45.6389 61.7023 45.1078 61.451ZM44.9415 57.0376C45.746 57.4617 45.2376 56.9412 45.665 56.3828C45.5541 56.3362 45.4435 56.2908 45.3317 56.2457C45.346 56.2967 45.3598 56.3474 45.3738 56.3983C45.3739 56.3983 45.374 56.3984 45.3742 56.3984C45.2285 56.6107 45.084 56.8237 44.9415 57.0376ZM31.8148 60.9983C31.7524 60.9266 31.6896 60.8552 31.6302 60.782C31.7082 60.6955 31.7857 60.6092 31.8637 60.5227C31.9105 60.5633 31.9581 60.6038 32.0048 60.6444C31.9389 60.761 31.873 60.8771 31.8148 60.9983ZM52.3871 64.2044C52.4208 63.9325 52.2005 64.3133 52.1606 64.0635C52.0271 64.3614 51.8924 64.6508 51.749 64.9401C51.8428 64.9374 51.9282 64.8447 51.9415 64.9506C51.9957 64.8606 52.048 64.7687 52.0986 64.6758C52.0737 64.686 52.0463 64.6986 52.023 64.7073C52.1556 64.4432 52.3273 64.5058 52.3878 64.2041C52.3875 64.2042 52.3873 64.2043 52.3871 64.2044ZM51.1123 63.8227C51.0512 63.761 50.7916 63.5369 50.7175 63.6605C50.4968 64.077 51.3522 63.98 50.6789 64.2394C50.6677 64.3027 50.6514 64.3635 50.6377 64.4256C50.7389 64.471 50.8291 64.5128 50.9264 64.5572C50.9859 64.3111 51.0539 64.0705 51.1123 63.8227ZM47.917 58.3627C48.0238 58.4569 48.7065 58.5886 48.6584 58.2309C48.6417 58.1241 48.1829 58.3455 48.0921 58.277C48.033 58.2322 48.2128 58.0703 48.045 58.0758C48.0038 58.1674 47.9553 58.2674 47.9177 58.3623C47.9175 58.3625 47.9173 58.3626 47.917 58.3627ZM47.0775 59.4158C47.2164 59.4422 47.3652 59.4628 47.5074 59.4904C47.5408 59.2141 47.2846 59.2671 47.4432 58.939C47.4901 58.9324 47.537 58.926 47.5842 58.9197C47.5732 59.004 47.5615 59.0881 47.5496 59.172C47.749 59.0542 47.732 58.933 47.9026 59.0907C48.0472 58.5428 48.1581 58.2646 47.5519 58.5762C47.756 58.3458 48.1424 57.4483 47.6261 57.9657C47.5309 58.062 47.6441 58.217 47.6361 58.2362C47.5418 58.4752 47.3838 58.5774 47.298 58.8049C47.259 58.9077 47.3498 58.9528 47.293 59.0943C47.2648 59.1629 47.0833 59.3066 47.0775 59.4158ZM47.4203 58.1345C47.5305 58.0167 47.5591 57.6191 47.4045 57.6257C47.1666 57.6374 47.3061 58.0956 47.4203 58.1345ZM31.8148 60.9991C31.8148 60.9989 31.8148 60.9986 31.8148 60.9983C31.8151 60.9986 31.8153 60.9989 31.8155 60.9991C31.8153 60.9991 31.815 60.9991 31.8148 60.9991ZM51.4215 64.1008C51.3054 64.2008 51.1945 64.1481 51.1442 64.3517C51.1181 64.3011 51.0897 64.2511 51.0604 64.2005C51.0443 64.2613 51.0285 64.3224 51.0125 64.3826C51.1202 64.4526 51.2134 64.522 51.3046 64.595C51.3455 64.4311 51.3855 64.2662 51.4215 64.1008ZM50.067 63.645C49.9033 63.5994 50.002 63.9018 49.9457 64.0325C49.891 64.1633 49.7601 64.0326 49.7511 64.2305C49.8477 64.2512 49.9394 64.2721 50.0387 64.2948C50.0461 64.0787 50.0606 63.8598 50.0667 63.6449C50.0668 63.6449 50.0669 63.6449 50.067 63.645ZM41.4004 55.7978C41.5253 55.8841 41.4272 56.0855 41.7431 55.8894C41.7429 55.8894 41.7427 55.8893 41.7425 55.8893C41.526 55.663 41.2156 55.4452 40.9016 55.5716C41.0406 55.8252 41.2027 55.6636 41.4004 55.7978ZM52.18 64.8523C52.3177 64.7441 52.326 64.559 52.201 64.6668C52.0194 64.854 51.991 65.0314 52.18 64.8523ZM36.045 57.2807C35.9722 57.838 36.4216 58.3469 36.7215 58.0421C36.7492 58.0146 36.4944 57.8849 36.5449 57.7719C36.5502 57.7605 36.6792 57.7528 36.7 57.6753C36.721 57.5975 36.6618 57.4328 36.7048 57.3537C36.782 57.2149 37.0239 57.4192 37.075 57.2478C37.0824 57.2246 36.9219 57.0123 36.9117 57.005C36.754 56.8845 36.6613 57.2014 36.6415 57.2063C36.5345 57.2329 36.5144 56.9984 36.4775 56.9482C36.4076 56.854 36.3309 56.9725 36.3234 56.966C36.1182 56.7922 36.517 56.7834 36.5583 56.6931C36.6701 56.4463 36.5019 56.2524 36.8452 56.0788C36.8763 56.0626 37.2946 56.029 36.7403 55.8281C37.7304 55.1654 36.1639 55.5746 36.0194 55.7447C35.9514 55.8139 36.1089 56.0131 36.0799 56.1209C36.0155 56.3665 35.8491 56.4415 35.9299 56.7571C36.0983 57.4201 36.2273 56.9384 36.4005 57.0266C36.4092 57.1756 36.4272 57.3194 36.4236 57.4674C36.4358 57.2659 36.0512 57.2372 36.0447 57.2794C36.0448 57.2798 36.0449 57.2802 36.045 57.2807ZM38.4006 56.2637C38.622 56.47 38.6114 56.0385 38.8117 56.2896C39.0044 55.9069 38.6421 55.9236 38.5992 55.9025C38.4068 55.8036 38.4074 55.3821 38.2042 55.5146C38.2787 55.7626 38.3369 56.014 38.4006 56.2637ZM36.4322 56.2378C36.5515 55.9986 36.2788 56.044 36.2604 56.0054C36.0657 55.5847 36.9152 55.5469 36.4322 56.2378ZM48.2426 59.532C48.2985 59.5809 48.3619 59.3762 48.4486 59.3546C48.5363 59.3327 48.6368 59.5982 48.6982 59.4835C48.7594 59.3678 48.5735 58.8689 48.9682 59.0134C48.9929 58.9431 49.0246 58.8983 49.052 58.8377C48.9533 58.7778 48.8558 58.7179 48.7566 58.6592C48.7072 58.8736 48.6523 59.0977 48.6016 59.3037C48.4635 59.4176 48.54 59.2135 48.537 59.2118C48.5369 59.212 48.5368 59.2122 48.5367 59.2124C48.4255 59.1682 48.1162 59.4227 48.2426 59.532ZM43.1548 56.6322C42.9878 57.129 43.3203 56.6165 43.411 56.5762C43.5005 56.5355 43.5403 56.7508 43.5703 56.5241C43.5006 56.3395 43.1723 56.5761 43.1546 56.6328C43.1546 56.6326 43.1547 56.6324 43.1548 56.6322ZM39.6094 56.3089C39.8052 56.1976 39.7907 56.0591 40.0032 56.2367C40.0076 56.1099 40.012 55.9803 40.0157 55.8553C39.8297 55.8343 39.8106 56.2013 39.611 56.0368C39.5779 56.0098 39.676 55.7225 39.5091 55.805C39.5446 55.9646 39.578 56.1415 39.6094 56.3089ZM40.5897 55.944C40.3665 55.9333 40.0765 56.9289 40.52 56.5216C40.5857 56.4611 40.7552 55.9524 40.5897 55.944ZM46.5454 58.6709C46.8478 58.8503 46.5628 58.5279 46.5455 58.346C47.3432 58.5915 46.4473 58.3444 46.5891 57.8355C46.4315 57.9265 46.1195 58.1587 46.2709 58.3288C46.3342 58.3999 46.3711 58.2452 46.3756 58.248C46.506 58.3516 46.3796 58.5737 46.5454 58.6709ZM38.0133 56.296C38.0269 56.2878 37.9993 56.1117 38.0428 56.075C38.0866 56.0385 38.19 56.1601 38.1979 56.0514C38.2065 55.9418 37.9989 55.8619 37.9387 55.9442C37.8789 56.027 37.8917 56.3683 38.0133 56.296ZM39.3822 56.7556C39.5691 56.6407 39.3196 55.9706 39.2753 55.9718C38.9213 55.9876 39.4117 56.5491 39.3822 56.7556ZM45.3571 59.341C45.8621 59.2047 45.8339 58.56 45.7232 58.136C45.6629 58.1861 45.6018 58.2361 45.5429 58.2862C45.857 57.9591 46.289 57.6861 45.5601 57.7772C45.838 58.0041 45.5276 57.9962 45.5168 58.0177C45.1786 58.7219 45.7763 58.5859 45.3568 59.3409C45.3569 59.3409 45.357 59.341 45.3571 59.341ZM37.4055 56.1426C37.2088 56.1577 36.7257 56.3501 36.9957 56.6619C37.1266 56.4867 37.2631 56.3135 37.4055 56.1426ZM51.0766 62.7195C51.0687 62.9595 51.1791 63.0417 51.3241 63.1411C51.3763 62.8203 51.4782 62.8598 51.5641 62.8396C51.6938 62.8095 51.5323 62.6914 51.5432 62.676C51.7128 62.467 51.8429 62.5159 51.6038 62.3359C51.7202 62.3079 51.8362 62.279 51.9519 62.2521C51.7807 62.1006 51.845 61.9285 51.8623 61.6706C51.6524 62.1712 51.7081 61.7985 51.4153 61.9039C51.2703 61.9578 51.0817 62.5972 51.077 62.7198C51.0769 62.7197 51.0768 62.7196 51.0766 62.7195ZM45.6936 59.609C45.7711 59.5407 45.8599 59.4411 45.9427 59.3607C45.9874 59.3703 46.0315 59.3812 46.0761 59.391C46.0452 59.4688 46.0117 59.5496 45.9829 59.6249C46.0248 59.6718 46.0546 59.5571 46.0749 59.5547C46.0747 59.5551 46.0745 59.5556 46.0743 59.556C46.3644 59.5244 46.4506 59.5867 46.5079 59.9046C46.6232 59.6762 46.7386 59.4478 46.854 59.2194C46.803 59.221 46.7518 59.2219 46.7011 59.2231C46.6184 59.3355 46.5359 59.4482 46.4538 59.5609C46.4415 59.4702 46.4299 59.3806 46.4171 59.29C46.3586 59.3164 46.2916 59.3417 46.2388 59.3698C46.3641 58.636 46.5738 59.2771 46.7082 59.0134C46.7965 58.8431 46.3615 58.6415 46.2426 58.7326C46.2257 58.746 46.0918 59.2713 46.053 58.9468C46.048 58.8964 46.5205 57.8448 45.9601 58.6146C45.8813 58.7242 45.6692 59.4139 45.6936 59.609ZM47.0026 60.6839C47.13 59.912 47.5868 61.0557 47.5218 60.3256C47.7905 60.0879 47.771 60.0819 47.8104 59.7597C47.814 59.7308 47.9334 59.6908 47.9329 59.677C47.9128 59.4757 47.7498 59.4867 47.8936 59.2218C47.8586 59.2209 47.826 59.2194 47.7909 59.2186C47.7686 59.5299 47.4968 59.5991 47.315 59.7737C47.2325 59.8526 47.2884 59.9207 47.2172 59.9903C47.1912 60.0156 47.1237 59.9011 47.0729 59.9868C46.959 60.181 46.8791 60.4826 46.9033 60.684C46.9032 60.6842 46.9031 60.6844 46.903 60.6846C46.9358 60.6855 46.9695 60.6834 47.0026 60.6839ZM42.1716 58.078C42.2317 57.673 42.0808 57.5132 42.4704 57.4083C42.4741 57.3263 42.4769 57.2448 42.4801 57.1627C42.4203 57.1544 42.3623 57.1468 42.3017 57.1382C41.8401 58.2592 41.8417 56.8705 41.8491 57.7458C41.85 57.841 42.0056 57.7717 41.8176 57.9854C41.8178 57.9856 41.8179 57.9859 41.818 57.9862C42.0163 57.9539 42.0762 57.8203 42.1716 58.078ZM43.4577 58.1587C44.1503 57.4826 43.0161 57.5146 43.1212 57.7891C43.1298 57.8119 43.6204 57.7747 43.4577 58.1587ZM39.9661 58.1322C40.1471 58.1685 40.2202 57.7125 40.2221 57.5446C40.2239 57.3762 40.0694 57.5273 40.0557 57.4994C40.0095 57.4066 40.1359 57.3637 40.0762 57.237C40.0573 57.1949 39.7301 56.9954 39.7116 57.0147C39.6144 57.1172 39.7074 57.5087 39.6783 57.5499C39.5869 57.6853 39.4962 57.4789 39.4577 57.6796C39.3762 58.1075 39.6071 57.6697 39.6429 57.6659C39.7461 57.6547 39.7141 57.8966 39.7833 57.9526C39.8523 58.0087 39.9096 57.9309 39.9733 57.9556C39.9945 57.9639 39.957 58.1296 39.9661 58.1322ZM40.727 57.2511C40.4733 57.5651 40.8948 58.0186 40.9623 57.9496C41.1766 57.7408 40.8555 57.1008 40.727 57.2511ZM46.9474 59.3967C46.6657 59.5375 46.9565 59.9174 47.1146 59.8867C47.1442 59.7826 47.046 59.3486 46.9474 59.3967ZM45.2547 59.2945C45.4426 59.2907 45.4646 58.6753 45.3264 58.6262C45.1013 58.9389 45.2037 58.9014 45.2833 58.9524C45.3628 59.0038 45.1087 59.2981 45.2547 59.2945ZM37.9594 57.6348C37.9911 57.6364 38.5749 57.3172 38.2333 57.1929C38.2066 57.182 37.7902 57.2517 37.7627 57.3129C37.7068 57.4332 37.8673 57.6215 37.9594 57.6348ZM44.3014 59.499C44.5018 59.2287 44.5834 59.2663 44.6487 58.8812C44.6486 58.8811 44.6485 58.8811 44.6484 58.8811C44.9053 58.8584 44.6163 59.5849 44.6666 59.5875C44.8438 59.5979 44.9107 59.0235 45.0805 58.8968C44.7821 58.958 44.9924 58.6397 44.821 58.5445C44.7819 58.5231 44.5389 58.6677 44.4653 58.7888C44.3917 58.9099 44.3202 59.3309 44.3014 59.499ZM37.1563 57.7761C37.3575 57.8795 37.4944 57.339 37.2089 57.2819C37.067 57.2551 37.0308 57.7141 37.1563 57.7761ZM51.2776 61.9532C51.2795 62.0954 51.281 62.2371 51.2824 62.3782C51.1992 62.3926 51.1155 62.4084 51.0316 62.4251C51.1015 62.3955 51.1714 62.3672 51.2419 62.3395C51.1108 62.2595 51.0931 61.9987 51.2772 61.9531C51.2773 61.9532 51.2775 61.9532 51.2776 61.9532ZM46.0543 61.4674C45.9866 61.3359 45.8709 61.7512 45.8881 61.7829C46.0146 62.0188 46.1472 61.6497 46.0543 61.4674ZM46.6124 60.6327C46.7845 60.7889 46.9626 60.1249 46.8575 60.0181C46.8736 60.1712 46.5144 60.5443 46.6124 60.6327ZM47.8762 61.5016C47.8965 61.5598 47.9168 61.618 47.9394 61.6764C47.8652 61.594 47.853 61.5399 47.8762 61.5016ZM38.0705 58.2226C38.1052 58.2722 38.3452 58.31 38.3774 58.2468C38.4459 58.1127 38.2496 57.7438 38.1363 57.861C38.1233 57.8735 38.0359 58.1722 38.0711 58.2226C38.0709 58.2226 38.0707 58.2226 38.0705 58.2226ZM50.9872 61.6289C50.9864 61.6353 50.985 61.6413 50.9831 61.6466C50.9845 61.6408 50.9856 61.6347 50.9872 61.6289ZM40.5976 61.0434C40.6002 61.0536 40.6022 61.0637 40.6032 61.0736C40.6015 61.064 40.5992 61.0539 40.5976 61.0434ZM39.7225 58.852C39.732 59.4943 39.9426 59.1773 39.8396 58.8477C39.8335 58.8303 39.7411 58.8551 39.7225 58.852ZM58.3523 70.8009C58.3577 70.8079 58.1946 70.956 58.0191 70.9619C57.9966 70.9624 57.8809 70.8182 57.8606 70.8032C57.804 70.7625 57.9378 70.9352 57.9203 70.9293C57.8318 70.9044 57.7797 70.9135 57.705 70.8944C57.6294 70.874 57.1782 70.5176 57.0516 70.4533C56.7972 70.338 57.4361 70.7331 57.5673 70.8392C57.5183 70.8313 57.443 70.8004 57.3658 70.7715C57.3021 70.7423 57.2416 70.7096 57.1864 70.675C57.169 70.6751 57.0536 70.6495 56.8872 70.5422C56.8354 70.5255 56.7749 70.5059 56.7232 70.4928C56.9715 70.606 56.9842 70.6341 57.137 70.6881C57.2893 70.7432 57.2548 70.7293 57.2681 70.7341C57.4561 70.8075 57.2001 70.7034 57.1763 70.7036C57.1182 70.6891 56.7871 70.618 56.8074 70.6277C56.8411 70.6515 57.5253 70.7345 56.6167 70.6195C56.9113 70.662 56.7582 70.6405 56.737 70.647C56.7344 70.6476 56.9063 70.6585 56.9108 70.6589C57.0384 70.6654 56.7184 70.6508 56.7012 70.6478C56.4067 70.6325 56.5369 70.6615 56.5089 70.6636C56.157 70.7208 55.9337 70.8856 55.9153 71.0581C55.9115 71.0983 56.0638 71.1375 56.0357 71.1869C56.0091 71.2396 55.8171 71.332 55.7401 71.4021C56.1965 71.1687 56.2437 71.1399 56.0091 71.3912C56.3249 71.1917 56.079 71.3654 56.167 71.3574C56.2432 71.3545 56.614 71.1007 56.3604 71.3873C56.353 71.3276 56.221 71.4552 56.0973 71.4799C56.0532 71.4887 55.9314 71.3327 55.6179 71.5448C55.4562 71.6613 55.6598 71.6361 55.6303 71.6569C55.4694 71.7985 55.2237 71.9066 55.2697 71.8097C55.3127 71.7966 55.3573 71.7846 55.4002 71.771C55.564 71.5366 54.7411 72.1491 55.4534 71.6009C55.542 71.5355 55.6412 71.4783 55.7342 71.4066C55.6913 71.4289 55.5979 71.5057 55.5718 71.5039C55.5446 71.5007 55.7275 71.3632 55.5593 71.4545C55.3133 71.5855 55.4442 71.5922 55.433 71.6044C55.4344 71.6035 55.4359 71.6027 55.4374 71.6019C55.3369 71.7208 55.2689 71.6419 55.2437 71.6499C55.0766 71.7068 54.9724 71.7944 54.8191 71.8129C54.7315 71.8234 54.7332 71.7202 54.6955 71.7006C54.6566 71.681 54.5599 71.7854 54.5243 71.776C54.4882 71.7655 54.5673 71.6973 54.5264 71.685C54.5084 71.6798 54.3734 71.7377 54.3663 71.734C54.2888 71.6947 54.5876 71.6183 54.5501 71.5743C54.5265 71.55 54.2151 71.5211 54.1651 71.6351C54.1221 71.6027 54.0875 71.5673 54.0511 71.5275C54.0182 71.5691 54 71.6094 53.9605 71.653C53.9986 71.5464 53.7458 71.5762 53.7108 71.5196C53.6759 71.4614 53.9569 71.3407 53.7999 71.3096C53.4624 71.2296 53.682 71.5586 53.6464 71.6165C53.6306 71.6411 53.3836 71.6378 53.3739 71.6272C53.3314 71.5846 53.4808 71.4853 53.4651 71.451C53.4079 71.3262 53.1735 71.2842 53.1094 71.145C52.8873 70.6861 52.8178 70.0295 52.8926 69.5827C52.9194 69.4116 53.1889 69.3994 53.204 69.333C53.2414 69.1772 53.0458 69.0789 53.0913 68.9402C53.1576 68.7354 53.4623 68.5687 53.5758 68.4629C53.6544 68.3865 53.5305 68.1907 53.5427 68.1631C53.6984 67.788 54.0026 67.4479 54.2129 67.24C54.3119 67.141 54.5208 67.2731 54.5357 67.2498C54.6025 67.1495 54.4449 67.0181 54.5323 66.9693C54.5799 66.943 54.7125 67.0865 54.7225 67.0879C54.8089 67.0994 54.6562 66.8955 54.6884 66.8586C54.8745 66.6469 55.1853 66.6322 55.4183 66.5172C55.4356 66.5088 55.4931 66.6059 55.5003 66.5947C55.5304 66.5441 55.4178 66.4044 55.4595 66.3646C55.5464 66.2811 55.6658 66.2482 55.7866 66.211C55.7987 66.2073 55.8699 66.3336 55.8944 66.3212C55.9189 66.3088 55.8763 66.1763 55.9197 66.1636C56.0339 66.13 56.2027 66.2337 56.318 66.195C56.3368 66.1885 56.2934 66.0174 56.3232 66.0074C56.417 65.9753 56.6048 66.0749 56.6852 66.0539C56.9494 65.9831 57.1786 65.8195 57.4603 65.7678C57.5256 65.7562 57.6125 65.9067 57.6466 65.9057C57.7261 65.9031 57.6457 65.7595 57.7277 65.7484C58.394 65.6679 59.2226 65.7514 60.1192 66.2036C60.4623 66.3727 60.971 66.5696 61.2063 66.9087C61.2994 67.0441 61.1503 67.1988 61.213 67.2842C61.3204 67.4356 61.5726 67.3256 61.6979 67.4839C61.7993 67.6165 61.6355 67.8962 61.7085 68.0281C61.7783 68.1542 62.0477 68.123 62.1311 68.2797C62.1995 68.4091 62.1316 68.627 62.1748 68.7461C62.3103 69.1315 62.3828 69.4652 62.4171 69.8105C62.4867 70.3925 62.4334 71.0865 62.0431 71.7996C61.8444 72.1625 61.6454 72.6567 61.144 72.895C61.0974 72.9161 60.9353 72.7114 60.8937 72.852C60.8716 72.9259 60.9731 73.1504 60.8507 73.2958C60.0765 74.2082 58.7817 74.1377 58.0445 74.2752C56.9988 74.5447 55.1462 75.9059 55.3177 73.1072C55.3333 72.9726 55.6074 72.3981 55.6955 72.2393C55.6612 72.3651 55.6177 72.5133 55.5811 72.656C55.9089 71.9314 55.8236 72.1207 55.8791 72.2192C55.9132 72.2799 55.9959 71.9475 56.0556 71.8671C56.1362 71.7651 56.4062 71.4437 56.2083 71.9319C56.2474 71.8489 56.2841 71.769 56.3215 71.6873C56.4518 71.647 56.5918 71.5508 56.7267 71.4298C56.75 71.4085 56.7915 71.2487 56.8142 71.2273C56.8751 71.1683 56.885 71.282 56.9345 71.2756C56.9613 71.2722 57.0036 71.0861 57.0317 71.1042C57.0593 71.1221 57.0132 71.3757 57.1052 71.1077C57.1358 70.7851 57.2099 71.0358 57.2553 71.0212C57.2628 71.0197 57.3444 70.7373 57.3622 70.7726C57.3807 70.8075 57.4024 70.9959 57.4467 70.8933C57.4673 70.8451 57.4896 70.6198 57.5054 70.6077C57.5164 70.5992 57.522 70.8006 57.5373 70.8094C57.5529 70.8183 57.5854 70.6536 57.5898 70.6508C57.6087 70.6399 57.5878 70.7813 57.6014 70.7883C57.6668 70.8205 57.7514 70.8905 57.7934 70.7887C57.7982 70.7764 57.7673 70.6125 57.7676 70.6069C57.7741 70.3996 57.7856 70.6171 57.8202 70.7626C57.8553 70.9039 57.9248 70.8085 57.8461 70.5289C57.9378 70.8797 57.8819 70.608 57.8799 70.5975C57.8778 70.5553 57.9672 70.856 57.9511 70.7593C57.9441 70.7245 57.8721 70.5249 57.8774 70.5297C57.8875 70.5427 58.0096 70.861 58.0413 70.8852C58.0486 70.8913 57.9931 70.7501 58.0001 70.7527C58.0064 70.756 58.1075 70.9136 57.962 70.6284C58.0818 70.8554 58.0266 70.7257 58.0393 70.7266C58.042 70.7276 58.171 70.9354 58.141 70.8649C58.1304 70.8412 58.0047 70.6419 58.0051 70.6393C58.0045 70.6337 58.1492 70.8305 58.1672 70.8289C58.2013 70.8259 58.0977 70.688 58.1535 70.717C58.1696 70.7241 58.3469 70.8814 58.3601 70.8728C58.3624 70.8701 58.2123 70.73 58.2312 70.7368C58.2421 70.7419 58.3769 70.8006 58.3914 70.7992C58.4137 70.7989 58.2206 70.6755 58.2612 70.6951C58.3791 70.7497 58.6653 70.9284 58.2768 70.6786C58.5026 70.799 58.4878 70.7728 58.7692 70.9142C58.4687 70.7441 58.7696 70.8841 58.6763 70.8114C58.5835 70.7373 57.975 70.4602 58.636 70.7436C58.5604 70.6986 58.4364 70.6074 58.4281 70.5982C58.4058 70.5698 58.5887 70.6487 58.5691 70.6242C58.5658 70.62 58.4369 70.5765 58.4549 70.5659C58.467 70.5604 58.5 70.4804 58.5193 70.4783C58.7413 70.4712 58.6409 70.5471 58.7765 70.6049C58.7387 70.5963 58.7008 70.5875 58.6635 70.5788C58.5938 70.5867 58.8912 70.6653 58.9643 70.6703C59.0373 70.6756 58.9141 70.6088 59.0149 70.6228C59.0655 70.6296 59.42 70.7306 59.3703 70.7427C59.4868 70.7478 59.5921 70.816 59.6976 70.8348C59.8146 70.8537 59.8825 70.7324 59.6842 70.6861C59.6719 70.7076 59.6718 70.7376 59.6578 70.7581C59.3116 70.6867 58.1589 70.3356 58.638 70.3927C58.988 70.4183 59.2462 70.5451 58.9797 70.3779C58.9627 70.393 58.9276 70.4014 58.9103 70.4136C58.6501 70.3654 58.9404 70.3961 58.8599 70.3678C58.8203 70.3555 58.6298 70.356 58.5737 70.316C58.951 70.3549 58.5795 70.2692 58.5809 70.2264C58.6461 70.2481 58.7106 70.2706 58.7753 70.2939C59.0598 70.247 59.1177 70.4726 59.2965 70.3125C59.3055 70.3371 59.299 70.3591 59.3139 70.3845C59.4529 70.3943 59.8526 70.4761 59.9394 70.4782C60.1677 70.4812 60.0399 70.4122 60.0644 70.3757C60.0748 70.3597 60.1827 70.3836 60.1835 70.3823C60.1984 70.3606 60.0377 70.3467 60.0297 70.326C60.0198 70.3009 60.183 70.2427 60.1662 70.2281C60.1235 70.1933 59.8019 70.2166 59.7785 70.2107C59.6267 70.1787 59.7571 70.1526 59.5559 70.1386C59.6883 70.2427 59.4812 70.4516 59.175 70.2073C58.8451 70.225 58.4018 70.1515 58.3723 70.091C58.3474 70.0373 58.5237 70.0869 58.7235 70.0734C58.7486 70.0724 58.8485 69.9955 58.7087 69.9851C59.0303 70.0063 59.3169 69.9908 59.6479 70.0281C59.6966 70.0336 59.675 70.0731 59.9428 70.0743C60.0772 70.0751 60.3703 70.0679 60.5409 70.0803C60.4227 70.0642 60.2896 70.0475 60.1662 70.0323C60.1345 69.9633 60.2625 69.9591 60.4853 69.9249C60.3927 69.925 60.0031 69.9491 60.1226 69.8997C60.1297 69.8971 60.2693 69.8981 60.339 69.8712C60.4786 69.8169 60.5217 69.801 60.9311 69.8528C60.8997 69.8349 60.8808 69.8192 60.8714 69.8048C60.8104 69.7052 61.1359 69.6548 61.0134 69.5283C60.4889 69.5895 60.6228 69.622 60.7259 69.7525C60.6007 69.7592 60.4766 69.7626 60.3501 69.7686C60.6317 69.6048 60.6038 69.6771 60.3462 69.6005C60.2833 69.5819 60.3417 69.4673 59.9907 69.5313C59.9083 69.5457 59.9218 69.6063 59.7899 69.6067C59.765 69.6061 59.6965 69.5411 59.7297 69.5327C60.1386 69.4102 60.451 69.5508 60.2651 69.2965C60.2595 69.2897 60.1075 69.3097 60.0843 69.2995C60.0409 69.2804 60.2162 69.2511 60.1717 69.2343C60.1268 69.2164 59.8869 69.2339 60.0964 69.1564C60.4747 69.0012 60.739 69.1296 60.5393 69.2451C60.8017 69.2245 60.9152 69.0608 60.9389 68.8898C60.9616 68.7068 60.8869 68.5235 60.8582 68.5127C60.6081 68.4073 60.8251 68.6588 60.6874 68.7184C60.631 68.745 59.8834 68.9721 60.3873 68.8869C60.5381 68.8664 60.7019 68.7221 60.7972 68.7516C60.893 68.784 60.6649 68.8248 60.6507 68.8332C60.6014 68.8607 60.6986 68.8942 60.6688 68.9099C60.2104 69.1238 59.484 69.2985 60.5231 68.8995C60.2674 68.9116 59.9141 69.1321 59.734 69.1155C59.5189 69.1093 59.8445 68.9611 59.8558 68.944C59.9987 68.7795 59.551 69.0683 59.6644 68.9005C59.7208 68.7956 60.0312 68.879 59.9278 68.7223C59.834 68.5916 59.7097 68.7537 59.3362 68.9265C59.2485 68.9668 59.1223 68.9792 59.1896 69.0185C59.287 68.9733 59.4162 68.9156 59.5081 68.8785C59.4485 68.9357 58.9674 69.1764 58.9514 69.187C58.8796 69.2476 59.141 69.1516 58.8385 69.2803C59.1721 69.1467 58.9761 69.2412 59.0508 69.2257C59.3275 69.1738 59.4151 69.1017 59.0951 69.2892C59.2547 69.2342 59.4104 69.1773 59.5669 69.115C59.5766 69.1273 59.5863 69.14 59.5958 69.153C59.2446 69.2741 59.3016 69.3098 58.9278 69.3524C58.837 69.4272 58.9184 69.4269 59.2052 69.3906C59.2599 69.3834 59.2835 69.39 59.2908 69.4016C59.3704 69.386 59.6169 69.3404 59.6476 69.3376C59.9182 69.3161 59.4617 69.4214 59.2836 69.436C59.2765 69.4461 59.2676 69.4546 59.2637 69.4577C59.2384 69.4767 59.0747 69.4698 59.0216 69.4895C59.0044 69.4952 59.0443 69.5309 58.9792 69.5394C58.5617 69.589 58.8589 69.5085 58.6257 69.6347C59.0073 69.608 58.9182 69.5579 59.3237 69.5321C59.7601 69.5102 59.1803 69.6003 59.7147 69.5693C59.6272 69.5793 59.5541 69.586 59.4543 69.5958C59.6913 69.6474 59.2456 69.6725 59.148 69.6929C59.0405 69.7167 59.0034 69.7743 59.0599 69.7982C59.0858 69.8096 59.1315 69.8129 59.1994 69.7987C59.2463 69.7893 59.3039 69.7717 59.3722 69.7417C59.4031 69.76 59.4208 69.7796 59.4436 69.7996C59.4496 69.8049 59.4559 69.8102 59.463 69.8154C58.6634 69.8146 58.9826 69.8059 58.858 69.907C58.8303 69.9293 58.4788 69.921 58.8951 69.9597C58.4861 69.9396 58.7303 70.0103 58.6801 70.0141C58.3559 70.0225 57.9126 69.8922 58.6363 69.8953C58.3551 69.8646 58.7277 69.8743 58.6788 69.8456C58.6385 69.8225 58.5976 69.8109 58.6205 69.7966C58.6378 69.787 58.6918 69.7766 58.8102 69.7565C58.6389 69.7412 58.5862 69.7704 58.5357 69.7963C58.4719 69.8358 58.4126 69.8648 58.1274 69.7948C58.1268 69.7947 58.1263 69.7946 58.1257 69.7945C57.8724 69.7439 57.6537 69.6223 57.5211 69.712C57.3751 69.785 57.4529 70.1201 57.5224 70.2304C57.755 70.6667 58.0709 70.8237 58.241 70.8143C58.268 70.8155 58.3454 70.85 58.3015 70.4034C58.293 70.3394 58.302 70.1687 58.2741 69.818C58.286 70.0252 58.2854 70.1601 58.2873 70.1819C58.3174 70.6772 58.3442 70.797 58.3523 70.8009ZM56.9544 67.0559C57.3054 67.0449 56.9772 66.8397 56.8399 66.1728C56.7899 66.1868 56.7403 66.2014 56.691 66.2167C56.7177 66.2523 56.7442 66.2878 56.7705 66.3237C56.7705 66.3237 56.7706 66.3236 56.7706 66.3236C56.8283 66.5688 56.8895 66.813 56.9544 67.0559ZM53.7884 71.8582C53.6986 71.8725 53.6082 71.8857 53.5189 71.8949C53.5212 71.8207 53.5254 71.748 53.5311 71.6714C53.5914 71.662 53.6522 71.6517 53.7122 71.6415C53.7339 71.7201 53.7549 71.7886 53.7884 71.8582ZM60.6428 69.2778C60.4054 69.3699 60.8441 69.3189 60.6517 69.4162C60.9751 69.3758 61.2911 69.3324 61.6107 69.2865C61.5543 69.2142 61.4291 69.2092 61.4955 69.1117C61.3934 69.1372 61.2906 69.1623 61.1876 69.1862C61.2117 69.1966 61.239 69.2077 61.2605 69.2185C60.9725 69.2741 60.9128 69.1627 60.6421 69.2777C60.6424 69.2777 60.6426 69.2778 60.6428 69.2778ZM60.8063 69.8853C60.7636 69.9157 60.6006 70.024 60.7345 70.045C61.1902 70.1233 60.9108 69.7628 61.3094 70.0351C61.3736 70.0364 61.4364 70.04 61.4999 70.0425C61.5243 69.9938 61.545 69.9445 61.5638 69.8939C61.3106 69.8925 61.0607 69.8867 60.8063 69.8853ZM58.2099 66.7831C58.2636 66.8131 58.5767 66.6112 58.4924 66.3175C58.4581 66.2301 58.3047 66.6408 58.2579 66.6242C58.2245 66.6131 58.2589 66.385 58.1923 66.47C58.1979 66.5701 58.2027 66.6811 58.21 66.7824C58.21 66.7826 58.2099 66.7828 58.2099 66.7831ZM58.1717 68.108C58.2083 68.0654 58.2471 68.0129 58.2882 67.9697C58.2558 67.7106 58.1951 67.879 58.1755 67.5153C58.1879 67.4871 58.2005 67.4592 58.2137 67.4312C58.2267 67.5105 58.2386 67.59 58.2496 67.6695C58.2874 67.4712 58.2634 67.3723 58.3445 67.4305C58.3082 66.8796 58.2661 66.5814 58.131 67.1451C58.1498 66.8452 58.0593 65.8737 58.0042 66.5755C57.9972 66.7055 58.0754 66.7863 58.0777 66.807C58.1037 67.0615 58.0775 67.2267 58.1047 67.467C58.1165 67.5757 58.1518 67.5719 58.1643 67.7232C58.1695 67.797 58.1525 68.0094 58.1717 68.108ZM57.9794 66.8222C57.9858 66.6662 57.8838 66.306 57.8298 66.3874C57.753 66.5133 57.9356 66.8429 57.9794 66.8222ZM53.7889 71.8584C53.7887 71.8583 53.7886 71.8582 53.7884 71.8582C53.7888 71.8581 53.7891 71.858 53.7894 71.858C53.7893 71.8581 53.7891 71.8583 53.7889 71.8584ZM60.9858 69.7191C61.0785 69.7464 61.0968 69.786 61.1712 69.8059C61.2031 69.8135 61.2453 69.8179 61.3081 69.817C61.2668 69.8354 61.2262 69.8537 61.1848 69.8713C61.2477 69.872 61.3108 69.8725 61.3731 69.8732C61.3888 69.8513 61.4044 69.8291 61.4199 69.8068C61.444 69.7669 61.4677 69.7265 61.491 69.6855C61.3229 69.6973 61.154 69.7077 60.9858 69.7191ZM60.8175 70.2953C60.7903 70.3595 61.0791 70.3306 61.2146 70.3582C61.3501 70.3871 61.2321 70.4399 61.4291 70.4534C61.4414 70.4109 61.4535 70.3662 61.4643 70.3223C61.2494 70.3159 61.0309 70.3047 60.8175 70.2954C60.8175 70.2954 60.8175 70.2953 60.8175 70.2953ZM55.6492 67.4837C55.7262 67.5054 55.83 67.6972 55.7687 67.4319C55.7687 67.4319 55.7686 67.4319 55.7685 67.432C55.5933 67.3345 55.3931 67.2815 55.4105 67.4845C55.5998 67.6289 55.5282 67.451 55.6492 67.4837ZM61.2442 68.9835C61.071 68.9935 60.9494 69.1266 61.1108 69.1254C61.3736 69.1285 61.5093 68.9736 61.2442 68.9835ZM55.557 69.7777C56.0047 70.0653 56.5588 70.2876 56.3709 70.1047C56.3556 70.0866 56.1866 70.0396 56.1054 69.9741C56.0975 69.9674 56.1234 69.9494 56.0652 69.9036C56.0069 69.8575 55.8574 69.773 55.8043 69.7223C55.7128 69.6317 55.9382 69.7143 55.8133 69.605C55.7971 69.5895 55.5866 69.4906 55.5776 69.4885C55.4384 69.4463 55.6683 69.6436 55.6676 69.6484C55.6602 69.6795 55.4627 69.552 55.4112 69.5302C55.3139 69.4899 55.3879 69.5687 55.3804 69.5662C55.1755 69.5075 55.2891 69.4318 55.2273 69.3719C55.0608 69.2082 54.8539 69.134 54.8202 68.9529C54.8162 68.9371 54.9178 68.8155 54.5886 68.8283C54.3768 68.1745 54.2025 68.8321 54.2814 68.9583C54.3143 69.0134 54.5316 69.0851 54.6097 69.1515C54.7896 69.301 54.795 69.3763 55.0842 69.5252C55.6905 69.8409 55.3285 69.5699 55.4529 69.5865C55.5777 69.667 55.7009 69.743 55.822 69.8236C55.6608 69.7116 55.5238 69.754 55.5558 69.7771C55.5562 69.7773 55.5566 69.7775 55.557 69.7777ZM55.369 68.7112C55.5692 68.7983 55.2526 68.5052 55.4778 68.6273C55.2449 68.3114 55.176 68.4189 55.1497 68.4156C55.0326 68.3978 54.7208 68.1143 54.766 68.2583C54.9701 68.4039 55.1704 68.5579 55.369 68.7112ZM54.8201 69.1384C54.6649 68.9746 54.614 69.0628 54.576 69.0455C54.171 68.8553 54.4201 68.6245 54.8201 69.1384ZM58.5147 67.6604C58.5385 67.6775 58.5424 67.4677 58.5733 67.4088C58.6064 67.3492 58.6657 67.5382 58.6824 67.4093C58.7074 67.2805 58.5638 66.92 58.762 66.8732C58.7664 66.7998 58.7767 66.7461 58.7832 66.6801C58.7275 66.6699 58.6716 66.6599 58.6162 66.6526C58.6267 66.8654 58.6307 67.089 58.6291 67.294C58.5843 67.4575 58.5955 67.2424 58.5936 67.2422C58.5935 67.2424 58.5935 67.2426 58.5935 67.2428C58.5407 67.2541 58.4606 67.6228 58.5147 67.6604ZM56.4338 67.4833C56.6685 67.9516 56.4519 67.405 56.4484 67.3344C56.4432 67.2646 56.5606 67.4232 56.4497 67.2265C56.3413 67.1061 56.406 67.4318 56.4341 67.4839C56.434 67.4837 56.4339 67.4835 56.4338 67.4833ZM55.6504 68.4305C55.6107 68.2955 55.5157 68.1974 55.675 68.2655C55.5907 68.1709 55.5045 68.0745 55.4211 67.9817C55.3688 68.0234 55.6157 68.2956 55.4636 68.2336C55.4382 68.2236 55.2606 67.9881 55.2824 68.0962C55.4006 68.2003 55.5295 68.3182 55.6504 68.4305ZM55.5903 67.868C55.5391 67.9332 56.1459 68.7598 55.9519 68.3238C55.9228 68.2588 55.6268 67.8208 55.5903 67.868ZM57.8835 67.7079C58.0007 67.7211 57.851 67.5748 57.7905 67.4258C58.0621 67.2589 57.7705 67.4702 57.6437 66.9638C57.6296 67.118 57.6364 67.4646 57.7232 67.5404C57.7588 67.5722 57.7197 67.421 57.7215 67.4213C57.7836 67.4492 57.8196 67.7017 57.8835 67.7079ZM55.3032 68.8237C55.3004 68.8151 55.1611 68.7059 55.1442 68.6713C55.1278 68.6365 55.2435 68.6923 55.1643 68.618C55.0851 68.5426 54.9734 68.5417 55.0196 68.6107C55.0664 68.6798 55.3288 68.8987 55.3032 68.8237ZM55.9175 68.8124C55.8719 68.6811 55.3605 68.2667 55.3496 68.2816C55.2871 68.3888 55.7837 68.6542 55.9175 68.8124ZM57.8825 68.8346C57.8983 68.492 57.7231 67.9404 57.5457 67.6295C57.5514 67.7003 57.5575 67.7711 57.5647 67.8409C57.506 67.4171 57.5063 66.9817 57.3828 67.398C57.5226 67.4637 57.4568 67.5999 57.4638 67.6229C57.6611 68.3784 57.706 67.9928 57.8824 68.8346C57.8824 68.8346 57.8824 68.8346 57.8825 68.8346ZM55.0303 68.8649C54.9889 68.9214 55.0022 69.1395 55.3267 69.2694C55.2233 69.1391 55.1241 69.0046 55.0303 68.8649ZM58.9368 69.0119C58.7886 69.1401 58.7955 69.145 58.8175 69.1576C59.0533 68.9991 59.0869 68.9921 59.1535 68.9689C59.2531 68.9328 59.2249 68.9004 59.241 68.8905C59.4721 68.7528 59.5283 68.7635 59.4797 68.6972C59.5703 68.6648 59.6616 68.633 59.7544 68.6074C59.7285 68.5392 59.8658 68.4289 60.007 68.2558C59.6086 68.6018 59.8347 68.3497 59.5921 68.463C59.4767 68.5272 59.0185 68.9538 58.9368 69.012C58.9368 69.012 58.9368 69.012 58.9368 69.0119ZM57.9922 68.9187C57.9827 68.8243 57.9677 68.6971 57.9582 68.5892C57.9667 68.5772 57.9752 68.5666 57.9844 68.5546C57.9992 68.6368 58.0143 68.7229 58.0285 68.802C58.0447 68.824 58.0218 68.7099 58.0239 68.6985C58.024 68.6989 58.0241 68.6994 58.0241 68.6998C58.0562 68.539 58.0914 68.5525 58.1548 68.8058C58.1314 68.551 58.108 68.2962 58.0846 68.0414C58.0741 68.0668 58.0637 68.0918 58.0538 68.1167C58.0619 68.2542 58.0711 68.3916 58.0814 68.5288C58.0607 68.4549 58.0388 68.3817 58.0153 68.3084C58.0111 68.3588 58.0059 68.4121 58.0042 68.461C57.8416 67.762 58.0428 68.2237 58.0074 67.9298C57.9882 67.7389 57.832 67.7696 57.8372 67.9037C57.8384 67.9231 57.9587 68.4425 57.8636 68.1778C57.8515 68.1357 57.6224 67.0059 57.7491 67.9324C57.7694 68.0634 57.9419 68.7586 57.9922 68.9187ZM58.3064 69.2597C58.2783 68.521 58.409 69.3068 58.3717 68.6976C58.4158 68.361 58.4194 68.3655 58.4008 68.0633C58.3988 68.0362 58.4295 67.9448 58.4283 67.9329C58.4017 67.765 58.3539 67.8516 58.3614 67.5503C58.3501 67.5661 58.3397 67.5801 58.3287 67.5961C58.3662 67.8807 58.2958 68.0703 58.28 68.3104C58.2722 68.419 58.2919 68.4524 58.2853 68.5474C58.2833 68.5821 58.2566 68.5132 58.2577 68.6127C58.2611 68.8376 58.2823 69.1412 58.2953 69.3071C58.2953 69.3073 58.2953 69.3075 58.2953 69.3077C58.2989 69.293 58.3025 69.2751 58.3064 69.2597ZM57.0785 69.0153C56.8676 68.6666 56.7595 68.594 56.7495 68.3703C56.7057 68.3028 56.6619 68.2362 56.6176 68.1691C56.6051 68.1843 56.5933 68.1992 56.5805 68.2141C57.1471 69.2729 56.3737 68.1592 56.8663 68.8554C56.92 68.931 56.8956 68.8249 56.9973 69.0571C56.9975 69.0573 56.9976 69.0575 56.9978 69.0577C56.9968 68.968 56.9314 68.839 57.0785 69.0153ZM57.2362 68.6157C57.0032 67.7796 56.8704 68.2582 57.0225 68.4392C57.034 68.4558 57.0748 68.2332 57.2362 68.6157ZM56.9248 69.6815C56.9642 69.6682 56.6786 69.3046 56.5703 69.1779C56.4616 69.0509 56.5404 69.2044 56.5206 69.1867C56.4538 69.1293 56.4422 69.0646 56.3511 68.9856C56.3221 68.9591 56.1403 68.8974 56.1495 68.9163C56.2042 69.0155 56.4829 69.2787 56.5063 69.3163C56.5862 69.4367 56.4338 69.3068 56.5658 69.4611C56.8484 69.7893 56.5771 69.4218 56.58 69.4096C56.5854 69.3775 56.7437 69.5629 56.7883 69.5889C56.8328 69.615 56.7873 69.5442 56.8101 69.5477C56.8177 69.5489 56.9222 69.6817 56.9248 69.6815ZM56.446 68.8158C56.6143 69.127 56.9398 69.3596 56.9009 69.2875C56.7985 69.0616 56.3723 68.6617 56.446 68.8158ZM58.1396 68.1529C58.1125 68.4094 58.2303 68.6067 58.2529 68.5049C58.2492 68.3991 58.1539 68.0639 58.1396 68.1529ZM57.8576 68.8392C57.8778 68.753 57.6892 68.2099 57.6484 68.2303C57.7247 68.599 57.7256 68.5215 57.752 68.5305C57.7785 68.5398 57.8436 68.9062 57.8576 68.8392ZM56.3039 69.7093C56.3102 69.7096 56.1778 69.3912 56.0228 69.371C56.0104 69.3697 55.9788 69.4916 56.0195 69.5342C56.1006 69.6199 56.2775 69.7146 56.3039 69.7093ZM57.8551 69.4175C57.7687 69.1036 57.7917 69.101 57.6571 68.7432C57.657 68.7433 57.657 68.7433 57.657 68.7433C57.6771 68.6143 57.9014 69.3628 57.9044 69.3444C57.9187 69.2793 57.7348 68.7538 57.7091 68.5714C57.697 68.7533 57.6089 68.3887 57.5511 68.3817C57.5375 68.3806 57.5637 68.6076 57.6039 68.7414C57.6437 68.8752 57.797 69.2648 57.8551 69.4175ZM56.2536 69.9073C56.377 69.9483 55.9835 69.5948 55.8726 69.6046C55.8169 69.6117 56.1759 69.8861 56.2536 69.9073ZM58.9499 69.9243C59.0883 69.9217 59.226 69.918 59.3631 69.9132C59.3959 69.9337 59.4293 69.9546 59.4625 69.9756C59.4195 69.9583 59.377 69.9413 59.3345 69.9245C59.2851 69.96 59.0334 69.9636 58.9499 69.9244C58.9499 69.9244 58.9499 69.9244 58.9499 69.9243ZM58.6306 70.872C58.5112 70.813 58.8566 71.0383 58.8849 71.0535C59.1052 71.1516 58.7993 70.948 58.6306 70.872ZM58.263 69.3991C58.2902 69.456 58.2614 68.7864 58.2248 68.742C58.2458 68.8693 58.2449 69.367 58.263 69.3991ZM58.7765 70.6049C58.8328 70.6177 58.8892 70.63 58.9459 70.6415C58.8647 70.6339 58.8126 70.6199 58.7765 70.6049ZM56.7679 70.0766C56.8111 70.1049 56.8718 70.1003 56.8291 70.0529C56.7402 69.952 56.4376 69.735 56.5056 69.8303C56.5125 69.841 56.7245 70.0483 56.768 70.0765C56.768 70.0765 56.768 70.0765 56.7679 70.0766ZM58.6906 69.984C58.697 69.9843 58.7031 69.9846 58.7087 69.9851C58.7027 69.9847 58.6966 69.9844 58.6906 69.984ZM57.8384 70.4993C57.8411 70.5094 57.8437 70.5194 57.8461 70.5289C57.8437 70.5195 57.8411 70.5097 57.8384 70.4993ZM57.378 70.27C57.7995 70.7492 57.599 70.4746 57.3817 70.2449C57.37 70.233 57.3811 70.269 57.378 70.27Z" fill="#FDFDFD"/>
</svg>
