<svg width="1526" height="1188" viewBox="0 0 1526 1188" fill="none" xmlns="http://www.w3.org/2000/svg">
<path d="M1.82031 1.26953H1523.82V1185.27H1.82031V1.26953Z" fill="url(#paint0_linear_3872_1035)"/>
<path d="M888.736 1187.24C669.314 1187.25 429.088 1187.31 208.788 1187.23C181.743 1187.22 183.591 1187.08 176.004 1187.07C155.261 1187.02 142.772 1187.18 127.653 1187.16C84.6239 1187.13 43.2209 1187.11 1.82031 1187.09L0.00272954 1187.09L0.00138426 1185.27C0.0171862 1155.95 0.0334463 1126.64 0.0545291 1096.74C0.106789 1022.47 0.524345 1057.6 0.626064 1031.79C0.825274 981.368 0.280781 1024.26 0.158533 1004.44C0.191194 946.631 0.25018 888.311 0.309901 830.4C0.36074 844.537 0.410498 858.678 0.457607 872.97C0.468811 847.73 0.552853 811.605 0.695157 853.873C0.734351 844.531 0.780187 835.81 0.818448 826.209C0.620162 823.577 0.604212 778.888 0.48666 774.802C0.369076 770.725 0.396094 795.85 0.385829 795.695C0.239375 794.03 0.439568 690.962 0.455898 683.53C0.499348 663.88 0.745166 681.108 0.729336 664.392C0.702273 635.642 0.202122 654.795 0.867032 615.876C0.65103 600.393 0.763204 599.042 0.778165 579.437C0.780031 576.856 0.654966 578.859 0.651699 577.724C0.558872 548.049 0.791446 570.859 0.804044 570.704C1.01806 568.01 0.922922 536.164 0.943448 529.455C1.19913 445.273 1.37223 383.59 1.43149 294.761C1.44408 275.559 1.35725 217.075 1.39365 198.493C1.42956 180.166 1.58377 189.999 1.65781 180.408C1.28685 165.033 1.24593 150.367 1.49033 115.85C1.21973 102.999 1.438 104.651 1.38388 80.0307C1.33904 59.5382 1.01443 23.8239 1.29111 1.26953C1.26591 27.1296 1.39884 24.4516 1.4791 53.5637C1.50567 63.2545 1.51135 164.309 1.78793 156.79C1.93211 152.867 1.79969 119.374 1.82626 118.08C1.98118 110.544 2.17155 129.237 2.10483 145.806C2.07357 141.677 2.04185 136.702 2.01059 132.263C1.81695 169.478 2.56067 143.886 1.91074 172.17C1.83101 175.668 1.74789 174.312 1.66318 180.077C1.69821 181.262 1.78507 174.209 1.80063 180.284C1.81631 186.48 1.6514 198.246 1.79038 200C1.99248 202.622 1.91284 176.951 1.92465 175.019C1.92343 174.998 1.92221 174.978 1.92099 174.957C2.0283 157.878 2.04053 193.548 2.05966 195.251C2.18559 206.285 2.28255 198.761 2.38657 215.319C2.44583 224.764 2.4109 248.825 2.43003 257.703C2.44964 266.525 2.54524 252.8 2.56577 258.735C2.5863 264.671 2.51365 272.061 2.53745 279.03C2.54794 282.012 2.65457 281.86 2.6583 283.303C2.69933 298.784 2.47753 288.629 2.49106 302.668C2.50006 311.763 2.70681 342.289 2.76841 321.249C2.78986 331.363 2.80557 341.225 2.82236 351.288C2.85408 344.941 2.87563 338.383 2.91294 332.191C2.86215 351.127 3.04463 359.693 3.0582 371.561C3.07173 383.433 2.85276 394.075 2.95957 407.133C3.18681 435.006 3.08182 365.988 3.12241 357.419C3.13837 354.079 3.30989 366.902 3.3148 368.877C3.33625 377.649 3.21359 388.025 3.21909 394.787C3.23962 418.994 3.40151 433.817 3.43418 456.888C3.54523 535.448 3.63529 632.903 3.67075 707.334C3.68382 735.052 3.5018 751.73 3.50693 764.17C3.51908 793.274 3.6777 796.839 3.68613 822.224C3.6992 860.008 3.56072 913.236 3.53086 944.774C3.51033 966.607 3.66383 986.373 3.66758 992.051C3.71052 1053.61 3.71787 1125.56 3.71991 1185.27L1.82031 1183.37C18.6679 1183.37 34.5412 1183.37 48.9326 1183.37C79.6901 1183.37 94.298 1183.54 100.649 1183.54C127.951 1183.51 120.631 1183.37 142.765 1183.38C154.722 1183.39 156.959 1183.53 158.558 1183.54C172.65 1183.58 175.455 1183.4 186.45 1183.39C249.676 1183.36 310.579 1183.48 373.185 1183.5C377.728 1183.5 377.325 1183.58 380.267 1183.57C392.901 1183.55 387.027 1183.43 400.231 1183.42C427.691 1183.4 455.888 1183.42 485 1183.43C487.884 1183.44 489.18 1183.54 495.776 1183.54C502.383 1183.54 507.392 1183.44 517.763 1183.45C544.862 1183.46 571.604 1183.58 600.303 1183.59C605.051 1183.59 610.935 1183.46 618.058 1183.46C640.408 1183.47 673.499 1183.58 692.649 1183.59C755.827 1183.6 814.111 1183.53 873.624 1183.53C887.608 1183.53 900 1183.64 907.276 1183.65C923.679 1183.65 911.303 1183.54 927.921 1183.54C1063.67 1183.54 1199.94 1183.59 1337.29 1183.58C1391.23 1183.58 1456.89 1183.46 1509.02 1183.49C1515.15 1183.5 1519.87 1183.51 1523.82 1183.53L1522.08 1185.27C1522.13 1175.25 1522.21 1170.12 1522.21 1159.13C1522.21 1131.78 1522.02 1126.82 1522 1097.98C1521.98 1074.96 1522.18 1048.58 1522.17 1024.63C1522.15 1000.68 1521.96 989.625 1521.94 962.113C1521.92 939.454 1522.01 907.816 1521.99 883.146C1521.87 657.067 1521.79 434.447 1521.94 206.975C1521.98 141.556 1521.97 70.3007 1522.07 1.26953L1523.82 3.02368C1508.16 3.00183 1492.6 2.97449 1477.26 2.9398C1469.47 2.92204 1481.39 2.73775 1456.41 2.77647C1442.99 2.79746 1424.26 2.95626 1393.24 2.96421C1208.81 3.01087 1012.09 2.67119 824.566 2.73838C543.671 2.83964 252.557 4.15109 8.46287 2.23203C-3.51027 2.13779 2.98243 1.67597 10.1558 1.54477C16.8128 1.63854 22.9673 1.74991 29.9338 1.85581C38.7065 1.27877 37.1596 1.42902 69.6758 1.48081C89.6946 1.51297 73.7042 1.26618 84.3751 1.19614C98.2085 1.10562 163.158 0.820581 150.667 1.20273C154.693 1.13647 158.409 1.073 162.331 1.00815C209.352 0.950289 255.037 0.854611 301.025 0.744963C308.97 0.725796 309.336 0.605887 317.542 0.58676C339.58 0.534521 357.077 0.613294 379.787 0.601164C392.123 0.594632 393.835 0.456068 409.991 0.464933C426.137 0.473854 425.783 0.660906 447.813 0.457609C433.463 0.222912 497.472 0.393209 520.236 0.378751C523.539 0.376885 550.634 0.166038 565.036 0.190274C579.487 0.214067 601.424 0.348761 623.771 0.272305C634.249 0.236378 640.607 0.0721726 651.911 0.062832C659.859 0.0562999 669.407 0.202257 679.472 0.20834C689.533 0.214403 711.302 0.0945913 715.291 0.0926173C729.69 0.0846865 713.805 0.187302 723.653 0.192471C771.19 0.2158 826.422 0.270793 873.289 0.201748C879.051 0.193377 871.078 0.0724766 871.844 0.0684472C910.959 -0.0798942 890.081 0.0776298 900.644 0.185879C910.875 0.290552 985.748 0.233454 986.3 0.0232811C988.6 0.286467 1005.24 0.0854498 1009.57 0.0777246C1026.39 0.0478911 1023.09 0.275597 1039.4 0.205166C1045.38 0.179516 1033.73 0.0256056 1040.16 0.030117C1056.06 0.041315 1070.37 0.288573 1091.53 0.313321C1096.64 0.319387 1098.3 0.209246 1107.38 0.212979C1116.48 0.216769 1154.6 0.351513 1137.01 0.119229C1160.13 0.305373 1164.79 0.203208 1191.68 0.20834C1198.49 0.209905 1207.26 0.387398 1221.76 0.332364C1226.66 0.313687 1226.52 0.142601 1233.9 0.141201C1250.77 0.137517 1266.67 0.314624 1288.09 0.321622C1328.15 0.335148 1370.78 0.210645 1412.54 0.254971C1423.89 0.267136 1421.06 0.439147 1437.56 0.442472C1439.99 0.442472 1459.87 0.29372 1471.28 0.307706C1478.14 0.316105 1513.71 0.420646 1520.89 0.429044C1521.94 0.430237 1522.91 0.430018 1523.82 0.42865L1524.66 0.428029L1524.66 1.26953C1524.68 10.6084 1524.81 12.8928 1524.78 18.8153C1524.69 37.6037 1524.44 22.5308 1524.78 45.1379C1524.59 52.5707 1524.61 65.7826 1524.38 70.0153C1524.63 77.7055 1524.39 87.6783 1524.48 102.593C1524.56 117.511 1525.04 129.741 1524.52 133.355C1524.59 140.323 1524.69 170.01 1524.7 175.017C1524.72 189.773 1524.58 181.883 1524.6 193.019C1524.6 194.98 1524.7 192.926 1524.69 205.51C1524.69 213.768 1524.68 274.278 1524.67 277.891C1524.51 319.117 1524.57 255.426 1524.46 246.511C1524.49 244.937 1524.52 243.38 1524.55 241.701C1524.59 223.483 1524.37 233.855 1524.32 242.113C1524.27 250.372 1524.36 265.804 1524.29 272.668C1524.25 276.089 1523.99 273.969 1524.02 263.626C1523.94 274.694 1523.85 259.579 1523.77 263.956C1523.69 268.768 1523.66 318.505 1523.81 318.769C1523.81 309.479 1523.81 297.917 1523.81 288.524C1524.07 276.239 1524.95 313.553 1524.6 347.775C1524.34 372.598 1524.14 331.676 1524.35 390.408C1524.36 381.376 1524.39 373.736 1524.4 365.53C1524.59 364.656 1524.38 377.969 1524.44 384.833C1524.47 388.13 1524.61 367.81 1524.65 385.453C1524.38 400.626 1524.65 412.302 1524.66 437.747C1524.61 430.676 1524.56 423.595 1524.51 416.524C1524.31 459.519 1524.25 359.653 1524.13 443.259C1524.13 433.198 1524.13 423.188 1524.11 413.076C1524.01 417.978 1523.72 410.134 1523.66 414.521C1523.49 426.029 1523.59 443.056 1523.58 457.091C1523.57 463.234 1523.49 459.424 1523.49 459.94C1523.48 468.353 1523.6 466.495 1523.6 473.876C1523.61 483.164 1523.5 509.991 1523.51 514.341C1523.55 525.593 1523.78 506.856 1523.79 507.94C1523.91 515.115 1523.81 529.769 1523.96 528.999C1523.86 493.74 1523.99 392.128 1524.23 484.054C1524.47 458.711 1524.79 466.03 1524.82 502.47C1524.84 532.614 1524.71 513.162 1524.57 528.854C1524.55 530.883 1524.48 571.256 1524.58 573.324C1524.35 571.706 1524.14 584.845 1523.9 576.028C1523.86 574.738 1523.88 558.17 1523.68 563.951C1523.59 566.841 1523.37 575.135 1523.25 573.799C1523.34 577.205 1523.43 580.767 1523.52 584.224C1523.55 609.052 1523.46 612.579 1523.29 626.155C1523.36 625.535 1523.64 612.992 1523.56 632.039C1523.55 633.016 1523.45 633.861 1523.4 643.538C1523.3 663.098 1523.27 667.181 1522.97 652.168C1523.14 692.676 1522.81 701.403 1522.91 742.944C1523.29 734.685 1523.19 720.081 1523.12 682.041C1523.21 680.39 1523.3 679.615 1523.39 677.912C1523.19 728.543 1523.21 703.524 1523.39 732.209C1523.44 739.229 1523.39 776.659 1523.65 764.168C1523.71 761.22 1523.7 737.965 1523.8 740.632C1523.81 741.148 1523.86 769.417 1523.84 771.91C1523.53 803.189 1523.32 747.292 1523.43 833.432C1523.43 835.805 1523.54 836.639 1523.56 841.277C1523.59 849.998 1523.46 850.108 1523.49 857.897C1523.52 865.69 1523.69 876.488 1523.53 888.204C1523.24 909.625 1523.07 859.096 1523.23 836.591C1522.85 827.455 1522.84 988.239 1522.87 998.201C1523.01 1041.7 1522.93 969.312 1523.04 965.582C1523.08 964.034 1523.65 964.804 1523.28 946.485C1523.17 941.066 1523.03 963.718 1522.97 950.201C1522.91 936.677 1523.07 942.036 1523.09 941.055C1523.13 937.691 1523.06 923.309 1523.09 921.442C1523.45 892.743 1523.99 895.375 1523.19 933.417C1523.37 949.986 1523.66 911.954 1523.78 932.55C1523.93 957.581 1523.67 975.853 1523.66 979.001C1523.52 1016.72 1523.9 973.227 1523.78 1019.3C1523.71 1044.95 1523.53 980.909 1523.55 1039.49C1523.57 1088.53 1523.71 1062.05 1524.01 1065.61C1524.08 1066.45 1524.16 1093.32 1524.13 1056.73C1524.05 1055.7 1523.95 1053.75 1523.88 1051.42C1523.93 1042.45 1524.32 1027.49 1524.34 1022.73C1524.4 999.45 1524.2 1000.57 1524.44 986.846C1524.18 996.65 1524.34 980.694 1524.28 974.707C1524.08 952.475 1524 981.626 1524.26 931.724C1524.14 938.227 1524.02 944.11 1523.9 950.408C1523.89 944.422 1523.89 938.432 1523.89 932.446C1524.16 923.517 1524.12 891.716 1524.39 920.513C1524.47 885.884 1524.41 871.885 1524.2 864.297C1524.16 862.855 1524.14 857.652 1524.14 851.538C1524.08 852.694 1523.9 854.174 1523.88 853.21C1523.68 844.592 1524.02 831.23 1524.15 835.786C1524.16 831.509 1524.16 828.124 1524.17 826.929C1524.19 819.352 1524.3 834.205 1524.34 828.064C1524.36 826.041 1524.33 804.694 1524.38 804.281C1524.68 801.708 1524.46 836.837 1524.64 766.294C1524.36 764.591 1524.42 797.355 1524.13 788.942C1523.81 779.909 1524.24 761.484 1523.85 757.458C1523.91 755.962 1523.97 755.3 1524.04 754.01C1523.87 725.471 1524.19 725.093 1524.27 716.374C1524.4 699.444 1524.38 621.607 1524.1 691.497C1524.08 681.276 1524.06 670.842 1524.04 660.673C1524.62 658.352 1524.39 664.544 1524.48 615.564C1524.5 604.777 1524.75 601.265 1524.45 590.686C1524.74 592.123 1524.56 560.219 1524.6 557.241C1524.84 538.144 1525.16 609.053 1524.64 618.144C1524.84 630.114 1524.57 630.071 1524.61 643.435C1524.66 662.739 1524.71 665.42 1524.51 688.338C1524.79 710.895 1524.64 600.033 1525.01 667.239C1525.35 728.342 1525.55 1057.3 1525.63 1185.27L1525.63 1187.07L1523.82 1187.08C1511 1187.08 1500.2 1187.09 1491.88 1187.1C1326.45 1187.2 1239.48 1187.26 1090.87 1187.25C1076.22 1187.24 965.558 1187.27 988.556 1186.95C991.859 1186.9 1039.46 1186.78 998.631 1186.52C1006.94 1186.67 982.93 1186.77 980.917 1186.79C934.722 1187.15 961.463 1187.23 888.736 1187.24ZM673.139 1184.34C768.057 1184.41 698.325 1184.19 718.042 1183.7C705.861 1183.7 693.723 1183.7 681.542 1183.7C684.742 1183.73 687.9 1183.76 691.1 1183.79C691.114 1183.79 691.128 1183.79 691.142 1183.79C685.155 1183.97 679.126 1184.16 673.139 1184.34ZM3.08115 304.919C3.14578 308.622 3.21054 312.282 3.27378 316.294C3.25372 328.835 3.23403 341.328 3.21396 353.868C3.17011 352.372 3.12574 350.926 3.08188 349.43C3.08375 334.594 3.08578 319.805 3.08115 304.919ZM1523.16 823.316C1523.34 805.561 1523.02 807.162 1523.16 783.574C1522.93 786.464 1522.69 789.675 1522.46 792.72C1522.49 810.674 1522.58 814.755 1522.53 834.258C1522.6 831.987 1522.68 829.664 1522.76 827.445C1522.74 824.197 1522.72 820.742 1522.71 817.597C1522.92 812.593 1522.95 843.758 1523.16 823.378C1523.16 823.357 1523.16 823.337 1523.16 823.316ZM1523.06 641.37C1523.09 631.821 1523.21 593.99 1523.11 588.828C1522.78 571.33 1522.99 678.062 1522.69 599.399C1522.65 599.759 1522.6 599.399 1522.56 599.399C1522.54 613.747 1522.52 628.053 1522.51 642.506C1522.7 641.732 1522.88 642.247 1523.06 641.37ZM1016.45 1184.32C1031.12 1184.34 1101.09 1184.19 1078.28 1183.98C1071.57 1183.91 1040.33 1184.22 1028.46 1184.2C1020.78 1184.19 1029.39 1184.03 1014.22 1184.09C1014.89 1184.16 1015.3 1184.24 1016.49 1184.32C1016.47 1184.32 1016.46 1184.32 1016.45 1184.32ZM988.927 1185.28C1004.1 1185.25 1019.48 1185.21 1034.76 1185.18C1023.61 1184.99 1001.68 1185.11 1000.39 1184.85C1004.56 1184.83 1008.7 1184.81 1012.88 1184.79C1016.08 1184.85 1019.22 1184.9 1022.37 1184.96C1035.48 1184.82 1027.54 1184.75 1051.96 1184.79C1037.19 1184.39 1034.45 1184.17 992.644 1184.58C1000.54 1184.36 993.108 1183.65 969.934 1184.16C965.598 1184.25 983.704 1184.32 983.911 1184.33C986.695 1184.52 976.649 1184.63 979.637 1184.81C980.979 1184.89 992.024 1184.89 993.676 1185C994.438 1185.05 983.934 1185.2 988.927 1185.28ZM958.682 1184.34C963.379 1184.22 947.328 1183.96 933.392 1184.01C911.661 1184.09 945.933 1184.35 958.682 1184.34ZM3.08091 304.836C3.08099 304.864 3.08107 304.891 3.08115 304.919C3.08091 304.905 3.08066 304.891 3.08042 304.877C3.08058 304.863 3.08074 304.85 3.08091 304.836ZM1522.93 690.609C1522.84 679.359 1522.85 662.705 1522.7 663.935C1522.73 658.464 1522.76 652.932 1522.79 647.461C1522.74 647.512 1522.7 647.615 1522.65 647.667C1522.62 664.131 1522.59 680.545 1522.56 697.009C1522.69 694.944 1522.81 693.035 1522.93 690.609ZM1523.04 511.244C1523.05 490.549 1522.85 507.899 1522.75 503.357C1522.65 498.815 1522.73 480.379 1522.58 482.547C1522.58 494.728 1522.57 507.434 1522.57 519.77C1522.72 516.518 1522.88 514.248 1523.04 511.202C1523.04 511.216 1523.04 511.23 1523.04 511.244ZM285.753 1184.17C299.79 1184.22 294.062 1184.38 321.779 1184.19C321.758 1184.19 321.738 1184.19 321.717 1184.19C295.343 1184.06 261.391 1183.95 232.282 1184.07C250.086 1184.24 263.664 1184.1 285.753 1184.17ZM1522.69 872.41C1522.82 878.337 1522.92 850.733 1522.8 844.642C1522.62 834.787 1522.5 863.378 1522.69 872.41ZM1.80795 902.183C1.42304 880.828 0.990979 921.292 1.17758 963.664C1.19391 967.329 1.31633 939.973 1.39145 948.077C1.39885 948.896 1.38968 963.913 1.44321 967.628C1.49687 971.345 1.62142 967.442 1.67368 973.533C1.76501 984.22 1.59577 1008.37 1.71567 1016.37C1.73174 1017.42 1.89831 1002.45 1.90463 1001.51C2.00541 986.127 1.78767 971.306 1.78623 968.929C1.77876 956.696 1.94947 958.545 1.98959 955.448C2.06506 949.614 1.98961 939.344 1.99521 938.622C2.14493 920.057 2.10208 962.478 2.16367 968.206C2.32977 983.637 2.48419 969.351 2.57798 1006.36C2.58681 1009.87 2.57678 1051.94 2.76792 998.926C3.16635 1103.02 2.99455 946.623 2.90683 929.641C2.86616 921.813 2.70345 933.666 2.63022 928.919C2.46274 918.079 2.4332 899.602 2.19712 901.254C1.70076 904.818 2.02599 929.083 1.94248 945.806C1.83469 944.051 1.72957 943.381 1.62412 940.129C1.76596 945.136 1.83693 903.731 1.80893 902.183C1.8086 902.183 1.80828 902.183 1.80795 902.183ZM2.37509 1165.7C2.31313 1175.37 2.33043 1180.76 2.35932 1185.27L1.82031 1184.73C8.21137 1184.69 12.8383 1184.63 25.3971 1184.73C44.2878 1184.45 7.02716 1184.47 2.6874 1184.45C2.39385 1184.45 2.10515 1184.45 1.82031 1184.45L2.64109 1185.27C2.71768 1166.33 3.01324 1166.47 2.92051 1146.5C2.73949 1153.47 2.55658 1159.14 2.37509 1165.7ZM2.50425 962.322C2.66288 977.961 2.6602 949.977 2.69053 948.841C3.01232 936.484 2.94978 1020.28 2.50425 962.322ZM1107.53 1184.95C1115.48 1184.96 1110.44 1184.81 1117.44 1184.76C1124.46 1184.72 1148.45 1184.85 1147.85 1184.75C1147.23 1184.66 1103.27 1184.41 1147.4 1184.36C1145.9 1184.3 1146.41 1184.27 1145.69 1184.22C1133.56 1184.22 1121.32 1184.21 1109.19 1184.21C1115.84 1184.36 1122.67 1184.53 1129.07 1184.67C1122.25 1184.8 1118.42 1184.64 1118.06 1184.64C1118.06 1184.64 1118.06 1184.64 1118.06 1184.64C1105.37 1184.65 1089.69 1184.92 1107.53 1184.95ZM482.006 1184.47C479.632 1184.85 498.367 1184.43 506.058 1184.38C513.747 1184.33 524.314 1184.47 520.344 1184.31C507.905 1184.2 482.264 1184.43 482.006 1184.47C482.006 1184.47 482.006 1184.47 482.006 1184.47ZM109.278 1184.71C128.878 1184.62 125.766 1184.52 149.743 1184.64C148.814 1184.54 147.885 1184.45 146.956 1184.36C127.911 1184.36 129.249 1184.62 107.214 1184.52C103.601 1184.5 111.337 1184.29 95.0332 1184.35C99.7779 1184.47 104.585 1184.59 109.278 1184.71ZM206.414 1184.37C183.91 1184.39 166.061 1185.13 207.508 1184.8C213.651 1184.75 223.339 1184.36 206.414 1184.37ZM899.947 1184.97C938.229 1184.99 894.739 1184.87 884.773 1184.75C973.893 1184.66 874.712 1184.78 865.82 1184.4C854.93 1184.51 834.55 1184.76 857.191 1184.83C866.637 1184.85 863.188 1184.74 863.756 1184.74C881.149 1184.77 879.043 1184.95 899.947 1184.97ZM2.35678 1125.07C2.36238 1126.51 2.49079 1124.25 2.51645 1128.85C2.54193 1133.45 2.45206 1143.86 2.53086 1144.89C2.61015 1145.92 2.67164 1125.03 2.61386 1118.63C2.55554 1112.23 2.30734 1112.01 2.35678 1125.07ZM88.53 1185.05C107.656 1184.96 76.3803 1184.48 72.2203 1184.49C35.6756 1184.51 89.6136 1184.9 88.53 1185.05ZM811.049 1185.77C857.194 1185.53 823.438 1185.11 794.533 1184.86C790.715 1184.91 786.799 1184.96 783.033 1185.01C800.376 1184.7 830.77 1184.4 763.152 1184.67C800.163 1184.74 769.171 1184.82 768.933 1184.84C764.855 1185.41 819.679 1185.15 811.007 1185.77C811.021 1185.77 811.035 1185.77 811.049 1185.77ZM2.49204 1062.86C2.49015 1042.78 2.39214 990.566 2.14487 1014.93C2.26056 1030.92 2.37634 1046.87 2.49204 1062.86ZM1524.29 1142.57C1524.43 1126.16 1524.43 1111.03 1524.42 1090.79C1524.21 1109.01 1524.19 1097.04 1524.14 1090.9C1524.06 1081.58 1524.07 1104.15 1524.05 1104.21C1523.86 1103.8 1523.83 1089.41 1523.83 1122.18C1523.76 1114.07 1523.7 1106.08 1523.63 1097.98C1523.62 1122.96 1523.49 1128.84 1523.34 1144.68C1523.72 1129.3 1523.48 1149.55 1523.67 1167.93C1523.76 1177.1 1524.21 1150.92 1524.29 1142.51C1524.29 1142.53 1524.29 1142.55 1524.29 1142.57ZM858.739 1185.85C863.487 1185.78 867.833 1185.68 872.427 1185.61C877.433 1185.6 882.45 1185.59 887.456 1185.58C888.076 1185.65 888.592 1185.71 889.315 1185.77C895.912 1185.78 893.341 1185.7 895.302 1185.69C895.302 1185.69 895.302 1185.69 895.302 1185.69C923.422 1185.58 934.937 1185.59 956.969 1185.78C956.969 1185.6 956.969 1185.41 956.969 1185.22C952.017 1185.24 947.014 1185.26 942.063 1185.28C939.431 1185.38 936.788 1185.48 934.156 1185.58C928.426 1185.52 922.75 1185.47 917.02 1185.41C912.43 1185.45 906.914 1185.48 902.94 1185.52C880.076 1185 932.04 1185.35 932.504 1185.14C932.812 1185 880.479 1185.01 872.943 1185.1C871.859 1185.11 883.168 1185.5 864.024 1185.3C861.031 1185.27 859.977 1184.43 839.333 1185.11C836.391 1185.21 846.664 1185.72 858.739 1185.85ZM1048.76 1186.12C1019.34 1185.58 1127.92 1186.15 1081.07 1185.71C1094.43 1185.46 1091.95 1185.46 1078.49 1185.24C1077.3 1185.23 1086.61 1185.16 1085.82 1185.15C1073.22 1185.03 1058.05 1185.09 1057.94 1184.87C1054.54 1184.89 1051.34 1184.9 1047.93 1184.91C1062.12 1185.11 1039.56 1185.25 1030.84 1185.43C1026.86 1185.51 1036 1185.53 1032.65 1185.6C1031.42 1185.62 1018.66 1185.57 1018.14 1185.65C1017.06 1185.81 1025.07 1186.03 1038.64 1186.15C1038.64 1186.15 1038.64 1186.15 1038.64 1186.15C1042.04 1186.14 1045.35 1186.13 1048.76 1186.12ZM419.947 1185.67C414.94 1185.38 394.87 1185.29 433.428 1185.15C431.52 1185.09 429.556 1185.03 427.647 1184.97C421.145 1184.98 414.846 1184.98 408.241 1184.99C388.421 1185.86 352.244 1184.87 375.415 1185.49C377.944 1185.56 393.367 1185.48 378.14 1185.67C378.161 1185.67 378.182 1185.67 378.202 1185.67C399.462 1185.61 402.141 1185.51 419.947 1185.67ZM562.254 1185.46C611.29 1184.84 494.495 1185.12 514.006 1185.28C515.761 1185.3 566.074 1185.16 562.254 1185.46ZM168.778 1186.01C190.76 1186.02 192.218 1185.68 190.001 1185.56C187.782 1185.44 172.559 1185.56 170.594 1185.54C164.194 1185.48 177.769 1185.44 169.459 1185.35C166.707 1185.32 128.416 1185.2 126.662 1185.22C116.92 1185.3 131.162 1185.58 128.375 1185.61C119.292 1185.71 106.958 1185.57 104.324 1185.71C98.6478 1186.03 121.643 1185.7 125.526 1185.69C137.243 1185.68 136.22 1185.86 144.995 1185.89C153.763 1185.93 159.493 1185.87 167.229 1185.88C169.803 1185.88 167.663 1186.01 168.778 1186.01ZM241.469 1185.3C218.508 1185.55 274.415 1185.83 281.046 1185.77C300.557 1185.59 252.464 1185.18 241.469 1185.3ZM975.095 1185.31C954.094 1185.49 1003.02 1185.64 1017 1185.57C1014.41 1185.49 982.32 1185.24 975.095 1185.31ZM798.249 1185.77C817.554 1185.71 791.953 1185.3 775.849 1185.3C766.408 1185.58 775.292 1185.52 785.82 1185.53C796.337 1185.54 783.188 1185.81 798.249 1185.77ZM1.38681 1113.78C1.38248 1117.94 1.60802 1185.07 1.70175 1146.5C1.70875 1143.56 1.66904 1096.57 1.62704 1093.01C1.54212 1085.84 1.39894 1103.04 1.38681 1113.78ZM705.655 1186.17C715.874 1185.94 725.929 1185.94 716.535 1185.66C716.522 1185.66 716.508 1185.66 716.494 1185.66C742.352 1185.58 743.498 1186.14 749.072 1186.13C768.57 1186.09 750.097 1185.69 762.326 1185.55C733.887 1185.68 742.043 1185.41 720.416 1185.39C715.564 1185.38 696.148 1185.55 693.309 1185.65C690.476 1185.75 700.391 1186.05 705.655 1186.17ZM1.32797 1018.95C1.23753 1041.61 1.62008 1062.35 1.68076 1030.93C1.71062 1015.6 1.38303 1005.12 1.32797 1018.95ZM1524.41 608.689C1524.31 612.147 1524.21 615.709 1524.11 619.424C1524.08 611.066 1524.06 602.699 1524.04 594.341C1524.07 600.948 1524.1 607.563 1524.13 614.222C1524.16 598.53 1524.35 591.356 1524.41 608.648C1524.41 608.661 1524.41 608.675 1524.41 608.689ZM1524.48 50.0515C1524.58 43.0316 1524.28 29.1997 1524.26 30.9547C1524.09 44.1648 1524.35 59.7944 1524.48 50.0515ZM1006.12 1186.22C1032.22 1186.26 1014.28 1185.77 998.28 1185.74C1008.07 1185.83 991.316 1186.19 1006.12 1186.22ZM1524.46 246.511C1524.42 248.854 1524.38 251.215 1524.34 253.84C1524.39 245.585 1524.43 244.154 1524.46 246.511ZM0.957365 1124.45C0.920052 1128.43 0.889234 1157.9 0.935392 1161.88C1.03244 1170.14 1.30093 1147.16 1.21835 1133.64C1.20949 1132.14 0.994693 1120.48 0.957365 1124.51C0.957365 1124.49 0.957365 1124.47 0.957365 1124.45ZM1524.59 573.386C1524.59 573.432 1524.59 573.407 1524.58 573.324C1524.59 573.354 1524.59 573.345 1524.59 573.386ZM986.073 0.00106418C986.234 0.00860786 986.319 0.0160948 986.3 0.0232811C986.239 0.0162247 986.114 0.00880075 986.073 0.00106418ZM148.814 1186.55C158.621 1187.01 181.228 1186.76 163.369 1186.53C162.369 1186.52 151.192 1186.55 148.814 1186.55Z" fill="#424242"/>
<defs>
<linearGradient id="paint0_linear_3872_1035" x1="762.82" y1="1.26953" x2="762.82" y2="1185.27" gradientUnits="userSpaceOnUse">
<stop stop-color="#52667E"/>
<stop offset="1" stop-color="#617894"/>
</linearGradient>
</defs>
</svg>
