<svg width="1559" height="1133" viewBox="0 0 1559 1133" fill="none" xmlns="http://www.w3.org/2000/svg">
<path d="M1143.45 22.2143L855.176 1072.72L1222.37 47.5163C1191.63 40.6421 1164.27 32.2039 1143.45 22.2143Z" fill="#8C8C8C" fill-opacity="0.31"/>
<path d="M1474.92 699.316L1247.3 1095.96C1266.29 1100.16 1284.67 1104.47 1302.13 1108.75L1474.92 699.316Z" fill="#979797" fill-opacity="0.19"/>
<path d="M1094.44 722.549L945.729 1056.89C962.692 1056.48 980.81 1056.89 999.729 1057.98L1094.44 722.549Z" fill="#888888" fill-opacity="0.21"/>
<path d="M563.579 52.9162L605.117 486.061L637.517 45.7926C612.173 48.6953 587.4 51.161 563.579 52.9162Z" fill="#8F8F8F" fill-opacity="0.45"/>
<path fill-rule="evenodd" clip-rule="evenodd" d="M1523.44 265.814C1546.76 140.745 1565.45 40.4986 1553.02 52.9162C1528.34 77.5588 1347.39 75.4728 1222.37 47.5163L855.176 1072.72L1143.45 22.2143C1070.47 -12.7973 917.997 8.16926 763.834 29.3681C721.313 35.2151 678.663 41.0799 637.517 45.7926L605.117 486.061L563.579 52.9162C465.591 60.1363 307.262 33.3837 165.644 1.80273L45.8576 652.018L1.98438 890.166C39.8361 873.9 139.482 878.13 222.967 896.07L45.8576 652.018L313.52 925.27C339.962 938.514 355.664 954.153 352.566 971.485C340.104 1041.19 727.239 1130.8 855.176 1072.72C877.484 1062.59 908.88 1057.8 945.729 1056.89L1094.44 722.549L999.729 1057.98C1076.93 1062.44 1167.48 1078.29 1247.3 1095.96L1474.92 699.316L1302.13 1108.75C1333.45 1116.43 1361.77 1124.03 1385.2 1130.8C1424.25 1095.12 1525.6 718.401 1474.92 699.316C1444.74 687.95 1489.11 449.973 1523.44 265.814Z" fill="url(#paint0_linear_3872_1099)" fill-opacity="0.37"/>
<path d="M45.8576 652.018L222.967 896.07C257.877 903.571 289.961 913.47 313.52 925.27L45.8576 652.018Z" fill="#868686" fill-opacity="0.34"/>
<path d="M563.579 52.9162C465.591 60.1363 307.262 33.3837 165.644 1.80273L45.8576 652.018M563.579 52.9162L605.117 486.061L637.517 45.7926M563.579 52.9162C587.4 51.161 612.173 48.6953 637.517 45.7926M1143.45 22.2143L855.176 1072.72M1143.45 22.2143C1164.27 32.2039 1191.63 40.6421 1222.37 47.5163M1143.45 22.2143C1070.47 -12.7973 917.997 8.16926 763.834 29.3681C721.313 35.2151 678.663 41.0799 637.517 45.7926M1474.92 699.316C1525.6 718.401 1424.25 1095.12 1385.2 1130.8C1361.77 1124.03 1333.45 1116.43 1302.13 1108.75M1474.92 699.316L1247.3 1095.96M1474.92 699.316L1302.13 1108.75M1474.92 699.316C1444.74 687.95 1489.11 449.973 1523.44 265.814C1546.76 140.745 1565.45 40.4986 1553.02 52.9162C1528.34 77.5588 1347.39 75.4728 1222.37 47.5163M855.176 1072.72C727.239 1130.8 340.104 1041.19 352.566 971.485C355.664 954.153 339.962 938.514 313.52 925.27M855.176 1072.72L1222.37 47.5163M855.176 1072.72C877.484 1062.59 908.88 1057.8 945.729 1056.89M45.8576 652.018L1.98438 890.166C39.8361 873.9 139.482 878.13 222.967 896.07M45.8576 652.018L222.967 896.07M45.8576 652.018L313.52 925.27M222.967 896.07C257.877 903.571 289.961 913.47 313.52 925.27M945.729 1056.89L1094.44 722.549L999.729 1057.98M945.729 1056.89C962.692 1056.48 980.81 1056.89 999.729 1057.98M999.729 1057.98C1076.93 1062.44 1167.48 1078.29 1247.3 1095.96M1247.3 1095.96C1266.29 1100.16 1284.67 1104.47 1302.13 1108.75" stroke="#686868" stroke-opacity="0.21" stroke-width="3"/>
<defs>
<linearGradient id="paint0_linear_3872_1099" x1="779.484" y1="1.80273" x2="779.484" y2="1130.8" gradientUnits="userSpaceOnUse">
<stop stop-color="#D9D9D9"/>
<stop offset="1" stop-color="#737373" stop-opacity="0.32"/>
</linearGradient>
</defs>
</svg>
