<svg width="1105" height="1188" viewBox="0 0 1105 1188" fill="none" xmlns="http://www.w3.org/2000/svg">
<path d="M1.96484 1.26953H1102.96V1185.27H1.96484V1.26953Z" fill="url(#paint0_linear_3872_1043)"/>
<path d="M566.687 1187.24C384.532 1187.25 185.398 1187.31 1.96484 1187.23L0.00323045 1187.23L0.0015105 1185.27C0.0027858 1182.12 0.00410068 1178.97 0.00545609 1175.83C0.0152614 1152.99 0.149592 1154.55 0.167322 1148.15C0.216246 1130.63 0.0577933 1120.09 0.0694212 1107.32C0.125411 1045.25 0.148205 987.196 0.19906 926.309C0.25132 863.588 0.668876 893.257 0.770596 871.464C0.969805 828.884 0.425313 865.102 0.303065 848.365C0.335725 799.552 0.394711 750.305 0.454432 701.404C0.505271 713.342 0.55503 725.282 0.602138 737.351C0.613342 716.038 0.697385 685.533 0.839688 721.225C0.878882 713.336 0.924718 705.972 0.962979 697.865C0.764693 695.642 0.748743 657.906 0.631191 654.456C0.513607 651.013 0.540626 672.229 0.53036 672.098C0.383906 670.692 0.584099 583.66 0.600429 577.384C0.643879 560.791 0.889697 575.339 0.873868 561.223C0.846805 536.946 0.346654 553.12 1.01156 520.255C0.795561 507.182 0.907735 506.041 0.922696 489.486C0.924562 487.306 0.799497 488.998 0.796231 488.039C0.703403 462.981 0.935977 482.242 0.948575 482.112C1.16259 479.836 1.06745 452.945 1.08798 447.28C1.34366 376.195 1.51676 324.109 1.57602 249.1C1.58861 232.885 1.50178 183.5 1.53818 167.809C1.57409 152.334 1.7283 160.637 1.80234 152.537C1.43138 139.555 1.39046 127.17 1.63486 98.0237C1.36426 87.1716 1.58254 88.5674 1.52841 67.7771C1.48357 50.4728 1.15897 20.3149 1.43564 1.26953C1.41044 23.1063 1.54337 20.8451 1.62363 45.4277C1.65021 53.6108 1.65588 138.943 1.93247 132.594C2.07664 129.281 1.94422 101 1.9708 99.9065C2.12571 93.543 2.31609 109.328 2.24936 123.319C2.2181 119.832 2.18638 115.632 2.15512 111.883C1.96148 143.308 2.7052 121.698 2.05527 145.581C1.97554 148.535 1.89242 147.39 1.80771 152.258C1.84275 153.259 1.9296 147.303 1.94516 152.433C1.96084 157.665 1.79593 167.6 1.93491 169.081C2.13701 171.296 2.05737 149.619 2.06918 147.987C2.06796 147.97 2.06674 147.952 2.06552 147.935C2.17283 133.512 2.18507 163.633 2.20419 165.072C2.33012 174.389 2.42709 168.035 2.5311 182.017C2.59036 189.993 2.55543 210.31 2.57456 217.807C2.59417 225.256 2.68977 213.667 2.7103 218.679C2.73083 223.691 2.65818 229.932 2.68198 235.816C2.69247 238.334 2.7991 238.205 2.80283 239.424C2.84386 252.497 2.62206 243.922 2.63559 255.777C2.64459 263.457 2.85134 289.234 2.91294 271.466C2.93439 280.007 2.9501 288.335 2.96689 296.832C2.99861 291.472 3.02016 285.935 3.05747 280.706C3.00668 296.696 3.18916 303.93 3.20273 313.951C3.21626 323.976 2.99729 332.962 3.1041 343.988C3.33134 367.525 3.22635 309.245 3.26694 302.009C3.2829 299.189 3.45442 310.017 3.45933 311.685C3.48078 319.092 3.35812 327.854 3.36362 333.563C3.38415 354.004 3.54604 366.521 3.57871 386.002C3.68976 452.34 3.77982 534.633 3.81528 597.484C3.82835 620.89 3.64633 634.974 3.65147 645.478C3.66361 670.054 3.82223 673.064 3.83067 694.5C3.84373 726.405 3.70526 771.352 3.67539 797.983C3.65486 816.42 3.80836 833.11 3.81211 837.905C3.86717 904.549 3.86371 985.621 3.86558 1040.85C3.86651 1066.82 3.69401 1079.15 3.69907 1084.52C3.72053 1107.57 3.86802 1101.39 3.85313 1120.08C3.84521 1130.18 3.70363 1132.06 3.6981 1133.42C3.65144 1145.31 3.83632 1147.68 3.84238 1156.97C3.8486 1166.46 3.84989 1175.88 3.84771 1185.27L1.96484 1183.39C45.3794 1183.4 87.8768 1183.48 131.346 1183.5C135.182 1183.5 134.841 1183.58 137.326 1183.57C147.994 1183.55 143.034 1183.43 154.183 1183.42C177.371 1183.4 201.181 1183.42 225.764 1183.43C228.199 1183.44 229.294 1183.54 234.864 1183.54C240.443 1183.54 244.672 1183.44 253.431 1183.45C276.313 1183.46 298.895 1183.58 323.128 1183.59C327.138 1183.59 332.107 1183.46 338.121 1183.46C356.994 1183.47 384.936 1183.58 401.107 1183.59C454.456 1183.6 503.672 1183.53 553.926 1183.53C565.735 1183.53 576.198 1183.64 582.342 1183.65C596.193 1183.65 585.743 1183.54 599.776 1183.54C714.406 1183.54 829.477 1183.59 945.458 1183.58C991.005 1183.58 1046.45 1183.46 1090.47 1183.49C1095.65 1183.5 1099.63 1183.51 1102.96 1183.53L1101.23 1185.27C1101.28 1176.81 1101.36 1172.48 1101.36 1163.2C1101.36 1140.11 1101.16 1135.92 1101.14 1111.56C1101.13 1092.12 1101.32 1069.84 1101.31 1049.62C1101.3 1029.4 1101.11 1020.06 1101.09 996.832C1101.07 977.698 1101.15 950.983 1101.14 930.15C1101.01 739.245 1100.93 551.26 1101.08 359.179C1101.13 291.402 1101.11 216.206 1101.29 146.162C1101.31 139.584 1101.5 149.647 1101.46 128.555C1101.44 117.223 1101.28 101.402 1101.27 75.2094C1101.26 50.7946 1101.27 26.1247 1101.27 1.26953L1102.96 2.96073C969.278 2.91436 830.232 2.68172 696.708 2.73838C459.514 2.83964 213.692 4.15109 7.57395 2.23203C-2.53641 2.13779 2.94616 1.67597 9.00347 1.54477C14.6248 1.63854 19.8218 1.74991 25.7045 1.85581C33.1123 1.27877 31.806 1.42902 59.2633 1.48081C76.1676 1.51297 62.665 1.26618 71.6758 1.19614C83.3569 1.10562 138.202 0.820581 127.654 1.20273C131.053 1.13647 134.191 1.073 137.503 1.00815C177.209 0.950289 215.786 0.854611 254.62 0.744963C261.328 0.725796 261.637 0.605887 268.566 0.58676C287.176 0.534521 301.951 0.613294 321.127 0.601164C331.544 0.594632 332.99 0.456068 346.632 0.464933C360.266 0.473854 359.967 0.660906 378.57 0.457609C366.453 0.222912 420.503 0.393209 439.725 0.378751C442.514 0.376885 465.394 0.166038 477.555 0.190274C489.758 0.214067 508.282 0.348761 527.153 0.272305C536 0.236378 541.369 0.0721726 550.914 0.062832C557.626 0.0562999 565.689 0.202257 574.187 0.20834C582.682 0.214403 601.066 0.0945913 604.434 0.0926173C616.592 0.0846865 603.179 0.187302 611.494 0.192471C651.636 0.2158 698.275 0.270793 737.85 0.201748C742.716 0.193377 735.984 0.0724766 736.63 0.0684472C769.66 -0.0798942 752.03 0.0776298 760.949 0.185879C769.589 0.290552 832.813 0.233454 833.279 0.0232811C835.222 0.286467 849.276 0.0854498 852.926 0.0777246C867.132 0.0478911 864.346 0.275597 878.117 0.205166C883.171 0.179516 873.331 0.0256056 878.762 0.030117C892.186 0.041315 904.267 0.288573 922.136 0.313321C926.451 0.319387 927.854 0.209246 935.525 0.212979C943.205 0.216769 975.397 0.351513 960.542 0.119229C980.066 0.305373 983.997 0.203208 1006.7 0.20834C1012.46 0.209905 1019.86 0.387398 1032.1 0.332364C1036.24 0.313687 1036.12 0.142601 1042.36 0.141201C1056.61 0.137517 1070.03 0.314624 1088.12 0.321622C1093.02 0.323584 1097.98 0.322642 1102.96 0.319732L1103.91 0.318901L1103.91 1.26953C1103.93 30.6743 1104.02 61.3636 1103.98 91.5094C1103.97 101.093 1103.8 98.7006 1103.79 112.638C1103.79 114.687 1103.94 131.474 1103.93 141.107C1103.92 146.904 1103.81 176.94 1103.81 182.999C1103.79 193.016 1103.96 194.805 1103.93 200.292C1103.83 216.158 1103.59 203.43 1103.92 222.52C1103.74 228.796 1103.75 239.953 1103.53 243.527C1103.78 250.021 1103.54 258.442 1103.62 271.036C1103.7 283.633 1104.19 293.961 1103.67 297.012C1103.73 302.896 1103.84 327.964 1103.85 332.192C1103.87 344.652 1103.72 337.99 1103.74 347.394C1103.75 349.05 1103.85 347.315 1103.84 357.941C1103.83 364.915 1103.82 416.01 1103.81 419.062C1103.66 453.873 1103.71 400.092 1103.61 392.563C1103.63 391.234 1103.66 389.92 1103.69 388.501C1103.74 373.118 1103.51 381.876 1103.46 388.85C1103.41 395.824 1103.51 408.854 1103.44 414.651C1103.4 417.539 1103.13 415.749 1103.16 407.015C1103.08 416.361 1102.99 403.598 1102.92 407.294C1102.83 411.358 1102.81 453.356 1102.95 453.579C1102.96 445.735 1102.95 435.972 1102.96 428.04C1103.22 417.666 1104.09 449.175 1103.74 478.073C1103.49 499.034 1103.29 464.478 1103.5 514.072C1103.51 506.446 1103.53 499.995 1103.54 493.065C1103.74 492.328 1103.53 503.569 1103.59 509.365C1103.62 512.15 1103.75 494.99 1103.8 509.888C1103.52 522.701 1103.8 532.56 1103.8 554.047C1103.75 548.075 1103.7 542.097 1103.66 536.125C1103.46 572.432 1103.39 488.103 1103.28 558.701C1103.27 550.206 1103.27 541.753 1103.26 533.214C1103.16 537.353 1102.86 530.73 1102.8 534.434C1102.64 544.152 1102.73 558.529 1102.72 570.382C1102.71 575.568 1102.63 572.352 1102.63 572.787C1102.62 579.891 1102.74 578.322 1102.75 584.555C1102.76 592.398 1102.64 615.051 1102.66 618.724C1102.69 628.225 1102.92 612.404 1102.94 613.319C1103.05 619.378 1102.96 631.751 1103.1 631.101C1103 601.329 1103.13 515.525 1103.38 593.149C1103.61 571.749 1103.94 577.929 1103.96 608.7C1103.99 634.154 1103.85 617.729 1103.71 630.979C1103.69 632.692 1103.62 666.784 1103.73 668.53C1103.49 667.164 1103.28 678.259 1103.04 670.814C1103.01 669.724 1103.02 655.734 1102.83 660.616C1102.73 663.056 1102.52 670.06 1102.39 668.931C1102.48 671.808 1102.58 674.815 1102.67 677.735C1102.69 698.7 1102.6 701.679 1102.44 713.142C1102.51 712.619 1102.79 702.027 1102.7 718.11C1102.7 718.936 1102.6 719.649 1102.55 727.821C1102.44 744.337 1102.41 747.785 1102.12 735.108C1102.29 769.314 1101.95 776.683 1102.05 811.761C1102.43 804.787 1102.34 792.455 1102.27 760.333C1102.36 758.939 1102.45 758.285 1102.54 756.847C1102.33 799.601 1102.35 778.474 1102.54 802.696C1102.58 808.624 1102.53 840.23 1102.79 829.683C1102.85 827.193 1102.85 807.557 1102.94 809.809C1102.96 810.245 1103.01 834.116 1102.98 836.22C1102.68 862.633 1102.46 815.433 1102.57 888.171C1102.58 890.175 1102.69 890.879 1102.7 894.796C1102.73 902.16 1102.6 902.253 1102.63 908.829C1102.66 915.41 1102.84 924.529 1102.68 934.421C1102.39 952.51 1102.22 909.842 1102.37 890.838C1101.99 883.124 1101.98 1018.89 1102.02 1027.31C1102.16 1064.04 1102.08 1002.91 1102.18 999.761C1102.23 998.453 1102.79 999.104 1102.43 983.635C1102.32 979.059 1102.17 998.187 1102.11 986.773C1102.05 975.353 1102.22 979.878 1102.23 979.05C1102.27 976.21 1102.21 964.065 1102.23 962.489C1102.59 938.255 1103.14 940.477 1102.33 972.6C1102.51 986.591 1102.8 954.477 1102.93 971.868C1103.08 993.005 1102.82 1008.43 1102.81 1011.09C1102.67 1042.94 1103.05 1006.22 1102.92 1045.12C1102.86 1066.78 1102.67 1012.7 1102.7 1062.17C1102.72 1103.58 1102.85 1081.22 1103.15 1084.22C1103.22 1084.93 1103.31 1107.62 1103.27 1076.73C1103.2 1075.86 1103.09 1074.21 1103.02 1072.25C1103.08 1064.67 1103.47 1052.04 1103.48 1048.02C1103.55 1028.36 1103.35 1029.31 1103.58 1017.72C1103.32 1026 1103.48 1012.52 1103.42 1007.47C1103.22 988.693 1103.15 1013.31 1103.41 971.17C1103.29 976.662 1103.17 981.63 1103.04 986.947C1103.04 981.893 1103.03 976.835 1103.03 971.781C1103.3 964.24 1103.27 937.387 1103.54 961.704C1103.61 932.462 1103.55 920.641 1103.35 914.234C1103.31 913.017 1103.29 908.622 1103.29 903.46C1103.23 904.436 1103.04 905.686 1103.02 904.872C1102.83 897.595 1103.17 886.312 1103.29 890.158C1103.3 886.547 1103.31 883.688 1103.31 882.68C1103.33 876.282 1103.45 888.824 1103.49 883.638C1103.5 881.929 1103.48 863.904 1103.52 863.555C1103.83 861.383 1103.61 891.046 1103.79 831.478C1103.51 830.04 1103.57 857.707 1103.27 850.603C1102.96 842.975 1103.38 827.417 1102.99 824.017C1103.06 822.753 1103.11 822.194 1103.18 821.106C1103.01 797.007 1103.34 796.687 1103.41 789.325C1103.55 775.029 1103.53 709.302 1103.25 768.318C1103.22 759.688 1103.21 750.877 1103.18 742.29C1103.76 740.33 1103.53 745.559 1103.62 704.199C1103.64 695.09 1103.89 692.125 1103.59 683.192C1103.89 684.405 1103.71 657.464 1103.75 654.95C1103.98 638.824 1104.31 698.7 1103.78 706.378C1103.99 716.486 1103.72 716.449 1103.75 727.733C1103.8 744.035 1103.86 746.299 1103.66 765.651C1103.94 784.698 1103.78 691.085 1104.15 747.834C1104.49 799.431 1104.7 1077.21 1104.77 1185.27L1104.77 1187.07L1102.96 1187.08C1092.14 1187.08 1083.02 1187.09 1076 1187.1C936.305 1187.2 862.859 1187.26 737.376 1187.25C724.998 1187.24 631.557 1187.27 650.977 1186.95C653.766 1186.9 693.958 1186.78 659.484 1186.52C666.497 1186.67 646.226 1186.77 644.527 1186.79C605.519 1187.15 628.1 1187.23 566.687 1187.24ZM384.633 1184.34C464.783 1184.41 405.9 1184.19 422.55 1183.7C412.264 1183.7 402.014 1183.7 391.728 1183.7C394.43 1183.73 397.098 1183.76 399.8 1183.79C399.811 1183.79 399.823 1183.79 399.835 1183.79C394.779 1183.97 389.688 1184.16 384.633 1184.34ZM3.22568 257.677C3.29032 260.804 3.35507 263.894 3.41831 267.282C3.39825 277.872 3.37856 288.421 3.3585 299.011C3.31464 297.747 3.27027 296.526 3.22642 295.263C3.22828 282.735 3.23031 270.247 3.22568 257.677ZM1102.3 879.629C1102.48 864.636 1102.16 865.989 1102.31 846.07C1102.07 848.511 1101.84 851.222 1101.6 853.793C1101.64 868.954 1101.73 872.4 1101.67 888.868C1101.75 886.951 1101.82 884.989 1101.9 883.115C1101.88 880.373 1101.87 877.455 1101.85 874.8C1102.06 870.574 1102.1 896.891 1102.3 879.681C1102.3 879.664 1102.3 879.646 1102.3 879.629ZM1102.21 725.99C1102.24 717.927 1102.35 685.982 1102.25 681.623C1101.92 666.847 1102.13 756.974 1101.84 690.548C1101.79 690.853 1101.75 690.549 1101.7 690.548C1101.68 702.665 1101.67 714.745 1101.66 726.949C1101.84 726.295 1102.02 726.731 1102.21 725.99ZM674.529 1184.32C686.922 1184.34 746 1184.19 726.741 1183.98C721.075 1183.91 694.7 1184.22 684.675 1184.2C678.184 1184.19 685.46 1184.03 672.646 1184.09C673.212 1184.16 673.563 1184.24 674.564 1184.32C674.552 1184.32 674.541 1184.32 674.529 1184.32ZM651.291 1185.28C664.104 1185.25 677.092 1185.21 689.992 1185.18C680.577 1184.99 662.056 1185.11 660.966 1184.85C664.495 1184.83 667.984 1184.81 671.513 1184.79C674.215 1184.85 676.874 1184.9 679.532 1184.96C690.603 1184.82 683.898 1184.75 704.514 1184.79C692.049 1184.39 689.734 1184.17 654.429 1184.58C661.097 1184.36 654.82 1183.65 635.252 1184.16C631.591 1184.25 646.88 1184.32 647.054 1184.33C649.406 1184.52 640.923 1184.63 643.446 1184.81C644.579 1184.89 653.906 1184.89 655.3 1185C655.944 1185.05 647.074 1185.2 651.291 1185.28ZM625.751 1184.34C629.717 1184.22 616.163 1183.96 604.395 1184.01C586.046 1184.09 614.985 1184.35 625.751 1184.34ZM3.22544 257.607C3.22552 257.63 3.2256 257.654 3.22568 257.677C3.22544 257.665 3.22519 257.653 3.22495 257.642C3.22511 257.63 3.22528 257.619 3.22544 257.607ZM1102.08 767.568C1101.98 758.069 1101.99 744.006 1101.84 745.045C1101.87 740.424 1101.9 735.753 1101.93 731.133C1101.89 731.177 1101.84 731.264 1101.79 731.307C1101.77 745.21 1101.74 759.07 1101.71 772.973C1101.83 771.229 1101.95 769.617 1102.08 767.568ZM1102.18 616.109C1102.2 598.634 1101.99 613.285 1101.89 609.449C1101.79 605.614 1101.87 590.046 1101.73 591.877C1101.72 602.163 1101.72 612.892 1101.71 623.309C1101.87 620.563 1102.03 618.646 1102.18 616.074C1102.18 616.086 1102.18 616.097 1102.18 616.109ZM57.5165 1184.17C69.3696 1184.22 64.5329 1184.38 87.9374 1184.19C87.92 1184.19 87.9024 1184.19 87.885 1184.19C65.6143 1184.06 36.944 1183.95 12.3645 1184.07C27.3986 1184.24 38.8644 1184.1 57.5165 1184.17ZM1101.84 921.085C1101.96 926.09 1102.07 902.78 1101.95 897.637C1101.76 889.315 1101.65 913.458 1101.84 921.085ZM1.95248 762.019C1.56757 743.986 1.13551 778.155 1.32211 813.935C1.33844 817.029 1.46086 793.93 1.53598 800.773C1.54338 801.464 1.53421 814.145 1.58774 817.282C1.6414 820.42 1.76595 817.125 1.81821 822.268C1.90954 831.293 1.74031 851.687 1.8602 858.442C1.87627 859.331 2.04284 846.684 2.04916 845.89C2.14994 832.902 1.9322 820.387 1.93076 818.38C1.92329 808.05 2.094 809.612 2.13413 806.996C2.20959 802.07 2.13414 793.398 2.13974 792.788C2.28946 777.112 2.24661 812.933 2.3082 817.77C2.4743 830.8 2.62872 818.736 2.72251 849.987C2.73134 852.953 2.72131 888.476 2.91245 843.711C3.31089 931.609 3.13909 799.545 3.05137 785.205C3.0107 778.595 2.84798 788.603 2.77475 784.595C2.60727 775.442 2.57773 759.84 2.34165 761.234C1.84529 764.243 2.17052 784.734 2.08701 798.855C1.97922 797.373 1.8741 796.807 1.76865 794.061C1.91049 798.289 1.98146 763.326 1.95346 762.019C1.95314 762.019 1.95281 762.019 1.95248 762.019ZM2.51963 984.536C2.36985 1004.28 2.68318 1002.88 2.504 1020.97C2.78534 1036.92 2.76646 1005.46 2.78232 1001.79C2.85324 985.06 3.15916 985.445 3.06504 968.323C2.88402 974.206 2.70111 979.001 2.51963 984.536ZM2.64878 812.802C2.80741 826.007 2.80473 802.377 2.83506 801.418C3.15685 790.983 3.09431 861.74 2.64878 812.802ZM751.444 1184.95C758.154 1184.96 753.896 1184.81 759.812 1184.76C765.738 1184.72 785.998 1184.85 785.491 1184.75C784.968 1184.66 747.842 1184.41 785.108 1184.36C783.845 1184.3 784.271 1184.27 783.661 1184.22C773.418 1184.22 763.082 1184.21 752.839 1184.21C758.461 1184.36 764.223 1184.53 769.627 1184.67C763.874 1184.8 760.64 1184.64 760.335 1184.64C760.335 1184.64 760.335 1184.64 760.335 1184.64C749.616 1184.65 736.379 1184.92 751.444 1184.95ZM223.236 1184.47C221.231 1184.85 237.052 1184.43 243.546 1184.38C250.039 1184.33 258.962 1184.47 255.61 1184.31C245.105 1184.2 223.454 1184.43 223.236 1184.47C223.236 1184.47 223.236 1184.47 223.236 1184.47ZM2.52036 1091.8C2.61267 1108.35 2.71153 1105.72 2.59873 1125.97C2.69065 1125.19 2.78457 1124.4 2.8751 1123.62C2.87696 1107.54 2.61012 1108.67 2.71738 1090.06C2.73511 1087.01 2.94825 1093.54 2.87973 1079.77C2.76598 1083.78 2.63972 1087.84 2.52036 1091.8ZM2.86118 1173.83C2.84714 1154.82 2.10334 1139.75 2.43881 1174.75C2.48896 1179.94 2.87191 1188.12 2.86118 1173.83ZM576.154 1184.97C608.48 1184.99 571.756 1184.87 563.34 1184.75C638.595 1184.66 554.845 1184.78 547.337 1184.4C538.141 1184.51 520.931 1184.76 540.05 1184.83C548.026 1184.85 545.114 1184.74 545.593 1184.74C560.281 1184.77 558.502 1184.95 576.154 1184.97ZM2.50132 950.227C2.50691 951.448 2.63532 949.539 2.66098 953.418C2.68646 957.301 2.59659 966.092 2.67539 966.963C2.75468 967.831 2.81617 950.198 2.7584 944.788C2.70007 939.384 2.45187 939.201 2.50132 950.227ZM2.18491 1074.28C2.27731 1090.43 2.75035 1064.02 2.74814 1060.51C2.72341 1029.65 2.33469 1075.2 2.18491 1074.28ZM501.086 1185.77C540.052 1185.53 511.548 1185.11 487.14 1184.86C483.916 1184.91 480.61 1184.96 477.43 1185.01C492.074 1184.7 517.739 1184.4 460.641 1184.67C491.894 1184.74 465.724 1184.82 465.523 1184.84C462.079 1185.41 508.374 1185.15 501.051 1185.77C501.063 1185.77 501.075 1185.77 501.086 1185.77ZM2.63657 897.701C2.63468 880.741 2.53667 836.651 2.2894 857.221C2.40509 870.731 2.52088 884.192 2.63657 897.701ZM1103.43 1149.22C1103.57 1135.35 1103.57 1122.58 1103.56 1105.49C1103.36 1120.88 1103.33 1110.77 1103.28 1105.58C1103.21 1097.71 1103.21 1116.77 1103.2 1116.82C1103 1116.48 1102.97 1104.32 1102.98 1131.99C1102.91 1125.15 1102.84 1118.4 1102.77 1111.56C1102.76 1132.65 1102.64 1137.62 1102.48 1150.99C1102.86 1138.01 1102.62 1155.11 1102.81 1170.62C1102.91 1178.37 1103.36 1156.27 1103.43 1149.16C1103.43 1149.18 1103.43 1149.2 1103.43 1149.22ZM541.357 1185.85C545.367 1185.78 549.037 1185.68 552.915 1185.61C557.143 1185.6 561.379 1185.59 565.607 1185.58C566.129 1185.65 566.566 1185.71 567.176 1185.77C572.747 1185.78 570.576 1185.7 572.231 1185.69C572.231 1185.69 572.231 1185.69 572.231 1185.69C595.977 1185.58 605.7 1185.59 624.304 1185.78C624.304 1185.6 624.304 1185.41 624.304 1185.22C620.123 1185.24 615.898 1185.26 611.717 1185.28C609.495 1185.38 607.263 1185.48 605.04 1185.58C600.202 1185.52 595.409 1185.47 590.571 1185.41C586.695 1185.45 582.037 1185.48 578.681 1185.52C559.375 1185 603.254 1185.35 603.646 1185.14C603.906 1185 559.715 1185.01 553.351 1185.1C552.436 1185.11 561.985 1185.5 545.82 1185.3C543.292 1185.27 542.403 1184.43 524.97 1185.11C522.486 1185.21 531.161 1185.72 541.357 1185.85ZM701.812 1186.12C676.969 1185.58 768.662 1186.15 729.095 1185.71C740.382 1185.46 738.287 1185.46 726.916 1185.24C725.915 1185.23 733.772 1185.16 733.105 1185.15C722.47 1185.03 709.657 1185.09 709.57 1184.87C706.695 1184.89 703.99 1184.9 701.115 1184.91C713.092 1185.11 694.045 1185.25 686.68 1185.43C683.326 1185.51 691.036 1185.53 688.214 1185.6C687.168 1185.62 676.401 1185.57 675.959 1185.65C675.043 1185.81 681.807 1186.03 693.27 1186.15C693.27 1186.15 693.27 1186.15 693.27 1186.15C696.144 1186.14 698.938 1186.13 701.812 1186.12ZM170.832 1185.67C166.604 1185.38 149.657 1185.29 182.216 1185.15C180.605 1185.09 178.946 1185.03 177.335 1184.97C171.844 1184.98 166.525 1184.98 160.948 1184.99C144.211 1185.86 113.663 1184.87 133.229 1185.49C135.365 1185.56 148.388 1185.48 135.53 1185.67C135.547 1185.67 135.565 1185.67 135.582 1185.67C153.535 1185.61 155.797 1185.51 170.832 1185.67ZM290.999 1185.46C332.406 1184.84 233.782 1185.12 250.258 1185.28C251.74 1185.3 294.225 1185.16 290.999 1185.46ZM1.22787 1142.04C1.21714 1160.61 1.55298 1161.84 1.67392 1159.97C1.79522 1158.09 1.67264 1145.24 1.69174 1143.58C1.75473 1138.17 1.79634 1149.64 1.88266 1142.62C1.91069 1140.3 2.03042 1107.96 2.01596 1106.48C1.93563 1098.25 1.65852 1110.28 1.6268 1107.93C1.52281 1100.26 1.66696 1089.84 1.51962 1087.62C1.20524 1082.83 1.53526 1102.24 1.54062 1105.52C1.55555 1115.42 1.37857 1114.55 1.34311 1121.96C1.30771 1129.37 1.36834 1134.2 1.3558 1140.74C1.35161 1142.91 1.22899 1141.1 1.22787 1142.04ZM20.1223 1185.3C0.733484 1185.55 47.9419 1185.83 53.5417 1185.77C70.0173 1185.59 29.4064 1185.18 20.1223 1185.3ZM639.61 1185.31C621.877 1185.49 663.189 1185.64 675 1185.57C672.809 1185.49 645.711 1185.24 639.61 1185.31ZM490.278 1185.77C506.579 1185.71 484.962 1185.3 471.363 1185.3C463.391 1185.58 470.892 1185.52 479.783 1185.53C488.663 1185.54 477.561 1185.81 490.278 1185.77ZM1.53134 940.691C1.52701 944.209 1.75255 1000.89 1.84628 968.323C1.85328 965.839 1.81357 926.161 1.77158 923.154C1.68665 917.102 1.54347 931.627 1.53134 940.691ZM412.09 1186.17C420.719 1185.94 429.209 1185.94 421.277 1185.66C421.266 1185.66 421.254 1185.66 421.242 1185.66C443.077 1185.58 444.045 1186.14 448.752 1186.13C465.216 1186.09 449.617 1185.69 459.944 1185.55C435.929 1185.68 442.817 1185.41 424.555 1185.39C420.458 1185.38 404.062 1185.55 401.665 1185.65C399.272 1185.75 407.645 1186.05 412.09 1186.17ZM1.4725 860.621C1.38206 879.753 1.76461 897.27 1.82529 870.732C1.85515 857.787 1.52756 848.94 1.4725 860.621ZM1103.55 698.393C1103.45 701.313 1103.35 704.321 1103.25 707.459C1103.23 700.4 1103.2 693.336 1103.18 686.277C1103.21 691.856 1103.24 697.443 1103.27 703.065C1103.31 689.815 1103.49 683.757 1103.55 698.359C1103.55 698.37 1103.55 698.382 1103.55 698.393ZM1103.63 226.669C1103.73 220.741 1103.43 209.061 1103.4 210.543C1103.23 221.698 1103.5 234.896 1103.63 226.669ZM665.813 1186.22C687.849 1186.26 672.696 1185.77 659.188 1185.74C667.452 1185.83 653.307 1186.19 665.813 1186.22ZM1103.61 392.563C1103.56 394.541 1103.52 396.535 1103.48 398.752C1103.54 391.781 1103.58 390.573 1103.61 392.563ZM1.1019 949.704C1.06458 953.069 1.03376 977.95 1.07992 981.311C1.17698 988.285 1.44546 968.882 1.36288 957.462C1.35402 956.198 1.13922 946.357 1.1019 949.757C1.1019 949.739 1.1019 949.722 1.1019 949.704ZM1103.74 668.583C1103.73 668.622 1103.73 668.601 1103.73 668.53C1103.73 668.556 1103.73 668.549 1103.74 668.583ZM833.087 0.00106418C833.223 0.00860786 833.295 0.0160948 833.279 0.0232811C833.227 0.0162247 833.122 0.00880075 833.087 0.00106418ZM0.689052 1125.19C0.225715 1133.47 0.472157 1152.56 0.701259 1137.48C0.7133 1136.63 0.688141 1127.19 0.689052 1125.19Z" fill="#424242"/>
<defs>
<linearGradient id="paint0_linear_3872_1043" x1="552.465" y1="1.26953" x2="552.465" y2="1185.27" gradientUnits="userSpaceOnUse">
<stop stop-color="#DBC8A5"/>
<stop offset="1" stop-color="#D2CFCA"/>
</linearGradient>
</defs>
</svg>
