<svg width="1105" height="1010" viewBox="0 0 1105 1010" fill="none" xmlns="http://www.w3.org/2000/svg">
<path d="M1.88281 1.26855H1102.88V1007.27H1.88281V1.26855Z" fill="url(#paint0_linear_3874_1102)"/>
<path d="M608.381 1009.24C437.53 1009.25 250.48 1009.31 78.946 1009.23C57.888 1009.22 59.3263 1009.08 53.4187 1009.07C37.2677 1009.02 27.5436 1009.18 15.7706 1009.16C11.1181 1009.16 6.48992 1009.16 1.88281 1009.15L0.00220859 1009.15L0.000420094 1007.27C0.0472715 955.205 0.0703086 905.828 0.117029 854.248C0.169289 796.413 0.586845 823.771 0.688564 803.676C0.887774 764.412 0.343281 797.809 0.221033 782.376C0.253694 737.365 0.31268 691.954 0.372401 646.863C0.42324 657.871 0.472998 668.881 0.520107 680.01C0.531311 660.357 0.615353 632.228 0.757657 665.14C0.796851 657.866 0.842687 651.075 0.880948 643.599C0.682662 641.55 0.666712 606.753 0.54916 603.572C0.431576 600.397 0.458594 619.961 0.448329 619.84C0.301875 618.543 0.502068 538.291 0.518398 532.504C0.561848 517.204 0.807666 530.618 0.791836 517.602C0.764773 495.216 0.264622 510.13 0.929532 479.826C0.71353 467.77 0.825704 466.719 0.840665 451.453C0.842531 449.444 0.717466 451.003 0.714199 450.119C0.621372 427.013 0.853946 444.774 0.866544 444.653C1.08056 442.555 0.985422 417.759 1.00595 412.535C1.26163 346.987 1.43473 298.959 1.49399 229.793C1.50658 214.841 1.41975 169.303 1.45615 154.834C1.49206 140.565 1.64627 148.221 1.72031 140.753C1.34935 128.781 1.30843 117.362 1.55283 90.4856C1.28223 80.4787 1.5005 81.766 1.44638 62.5953C1.40154 46.6389 1.07693 18.8303 1.35361 1.26855C1.32841 21.4042 1.46134 19.3191 1.5416 41.987C1.56817 49.5324 1.57385 128.218 1.85043 122.363C1.99461 119.308 1.86219 93.2299 1.88876 92.2217C2.04368 86.3539 2.23405 100.909 2.16733 113.811C2.13607 110.595 2.10435 106.722 2.07309 103.265C1.87945 132.243 2.62317 112.315 1.97324 134.339C1.89351 137.062 1.81039 136.006 1.72568 140.495C1.76071 141.418 1.84757 135.926 1.86313 140.656C1.87881 145.481 1.7139 154.642 1.85288 156.008C2.05498 158.05 1.97534 138.061 1.98715 136.557C1.98593 136.541 1.98471 136.525 1.98349 136.509C2.0908 123.21 2.10303 150.984 2.12216 152.311C2.24809 160.902 2.34505 155.043 2.44907 167.936C2.50833 175.291 2.4734 194.025 2.49253 200.938C2.51214 207.806 2.60774 197.12 2.62827 201.742C2.6488 206.364 2.57615 212.118 2.59995 217.544C2.61044 219.866 2.71707 219.747 2.7208 220.871C2.76183 232.926 2.54003 225.018 2.55356 235.95C2.56256 243.032 2.76931 266.8 2.83091 250.417C2.85236 258.292 2.86807 265.972 2.88486 273.807C2.91658 268.865 2.93813 263.759 2.97544 258.937C2.92465 273.681 3.10713 280.352 3.1207 289.592C3.13423 298.836 2.91526 307.122 3.02207 317.29C3.24931 338.993 3.14432 285.253 3.18491 278.581C3.20087 275.98 3.37239 285.965 3.3773 287.503C3.39875 294.333 3.27609 302.412 3.28159 307.677C3.30212 326.526 3.46401 338.067 3.49668 356.031C3.60773 417.201 3.69779 493.083 3.73325 551.039C3.74632 572.621 3.5643 585.607 3.56943 595.294C3.58158 617.955 3.7402 620.731 3.74863 640.497C3.7617 669.916 3.62322 711.362 3.59336 735.919C3.57283 752.919 3.72633 768.309 3.73008 772.731C3.78514 834.183 3.78168 908.94 3.78355 959.862C3.78448 983.811 3.61198 995.185 3.61704 1000.13C3.61988 1002.94 3.62493 1005.28 3.63151 1007.27L1.88281 1005.52C14.8961 1005.48 12.5838 1005.37 27.5377 1005.38C36.8483 1005.39 38.5895 1005.53 39.8352 1005.54C50.8073 1005.58 52.9919 1005.4 61.5527 1005.39C110.783 1005.36 158.205 1005.48 206.952 1005.49C210.489 1005.5 210.175 1005.58 212.466 1005.57C222.304 1005.55 217.73 1005.42 228.011 1005.42C249.392 1005.4 271.348 1005.42 294.015 1005.43C296.261 1005.43 297.27 1005.54 302.407 1005.54C307.55 1005.54 311.451 1005.44 319.527 1005.45C340.627 1005.46 361.449 1005.58 383.795 1005.59C387.492 1005.59 392.074 1005.46 397.62 1005.46C415.022 1005.47 440.788 1005.58 455.699 1005.59C504.892 1005.6 550.275 1005.53 596.614 1005.53C607.503 1005.53 617.151 1005.64 622.817 1005.65C635.589 1005.65 625.952 1005.54 638.892 1005.54C744.592 1005.54 850.699 1005.59 957.646 1005.58C999.645 1005.58 1050.77 1005.46 1091.36 1005.49C1096.14 1005.5 1099.81 1005.51 1102.88 1005.53L1101.15 1007.27C1101.19 999.47 1101.27 995.474 1101.28 986.915C1101.28 965.623 1101.08 961.761 1101.06 939.301C1101.05 921.376 1101.24 900.834 1101.23 882.186C1101.22 863.537 1101.03 854.932 1101 833.51C1100.98 815.867 1101.07 791.232 1101.06 772.023C1100.93 595.989 1100.85 422.648 1101 245.53C1101.05 183.033 1101.03 113.694 1101.21 49.1073C1101.23 43.0413 1101.41 52.3207 1101.38 32.8714C1101.36 25.2452 1101.27 15.4137 1101.22 1.26855L1102.88 2.92945C1097.65 2.94793 1091.82 2.96109 1085.3 2.96323C941.694 3.00989 788.519 2.67021 642.506 2.7374C423.789 2.83866 197.116 4.15011 7.05497 2.23105C-2.26779 2.13681 2.78769 1.675 8.37314 1.54379C13.5566 1.63756 18.3487 1.74893 23.7731 1.85483C30.6039 1.27779 29.3994 1.42804 54.7178 1.47983C70.3053 1.51199 57.8545 1.26521 66.1633 1.19516C76.9345 1.10464 127.507 0.819604 117.781 1.20175C120.915 1.1355 123.809 1.07203 126.863 1.00717C163.475 0.949312 199.047 0.853634 234.856 0.743987C241.042 0.72482 241.327 0.60491 247.716 0.585783C264.876 0.533544 278.5 0.612317 296.183 0.600188C305.788 0.593655 307.121 0.455091 319.701 0.463957C332.273 0.472877 331.997 0.65993 349.15 0.456632C337.977 0.221935 387.817 0.392232 405.542 0.377775C408.114 0.375908 429.211 0.165062 440.425 0.189297C451.677 0.213091 468.759 0.347785 486.159 0.271329C494.317 0.235401 499.268 0.0711961 508.069 0.0618554C514.258 0.0553234 521.693 0.20128 529.529 0.207364C537.363 0.213427 554.314 0.0936147 557.42 0.0916407C568.631 0.08371 556.263 0.186326 563.93 0.191495C600.945 0.214824 643.951 0.269816 680.443 0.200772C684.93 0.192401 678.722 0.0715001 679.318 0.0674707C709.775 -0.0808707 693.518 0.0766532 701.743 0.184903C709.709 0.289576 768.009 0.232478 768.438 0.0223045C770.229 0.285491 783.189 0.0844733 786.555 0.076748C799.655 0.0469146 797.086 0.274621 809.784 0.20419C814.443 0.178539 805.371 0.024629 810.378 0.0291405C822.757 0.0403384 833.896 0.287596 850.373 0.312345C854.352 0.318411 855.645 0.20827 862.719 0.212003C869.801 0.215792 899.486 0.350536 885.787 0.118252C903.791 0.304397 907.415 0.202231 928.354 0.207364C933.658 0.208928 940.487 0.386421 951.775 0.331388C955.593 0.31271 955.48 0.141625 961.228 0.140225C974.368 0.136541 986.748 0.313647 1003.42 0.320645C1034.61 0.334171 1067.81 0.209668 1100.33 0.253995C1101.3 0.255337 1102.14 0.258625 1102.88 0.263418L1103.89 0.262465L1103.89 1.26855C1103.85 7.24512 1103.71 6.76074 1103.71 18.1947C1103.71 20.0837 1103.86 35.5631 1103.84 44.4455C1103.84 49.7908 1103.73 77.4876 1103.72 83.074C1103.71 92.3112 1103.88 93.9607 1103.84 99.0206C1103.75 113.65 1103.51 101.914 1103.84 119.516C1103.65 125.304 1103.67 135.591 1103.44 138.887C1103.69 144.875 1103.45 152.64 1103.54 164.254C1103.62 175.869 1104.11 185.392 1103.59 188.206C1103.65 193.631 1103.76 216.747 1103.76 220.645C1103.79 232.135 1103.64 225.991 1103.66 234.663C1103.67 236.19 1103.76 234.59 1103.75 244.388C1103.75 250.819 1103.74 297.934 1103.73 300.748C1103.57 332.848 1103.63 283.256 1103.52 276.313C1103.55 275.088 1103.58 273.876 1103.61 272.568C1103.65 258.383 1103.43 266.459 1103.38 272.889C1103.33 279.32 1103.43 291.336 1103.35 296.681C1103.32 299.344 1103.05 297.694 1103.08 289.64C1103 298.258 1102.91 286.489 1102.83 289.897C1102.75 293.644 1102.72 332.371 1102.87 332.576C1102.88 325.343 1102.87 316.341 1102.88 309.026C1103.13 299.461 1104.01 328.515 1103.66 355.162C1103.41 374.49 1103.2 342.626 1103.42 388.357C1103.43 381.325 1103.45 375.376 1103.46 368.987C1103.65 368.306 1103.44 378.672 1103.5 384.017C1103.53 386.584 1103.67 370.761 1103.72 384.499C1103.44 396.314 1103.72 405.405 1103.72 425.218C1103.67 419.711 1103.62 414.198 1103.57 408.692C1103.37 442.17 1103.31 364.411 1103.2 429.51C1103.19 421.676 1103.19 413.882 1103.18 406.008C1103.08 409.824 1102.78 403.717 1102.72 407.133C1102.55 416.093 1102.65 429.351 1102.64 440.28C1102.63 445.063 1102.55 442.096 1102.55 442.498C1102.54 449.048 1102.66 447.602 1102.67 453.349C1102.68 460.581 1102.56 481.47 1102.58 484.856C1102.61 493.618 1102.84 479.029 1102.86 479.873C1102.97 485.459 1102.88 496.869 1103.02 496.27C1102.92 468.816 1103.05 389.697 1103.29 461.274C1103.53 441.541 1103.86 447.239 1103.88 475.613C1103.9 499.085 1103.77 483.939 1103.63 496.157C1103.61 497.737 1103.54 529.173 1103.64 530.783C1103.41 529.523 1103.2 539.754 1102.96 532.889C1102.93 531.884 1102.94 518.983 1102.75 523.485C1102.65 525.735 1102.44 532.194 1102.31 531.153C1102.4 533.805 1102.5 536.578 1102.59 539.271C1102.61 558.603 1102.52 561.349 1102.36 571.919C1102.42 571.437 1102.71 561.67 1102.62 576.501C1102.62 577.262 1102.51 577.92 1102.46 585.455C1102.36 600.685 1102.33 603.864 1102.03 592.174C1102.2 623.715 1101.87 630.511 1101.97 662.856C1102.35 656.426 1102.26 645.054 1102.18 615.435C1102.27 614.149 1102.36 613.546 1102.46 612.22C1102.25 651.643 1102.27 632.162 1102.46 654.497C1102.5 659.963 1102.45 689.108 1102.71 679.382C1102.77 677.086 1102.76 658.98 1102.86 661.056C1102.88 661.458 1102.92 683.469 1102.9 685.41C1102.59 709.765 1102.38 666.242 1102.49 733.314C1102.5 735.162 1102.61 735.811 1102.62 739.422C1102.65 746.213 1102.52 746.298 1102.55 752.363C1102.58 758.431 1102.76 766.839 1102.6 775.961C1102.3 792.64 1102.14 753.297 1102.29 735.773C1101.91 728.66 1101.9 853.853 1101.93 861.61C1102.08 895.482 1101.99 839.115 1102.1 836.211C1102.14 835.005 1102.71 835.605 1102.34 821.341C1102.23 817.122 1102.09 834.759 1102.03 824.235C1101.97 813.705 1102.14 817.877 1102.15 817.114C1102.19 814.494 1102.13 803.295 1102.15 801.842C1102.51 779.496 1103.05 781.545 1102.25 811.166C1102.43 824.067 1102.72 794.454 1102.84 810.491C1102.99 829.981 1102.74 844.208 1102.72 846.66C1102.59 876.031 1102.96 842.164 1102.84 878.038C1102.78 898.013 1102.59 848.145 1102.62 893.76C1102.64 931.941 1102.77 911.322 1103.07 914.095C1103.14 914.75 1103.22 935.669 1103.19 907.183C1103.11 906.379 1103.01 904.859 1102.94 903.051C1103 896.064 1103.39 884.414 1103.4 880.707C1103.47 862.582 1103.26 863.457 1103.5 852.768C1103.24 860.402 1103.4 847.978 1103.34 843.316C1103.14 826.005 1103.06 848.704 1103.33 809.848C1103.2 814.912 1103.08 819.492 1102.96 824.396C1102.96 819.735 1102.95 815.071 1102.95 810.41C1103.22 803.458 1103.18 778.696 1103.45 801.119C1103.53 774.154 1103.47 763.255 1103.26 757.346C1103.22 756.224 1103.21 752.172 1103.2 747.412C1103.14 748.312 1102.96 749.464 1102.94 748.714C1102.74 742.003 1103.08 731.599 1103.21 735.146C1103.22 731.817 1103.23 729.181 1103.23 728.25C1103.25 722.351 1103.37 733.916 1103.41 729.134C1103.42 727.558 1103.39 710.937 1103.44 710.616C1103.75 708.612 1103.53 735.965 1103.7 681.037C1103.43 679.711 1103.49 705.223 1103.19 698.672C1102.88 691.638 1103.3 677.292 1102.91 674.157C1102.98 672.992 1103.03 672.477 1103.1 671.473C1102.93 649.251 1103.26 648.957 1103.33 642.168C1103.47 628.985 1103.45 568.379 1103.17 622.797C1103.14 614.839 1103.12 606.715 1103.1 598.797C1103.68 596.989 1103.45 601.811 1103.54 563.673C1103.56 555.274 1103.81 552.54 1103.51 544.302C1103.81 545.421 1103.63 520.579 1103.66 518.26C1103.9 503.391 1104.22 558.603 1103.7 565.682C1103.9 575.002 1103.63 574.969 1103.67 585.374C1103.72 600.406 1103.77 602.493 1103.57 620.338C1103.86 637.901 1103.7 551.58 1104.07 603.909C1104.41 651.487 1104.61 907.626 1104.69 1007.27L1104.69 1009.07L1102.88 1009.08C1092.9 1009.08 1084.49 1009.09 1078.02 1009.09C949.206 1009.2 881.481 1009.26 765.773 1009.24C754.36 1009.24 668.197 1009.27 686.104 1008.95C688.677 1008.9 725.737 1008.77 693.949 1008.52C700.415 1008.67 681.724 1008.77 680.157 1008.78C644.187 1009.14 665.009 1009.23 608.381 1009.24ZM440.508 1006.34C514.415 1006.41 460.119 1006.19 475.472 1005.7C465.987 1005.7 456.536 1005.7 447.051 1005.7C449.542 1005.73 452.002 1005.76 454.494 1005.79C454.504 1005.79 454.515 1005.79 454.526 1005.79C449.864 1005.97 445.17 1006.15 440.508 1006.34ZM3.14365 237.702C3.20828 240.585 3.27304 243.435 3.33628 246.559C3.31622 256.324 3.29653 266.051 3.27646 275.816C3.23261 274.651 3.18824 273.525 3.14438 272.36C3.14625 260.808 3.14828 249.293 3.14365 237.702ZM1102.22 725.437C1102.4 711.612 1102.08 712.859 1102.22 694.492C1101.99 696.743 1101.76 699.243 1101.52 701.614C1101.56 715.594 1101.65 718.771 1101.59 733.957C1101.67 732.189 1101.74 730.38 1101.82 728.652C1101.8 726.123 1101.78 723.433 1101.77 720.984C1101.98 717.088 1102.01 741.354 1102.22 725.485C1102.22 725.469 1102.22 725.453 1102.22 725.437ZM1102.12 583.767C1102.16 576.331 1102.27 546.875 1102.17 542.855C1101.84 529.231 1102.05 612.337 1101.76 551.086C1101.71 551.366 1101.66 551.086 1101.62 551.086C1101.6 562.259 1101.59 573.398 1101.57 584.651C1101.76 584.048 1101.94 584.45 1102.12 583.767ZM707.822 1006.32C719.249 1006.34 773.725 1006.19 755.967 1005.97C750.742 1005.91 726.422 1006.21 717.178 1006.2C711.192 1006.19 717.901 1006.03 706.086 1006.09C706.608 1006.16 706.931 1006.24 707.854 1006.32C707.843 1006.32 707.833 1006.32 707.822 1006.32ZM686.394 1007.28C698.209 1007.25 710.185 1007.21 722.081 1007.18C713.399 1006.99 696.32 1007.11 695.315 1006.85C698.57 1006.83 701.787 1006.81 705.041 1006.79C707.532 1006.84 709.985 1006.9 712.436 1006.96C722.644 1006.82 716.461 1006.74 735.471 1006.79C723.977 1006.39 721.842 1006.17 689.287 1006.58C695.436 1006.36 689.648 1005.65 671.605 1006.16C668.229 1006.25 682.327 1006.31 682.487 1006.33C684.656 1006.51 676.833 1006.63 679.16 1006.81C680.205 1006.89 688.805 1006.89 690.091 1007C690.685 1007.05 682.506 1007.2 686.394 1007.28ZM662.844 1006.33C666.501 1006.22 654.003 1005.96 643.152 1006.01C626.231 1006.09 652.917 1006.35 662.844 1006.33ZM3.14341 237.638C3.14349 237.659 3.14357 237.68 3.14365 237.702C3.14341 237.691 3.14316 237.68 3.14292 237.67C3.14308 237.659 3.14324 237.648 3.14341 237.638ZM1101.99 622.106C1101.9 613.346 1101.91 600.379 1101.76 601.337C1101.79 597.077 1101.82 592.769 1101.85 588.509C1101.8 588.549 1101.76 588.63 1101.71 588.67C1101.68 601.489 1101.66 614.27 1101.63 627.089C1101.75 625.482 1101.87 623.995 1101.99 622.106ZM1102.1 482.445C1102.12 466.332 1101.91 479.841 1101.81 476.304C1101.71 472.768 1101.79 458.413 1101.65 460.101C1101.64 469.586 1101.64 479.479 1101.63 489.084C1101.79 486.552 1101.95 484.784 1102.1 482.413C1102.1 482.424 1102.1 482.434 1102.1 482.445ZM138.874 1006.17C149.804 1006.22 145.344 1006.38 166.925 1006.19C166.909 1006.19 166.893 1006.19 166.877 1006.19C146.341 1006.06 119.904 1005.95 97.2396 1006.07C111.102 1006.24 121.675 1006.1 138.874 1006.17ZM1101.75 763.664C1101.88 768.279 1101.98 746.785 1101.87 742.043C1101.68 734.369 1101.56 756.631 1101.75 763.664ZM1.87045 702.756C1.48554 686.128 1.05348 717.635 1.24008 750.628C1.25641 753.481 1.37883 732.181 1.45395 738.491C1.46135 739.129 1.45218 750.822 1.50571 753.714C1.55937 756.608 1.68392 753.569 1.73618 758.312C1.82751 766.634 1.65827 785.439 1.77817 791.668C1.79424 792.488 1.96081 780.825 1.96713 780.094C2.06791 768.118 1.85017 756.578 1.84873 754.727C1.84126 745.202 2.01197 746.641 2.05209 744.23C2.12756 739.688 2.05211 731.691 2.05771 731.129C2.20743 716.673 2.16458 749.704 2.22617 754.164C2.39227 766.179 2.54669 755.055 2.64048 783.871C2.64931 786.607 2.63928 819.362 2.83042 778.084C3.22885 859.135 3.05705 737.358 2.96933 724.136C2.92866 718.041 2.76595 727.27 2.69272 723.573C2.52524 715.133 2.4957 700.747 2.25962 702.033C1.76326 704.807 2.08849 723.702 2.00498 736.723C1.89719 735.356 1.79207 734.834 1.68662 732.302C1.82846 736.201 1.89943 703.962 1.87143 702.756C1.8711 702.756 1.87078 702.756 1.87045 702.756ZM2.43759 907.939C2.28781 926.146 2.60114 924.857 2.42197 941.536C2.70331 956.245 2.68443 927.233 2.70029 923.854C2.7712 908.422 3.07713 908.777 2.98301 892.989C2.80199 898.414 2.61908 902.836 2.43759 907.939ZM2.56675 749.583C2.72538 761.759 2.7227 739.97 2.75303 739.086C3.07482 729.464 3.01228 794.709 2.56675 749.583ZM778.746 1006.95C784.932 1006.96 781.006 1006.81 786.462 1006.76C791.925 1006.71 810.608 1006.84 810.14 1006.75C809.658 1006.66 775.423 1006.41 809.787 1006.36C808.622 1006.3 809.015 1006.26 808.452 1006.22C799.008 1006.21 789.476 1006.21 780.032 1006.21C785.216 1006.36 790.529 1006.52 795.512 1006.67C790.207 1006.79 787.225 1006.64 786.944 1006.64C786.944 1006.64 786.944 1006.64 786.944 1006.64C777.06 1006.65 764.853 1006.92 778.746 1006.95ZM291.685 1006.47C289.836 1006.85 304.424 1006.42 310.412 1006.38C316.399 1006.33 324.627 1006.47 321.536 1006.31C311.85 1006.2 291.885 1006.43 291.685 1006.47C291.685 1006.47 291.685 1006.47 291.685 1006.47ZM2.43833 1006.85C2.43918 1006.99 2.44004 1007.13 2.44089 1007.27L1.88281 1006.71C16.6816 1006.62 14.4742 1006.52 32.9711 1006.63C32.2477 1006.54 31.5244 1006.45 30.8009 1006.36C16.5815 1006.36 16.955 1006.6 1.88281 1006.53L2.62397 1007.27C2.62716 1006.62 2.63094 1005.95 2.63535 1005.24C2.65308 1002.43 2.86622 1008.45 2.7977 995.758C2.68395 999.452 2.55769 1003.2 2.43833 1006.85ZM77.0974 1006.37C59.5746 1006.39 45.6771 1007.13 77.9493 1006.79C82.7324 1006.74 90.2756 1006.36 77.0974 1006.37ZM617.11 1006.96C646.918 1006.99 613.055 1006.87 605.295 1006.75C674.687 1006.66 597.461 1006.78 590.538 1006.4C582.058 1006.51 566.189 1006.76 583.818 1006.83C591.173 1006.85 588.488 1006.74 588.93 1006.74C602.474 1006.77 600.833 1006.95 617.11 1006.96ZM2.41928 876.303C2.42488 877.429 2.55329 875.668 2.57895 879.245C2.60443 882.826 2.51456 890.932 2.59336 891.735C2.67265 892.535 2.73414 876.276 2.67636 871.288C2.61804 866.304 2.36984 866.136 2.41928 876.303ZM2.10288 990.694C2.19527 1005.59 2.66832 981.234 2.66611 977.995C2.64138 949.539 2.25266 991.538 2.10288 990.694ZM547.89 1007.77C583.821 1007.53 557.537 1007.11 535.03 1006.86C532.058 1006.91 529.008 1006.96 526.076 1007.01C539.581 1006.7 563.246 1006.4 510.596 1006.67C539.414 1006.74 515.282 1006.82 515.097 1006.84C511.922 1007.41 554.61 1007.14 547.858 1007.77C547.869 1007.77 547.88 1007.77 547.89 1007.77ZM2.55454 827.869C2.55265 812.23 2.45464 771.575 2.20737 790.542C2.32306 802.999 2.43884 815.412 2.55454 827.869ZM1103.35 974.023C1103.49 961.242 1103.49 949.461 1103.48 933.707C1103.27 947.892 1103.25 938.57 1103.2 933.787C1103.12 926.532 1103.13 944.106 1103.12 944.156C1102.92 943.834 1102.89 932.628 1102.89 958.141C1102.83 951.833 1102.76 945.608 1102.69 939.301C1102.68 958.748 1102.55 963.327 1102.4 975.663C1102.78 963.687 1102.54 979.456 1102.73 993.763C1102.82 1000.9 1103.28 980.525 1103.35 973.975C1103.35 973.991 1103.35 974.007 1103.35 974.023ZM585.024 1007.84C588.721 1007.78 592.105 1007.68 595.682 1007.61C599.58 1007.6 603.486 1007.59 607.384 1007.58C607.866 1007.64 608.269 1007.71 608.831 1007.77C613.968 1007.78 611.966 1007.7 613.493 1007.69C613.493 1007.69 613.493 1007.69 613.493 1007.69C635.389 1007.58 644.355 1007.59 661.509 1007.78C661.509 1007.59 661.509 1007.41 661.509 1007.22C657.654 1007.24 653.758 1007.26 649.903 1007.28C647.854 1007.38 645.796 1007.48 643.746 1007.57C639.285 1007.52 634.865 1007.47 630.404 1007.41C626.83 1007.45 622.535 1007.48 619.441 1007.52C601.638 1007 642.099 1007.35 642.46 1007.14C642.701 1007 601.952 1007 596.084 1007.1C595.24 1007.11 604.045 1007.5 589.139 1007.3C586.808 1007.27 585.988 1006.43 569.913 1007.11C567.623 1007.2 575.622 1007.72 585.024 1007.84ZM732.98 1008.11C710.071 1007.58 794.622 1008.15 758.137 1007.71C768.545 1007.46 766.614 1007.46 756.128 1007.24C755.205 1007.22 762.45 1007.16 761.834 1007.15C752.028 1007.03 740.213 1007.09 740.133 1006.87C737.482 1006.88 734.988 1006.89 732.337 1006.91C743.381 1007.11 725.818 1007.25 719.026 1007.43C715.933 1007.5 723.043 1007.53 720.441 1007.6C719.477 1007.62 709.548 1007.57 709.14 1007.64C708.296 1007.81 714.533 1008.03 725.103 1008.15C725.103 1008.15 725.103 1008.15 725.103 1008.15C727.753 1008.14 730.329 1008.13 732.98 1008.11ZM243.363 1007.67C239.464 1007.37 223.837 1007.29 253.86 1007.14C252.374 1007.09 250.844 1007.03 249.359 1006.97C244.296 1006.98 239.391 1006.98 234.248 1006.99C218.815 1007.86 190.647 1006.87 208.689 1007.49C210.658 1007.56 222.667 1007.48 210.811 1007.67C210.827 1007.67 210.843 1007.67 210.859 1007.67C227.413 1007.61 229.498 1007.51 243.363 1007.67ZM354.169 1007.46C392.35 1006.84 301.409 1007.12 316.601 1007.28C317.968 1007.3 357.143 1007.16 354.169 1007.46ZM47.7924 1008.01C64.9091 1008.02 66.0436 1007.68 64.3176 1007.56C62.5895 1007.44 50.7363 1007.56 49.207 1007.54C44.2231 1007.48 54.7936 1007.44 48.3229 1007.35C46.1801 1007.32 16.3654 1007.2 14.999 1007.22C7.41381 1007.3 18.5031 1007.57 16.3332 1007.61C11.6504 1007.68 5.85799 1007.64 1.88281 1007.64L1.50828 1007.64L1.50792 1007.27C1.50388 1005.24 1.48737 1003.68 1.43759 1002.99C1.2952 1000.99 1.285 1003.57 1.31696 1007.27L1.3175 1007.83L1.88281 1007.83C6.35296 1007.8 12.4606 1007.7 14.115 1007.69C23.2382 1007.68 22.4415 1007.85 29.2738 1007.89C36.1011 1007.93 40.5627 1007.87 46.5868 1007.88C48.5908 1007.88 46.9245 1008 47.7924 1008.01ZM104.393 1007.3C86.5147 1007.55 130.045 1007.83 135.209 1007.77C150.401 1007.59 112.954 1007.17 104.393 1007.3ZM675.623 1007.31C659.271 1007.49 697.365 1007.64 708.256 1007.57C706.236 1007.49 681.249 1007.24 675.623 1007.31ZM537.924 1007.77C552.955 1007.71 533.022 1007.29 520.482 1007.3C513.131 1007.57 520.048 1007.52 528.246 1007.53C536.435 1007.54 526.197 1007.81 537.924 1007.77ZM1.44931 867.51C1.44498 870.753 1.67052 923.02 1.76425 892.989C1.77125 890.698 1.73154 854.112 1.68954 851.339C1.60462 845.759 1.46144 859.152 1.44931 867.51ZM465.827 1008.17C473.784 1007.93 481.612 1007.94 474.298 1007.66C474.288 1007.66 474.277 1007.66 474.266 1007.66C494.4 1007.58 495.292 1008.14 499.633 1008.13C514.814 1008.09 500.431 1007.68 509.953 1007.55C487.809 1007.68 494.16 1007.4 477.32 1007.39C473.542 1007.38 458.424 1007.55 456.214 1007.65C454.007 1007.75 461.728 1008.05 465.827 1008.17ZM1.39047 793.677C1.30003 811.319 1.68258 827.471 1.74326 803.001C1.77312 791.064 1.44553 782.906 1.39047 793.677ZM1103.47 558.32C1103.37 561.012 1103.27 563.786 1103.17 566.679C1103.15 560.17 1103.12 553.656 1103.1 547.148C1103.13 552.292 1103.16 557.443 1103.19 562.628C1103.23 550.41 1103.41 544.824 1103.47 558.288C1103.47 558.298 1103.47 558.309 1103.47 558.32ZM1103.55 123.342C1103.64 117.876 1103.34 107.106 1103.32 108.473C1103.15 118.759 1103.41 130.929 1103.55 123.342ZM699.784 1008.22C720.105 1008.26 706.131 1007.77 693.676 1007.74C701.296 1007.83 688.253 1008.19 699.784 1008.22ZM1103.52 276.313C1103.48 278.138 1103.44 279.976 1103.4 282.02C1103.46 275.592 1103.5 274.478 1103.52 276.313ZM1.01986 875.821C0.982552 878.924 0.951734 901.866 0.997892 904.965C1.09494 911.396 1.36343 893.504 1.28085 882.974C1.27199 881.809 1.05719 872.734 1.01986 875.869C1.01986 875.853 1.01986 875.837 1.01986 875.821ZM1103.66 530.831C1103.65 530.867 1103.65 530.848 1103.64 530.783C1103.65 530.806 1103.65 530.8 1103.66 530.831ZM768.262 8.76188e-05C768.386 0.0076313 768.453 0.0151182 768.438 0.0223045C768.39 0.0152482 768.293 0.00782418 768.262 8.76188e-05ZM32.2477 1008.54C39.884 1009.01 57.4866 1008.76 43.5807 1008.53C42.8024 1008.52 34.0993 1008.55 32.2477 1008.54Z" fill="#424242"/>
<defs>
<linearGradient id="paint0_linear_3874_1102" x1="552.383" y1="1.26855" x2="552.383" y2="1007.27" gradientUnits="userSpaceOnUse">
<stop stop-color="#DBC8A5"/>
<stop offset="1" stop-color="#D2CFCA"/>
</linearGradient>
</defs>
</svg>
