<svg width="661" height="700" viewBox="0 0 661 700" fill="none" xmlns="http://www.w3.org/2000/svg">
<path d="M330.156 334.485C328.874 320.8 317.842 293.429 283.98 293.429C241.651 293.429 222.411 293.429 169.821 241.506C163.407 235.065 145.963 223.876 127.492 230.638C140.319 210.915 179.312 180.646 232.672 217.355C214.287 203.669 182.391 162.533 201.888 107.47C206.591 94.5896 215.741 66.897 214.715 59.1688C234.382 70.8416 276.797 106.262 289.11 154.564C282.269 126.388 274.744 62.7914 299.372 33.8108C309.633 24.5531 330.156 4.83011 330.156 0V334.485Z" fill="#B3B3B3"/>
<path d="M330.027 334.485C331.31 320.8 342.341 293.429 376.204 293.429C418.533 293.429 437.773 293.429 490.363 241.506C496.776 235.065 514.221 223.876 532.692 230.638C519.865 210.915 480.871 180.646 427.511 217.355C445.897 203.669 477.793 162.533 458.296 107.47C453.593 94.5896 444.443 66.897 445.469 59.1688C425.801 70.8416 383.387 106.262 371.073 154.564C377.914 126.388 385.439 62.7914 360.812 33.8108C350.55 24.5531 330.027 4.83011 330.027 0V334.485Z" fill="#B3B3B3"/>
<path d="M135.188 176.299C126.636 171.066 107.995 155.288 101.838 134.035C94.1416 107.47 59.5091 119.545 68.4879 141.281C77.4667 163.016 119.795 173.884 135.188 176.299Z" fill="#B3B3B3"/>
<path d="M524.992 176.299C533.543 171.066 552.185 155.288 558.342 134.035C566.038 107.47 600.671 119.545 591.692 141.281C582.713 163.016 540.384 173.884 524.992 176.299Z" fill="#B3B3B3"/>
<path d="M153.148 170.262C141.177 154.161 120.055 112.542 131.343 74.8669C137.756 62.3891 146.735 36.7091 131.343 33.811C112.103 30.1884 86.4488 59.1691 97.993 94.1874C109.537 129.206 121.081 144.904 153.148 170.262Z" fill="#B3B3B3"/>
<path d="M507.043 170.262C519.015 154.161 540.136 112.542 528.849 74.8669C522.435 62.3891 513.456 36.7091 528.849 33.811C548.089 30.1884 573.743 59.1691 562.198 94.1874C550.654 129.206 539.11 144.904 507.043 170.262Z" fill="#B3B3B3"/>
<path d="M28.7275 332.07C18.4661 308.724 3.33037 252.615 24.8795 214.94C51.8159 167.846 103.123 202.864 76.1869 225.807C49.2505 248.751 23.5968 251.166 28.7275 332.07Z" fill="#B3B3B3"/>
<path d="M631.464 332.07C641.725 308.724 656.861 252.615 635.312 214.94C608.376 167.846 557.068 202.864 584.005 225.807C610.941 248.751 636.595 251.166 631.464 332.07Z" fill="#B3B3B3"/>
<path d="M26.1592 388.824C33.7906 393.613 50.2504 425.711 51.7773 426.25C35.0903 423.023 1.53098 412.964 0.505554 398.484C-0.777131 380.371 18.4631 383.994 26.1592 388.824Z" fill="#B3B3B3"/>
<path d="M634.024 388.824C626.393 393.613 609.933 425.711 608.406 426.25C625.093 423.023 658.653 412.964 659.678 398.484C660.961 380.371 641.72 383.994 634.024 388.824Z" fill="#B3B3B3"/>
<path d="M263.453 321.202C300.394 312.508 323.311 370.711 330.152 400.899V487.841C327.587 403.314 291.672 350.183 267.301 355.013C242.93 359.843 217.276 332.07 263.453 321.202Z" fill="#B3B3B3"/>
<path d="M396.723 321.202C359.782 312.508 336.864 370.711 330.023 400.899V487.841C332.589 403.314 368.504 350.183 392.875 355.013C417.246 359.843 442.9 332.07 396.723 321.202Z" fill="#B3B3B3"/>
<path d="M321.178 569.953C323.743 528.494 322.717 444.611 298.09 440.747C267.305 435.917 278.849 484.218 291.676 497.501C304.503 510.784 321.178 538.557 321.178 569.953Z" fill="#B3B3B3"/>
<path d="M339.005 569.953C336.44 528.494 337.466 444.611 362.094 440.747C392.878 435.917 381.334 484.218 368.507 497.501C355.68 510.784 339.005 538.557 339.005 569.953Z" fill="#B3B3B3"/>
<path d="M330.156 675.008C322.033 650.052 299.115 596.76 272.435 583.236C239.086 566.331 250.63 532.52 267.305 533.727C283.98 534.935 310.916 538.557 330.156 638.782V675.008Z" fill="#B3B3B3"/>
<path d="M330.027 675.008C338.151 650.052 361.068 596.76 387.748 583.236C421.098 566.331 409.554 532.52 392.879 533.727C376.204 534.935 349.268 538.557 330.027 638.782V675.008Z" fill="#B3B3B3"/>
<path d="M239.09 619.461C236.524 618.254 171.108 565.123 105.691 583.236C40.2737 601.348 28.7295 697.951 89.0157 675.008C149.302 652.065 103.125 572.368 239.09 619.461Z" fill="#B3B3B3"/>
<path d="M421.102 619.461C423.667 618.254 489.084 565.123 554.501 583.236C619.918 601.348 631.462 697.951 571.176 675.008C510.89 652.065 557.066 572.368 421.102 619.461Z" fill="#B3B3B3"/>
<path d="M159.555 550.633C133.473 531.312 70.7929 500.158 28.7208 530.105C-23.8693 567.538 22.3074 609.801 51.8091 574.783C81.3109 539.765 133.901 539.765 159.555 550.633Z" fill="#B3B3B3"/>
<path d="M500.621 550.633C526.702 531.312 589.383 500.158 631.455 530.105C684.045 567.538 637.868 609.801 608.367 574.783C578.865 539.765 526.275 539.765 500.621 550.633Z" fill="#B3B3B3"/>
<path d="M317.324 699.159C304.497 683.058 271.917 653.031 244.211 661.725C209.579 672.593 205.731 697.951 182.642 690.706C159.554 683.461 159.554 662.933 174.946 646.027C190.338 629.122 230.102 621.877 276.278 647.235C224.971 590.481 111.582 477.215 68.4833 478.181C60.7872 478.181 44.3688 478.906 40.2643 481.804C35.1335 485.426 5.63175 497.502 0.501007 470.936C-4.62973 444.37 30.0028 425.05 92.8543 474.558C65.4904 437.528 21.024 346.561 62.0699 278.939C71.4762 265.656 97.2155 244.162 124.921 264.449C159.554 289.807 113.377 310.335 103.116 306.712C92.8543 303.09 -3.34703 399.692 144.162 513.199C113.377 462.081 71.3052 352.115 149.292 321.203C166.395 316.775 197.521 321.203 185.208 374.334C182.642 379.969 175.203 392.688 165.967 398.484C154.423 405.729 123.639 492.671 210.861 572.368C186.918 532.117 156.476 440.506 226.254 396.069C235.66 392.849 256.268 390.273 263.451 405.729C272.43 425.05 242.928 450.408 232.667 466.106L232.477 466.396C221.958 482.48 185.707 537.908 267.3 629.122C279.271 641.197 306.037 672.11 317.324 699.159Z" fill="#B3B3B3"/>
<path d="M342.852 699.159C355.678 683.058 388.259 653.031 415.965 661.725C450.597 672.593 454.445 697.951 477.533 690.706C500.622 683.461 500.622 662.933 485.23 646.027C469.837 629.122 430.074 621.877 383.897 647.235C435.205 590.481 548.594 477.215 591.692 478.181C599.389 478.181 615.807 478.906 619.912 481.804C625.042 485.426 654.544 497.502 659.675 470.936C664.806 444.37 630.173 425.05 567.321 474.558C594.685 437.528 639.152 346.561 598.106 278.939C588.7 265.656 562.96 244.162 535.254 264.449C500.622 289.807 546.798 310.335 557.06 306.712C567.321 303.09 663.523 399.692 516.014 513.199C546.798 462.081 588.871 352.115 510.883 321.203C493.781 316.775 462.654 321.203 474.968 374.334C477.533 379.969 484.973 392.688 494.208 398.484C505.753 405.729 536.537 492.671 449.314 572.368C473.258 532.117 503.7 440.506 433.922 396.069C424.516 392.849 403.907 390.273 396.724 405.729C387.746 425.05 417.247 450.408 427.509 466.106L427.699 466.396C438.218 482.48 474.469 537.908 392.876 629.122C380.905 641.197 354.139 672.11 342.852 699.159Z" fill="#B3B3B3"/>
</svg>
