<svg width="406" height="335" viewBox="0 0 406 335" fill="none" xmlns="http://www.w3.org/2000/svg">
<path d="M202.664 334.485C201.381 320.8 190.35 293.429 156.487 293.429C114.159 293.429 94.9185 293.429 42.3284 241.506C35.915 235.065 18.4705 223.876 -0.000167847 230.638C12.8267 210.915 51.8203 180.646 105.18 217.355C86.7948 203.669 54.8987 162.533 74.3956 107.47C79.0987 94.5896 88.2486 66.897 87.2224 59.1688C106.89 70.8416 149.304 106.262 161.618 154.564C154.777 126.388 147.252 62.7914 171.88 33.8108C182.141 24.5531 202.664 4.83011 202.664 0V334.485Z" fill="#A9B5C0"/>
<path d="M202.535 334.485C203.818 320.8 214.849 293.429 248.712 293.429C291.04 293.429 310.281 293.429 362.871 241.506C369.284 235.065 386.729 223.876 405.199 230.638C392.373 210.915 353.379 180.646 300.019 217.355C318.404 203.669 350.3 162.533 330.804 107.47C326.1 94.5896 316.951 66.897 317.977 59.1688C298.309 70.8416 255.895 106.262 243.581 154.564C250.422 126.388 257.947 62.7914 233.32 33.8108C223.058 24.5531 202.535 4.83011 202.535 0V334.485Z" fill="#A9B5C0"/>
</svg>
