<svg width="270" height="293" viewBox="0 0 270 293" fill="none" xmlns="http://www.w3.org/2000/svg">
<path d="M133.781 292.151C139.587 259.826 163.779 189.126 212.782 170.056C220.594 166.52 233.131 154.409 220.78 134.253C205.341 109.058 153.409 138.231 140.776 216.468V120.992C142.648 102.428 157.619 65.2983 202.534 65.2983C206.276 65.7403 211.797 68.4808 203.937 75.9066C194.112 85.1889 217.973 107.732 239.026 93.1452C260.08 78.5587 276.923 61.3201 265.694 28.169C254.466 -4.98218 165.856 -30.5288 134.583 83.5112L133.781 292.151Z" fill="#A9B5C0"/>
<path d="M135.5 292.092C129.694 259.766 105.502 189.066 56.4993 169.996C48.6869 166.46 36.1499 154.349 48.5013 134.193C63.9406 108.998 115.873 138.171 128.505 216.408V120.933C126.633 102.368 111.662 65.2387 66.7477 65.2387C63.0049 65.6807 57.4842 68.4212 65.3442 75.847C75.1692 85.1294 51.3085 107.672 30.2549 93.0856C9.20133 78.4991 -7.64153 61.2605 3.58704 28.1094C14.8156 -5.04175 103.425 -30.5883 134.698 83.4516L135.5 292.092Z" fill="#A9B5C0"/>
</svg>
