<svg width="569" height="122" viewBox="0 0 569 122" fill="none" xmlns="http://www.w3.org/2000/svg">
<path d="M537.563 8.45183C415.402 -26.6742 336.369 56.4859 307.598 109.725C328.326 77.0193 395.565 42.2594 423.874 93.3188C448.577 137.874 465.981 119.84 471.595 105.253C482.824 44.7855 402.352 47.3491 360.713 56.1894C391.592 38.1558 460.647 11.8479 489.842 50.8853C519.036 89.9227 545.049 86.5996 554.406 80.0583C586.969 45.0507 556.745 17.7342 537.563 8.45183Z" fill="#A9B5C0"/>
<path d="M31.2376 8.39226C153.399 -26.7338 232.431 56.4264 261.203 109.665C240.475 76.9598 173.236 42.1998 144.927 93.2592C120.224 137.814 102.82 119.78 97.2055 105.194C85.9769 44.7259 166.448 47.2896 208.088 56.1299C177.209 38.0962 108.153 11.7884 78.959 50.8257C49.7648 89.8631 23.7519 86.54 14.3948 79.9988C-18.1681 44.9912 12.0555 17.6746 31.2376 8.39226Z" fill="#A9B5C0"/>
</svg>
