<svg width="213" height="648" viewBox="0 0 213 648" fill="none" xmlns="http://www.w3.org/2000/svg">
<path fill-rule="evenodd" clip-rule="evenodd" d="M82.9588 647.165C83.5969 625.039 70.4511 571.088 12.7629 532.284C26.8021 535.9 60.2408 539.559 81.6825 525.263C108.485 507.393 87.4258 478.672 42.1175 464.631C54.6677 455.483 79.5128 430.933 78.4918 405.914C77.2155 374.641 38.2887 372.997 0 425.699C2.97801 414.211 13.2734 388.427 30.6309 377.194C52.3278 363.153 82.9588 339.539 85.5114 296.777C88.0639 254.016 82.3206 221.466 49.7753 251.463C19.5464 279.325 15.7432 333.615 19.4457 345.293C15.1935 336.153 9.47311 312.974 14.6773 278.906C14.7721 278.286 14.866 277.669 14.9592 277.057C15.0618 276.383 15.1635 275.715 15.2645 275.05C21.876 231.564 25.5336 207.507 69.5577 166.578C60.1983 179.342 45.3083 206.148 60.6237 211.254C79.768 217.636 135.287 117.434 42.7557 0C63.389 23.189 107.208 78.8851 117.419 116.158C120.363 126.906 123.104 139.184 125.813 151.321C134.847 191.791 143.532 230.697 158.26 206.148C173.575 180.619 154.431 127.858 142.944 104.669C169.108 143.176 205.1 230.528 139.754 271.885C146.348 259.546 154.686 236.527 135.287 243.165C111.037 251.463 81.0443 361.877 212.502 377.194C180.169 374.854 111.931 378.087 97.6361 409.743C79.768 449.313 89.3402 519.518 156.345 523.347C142.732 531.006 103.252 546.068 54.2423 545.047C67.4306 562.493 91.6375 607.34 82.9588 647.165ZM19.4457 345.293C19.7819 346.016 20.1089 346.651 20.4206 347.196C20.0573 346.833 19.7295 346.188 19.4457 345.293ZM95.3164 397.243C97.6385 382.935 109.161 358.907 139.38 364.118C127.027 361.27 104.321 344.773 100.249 297.493C101.656 315.542 96.6031 351.842 66.7861 365.817C80.9229 361.399 99.789 363.415 95.3164 397.243ZM83.2864 219.328C93.2292 208.52 107.56 183.508 105.294 146.793C111.829 167.642 120.979 217.765 105.294 251.463C110.253 228.932 112.39 192.4 83.2864 219.328Z" fill="#A9B5C0"/>
</svg>
