<svg width="316" height="383" viewBox="0 0 316 383" fill="none" xmlns="http://www.w3.org/2000/svg">
<path d="M40.4996 382.5C38.4996 349.334 49.8996 275.7 111.5 246.5C154.553 226.092 183.017 216.707 199.042 213.02C162.609 217.527 114.308 217.624 136.5 190.5C168 152 257 85.0005 221 162C251.667 124.334 313.5 39.2 315.5 0C301.5 28.8333 261.9 86.8 215.5 88C208.667 102 186 134.2 150 151C105 172 75 180.5 112.5 136.5C84.3333 158.667 22.4 218.1 0 278.5C14.5 261.167 48.5 223.8 68.5 213C93.5 199.5 109 194 85.5 234C62 274 33.4992 315.501 40.4996 382.5Z" fill="#A9B5C0"/>
</svg>
